<svg xmlns="http://www.w3.org/2000/svg" viewBox="0 0 972 697" width="972" height="697" fill="#fff"><path stroke="currentColor" d="M137.167 39.71C132.622 42.8349 131.769 44.8235 131.201 48.5166C130.862 50.7232 128.9 59.5213 127.315 66.5498L140.55 55.0498L174.55 35.0498L220.05 20.0498L267.05 16.5498L295.541 21.0498C291.454 14.4043 284.814 5.10305 279.21 4.19919C229.743 -3.77935 179.828 10.3803 137.167 39.71Z" strokeWidth="4"/><path stroke="#9BD98C" d="M439.05 162.209C440.474 135.71 461.71 114.474 488.21 113.05M439.05 167.89C440.474 194.39 461.71 215.625 488.21 217.05M493.891 113.05C520.39 114.474 541.626 135.71 543.05 162.209M543.05 167.89C541.626 194.39 520.39 215.625 493.891 217.05" strokeWidth="8" opacity="0.5" fill="currentColor" fillRule="evenodd" clipRule="evenodd" strokeLinecap="round" strokeLinejoin="round" strokeMiterlimit="10" cx="491.05" cy="165.05" r="45"/><path stroke="#9BD98C" d="M439.05 162.209C440.474 135.71 461.71 114.474 488.21 113.05M439.05 167.89C440.474 194.39 461.71 215.625 488.21 217.05M493.891 113.05C520.39 114.474 541.626 135.71 543.05 162.209M543.05 167.89C541.626 194.39 520.39 215.625 493.891 217.05" strokeWidth="8" opacity="0.5" fill="currentColor" fillRule="evenodd" clipRule="evenodd" strokeLinecap="round" strokeLinejoin="round" strokeMiterlimit="10" cx="491.05" cy="165.05" r="45"/><path stroke="currentColor" opacity="0.5"/><path fill="currentColor" d="M439.05 162.209C440.474 135.71 461.71 114.474 488.21 113.05M439.05 167.89C440.474 194.39 461.71 215.625 488.21 217.05M493.891 113.05C520.39 114.474 541.626 135.71 543.05 162.209M543.05 167.89C541.626 194.39 520.39 215.625 493.891 217.05" stroke="#9BD98C" fillRule="evenodd" clipRule="evenodd" strokeWidth="8" strokeLinecap="round" strokeLinejoin="round" opacity="0.5" strokeMiterlimit="10" cx="491.05" cy="165.05" r="45"/><path d="M439.05 162.209C440.474 135.71 461.71 114.474 488.21 113.05M439.05 167.89C440.474 194.39 461.71 215.625 488.21 217.05M493.891 113.05C520.39 114.474 541.626 135.71 543.05 162.209M543.05 167.89C541.626 194.39 520.39 215.625 493.891 217.05" fill="currentColor" stroke="#9BD98C" fillRule="evenodd" clipRule="evenodd" strokeWidth="8" strokeLinecap="round" strokeLinejoin="round" opacity="0.5" strokeMiterlimit="10" cx="491.05" cy="165.05" r="45"/><path fill="currentColor" d="M439.05 162.209C440.474 135.71 461.71 114.474 488.21 113.05M439.05 167.89C440.474 194.39 461.71 215.625 488.21 217.05M493.891 113.05C520.39 114.474 541.626 135.71 543.05 162.209M543.05 167.89C541.626 194.39 520.39 215.625 493.891 217.05" stroke="#9BD98C" fillRule="evenodd" clipRule="evenodd" strokeWidth="8" strokeLinecap="round" strokeLinejoin="round" opacity="0.5" strokeMiterlimit="10" cx="491.05" cy="165.05" r="45"/><path d="M439.05 162.209C440.474 135.71 461.71 114.474 488.21 113.05M439.05 167.89C440.474 194.39 461.71 215.625 488.21 217.05M493.891 113.05C520.39 114.474 541.626 135.71 543.05 162.209M543.05 167.89C541.626 194.39 520.39 215.625 493.891 217.05" fill="currentColor" stroke="#9BD98C" fillRule="evenodd" clipRule="evenodd" strokeWidth="8" strokeLinecap="round" strokeLinejoin="round" opacity="0.5" strokeMiterlimit="10" cx="491.05" cy="165.05" r="45"/><path fill="currentColor" d="M439.05 162.209C440.474 135.71 461.71 114.474 488.21 113.05M439.05 167.89C440.474 194.39 461.71 215.625 488.21 217.05M493.891 113.05C520.39 114.474 541.626 135.71 543.05 162.209M543.05 167.89C541.626 194.39 520.39 215.625 493.891 217.05" stroke="#9BD98C" fillRule="evenodd" clipRule="evenodd" strokeWidth="8" strokeLinecap="round" strokeLinejoin="round" opacity="0.5" strokeMiterlimit="10" cx="491.05" cy="165.05" r="45"/><path d="M439.05 162.209C440.474 135.71 461.71 114.474 488.21 113.05M439.05 167.89C440.474 194.39 461.71 215.625 488.21 217.05M493.891 113.05C520.39 114.474 541.626 135.71 543.05 162.209M543.05 167.89C541.626 194.39 520.39 215.625 493.891 217.05" fill="currentColor" stroke="#9BD98C" fillRule="evenodd" clipRule="evenodd" strokeWidth="8" strokeLinecap="round" strokeLinejoin="round" opacity="0.5" strokeMiterlimit="10" cx="491.05" cy="165.05" r="45"/><path fill="currentColor" d="M439.05 162.209C440.474 135.71 461.71 114.474 488.21 113.05M439.05 167.89C440.474 194.39 461.71 215.625 488.21 217.05M493.891 113.05C520.39 114.474 541.626 135.71 543.05 162.209M543.05 167.89C541.626 194.39 520.39 215.625 493.891 217.05" stroke="#9BD98C" fillRule="evenodd" clipRule="evenodd" strokeWidth="8" strokeLinecap="round" strokeLinejoin="round" opacity="0.5" strokeMiterlimit="10" cx="491.05" cy="165.05" r="45"/><path stroke="#9BD98C" fillRule="evenodd" clipRule="evenodd" d="M439.05 162.209C440.474 135.71 461.71 114.474 488.21 113.05M439.05 167.89C440.474 194.39 461.71 215.625 488.21 217.05M493.891 113.05C520.39 114.474 541.626 135.71 543.05 162.209M543.05 167.89C541.626 194.39 520.39 215.625 493.891 217.05" strokeWidth="8" strokeLinecap="round" strokeLinejoin="round" fill="currentColor" opacity="0.5" strokeMiterlimit="10" cx="491.05" cy="165.05" r="45"/><path stroke="#9BD98C" d="M439.05 162.209C440.474 135.71 461.71 114.474 488.21 113.05M439.05 167.89C440.474 194.39 461.71 215.625 488.21 217.05M493.891 113.05C520.39 114.474 541.626 135.71 543.05 162.209M543.05 167.89C541.626 194.39 520.39 215.625 493.891 217.05" strokeWidth="8" strokeLinecap="round" strokeLinejoin="round" fill="currentColor" fillRule="evenodd" clipRule="evenodd" opacity="0.5" strokeMiterlimit="10" cx="491.05" cy="165.05" r="45"/><path fill="currentColor" fillRule="evenodd" clipRule="evenodd" d="M439.05 162.209C440.474 135.71 461.71 114.474 488.21 113.05M439.05 167.89C440.474 194.39 461.71 215.625 488.21 217.05M493.891 113.05C520.39 114.474 541.626 135.71 543.05 162.209M543.05 167.89C541.626 194.39 520.39 215.625 493.891 217.05" stroke="#9BD98C" strokeWidth="8" strokeLinecap="round" strokeLinejoin="round" opacity="0.5" strokeMiterlimit="10" cx="491.05" cy="165.05" r="45"/><path stroke="#9BD98C" d="M439.05 162.209C440.474 135.71 461.71 114.474 488.21 113.05M439.05 167.89C440.474 194.39 461.71 215.625 488.21 217.05M493.891 113.05C520.39 114.474 541.626 135.71 543.05 162.209M543.05 167.89C541.626 194.39 520.39 215.625 493.891 217.05" strokeWidth="8" strokeLinecap="round" strokeLinejoin="round" fill="currentColor" fillRule="evenodd" clipRule="evenodd" opacity="0.5" strokeMiterlimit="10" cx="491.05" cy="165.05" r="45"/><path fill="currentColor" fillRule="evenodd" clipRule="evenodd" d="M439.05 162.209C440.474 135.71 461.71 114.474 488.21 113.05M439.05 167.89C440.474 194.39 461.71 215.625 488.21 217.05M493.891 113.05C520.39 114.474 541.626 135.71 543.05 162.209M543.05 167.89C541.626 194.39 520.39 215.625 493.891 217.05" stroke="#9BD98C" opacity="0.5" strokeWidth="8" strokeMiterlimit="10" cx="491.05" cy="165.05" r="45"/><path stroke="#9BD98C" opacity="0.5" fillRule="evenodd" clipRule="evenodd" d="M439.05 162.209C440.474 135.71 461.71 114.474 488.21 113.05M439.05 167.89C440.474 194.39 461.71 215.625 488.21 217.05M493.891 113.05C520.39 114.474 541.626 135.71 543.05 162.209M543.05 167.89C541.626 194.39 520.39 215.625 493.891 217.05" strokeWidth="8" strokeMiterlimit="10" fill="currentColor" cx="491.05" cy="165.05" r="45"/><path stroke="#9BD98C" d="M439.05 162.209C440.474 135.71 461.71 114.474 488.21 113.05M439.05 167.89C440.474 194.39 461.71 215.625 488.21 217.05M493.891 113.05C520.39 114.474 541.626 135.71 543.05 162.209M543.05 167.89C541.626 194.39 520.39 215.625 493.891 217.05" strokeWidth="8" strokeMiterlimit="10" opacity="0.5" fill="currentColor" cx="491.05" cy="165.05" r="45"/><path stroke="#9BD98C" d="M439.05 162.209C440.474 135.71 461.71 114.474 488.21 113.05M439.05 167.89C440.474 194.39 461.71 215.625 488.21 217.05M493.891 113.05C520.39 114.474 541.626 135.71 543.05 162.209M543.05 167.89C541.626 194.39 520.39 215.625 493.891 217.05" strokeWidth="8" strokeMiterlimit="10" opacity="0.5" fill="currentColor" cx="491.05" cy="165.05" r="45"/><path stroke="#9BD98C" opacity="0.5" d="M439.05 162.209C440.474 135.71 461.71 114.474 488.21 113.05M439.05 167.89C440.474 194.39 461.71 215.625 488.21 217.05M493.891 113.05C520.39 114.474 541.626 135.71 543.05 162.209M543.05 167.89C541.626 194.39 520.39 215.625 493.891 217.05" strokeWidth="8" strokeMiterlimit="10" fill="currentColor" cx="491.05" cy="165.05" r="45"/><path stroke="#9BD98C" d="M439.05 162.209C440.474 135.71 461.71 114.474 488.21 113.05M439.05 167.89C440.474 194.39 461.71 215.625 488.21 217.05M493.891 113.05C520.39 114.474 541.626 135.71 543.05 162.209M543.05 167.89C541.626 194.39 520.39 215.625 493.891 217.05" strokeWidth="8" strokeMiterlimit="10" opacity="0.5" fill="currentColor" cx="491.05" cy="165.05" r="45"/><path stroke="#9BD98C" d="M439.05 162.209C440.474 135.71 461.71 114.474 488.21 113.05M439.05 167.89C440.474 194.39 461.71 215.625 488.21 217.05M493.891 113.05C520.39 114.474 541.626 135.71 543.05 162.209M543.05 167.89C541.626 194.39 520.39 215.625 493.891 217.05" strokeWidth="8" strokeMiterlimit="10" opacity="0.5" fill="currentColor" cx="491.05" cy="165.05" r="45"/><path stroke="#9BD98C" opacity="0.5" d="M439.05 162.209C440.474 135.71 461.71 114.474 488.21 113.05M439.05 167.89C440.474 194.39 461.71 215.625 488.21 217.05M493.891 113.05C520.39 114.474 541.626 135.71 543.05 162.209M543.05 167.89C541.626 194.39 520.39 215.625 493.891 217.05" strokeWidth="8" strokeMiterlimit="10" fill="currentColor" cx="491.05" cy="165.05" r="45"/><path stroke="#9BD98C" d="M439.05 162.209C440.474 135.71 461.71 114.474 488.21 113.05M439.05 167.89C440.474 194.39 461.71 215.625 488.21 217.05M493.891 113.05C520.39 114.474 541.626 135.71 543.05 162.209M543.05 167.89C541.626 194.39 520.39 215.625 493.891 217.05" strokeWidth="8" strokeMiterlimit="10" fill="currentColor" cx="491.05" cy="165.05" r="45"/><path stroke="#9BD98C" d="M439.05 162.209C440.474 135.71 461.71 114.474 488.21 113.05M439.05 167.89C440.474 194.39 461.71 215.625 488.21 217.05M493.891 113.05C520.39 114.474 541.626 135.71 543.05 162.209M543.05 167.89C541.626 194.39 520.39 215.625 493.891 217.05" strokeWidth="8" strokeMiterlimit="10" fill="currentColor" cx="491.05" cy="165.05" r="45"/><path stroke="#9BD98C" d="M439.05 162.209C440.474 135.71 461.71 114.474 488.21 113.05M439.05 167.89C440.474 194.39 461.71 215.625 488.21 217.05M493.891 113.05C520.39 114.474 541.626 135.71 543.05 162.209M543.05 167.89C541.626 194.39 520.39 215.625 493.891 217.05" strokeWidth="8" strokeMiterlimit="10" fill="currentColor" cx="491.05" cy="165.05" r="45"/><path stroke="#9BD98C" d="M439.05 162.209C440.474 135.71 461.71 114.474 488.21 113.05M439.05 167.89C440.474 194.39 461.71 215.625 488.21 217.05M493.891 113.05C520.39 114.474 541.626 135.71 543.05 162.209M543.05 167.89C541.626 194.39 520.39 215.625 493.891 217.05" strokeWidth="8" strokeMiterlimit="10" fill="currentColor" cx="491.05" cy="165.05" r="45"/><path fill="currentColor" d="M439.05 162.209C440.474 135.71 461.71 114.474 488.21 113.05M439.05 167.89C440.474 194.39 461.71 215.625 488.21 217.05M493.891 113.05C520.39 114.474 541.626 135.71 543.05 162.209M543.05 167.89C541.626 194.39 520.39 215.625 493.891 217.05" stroke="#9BD98C" cx="491.05" cy="165.05" r="45" strokeWidth="8"/><path fill="currentColor" d="M439.05 162.209C440.474 135.71 461.71 114.474 488.21 113.05M439.05 167.89C440.474 194.39 461.71 215.625 488.21 217.05M493.891 113.05C520.39 114.474 541.626 135.71 543.05 162.209M543.05 167.89C541.626 194.39 520.39 215.625 493.891 217.05" stroke="#9BD98C" cx="491.05" cy="165.05" r="45" strokeWidth="8"/><path fill="currentColor" d="M439.05 162.209C440.474 135.71 461.71 114.474 488.21 113.05M439.05 167.89C440.474 194.39 461.71 215.625 488.21 217.05M493.891 113.05C520.39 114.474 541.626 135.71 543.05 162.209M543.05 167.89C541.626 194.39 520.39 215.625 493.891 217.05" stroke="#9BD98C" cx="491.05" cy="165.05" r="45" strokeWidth="8"/><path fill="currentColor" d="M439.05 162.209C440.474 135.71 461.71 114.474 488.21 113.05M439.05 167.89C440.474 194.39 461.71 215.625 488.21 217.05M493.891 113.05C520.39 114.474 541.626 135.71 543.05 162.209M543.05 167.89C541.626 194.39 520.39 215.625 493.891 217.05" stroke="#9BD98C" cx="491.05" cy="165.05" r="45" strokeWidth="8"/><circle stroke="#9BD98C" cx="491.05" cy="165.05" r="45" fill="currentColor" d="M439.05 162.209C440.474 135.71 461.71 114.474 488.21 113.05M439.05 167.89C440.474 194.39 461.71 215.625 488.21 217.05M493.891 113.05C520.39 114.474 541.626 135.71 543.05 162.209M543.05 167.89C541.626 194.39 520.39 215.625 493.891 217.05" strokeWidth="8"/><path fill="currentColor" d="M439.05 162.209C440.474 135.71 461.71 114.474 488.21 113.05M439.05 167.89C440.474 194.39 461.71 215.625 488.21 217.05M493.891 113.05C520.39 114.474 541.626 135.71 543.05 162.209M543.05 167.89C541.626 194.39 520.39 215.625 493.891 217.05" stroke="#9BD98C" strokeWidth="8"/><path stroke="#9BD98C" d="M439.05 162.209C440.474 135.71 461.71 114.474 488.21 113.05M439.05 167.89C440.474 194.39 461.71 215.625 488.21 217.05M493.891 113.05C520.39 114.474 541.626 135.71 543.05 162.209M543.05 167.89C541.626 194.39 520.39 215.625 493.891 217.05" strokeWidth="8"/></svg>