<svg xmlns="http://www.w3.org/2000/svg" viewBox="0 0 32 31" fill="#fff"><path fill="currentColor" d="M21.5 0L22 1.56667C22.0667 1.76667 22.2333 1.93333 22.4333 2L24 2.5L22.4333 3C22.2333 3.06667 22.0667 3.23333 22 3.43333L21.5 5L21 3.43333C20.9333 3.23333 20.7667 3.06667 20.5667 3L19 2.5L20.5667 2C20.7667 1.93333 20.9333 1.76667 21 1.56667L21.5 0Z"/><path fill="currentColor" d="M21.5 0L22 1.56667C22.0667 1.76667 22.2333 1.93333 22.4333 2L24 2.5L22.4333 3C22.2333 3.06667 22.0667 3.23333 22 3.43333L21.5 5L21 3.43333C20.9333 3.23333 20.7667 3.06667 20.5667 3L19 2.5L20.5667 2C20.7667 1.93333 20.9333 1.76667 21 1.56667L21.5 0Z"/><path fill="currentColor" d="M21.5 0L22 1.56667C22.0667 1.76667 22.2333 1.93333 22.4333 2L24 2.5L22.4333 3C22.2333 3.06667 22.0667 3.23333 22 3.43333L21.5 5L21 3.43333C20.9333 3.23333 20.7667 3.06667 20.5667 3L19 2.5L20.5667 2C20.7667 1.93333 20.9333 1.76667 21 1.56667L21.5 0Z"/><path fill="currentColor" d="M21.5 0L22 1.56667C22.0667 1.76667 22.2333 1.93333 22.4333 2L24 2.5L22.4333 3C22.2333 3.06667 22.0667 3.23333 22 3.43333L21.5 5L21 3.43333C20.9333 3.23333 20.7667 3.06667 20.5667 3L19 2.5L20.5667 2C20.7667 1.93333 20.9333 1.76667 21 1.56667L21.5 0Z"/></svg>