<svg xmlns="http://www.w3.org/2000/svg" viewBox="0 0 1040 713" width="1040" height="713" fill="#fff"><path d="M345.046 49.7627L344.576 48.4161C338.557 31.1551 321.729 20.0585 303.493 21.3244L260.248 24.3264L217.002 27.3284C198.766 28.5944 183.633 41.9097 180.056 59.8368L177.829 70.9998L217.112 56.5L345.046 49.7627Z" stroke="currentColor" strokeWidth="4" strokeMiterlimit="10"/><path stroke="currentColor" d="M378 297L389.547 317H366.453L378 297ZM376 335V315H380V335H376Z" strokeWidth="4" strokeMiterlimit="10" opacity="0.5" fill="currentColor" x="501" y="222" width="38" height="27" rx="13.5"/><path d="M378 297L389.547 317H366.453L378 297ZM376 335V315H380V335H376Z" stroke="currentColor" strokeWidth="4" strokeMiterlimit="10" opacity="0.5" fill="currentColor" x="501" y="222" width="38" height="27" rx="13.5"/><path stroke="currentColor" d="M345.046 49.7627L344.576 48.4161C338.557 31.1551 321.729 20.0585 303.493 21.3244L260.248 24.3264L217.002 27.3284C198.766 28.5944 183.633 41.9097 180.056 59.8368L177.829 70.9998L217.112 56.5L345.046 49.7627Z" strokeWidth="4" strokeMiterlimit="10"/><path stroke="currentColor"/><path stroke="currentColor" opacity="0.5" d="M378 297L389.547 317H366.453L378 297ZM376 335V315H380V335H376Z" strokeWidth="4" strokeMiterlimit="10" fill="currentColor" x="501" y="222" width="38" height="27" rx="13.5"/><path stroke="currentColor" opacity="0.5"/><path stroke="currentColor" opacity="0.5" d="M378 297L389.547 317H366.453L378 297ZM376 335V315H380V335H376Z" strokeWidth="4" strokeMiterlimit="10" fill="currentColor" x="501" y="222" width="38" height="27" rx="13.5"/><path stroke="currentColor" opacity="0.5" d="M378 297L389.547 317H366.453L378 297ZM376 335V315H380V335H376Z" strokeWidth="4" strokeMiterlimit="10" fill="currentColor" x="501" y="222" width="38" height="27" rx="13.5"/><path stroke="currentColor" d="M378 297L389.547 317H366.453L378 297ZM376 335V315H380V335H376Z" strokeWidth="4" strokeMiterlimit="10" fill="currentColor" x="501" y="222" width="38" height="27" rx="13.5" opacity="0.5"/><path stroke="currentColor"/><path stroke="currentColor"/><path fill="currentColor"/><path fill="currentColor" d="M378 297L389.547 317H366.453L378 297ZM376 335V315H380V335H376Z" stroke="currentColor" strokeWidth="4" strokeMiterlimit="10" x="501" y="222" width="38" height="27" rx="13.5" opacity="0.5"/><path fill="currentColor" d="M378 297L389.547 317H366.453L378 297ZM376 335V315H380V335H376Z" stroke="currentColor" strokeWidth="4" strokeMiterlimit="10" x="501" y="222" width="38" height="27" rx="13.5" opacity="0.5"/><path fill="currentColor" d="M378 297L389.547 317H366.453L378 297ZM376 335V315H380V335H376Z" stroke="currentColor" strokeWidth="4" strokeMiterlimit="10" x="501" y="222" width="38" height="27" rx="13.5" opacity="0.5"/><path fill="currentColor" d="M378 297L389.547 317H366.453L378 297ZM376 335V315H380V335H376Z" stroke="currentColor" strokeWidth="4" strokeMiterlimit="10" x="501" y="222" width="38" height="27" rx="13.5" opacity="0.5"/><path fill="currentColor" d="M378 297L389.547 317H366.453L378 297ZM376 335V315H380V335H376Z" stroke="currentColor" strokeWidth="4" strokeMiterlimit="10" x="501" y="222" width="38" height="27" rx="13.5" opacity="0.5"/><path fill="currentColor" d="M378 297L389.547 317H366.453L378 297ZM376 335V315H380V335H376Z" stroke="currentColor" strokeWidth="4" strokeMiterlimit="10" x="501" y="222" width="38" height="27" rx="13.5" opacity="0.5"/><path fill="currentColor" d="M378 297L389.547 317H366.453L378 297ZM376 335V315H380V335H376Z" stroke="currentColor" strokeWidth="4" strokeMiterlimit="10" x="501" y="222" width="38" height="27" rx="13.5" opacity="0.5"/><path fill="currentColor" d="M378 297L389.547 317H366.453L378 297ZM376 335V315H380V335H376Z" stroke="currentColor" strokeWidth="4" strokeMiterlimit="10" x="501" y="222" width="38" height="27" rx="13.5" opacity="0.5"/><path fill="currentColor" d="M378 297L389.547 317H366.453L378 297ZM376 335V315H380V335H376Z" stroke="currentColor" strokeWidth="4" strokeMiterlimit="10" x="501" y="222" width="38" height="27" rx="13.5" opacity="0.5"/><path fill="currentColor" d="M378 297L389.547 317H366.453L378 297ZM376 335V315H380V335H376Z" stroke="currentColor" strokeWidth="4" strokeMiterlimit="10" x="501" y="222" width="38" height="27" rx="13.5" opacity="0.5"/><path fill="currentColor" d="M378 297L389.547 317H366.453L378 297ZM376 335V315H380V335H376Z" stroke="currentColor" strokeWidth="4" strokeMiterlimit="10" x="501" y="222" width="38" height="27" rx="13.5" opacity="0.5"/><path stroke="currentColor" d="M378 297L389.547 317H366.453L378 297ZM376 335V315H380V335H376Z" strokeWidth="4" strokeMiterlimit="10" fill="currentColor" x="501" y="222" width="38" height="27" rx="13.5" opacity="0.5"/><path stroke="currentColor" d="M378 297L389.547 317H366.453L378 297ZM376 335V315H380V335H376Z" strokeWidth="4" strokeMiterlimit="10" fill="currentColor" x="501" y="222" width="38" height="27" rx="13.5" opacity="0.5"/><path stroke="currentColor" d="M378 297L389.547 317H366.453L378 297ZM376 335V315H380V335H376Z" strokeWidth="4" strokeMiterlimit="10" fill="currentColor" x="501" y="222" width="38" height="27" rx="13.5" opacity="0.5"/><path fill="currentColor" d="M378 297L389.547 317H366.453L378 297ZM376 335V315H380V335H376Z" stroke="currentColor" strokeWidth="4" strokeMiterlimit="10" x="501" y="222" width="38" height="27" rx="13.5" opacity="0.5"/><path stroke="currentColor" d="M378 297L389.547 317H366.453L378 297ZM376 335V315H380V335H376Z" strokeWidth="4" strokeMiterlimit="10" fill="currentColor" x="501" y="222" width="38" height="27" rx="13.5" opacity="0.5"/><path stroke="currentColor" d="M378 297L389.547 317H366.453L378 297ZM376 335V315H380V335H376Z" strokeWidth="4" strokeMiterlimit="10" fill="currentColor" x="501" y="222" width="38" height="27" rx="13.5" opacity="0.5"/><path stroke="currentColor" d="M378 297L389.547 317H366.453L378 297ZM376 335V315H380V335H376Z" strokeWidth="4" strokeMiterlimit="10" fill="currentColor" x="501" y="222" width="38" height="27" rx="13.5" opacity="0.5"/><path stroke="currentColor" d="M378 297L389.547 317H366.453L378 297ZM376 335V315H380V335H376Z" strokeWidth="4" strokeMiterlimit="10" fill="currentColor" x="501" y="222" width="38" height="27" rx="13.5" opacity="0.5"/><path stroke="currentColor" d="M378 297L389.547 317H366.453L378 297ZM376 335V315H380V335H376Z" strokeWidth="4" strokeMiterlimit="10" fill="currentColor" x="501" y="222" width="38" height="27" rx="13.5" opacity="0.5"/><path fill="currentColor" d="M378 297L389.547 317H366.453L378 297ZM376 335V315H380V335H376Z" stroke="currentColor" x="501" y="222" width="38" height="27" rx="13.5" strokeWidth="4" strokeMiterlimit="10" opacity="0.5"/><rect stroke="currentColor" x="501" y="222" width="38" height="27" rx="13.5" strokeWidth="4" strokeMiterlimit="10" d="M378 297L389.547 317H366.453L378 297ZM376 335V315H380V335H376Z" opacity="0.5"/><rect stroke="currentColor" x="501" y="222" width="38" height="27" rx="13.5" strokeWidth="4" strokeMiterlimit="10" d="M378 297L389.547 317H366.453L378 297ZM376 335V315H380V335H376Z" opacity="0.5"/><rect stroke="currentColor" x="501" y="222" width="38" height="27" rx="13.5" strokeWidth="4" strokeMiterlimit="10" d="M378 297L389.547 317H366.453L378 297ZM376 335V315H380V335H376Z" opacity="0.5"/><path stroke="currentColor" d="M378 297L389.547 317H366.453L378 297ZM376 335V315H380V335H376Z" strokeWidth="4" strokeMiterlimit="10" opacity="0.5"/><path stroke="currentColor" d="M378 297L389.547 317H366.453L378 297ZM376 335V315H380V335H376Z" strokeWidth="4" strokeMiterlimit="10" opacity="0.5"/><path stroke="currentColor" d="M378 297L389.547 317H366.453L378 297ZM376 335V315H380V335H376Z" strokeWidth="4" strokeMiterlimit="10" opacity="0.5"/><path stroke="currentColor" opacity="0.5" d="M378 297L389.547 317H366.453L378 297ZM376 335V315H380V335H376Z" strokeWidth="4" strokeMiterlimit="10"/><path d="M378 297L389.547 317H366.453L378 297ZM376 335V315H380V335H376Z" stroke="currentColor" strokeWidth="4" strokeMiterlimit="10" opacity="0.5"/><path d="M378 297L389.547 317H366.453L378 297ZM376 335V315H380V335H376Z" stroke="currentColor" strokeWidth="4" strokeMiterlimit="10" opacity="0.5"/><path d="M378 297L389.547 317H366.453L378 297ZM376 335V315H380V335H376Z" stroke="currentColor" strokeWidth="4" strokeMiterlimit="10" opacity="0.5"/><path d="M378 297L389.547 317H366.453L378 297ZM376 335V315H380V335H376Z" stroke="currentColor" strokeWidth="4" strokeMiterlimit="10" opacity="0.5"/><path stroke="currentColor" d="M378 297L389.547 317H366.453L378 297ZM376 335V315H380V335H376Z" strokeWidth="4" strokeMiterlimit="10" opacity="0.5"/><path stroke="currentColor" d="M378 297L389.547 317H366.453L378 297ZM376 335V315H380V335H376Z" strokeWidth="4" strokeMiterlimit="10" opacity="0.5"/><path stroke="currentColor" opacity="0.5" d="M378 297L389.547 317H366.453L378 297ZM376 335V315H380V335H376Z" strokeWidth="4" strokeMiterlimit="10"/><path d="M378 297L389.547 317H366.453L378 297ZM376 335V315H380V335H376Z"/><path d="M378 297L389.547 317H366.453L378 297ZM376 335V315H380V335H376Z"/><path d="M378 297L389.547 317H366.453L378 297ZM376 335V315H380V335H376Z"/><path d="M378 297L389.547 317H366.453L378 297ZM376 335V315H380V335H376Z"/></svg>