<svg xmlns="http://www.w3.org/2000/svg" viewBox="0 0 24 24" fill="#fff"><path d="M7 15L5 15L5 4L15 4L15 6L16 6L16 4L15.9951 3.89746C15.9472 3.42703 15.573 3.05278 15.1025 3.00488L15 3L5 3L4.89746 3.00488C4.42703 3.05278 4.05278 3.42703 4.00488 3.89746L4 4L4 15C4 15.5177 4.39333 15.9438 4.89746 15.9951L5 16L7 16L7 15Z" fill="currentColor"/><path d="M7 15L5 15L5 4L15 4L15 6L16 6L16 4L15.9951 3.89746C15.9472 3.42703 15.573 3.05278 15.1025 3.00488L15 3L5 3L4.89746 3.00488C4.42703 3.05278 4.05278 3.42703 4.00488 3.89746L4 4L4 15C4 15.5177 4.39333 15.9438 4.89746 15.9951L5 16L7 16L7 15Z" fill="currentColor"/></svg>