<svg xmlns="http://www.w3.org/2000/svg" viewBox="0 0 284 115" width="284" height="115" fill="#fff"><path stroke="currentColor"/><path stroke="currentColor" d="M53.2452 82.1397H44.3281C42.673 82.1397 41.33 80.7953 41.33 79.1383C41.33 77.4814 42.673 76.137 44.3281 76.137H53.2452C54.9004 76.137 56.2433 77.4814 56.2433 79.1383C56.2433 80.7953 54.9004 82.1397 53.2452 82.1397Z" strokeWidth="0.648402" opacity="0.3" strokeMiterlimit="10" cx="45.3881" cy="25.2877" r="7.13242"/><path stroke="currentColor" opacity="0.3" d="M53.2452 82.1397H44.3281C42.673 82.1397 41.33 80.7953 41.33 79.1383C41.33 77.4814 42.673 76.137 44.3281 76.137H53.2452C54.9004 76.137 56.2433 77.4814 56.2433 79.1383C56.2433 80.7953 54.9004 82.1397 53.2452 82.1397Z" strokeWidth="0.648402" strokeMiterlimit="10" cx="45.3881" cy="25.2877" r="7.13242"/><path stroke="currentColor" d="M53.2452 82.1397H44.3281C42.673 82.1397 41.33 80.7953 41.33 79.1383C41.33 77.4814 42.673 76.137 44.3281 76.137H53.2452C54.9004 76.137 56.2433 77.4814 56.2433 79.1383C56.2433 80.7953 54.9004 82.1397 53.2452 82.1397Z" strokeWidth="0.648402" strokeMiterlimit="10" cx="45.3881" cy="25.2877" r="7.13242"/><path stroke="currentColor" d="M53.2452 82.1397H44.3281C42.673 82.1397 41.33 80.7953 41.33 79.1383C41.33 77.4814 42.673 76.137 44.3281 76.137H53.2452C54.9004 76.137 56.2433 77.4814 56.2433 79.1383C56.2433 80.7953 54.9004 82.1397 53.2452 82.1397Z" strokeWidth="0.648402" strokeMiterlimit="10" cx="45.3881" cy="25.2877" r="7.13242"/><path d="M53.2452 82.1397H44.3281C42.673 82.1397 41.33 80.7953 41.33 79.1383C41.33 77.4814 42.673 76.137 44.3281 76.137H53.2452C54.9004 76.137 56.2433 77.4814 56.2433 79.1383C56.2433 80.7953 54.9004 82.1397 53.2452 82.1397Z" stroke="currentColor" strokeWidth="0.648402" strokeMiterlimit="10" cx="45.3881" cy="25.2877" r="7.13242"/><path d="M53.2452 82.1397H44.3281C42.673 82.1397 41.33 80.7953 41.33 79.1383C41.33 77.4814 42.673 76.137 44.3281 76.137H53.2452C54.9004 76.137 56.2433 77.4814 56.2433 79.1383C56.2433 80.7953 54.9004 82.1397 53.2452 82.1397Z" stroke="currentColor" strokeWidth="0.648402" strokeMiterlimit="10" cx="45.3881" cy="25.2877" r="7.13242"/><path d="M53.2452 82.1397H44.3281C42.673 82.1397 41.33 80.7953 41.33 79.1383C41.33 77.4814 42.673 76.137 44.3281 76.137H53.2452C54.9004 76.137 56.2433 77.4814 56.2433 79.1383C56.2433 80.7953 54.9004 82.1397 53.2452 82.1397Z" stroke="currentColor" strokeWidth="0.648402" strokeMiterlimit="10" cx="45.3881" cy="25.2877" r="7.13242"/><path d="M53.2452 82.1397H44.3281C42.673 82.1397 41.33 80.7953 41.33 79.1383C41.33 77.4814 42.673 76.137 44.3281 76.137H53.2452C54.9004 76.137 56.2433 77.4814 56.2433 79.1383C56.2433 80.7953 54.9004 82.1397 53.2452 82.1397Z" stroke="currentColor" strokeWidth="0.648402" strokeMiterlimit="10" cx="45.3881" cy="25.2877" r="7.13242"/><path stroke="currentColor" d="M53.2452 82.1397H44.3281C42.673 82.1397 41.33 80.7953 41.33 79.1383C41.33 77.4814 42.673 76.137 44.3281 76.137H53.2452C54.9004 76.137 56.2433 77.4814 56.2433 79.1383C56.2433 80.7953 54.9004 82.1397 53.2452 82.1397Z" strokeWidth="0.648402" strokeMiterlimit="10" cx="45.3881" cy="25.2877" r="7.13242"/><path stroke="currentColor" d="M53.2452 82.1397H44.3281C42.673 82.1397 41.33 80.7953 41.33 79.1383C41.33 77.4814 42.673 76.137 44.3281 76.137H53.2452C54.9004 76.137 56.2433 77.4814 56.2433 79.1383C56.2433 80.7953 54.9004 82.1397 53.2452 82.1397Z" strokeWidth="0.648402" strokeMiterlimit="10" cx="45.3881" cy="25.2877" r="7.13242"/><path stroke="currentColor" d="M53.2452 82.1397H44.3281C42.673 82.1397 41.33 80.7953 41.33 79.1383C41.33 77.4814 42.673 76.137 44.3281 76.137H53.2452C54.9004 76.137 56.2433 77.4814 56.2433 79.1383C56.2433 80.7953 54.9004 82.1397 53.2452 82.1397Z" strokeWidth="0.648402" strokeMiterlimit="10" cx="45.3881" cy="25.2877" r="7.13242"/><path stroke="currentColor" d="M53.2452 82.1397H44.3281C42.673 82.1397 41.33 80.7953 41.33 79.1383C41.33 77.4814 42.673 76.137 44.3281 76.137H53.2452C54.9004 76.137 56.2433 77.4814 56.2433 79.1383C56.2433 80.7953 54.9004 82.1397 53.2452 82.1397Z" strokeWidth="0.648402" strokeMiterlimit="10" cx="45.3881" cy="25.2877" r="7.13242"/><path stroke="currentColor" d="M53.2452 82.1397H44.3281C42.673 82.1397 41.33 80.7953 41.33 79.1383C41.33 77.4814 42.673 76.137 44.3281 76.137H53.2452C54.9004 76.137 56.2433 77.4814 56.2433 79.1383C56.2433 80.7953 54.9004 82.1397 53.2452 82.1397Z" strokeWidth="0.648402" strokeMiterlimit="10" cx="45.3881" cy="25.2877" r="7.13242"/><path stroke="currentColor" d="M53.2452 82.1397H44.3281C42.673 82.1397 41.33 80.7953 41.33 79.1383C41.33 77.4814 42.673 76.137 44.3281 76.137H53.2452C54.9004 76.137 56.2433 77.4814 56.2433 79.1383C56.2433 80.7953 54.9004 82.1397 53.2452 82.1397Z" strokeMiterlimit="10" cx="45.3881" cy="25.2877" r="7.13242" strokeWidth="0.648402"/><circle cx="45.3881" cy="25.2877" r="7.13242" stroke="currentColor" d="M53.2452 82.1397H44.3281C42.673 82.1397 41.33 80.7953 41.33 79.1383C41.33 77.4814 42.673 76.137 44.3281 76.137H53.2452C54.9004 76.137 56.2433 77.4814 56.2433 79.1383C56.2433 80.7953 54.9004 82.1397 53.2452 82.1397Z" strokeWidth="0.648402" strokeMiterlimit="10"/><circle cx="45.3881" cy="25.2877" r="7.13242" stroke="currentColor" d="M53.2452 82.1397H44.3281C42.673 82.1397 41.33 80.7953 41.33 79.1383C41.33 77.4814 42.673 76.137 44.3281 76.137H53.2452C54.9004 76.137 56.2433 77.4814 56.2433 79.1383C56.2433 80.7953 54.9004 82.1397 53.2452 82.1397Z" strokeWidth="0.648402" strokeMiterlimit="10"/><path stroke="currentColor" d="M53.2452 82.1397H44.3281C42.673 82.1397 41.33 80.7953 41.33 79.1383C41.33 77.4814 42.673 76.137 44.3281 76.137H53.2452C54.9004 76.137 56.2433 77.4814 56.2433 79.1383C56.2433 80.7953 54.9004 82.1397 53.2452 82.1397Z" strokeWidth="0.648402" strokeMiterlimit="10"/><path stroke="currentColor" d="M53.2452 82.1397H44.3281C42.673 82.1397 41.33 80.7953 41.33 79.1383C41.33 77.4814 42.673 76.137 44.3281 76.137H53.2452C54.9004 76.137 56.2433 77.4814 56.2433 79.1383C56.2433 80.7953 54.9004 82.1397 53.2452 82.1397Z" strokeWidth="0.648402" strokeMiterlimit="10"/><path stroke="currentColor" d="M53.2452 82.1397H44.3281C42.673 82.1397 41.33 80.7953 41.33 79.1383C41.33 77.4814 42.673 76.137 44.3281 76.137H53.2452C54.9004 76.137 56.2433 77.4814 56.2433 79.1383C56.2433 80.7953 54.9004 82.1397 53.2452 82.1397Z" strokeWidth="0.648402" strokeMiterlimit="10"/></svg>