<svg xmlns="http://www.w3.org/2000/svg" viewBox="0 0 36 36" fill="#fff"><path fill="currentColor" d="M23.076 11L18.4622 5.45398C18.4562 5.448 18.4487 5.44199 18.4412 5.43599C18.4338 5.42998 18.4262 5.42397 18.4203 5.418C18.4157 5.41341 18.412 5.40792 18.4081 5.40222C18.4019 5.39309 18.3954 5.38341 18.3843 5.37605C18.3753 5.37007 18.3663 5.36556 18.3573 5.36105C18.3483 5.35654 18.3393 5.35202 18.3303 5.34605C18.2949 5.32248 18.2596 5.30479 18.2243 5.28709L18.2222 5.28605L18.2195 5.28515C18.1843 5.27349 18.1492 5.26187 18.1142 5.25605C18.0782 5.25007 18.0421 5.24409 18.0002 5.24409C17.9641 5.24409 17.9281 5.25007 17.8921 5.25605C17.85 5.26202 17.8141 5.27398 17.7781 5.29202C17.7421 5.3041 17.7121 5.32202 17.6761 5.34605C17.6671 5.35202 17.6566 5.35654 17.6461 5.36105C17.6356 5.36556 17.6252 5.37007 17.6161 5.37605C17.6102 5.38202 17.6056 5.38952 17.6011 5.39702C17.5966 5.40452 17.5921 5.41203 17.5861 5.418C17.5811 5.42132 17.5761 5.42418 17.5712 5.42696C17.5585 5.4342 17.5467 5.44094 17.5381 5.45398L12.9293 11H23.076Z"/><path fill="currentColor" d="M32.1009 11L28.236 5.48993C28.1221 5.33395 27.9421 5.23798 27.7441 5.23798H21.0513L25.8251 11H32.1009Z"/><path fill="currentColor" d="M23.076 11L18.4622 5.45398C18.4562 5.448 18.4487 5.44199 18.4412 5.43599C18.4338 5.42998 18.4262 5.42397 18.4203 5.418C18.4157 5.41341 18.412 5.40792 18.4081 5.40222C18.4019 5.39309 18.3954 5.38341 18.3843 5.37605C18.3753 5.37007 18.3663 5.36556 18.3573 5.36105C18.3483 5.35654 18.3393 5.35202 18.3303 5.34605C18.2949 5.32248 18.2596 5.30479 18.2243 5.28709L18.2222 5.28605L18.2195 5.28515C18.1843 5.27349 18.1492 5.26187 18.1142 5.25605C18.0782 5.25007 18.0421 5.24409 18.0002 5.24409C17.9641 5.24409 17.9281 5.25007 17.8921 5.25605C17.85 5.26202 17.8141 5.27398 17.7781 5.29202C17.7421 5.3041 17.7121 5.32202 17.6761 5.34605C17.6671 5.35202 17.6566 5.35654 17.6461 5.36105C17.6356 5.36556 17.6252 5.37007 17.6161 5.37605C17.6102 5.38202 17.6056 5.38952 17.6011 5.39702C17.5966 5.40452 17.5921 5.41203 17.5861 5.418C17.5811 5.42132 17.5761 5.42418 17.5712 5.42696C17.5585 5.4342 17.5467 5.44094 17.5381 5.45398L12.9293 11H23.076Z"/><path fill="currentColor" d="M23.076 11L18.4622 5.45398C18.4562 5.448 18.4487 5.44199 18.4412 5.43599C18.4338 5.42998 18.4262 5.42397 18.4203 5.418C18.4157 5.41341 18.412 5.40792 18.4081 5.40222C18.4019 5.39309 18.3954 5.38341 18.3843 5.37605C18.3753 5.37007 18.3663 5.36556 18.3573 5.36105C18.3483 5.35654 18.3393 5.35202 18.3303 5.34605C18.2949 5.32248 18.2596 5.30479 18.2243 5.28709L18.2222 5.28605L18.2195 5.28515C18.1843 5.27349 18.1492 5.26187 18.1142 5.25605C18.0782 5.25007 18.0421 5.24409 18.0002 5.24409C17.9641 5.24409 17.9281 5.25007 17.8921 5.25605C17.85 5.26202 17.8141 5.27398 17.7781 5.29202C17.7421 5.3041 17.7121 5.32202 17.6761 5.34605C17.6671 5.35202 17.6566 5.35654 17.6461 5.36105C17.6356 5.36556 17.6252 5.37007 17.6161 5.37605C17.6102 5.38202 17.6056 5.38952 17.6011 5.39702C17.5966 5.40452 17.5921 5.41203 17.5861 5.418C17.5811 5.42132 17.5761 5.42418 17.5712 5.42696C17.5585 5.4342 17.5467 5.44094 17.5381 5.45398L12.9293 11H23.076Z"/><path fill="currentColor" d="M32.1009 11L28.236 5.48993C28.1221 5.33395 27.9421 5.23798 27.7441 5.23798H21.0513L25.8251 11H32.1009Z"/><path fill="currentColor" d="M23.076 11L18.4622 5.45398C18.4562 5.448 18.4487 5.44199 18.4412 5.43599C18.4338 5.42998 18.4262 5.42397 18.4203 5.418C18.4157 5.41341 18.412 5.40792 18.4081 5.40222C18.4019 5.39309 18.3954 5.38341 18.3843 5.37605C18.3753 5.37007 18.3663 5.36556 18.3573 5.36105C18.3483 5.35654 18.3393 5.35202 18.3303 5.34605C18.2949 5.32248 18.2596 5.30479 18.2243 5.28709L18.2222 5.28605L18.2195 5.28515C18.1843 5.27349 18.1492 5.26187 18.1142 5.25605C18.0782 5.25007 18.0421 5.24409 18.0002 5.24409C17.9641 5.24409 17.9281 5.25007 17.8921 5.25605C17.85 5.26202 17.8141 5.27398 17.7781 5.29202C17.7421 5.3041 17.7121 5.32202 17.6761 5.34605C17.6671 5.35202 17.6566 5.35654 17.6461 5.36105C17.6356 5.36556 17.6252 5.37007 17.6161 5.37605C17.6102 5.38202 17.6056 5.38952 17.6011 5.39702C17.5966 5.40452 17.5921 5.41203 17.5861 5.418C17.5811 5.42132 17.5761 5.42418 17.5712 5.42696C17.5585 5.4342 17.5467 5.44094 17.5381 5.45398L12.9293 11H23.076Z"/></svg>