<svg xmlns="http://www.w3.org/2000/svg" viewBox="0 0 19 33" width="19" height="33" fill="#fff"><path fillRule="evenodd" clipRule="evenodd" d="M17.51 8C18.2155 8 18.7874 7.38593 18.7874 6.62843C18.7874 5.87094 18.2155 5.25687 17.51 5.25687C16.8045 5.25687 16.2325 5.87094 16.2325 6.62843C16.2325 7.38593 16.8045 8 17.51 8Z" fill="#FFC82C" x="3" y="5" width="100%" height="100%"/><rect height="100%" width="100%" fillRule="evenodd" clipRule="evenodd" d="M17.51 8C18.2155 8 18.7874 7.38593 18.7874 6.62843C18.7874 5.87094 18.2155 5.25687 17.51 5.25687C16.8045 5.25687 16.2325 5.87094 16.2325 6.62843C16.2325 7.38593 16.8045 8 17.51 8Z" fill="#FFC82C"/><path fillRule="evenodd" clipRule="evenodd" d="M17.51 8C18.2155 8 18.7874 7.38593 18.7874 6.62843C18.7874 5.87094 18.2155 5.25687 17.51 5.25687C16.8045 5.25687 16.2325 5.87094 16.2325 6.62843C16.2325 7.38593 16.8045 8 17.51 8Z" fill="#FFC82C"/><path d="M17.51 8C18.2155 8 18.7874 7.38593 18.7874 6.62843C18.7874 5.87094 18.2155 5.25687 17.51 5.25687C16.8045 5.25687 16.2325 5.87094 16.2325 6.62843C16.2325 7.38593 16.8045 8 17.51 8Z" fill="#FFC82C" fillRule="evenodd" clipRule="evenodd"/><path fillRule="evenodd" clipRule="evenodd" d="M17.51 8C18.2155 8 18.7874 7.38593 18.7874 6.62843C18.7874 5.87094 18.2155 5.25687 17.51 5.25687C16.8045 5.25687 16.2325 5.87094 16.2325 6.62843C16.2325 7.38593 16.8045 8 17.51 8Z" fill="#FFC82C"/><path d="M17.51 8C18.2155 8 18.7874 7.38593 18.7874 6.62843C18.7874 5.87094 18.2155 5.25687 17.51 5.25687C16.8045 5.25687 16.2325 5.87094 16.2325 6.62843C16.2325 7.38593 16.8045 8 17.51 8Z" fill="#FFC82C"/><path d="M17.51 8C18.2155 8 18.7874 7.38593 18.7874 6.62843C18.7874 5.87094 18.2155 5.25687 17.51 5.25687C16.8045 5.25687 16.2325 5.87094 16.2325 6.62843C16.2325 7.38593 16.8045 8 17.51 8Z" fill="#FFC82C"/></svg>