<svg xmlns="http://www.w3.org/2000/svg" viewBox="0 0 36 36" fill="#fff"><path d="M4 4.05005V21.05H32V4.05005H4ZM21.69 17.75L18 15.8L14.3 17.75L15 13.62L12 10.71L16.14 10.1L18 6.35005L19.85 10.1L23.99 10.71L20.99 13.62L21.69 17.75Z" fill="currentColor"/><path d="M4 4.05005V21.05H32V4.05005H4ZM21.69 17.75L18 15.8L14.3 17.75L15 13.62L12 10.71L16.14 10.1L18 6.35005L19.85 10.1L23.99 10.71L20.99 13.62L21.69 17.75Z" fill="currentColor"/><path d="M4 4.05005V21.05H32V4.05005H4ZM21.69 17.75L18 15.8L14.3 17.75L15 13.62L12 10.71L16.14 10.1L18 6.35005L19.85 10.1L23.99 10.71L20.99 13.62L21.69 17.75Z" fill="currentColor"/></svg>