<svg xmlns="http://www.w3.org/2000/svg" viewBox="0 0 36 36" fill="#fff"><path d="M9.51 12.34L6 8.81L8.81 6L12.34 9.54C12.7125 9.91472 12.9216 10.4216 12.9216 10.95C12.9216 11.4784 12.7125 11.9853 12.34 12.36C12.1529 12.5446 11.9313 12.6906 11.6878 12.7895C11.4443 12.8885 11.1837 12.9385 10.9209 12.9366C10.658 12.9347 10.3981 12.8811 10.156 12.7787C9.91396 12.6764 9.69443 12.5273 9.51 12.34Z" fill="currentColor"/><path d="M9.51 12.34L6 8.81L8.81 6L12.34 9.54C12.7125 9.91472 12.9216 10.4216 12.9216 10.95C12.9216 11.4784 12.7125 11.9853 12.34 12.36C12.1529 12.5446 11.9313 12.6906 11.6878 12.7895C11.4443 12.8885 11.1837 12.9385 10.9209 12.9366C10.658 12.9347 10.3981 12.8811 10.156 12.7787C9.91396 12.6764 9.69443 12.5273 9.51 12.34Z" fill="currentColor"/><path d="M9.51 12.34L6 8.81L8.81 6L12.34 9.54C12.7125 9.91472 12.9216 10.4216 12.9216 10.95C12.9216 11.4784 12.7125 11.9853 12.34 12.36C12.1529 12.5446 11.9313 12.6906 11.6878 12.7895C11.4443 12.8885 11.1837 12.9385 10.9209 12.9366C10.658 12.9347 10.3981 12.8811 10.156 12.7787C9.91396 12.6764 9.69443 12.5273 9.51 12.34Z" fill="currentColor"/><path d="M9.51 12.34L6 8.81L8.81 6L12.34 9.54C12.7125 9.91472 12.9216 10.4216 12.9216 10.95C12.9216 11.4784 12.7125 11.9853 12.34 12.36C12.1529 12.5446 11.9313 12.6906 11.6878 12.7895C11.4443 12.8885 11.1837 12.9385 10.9209 12.9366C10.658 12.9347 10.3981 12.8811 10.156 12.7787C9.91396 12.6764 9.69443 12.5273 9.51 12.34Z" fill="currentColor"/><path d="M9.51 12.34L6 8.81L8.81 6L12.34 9.54C12.7125 9.91472 12.9216 10.4216 12.9216 10.95C12.9216 11.4784 12.7125 11.9853 12.34 12.36C12.1529 12.5446 11.9313 12.6906 11.6878 12.7895C11.4443 12.8885 11.1837 12.9385 10.9209 12.9366C10.658 12.9347 10.3981 12.8811 10.156 12.7787C9.91396 12.6764 9.69443 12.5273 9.51 12.34Z" fill="currentColor"/><path d="M9.51 12.34L6 8.81L8.81 6L12.34 9.54C12.7125 9.91472 12.9216 10.4216 12.9216 10.95C12.9216 11.4784 12.7125 11.9853 12.34 12.36C12.1529 12.5446 11.9313 12.6906 11.6878 12.7895C11.4443 12.8885 11.1837 12.9385 10.9209 12.9366C10.658 12.9347 10.3981 12.8811 10.156 12.7787C9.91396 12.6764 9.69443 12.5273 9.51 12.34Z" fill="currentColor"/><path d="M9.51 12.34L6 8.81L8.81 6L12.34 9.54C12.7125 9.91472 12.9216 10.4216 12.9216 10.95C12.9216 11.4784 12.7125 11.9853 12.34 12.36C12.1529 12.5446 11.9313 12.6906 11.6878 12.7895C11.4443 12.8885 11.1837 12.9385 10.9209 12.9366C10.658 12.9347 10.3981 12.8811 10.156 12.7787C9.91396 12.6764 9.69443 12.5273 9.51 12.34Z" fill="currentColor"/><path d="M9.51 12.34L6 8.81L8.81 6L12.34 9.54C12.7125 9.91472 12.9216 10.4216 12.9216 10.95C12.9216 11.4784 12.7125 11.9853 12.34 12.36C12.1529 12.5446 11.9313 12.6906 11.6878 12.7895C11.4443 12.8885 11.1837 12.9385 10.9209 12.9366C10.658 12.9347 10.3981 12.8811 10.156 12.7787C9.91396 12.6764 9.69443 12.5273 9.51 12.34Z" fill="currentColor"/></svg>