<svg xmlns="http://www.w3.org/2000/svg" viewBox="0 0 36 32" fill="#fff"><path fill="currentColor" d="M22.9136 20.714H28.9796V23H19.5656V20.804L23.2016 17.78L23.5076 17.51C24.0596 17.042 24.4796 16.664 24.7676 16.376C25.0676 16.088 25.3076 15.782 25.4876 15.458C25.6676 15.134 25.7576 14.78 25.7576 14.396C25.7576 13.772 25.5296 13.304 25.0736 12.992C24.6296 12.668 24.0536 12.506 23.3456 12.506C22.8176 12.506 22.3016 12.59 21.7976 12.758C21.3056 12.926 20.8736 13.136 20.5016 13.388L19.6016 11.444C20.1536 11.06 20.7836 10.754 21.4916 10.526C22.2116 10.298 22.9796 10.184 23.7956 10.184C25.2476 10.184 26.4116 10.502 27.2876 11.138C28.1636 11.774 28.6016 12.68 28.6016 13.856C28.6016 14.72 28.3496 15.506 27.8456 16.214C27.3416 16.91 26.5676 17.69 25.5236 18.554L22.9136 20.714Z"/><path fill="currentColor" d="M22.9136 20.714H28.9796V23H19.5656V20.804L23.2016 17.78L23.5076 17.51C24.0596 17.042 24.4796 16.664 24.7676 16.376C25.0676 16.088 25.3076 15.782 25.4876 15.458C25.6676 15.134 25.7576 14.78 25.7576 14.396C25.7576 13.772 25.5296 13.304 25.0736 12.992C24.6296 12.668 24.0536 12.506 23.3456 12.506C22.8176 12.506 22.3016 12.59 21.7976 12.758C21.3056 12.926 20.8736 13.136 20.5016 13.388L19.6016 11.444C20.1536 11.06 20.7836 10.754 21.4916 10.526C22.2116 10.298 22.9796 10.184 23.7956 10.184C25.2476 10.184 26.4116 10.502 27.2876 11.138C28.1636 11.774 28.6016 12.68 28.6016 13.856C28.6016 14.72 28.3496 15.506 27.8456 16.214C27.3416 16.91 26.5676 17.69 25.5236 18.554L22.9136 20.714Z"/><path fill="currentColor" d="M22.9136 20.714H28.9796V23H19.5656V20.804L23.2016 17.78L23.5076 17.51C24.0596 17.042 24.4796 16.664 24.7676 16.376C25.0676 16.088 25.3076 15.782 25.4876 15.458C25.6676 15.134 25.7576 14.78 25.7576 14.396C25.7576 13.772 25.5296 13.304 25.0736 12.992C24.6296 12.668 24.0536 12.506 23.3456 12.506C22.8176 12.506 22.3016 12.59 21.7976 12.758C21.3056 12.926 20.8736 13.136 20.5016 13.388L19.6016 11.444C20.1536 11.06 20.7836 10.754 21.4916 10.526C22.2116 10.298 22.9796 10.184 23.7956 10.184C25.2476 10.184 26.4116 10.502 27.2876 11.138C28.1636 11.774 28.6016 12.68 28.6016 13.856C28.6016 14.72 28.3496 15.506 27.8456 16.214C27.3416 16.91 26.5676 17.69 25.5236 18.554L22.9136 20.714Z"/></svg>