<svg xmlns="http://www.w3.org/2000/svg" viewBox="0 0 786 487" fill="#fff"><path stroke="currentColor" d="M158 32L152 48" strokeWidth="4" strokeMiterlimit="10" strokeLinejoin="round" opacity="0.28" fill="currentColor" fillRule="evenodd" clipRule="evenodd" strokeLinecap="round" x1="239" y1="19" x2="239" y2="35"/><path stroke="currentColor" d="M158 32L152 48" strokeWidth="4" strokeMiterlimit="10" strokeLinejoin="round" opacity="0.28" fill="currentColor" fillRule="evenodd" clipRule="evenodd" strokeLinecap="round" x1="239" y1="19" x2="239" y2="35"/><path stroke="currentColor" d="M757 223L735.425 133.383C732.83 122.6 723.183 115 712.092 115H73.9079C62.8169 115 53.1704 122.6 50.5745 133.383L29 223" strokeWidth="4" strokeMiterlimit="10"/><path stroke="currentColor" opacity="0.28" d="M158 32L152 48" strokeWidth="4" strokeMiterlimit="10" strokeLinejoin="round" fill="currentColor" fillRule="evenodd" clipRule="evenodd" strokeLinecap="round" x1="239" y1="19" x2="239" y2="35"/><path stroke="currentColor" d="M158 32L152 48" strokeWidth="4" strokeMiterlimit="10" strokeLinejoin="round" fill="currentColor" fillRule="evenodd" clipRule="evenodd" strokeLinecap="round" opacity="0.28" x1="239" y1="19" x2="239" y2="35"/><path stroke="currentColor" d="M158 32L152 48" strokeWidth="4" strokeMiterlimit="10" strokeLinejoin="round" fill="currentColor" fillRule="evenodd" clipRule="evenodd" strokeLinecap="round" opacity="0.28" x1="239" y1="19" x2="239" y2="35"/><path fill="currentColor" fillRule="evenodd" clipRule="evenodd"/><path stroke="currentColor" fillRule="evenodd" clipRule="evenodd"/><path stroke="currentColor" d="M158 32L152 48" strokeWidth="4" strokeMiterlimit="10" strokeLinejoin="round" strokeLinecap="round" opacity="0.28" x1="239" y1="19" x2="239" y2="35"/><path stroke="currentColor"/><path stroke="currentColor" d="M158 32L152 48" strokeWidth="4" strokeMiterlimit="10" strokeLinecap="round" strokeLinejoin="round" opacity="0.28" x1="239" y1="19" x2="239" y2="35"/><path stroke="currentColor" d="M158 32L152 48" strokeWidth="4" strokeMiterlimit="10" strokeLinejoin="round" opacity="0.28" x1="239" y1="19" x2="239" y2="35"/><path stroke="currentColor" d="M158 32L152 48" strokeWidth="4" strokeMiterlimit="10" strokeLinejoin="round" opacity="0.28" x1="239" y1="19" x2="239" y2="35"/><path stroke="currentColor" opacity="0.28" d="M158 32L152 48" strokeWidth="4" strokeMiterlimit="10" strokeLinejoin="round" x1="239" y1="19" x2="239" y2="35"/><line stroke="currentColor" opacity="0.28" x1="214" y1="32" x2="214" y2="48" strokeWidth="4"/><line stroke="currentColor" opacity="0.28" x1="239" y1="19" x2="239" y2="35" strokeWidth="4" strokeMiterlimit="10" strokeLinejoin="round"/></svg>