<svg xmlns="http://www.w3.org/2000/svg" viewBox="0 0 351 255" fill="#fff"><path fill="currentColor" d="M123.17 53.3992C111.994 53.3992 102.904 62.4889 102.904 73.6651C102.904 84.8414 111.994 93.9311 123.17 93.9311C134.346 93.9311 143.436 84.8414 143.436 73.6651C143.436 62.4889 134.346 53.3992 123.17 53.3992ZM123.17 89.7869C114.268 89.7869 107.048 82.5671 107.048 73.6651C107.048 64.7631 114.268 57.5506 123.17 57.5506C132.072 57.5506 139.292 64.7703 139.292 73.6651C139.292 82.5599 132.072 89.7869 123.17 89.7869Z"/><path fill="currentColor" d="M123.17 53.3992C111.994 53.3992 102.904 62.4889 102.904 73.6651C102.904 84.8414 111.994 93.9311 123.17 93.9311C134.346 93.9311 143.436 84.8414 143.436 73.6651C143.436 62.4889 134.346 53.3992 123.17 53.3992ZM123.17 89.7869C114.268 89.7869 107.048 82.5671 107.048 73.6651C107.048 64.7631 114.268 57.5506 123.17 57.5506C132.072 57.5506 139.292 64.7703 139.292 73.6651C139.292 82.5599 132.072 89.7869 123.17 89.7869Z"/><path fill="currentColor" d="M123.17 53.3992C111.994 53.3992 102.904 62.4889 102.904 73.6651C102.904 84.8414 111.994 93.9311 123.17 93.9311C134.346 93.9311 143.436 84.8414 143.436 73.6651C143.436 62.4889 134.346 53.3992 123.17 53.3992ZM123.17 89.7869C114.268 89.7869 107.048 82.5671 107.048 73.6651C107.048 64.7631 114.268 57.5506 123.17 57.5506C132.072 57.5506 139.292 64.7703 139.292 73.6651C139.292 82.5599 132.072 89.7869 123.17 89.7869Z"/><path fill="currentColor"/><path fill="currentColor"/><path fill="currentColor" d="M123.17 53.3992C111.994 53.3992 102.904 62.4889 102.904 73.6651C102.904 84.8414 111.994 93.9311 123.17 93.9311C134.346 93.9311 143.436 84.8414 143.436 73.6651C143.436 62.4889 134.346 53.3992 123.17 53.3992ZM123.17 89.7869C114.268 89.7869 107.048 82.5671 107.048 73.6651C107.048 64.7631 114.268 57.5506 123.17 57.5506C132.072 57.5506 139.292 64.7703 139.292 73.6651C139.292 82.5599 132.072 89.7869 123.17 89.7869Z"/><path fill="currentColor" d="M123.17 53.3992C111.994 53.3992 102.904 62.4889 102.904 73.6651C102.904 84.8414 111.994 93.9311 123.17 93.9311C134.346 93.9311 143.436 84.8414 143.436 73.6651C143.436 62.4889 134.346 53.3992 123.17 53.3992ZM123.17 89.7869C114.268 89.7869 107.048 82.5671 107.048 73.6651C107.048 64.7631 114.268 57.5506 123.17 57.5506C132.072 57.5506 139.292 64.7703 139.292 73.6651C139.292 82.5599 132.072 89.7869 123.17 89.7869Z"/><path fill="currentColor" d="M123.17 53.3992C111.994 53.3992 102.904 62.4889 102.904 73.6651C102.904 84.8414 111.994 93.9311 123.17 93.9311C134.346 93.9311 143.436 84.8414 143.436 73.6651C143.436 62.4889 134.346 53.3992 123.17 53.3992ZM123.17 89.7869C114.268 89.7869 107.048 82.5671 107.048 73.6651C107.048 64.7631 114.268 57.5506 123.17 57.5506C132.072 57.5506 139.292 64.7703 139.292 73.6651C139.292 82.5599 132.072 89.7869 123.17 89.7869Z"/><path fill="currentColor" d="M123.17 53.3992C111.994 53.3992 102.904 62.4889 102.904 73.6651C102.904 84.8414 111.994 93.9311 123.17 93.9311C134.346 93.9311 143.436 84.8414 143.436 73.6651C143.436 62.4889 134.346 53.3992 123.17 53.3992ZM123.17 89.7869C114.268 89.7869 107.048 82.5671 107.048 73.6651C107.048 64.7631 114.268 57.5506 123.17 57.5506C132.072 57.5506 139.292 64.7703 139.292 73.6651C139.292 82.5599 132.072 89.7869 123.17 89.7869Z"/><path fill="currentColor" d="M123.17 53.3992C111.994 53.3992 102.904 62.4889 102.904 73.6651C102.904 84.8414 111.994 93.9311 123.17 93.9311C134.346 93.9311 143.436 84.8414 143.436 73.6651C143.436 62.4889 134.346 53.3992 123.17 53.3992ZM123.17 89.7869C114.268 89.7869 107.048 82.5671 107.048 73.6651C107.048 64.7631 114.268 57.5506 123.17 57.5506C132.072 57.5506 139.292 64.7703 139.292 73.6651C139.292 82.5599 132.072 89.7869 123.17 89.7869Z"/><path fill="currentColor"/><path fill="currentColor" d="M123.17 53.3992C111.994 53.3992 102.904 62.4889 102.904 73.6651C102.904 84.8414 111.994 93.9311 123.17 93.9311C134.346 93.9311 143.436 84.8414 143.436 73.6651C143.436 62.4889 134.346 53.3992 123.17 53.3992ZM123.17 89.7869C114.268 89.7869 107.048 82.5671 107.048 73.6651C107.048 64.7631 114.268 57.5506 123.17 57.5506C132.072 57.5506 139.292 64.7703 139.292 73.6651C139.292 82.5599 132.072 89.7869 123.17 89.7869Z"/><path fill="currentColor" d="M123.17 53.3992C111.994 53.3992 102.904 62.4889 102.904 73.6651C102.904 84.8414 111.994 93.9311 123.17 93.9311C134.346 93.9311 143.436 84.8414 143.436 73.6651C143.436 62.4889 134.346 53.3992 123.17 53.3992ZM123.17 89.7869C114.268 89.7869 107.048 82.5671 107.048 73.6651C107.048 64.7631 114.268 57.5506 123.17 57.5506C132.072 57.5506 139.292 64.7703 139.292 73.6651C139.292 82.5599 132.072 89.7869 123.17 89.7869Z"/><path fill="currentColor" d="M123.17 53.3992C111.994 53.3992 102.904 62.4889 102.904 73.6651C102.904 84.8414 111.994 93.9311 123.17 93.9311C134.346 93.9311 143.436 84.8414 143.436 73.6651C143.436 62.4889 134.346 53.3992 123.17 53.3992ZM123.17 89.7869C114.268 89.7869 107.048 82.5671 107.048 73.6651C107.048 64.7631 114.268 57.5506 123.17 57.5506C132.072 57.5506 139.292 64.7703 139.292 73.6651C139.292 82.5599 132.072 89.7869 123.17 89.7869Z"/><path fill="currentColor" d="M123.17 53.3992C111.994 53.3992 102.904 62.4889 102.904 73.6651C102.904 84.8414 111.994 93.9311 123.17 93.9311C134.346 93.9311 143.436 84.8414 143.436 73.6651C143.436 62.4889 134.346 53.3992 123.17 53.3992ZM123.17 89.7869C114.268 89.7869 107.048 82.5671 107.048 73.6651C107.048 64.7631 114.268 57.5506 123.17 57.5506C132.072 57.5506 139.292 64.7703 139.292 73.6651C139.292 82.5599 132.072 89.7869 123.17 89.7869Z"/><path fill="currentColor" d="M123.17 53.3992C111.994 53.3992 102.904 62.4889 102.904 73.6651C102.904 84.8414 111.994 93.9311 123.17 93.9311C134.346 93.9311 143.436 84.8414 143.436 73.6651C143.436 62.4889 134.346 53.3992 123.17 53.3992ZM123.17 89.7869C114.268 89.7869 107.048 82.5671 107.048 73.6651C107.048 64.7631 114.268 57.5506 123.17 57.5506C132.072 57.5506 139.292 64.7703 139.292 73.6651C139.292 82.5599 132.072 89.7869 123.17 89.7869Z"/></svg>