<svg xmlns="http://www.w3.org/2000/svg" viewBox="0 0 811 147" width="42" height="14.6087" fill="#fff"><path fill="#1A9FFF" d="M662.293 91.2533C661.902 91.6439 661.902 92.277 662.293 92.6676L668.657 99.0315C669.047 99.422 669.681 99.422 670.071 99.0315C670.462 98.641 670.462 98.0078 670.071 97.6173L664.414 91.9605L670.071 86.3036C670.462 85.9131 670.462 85.2799 670.071 84.8894C669.681 84.4989 669.047 84.4989 668.657 84.8894L662.293 91.2533ZM686 91.9604L686 90.9604L663 90.9605L663 91.9605L663 92.9605L686 92.9604L686 91.9604Z" x="695" y="90.9604" width="13" height="3" rx="1.5" stroke="#1A9FFF" strokeWidth="5.91935" strokeLinecap="round"/><path fill="#1A9FFF" d="M662.293 91.2533C661.902 91.6439 661.902 92.277 662.293 92.6676L668.657 99.0315C669.047 99.422 669.681 99.422 670.071 99.0315C670.462 98.641 670.462 98.0078 670.071 97.6173L664.414 91.9605L670.071 86.3036C670.462 85.9131 670.462 85.2799 670.071 84.8894C669.681 84.4989 669.047 84.4989 668.657 84.8894L662.293 91.2533ZM686 91.9604L686 90.9604L663 90.9605L663 91.9605L663 92.9605L686 92.9604L686 91.9604Z" x="695" y="90.9604" width="13" height="3" rx="1.5" stroke="#1A9FFF" strokeWidth="5.91935" strokeLinecap="round"/><path fill="#1A9FFF" d="M662.293 91.2533C661.902 91.6439 661.902 92.277 662.293 92.6676L668.657 99.0315C669.047 99.422 669.681 99.422 670.071 99.0315C670.462 98.641 670.462 98.0078 670.071 97.6173L664.414 91.9605L670.071 86.3036C670.462 85.9131 670.462 85.2799 670.071 84.8894C669.681 84.4989 669.047 84.4989 668.657 84.8894L662.293 91.2533ZM686 91.9604L686 90.9604L663 90.9605L663 91.9605L663 92.9605L686 92.9604L686 91.9604Z" x="695" y="90.9604" width="13" height="3" rx="1.5" stroke="#1A9FFF" strokeWidth="5.91935" strokeLinecap="round"/><path fill="#1A9FFF" d="M662.293 91.2533C661.902 91.6439 661.902 92.277 662.293 92.6676L668.657 99.0315C669.047 99.422 669.681 99.422 670.071 99.0315C670.462 98.641 670.462 98.0078 670.071 97.6173L664.414 91.9605L670.071 86.3036C670.462 85.9131 670.462 85.2799 670.071 84.8894C669.681 84.4989 669.047 84.4989 668.657 84.8894L662.293 91.2533ZM686 91.9604L686 90.9604L663 90.9605L663 91.9605L663 92.9605L686 92.9604L686 91.9604Z" x="695" y="90.9604" width="13" height="3" rx="1.5" stroke="#1A9FFF" strokeWidth="5.91935" strokeLinecap="round"/><path fill="currentColor"/><path fill="#1A9FFF" d="M662.293 91.2533C661.902 91.6439 661.902 92.277 662.293 92.6676L668.657 99.0315C669.047 99.422 669.681 99.422 670.071 99.0315C670.462 98.641 670.462 98.0078 670.071 97.6173L664.414 91.9605L670.071 86.3036C670.462 85.9131 670.462 85.2799 670.071 84.8894C669.681 84.4989 669.047 84.4989 668.657 84.8894L662.293 91.2533ZM686 91.9604L686 90.9604L663 90.9605L663 91.9605L663 92.9605L686 92.9604L686 91.9604Z" x="695" y="90.9604" width="13" height="3" rx="1.5" stroke="#1A9FFF" strokeWidth="5.91935" strokeLinecap="round"/><path fill="#1A9FFF" d="M662.293 91.2533C661.902 91.6439 661.902 92.277 662.293 92.6676L668.657 99.0315C669.047 99.422 669.681 99.422 670.071 99.0315C670.462 98.641 670.462 98.0078 670.071 97.6173L664.414 91.9605L670.071 86.3036C670.462 85.9131 670.462 85.2799 670.071 84.8894C669.681 84.4989 669.047 84.4989 668.657 84.8894L662.293 91.2533ZM686 91.9604L686 90.9604L663 90.9605L663 91.9605L663 92.9605L686 92.9604L686 91.9604Z" x="695" y="90.9604" width="13" height="3" rx="1.5" stroke="#1A9FFF" strokeWidth="5.91935" strokeLinecap="round"/><path fill="currentColor"/><path fill="#1A9FFF" d="M662.293 91.2533C661.902 91.6439 661.902 92.277 662.293 92.6676L668.657 99.0315C669.047 99.422 669.681 99.422 670.071 99.0315C670.462 98.641 670.462 98.0078 670.071 97.6173L664.414 91.9605L670.071 86.3036C670.462 85.9131 670.462 85.2799 670.071 84.8894C669.681 84.4989 669.047 84.4989 668.657 84.8894L662.293 91.2533ZM686 91.9604L686 90.9604L663 90.9605L663 91.9605L663 92.9605L686 92.9604L686 91.9604Z" x="695" y="90.9604" width="13" height="3" rx="1.5" stroke="#1A9FFF" strokeWidth="5.91935" strokeLinecap="round"/><path fill="#1A9FFF" d="M662.293 91.2533C661.902 91.6439 661.902 92.277 662.293 92.6676L668.657 99.0315C669.047 99.422 669.681 99.422 670.071 99.0315C670.462 98.641 670.462 98.0078 670.071 97.6173L664.414 91.9605L670.071 86.3036C670.462 85.9131 670.462 85.2799 670.071 84.8894C669.681 84.4989 669.047 84.4989 668.657 84.8894L662.293 91.2533ZM686 91.9604L686 90.9604L663 90.9605L663 91.9605L663 92.9605L686 92.9604L686 91.9604Z" x="695" y="90.9604" width="13" height="3" rx="1.5" stroke="#1A9FFF" strokeWidth="5.91935" strokeLinecap="round"/><path fill="currentColor"/><path fill="currentColor"/><rect fill="#1A9FFF" x="695" y="90.9604" width="13" height="3" rx="1.5" stroke="#1A9FFF" d="M662.293 91.2533C661.902 91.6439 661.902 92.277 662.293 92.6676L668.657 99.0315C669.047 99.422 669.681 99.422 670.071 99.0315C670.462 98.641 670.462 98.0078 670.071 97.6173L664.414 91.9605L670.071 86.3036C670.462 85.9131 670.462 85.2799 670.071 84.8894C669.681 84.4989 669.047 84.4989 668.657 84.8894L662.293 91.2533ZM686 91.9604L686 90.9604L663 90.9605L663 91.9605L663 92.9605L686 92.9604L686 91.9604Z" strokeWidth="5.91935" strokeLinecap="round"/><path stroke="#1A9FFF" d="M662.293 91.2533C661.902 91.6439 661.902 92.277 662.293 92.6676L668.657 99.0315C669.047 99.422 669.681 99.422 670.071 99.0315C670.462 98.641 670.462 98.0078 670.071 97.6173L664.414 91.9605L670.071 86.3036C670.462 85.9131 670.462 85.2799 670.071 84.8894C669.681 84.4989 669.047 84.4989 668.657 84.8894L662.293 91.2533ZM686 91.9604L686 90.9604L663 90.9605L663 91.9605L663 92.9605L686 92.9604L686 91.9604Z" strokeWidth="5.91935" strokeLinecap="round" fill="#1A9FFF" x="695" y="90.9604" width="13" height="3" rx="1.5"/><path stroke="#1A9FFF" d="M662.293 91.2533C661.902 91.6439 661.902 92.277 662.293 92.6676L668.657 99.0315C669.047 99.422 669.681 99.422 670.071 99.0315C670.462 98.641 670.462 98.0078 670.071 97.6173L664.414 91.9605L670.071 86.3036C670.462 85.9131 670.462 85.2799 670.071 84.8894C669.681 84.4989 669.047 84.4989 668.657 84.8894L662.293 91.2533ZM686 91.9604L686 90.9604L663 90.9605L663 91.9605L663 92.9605L686 92.9604L686 91.9604Z" strokeWidth="5.91935" strokeLinecap="round" fill="#1A9FFF" x="695" y="90.9604" width="13" height="3" rx="1.5"/><rect fill="#1A9FFF" x="695" y="90.9604" width="13" height="3" rx="1.5" d="M662.293 91.2533C661.902 91.6439 661.902 92.277 662.293 92.6676L668.657 99.0315C669.047 99.422 669.681 99.422 670.071 99.0315C670.462 98.641 670.462 98.0078 670.071 97.6173L664.414 91.9605L670.071 86.3036C670.462 85.9131 670.462 85.2799 670.071 84.8894C669.681 84.4989 669.047 84.4989 668.657 84.8894L662.293 91.2533ZM686 91.9604L686 90.9604L663 90.9605L663 91.9605L663 92.9605L686 92.9604L686 91.9604Z"/><rect fill="#1A9FFF" x="695" y="90.9604" width="13" height="3" d="M662.293 91.2533C661.902 91.6439 661.902 92.277 662.293 92.6676L668.657 99.0315C669.047 99.422 669.681 99.422 670.071 99.0315C670.462 98.641 670.462 98.0078 670.071 97.6173L664.414 91.9605L670.071 86.3036C670.462 85.9131 670.462 85.2799 670.071 84.8894C669.681 84.4989 669.047 84.4989 668.657 84.8894L662.293 91.2533ZM686 91.9604L686 90.9604L663 90.9605L663 91.9605L663 92.9605L686 92.9604L686 91.9604Z"/><rect fill="#1A9FFF" x="695" y="90.9604" width="13" height="3" d="M662.293 91.2533C661.902 91.6439 661.902 92.277 662.293 92.6676L668.657 99.0315C669.047 99.422 669.681 99.422 670.071 99.0315C670.462 98.641 670.462 98.0078 670.071 97.6173L664.414 91.9605L670.071 86.3036C670.462 85.9131 670.462 85.2799 670.071 84.8894C669.681 84.4989 669.047 84.4989 668.657 84.8894L662.293 91.2533ZM686 91.9604L686 90.9604L663 90.9605L663 91.9605L663 92.9605L686 92.9604L686 91.9604Z"/><path fill="#1A9FFF" d="M662.293 91.2533C661.902 91.6439 661.902 92.277 662.293 92.6676L668.657 99.0315C669.047 99.422 669.681 99.422 670.071 99.0315C670.462 98.641 670.462 98.0078 670.071 97.6173L664.414 91.9605L670.071 86.3036C670.462 85.9131 670.462 85.2799 670.071 84.8894C669.681 84.4989 669.047 84.4989 668.657 84.8894L662.293 91.2533ZM686 91.9604L686 90.9604L663 90.9605L663 91.9605L663 92.9605L686 92.9604L686 91.9604Z"/></svg>