<svg xmlns="http://www.w3.org/2000/svg" viewBox="0 0 36 36" width="36" height="36" fill="#fff"><line x1="1" y1="30" x2="32" y2="30" stroke="white" strokeWidth="2" strokeDasharray="2 2" d="M8 20V22V24H10H13H15V22H13H12H10V20V18H8H5H2V6H5H8H10V4H8H2H0V6V18V20H2H6H8Z" fill="white" fillRule="evenodd" clipRule="evenodd"/><path d="M8 20V22V24H10H13H15V22H13H12H10V20V18H8H5H2V6H5H8H10V4H8H2H0V6V18V20H2H6H8Z" fill="white" fillRule="evenodd" clipRule="evenodd"/><path fillRule="evenodd" clipRule="evenodd" d="M8 20V22V24H10H13H15V22H13H12H10V20V18H8H5H2V6H5H8H10V4H8H2H0V6V18V20H2H6H8Z" fill="white"/><path fillRule="evenodd" clipRule="evenodd" d="M8 20V22V24H10H13H15V22H13H12H10V20V18H8H5H2V6H5H8H10V4H8H2H0V6V18V20H2H6H8Z" fill="white"/></svg>