<svg xmlns="http://www.w3.org/2000/svg" viewBox="0 0 1024 1024" fill="#fff"><path d="M1024.89 1024.89V801.404C861.248 759.295 689.685 736.889 512.888 736.889C336.092 736.889 164.529 759.295 0.888672 801.404V1024.89H358.217L423.967 997.748C432.701 1003.7 443.263 1007.19 454.607 1007.19C455.623 1007.19 456.638 1007.15 457.638 1007.11L469.935 1024.89H628.92C615.685 1010.78 596.857 1001.95 576.013 1001.95L574.373 1002L508.982 955.42L509.06 952.842C509.06 922.873 484.623 898.482 454.607 898.482C428.263 898.482 406.232 917.264 401.232 942.139L327.514 972.56C350.342 891.967 424.513 832.889 512.56 832.889C618.779 832.889 704.888 918.857 704.888 1024.89H1024.89ZM441.42 925.56L417.795 935.31C421.982 926.592 429.217 919.31 438.842 915.31C447.638 911.654 456.998 911.31 465.529 913.701C477.17 916.951 487.263 925.295 492.263 937.279C496.451 947.326 496.482 958.42 492.326 968.482C489.763 974.701 485.795 980.092 480.763 984.279C479.107 985.67 477.326 986.92 475.435 988.029C473.795 988.998 472.06 989.857 470.263 990.607C460.263 994.764 449.56 994.607 440.138 991.076L464.56 980.982C472.748 977.576 478.623 970.982 481.357 963.232C483.748 956.482 483.732 948.857 480.748 941.732C474.373 926.42 456.748 919.185 441.42 925.56Z" fill="white" fillRule="evenodd" clipRule="evenodd" x1="512.888" y1="736.889" x2="512.888" y2="1024.89" gradientUnits="userSpaceOnUse" stopColor="white" stopOpacity="0" offset="1"/><path fillRule="evenodd" clipRule="evenodd" d="M1024.89 1024.89V801.404C861.248 759.295 689.685 736.889 512.888 736.889C336.092 736.889 164.529 759.295 0.888672 801.404V1024.89H358.217L423.967 997.748C432.701 1003.7 443.263 1007.19 454.607 1007.19C455.623 1007.19 456.638 1007.15 457.638 1007.11L469.935 1024.89H628.92C615.685 1010.78 596.857 1001.95 576.013 1001.95L574.373 1002L508.982 955.42L509.06 952.842C509.06 922.873 484.623 898.482 454.607 898.482C428.263 898.482 406.232 917.264 401.232 942.139L327.514 972.56C350.342 891.967 424.513 832.889 512.56 832.889C618.779 832.889 704.888 918.857 704.888 1024.89H1024.89ZM441.42 925.56L417.795 935.31C421.982 926.592 429.217 919.31 438.842 915.31C447.638 911.654 456.998 911.31 465.529 913.701C477.17 916.951 487.263 925.295 492.263 937.279C496.451 947.326 496.482 958.42 492.326 968.482C489.763 974.701 485.795 980.092 480.763 984.279C479.107 985.67 477.326 986.92 475.435 988.029C473.795 988.998 472.06 989.857 470.263 990.607C460.263 994.764 449.56 994.607 440.138 991.076L464.56 980.982C472.748 977.576 478.623 970.982 481.357 963.232C483.748 956.482 483.732 948.857 480.748 941.732C474.373 926.42 456.748 919.185 441.42 925.56Z" fill="white" x1="512.888" y1="736.889" x2="512.888" y2="1024.89" gradientUnits="userSpaceOnUse" stopColor="white" stopOpacity="0" offset="1"/><path fillRule="evenodd" clipRule="evenodd"/><defs x1="512.888" y1="736.889" x2="512.888" y2="1024.89" gradientUnits="userSpaceOnUse" stopColor="white" stopOpacity="0" offset="1"/><linearGradient x1="512.888" y1="736.889" x2="512.888" y2="1024.89" gradientUnits="userSpaceOnUse" stopColor="white" stopOpacity="0" offset="1"/><stop stopColor="white"/><stop offset="1" stopColor="white" stopOpacity="0"/></svg>