<svg xmlns="http://www.w3.org/2000/svg" viewBox="0 0 36 36" width="5.1" height="4.5" fill="#fff"><path fill="currentColor" opacity="0.5" d="M12.9,13.7c-0.6,0-1.1-0.5-1.1-1.1V8l-1.7,0L9.6,7.5c0,0-0.1,0-0.2,0C9.3,7.3,9.2,7.1,9,6.9  C6.7,6.5,5.2,7.1,4.7,7.4c-0.1,0-0.1,0.1-0.2,0.1C3.9,8,2.8,10.3,2.8,10.3C2.2,12,0.6,17,0,23.8c0,0-0.6,5.1,3.4,5.6  c3.5,0.4,4.6-4.1,5.2-6.5c0.2-0.7,0.3-1.2,0.4-1.4c0.3-0.3,0.7-0.5,0.9-0.5c0.6,0.7,1.5,1.1,2.5,1.1c1,0,1.9-0.4,2.5-1.1H18v-7.3  H12.9z M5.6,10.8c0-0.3,0.2-0.5,0.5-0.5h1.2c0.3,0,0.5,0.2,0.5,0.5v1c0,0.1-0.1,0.3-0.1,0.4l-0.6,0.6c-0.2,0.2-0.5,0.2-0.7,0  l-0.6-0.6c-0.1-0.1-0.1-0.2-0.1-0.4V10.8z M5.1,14.5h-1c-0.3,0-0.5-0.2-0.5-0.5v-1.2c0-0.3,0.2-0.5,0.5-0.5h1c0.1,0,0.3,0.1,0.4,0.1  L6.1,13c0.2,0.2,0.2,0.5,0,0.7l-0.6,0.6C5.4,14.4,5.3,14.5,5.1,14.5z M7.9,16c0,0.3-0.2,0.5-0.5,0.5H6.1c-0.3,0-0.5-0.2-0.5-0.5v-1  c0-0.1,0.1-0.3,0.1-0.4L6.4,14c0.2-0.2,0.5-0.2,0.7,0l0.6,0.6c0.1,0.1,0.1,0.2,0.1,0.4V16z M9.8,14c0,0.3-0.2,0.5-0.5,0.5h-1  c-0.1,0-0.3-0.1-0.4-0.1l-0.6-0.6c-0.2-0.2-0.2-0.5,0-0.7L8,12.4c0.1-0.1,0.2-0.1,0.4-0.1h1c0.3,0,0.5,0.2,0.5,0.5V14z M12.1,20.4  c-1.2,0-2.2-1-2.2-2.2c0-1.2,1-2.2,2.2-2.2c1.2,0,2.2,1,2.2,2.2C14.4,19.4,13.4,20.4,12.1,20.4z"/><path fill="currentColor"/><rect fill="currentColor" opacity="0.5" x="18" y="8" width="5.1" height="4.5"/><rect fill="currentColor" x="18" y="8" width="5.1" height="4.5"/></svg>