<svg xmlns="http://www.w3.org/2000/svg" viewBox="0 0 432 315" width="432" height="315" fill="#fff"><g d="M99.41 139.34C128.654 139.34 152.36 115.633 152.36 86.3899C152.36 57.1465 128.654 33.4399 99.41 33.4399C70.1665 33.4399 46.46 57.1465 46.46 86.3899C46.46 115.633 70.1665 139.34 99.41 139.34Z" stroke="white" strokeWidth="3" strokeMiterlimit="10" fill="#1A9FFF"/><path d="M99.41 139.34C128.654 139.34 152.36 115.633 152.36 86.3899C152.36 57.1465 128.654 33.4399 99.41 33.4399C70.1665 33.4399 46.46 57.1465 46.46 86.3899C46.46 115.633 70.1665 139.34 99.41 139.34Z" stroke="white" strokeWidth="3" strokeMiterlimit="10" fill="#1A9FFF"/><path d="M335 102C344.941 102 353 93.9411 353 84C353 74.0589 344.941 66 335 66C325.059 66 317 74.0589 317 84C317 93.9411 325.059 102 335 102Z" fill="white" stroke="white" strokeWidth="2" strokeMiterlimit="10" width="431.82" height="315"/><path d="M335 102C344.941 102 353 93.9411 353 84C353 74.0589 344.941 66 335 66C325.059 66 317 74.0589 317 84C317 93.9411 325.059 102 335 102Z" stroke="white" strokeWidth="2" strokeMiterlimit="10" fill="white" width="431.82" height="315"/><path d="M335 102C344.941 102 353 93.9411 353 84C353 74.0589 344.941 66 335 66C325.059 66 317 74.0589 317 84C317 93.9411 325.059 102 335 102Z" stroke="white" strokeMiterlimit="10" strokeWidth="2" fill="white" width="431.82" height="315"/><path d="M335 102C344.941 102 353 93.9411 353 84C353 74.0589 344.941 66 335 66C325.059 66 317 74.0589 317 84C317 93.9411 325.059 102 335 102Z" stroke="white" strokeMiterlimit="10" strokeWidth="2" fill="white" width="431.82" height="315"/><path d="M335 102C344.941 102 353 93.9411 353 84C353 74.0589 344.941 66 335 66C325.059 66 317 74.0589 317 84C317 93.9411 325.059 102 335 102Z" stroke="white" strokeWidth="2" strokeMiterlimit="10" fill="white" width="431.82" height="315"/><path d="M335 102C344.941 102 353 93.9411 353 84C353 74.0589 344.941 66 335 66C325.059 66 317 74.0589 317 84C317 93.9411 325.059 102 335 102Z" stroke="white" strokeWidth="2" strokeMiterlimit="10" fill="white" width="431.82" height="315"/><path d="M335 102C344.941 102 353 93.9411 353 84C353 74.0589 344.941 66 335 66C325.059 66 317 74.0589 317 84C317 93.9411 325.059 102 335 102Z" stroke="white" strokeWidth="2" strokeMiterlimit="10" fill="white" width="431.82" height="315"/><path d="M335 102C344.941 102 353 93.9411 353 84C353 74.0589 344.941 66 335 66C325.059 66 317 74.0589 317 84C317 93.9411 325.059 102 335 102Z" stroke="white" strokeWidth="2" strokeMiterlimit="10" fill="white" width="431.82" height="315"/><path d="M335 102C344.941 102 353 93.9411 353 84C353 74.0589 344.941 66 335 66C325.059 66 317 74.0589 317 84C317 93.9411 325.059 102 335 102Z" stroke="white" strokeWidth="2" strokeMiterlimit="10" fill="white" width="431.82" height="315"/><path d="M335 102C344.941 102 353 93.9411 353 84C353 74.0589 344.941 66 335 66C325.059 66 317 74.0589 317 84C317 93.9411 325.059 102 335 102Z" stroke="white" strokeWidth="2" strokeMiterlimit="10" fill="white" width="431.82" height="315"/><path d="M335 102C344.941 102 353 93.9411 353 84C353 74.0589 344.941 66 335 66C325.059 66 317 74.0589 317 84C317 93.9411 325.059 102 335 102Z" stroke="white" strokeWidth="2" strokeMiterlimit="10" fill="white" width="431.82" height="315"/><path d="M335 102C344.941 102 353 93.9411 353 84C353 74.0589 344.941 66 335 66C325.059 66 317 74.0589 317 84C317 93.9411 325.059 102 335 102Z" stroke="white" strokeWidth="2" strokeMiterlimit="10" fill="white" width="431.82" height="315"/><path d="M335 102C344.941 102 353 93.9411 353 84C353 74.0589 344.941 66 335 66C325.059 66 317 74.0589 317 84C317 93.9411 325.059 102 335 102Z" stroke="white" strokeMiterlimit="10" strokeWidth="2" fill="white" width="431.82" height="315"/><path d="M335 102C344.941 102 353 93.9411 353 84C353 74.0589 344.941 66 335 66C325.059 66 317 74.0589 317 84C317 93.9411 325.059 102 335 102Z" stroke="white" strokeWidth="2" strokeMiterlimit="10" fill="white" width="431.82" height="315"/><path d="M335 102C344.941 102 353 93.9411 353 84C353 74.0589 344.941 66 335 66C325.059 66 317 74.0589 317 84C317 93.9411 325.059 102 335 102Z" fill="white" stroke="white" strokeWidth="2" strokeMiterlimit="10" width="431.82" height="315"/><path d="M335 102C344.941 102 353 93.9411 353 84C353 74.0589 344.941 66 335 66C325.059 66 317 74.0589 317 84C317 93.9411 325.059 102 335 102Z" fill="white" stroke="white" strokeWidth="2" strokeMiterlimit="10" width="431.82" height="315"/><path d="M335 102C344.941 102 353 93.9411 353 84C353 74.0589 344.941 66 335 66C325.059 66 317 74.0589 317 84C317 93.9411 325.059 102 335 102Z" fill="white" stroke="white" strokeWidth="2" strokeMiterlimit="10" width="431.82" height="315"/><defs width="431.82" height="315" fill="white"/><clipPath width="431.82" height="315" fill="white"/><rect width="431.82" height="315" fill="white"/></svg>