<svg xmlns="http://www.w3.org/2000/svg" viewBox="0 0 258 329" fill="#fff"><path fill="currentColor" d="M190.068 49.6305C186.575 36.5918 178.876 25.0702 168.167 16.8528C157.458 8.63529 144.336 4.18115 130.838 4.18115C117.339 4.18115 104.217 8.63529 93.5082 16.8528C82.799 25.0702 75.1005 36.5918 71.6068 49.6305M170.111 54.9771C167.795 46.3314 162.69 38.6917 155.589 33.2429C148.488 27.794 139.787 24.8406 130.837 24.8406C121.886 24.8406 113.185 27.794 106.084 33.2429C98.9833 38.6917 93.8786 46.3314 91.562 54.9771M148.069 60.8844C147.052 57.0913 144.813 53.7396 141.697 51.3491C138.582 48.9585 134.765 47.6628 130.838 47.6628C126.911 47.6628 123.094 48.9585 119.979 51.3491C116.863 53.7396 114.624 57.0913 113.607 60.8844" stroke="#1A9FFF" strokeWidth="8.36184" strokeLinecap="round"/><path stroke="#1A9FFF" d="M190.068 49.6305C186.575 36.5918 178.876 25.0702 168.167 16.8528C157.458 8.63529 144.336 4.18115 130.838 4.18115C117.339 4.18115 104.217 8.63529 93.5082 16.8528C82.799 25.0702 75.1005 36.5918 71.6068 49.6305M170.111 54.9771C167.795 46.3314 162.69 38.6917 155.589 33.2429C148.488 27.794 139.787 24.8406 130.837 24.8406C121.886 24.8406 113.185 27.794 106.084 33.2429C98.9833 38.6917 93.8786 46.3314 91.562 54.9771M148.069 60.8844C147.052 57.0913 144.813 53.7396 141.697 51.3491C138.582 48.9585 134.765 47.6628 130.838 47.6628C126.911 47.6628 123.094 48.9585 119.979 51.3491C116.863 53.7396 114.624 57.0913 113.607 60.8844" strokeWidth="8.36184" strokeLinecap="round"/></svg>