<svg xmlns="http://www.w3.org/2000/svg" viewBox="0 0 36 39" fill="#fff"><path fill="white" d="M24.7501 19.1319C28.6886 19.1319 31.8815 15.9391 31.8815 12.0005C31.8815 8.06198 28.6886 4.86914 24.7501 4.86914C20.8115 4.86914 17.6187 8.06198 17.6187 12.0005C17.6187 15.9391 20.8115 19.1319 24.7501 19.1319Z" fillOpacity="0.65" stroke="#8B929A" strokeWidth="1.25" strokeMiterlimit="10"/><path fill="white" d="M24.7501 19.1319C28.6886 19.1319 31.8815 15.9391 31.8815 12.0005C31.8815 8.06198 28.6886 4.86914 24.7501 4.86914C20.8115 4.86914 17.6187 8.06198 17.6187 12.0005C17.6187 15.9391 20.8115 19.1319 24.7501 19.1319Z" fillOpacity="0.65" stroke="#8B929A" strokeWidth="1.25" strokeMiterlimit="10"/><path stroke="#8B929A" d="M24.7501 19.1319C28.6886 19.1319 31.8815 15.9391 31.8815 12.0005C31.8815 8.06198 28.6886 4.86914 24.7501 4.86914C20.8115 4.86914 17.6187 8.06198 17.6187 12.0005C17.6187 15.9391 20.8115 19.1319 24.7501 19.1319Z" strokeWidth="1.25" strokeMiterlimit="10"/><path stroke="#8B929A" d="M24.7501 19.1319C28.6886 19.1319 31.8815 15.9391 31.8815 12.0005C31.8815 8.06198 28.6886 4.86914 24.7501 4.86914C20.8115 4.86914 17.6187 8.06198 17.6187 12.0005C17.6187 15.9391 20.8115 19.1319 24.7501 19.1319Z" strokeWidth="1.25" strokeMiterlimit="10"/></svg>