<svg xmlns="http://www.w3.org/2000/svg" viewBox="150 0 1120 730" fill="#fff"><path stroke="currentColor" d="M888.9 595.47C916.547 595.47 938.96 580.87 938.96 562.86C938.96 544.85 916.547 530.25 888.9 530.25C861.253 530.25 838.84 544.85 838.84 562.86C838.84 580.87 861.253 595.47 888.9 595.47Z" strokeWidth="4" strokeMiterlimit="10"/><path stroke="currentColor" d="M709.02 547.05C709.02 547.05 775.74 549.25 842.88 550.05" strokeWidth="4" strokeMiterlimit="10"/><path stroke="currentColor" d="M888.9 595.47C916.547 595.47 938.96 580.87 938.96 562.86C938.96 544.85 916.547 530.25 888.9 530.25C861.253 530.25 838.84 544.85 838.84 562.86C838.84 580.87 861.253 595.47 888.9 595.47Z" strokeWidth="4" strokeMiterlimit="10"/><path stroke="currentColor" d="M888.9 595.47C916.547 595.47 938.96 580.87 938.96 562.86C938.96 544.85 916.547 530.25 888.9 530.25C861.253 530.25 838.84 544.85 838.84 562.86C838.84 580.87 861.253 595.47 888.9 595.47Z" strokeWidth="4" strokeMiterlimit="10"/><path stroke="currentColor" d="M888.9 595.47C916.547 595.47 938.96 580.87 938.96 562.86C938.96 544.85 916.547 530.25 888.9 530.25C861.253 530.25 838.84 544.85 838.84 562.86C838.84 580.87 861.253 595.47 888.9 595.47Z" strokeWidth="4" strokeMiterlimit="10"/><path stroke="currentColor"/><path stroke="currentColor"/><path stroke="currentColor" d="M888.9 595.47C916.547 595.47 938.96 580.87 938.96 562.86C938.96 544.85 916.547 530.25 888.9 530.25C861.253 530.25 838.84 544.85 838.84 562.86C838.84 580.87 861.253 595.47 888.9 595.47Z" strokeWidth="4" strokeMiterlimit="10"/><path stroke="currentColor"/><path stroke="currentColor"/><path stroke="currentColor" d="M888.9 595.47C916.547 595.47 938.96 580.87 938.96 562.86C938.96 544.85 916.547 530.25 888.9 530.25C861.253 530.25 838.84 544.85 838.84 562.86C838.84 580.87 861.253 595.47 888.9 595.47Z" strokeWidth="4" strokeMiterlimit="10"/><path stroke="currentColor"/><path stroke="currentColor" d="M888.9 595.47C916.547 595.47 938.96 580.87 938.96 562.86C938.96 544.85 916.547 530.25 888.9 530.25C861.253 530.25 838.84 544.85 838.84 562.86C838.84 580.87 861.253 595.47 888.9 595.47Z" strokeWidth="4" strokeMiterlimit="10"/><path stroke="currentColor" d="M888.9 595.47C916.547 595.47 938.96 580.87 938.96 562.86C938.96 544.85 916.547 530.25 888.9 530.25C861.253 530.25 838.84 544.85 838.84 562.86C838.84 580.87 861.253 595.47 888.9 595.47Z" strokeWidth="4" strokeMiterlimit="10"/><path stroke="currentColor" d="M888.9 595.47C916.547 595.47 938.96 580.87 938.96 562.86C938.96 544.85 916.547 530.25 888.9 530.25C861.253 530.25 838.84 544.85 838.84 562.86C838.84 580.87 861.253 595.47 888.9 595.47Z" strokeWidth="4" strokeMiterlimit="10"/><path stroke="currentColor"/><path stroke="currentColor" d="M888.9 595.47C916.547 595.47 938.96 580.87 938.96 562.86C938.96 544.85 916.547 530.25 888.9 530.25C861.253 530.25 838.84 544.85 838.84 562.86C838.84 580.87 861.253 595.47 888.9 595.47Z" strokeWidth="4" strokeMiterlimit="10"/><path stroke="currentColor" d="M888.9 595.47C916.547 595.47 938.96 580.87 938.96 562.86C938.96 544.85 916.547 530.25 888.9 530.25C861.253 530.25 838.84 544.85 838.84 562.86C838.84 580.87 861.253 595.47 888.9 595.47Z" strokeWidth="4" strokeMiterlimit="10"/><path stroke="currentColor" d="M888.9 595.47C916.547 595.47 938.96 580.87 938.96 562.86C938.96 544.85 916.547 530.25 888.9 530.25C861.253 530.25 838.84 544.85 838.84 562.86C838.84 580.87 861.253 595.47 888.9 595.47Z" strokeWidth="4" strokeMiterlimit="10"/><path stroke="currentColor" d="M888.9 595.47C916.547 595.47 938.96 580.87 938.96 562.86C938.96 544.85 916.547 530.25 888.9 530.25C861.253 530.25 838.84 544.85 838.84 562.86C838.84 580.87 861.253 595.47 888.9 595.47Z" strokeWidth="4" strokeMiterlimit="10"/><path stroke="currentColor" d="M888.9 595.47C916.547 595.47 938.96 580.87 938.96 562.86C938.96 544.85 916.547 530.25 888.9 530.25C861.253 530.25 838.84 544.85 838.84 562.86C838.84 580.87 861.253 595.47 888.9 595.47Z" strokeWidth="4" strokeMiterlimit="10"/><path stroke="currentColor" d="M888.9 595.47C916.547 595.47 938.96 580.87 938.96 562.86C938.96 544.85 916.547 530.25 888.9 530.25C861.253 530.25 838.84 544.85 838.84 562.86C838.84 580.87 861.253 595.47 888.9 595.47Z" strokeWidth="4" strokeMiterlimit="10"/><path stroke="currentColor" d="M888.9 595.47C916.547 595.47 938.96 580.87 938.96 562.86C938.96 544.85 916.547 530.25 888.9 530.25C861.253 530.25 838.84 544.85 838.84 562.86C838.84 580.87 861.253 595.47 888.9 595.47Z" strokeWidth="4" strokeMiterlimit="10"/><path stroke="currentColor" d="M888.9 595.47C916.547 595.47 938.96 580.87 938.96 562.86C938.96 544.85 916.547 530.25 888.9 530.25C861.253 530.25 838.84 544.85 838.84 562.86C838.84 580.87 861.253 595.47 888.9 595.47Z" strokeWidth="4" strokeMiterlimit="10"/><path stroke="currentColor" d="M888.9 595.47C916.547 595.47 938.96 580.87 938.96 562.86C938.96 544.85 916.547 530.25 888.9 530.25C861.253 530.25 838.84 544.85 838.84 562.86C838.84 580.87 861.253 595.47 888.9 595.47Z" strokeWidth="4" strokeMiterlimit="10"/><path stroke="currentColor" d="M888.9 595.47C916.547 595.47 938.96 580.87 938.96 562.86C938.96 544.85 916.547 530.25 888.9 530.25C861.253 530.25 838.84 544.85 838.84 562.86C838.84 580.87 861.253 595.47 888.9 595.47Z" strokeWidth="4" strokeMiterlimit="10"/></svg>