<svg xmlns="http://www.w3.org/2000/svg" viewBox="0 0 19 18" fill="#fff"><path fill="#B8BCBF" d="M17.0008 7.74316L15.3886 10.1377L18.2684 10.3367L17.0008 7.74316ZM12.9769 17.363C15.4123 15.3244 16.6776 12.8735 17.0931 10.0237L16.5984 9.9516C16.1999 12.6846 14.9935 15.0229 12.6559 16.9796L12.9769 17.363Z"/><path fill="#B8BCBF" d="M17.0008 7.74316L15.3886 10.1377L18.2684 10.3367L17.0008 7.74316ZM12.9769 17.363C15.4123 15.3244 16.6776 12.8735 17.0931 10.0237L16.5984 9.9516C16.1999 12.6846 14.9935 15.0229 12.6559 16.9796L12.9769 17.363Z"/><path fill="#B8BCBF" d="M17.0008 7.74316L15.3886 10.1377L18.2684 10.3367L17.0008 7.74316ZM12.9769 17.363C15.4123 15.3244 16.6776 12.8735 17.0931 10.0237L16.5984 9.9516C16.1999 12.6846 14.9935 15.0229 12.6559 16.9796L12.9769 17.363Z"/><path fill="#B8BCBF" d="M17.0008 7.74316L15.3886 10.1377L18.2684 10.3367L17.0008 7.74316ZM12.9769 17.363C15.4123 15.3244 16.6776 12.8735 17.0931 10.0237L16.5984 9.9516C16.1999 12.6846 14.9935 15.0229 12.6559 16.9796L12.9769 17.363Z"/><path fill="#D9D9D9" d="M6.39758 5.45603C6.39758 7.19171 5.05288 8.59875 3.3941 8.59875C1.73533 8.59875 0.390625 7.19171 0.390625 5.45603C0.390625 3.72036 1.73533 2.31332 3.3941 2.31332C5.05288 2.31332 6.39758 3.72036 6.39758 5.45603Z"/><path fill="#B8BCBF" d="M17.0008 7.74316L15.3886 10.1377L18.2684 10.3367L17.0008 7.74316ZM12.9769 17.363C15.4123 15.3244 16.6776 12.8735 17.0931 10.0237L16.5984 9.9516C16.1999 12.6846 14.9935 15.0229 12.6559 16.9796L12.9769 17.363Z"/><path fill="#B8BCBF" d="M17.0008 7.74316L15.3886 10.1377L18.2684 10.3367L17.0008 7.74316ZM12.9769 17.363C15.4123 15.3244 16.6776 12.8735 17.0931 10.0237L16.5984 9.9516C16.1999 12.6846 14.9935 15.0229 12.6559 16.9796L12.9769 17.363Z"/><path fill="#D9D9D9"/><path fill="#B8BCBF" d="M17.0008 7.74316L15.3886 10.1377L18.2684 10.3367L17.0008 7.74316ZM12.9769 17.363C15.4123 15.3244 16.6776 12.8735 17.0931 10.0237L16.5984 9.9516C16.1999 12.6846 14.9935 15.0229 12.6559 16.9796L12.9769 17.363Z"/></svg>