<svg xmlns="http://www.w3.org/2000/svg" viewBox="0 0 725 195" width="3.1" height="7.51155" fill="#fff"><path stroke="currentColor" d="M261.797 115.37V113.681L260.539 111.385H261.066L261.708 112.587C261.834 112.824 261.945 113.051 262.042 113.262C262.138 113.054 262.257 112.821 262.413 112.557L263.047 111.385H263.548L262.242 113.681V115.37H261.797Z" strokeWidth="0.371029" strokeMiterlimit="10" strokeOpacity="0.7" opacity="0.7" fill="currentColor" fillRule="evenodd" clipRule="evenodd" x="694.927" y="56.8467" width="32" height="22" rx="1.55" transform="translate(675.172 5)"/><path stroke="currentColor"/><path stroke="currentColor" d="M261.797 115.37V113.681L260.539 111.385H261.066L261.708 112.587C261.834 112.824 261.945 113.051 262.042 113.262C262.138 113.054 262.257 112.821 262.413 112.557L263.047 111.385H263.548L262.242 113.681V115.37H261.797Z" strokeWidth="0.371029" opacity="0.7" strokeMiterlimit="10" fill="currentColor" fillRule="evenodd" clipRule="evenodd" x="694.927" y="56.8467" width="32" height="22" rx="1.55" transform="translate(675.172 5)" strokeOpacity="0.7"/><path stroke="currentColor" opacity="0.7" d="M261.797 115.37V113.681L260.539 111.385H261.066L261.708 112.587C261.834 112.824 261.945 113.051 262.042 113.262C262.138 113.054 262.257 112.821 262.413 112.557L263.047 111.385H263.548L262.242 113.681V115.37H261.797Z" strokeWidth="0.371029" strokeMiterlimit="10" fill="currentColor" fillRule="evenodd" clipRule="evenodd" x="694.927" y="56.8467" width="32" height="22" rx="1.55" transform="translate(675.172 5)" strokeOpacity="0.7"/><path fill="currentColor" fillRule="evenodd" clipRule="evenodd" d="M261.797 115.37V113.681L260.539 111.385H261.066L261.708 112.587C261.834 112.824 261.945 113.051 262.042 113.262C262.138 113.054 262.257 112.821 262.413 112.557L263.047 111.385H263.548L262.242 113.681V115.37H261.797Z" stroke="currentColor" strokeWidth="0.371029" strokeMiterlimit="10" opacity="0.7" x="694.927" y="56.8467" width="32" height="22" rx="1.55" transform="translate(675.172 5)" strokeOpacity="0.7"/><path stroke="currentColor"/><path stroke="currentColor" d="M261.797 115.37V113.681L260.539 111.385H261.066L261.708 112.587C261.834 112.824 261.945 113.051 262.042 113.262C262.138 113.054 262.257 112.821 262.413 112.557L263.047 111.385H263.548L262.242 113.681V115.37H261.797Z" strokeWidth="0.371029" strokeMiterlimit="10" opacity="0.7" fill="currentColor" fillRule="evenodd" clipRule="evenodd" x="694.927" y="56.8467" width="32" height="22" rx="1.55" transform="translate(675.172 5)" strokeOpacity="0.7"/><path stroke="currentColor" opacity="0.7" d="M261.797 115.37V113.681L260.539 111.385H261.066L261.708 112.587C261.834 112.824 261.945 113.051 262.042 113.262C262.138 113.054 262.257 112.821 262.413 112.557L263.047 111.385H263.548L262.242 113.681V115.37H261.797Z" strokeWidth="0.371029" strokeMiterlimit="10" fill="currentColor" fillRule="evenodd" clipRule="evenodd" x="694.927" y="56.8467" width="32" height="22" rx="1.55" transform="translate(675.172 5)" strokeOpacity="0.7"/><path stroke="currentColor" d="M261.797 115.37V113.681L260.539 111.385H261.066L261.708 112.587C261.834 112.824 261.945 113.051 262.042 113.262C262.138 113.054 262.257 112.821 262.413 112.557L263.047 111.385H263.548L262.242 113.681V115.37H261.797Z" strokeWidth="0.371029" strokeMiterlimit="10" opacity="0.7" fill="currentColor" fillRule="evenodd" clipRule="evenodd" x="694.927" y="56.8467" width="32" height="22" rx="1.55" transform="translate(675.172 5)" strokeOpacity="0.7"/><path stroke="currentColor" opacity="0.7" d="M261.797 115.37V113.681L260.539 111.385H261.066L261.708 112.587C261.834 112.824 261.945 113.051 262.042 113.262C262.138 113.054 262.257 112.821 262.413 112.557L263.047 111.385H263.548L262.242 113.681V115.37H261.797Z" strokeWidth="0.371029" strokeMiterlimit="10" fill="currentColor" fillRule="evenodd" clipRule="evenodd" x="694.927" y="56.8467" width="32" height="22" rx="1.55" transform="translate(675.172 5)" strokeOpacity="0.7"/><path stroke="currentColor" opacity="0.7" d="M261.797 115.37V113.681L260.539 111.385H261.066L261.708 112.587C261.834 112.824 261.945 113.051 262.042 113.262C262.138 113.054 262.257 112.821 262.413 112.557L263.047 111.385H263.548L262.242 113.681V115.37H261.797Z" strokeWidth="0.371029" strokeMiterlimit="10" fill="currentColor" fillRule="evenodd" clipRule="evenodd" x="694.927" y="56.8467" width="32" height="22" rx="1.55" transform="translate(675.172 5)" strokeOpacity="0.7"/><path stroke="currentColor" opacity="0.7" d="M261.797 115.37V113.681L260.539 111.385H261.066L261.708 112.587C261.834 112.824 261.945 113.051 262.042 113.262C262.138 113.054 262.257 112.821 262.413 112.557L263.047 111.385H263.548L262.242 113.681V115.37H261.797Z" strokeWidth="0.371029" strokeMiterlimit="10" fill="currentColor" fillRule="evenodd" clipRule="evenodd" x="694.927" y="56.8467" width="32" height="22" rx="1.55" transform="translate(675.172 5)" strokeOpacity="0.7"/><path stroke="currentColor" opacity="0.7" d="M261.797 115.37V113.681L260.539 111.385H261.066L261.708 112.587C261.834 112.824 261.945 113.051 262.042 113.262C262.138 113.054 262.257 112.821 262.413 112.557L263.047 111.385H263.548L262.242 113.681V115.37H261.797Z" strokeWidth="0.371029" strokeMiterlimit="10" fill="currentColor" fillRule="evenodd" clipRule="evenodd" x="694.927" y="56.8467" width="32" height="22" rx="1.55" transform="translate(675.172 5)" strokeOpacity="0.7"/><path stroke="currentColor" d="M261.797 115.37V113.681L260.539 111.385H261.066L261.708 112.587C261.834 112.824 261.945 113.051 262.042 113.262C262.138 113.054 262.257 112.821 262.413 112.557L263.047 111.385H263.548L262.242 113.681V115.37H261.797Z" strokeWidth="0.371029" strokeMiterlimit="10" opacity="0.7" fill="currentColor" fillRule="evenodd" clipRule="evenodd" x="694.927" y="56.8467" width="32" height="22" rx="1.55" transform="translate(675.172 5)" strokeOpacity="0.7"/><path stroke="currentColor" d="M261.797 115.37V113.681L260.539 111.385H261.066L261.708 112.587C261.834 112.824 261.945 113.051 262.042 113.262C262.138 113.054 262.257 112.821 262.413 112.557L263.047 111.385H263.548L262.242 113.681V115.37H261.797Z" strokeWidth="0.371029" strokeMiterlimit="10" opacity="0.7" fill="currentColor" fillRule="evenodd" clipRule="evenodd" x="694.927" y="56.8467" width="32" height="22" rx="1.55" transform="translate(675.172 5)" strokeOpacity="0.7"/><path stroke="currentColor" d="M261.797 115.37V113.681L260.539 111.385H261.066L261.708 112.587C261.834 112.824 261.945 113.051 262.042 113.262C262.138 113.054 262.257 112.821 262.413 112.557L263.047 111.385H263.548L262.242 113.681V115.37H261.797Z" strokeWidth="0.371029" strokeMiterlimit="10" opacity="0.7" fill="currentColor" fillRule="evenodd" clipRule="evenodd" x="694.927" y="56.8467" width="32" height="22" rx="1.55" transform="translate(675.172 5)" strokeOpacity="0.7"/><path stroke="currentColor" d="M261.797 115.37V113.681L260.539 111.385H261.066L261.708 112.587C261.834 112.824 261.945 113.051 262.042 113.262C262.138 113.054 262.257 112.821 262.413 112.557L263.047 111.385H263.548L262.242 113.681V115.37H261.797Z" strokeWidth="0.371029" strokeMiterlimit="10" opacity="0.7" fill="currentColor" fillRule="evenodd" clipRule="evenodd" x="694.927" y="56.8467" width="32" height="22" rx="1.55" transform="translate(675.172 5)" strokeOpacity="0.7"/><path stroke="currentColor" d="M261.797 115.37V113.681L260.539 111.385H261.066L261.708 112.587C261.834 112.824 261.945 113.051 262.042 113.262C262.138 113.054 262.257 112.821 262.413 112.557L263.047 111.385H263.548L262.242 113.681V115.37H261.797Z" strokeWidth="0.371029" strokeMiterlimit="10" opacity="0.7" fill="currentColor" fillRule="evenodd" clipRule="evenodd" x="694.927" y="56.8467" width="32" height="22" rx="1.55" transform="translate(675.172 5)" strokeOpacity="0.7"/><path stroke="currentColor" d="M261.797 115.37V113.681L260.539 111.385H261.066L261.708 112.587C261.834 112.824 261.945 113.051 262.042 113.262C262.138 113.054 262.257 112.821 262.413 112.557L263.047 111.385H263.548L262.242 113.681V115.37H261.797Z" strokeWidth="0.371029" strokeMiterlimit="10" opacity="0.7" fill="currentColor" fillRule="evenodd" clipRule="evenodd" x="694.927" y="56.8467" width="32" height="22" rx="1.55" transform="translate(675.172 5)" strokeOpacity="0.7"/><path stroke="currentColor" d="M261.797 115.37V113.681L260.539 111.385H261.066L261.708 112.587C261.834 112.824 261.945 113.051 262.042 113.262C262.138 113.054 262.257 112.821 262.413 112.557L263.047 111.385H263.548L262.242 113.681V115.37H261.797Z" strokeWidth="0.371029" strokeMiterlimit="10" opacity="0.7" fill="currentColor" fillRule="evenodd" clipRule="evenodd" x="694.927" y="56.8467" width="32" height="22" rx="1.55" transform="translate(675.172 5)" strokeOpacity="0.7"/><path stroke="currentColor" d="M261.797 115.37V113.681L260.539 111.385H261.066L261.708 112.587C261.834 112.824 261.945 113.051 262.042 113.262C262.138 113.054 262.257 112.821 262.413 112.557L263.047 111.385H263.548L262.242 113.681V115.37H261.797Z" strokeWidth="0.371029" strokeMiterlimit="10" opacity="0.7" fill="currentColor" fillRule="evenodd" clipRule="evenodd" x="694.927" y="56.8467" width="32" height="22" rx="1.55" transform="translate(675.172 5)" strokeOpacity="0.7"/><path stroke="currentColor" d="M261.797 115.37V113.681L260.539 111.385H261.066L261.708 112.587C261.834 112.824 261.945 113.051 262.042 113.262C262.138 113.054 262.257 112.821 262.413 112.557L263.047 111.385H263.548L262.242 113.681V115.37H261.797Z" strokeWidth="0.371029" strokeMiterlimit="10" opacity="0.7" fill="currentColor" fillRule="evenodd" clipRule="evenodd" x="694.927" y="56.8467" width="32" height="22" rx="1.55" transform="translate(675.172 5)" strokeOpacity="0.7"/><path stroke="currentColor" d="M261.797 115.37V113.681L260.539 111.385H261.066L261.708 112.587C261.834 112.824 261.945 113.051 262.042 113.262C262.138 113.054 262.257 112.821 262.413 112.557L263.047 111.385H263.548L262.242 113.681V115.37H261.797Z" strokeWidth="0.371029" strokeMiterlimit="10" opacity="0.7" fill="currentColor" fillRule="evenodd" clipRule="evenodd" x="694.927" y="56.8467" width="32" height="22" rx="1.55" transform="translate(675.172 5)" strokeOpacity="0.7"/><path stroke="currentColor" d="M261.797 115.37V113.681L260.539 111.385H261.066L261.708 112.587C261.834 112.824 261.945 113.051 262.042 113.262C262.138 113.054 262.257 112.821 262.413 112.557L263.047 111.385H263.548L262.242 113.681V115.37H261.797Z" strokeWidth="0.371029" strokeMiterlimit="10" opacity="0.7" fill="currentColor" fillRule="evenodd" clipRule="evenodd" x="694.927" y="56.8467" width="32" height="22" rx="1.55" transform="translate(675.172 5)" strokeOpacity="0.7"/><path stroke="currentColor" d="M261.797 115.37V113.681L260.539 111.385H261.066L261.708 112.587C261.834 112.824 261.945 113.051 262.042 113.262C262.138 113.054 262.257 112.821 262.413 112.557L263.047 111.385H263.548L262.242 113.681V115.37H261.797Z" strokeWidth="0.371029" strokeMiterlimit="10" opacity="0.7" fill="currentColor" fillRule="evenodd" clipRule="evenodd" x="694.927" y="56.8467" width="32" height="22" rx="1.55" transform="translate(675.172 5)" strokeOpacity="0.7"/><path stroke="currentColor" d="M335.749 80.5011C335.716 79.8447 335.425 79.2279 334.94 78.785C334.454 78.3422 333.813 78.1093 333.156 78.1372H328.208C327.911 78.1234 327.615 78.1682 327.335 78.2691C327.056 78.37 326.799 78.5249 326.58 78.725C326.36 78.9252 326.182 79.1666 326.056 79.4355C325.93 79.7044 325.858 79.9956 325.844 80.2923V86.3361C325.843 86.5098 325.88 86.6817 325.951 86.8401C326.023 86.9984 326.127 87.1396 326.258 87.2541L329.776 90.4809C330.052 90.7246 330.408 90.8591 330.777 90.8591C331.145 90.8591 331.501 90.7246 331.777 90.4809L335.296 87.2541C335.422 87.1367 335.521 86.9945 335.589 86.8365C335.657 86.6785 335.691 86.5081 335.69 86.3361V86.3361L335.749 80.5011Z" strokeWidth="0.787979" strokeMiterlimit="10"/><path stroke="currentColor" d="M261.797 115.37V113.681L260.539 111.385H261.066L261.708 112.587C261.834 112.824 261.945 113.051 262.042 113.262C262.138 113.054 262.257 112.821 262.413 112.557L263.047 111.385H263.548L262.242 113.681V115.37H261.797Z" strokeWidth="0.371029" strokeMiterlimit="10" opacity="0.7" fill="currentColor" fillRule="evenodd" clipRule="evenodd" x="694.927" y="56.8467" width="32" height="22" rx="1.55" transform="translate(675.172 5)" strokeOpacity="0.7"/><path stroke="currentColor" d="M261.797 115.37V113.681L260.539 111.385H261.066L261.708 112.587C261.834 112.824 261.945 113.051 262.042 113.262C262.138 113.054 262.257 112.821 262.413 112.557L263.047 111.385H263.548L262.242 113.681V115.37H261.797Z" strokeWidth="0.371029" strokeMiterlimit="10" opacity="0.7" fill="currentColor" fillRule="evenodd" clipRule="evenodd" x="694.927" y="56.8467" width="32" height="22" rx="1.55" transform="translate(675.172 5)" strokeOpacity="0.7"/><path stroke="currentColor" d="M261.797 115.37V113.681L260.539 111.385H261.066L261.708 112.587C261.834 112.824 261.945 113.051 262.042 113.262C262.138 113.054 262.257 112.821 262.413 112.557L263.047 111.385H263.548L262.242 113.681V115.37H261.797Z" strokeWidth="0.371029" strokeMiterlimit="10" opacity="0.7" fill="currentColor" fillRule="evenodd" clipRule="evenodd" x="694.927" y="56.8467" width="32" height="22" rx="1.55" transform="translate(675.172 5)" strokeOpacity="0.7"/><path stroke="currentColor" opacity="0.7" d="M261.797 115.37V113.681L260.539 111.385H261.066L261.708 112.587C261.834 112.824 261.945 113.051 262.042 113.262C262.138 113.054 262.257 112.821 262.413 112.557L263.047 111.385H263.548L262.242 113.681V115.37H261.797Z" strokeWidth="0.371029" strokeMiterlimit="10" fill="currentColor" fillRule="evenodd" clipRule="evenodd" x="694.927" y="56.8467" width="32" height="22" rx="1.55" transform="translate(675.172 5)" strokeOpacity="0.7"/><path stroke="currentColor" d="M261.797 115.37V113.681L260.539 111.385H261.066L261.708 112.587C261.834 112.824 261.945 113.051 262.042 113.262C262.138 113.054 262.257 112.821 262.413 112.557L263.047 111.385H263.548L262.242 113.681V115.37H261.797Z" strokeWidth="0.371029" strokeMiterlimit="10" fill="currentColor" opacity="0.7" fillRule="evenodd" clipRule="evenodd" x="694.927" y="56.8467" width="32" height="22" rx="1.55" transform="translate(675.172 5)" strokeOpacity="0.7"/><path stroke="currentColor" d="M261.797 115.37V113.681L260.539 111.385H261.066L261.708 112.587C261.834 112.824 261.945 113.051 262.042 113.262C262.138 113.054 262.257 112.821 262.413 112.557L263.047 111.385H263.548L262.242 113.681V115.37H261.797Z" strokeWidth="0.371029" strokeMiterlimit="10" fill="currentColor" opacity="0.7" fillRule="evenodd" clipRule="evenodd" x="694.927" y="56.8467" width="32" height="22" rx="1.55" transform="translate(675.172 5)" strokeOpacity="0.7"/><path stroke="currentColor" d="M261.797 115.37V113.681L260.539 111.385H261.066L261.708 112.587C261.834 112.824 261.945 113.051 262.042 113.262C262.138 113.054 262.257 112.821 262.413 112.557L263.047 111.385H263.548L262.242 113.681V115.37H261.797Z" strokeWidth="0.371029" strokeMiterlimit="10" fill="currentColor" opacity="0.7" fillRule="evenodd" clipRule="evenodd" x="694.927" y="56.8467" width="32" height="22" rx="1.55" transform="translate(675.172 5)" strokeOpacity="0.7"/><path stroke="currentColor" d="M261.797 115.37V113.681L260.539 111.385H261.066L261.708 112.587C261.834 112.824 261.945 113.051 262.042 113.262C262.138 113.054 262.257 112.821 262.413 112.557L263.047 111.385H263.548L262.242 113.681V115.37H261.797Z" strokeWidth="0.371029" strokeMiterlimit="10" fill="currentColor" opacity="0.7" fillRule="evenodd" clipRule="evenodd" x="694.927" y="56.8467" width="32" height="22" rx="1.55" transform="translate(675.172 5)" strokeOpacity="0.7"/><path stroke="currentColor" d="M261.797 115.37V113.681L260.539 111.385H261.066L261.708 112.587C261.834 112.824 261.945 113.051 262.042 113.262C262.138 113.054 262.257 112.821 262.413 112.557L263.047 111.385H263.548L262.242 113.681V115.37H261.797Z" strokeWidth="0.371029" strokeMiterlimit="10" fill="currentColor" opacity="0.7" fillRule="evenodd" clipRule="evenodd" x="694.927" y="56.8467" width="32" height="22" rx="1.55" transform="translate(675.172 5)" strokeOpacity="0.7"/><path stroke="currentColor" d="M261.797 115.37V113.681L260.539 111.385H261.066L261.708 112.587C261.834 112.824 261.945 113.051 262.042 113.262C262.138 113.054 262.257 112.821 262.413 112.557L263.047 111.385H263.548L262.242 113.681V115.37H261.797Z" strokeWidth="0.371029" strokeMiterlimit="10" fill="currentColor" opacity="0.7" fillRule="evenodd" clipRule="evenodd" x="694.927" y="56.8467" width="32" height="22" rx="1.55" transform="translate(675.172 5)" strokeOpacity="0.7"/><path stroke="currentColor" d="M261.797 115.37V113.681L260.539 111.385H261.066L261.708 112.587C261.834 112.824 261.945 113.051 262.042 113.262C262.138 113.054 262.257 112.821 262.413 112.557L263.047 111.385H263.548L262.242 113.681V115.37H261.797Z" strokeWidth="0.371029" strokeMiterlimit="10" fill="currentColor" opacity="0.7" fillRule="evenodd" clipRule="evenodd" x="694.927" y="56.8467" width="32" height="22" rx="1.55" transform="translate(675.172 5)" strokeOpacity="0.7"/><path fill="currentColor" d="M261.797 115.37V113.681L260.539 111.385H261.066L261.708 112.587C261.834 112.824 261.945 113.051 262.042 113.262C262.138 113.054 262.257 112.821 262.413 112.557L263.047 111.385H263.548L262.242 113.681V115.37H261.797Z" stroke="currentColor" opacity="0.7" strokeWidth="0.371029" strokeMiterlimit="10" fillRule="evenodd" clipRule="evenodd" x="694.927" y="56.8467" width="32" height="22" rx="1.55" transform="translate(675.172 5)" strokeOpacity="0.7"/><path stroke="currentColor" opacity="0.7" d="M261.797 115.37V113.681L260.539 111.385H261.066L261.708 112.587C261.834 112.824 261.945 113.051 262.042 113.262C262.138 113.054 262.257 112.821 262.413 112.557L263.047 111.385H263.548L262.242 113.681V115.37H261.797Z" strokeWidth="0.371029" strokeMiterlimit="10" fill="currentColor" fillRule="evenodd" clipRule="evenodd" x="694.927" y="56.8467" width="32" height="22" rx="1.55" transform="translate(675.172 5)" strokeOpacity="0.7"/><path stroke="currentColor" opacity="0.7" d="M261.797 115.37V113.681L260.539 111.385H261.066L261.708 112.587C261.834 112.824 261.945 113.051 262.042 113.262C262.138 113.054 262.257 112.821 262.413 112.557L263.047 111.385H263.548L262.242 113.681V115.37H261.797Z" strokeWidth="0.371029" strokeMiterlimit="10" fill="currentColor" fillRule="evenodd" clipRule="evenodd" x="694.927" y="56.8467" width="32" height="22" rx="1.55" transform="translate(675.172 5)" strokeOpacity="0.7"/><path stroke="currentColor" opacity="0.7" d="M261.797 115.37V113.681L260.539 111.385H261.066L261.708 112.587C261.834 112.824 261.945 113.051 262.042 113.262C262.138 113.054 262.257 112.821 262.413 112.557L263.047 111.385H263.548L262.242 113.681V115.37H261.797Z" strokeWidth="0.371029" strokeMiterlimit="10" fill="currentColor" fillRule="evenodd" clipRule="evenodd" x="694.927" y="56.8467" width="32" height="22" rx="1.55" transform="translate(675.172 5)" strokeOpacity="0.7"/><path stroke="currentColor" opacity="0.7" d="M261.797 115.37V113.681L260.539 111.385H261.066L261.708 112.587C261.834 112.824 261.945 113.051 262.042 113.262C262.138 113.054 262.257 112.821 262.413 112.557L263.047 111.385H263.548L262.242 113.681V115.37H261.797Z" strokeWidth="0.371029" strokeMiterlimit="10" fill="currentColor" fillRule="evenodd" clipRule="evenodd" x="694.927" y="56.8467" width="32" height="22" rx="1.55" transform="translate(675.172 5)" strokeOpacity="0.7"/><path stroke="currentColor" d="M261.797 115.37V113.681L260.539 111.385H261.066L261.708 112.587C261.834 112.824 261.945 113.051 262.042 113.262C262.138 113.054 262.257 112.821 262.413 112.557L263.047 111.385H263.548L262.242 113.681V115.37H261.797Z" strokeWidth="0.371029" strokeMiterlimit="10" opacity="0.7" fill="currentColor" fillRule="evenodd" clipRule="evenodd" x="694.927" y="56.8467" width="32" height="22" rx="1.55" transform="translate(675.172 5)" strokeOpacity="0.7"/><path stroke="currentColor" d="M261.797 115.37V113.681L260.539 111.385H261.066L261.708 112.587C261.834 112.824 261.945 113.051 262.042 113.262C262.138 113.054 262.257 112.821 262.413 112.557L263.047 111.385H263.548L262.242 113.681V115.37H261.797Z" strokeWidth="0.371029" strokeMiterlimit="10" opacity="0.7" fill="currentColor" fillRule="evenodd" clipRule="evenodd" x="694.927" y="56.8467" width="32" height="22" rx="1.55" transform="translate(675.172 5)" strokeOpacity="0.7"/><path stroke="currentColor" d="M261.797 115.37V113.681L260.539 111.385H261.066L261.708 112.587C261.834 112.824 261.945 113.051 262.042 113.262C262.138 113.054 262.257 112.821 262.413 112.557L263.047 111.385H263.548L262.242 113.681V115.37H261.797Z" strokeWidth="0.371029" strokeMiterlimit="10" opacity="0.7" fill="currentColor" fillRule="evenodd" clipRule="evenodd" x="694.927" y="56.8467" width="32" height="22" rx="1.55" transform="translate(675.172 5)" strokeOpacity="0.7"/><path stroke="currentColor" opacity="0.7" d="M261.797 115.37V113.681L260.539 111.385H261.066L261.708 112.587C261.834 112.824 261.945 113.051 262.042 113.262C262.138 113.054 262.257 112.821 262.413 112.557L263.047 111.385H263.548L262.242 113.681V115.37H261.797Z" strokeWidth="0.371029" strokeMiterlimit="10" fill="currentColor" fillRule="evenodd" clipRule="evenodd" x="694.927" y="56.8467" width="32" height="22" rx="1.55" transform="translate(675.172 5)" strokeOpacity="0.7"/><path stroke="currentColor" d="M415.993 130.345C422.146 130.345 427.135 125.356 427.135 119.203C427.135 113.049 422.146 108.061 415.993 108.061C409.839 108.061 404.851 113.049 404.851 119.203C404.851 125.356 409.839 130.345 415.993 130.345Z" strokeWidth="0.787979" strokeMiterlimit="10" opacity="0.7"/><path stroke="currentColor" opacity="0.7" d="M261.797 115.37V113.681L260.539 111.385H261.066L261.708 112.587C261.834 112.824 261.945 113.051 262.042 113.262C262.138 113.054 262.257 112.821 262.413 112.557L263.047 111.385H263.548L262.242 113.681V115.37H261.797Z" strokeWidth="0.371029" strokeMiterlimit="10" fill="currentColor" fillRule="evenodd" clipRule="evenodd" x="694.927" y="56.8467" width="32" height="22" rx="1.55" transform="translate(675.172 5)" strokeOpacity="0.7"/><path fill="currentColor" fillRule="evenodd" clipRule="evenodd" d="M261.797 115.37V113.681L260.539 111.385H261.066L261.708 112.587C261.834 112.824 261.945 113.051 262.042 113.262C262.138 113.054 262.257 112.821 262.413 112.557L263.047 111.385H263.548L262.242 113.681V115.37H261.797Z" stroke="currentColor" x="694.927" y="56.8467" width="32" height="22" rx="1.55" transform="translate(675.172 5)" strokeWidth="0.371029" strokeMiterlimit="10" opacity="0.7" strokeOpacity="0.7"/><g fill="currentColor" fillRule="evenodd" clipRule="evenodd" d="M261.797 115.37V113.681L260.539 111.385H261.066L261.708 112.587C261.834 112.824 261.945 113.051 262.042 113.262C262.138 113.054 262.257 112.821 262.413 112.557L263.047 111.385H263.548L262.242 113.681V115.37H261.797Z" stroke="currentColor" x="694.927" y="56.8467" width="32" height="22" rx="1.55" transform="translate(675.172 5)" strokeWidth="0.371029" strokeMiterlimit="10" opacity="0.7" strokeOpacity="0.7"/><g fill="currentColor" fillRule="evenodd" clipRule="evenodd" d="M261.797 115.37V113.681L260.539 111.385H261.066L261.708 112.587C261.834 112.824 261.945 113.051 262.042 113.262C262.138 113.054 262.257 112.821 262.413 112.557L263.047 111.385H263.548L262.242 113.681V115.37H261.797Z" stroke="currentColor" x="694.927" y="56.8467" width="32" height="22" rx="1.55" transform="translate(675.172 5)" strokeWidth="0.371029" strokeMiterlimit="10" opacity="0.7" strokeOpacity="0.7"/><path fill="currentColor" fillRule="evenodd" clipRule="evenodd" d="M261.797 115.37V113.681L260.539 111.385H261.066L261.708 112.587C261.834 112.824 261.945 113.051 262.042 113.262C262.138 113.054 262.257 112.821 262.413 112.557L263.047 111.385H263.548L262.242 113.681V115.37H261.797Z" stroke="currentColor" x="694.927" y="56.8467" width="32" height="22" rx="1.55" transform="translate(675.172 5)" strokeWidth="0.371029" strokeMiterlimit="10" opacity="0.7" strokeOpacity="0.7"/><path fill="currentColor" fillRule="evenodd" clipRule="evenodd" d="M261.797 115.37V113.681L260.539 111.385H261.066L261.708 112.587C261.834 112.824 261.945 113.051 262.042 113.262C262.138 113.054 262.257 112.821 262.413 112.557L263.047 111.385H263.548L262.242 113.681V115.37H261.797Z" stroke="currentColor" x="694.927" y="56.8467" width="32" height="22" rx="1.55" transform="translate(675.172 5)" strokeWidth="0.371029" strokeMiterlimit="10" opacity="0.7" strokeOpacity="0.7"/><path fill="currentColor" fillRule="evenodd" clipRule="evenodd" d="M261.797 115.37V113.681L260.539 111.385H261.066L261.708 112.587C261.834 112.824 261.945 113.051 262.042 113.262C262.138 113.054 262.257 112.821 262.413 112.557L263.047 111.385H263.548L262.242 113.681V115.37H261.797Z" stroke="currentColor" x="694.927" y="56.8467" width="32" height="22" rx="1.55" transform="translate(675.172 5)" strokeWidth="0.371029" strokeMiterlimit="10" opacity="0.7" strokeOpacity="0.7"/><path fill="currentColor" fillRule="evenodd" clipRule="evenodd" d="M261.797 115.37V113.681L260.539 111.385H261.066L261.708 112.587C261.834 112.824 261.945 113.051 262.042 113.262C262.138 113.054 262.257 112.821 262.413 112.557L263.047 111.385H263.548L262.242 113.681V115.37H261.797Z" stroke="currentColor" x="694.927" y="56.8467" width="32" height="22" rx="1.55" transform="translate(675.172 5)" strokeWidth="0.371029" strokeMiterlimit="10" opacity="0.7" strokeOpacity="0.7"/><path fill="currentColor" d="M261.797 115.37V113.681L260.539 111.385H261.066L261.708 112.587C261.834 112.824 261.945 113.051 262.042 113.262C262.138 113.054 262.257 112.821 262.413 112.557L263.047 111.385H263.548L262.242 113.681V115.37H261.797Z" stroke="currentColor" x="694.927" y="56.8467" width="32" height="22" rx="1.55" transform="translate(675.172 5)" strokeWidth="0.371029" strokeMiterlimit="10" opacity="0.7" strokeOpacity="0.7"/><path fill="currentColor" d="M261.797 115.37V113.681L260.539 111.385H261.066L261.708 112.587C261.834 112.824 261.945 113.051 262.042 113.262C262.138 113.054 262.257 112.821 262.413 112.557L263.047 111.385H263.548L262.242 113.681V115.37H261.797Z" stroke="currentColor" x="694.927" y="56.8467" width="32" height="22" rx="1.55" transform="translate(675.172 5)" strokeWidth="0.371029" strokeMiterlimit="10" opacity="0.7" strokeOpacity="0.7"/><path fill="currentColor" d="M261.797 115.37V113.681L260.539 111.385H261.066L261.708 112.587C261.834 112.824 261.945 113.051 262.042 113.262C262.138 113.054 262.257 112.821 262.413 112.557L263.047 111.385H263.548L262.242 113.681V115.37H261.797Z" stroke="currentColor" x="694.927" y="56.8467" width="32" height="22" rx="1.55" transform="translate(675.172 5)" strokeWidth="0.371029" strokeMiterlimit="10" opacity="0.7" strokeOpacity="0.7"/><path fill="currentColor" d="M261.797 115.37V113.681L260.539 111.385H261.066L261.708 112.587C261.834 112.824 261.945 113.051 262.042 113.262C262.138 113.054 262.257 112.821 262.413 112.557L263.047 111.385H263.548L262.242 113.681V115.37H261.797Z" stroke="currentColor" x="694.927" y="56.8467" width="32" height="22" rx="1.55" transform="translate(675.172 5)" strokeWidth="0.371029" strokeMiterlimit="10" opacity="0.7" strokeOpacity="0.7"/><path fill="currentColor" d="M261.797 115.37V113.681L260.539 111.385H261.066L261.708 112.587C261.834 112.824 261.945 113.051 262.042 113.262C262.138 113.054 262.257 112.821 262.413 112.557L263.047 111.385H263.548L262.242 113.681V115.37H261.797Z" stroke="currentColor" x="694.927" y="56.8467" width="32" height="22" rx="1.55" transform="translate(675.172 5)" strokeWidth="0.371029" strokeMiterlimit="10" opacity="0.7" strokeOpacity="0.7"/><path fill="currentColor" d="M261.797 115.37V113.681L260.539 111.385H261.066L261.708 112.587C261.834 112.824 261.945 113.051 262.042 113.262C262.138 113.054 262.257 112.821 262.413 112.557L263.047 111.385H263.548L262.242 113.681V115.37H261.797Z" stroke="currentColor" x="694.927" y="56.8467" width="32" height="22" rx="1.55" transform="translate(675.172 5)" strokeWidth="0.371029" strokeMiterlimit="10" opacity="0.7" strokeOpacity="0.7"/><path fill="currentColor" d="M261.797 115.37V113.681L260.539 111.385H261.066L261.708 112.587C261.834 112.824 261.945 113.051 262.042 113.262C262.138 113.054 262.257 112.821 262.413 112.557L263.047 111.385H263.548L262.242 113.681V115.37H261.797Z" stroke="currentColor" x="694.927" y="56.8467" width="32" height="22" rx="1.55" transform="translate(675.172 5)" strokeWidth="0.371029" strokeMiterlimit="10" opacity="0.7" strokeOpacity="0.7"/><path fill="currentColor" d="M261.797 115.37V113.681L260.539 111.385H261.066L261.708 112.587C261.834 112.824 261.945 113.051 262.042 113.262C262.138 113.054 262.257 112.821 262.413 112.557L263.047 111.385H263.548L262.242 113.681V115.37H261.797Z" stroke="currentColor" x="694.927" y="56.8467" width="32" height="22" rx="1.55" transform="translate(675.172 5)" strokeWidth="0.371029" strokeMiterlimit="10" opacity="0.7" strokeOpacity="0.7"/><rect stroke="currentColor" x="694.927" y="56.8467" width="32" height="22" rx="1.55" transform="translate(675.172 5)" fill="currentColor" d="M261.797 115.37V113.681L260.539 111.385H261.066L261.708 112.587C261.834 112.824 261.945 113.051 262.042 113.262C262.138 113.054 262.257 112.821 262.413 112.557L263.047 111.385H263.548L262.242 113.681V115.37H261.797Z" strokeWidth="0.371029" strokeMiterlimit="10" opacity="0.7" strokeOpacity="0.7"/><path fill="currentColor" d="M261.797 115.37V113.681L260.539 111.385H261.066L261.708 112.587C261.834 112.824 261.945 113.051 262.042 113.262C262.138 113.054 262.257 112.821 262.413 112.557L263.047 111.385H263.548L262.242 113.681V115.37H261.797Z" stroke="currentColor" strokeWidth="0.371029" strokeMiterlimit="10" opacity="0.7" strokeOpacity="0.7" width="32" height="22" transform="translate(675.172 5)"/><path fill="currentColor" d="M261.797 115.37V113.681L260.539 111.385H261.066L261.708 112.587C261.834 112.824 261.945 113.051 262.042 113.262C262.138 113.054 262.257 112.821 262.413 112.557L263.047 111.385H263.548L262.242 113.681V115.37H261.797Z" stroke="currentColor" strokeWidth="0.371029" strokeMiterlimit="10" opacity="0.7" strokeOpacity="0.7" width="32" height="22" transform="translate(675.172 5)"/><path stroke="currentColor" d="M261.797 115.37V113.681L260.539 111.385H261.066L261.708 112.587C261.834 112.824 261.945 113.051 262.042 113.262C262.138 113.054 262.257 112.821 262.413 112.557L263.047 111.385H263.548L262.242 113.681V115.37H261.797Z" strokeWidth="0.371029" strokeMiterlimit="10" opacity="0.7" fill="currentColor" strokeOpacity="0.7" width="32" height="22" transform="translate(675.172 5)"/><path stroke="currentColor" d="M261.797 115.37V113.681L260.539 111.385H261.066L261.708 112.587C261.834 112.824 261.945 113.051 262.042 113.262C262.138 113.054 262.257 112.821 262.413 112.557L263.047 111.385H263.548L262.242 113.681V115.37H261.797Z" strokeWidth="0.371029" strokeMiterlimit="10" opacity="0.7" fill="currentColor" strokeOpacity="0.7" width="32" height="22" transform="translate(675.172 5)"/><path stroke="currentColor" opacity="0.7" d="M261.797 115.37V113.681L260.539 111.385H261.066L261.708 112.587C261.834 112.824 261.945 113.051 262.042 113.262C262.138 113.054 262.257 112.821 262.413 112.557L263.047 111.385H263.548L262.242 113.681V115.37H261.797Z" strokeWidth="0.371029" strokeMiterlimit="10" fill="currentColor" strokeOpacity="0.7" width="32" height="22" transform="translate(675.172 5)"/><path stroke="currentColor" d="M261.797 115.37V113.681L260.539 111.385H261.066L261.708 112.587C261.834 112.824 261.945 113.051 262.042 113.262C262.138 113.054 262.257 112.821 262.413 112.557L263.047 111.385H263.548L262.242 113.681V115.37H261.797Z" strokeWidth="0.371029" strokeMiterlimit="10" opacity="0.7" fill="currentColor" strokeOpacity="0.7" width="32" height="22" transform="translate(675.172 5)"/><path stroke="currentColor" d="M261.797 115.37V113.681L260.539 111.385H261.066L261.708 112.587C261.834 112.824 261.945 113.051 262.042 113.262C262.138 113.054 262.257 112.821 262.413 112.557L263.047 111.385H263.548L262.242 113.681V115.37H261.797Z" strokeWidth="0.371029" strokeMiterlimit="10" opacity="0.7" fill="currentColor" strokeOpacity="0.7" width="32" height="22" transform="translate(675.172 5)"/><path stroke="currentColor" opacity="0.7" d="M261.797 115.37V113.681L260.539 111.385H261.066L261.708 112.587C261.834 112.824 261.945 113.051 262.042 113.262C262.138 113.054 262.257 112.821 262.413 112.557L263.047 111.385H263.548L262.242 113.681V115.37H261.797Z" strokeWidth="0.371029" strokeMiterlimit="10" fill="currentColor" strokeOpacity="0.7" width="32" height="22" transform="translate(675.172 5)"/><path stroke="currentColor" d="M261.797 115.37V113.681L260.539 111.385H261.066L261.708 112.587C261.834 112.824 261.945 113.051 262.042 113.262C262.138 113.054 262.257 112.821 262.413 112.557L263.047 111.385H263.548L262.242 113.681V115.37H261.797Z" strokeWidth="0.371029" strokeMiterlimit="10" opacity="0.7" fill="currentColor" strokeOpacity="0.7" width="32" height="22" transform="translate(675.172 5)"/><path stroke="currentColor" d="M261.797 115.37V113.681L260.539 111.385H261.066L261.708 112.587C261.834 112.824 261.945 113.051 262.042 113.262C262.138 113.054 262.257 112.821 262.413 112.557L263.047 111.385H263.548L262.242 113.681V115.37H261.797Z" strokeWidth="0.371029" strokeMiterlimit="10" opacity="0.7" fill="currentColor" strokeOpacity="0.7" width="32" height="22" transform="translate(675.172 5)"/><path stroke="currentColor" opacity="0.7" d="M261.797 115.37V113.681L260.539 111.385H261.066L261.708 112.587C261.834 112.824 261.945 113.051 262.042 113.262C262.138 113.054 262.257 112.821 262.413 112.557L263.047 111.385H263.548L262.242 113.681V115.37H261.797Z" strokeWidth="0.371029" strokeMiterlimit="10" fill="currentColor" strokeOpacity="0.7" width="32" height="22" transform="translate(675.172 5)"/><path stroke="currentColor" d="M261.797 115.37V113.681L260.539 111.385H261.066L261.708 112.587C261.834 112.824 261.945 113.051 262.042 113.262C262.138 113.054 262.257 112.821 262.413 112.557L263.047 111.385H263.548L262.242 113.681V115.37H261.797Z" strokeWidth="0.371029" strokeMiterlimit="10" fill="currentColor" opacity="0.7" strokeOpacity="0.7" width="32" height="22" transform="translate(675.172 5)"/><path stroke="currentColor" d="M261.797 115.37V113.681L260.539 111.385H261.066L261.708 112.587C261.834 112.824 261.945 113.051 262.042 113.262C262.138 113.054 262.257 112.821 262.413 112.557L263.047 111.385H263.548L262.242 113.681V115.37H261.797Z" strokeMiterlimit="10" strokeWidth="0.371029" fill="currentColor" opacity="0.7" strokeOpacity="0.7" width="32" height="22" transform="translate(675.172 5)"/><path stroke="currentColor" d="M261.797 115.37V113.681L260.539 111.385H261.066L261.708 112.587C261.834 112.824 261.945 113.051 262.042 113.262C262.138 113.054 262.257 112.821 262.413 112.557L263.047 111.385H263.548L262.242 113.681V115.37H261.797Z" strokeWidth="0.371029" strokeMiterlimit="10" fill="currentColor" opacity="0.7" strokeOpacity="0.7" width="32" height="22" transform="translate(675.172 5)"/><path stroke="currentColor" d="M261.797 115.37V113.681L260.539 111.385H261.066L261.708 112.587C261.834 112.824 261.945 113.051 262.042 113.262C262.138 113.054 262.257 112.821 262.413 112.557L263.047 111.385H263.548L262.242 113.681V115.37H261.797Z" strokeWidth="0.371029" strokeMiterlimit="10" fill="currentColor" opacity="0.7" strokeOpacity="0.7" width="32" height="22" transform="translate(675.172 5)"/><path fill="currentColor" d="M261.797 115.37V113.681L260.539 111.385H261.066L261.708 112.587C261.834 112.824 261.945 113.051 262.042 113.262C262.138 113.054 262.257 112.821 262.413 112.557L263.047 111.385H263.548L262.242 113.681V115.37H261.797Z" stroke="currentColor" strokeWidth="0.371029" strokeMiterlimit="10" opacity="0.7" strokeOpacity="0.7" width="32" height="22" transform="translate(675.172 5)"/><path fill="currentColor" d="M261.797 115.37V113.681L260.539 111.385H261.066L261.708 112.587C261.834 112.824 261.945 113.051 262.042 113.262C262.138 113.054 262.257 112.821 262.413 112.557L263.047 111.385H263.548L262.242 113.681V115.37H261.797Z" stroke="currentColor" strokeWidth="0.371029" strokeMiterlimit="10" opacity="0.7" strokeOpacity="0.7" width="32" height="22" transform="translate(675.172 5)"/><path fill="currentColor" d="M261.797 115.37V113.681L260.539 111.385H261.066L261.708 112.587C261.834 112.824 261.945 113.051 262.042 113.262C262.138 113.054 262.257 112.821 262.413 112.557L263.047 111.385H263.548L262.242 113.681V115.37H261.797Z" stroke="currentColor" strokeWidth="0.371029" strokeMiterlimit="10" opacity="0.7" strokeOpacity="0.7" width="32" height="22" transform="translate(675.172 5)"/><path fill="currentColor" d="M261.797 115.37V113.681L260.539 111.385H261.066L261.708 112.587C261.834 112.824 261.945 113.051 262.042 113.262C262.138 113.054 262.257 112.821 262.413 112.557L263.047 111.385H263.548L262.242 113.681V115.37H261.797Z" stroke="currentColor" strokeWidth="0.371029" strokeMiterlimit="10" opacity="0.7" strokeOpacity="0.7" width="32" height="22" transform="translate(675.172 5)"/><path stroke="currentColor" d="M261.797 115.37V113.681L260.539 111.385H261.066L261.708 112.587C261.834 112.824 261.945 113.051 262.042 113.262C262.138 113.054 262.257 112.821 262.413 112.557L263.047 111.385H263.548L262.242 113.681V115.37H261.797Z" strokeWidth="0.371029" strokeMiterlimit="10" opacity="0.7" strokeOpacity="0.7" fill="currentColor" width="32" height="22" transform="translate(675.172 5)"/><path stroke="currentColor" d="M261.797 115.37V113.681L260.539 111.385H261.066L261.708 112.587C261.834 112.824 261.945 113.051 262.042 113.262C262.138 113.054 262.257 112.821 262.413 112.557L263.047 111.385H263.548L262.242 113.681V115.37H261.797Z" strokeWidth="0.371029" strokeMiterlimit="10" opacity="0.7" strokeOpacity="0.7" fill="currentColor" width="32" height="22" transform="translate(675.172 5)"/><path stroke="currentColor" d="M261.797 115.37V113.681L260.539 111.385H261.066L261.708 112.587C261.834 112.824 261.945 113.051 262.042 113.262C262.138 113.054 262.257 112.821 262.413 112.557L263.047 111.385H263.548L262.242 113.681V115.37H261.797Z" strokeWidth="0.371029" strokeMiterlimit="10" opacity="0.7" strokeOpacity="0.7" fill="currentColor" width="32" height="22" transform="translate(675.172 5)"/><path stroke="currentColor" d="M261.797 115.37V113.681L260.539 111.385H261.066L261.708 112.587C261.834 112.824 261.945 113.051 262.042 113.262C262.138 113.054 262.257 112.821 262.413 112.557L263.047 111.385H263.548L262.242 113.681V115.37H261.797Z" strokeWidth="0.371029" strokeMiterlimit="10" opacity="0.7" strokeOpacity="0.7" fill="currentColor" width="32" height="22" transform="translate(675.172 5)"/><path stroke="currentColor" opacity="0.7" d="M261.797 115.37V113.681L260.539 111.385H261.066L261.708 112.587C261.834 112.824 261.945 113.051 262.042 113.262C262.138 113.054 262.257 112.821 262.413 112.557L263.047 111.385H263.548L262.242 113.681V115.37H261.797Z" strokeWidth="0.371029" strokeMiterlimit="10" strokeOpacity="0.7" fill="currentColor" width="32" height="22" transform="translate(675.172 5)"/><path stroke="currentColor" d="M261.797 115.37V113.681L260.539 111.385H261.066L261.708 112.587C261.834 112.824 261.945 113.051 262.042 113.262C262.138 113.054 262.257 112.821 262.413 112.557L263.047 111.385H263.548L262.242 113.681V115.37H261.797Z" strokeWidth="0.371029" strokeMiterlimit="10" strokeOpacity="0.7" opacity="0.7" fill="currentColor" width="32" height="22" transform="translate(675.172 5)"/><path stroke="currentColor" d="M261.797 115.37V113.681L260.539 111.385H261.066L261.708 112.587C261.834 112.824 261.945 113.051 262.042 113.262C262.138 113.054 262.257 112.821 262.413 112.557L263.047 111.385H263.548L262.242 113.681V115.37H261.797Z" strokeWidth="0.371029" strokeMiterlimit="10" strokeOpacity="0.7" opacity="0.7" fill="currentColor" width="32" height="22" transform="translate(675.172 5)"/><path stroke="currentColor" d="M261.797 115.37V113.681L260.539 111.385H261.066L261.708 112.587C261.834 112.824 261.945 113.051 262.042 113.262C262.138 113.054 262.257 112.821 262.413 112.557L263.047 111.385H263.548L262.242 113.681V115.37H261.797Z" strokeOpacity="0.7" strokeWidth="0.371029" strokeMiterlimit="10" opacity="0.7" fill="currentColor" width="32" height="22" transform="translate(675.172 5)"/><path stroke="currentColor" d="M261.797 115.37V113.681L260.539 111.385H261.066L261.708 112.587C261.834 112.824 261.945 113.051 262.042 113.262C262.138 113.054 262.257 112.821 262.413 112.557L263.047 111.385H263.548L262.242 113.681V115.37H261.797Z" strokeWidth="0.371029" strokeMiterlimit="10" opacity="0.7" fill="currentColor" width="32" height="22" transform="translate(675.172 5)"/><path stroke="currentColor" d="M261.797 115.37V113.681L260.539 111.385H261.066L261.708 112.587C261.834 112.824 261.945 113.051 262.042 113.262C262.138 113.054 262.257 112.821 262.413 112.557L263.047 111.385H263.548L262.242 113.681V115.37H261.797Z" strokeWidth="0.371029" strokeMiterlimit="10" opacity="0.7" fill="currentColor" width="32" height="22" transform="translate(675.172 5)"/><path stroke="currentColor" d="M261.797 115.37V113.681L260.539 111.385H261.066L261.708 112.587C261.834 112.824 261.945 113.051 262.042 113.262C262.138 113.054 262.257 112.821 262.413 112.557L263.047 111.385H263.548L262.242 113.681V115.37H261.797Z" strokeWidth="0.371029" strokeMiterlimit="10" opacity="0.7" fill="currentColor" width="32" height="22" transform="translate(675.172 5)"/><path stroke="currentColor" d="M261.797 115.37V113.681L260.539 111.385H261.066L261.708 112.587C261.834 112.824 261.945 113.051 262.042 113.262C262.138 113.054 262.257 112.821 262.413 112.557L263.047 111.385H263.548L262.242 113.681V115.37H261.797Z" strokeWidth="0.371029" strokeMiterlimit="10" opacity="0.7" fill="currentColor" width="32" height="22" transform="translate(675.172 5)"/><path stroke="currentColor" d="M261.797 115.37V113.681L260.539 111.385H261.066L261.708 112.587C261.834 112.824 261.945 113.051 262.042 113.262C262.138 113.054 262.257 112.821 262.413 112.557L263.047 111.385H263.548L262.242 113.681V115.37H261.797Z" strokeWidth="0.371029" strokeMiterlimit="10" opacity="0.7" fill="currentColor" width="32" height="22" transform="translate(675.172 5)"/><path stroke="currentColor" d="M261.797 115.37V113.681L260.539 111.385H261.066L261.708 112.587C261.834 112.824 261.945 113.051 262.042 113.262C262.138 113.054 262.257 112.821 262.413 112.557L263.047 111.385H263.548L262.242 113.681V115.37H261.797Z" strokeWidth="0.371029" strokeMiterlimit="10" opacity="0.7" fill="currentColor" width="32" height="22" transform="translate(675.172 5)"/><path stroke="currentColor" opacity="0.7" d="M261.797 115.37V113.681L260.539 111.385H261.066L261.708 112.587C261.834 112.824 261.945 113.051 262.042 113.262C262.138 113.054 262.257 112.821 262.413 112.557L263.047 111.385H263.548L262.242 113.681V115.37H261.797Z" strokeWidth="0.371029" strokeMiterlimit="10" fill="currentColor" width="32" height="22" transform="translate(675.172 5)"/><path stroke="currentColor" d="M261.797 115.37V113.681L260.539 111.385H261.066L261.708 112.587C261.834 112.824 261.945 113.051 262.042 113.262C262.138 113.054 262.257 112.821 262.413 112.557L263.047 111.385H263.548L262.242 113.681V115.37H261.797Z" strokeWidth="0.371029" strokeMiterlimit="10" opacity="0.7" fill="currentColor" width="32" height="22" transform="translate(675.172 5)"/><path stroke="currentColor" d="M261.797 115.37V113.681L260.539 111.385H261.066L261.708 112.587C261.834 112.824 261.945 113.051 262.042 113.262C262.138 113.054 262.257 112.821 262.413 112.557L263.047 111.385H263.548L262.242 113.681V115.37H261.797Z" strokeWidth="0.371029" strokeMiterlimit="10" opacity="0.7" fill="currentColor" width="32" height="22" transform="translate(675.172 5)"/><path stroke="currentColor" opacity="0.7" d="M261.797 115.37V113.681L260.539 111.385H261.066L261.708 112.587C261.834 112.824 261.945 113.051 262.042 113.262C262.138 113.054 262.257 112.821 262.413 112.557L263.047 111.385H263.548L262.242 113.681V115.37H261.797Z" strokeWidth="0.371029" strokeMiterlimit="10" fill="currentColor" width="32" height="22" transform="translate(675.172 5)"/><path stroke="currentColor" d="M261.797 115.37V113.681L260.539 111.385H261.066L261.708 112.587C261.834 112.824 261.945 113.051 262.042 113.262C262.138 113.054 262.257 112.821 262.413 112.557L263.047 111.385H263.548L262.242 113.681V115.37H261.797Z" strokeWidth="0.371029" strokeMiterlimit="10" opacity="0.7" fill="currentColor" width="32" height="22" transform="translate(675.172 5)"/><path stroke="currentColor" d="M261.797 115.37V113.681L260.539 111.385H261.066L261.708 112.587C261.834 112.824 261.945 113.051 262.042 113.262C262.138 113.054 262.257 112.821 262.413 112.557L263.047 111.385H263.548L262.242 113.681V115.37H261.797Z" strokeWidth="0.371029" strokeMiterlimit="10" opacity="0.7" fill="currentColor" width="32" height="22" transform="translate(675.172 5)"/><path stroke="currentColor" opacity="0.7" d="M261.797 115.37V113.681L260.539 111.385H261.066L261.708 112.587C261.834 112.824 261.945 113.051 262.042 113.262C262.138 113.054 262.257 112.821 262.413 112.557L263.047 111.385H263.548L262.242 113.681V115.37H261.797Z" strokeWidth="0.371029" strokeMiterlimit="10" fill="currentColor" width="32" height="22" transform="translate(675.172 5)"/><path stroke="currentColor" opacity="0.7" d="M261.797 115.37V113.681L260.539 111.385H261.066L261.708 112.587C261.834 112.824 261.945 113.051 262.042 113.262C262.138 113.054 262.257 112.821 262.413 112.557L263.047 111.385H263.548L262.242 113.681V115.37H261.797Z" strokeWidth="0.371029" strokeMiterlimit="10" fill="currentColor" width="32" height="22" transform="translate(675.172 5)"/><path stroke="currentColor" d="M261.797 115.37V113.681L260.539 111.385H261.066L261.708 112.587C261.834 112.824 261.945 113.051 262.042 113.262C262.138 113.054 262.257 112.821 262.413 112.557L263.047 111.385H263.548L262.242 113.681V115.37H261.797Z" strokeWidth="0.371029" strokeMiterlimit="10" opacity="0.7" fill="currentColor" width="32" height="22" transform="translate(675.172 5)"/><path stroke="currentColor" d="M261.797 115.37V113.681L260.539 111.385H261.066L261.708 112.587C261.834 112.824 261.945 113.051 262.042 113.262C262.138 113.054 262.257 112.821 262.413 112.557L263.047 111.385H263.548L262.242 113.681V115.37H261.797Z" strokeWidth="0.371029" strokeMiterlimit="10" opacity="0.7" fill="currentColor" width="32" height="22" transform="translate(675.172 5)"/><path stroke="currentColor" d="M261.797 115.37V113.681L260.539 111.385H261.066L261.708 112.587C261.834 112.824 261.945 113.051 262.042 113.262C262.138 113.054 262.257 112.821 262.413 112.557L263.047 111.385H263.548L262.242 113.681V115.37H261.797Z" strokeWidth="0.371029" strokeMiterlimit="10" opacity="0.7" fill="currentColor" width="32" height="22" transform="translate(675.172 5)"/><path stroke="currentColor" opacity="0.7" d="M261.797 115.37V113.681L260.539 111.385H261.066L261.708 112.587C261.834 112.824 261.945 113.051 262.042 113.262C262.138 113.054 262.257 112.821 262.413 112.557L263.047 111.385H263.548L262.242 113.681V115.37H261.797Z" strokeWidth="0.371029" strokeMiterlimit="10" fill="currentColor" width="32" height="22" transform="translate(675.172 5)"/><path fill="currentColor" d="M261.797 115.37V113.681L260.539 111.385H261.066L261.708 112.587C261.834 112.824 261.945 113.051 262.042 113.262C262.138 113.054 262.257 112.821 262.413 112.557L263.047 111.385H263.548L262.242 113.681V115.37H261.797Z" stroke="currentColor" opacity="0.7" strokeWidth="0.371029" strokeMiterlimit="10" width="32" height="22" transform="translate(675.172 5)"/><path fill="currentColor" d="M261.797 115.37V113.681L260.539 111.385H261.066L261.708 112.587C261.834 112.824 261.945 113.051 262.042 113.262C262.138 113.054 262.257 112.821 262.413 112.557L263.047 111.385H263.548L262.242 113.681V115.37H261.797Z" stroke="currentColor" opacity="0.7" strokeWidth="0.371029" strokeMiterlimit="10" width="32" height="22" transform="translate(675.172 5)"/><path fill="currentColor" d="M261.797 115.37V113.681L260.539 111.385H261.066L261.708 112.587C261.834 112.824 261.945 113.051 262.042 113.262C262.138 113.054 262.257 112.821 262.413 112.557L263.047 111.385H263.548L262.242 113.681V115.37H261.797Z" stroke="currentColor" opacity="0.7" strokeWidth="0.371029" strokeMiterlimit="10" width="32" height="22" transform="translate(675.172 5)"/><path fill="currentColor" d="M261.797 115.37V113.681L260.539 111.385H261.066L261.708 112.587C261.834 112.824 261.945 113.051 262.042 113.262C262.138 113.054 262.257 112.821 262.413 112.557L263.047 111.385H263.548L262.242 113.681V115.37H261.797Z" stroke="currentColor" opacity="0.7" strokeWidth="0.371029" strokeMiterlimit="10" width="32" height="22" transform="translate(675.172 5)"/><path fill="currentColor" d="M261.797 115.37V113.681L260.539 111.385H261.066L261.708 112.587C261.834 112.824 261.945 113.051 262.042 113.262C262.138 113.054 262.257 112.821 262.413 112.557L263.047 111.385H263.548L262.242 113.681V115.37H261.797Z" stroke="currentColor" opacity="0.7" strokeWidth="0.371029" strokeMiterlimit="10" width="32" height="22" transform="translate(675.172 5)"/><path fill="currentColor" d="M261.797 115.37V113.681L260.539 111.385H261.066L261.708 112.587C261.834 112.824 261.945 113.051 262.042 113.262C262.138 113.054 262.257 112.821 262.413 112.557L263.047 111.385H263.548L262.242 113.681V115.37H261.797Z" stroke="currentColor" opacity="0.7" strokeWidth="0.371029" strokeMiterlimit="10" width="32" height="22" transform="translate(675.172 5)"/><path fill="currentColor"/><path fill="currentColor" d="M261.797 115.37V113.681L260.539 111.385H261.066L261.708 112.587C261.834 112.824 261.945 113.051 262.042 113.262C262.138 113.054 262.257 112.821 262.413 112.557L263.047 111.385H263.548L262.242 113.681V115.37H261.797Z" stroke="currentColor" opacity="0.7" strokeWidth="0.371029" strokeMiterlimit="10" width="32" height="22" transform="translate(675.172 5)"/><path fill="currentColor" d="M261.797 115.37V113.681L260.539 111.385H261.066L261.708 112.587C261.834 112.824 261.945 113.051 262.042 113.262C262.138 113.054 262.257 112.821 262.413 112.557L263.047 111.385H263.548L262.242 113.681V115.37H261.797Z" stroke="currentColor" opacity="0.7" strokeWidth="0.371029" strokeMiterlimit="10" width="32" height="22" transform="translate(675.172 5)"/><path fill="currentColor" d="M261.797 115.37V113.681L260.539 111.385H261.066L261.708 112.587C261.834 112.824 261.945 113.051 262.042 113.262C262.138 113.054 262.257 112.821 262.413 112.557L263.047 111.385H263.548L262.242 113.681V115.37H261.797Z" stroke="currentColor" opacity="0.7" strokeWidth="0.371029" strokeMiterlimit="10" width="32" height="22" transform="translate(675.172 5)"/><path fill="currentColor" d="M261.797 115.37V113.681L260.539 111.385H261.066L261.708 112.587C261.834 112.824 261.945 113.051 262.042 113.262C262.138 113.054 262.257 112.821 262.413 112.557L263.047 111.385H263.548L262.242 113.681V115.37H261.797Z" stroke="currentColor" opacity="0.7" strokeWidth="0.371029" strokeMiterlimit="10" width="32" height="22" transform="translate(675.172 5)"/><path fill="currentColor" d="M261.797 115.37V113.681L260.539 111.385H261.066L261.708 112.587C261.834 112.824 261.945 113.051 262.042 113.262C262.138 113.054 262.257 112.821 262.413 112.557L263.047 111.385H263.548L262.242 113.681V115.37H261.797Z" stroke="currentColor" opacity="0.7" strokeWidth="0.371029" strokeMiterlimit="10" width="32" height="22" transform="translate(675.172 5)"/><path fill="currentColor" d="M261.797 115.37V113.681L260.539 111.385H261.066L261.708 112.587C261.834 112.824 261.945 113.051 262.042 113.262C262.138 113.054 262.257 112.821 262.413 112.557L263.047 111.385H263.548L262.242 113.681V115.37H261.797Z" stroke="currentColor" opacity="0.7" strokeWidth="0.371029" strokeMiterlimit="10" width="32" height="22" transform="translate(675.172 5)"/><path fill="currentColor" d="M261.797 115.37V113.681L260.539 111.385H261.066L261.708 112.587C261.834 112.824 261.945 113.051 262.042 113.262C262.138 113.054 262.257 112.821 262.413 112.557L263.047 111.385H263.548L262.242 113.681V115.37H261.797Z" stroke="currentColor" opacity="0.7" strokeWidth="0.371029" strokeMiterlimit="10" width="32" height="22" transform="translate(675.172 5)"/><path fill="currentColor" d="M261.797 115.37V113.681L260.539 111.385H261.066L261.708 112.587C261.834 112.824 261.945 113.051 262.042 113.262C262.138 113.054 262.257 112.821 262.413 112.557L263.047 111.385H263.548L262.242 113.681V115.37H261.797Z" stroke="currentColor" opacity="0.7" strokeWidth="0.371029" strokeMiterlimit="10" width="32" height="22" transform="translate(675.172 5)"/><path fill="currentColor" d="M261.797 115.37V113.681L260.539 111.385H261.066L261.708 112.587C261.834 112.824 261.945 113.051 262.042 113.262C262.138 113.054 262.257 112.821 262.413 112.557L263.047 111.385H263.548L262.242 113.681V115.37H261.797Z" stroke="currentColor" opacity="0.7" strokeWidth="0.371029" strokeMiterlimit="10" width="32" height="22" transform="translate(675.172 5)"/><path fill="currentColor" d="M261.797 115.37V113.681L260.539 111.385H261.066L261.708 112.587C261.834 112.824 261.945 113.051 262.042 113.262C262.138 113.054 262.257 112.821 262.413 112.557L263.047 111.385H263.548L262.242 113.681V115.37H261.797Z" stroke="currentColor" opacity="0.7" strokeWidth="0.371029" strokeMiterlimit="10" width="32" height="22" transform="translate(675.172 5)"/><path stroke="currentColor" opacity="0.7" d="M261.797 115.37V113.681L260.539 111.385H261.066L261.708 112.587C261.834 112.824 261.945 113.051 262.042 113.262C262.138 113.054 262.257 112.821 262.413 112.557L263.047 111.385H263.548L262.242 113.681V115.37H261.797Z" strokeWidth="0.371029" strokeMiterlimit="10" fill="currentColor" width="32" height="22" transform="translate(675.172 5)"/><path stroke="currentColor" d="M261.797 115.37V113.681L260.539 111.385H261.066L261.708 112.587C261.834 112.824 261.945 113.051 262.042 113.262C262.138 113.054 262.257 112.821 262.413 112.557L263.047 111.385H263.548L262.242 113.681V115.37H261.797Z" strokeWidth="0.371029" strokeMiterlimit="10" fill="currentColor" width="32" height="22" transform="translate(675.172 5)"/><path stroke="currentColor" d="M261.797 115.37V113.681L260.539 111.385H261.066L261.708 112.587C261.834 112.824 261.945 113.051 262.042 113.262C262.138 113.054 262.257 112.821 262.413 112.557L263.047 111.385H263.548L262.242 113.681V115.37H261.797Z" strokeWidth="0.371029" strokeMiterlimit="10" fill="currentColor" width="32" height="22" transform="translate(675.172 5)"/><path fill="currentColor" d="M261.797 115.37V113.681L260.539 111.385H261.066L261.708 112.587C261.834 112.824 261.945 113.051 262.042 113.262C262.138 113.054 262.257 112.821 262.413 112.557L263.047 111.385H263.548L262.242 113.681V115.37H261.797Z" stroke="currentColor" strokeWidth="0.371029" strokeMiterlimit="10" width="32" height="22" transform="translate(675.172 5)"/><path stroke="currentColor" d="M261.797 115.37V113.681L260.539 111.385H261.066L261.708 112.587C261.834 112.824 261.945 113.051 262.042 113.262C262.138 113.054 262.257 112.821 262.413 112.557L263.047 111.385H263.548L262.242 113.681V115.37H261.797Z" strokeWidth="0.371029" strokeMiterlimit="10" fill="currentColor" width="32" height="22" transform="translate(675.172 5)"/><path fill="currentColor" d="M261.797 115.37V113.681L260.539 111.385H261.066L261.708 112.587C261.834 112.824 261.945 113.051 262.042 113.262C262.138 113.054 262.257 112.821 262.413 112.557L263.047 111.385H263.548L262.242 113.681V115.37H261.797Z" width="32" height="22" transform="translate(675.172 5)"/><path fill="currentColor" d="M261.797 115.37V113.681L260.539 111.385H261.066L261.708 112.587C261.834 112.824 261.945 113.051 262.042 113.262C262.138 113.054 262.257 112.821 262.413 112.557L263.047 111.385H263.548L262.242 113.681V115.37H261.797Z" width="32" height="22" transform="translate(675.172 5)"/><path fill="currentColor" d="M261.797 115.37V113.681L260.539 111.385H261.066L261.708 112.587C261.834 112.824 261.945 113.051 262.042 113.262C262.138 113.054 262.257 112.821 262.413 112.557L263.047 111.385H263.548L262.242 113.681V115.37H261.797Z" width="32" height="22" transform="translate(675.172 5)"/><path fill="currentColor" d="M261.797 115.37V113.681L260.539 111.385H261.066L261.708 112.587C261.834 112.824 261.945 113.051 262.042 113.262C262.138 113.054 262.257 112.821 262.413 112.557L263.047 111.385H263.548L262.242 113.681V115.37H261.797Z" width="32" height="22" transform="translate(675.172 5)"/><path fill="currentColor" d="M261.797 115.37V113.681L260.539 111.385H261.066L261.708 112.587C261.834 112.824 261.945 113.051 262.042 113.262C262.138 113.054 262.257 112.821 262.413 112.557L263.047 111.385H263.548L262.242 113.681V115.37H261.797Z" width="32" height="22" transform="translate(675.172 5)"/><path fill="currentColor" d="M261.797 115.37V113.681L260.539 111.385H261.066L261.708 112.587C261.834 112.824 261.945 113.051 262.042 113.262C262.138 113.054 262.257 112.821 262.413 112.557L263.047 111.385H263.548L262.242 113.681V115.37H261.797Z" width="32" height="22" transform="translate(675.172 5)"/><path fill="currentColor" d="M261.797 115.37V113.681L260.539 111.385H261.066L261.708 112.587C261.834 112.824 261.945 113.051 262.042 113.262C262.138 113.054 262.257 112.821 262.413 112.557L263.047 111.385H263.548L262.242 113.681V115.37H261.797Z" width="32" height="22" transform="translate(675.172 5)"/><path fill="currentColor" d="M261.797 115.37V113.681L260.539 111.385H261.066L261.708 112.587C261.834 112.824 261.945 113.051 262.042 113.262C262.138 113.054 262.257 112.821 262.413 112.557L263.047 111.385H263.548L262.242 113.681V115.37H261.797Z" width="32" height="22" transform="translate(675.172 5)"/><path fill="currentColor" d="M273.566 104.212L274.835 102.135L273.722 100.228H274.234L274.831 101.248C274.928 101.407 275.015 101.572 275.091 101.741C275.169 101.586 275.256 101.435 275.351 101.289L276.011 100.228H276.475L275.332 102.105L276.568 104.212H276.033L275.21 102.791C275.158 102.705 275.111 102.616 275.069 102.524C274.995 102.669 274.943 102.769 274.909 102.825L274.089 104.212H273.566Z"/><path fill="currentColor" d="M261.797 115.37V113.681L260.539 111.385H261.066L261.708 112.587C261.834 112.824 261.945 113.051 262.042 113.262C262.138 113.054 262.257 112.821 262.413 112.557L263.047 111.385H263.548L262.242 113.681V115.37H261.797Z" width="32" height="22" transform="translate(675.172 5)"/><path fill="currentColor" d="M261.797 115.37V113.681L260.539 111.385H261.066L261.708 112.587C261.834 112.824 261.945 113.051 262.042 113.262C262.138 113.054 262.257 112.821 262.413 112.557L263.047 111.385H263.548L262.242 113.681V115.37H261.797Z" width="32" height="22" transform="translate(675.172 5)"/><defs fill="currentColor" width="32" height="22" transform="translate(675.172 5)"/><clipPath fill="currentColor" width="32" height="22" transform="translate(675.172 5)"/><rect fill="currentColor" width="32" height="22" transform="translate(675.172 5)"/><clipPath fill="currentColor" width="32" height="22" transform="translate(675.172 5)"/><rect fill="currentColor" width="32" height="22" transform="translate(675.172 5)"/></svg>