<svg xmlns="http://www.w3.org/2000/svg" viewBox="0 0 1000 656" fill="#fff"><path stroke="currentColor" d="M372.134 458.554C391.844 458.554 407.821 442.566 407.821 422.844C407.821 403.121 391.844 387.133 372.134 387.133C352.425 387.133 336.448 403.121 336.448 422.844C336.448 442.566 352.425 458.554 372.134 458.554Z" strokeWidth="4" strokeLinejoin="bevel" opacity="0.5" strokeMiterlimit="22.93" fill="currentColor"/><path stroke="currentColor" d="M372.134 458.554C391.844 458.554 407.821 442.566 407.821 422.844C407.821 403.121 391.844 387.133 372.134 387.133C352.425 387.133 336.448 403.121 336.448 422.844C336.448 442.566 352.425 458.554 372.134 458.554Z" strokeWidth="4" strokeLinejoin="bevel" opacity="0.5" strokeMiterlimit="22.93" fill="currentColor"/><path stroke="currentColor" d="M372.134 458.554C391.844 458.554 407.821 442.566 407.821 422.844C407.821 403.121 391.844 387.133 372.134 387.133C352.425 387.133 336.448 403.121 336.448 422.844C336.448 442.566 352.425 458.554 372.134 458.554Z" strokeWidth="4" strokeLinejoin="bevel" opacity="0.5" strokeMiterlimit="22.93" fill="currentColor"/><path stroke="currentColor" d="M372.134 458.554C391.844 458.554 407.821 442.566 407.821 422.844C407.821 403.121 391.844 387.133 372.134 387.133C352.425 387.133 336.448 403.121 336.448 422.844C336.448 442.566 352.425 458.554 372.134 458.554Z" strokeWidth="4" strokeLinejoin="bevel" opacity="0.5" strokeMiterlimit="22.93" fill="currentColor"/><path stroke="currentColor" d="M372.134 458.554C391.844 458.554 407.821 442.566 407.821 422.844C407.821 403.121 391.844 387.133 372.134 387.133C352.425 387.133 336.448 403.121 336.448 422.844C336.448 442.566 352.425 458.554 372.134 458.554Z" strokeWidth="4" strokeLinejoin="bevel" opacity="0.5" strokeMiterlimit="22.93" fill="currentColor"/><path stroke="currentColor" d="M372.134 458.554C391.844 458.554 407.821 442.566 407.821 422.844C407.821 403.121 391.844 387.133 372.134 387.133C352.425 387.133 336.448 403.121 336.448 422.844C336.448 442.566 352.425 458.554 372.134 458.554Z" strokeWidth="4" strokeLinejoin="bevel" opacity="0.5" strokeMiterlimit="22.93" fill="currentColor"/><path stroke="currentColor" d="M372.134 458.554C391.844 458.554 407.821 442.566 407.821 422.844C407.821 403.121 391.844 387.133 372.134 387.133C352.425 387.133 336.448 403.121 336.448 422.844C336.448 442.566 352.425 458.554 372.134 458.554Z" strokeWidth="4" strokeLinejoin="bevel" opacity="0.5" strokeMiterlimit="22.93" fill="currentColor"/><path stroke="currentColor" d="M372.134 458.554C391.844 458.554 407.821 442.566 407.821 422.844C407.821 403.121 391.844 387.133 372.134 387.133C352.425 387.133 336.448 403.121 336.448 422.844C336.448 442.566 352.425 458.554 372.134 458.554Z" strokeWidth="4" strokeLinejoin="bevel" opacity="0.5" strokeMiterlimit="22.93" fill="currentColor"/><path stroke="currentColor" d="M372.134 458.554C391.844 458.554 407.821 442.566 407.821 422.844C407.821 403.121 391.844 387.133 372.134 387.133C352.425 387.133 336.448 403.121 336.448 422.844C336.448 442.566 352.425 458.554 372.134 458.554Z" strokeWidth="4" strokeLinejoin="bevel" opacity="0.5" strokeMiterlimit="22.93" fill="currentColor"/><path stroke="currentColor" opacity="0.5" d="M372.134 458.554C391.844 458.554 407.821 442.566 407.821 422.844C407.821 403.121 391.844 387.133 372.134 387.133C352.425 387.133 336.448 403.121 336.448 422.844C336.448 442.566 352.425 458.554 372.134 458.554Z" strokeWidth="4" strokeLinejoin="bevel" strokeMiterlimit="22.93" fill="currentColor"/><path stroke="currentColor" opacity="0.5" d="M372.134 458.554C391.844 458.554 407.821 442.566 407.821 422.844C407.821 403.121 391.844 387.133 372.134 387.133C352.425 387.133 336.448 403.121 336.448 422.844C336.448 442.566 352.425 458.554 372.134 458.554Z" strokeWidth="4" strokeLinejoin="bevel" strokeMiterlimit="22.93" fill="currentColor"/><path stroke="currentColor" d="M372.134 458.554C391.844 458.554 407.821 442.566 407.821 422.844C407.821 403.121 391.844 387.133 372.134 387.133C352.425 387.133 336.448 403.121 336.448 422.844C336.448 442.566 352.425 458.554 372.134 458.554Z" strokeWidth="4" strokeMiterlimit="22.93" fill="currentColor" opacity="0.5" strokeLinejoin="bevel"/><path fill="currentColor" d="M372.134 458.554C391.844 458.554 407.821 442.566 407.821 422.844C407.821 403.121 391.844 387.133 372.134 387.133C352.425 387.133 336.448 403.121 336.448 422.844C336.448 442.566 352.425 458.554 372.134 458.554Z" stroke="currentColor" opacity="0.5" strokeWidth="4" strokeLinejoin="bevel"/><path stroke="currentColor" opacity="0.5" d="M372.134 458.554C391.844 458.554 407.821 442.566 407.821 422.844C407.821 403.121 391.844 387.133 372.134 387.133C352.425 387.133 336.448 403.121 336.448 422.844C336.448 442.566 352.425 458.554 372.134 458.554Z" strokeWidth="4" strokeLinejoin="bevel" fill="currentColor"/><path stroke="currentColor" d="M372.134 458.554C391.844 458.554 407.821 442.566 407.821 422.844C407.821 403.121 391.844 387.133 372.134 387.133C352.425 387.133 336.448 403.121 336.448 422.844C336.448 442.566 352.425 458.554 372.134 458.554Z" strokeWidth="4" strokeLinejoin="bevel" fill="currentColor" opacity="0.5"/><path stroke="currentColor" fill="currentColor" d="M372.134 458.554C391.844 458.554 407.821 442.566 407.821 422.844C407.821 403.121 391.844 387.133 372.134 387.133C352.425 387.133 336.448 403.121 336.448 422.844C336.448 442.566 352.425 458.554 372.134 458.554Z" strokeWidth="4" strokeLinejoin="bevel" opacity="0.5"/><path stroke="currentColor" d="M372.134 458.554C391.844 458.554 407.821 442.566 407.821 422.844C407.821 403.121 391.844 387.133 372.134 387.133C352.425 387.133 336.448 403.121 336.448 422.844C336.448 442.566 352.425 458.554 372.134 458.554Z" strokeWidth="4" strokeLinejoin="bevel" opacity="0.5" fill="currentColor"/><path stroke="currentColor" d="M372.134 458.554C391.844 458.554 407.821 442.566 407.821 422.844C407.821 403.121 391.844 387.133 372.134 387.133C352.425 387.133 336.448 403.121 336.448 422.844C336.448 442.566 352.425 458.554 372.134 458.554Z" strokeWidth="4" strokeLinejoin="bevel" opacity="0.5" fill="currentColor"/><path stroke="currentColor" opacity="0.5" d="M372.134 458.554C391.844 458.554 407.821 442.566 407.821 422.844C407.821 403.121 391.844 387.133 372.134 387.133C352.425 387.133 336.448 403.121 336.448 422.844C336.448 442.566 352.425 458.554 372.134 458.554Z" strokeWidth="4" strokeLinejoin="bevel" fill="currentColor"/><path stroke="currentColor" d="M372.134 458.554C391.844 458.554 407.821 442.566 407.821 422.844C407.821 403.121 391.844 387.133 372.134 387.133C352.425 387.133 336.448 403.121 336.448 422.844C336.448 442.566 352.425 458.554 372.134 458.554Z" strokeWidth="4" strokeLinejoin="bevel" fill="currentColor" opacity="0.5"/><path stroke="currentColor" fill="currentColor" d="M372.134 458.554C391.844 458.554 407.821 442.566 407.821 422.844C407.821 403.121 391.844 387.133 372.134 387.133C352.425 387.133 336.448 403.121 336.448 422.844C336.448 442.566 352.425 458.554 372.134 458.554Z" strokeWidth="4" strokeLinejoin="bevel" opacity="0.5"/><path stroke="currentColor" d="M372.134 458.554C391.844 458.554 407.821 442.566 407.821 422.844C407.821 403.121 391.844 387.133 372.134 387.133C352.425 387.133 336.448 403.121 336.448 422.844C336.448 442.566 352.425 458.554 372.134 458.554Z" strokeWidth="4" strokeLinejoin="bevel" fill="currentColor" opacity="0.5"/><path stroke="currentColor" fill="currentColor" d="M372.134 458.554C391.844 458.554 407.821 442.566 407.821 422.844C407.821 403.121 391.844 387.133 372.134 387.133C352.425 387.133 336.448 403.121 336.448 422.844C336.448 442.566 352.425 458.554 372.134 458.554Z" strokeWidth="4" strokeLinejoin="bevel" opacity="0.5"/><path stroke="currentColor" d="M372.134 458.554C391.844 458.554 407.821 442.566 407.821 422.844C407.821 403.121 391.844 387.133 372.134 387.133C352.425 387.133 336.448 403.121 336.448 422.844C336.448 442.566 352.425 458.554 372.134 458.554Z" strokeWidth="4" strokeLinejoin="bevel" fill="currentColor" opacity="0.5"/><path stroke="currentColor" fill="currentColor" d="M372.134 458.554C391.844 458.554 407.821 442.566 407.821 422.844C407.821 403.121 391.844 387.133 372.134 387.133C352.425 387.133 336.448 403.121 336.448 422.844C336.448 442.566 352.425 458.554 372.134 458.554Z" strokeWidth="4" strokeLinejoin="bevel" opacity="0.5"/><path stroke="currentColor" d="M372.134 458.554C391.844 458.554 407.821 442.566 407.821 422.844C407.821 403.121 391.844 387.133 372.134 387.133C352.425 387.133 336.448 403.121 336.448 422.844C336.448 442.566 352.425 458.554 372.134 458.554Z" strokeWidth="4" strokeLinejoin="bevel" fill="currentColor" opacity="0.5"/><path stroke="currentColor" fill="currentColor" d="M372.134 458.554C391.844 458.554 407.821 442.566 407.821 422.844C407.821 403.121 391.844 387.133 372.134 387.133C352.425 387.133 336.448 403.121 336.448 422.844C336.448 442.566 352.425 458.554 372.134 458.554Z" opacity="0.5" strokeWidth="4" strokeLinejoin="bevel"/><path stroke="currentColor" fill="currentColor" opacity="0.5" d="M638.075 458.554C657.785 458.554 673.762 442.566 673.762 422.844C673.762 403.121 657.785 387.133 638.075 387.133C618.366 387.133 602.389 403.121 602.389 422.844C602.389 442.566 618.366 458.554 638.075 458.554Z" strokeWidth="4" strokeLinejoin="bevel"/><path stroke="currentColor" d="M372.134 458.554C391.844 458.554 407.821 442.566 407.821 422.844C407.821 403.121 391.844 387.133 372.134 387.133C352.425 387.133 336.448 403.121 336.448 422.844C336.448 442.566 352.425 458.554 372.134 458.554Z" strokeWidth="4" strokeLinejoin="bevel" fill="currentColor" opacity="0.5"/><path stroke="currentColor" fill="currentColor" opacity="0.5" d="M372.134 458.554C391.844 458.554 407.821 442.566 407.821 422.844C407.821 403.121 391.844 387.133 372.134 387.133C352.425 387.133 336.448 403.121 336.448 422.844C336.448 442.566 352.425 458.554 372.134 458.554Z" strokeWidth="4" strokeLinejoin="bevel"/><path stroke="currentColor" d="M372.134 458.554C391.844 458.554 407.821 442.566 407.821 422.844C407.821 403.121 391.844 387.133 372.134 387.133C352.425 387.133 336.448 403.121 336.448 422.844C336.448 442.566 352.425 458.554 372.134 458.554Z" strokeWidth="4" strokeLinejoin="bevel"/></svg>