<svg xmlns="http://www.w3.org/2000/svg" viewBox="0 0 36 36" width="36" height="36" fill="#fff"><path d="M24.0238 6H7.35714L3 19.9286H24.8667C24.408 19.0075 24.15 17.9689 24.15 16.87C24.15 15.5949 24.4974 14.4009 25.1027 13.3775L24.0238 6Z" fill="currentColor" fillRule="evenodd" clipRule="evenodd"/><path d="M24.0238 6H7.35714L3 19.9286H24.8667C24.408 19.0075 24.15 17.9689 24.15 16.87C24.15 15.5949 24.4974 14.4009 25.1027 13.3775L24.0238 6Z" fill="currentColor" fillRule="evenodd" clipRule="evenodd"/><path d="M3 31.7143V24.2143H33V31.7143H3ZM21.0952 26.1826C21.4476 25.9471 21.8619 25.8214 22.2857 25.8214C22.854 25.8214 23.3991 26.0472 23.8009 26.4491C24.2028 26.8509 24.4286 27.396 24.4286 27.9643C24.4286 28.3881 24.3029 28.8024 24.0674 29.1548C23.832 29.5072 23.4973 29.7818 23.1058 29.944C22.7142 30.1062 22.2833 30.1486 21.8677 30.066C21.452 29.9833 21.0702 29.7792 20.7705 29.4795C20.4708 29.1798 20.2667 28.798 20.184 28.3823C20.1013 27.9667 20.1438 27.5358 20.306 27.1442C20.4682 26.7527 20.7428 26.418 21.0952 26.1826ZM28.7143 25.8214C28.2905 25.8214 27.8762 25.9471 27.5238 26.1826C27.1714 26.418 26.8967 26.7527 26.7345 27.1442C26.5724 27.5358 26.5299 27.9667 26.6126 28.3823C26.6953 28.798 26.8994 29.1798 27.1991 29.4795C27.4987 29.7792 27.8806 29.9833 28.2962 30.066C28.7119 30.1486 29.1428 30.1062 29.5343 29.944C29.9259 29.7818 30.2605 29.5072 30.496 29.1548C30.7315 28.8024 30.8571 28.3881 30.8571 27.9643C30.8571 27.396 30.6314 26.8509 30.2295 26.4491C29.8277 26.0472 29.2826 25.8214 28.7143 25.8214Z" fill="currentColor" fillRule="evenodd" clipRule="evenodd"/><path fillRule="evenodd" clipRule="evenodd" d="M3 31.7143V24.2143H33V31.7143H3ZM21.0952 26.1826C21.4476 25.9471 21.8619 25.8214 22.2857 25.8214C22.854 25.8214 23.3991 26.0472 23.8009 26.4491C24.2028 26.8509 24.4286 27.396 24.4286 27.9643C24.4286 28.3881 24.3029 28.8024 24.0674 29.1548C23.832 29.5072 23.4973 29.7818 23.1058 29.944C22.7142 30.1062 22.2833 30.1486 21.8677 30.066C21.452 29.9833 21.0702 29.7792 20.7705 29.4795C20.4708 29.1798 20.2667 28.798 20.184 28.3823C20.1013 27.9667 20.1438 27.5358 20.306 27.1442C20.4682 26.7527 20.7428 26.418 21.0952 26.1826ZM28.7143 25.8214C28.2905 25.8214 27.8762 25.9471 27.5238 26.1826C27.1714 26.418 26.8967 26.7527 26.7345 27.1442C26.5724 27.5358 26.5299 27.9667 26.6126 28.3823C26.6953 28.798 26.8994 29.1798 27.1991 29.4795C27.4987 29.7792 27.8806 29.9833 28.2962 30.066C28.7119 30.1486 29.1428 30.1062 29.5343 29.944C29.9259 29.7818 30.2605 29.5072 30.496 29.1548C30.7315 28.8024 30.8571 28.3881 30.8571 27.9643C30.8571 27.396 30.6314 26.8509 30.2295 26.4491C29.8277 26.0472 29.2826 25.8214 28.7143 25.8214Z" fill="currentColor"/></svg>