<svg xmlns="http://www.w3.org/2000/svg" viewBox="0 0 36 36" fill="#fff"><path fill="currentColor" d="M33.1222 19.2292C33.1222 19.2292 30.8333 17 25 17C19.1667 17 16.8778 19.2292 16.8778 19.2292C16.8778 19.2292 15 25.3785 15 27.8769C15 29.7508 17.7778 31 17.7778 31L21.1111 27.7692H28.8889L32.2222 31C32.2222 31 35 29.7508 35 27.8769C35 25.3785 33.1222 19.2292 33.1222 19.2292ZM23.3333 23.4615H21.6667V25.0769H20V23.4615H18.3333V21.8462H20V20.2308H21.6667V21.8462H23.3333V23.4615ZM26.9444 25.0769C26.6697 25.0769 26.4012 24.998 26.1728 24.8501C25.9444 24.7021 25.7664 24.4919 25.6613 24.2459C25.5561 23.9999 25.5286 23.7293 25.5822 23.4681C25.6358 23.207 25.7681 22.9672 25.9623 22.7789C26.1566 22.5906 26.4041 22.4624 26.6735 22.4105C26.9429 22.3585 27.2222 22.3852 27.4759 22.4871C27.7297 22.589 27.9466 22.7615 28.0993 22.9829C28.2519 23.2043 28.3333 23.4645 28.3333 23.7308C28.3333 23.9075 28.2974 24.0826 28.2276 24.2459C28.1578 24.4092 28.0555 24.5576 27.9265 24.6826C27.7976 24.8076 27.6444 24.9068 27.4759 24.9745C27.3074 25.0421 27.1268 25.0769 26.9444 25.0769ZM30.2778 22.9231C30.0031 22.9231 29.7345 22.8441 29.5061 22.6962C29.2777 22.5483 29.0997 22.3381 28.9946 22.0921C28.8895 21.8461 28.862 21.5754 28.9156 21.3143C28.9692 21.0532 29.1014 20.8133 29.2957 20.625C29.4899 20.4368 29.7374 20.3086 30.0068 20.2566C30.2762 20.2047 30.5555 20.2314 30.8093 20.3332C31.0631 20.4351 31.28 20.6077 31.4326 20.829C31.5852 21.0504 31.6667 21.3107 31.6667 21.5769C31.6667 21.9339 31.5203 22.2763 31.2599 22.5288C30.9994 22.7812 30.6461 22.9231 30.2778 22.9231Z" fillRule="evenodd" clipRule="evenodd"/><path fill="currentColor" d="M33.1222 19.2292C33.1222 19.2292 30.8333 17 25 17C19.1667 17 16.8778 19.2292 16.8778 19.2292C16.8778 19.2292 15 25.3785 15 27.8769C15 29.7508 17.7778 31 17.7778 31L21.1111 27.7692H28.8889L32.2222 31C32.2222 31 35 29.7508 35 27.8769C35 25.3785 33.1222 19.2292 33.1222 19.2292ZM23.3333 23.4615H21.6667V25.0769H20V23.4615H18.3333V21.8462H20V20.2308H21.6667V21.8462H23.3333V23.4615ZM26.9444 25.0769C26.6697 25.0769 26.4012 24.998 26.1728 24.8501C25.9444 24.7021 25.7664 24.4919 25.6613 24.2459C25.5561 23.9999 25.5286 23.7293 25.5822 23.4681C25.6358 23.207 25.7681 22.9672 25.9623 22.7789C26.1566 22.5906 26.4041 22.4624 26.6735 22.4105C26.9429 22.3585 27.2222 22.3852 27.4759 22.4871C27.7297 22.589 27.9466 22.7615 28.0993 22.9829C28.2519 23.2043 28.3333 23.4645 28.3333 23.7308C28.3333 23.9075 28.2974 24.0826 28.2276 24.2459C28.1578 24.4092 28.0555 24.5576 27.9265 24.6826C27.7976 24.8076 27.6444 24.9068 27.4759 24.9745C27.3074 25.0421 27.1268 25.0769 26.9444 25.0769ZM30.2778 22.9231C30.0031 22.9231 29.7345 22.8441 29.5061 22.6962C29.2777 22.5483 29.0997 22.3381 28.9946 22.0921C28.8895 21.8461 28.862 21.5754 28.9156 21.3143C28.9692 21.0532 29.1014 20.8133 29.2957 20.625C29.4899 20.4368 29.7374 20.3086 30.0068 20.2566C30.2762 20.2047 30.5555 20.2314 30.8093 20.3332C31.0631 20.4351 31.28 20.6077 31.4326 20.829C31.5852 21.0504 31.6667 21.3107 31.6667 21.5769C31.6667 21.9339 31.5203 22.2763 31.2599 22.5288C30.9994 22.7812 30.6461 22.9231 30.2778 22.9231Z" fillRule="evenodd" clipRule="evenodd"/><path fill="currentColor" d="M33.1222 19.2292C33.1222 19.2292 30.8333 17 25 17C19.1667 17 16.8778 19.2292 16.8778 19.2292C16.8778 19.2292 15 25.3785 15 27.8769C15 29.7508 17.7778 31 17.7778 31L21.1111 27.7692H28.8889L32.2222 31C32.2222 31 35 29.7508 35 27.8769C35 25.3785 33.1222 19.2292 33.1222 19.2292ZM23.3333 23.4615H21.6667V25.0769H20V23.4615H18.3333V21.8462H20V20.2308H21.6667V21.8462H23.3333V23.4615ZM26.9444 25.0769C26.6697 25.0769 26.4012 24.998 26.1728 24.8501C25.9444 24.7021 25.7664 24.4919 25.6613 24.2459C25.5561 23.9999 25.5286 23.7293 25.5822 23.4681C25.6358 23.207 25.7681 22.9672 25.9623 22.7789C26.1566 22.5906 26.4041 22.4624 26.6735 22.4105C26.9429 22.3585 27.2222 22.3852 27.4759 22.4871C27.7297 22.589 27.9466 22.7615 28.0993 22.9829C28.2519 23.2043 28.3333 23.4645 28.3333 23.7308C28.3333 23.9075 28.2974 24.0826 28.2276 24.2459C28.1578 24.4092 28.0555 24.5576 27.9265 24.6826C27.7976 24.8076 27.6444 24.9068 27.4759 24.9745C27.3074 25.0421 27.1268 25.0769 26.9444 25.0769ZM30.2778 22.9231C30.0031 22.9231 29.7345 22.8441 29.5061 22.6962C29.2777 22.5483 29.0997 22.3381 28.9946 22.0921C28.8895 21.8461 28.862 21.5754 28.9156 21.3143C28.9692 21.0532 29.1014 20.8133 29.2957 20.625C29.4899 20.4368 29.7374 20.3086 30.0068 20.2566C30.2762 20.2047 30.5555 20.2314 30.8093 20.3332C31.0631 20.4351 31.28 20.6077 31.4326 20.829C31.5852 21.0504 31.6667 21.3107 31.6667 21.5769C31.6667 21.9339 31.5203 22.2763 31.2599 22.5288C30.9994 22.7812 30.6461 22.9231 30.2778 22.9231Z" fillRule="evenodd" clipRule="evenodd"/><path fill="currentColor"/><path fill="currentColor"/><path fill="currentColor"/></svg>