<svg xmlns="http://www.w3.org/2000/svg" viewBox="0 0 36 36" fill="#fff"><path fillRule="evenodd" clipRule="evenodd" d="M32.3925 18.74C33.9775 18.74 35.2625 17.4551 35.2625 15.87C35.2625 14.2849 33.9775 13 32.3925 13C30.8074 13 29.5225 14.2849 29.5225 15.87C29.5225 17.4551 30.8074 18.74 32.3925 18.74Z" fill="#FFC82C"/><path d="M32.3925 18.74C33.9775 18.74 35.2625 17.4551 35.2625 15.87C35.2625 14.2849 33.9775 13 32.3925 13C30.8074 13 29.5225 14.2849 29.5225 15.87C29.5225 17.4551 30.8074 18.74 32.3925 18.74Z" fill="#FFC82C"/><path d="M32.3925 18.74C33.9775 18.74 35.2625 17.4551 35.2625 15.87C35.2625 14.2849 33.9775 13 32.3925 13C30.8074 13 29.5225 14.2849 29.5225 15.87C29.5225 17.4551 30.8074 18.74 32.3925 18.74Z" fill="#FFC82C"/></svg>