<svg xmlns="http://www.w3.org/2000/svg" viewBox="0 0 1920 1080" width="44.2764" height="39" fill="#fff"><path fill="black" d="M965.839 762.552C965.839 761.108 964.659 759.928 963.214 759.928C961.77 759.928 960.59 761.108 960.59 762.552C960.59 763.997 961.77 765.177 963.214 765.177C964.659 765.177 965.839 763.997 965.839 762.552ZM961.24 762.544C961.24 761.453 962.123 760.57 963.214 760.57C964.306 760.57 965.189 761.453 965.189 762.544C965.189 763.636 964.306 764.519 963.214 764.519C962.123 764.519 961.24 763.636 961.24 762.544Z" cx="1001.68" cy="789.054" r="13.7428" stroke="#1A9FFF" strokeWidth="5.06467" strokeLinecap="round" x="954" y="452" width="17.6" height="19.75"/><path fill="currentColor"/><circle fill="black" cx="1001.68" cy="789.054" r="13.7428" stroke="#1A9FFF" d="M965.839 762.552C965.839 761.108 964.659 759.928 963.214 759.928C961.77 759.928 960.59 761.108 960.59 762.552C960.59 763.997 961.77 765.177 963.214 765.177C964.659 765.177 965.839 763.997 965.839 762.552ZM961.24 762.544C961.24 761.453 962.123 760.57 963.214 760.57C964.306 760.57 965.189 761.453 965.189 762.544C965.189 763.636 964.306 764.519 963.214 764.519C962.123 764.519 961.24 763.636 961.24 762.544Z" strokeWidth="5.06467" strokeLinecap="round" x="954" y="452" width="17.6" height="19.75"/><circle fill="black" cx="1001.68" cy="789.054" r="13.7428" stroke="#1A9FFF" d="M965.839 762.552C965.839 761.108 964.659 759.928 963.214 759.928C961.77 759.928 960.59 761.108 960.59 762.552C960.59 763.997 961.77 765.177 963.214 765.177C964.659 765.177 965.839 763.997 965.839 762.552ZM961.24 762.544C961.24 761.453 962.123 760.57 963.214 760.57C964.306 760.57 965.189 761.453 965.189 762.544C965.189 763.636 964.306 764.519 963.214 764.519C962.123 764.519 961.24 763.636 961.24 762.544Z" strokeWidth="5.06467" strokeLinecap="round" x="954" y="452" width="17.6" height="19.75"/><path stroke="#1A9FFF" d="M965.839 762.552C965.839 761.108 964.659 759.928 963.214 759.928C961.77 759.928 960.59 761.108 960.59 762.552C960.59 763.997 961.77 765.177 963.214 765.177C964.659 765.177 965.839 763.997 965.839 762.552ZM961.24 762.544C961.24 761.453 962.123 760.57 963.214 760.57C964.306 760.57 965.189 761.453 965.189 762.544C965.189 763.636 964.306 764.519 963.214 764.519C962.123 764.519 961.24 763.636 961.24 762.544Z" strokeWidth="5.06467" strokeLinecap="round" fill="black" x="954" y="452" width="17.6" height="19.75"/><rect fill="black" x="954" y="452" width="17.6" height="19.75" stroke="#1A9FFF" strokeWidth="5.06467" d="M965.839 762.552C965.839 761.108 964.659 759.928 963.214 759.928C961.77 759.928 960.59 761.108 960.59 762.552C960.59 763.997 961.77 765.177 963.214 765.177C964.659 765.177 965.839 763.997 965.839 762.552ZM961.24 762.544C961.24 761.453 962.123 760.57 963.214 760.57C964.306 760.57 965.189 761.453 965.189 762.544C965.189 763.636 964.306 764.519 963.214 764.519C962.123 764.519 961.24 763.636 961.24 762.544Z" strokeLinecap="round"/><rect stroke="#1A9FFF" x="954" y="452" width="17.6" height="19.75" strokeWidth="5.06467" d="M965.839 762.552C965.839 761.108 964.659 759.928 963.214 759.928C961.77 759.928 960.59 761.108 960.59 762.552C960.59 763.997 961.77 765.177 963.214 765.177C964.659 765.177 965.839 763.997 965.839 762.552ZM961.24 762.544C961.24 761.453 962.123 760.57 963.214 760.57C964.306 760.57 965.189 761.453 965.189 762.544C965.189 763.636 964.306 764.519 963.214 764.519C962.123 764.519 961.24 763.636 961.24 762.544Z" fill="black" strokeLinecap="round"/><path stroke="#1A9FFF" d="M965.839 762.552C965.839 761.108 964.659 759.928 963.214 759.928C961.77 759.928 960.59 761.108 960.59 762.552C960.59 763.997 961.77 765.177 963.214 765.177C964.659 765.177 965.839 763.997 965.839 762.552ZM961.24 762.544C961.24 761.453 962.123 760.57 963.214 760.57C964.306 760.57 965.189 761.453 965.189 762.544C965.189 763.636 964.306 764.519 963.214 764.519C962.123 764.519 961.24 763.636 961.24 762.544Z" strokeWidth="5.06467" fill="black" x="954" y="452" width="17.6" height="19.75" strokeLinecap="round"/><path fill="black" d="M965.839 762.552C965.839 761.108 964.659 759.928 963.214 759.928C961.77 759.928 960.59 761.108 960.59 762.552C960.59 763.997 961.77 765.177 963.214 765.177C964.659 765.177 965.839 763.997 965.839 762.552ZM961.24 762.544C961.24 761.453 962.123 760.57 963.214 760.57C964.306 760.57 965.189 761.453 965.189 762.544C965.189 763.636 964.306 764.519 963.214 764.519C962.123 764.519 961.24 763.636 961.24 762.544Z" x="954" y="452" width="17.6" height="19.75" stroke="#1A9FFF" strokeWidth="5.06467" strokeLinecap="round"/><rect fill="black" x="954" y="452" width="17.6" height="19.75" stroke="#1A9FFF" d="M965.839 762.552C965.839 761.108 964.659 759.928 963.214 759.928C961.77 759.928 960.59 761.108 960.59 762.552C960.59 763.997 961.77 765.177 963.214 765.177C964.659 765.177 965.839 763.997 965.839 762.552ZM961.24 762.544C961.24 761.453 962.123 760.57 963.214 760.57C964.306 760.57 965.189 761.453 965.189 762.544C965.189 763.636 964.306 764.519 963.214 764.519C962.123 764.519 961.24 763.636 961.24 762.544Z" strokeWidth="5.06467" strokeLinecap="round"/><path stroke="#1A9FFF" d="M965.839 762.552C965.839 761.108 964.659 759.928 963.214 759.928C961.77 759.928 960.59 761.108 960.59 762.552C960.59 763.997 961.77 765.177 963.214 765.177C964.659 765.177 965.839 763.997 965.839 762.552ZM961.24 762.544C961.24 761.453 962.123 760.57 963.214 760.57C964.306 760.57 965.189 761.453 965.189 762.544C965.189 763.636 964.306 764.519 963.214 764.519C962.123 764.519 961.24 763.636 961.24 762.544Z" strokeWidth="5.06467" strokeLinecap="round" fill="black"/><path fill="black" d="M965.839 762.552C965.839 761.108 964.659 759.928 963.214 759.928C961.77 759.928 960.59 761.108 960.59 762.552C960.59 763.997 961.77 765.177 963.214 765.177C964.659 765.177 965.839 763.997 965.839 762.552ZM961.24 762.544C961.24 761.453 962.123 760.57 963.214 760.57C964.306 760.57 965.189 761.453 965.189 762.544C965.189 763.636 964.306 764.519 963.214 764.519C962.123 764.519 961.24 763.636 961.24 762.544Z"/><path fill="black" d="M965.839 762.552C965.839 761.108 964.659 759.928 963.214 759.928C961.77 759.928 960.59 761.108 960.59 762.552C960.59 763.997 961.77 765.177 963.214 765.177C964.659 765.177 965.839 763.997 965.839 762.552ZM961.24 762.544C961.24 761.453 962.123 760.57 963.214 760.57C964.306 760.57 965.189 761.453 965.189 762.544C965.189 763.636 964.306 764.519 963.214 764.519C962.123 764.519 961.24 763.636 961.24 762.544Z"/><path fill="black" d="M965.839 762.552C965.839 761.108 964.659 759.928 963.214 759.928C961.77 759.928 960.59 761.108 960.59 762.552C960.59 763.997 961.77 765.177 963.214 765.177C964.659 765.177 965.839 763.997 965.839 762.552ZM961.24 762.544C961.24 761.453 962.123 760.57 963.214 760.57C964.306 760.57 965.189 761.453 965.189 762.544C965.189 763.636 964.306 764.519 963.214 764.519C962.123 764.519 961.24 763.636 961.24 762.544Z"/><path fill="black" d="M965.839 762.552C965.839 761.108 964.659 759.928 963.214 759.928C961.77 759.928 960.59 761.108 960.59 762.552C960.59 763.997 961.77 765.177 963.214 765.177C964.659 765.177 965.839 763.997 965.839 762.552ZM961.24 762.544C961.24 761.453 962.123 760.57 963.214 760.57C964.306 760.57 965.189 761.453 965.189 762.544C965.189 763.636 964.306 764.519 963.214 764.519C962.123 764.519 961.24 763.636 961.24 762.544Z"/><path fill="black" d="M965.839 762.552C965.839 761.108 964.659 759.928 963.214 759.928C961.77 759.928 960.59 761.108 960.59 762.552C960.59 763.997 961.77 765.177 963.214 765.177C964.659 765.177 965.839 763.997 965.839 762.552ZM961.24 762.544C961.24 761.453 962.123 760.57 963.214 760.57C964.306 760.57 965.189 761.453 965.189 762.544C965.189 763.636 964.306 764.519 963.214 764.519C962.123 764.519 961.24 763.636 961.24 762.544Z"/><path fill="black" d="M965.839 762.552C965.839 761.108 964.659 759.928 963.214 759.928C961.77 759.928 960.59 761.108 960.59 762.552C960.59 763.997 961.77 765.177 963.214 765.177C964.659 765.177 965.839 763.997 965.839 762.552ZM961.24 762.544C961.24 761.453 962.123 760.57 963.214 760.57C964.306 760.57 965.189 761.453 965.189 762.544C965.189 763.636 964.306 764.519 963.214 764.519C962.123 764.519 961.24 763.636 961.24 762.544Z"/></svg>