<svg xmlns="http://www.w3.org/2000/svg" viewBox="0 0 36 36" fill="#fff"><path fillRule="evenodd" clipRule="evenodd" d="M22.267 20.9725C21.2835 22.2119 19.9545 23.1319 18.4482 23.6161C16.9419 24.1003 15.3258 24.1269 13.8043 23.6926C12.2828 23.2583 10.9243 22.3826 9.90049 21.1762C8.87671 19.9698 8.23366 18.4869 8.05265 16.9151C7.87164 15.3432 8.16081 13.753 8.88359 12.3454C9.60637 10.9379 10.7303 9.77635 12.1132 9.0076C13.4962 8.23884 15.076 7.89744 16.653 8.02657C18.23 8.15569 19.7332 8.74955 20.9727 9.73303C22.6348 11.0518 23.7049 12.9769 23.9476 15.0847C24.1903 17.1925 23.5858 19.3104 22.267 20.9725ZM14.9311 16.0445C15.0677 18.4338 16.9473 20.4099 19.4 20.742C19.6337 20.7739 19.8247 20.9473 19.8721 21.1716C19.9197 21.3958 19.813 21.6193 19.6081 21.7247C18.7126 22.1853 17.7362 22.4305 16.7059 22.4534C15.7473 22.4747 14.8084 22.3002 13.939 21.9483C13.1972 21.6481 12.5061 21.2188 11.8959 20.6717C10.5703 19.4833 9.7862 17.8815 9.6879 16.1615C9.48493 12.6105 12.3029 9.65493 15.9698 9.57328C17.0003 9.55055 18.003 9.75141 18.9478 10.1713C19.164 10.2672 19.2962 10.4854 19.2744 10.7113C19.2525 10.937 19.082 11.1186 18.8524 11.1606C16.4438 11.6016 14.7946 13.6555 14.9311 16.0445Z" fill="currentcolor"/><path fillRule="evenodd" clipRule="evenodd"/></svg>