<svg xmlns="http://www.w3.org/2000/svg" viewBox="0 0 36 36" fill="#fff"><path fill="currentColor" fillRule="evenodd" clipRule="evenodd" d="M33.7098 30.2794L33.8557 30.2308C34.4012 29.9208 34.84 29.4611 35.0709 28.8508C35.5192 27.6656 36 25.7647 36 23.0625C36 18 33.1875 9.5625 32.0625 9C31.9295 8.93348 31.7413 8.85908 31.5 8.77962V8.17604C31.5 7.98797 31.4068 7.8129 31.2439 7.71875C30.7095 7.40971 29.4172 6.75 28.125 6.75C26.4375 6.75 26.4375 7.3125 26.4375 7.3125V7.79346C26.0683 7.74787 25.683 7.70427 25.282 7.66324L25.2962 7.67864C25.52 7.92502 25.6356 8.23268 25.5711 8.58762L25.0274 11.5776L25.0319 11.579L25.0203 11.6166L24.886 12.3555C24.6386 13.7163 25.0769 15.1154 26.0095 16.155C27.1154 17.3878 28.5552 19.1078 29.4912 20.6678C30.1408 21.7505 30.7804 23.4605 31.3236 25.1549C31.8691 26.8562 32.3254 28.5672 32.6039 29.6673C32.7273 30.1547 33.2382 30.4366 33.7098 30.2794ZM26.2156 9.31093C26.3546 9.03307 26.6924 8.92044 26.9703 9.05937C27.2482 9.1983 27.3608 9.53618 27.2219 9.81404L26.9406 10.3765C26.8017 10.6544 26.4638 10.767 26.1859 10.6281C25.9081 10.4892 25.7954 10.1513 25.9344 9.87343L26.2156 9.31093ZM30.375 15.75C30.375 16.3713 29.8713 16.875 29.25 16.875C28.6287 16.875 28.125 16.3713 28.125 15.75C28.125 15.1287 28.6287 14.625 29.25 14.625C29.8713 14.625 30.375 15.1287 30.375 15.75ZM31.5 14.625C32.1213 14.625 32.625 14.1213 32.625 13.5C32.625 12.8787 32.1213 12.375 31.5 12.375C30.8787 12.375 30.375 12.8787 30.375 13.5C30.375 14.1213 30.8787 14.625 31.5 14.625ZM30.375 11.25C30.375 11.8713 29.8713 12.375 29.25 12.375C28.6287 12.375 28.125 11.8713 28.125 11.25C28.125 10.6287 28.6287 10.125 29.25 10.125C29.8713 10.125 30.375 10.6287 30.375 11.25ZM27 14.625C27.6213 14.625 28.125 14.1213 28.125 13.5C28.125 12.8787 27.6213 12.375 27 12.375C26.3787 12.375 25.875 12.8787 25.875 13.5C25.875 14.1213 26.3787 14.625 27 14.625Z"/><path fill="currentColor"/><path fill="currentColor" fillRule="evenodd" clipRule="evenodd" d="M33.7098 30.2794L33.8557 30.2308C34.4012 29.9208 34.84 29.4611 35.0709 28.8508C35.5192 27.6656 36 25.7647 36 23.0625C36 18 33.1875 9.5625 32.0625 9C31.9295 8.93348 31.7413 8.85908 31.5 8.77962V8.17604C31.5 7.98797 31.4068 7.8129 31.2439 7.71875C30.7095 7.40971 29.4172 6.75 28.125 6.75C26.4375 6.75 26.4375 7.3125 26.4375 7.3125V7.79346C26.0683 7.74787 25.683 7.70427 25.282 7.66324L25.2962 7.67864C25.52 7.92502 25.6356 8.23268 25.5711 8.58762L25.0274 11.5776L25.0319 11.579L25.0203 11.6166L24.886 12.3555C24.6386 13.7163 25.0769 15.1154 26.0095 16.155C27.1154 17.3878 28.5552 19.1078 29.4912 20.6678C30.1408 21.7505 30.7804 23.4605 31.3236 25.1549C31.8691 26.8562 32.3254 28.5672 32.6039 29.6673C32.7273 30.1547 33.2382 30.4366 33.7098 30.2794ZM26.2156 9.31093C26.3546 9.03307 26.6924 8.92044 26.9703 9.05937C27.2482 9.1983 27.3608 9.53618 27.2219 9.81404L26.9406 10.3765C26.8017 10.6544 26.4638 10.767 26.1859 10.6281C25.9081 10.4892 25.7954 10.1513 25.9344 9.87343L26.2156 9.31093ZM30.375 15.75C30.375 16.3713 29.8713 16.875 29.25 16.875C28.6287 16.875 28.125 16.3713 28.125 15.75C28.125 15.1287 28.6287 14.625 29.25 14.625C29.8713 14.625 30.375 15.1287 30.375 15.75ZM31.5 14.625C32.1213 14.625 32.625 14.1213 32.625 13.5C32.625 12.8787 32.1213 12.375 31.5 12.375C30.8787 12.375 30.375 12.8787 30.375 13.5C30.375 14.1213 30.8787 14.625 31.5 14.625ZM30.375 11.25C30.375 11.8713 29.8713 12.375 29.25 12.375C28.6287 12.375 28.125 11.8713 28.125 11.25C28.125 10.6287 28.6287 10.125 29.25 10.125C29.8713 10.125 30.375 10.6287 30.375 11.25ZM27 14.625C27.6213 14.625 28.125 14.1213 28.125 13.5C28.125 12.8787 27.6213 12.375 27 12.375C26.3787 12.375 25.875 12.8787 25.875 13.5C25.875 14.1213 26.3787 14.625 27 14.625Z"/><path fill="currentColor" fillRule="evenodd" clipRule="evenodd" d="M33.7098 30.2794L33.8557 30.2308C34.4012 29.9208 34.84 29.4611 35.0709 28.8508C35.5192 27.6656 36 25.7647 36 23.0625C36 18 33.1875 9.5625 32.0625 9C31.9295 8.93348 31.7413 8.85908 31.5 8.77962V8.17604C31.5 7.98797 31.4068 7.8129 31.2439 7.71875C30.7095 7.40971 29.4172 6.75 28.125 6.75C26.4375 6.75 26.4375 7.3125 26.4375 7.3125V7.79346C26.0683 7.74787 25.683 7.70427 25.282 7.66324L25.2962 7.67864C25.52 7.92502 25.6356 8.23268 25.5711 8.58762L25.0274 11.5776L25.0319 11.579L25.0203 11.6166L24.886 12.3555C24.6386 13.7163 25.0769 15.1154 26.0095 16.155C27.1154 17.3878 28.5552 19.1078 29.4912 20.6678C30.1408 21.7505 30.7804 23.4605 31.3236 25.1549C31.8691 26.8562 32.3254 28.5672 32.6039 29.6673C32.7273 30.1547 33.2382 30.4366 33.7098 30.2794ZM26.2156 9.31093C26.3546 9.03307 26.6924 8.92044 26.9703 9.05937C27.2482 9.1983 27.3608 9.53618 27.2219 9.81404L26.9406 10.3765C26.8017 10.6544 26.4638 10.767 26.1859 10.6281C25.9081 10.4892 25.7954 10.1513 25.9344 9.87343L26.2156 9.31093ZM30.375 15.75C30.375 16.3713 29.8713 16.875 29.25 16.875C28.6287 16.875 28.125 16.3713 28.125 15.75C28.125 15.1287 28.6287 14.625 29.25 14.625C29.8713 14.625 30.375 15.1287 30.375 15.75ZM31.5 14.625C32.1213 14.625 32.625 14.1213 32.625 13.5C32.625 12.8787 32.1213 12.375 31.5 12.375C30.8787 12.375 30.375 12.8787 30.375 13.5C30.375 14.1213 30.8787 14.625 31.5 14.625ZM30.375 11.25C30.375 11.8713 29.8713 12.375 29.25 12.375C28.6287 12.375 28.125 11.8713 28.125 11.25C28.125 10.6287 28.6287 10.125 29.25 10.125C29.8713 10.125 30.375 10.6287 30.375 11.25ZM27 14.625C27.6213 14.625 28.125 14.1213 28.125 13.5C28.125 12.8787 27.6213 12.375 27 12.375C26.3787 12.375 25.875 12.8787 25.875 13.5C25.875 14.1213 26.3787 14.625 27 14.625Z"/></svg>