<svg xmlns="http://www.w3.org/2000/svg" viewBox="0 0 36 36" fill="#fff"><path fill="#AD66BB" opacity="0.25" fillRule="evenodd" clipRule="evenodd" d="M25 23C29.9706 23 34 18.9706 34 14C34 9.02944 29.9706 5 25 5C20.0294 5 16 9.02944 16 14C16 18.9706 20.0294 23 25 23ZM28.6 8.6L30.4 10.4L26.8 14L30.4 17.6L28.6 19.4L25 15.8L21.4 19.4L19.6 17.6L23.2 14L19.6 10.4L21.4 8.6L25 12.2L28.6 8.6Z"/><path fillRule="evenodd" clipRule="evenodd" d="M25 23C29.9706 23 34 18.9706 34 14C34 9.02944 29.9706 5 25 5C20.0294 5 16 9.02944 16 14C16 18.9706 20.0294 23 25 23ZM28.6 8.6L30.4 10.4L26.8 14L30.4 17.6L28.6 19.4L25 15.8L21.4 19.4L19.6 17.6L23.2 14L19.6 10.4L21.4 8.6L25 12.2L28.6 8.6Z" fill="#AD66BB"/></svg>