<svg xmlns="http://www.w3.org/2000/svg" viewBox="0 0 36 36" width="36" height="36" fill="#fff"><g fillRule="evenodd" clipRule="evenodd" d="M10.5975 18.3253H10.7564C10.8952 18.3227 11.0294 18.2748 11.1384 18.1887C11.2474 18.1027 11.3252 17.9833 11.3599 17.8489L14.187 6.30208C14.2409 6.0808 14.1727 5.84752 14.008 5.6902C13.8433 5.53287 13.6072 5.47539 13.3886 5.53934C13.17 5.6033 13.0021 5.77903 12.9482 6.00031L10.121 17.5471C10.0782 17.7136 10.1047 17.8904 10.1945 18.0371C10.2843 18.1837 10.4298 18.2878 10.5975 18.3253Z" fill="currentColor" stroke="currentColor" strokeLinecap="round" width="36" height="36"/><path fillRule="evenodd" clipRule="evenodd" d="M10.5975 18.3253H10.7564C10.8952 18.3227 11.0294 18.2748 11.1384 18.1887C11.2474 18.1027 11.3252 17.9833 11.3599 17.8489L14.187 6.30208C14.2409 6.0808 14.1727 5.84752 14.008 5.6902C13.8433 5.53287 13.6072 5.47539 13.3886 5.53934C13.17 5.6033 13.0021 5.77903 12.9482 6.00031L10.121 17.5471C10.0782 17.7136 10.1047 17.8904 10.1945 18.0371C10.2843 18.1837 10.4298 18.2878 10.5975 18.3253Z" fill="currentColor" stroke="currentColor" strokeLinecap="round" width="36" height="36"/><path d="M10.5975 18.3253H10.7564C10.8952 18.3227 11.0294 18.2748 11.1384 18.1887C11.2474 18.1027 11.3252 17.9833 11.3599 17.8489L14.187 6.30208C14.2409 6.0808 14.1727 5.84752 14.008 5.6902C13.8433 5.53287 13.6072 5.47539 13.3886 5.53934C13.17 5.6033 13.0021 5.77903 12.9482 6.00031L10.121 17.5471C10.0782 17.7136 10.1047 17.8904 10.1945 18.0371C10.2843 18.1837 10.4298 18.2878 10.5975 18.3253Z" fill="currentColor" stroke="currentColor" strokeLinecap="round" width="36" height="36"/><path d="M10.5975 18.3253H10.7564C10.8952 18.3227 11.0294 18.2748 11.1384 18.1887C11.2474 18.1027 11.3252 17.9833 11.3599 17.8489L14.187 6.30208C14.2409 6.0808 14.1727 5.84752 14.008 5.6902C13.8433 5.53287 13.6072 5.47539 13.3886 5.53934C13.17 5.6033 13.0021 5.77903 12.9482 6.00031L10.121 17.5471C10.0782 17.7136 10.1047 17.8904 10.1945 18.0371C10.2843 18.1837 10.4298 18.2878 10.5975 18.3253Z" stroke="currentColor" strokeLinecap="round" width="36" height="36" fill="currentColor"/><clipPath width="36" height="36" fill="currentColor"/><rect width="36" height="36" fill="currentColor"/></svg>