<svg xmlns="http://www.w3.org/2000/svg" viewBox="0 0 279 193" width="50.8428" height="50.864" fill="#fff"><g fill="currentColor" d="M107.638 108.85V98.7387H94.5728V108.85L94.7195 109.25L95.1759 110.198L96.0362 110.953L97.4422 111.335L99.0238 111.618L100.455 111.712H102.055L104.232 111.466L105.907 111.054L107.365 109.772L107.638 108.85Z" stroke="currentColor" strokeWidth="0.4" ae="" x="75.6836" y="69.6301" width="278.95" height="192.124" filterUnits="userSpaceOnUse" colorInterpolationFilters="sRGB" floodOpacity="0" result="shape" in="SourceGraphic" type="matrix" values="0 0 0 0 0 0 0 0 0 0 0 0 0 0 0 0 0 0 0.25 0" dy="4" stdDeviation="2" in2="effect1_dropShadow_109_171" operator="out" mode="normal"/><path fill="currentColor" d="M107.638 108.85V98.7387H94.5728V108.85L94.7195 109.25L95.1759 110.198L96.0362 110.953L97.4422 111.335L99.0238 111.618L100.455 111.712H102.055L104.232 111.466L105.907 111.054L107.365 109.772L107.638 108.85Z" stroke="currentColor" strokeWidth="0.4" ae="" x="75.6836" y="69.6301" width="278.95" height="192.124" filterUnits="userSpaceOnUse" colorInterpolationFilters="sRGB" floodOpacity="0" result="shape" in="SourceGraphic" type="matrix" values="0 0 0 0 0 0 0 0 0 0 0 0 0 0 0 0 0 0 0.25 0" dy="4" stdDeviation="2" in2="effect1_dropShadow_109_171" operator="out" mode="normal"/><path fill="currentColor" d="M107.638 108.85V98.7387H94.5728V108.85L94.7195 109.25L95.1759 110.198L96.0362 110.953L97.4422 111.335L99.0238 111.618L100.455 111.712H102.055L104.232 111.466L105.907 111.054L107.365 109.772L107.638 108.85Z" stroke="currentColor" strokeWidth="0.4" ae="" x="75.6836" y="69.6301" width="278.95" height="192.124" filterUnits="userSpaceOnUse" colorInterpolationFilters="sRGB" floodOpacity="0" result="shape" in="SourceGraphic" type="matrix" values="0 0 0 0 0 0 0 0 0 0 0 0 0 0 0 0 0 0 0.25 0" dy="4" stdDeviation="2" in2="effect1_dropShadow_109_171" operator="out" mode="normal"/><path fill="currentColor" d="M107.638 108.85V98.7387H94.5728V108.85L94.7195 109.25L95.1759 110.198L96.0362 110.953L97.4422 111.335L99.0238 111.618L100.455 111.712H102.055L104.232 111.466L105.907 111.054L107.365 109.772L107.638 108.85Z" stroke="currentColor" strokeWidth="0.4" ae="" x="75.6836" y="69.6301" width="278.95" height="192.124" filterUnits="userSpaceOnUse" colorInterpolationFilters="sRGB" floodOpacity="0" result="shape" in="SourceGraphic" type="matrix" values="0 0 0 0 0 0 0 0 0 0 0 0 0 0 0 0 0 0 0.25 0" dy="4" stdDeviation="2" in2="effect1_dropShadow_109_171" operator="out" mode="normal"/><path fill="currentColor" d="M107.638 108.85V98.7387H94.5728V108.85L94.7195 109.25L95.1759 110.198L96.0362 110.953L97.4422 111.335L99.0238 111.618L100.455 111.712H102.055L104.232 111.466L105.907 111.054L107.365 109.772L107.638 108.85Z" stroke="currentColor" strokeWidth="0.4" ae="" x="75.6836" y="69.6301" width="278.95" height="192.124" filterUnits="userSpaceOnUse" colorInterpolationFilters="sRGB" floodOpacity="0" result="shape" in="SourceGraphic" type="matrix" values="0 0 0 0 0 0 0 0 0 0 0 0 0 0 0 0 0 0 0.25 0" dy="4" stdDeviation="2" in2="effect1_dropShadow_109_171" operator="out" mode="normal"/><path fill="currentColor" d="M107.638 108.85V98.7387H94.5728V108.85L94.7195 109.25L95.1759 110.198L96.0362 110.953L97.4422 111.335L99.0238 111.618L100.455 111.712H102.055L104.232 111.466L105.907 111.054L107.365 109.772L107.638 108.85Z" stroke="currentColor" strokeWidth="0.4" ae="" x="75.6836" y="69.6301" width="278.95" height="192.124" filterUnits="userSpaceOnUse" colorInterpolationFilters="sRGB" floodOpacity="0" result="shape" in="SourceGraphic" type="matrix" values="0 0 0 0 0 0 0 0 0 0 0 0 0 0 0 0 0 0 0.25 0" dy="4" stdDeviation="2" in2="effect1_dropShadow_109_171" operator="out" mode="normal"/><path fill="currentColor" d="M107.638 108.85V98.7387H94.5728V108.85L94.7195 109.25L95.1759 110.198L96.0362 110.953L97.4422 111.335L99.0238 111.618L100.455 111.712H102.055L104.232 111.466L105.907 111.054L107.365 109.772L107.638 108.85Z" stroke="currentColor" strokeWidth="0.4" ae="" x="75.6836" y="69.6301" width="278.95" height="192.124" filterUnits="userSpaceOnUse" colorInterpolationFilters="sRGB" floodOpacity="0" result="shape" in="SourceGraphic" type="matrix" values="0 0 0 0 0 0 0 0 0 0 0 0 0 0 0 0 0 0 0.25 0" dy="4" stdDeviation="2" in2="effect1_dropShadow_109_171" operator="out" mode="normal"/><path fill="currentColor" d="M175.844 32.9402H171.14V33.6862H175.844V32.9402Z"/><path fill="currentColor" d="M107.638 108.85V98.7387H94.5728V108.85L94.7195 109.25L95.1759 110.198L96.0362 110.953L97.4422 111.335L99.0238 111.618L100.455 111.712H102.055L104.232 111.466L105.907 111.054L107.365 109.772L107.638 108.85Z" stroke="currentColor" strokeWidth="0.4" ae="" x="75.6836" y="69.6301" width="278.95" height="192.124" filterUnits="userSpaceOnUse" colorInterpolationFilters="sRGB" floodOpacity="0" result="shape" in="SourceGraphic" type="matrix" values="0 0 0 0 0 0 0 0 0 0 0 0 0 0 0 0 0 0 0.25 0" dy="4" stdDeviation="2" in2="effect1_dropShadow_109_171" operator="out" mode="normal"/><path fill="currentColor"/><path fill="currentColor"/><path fill="currentColor" d="M107.638 108.85V98.7387H94.5728V108.85L94.7195 109.25L95.1759 110.198L96.0362 110.953L97.4422 111.335L99.0238 111.618L100.455 111.712H102.055L104.232 111.466L105.907 111.054L107.365 109.772L107.638 108.85Z" stroke="currentColor" strokeWidth="0.4" ae="" x="75.6836" y="69.6301" width="278.95" height="192.124" filterUnits="userSpaceOnUse" colorInterpolationFilters="sRGB" floodOpacity="0" result="shape" in="SourceGraphic" type="matrix" values="0 0 0 0 0 0 0 0 0 0 0 0 0 0 0 0 0 0 0.25 0" dy="4" stdDeviation="2" in2="effect1_dropShadow_109_171" operator="out" mode="normal"/><path fill="currentColor" d="M107.638 108.85V98.7387H94.5728V108.85L94.7195 109.25L95.1759 110.198L96.0362 110.953L97.4422 111.335L99.0238 111.618L100.455 111.712H102.055L104.232 111.466L105.907 111.054L107.365 109.772L107.638 108.85Z" stroke="currentColor" strokeWidth="0.4" ae="" x="75.6836" y="69.6301" width="278.95" height="192.124" filterUnits="userSpaceOnUse" colorInterpolationFilters="sRGB" floodOpacity="0" result="shape" in="SourceGraphic" type="matrix" values="0 0 0 0 0 0 0 0 0 0 0 0 0 0 0 0 0 0 0.25 0" dy="4" stdDeviation="2" in2="effect1_dropShadow_109_171" operator="out" mode="normal"/><path fill="currentColor"/><path fill="currentColor" d="M107.638 108.85V98.7387H94.5728V108.85L94.7195 109.25L95.1759 110.198L96.0362 110.953L97.4422 111.335L99.0238 111.618L100.455 111.712H102.055L104.232 111.466L105.907 111.054L107.365 109.772L107.638 108.85Z" stroke="currentColor" strokeWidth="0.4" ae="" x="75.6836" y="69.6301" width="278.95" height="192.124" filterUnits="userSpaceOnUse" colorInterpolationFilters="sRGB" floodOpacity="0" result="shape" in="SourceGraphic" type="matrix" values="0 0 0 0 0 0 0 0 0 0 0 0 0 0 0 0 0 0 0.25 0" dy="4" stdDeviation="2" in2="effect1_dropShadow_109_171" operator="out" mode="normal"/><path fill="currentColor" d="M107.638 108.85V98.7387H94.5728V108.85L94.7195 109.25L95.1759 110.198L96.0362 110.953L97.4422 111.335L99.0238 111.618L100.455 111.712H102.055L104.232 111.466L105.907 111.054L107.365 109.772L107.638 108.85Z" stroke="currentColor" strokeWidth="0.4" ae="" x="75.6836" y="69.6301" width="278.95" height="192.124" filterUnits="userSpaceOnUse" colorInterpolationFilters="sRGB" floodOpacity="0" result="shape" in="SourceGraphic" type="matrix" values="0 0 0 0 0 0 0 0 0 0 0 0 0 0 0 0 0 0 0.25 0" dy="4" stdDeviation="2" in2="effect1_dropShadow_109_171" operator="out" mode="normal"/><path fill="currentColor"/><path fill="currentColor" d="M107.638 108.85V98.7387H94.5728V108.85L94.7195 109.25L95.1759 110.198L96.0362 110.953L97.4422 111.335L99.0238 111.618L100.455 111.712H102.055L104.232 111.466L105.907 111.054L107.365 109.772L107.638 108.85Z" stroke="currentColor" strokeWidth="0.4" ae="" x="75.6836" y="69.6301" width="278.95" height="192.124" filterUnits="userSpaceOnUse" colorInterpolationFilters="sRGB" floodOpacity="0" result="shape" in="SourceGraphic" type="matrix" values="0 0 0 0 0 0 0 0 0 0 0 0 0 0 0 0 0 0 0.25 0" dy="4" stdDeviation="2" in2="effect1_dropShadow_109_171" operator="out" mode="normal"/><path fill="currentColor" d="M107.638 108.85V98.7387H94.5728V108.85L94.7195 109.25L95.1759 110.198L96.0362 110.953L97.4422 111.335L99.0238 111.618L100.455 111.712H102.055L104.232 111.466L105.907 111.054L107.365 109.772L107.638 108.85Z" stroke="currentColor" strokeWidth="0.4" ae="" x="75.6836" y="69.6301" width="278.95" height="192.124" filterUnits="userSpaceOnUse" colorInterpolationFilters="sRGB" floodOpacity="0" result="shape" in="SourceGraphic" type="matrix" values="0 0 0 0 0 0 0 0 0 0 0 0 0 0 0 0 0 0 0.25 0" dy="4" stdDeviation="2" in2="effect1_dropShadow_109_171" operator="out" mode="normal"/><path fill="currentColor" d="M107.638 108.85V98.7387H94.5728V108.85L94.7195 109.25L95.1759 110.198L96.0362 110.953L97.4422 111.335L99.0238 111.618L100.455 111.712H102.055L104.232 111.466L105.907 111.054L107.365 109.772L107.638 108.85Z" stroke="currentColor" strokeWidth="0.4" ae="" x="75.6836" y="69.6301" width="278.95" height="192.124" filterUnits="userSpaceOnUse" colorInterpolationFilters="sRGB" floodOpacity="0" result="shape" in="SourceGraphic" type="matrix" values="0 0 0 0 0 0 0 0 0 0 0 0 0 0 0 0 0 0 0.25 0" dy="4" stdDeviation="2" in2="effect1_dropShadow_109_171" operator="out" mode="normal"/><path fill="currentColor" d="M107.638 108.85V98.7387H94.5728V108.85L94.7195 109.25L95.1759 110.198L96.0362 110.953L97.4422 111.335L99.0238 111.618L100.455 111.712H102.055L104.232 111.466L105.907 111.054L107.365 109.772L107.638 108.85Z" stroke="currentColor" strokeWidth="0.4" ae="" x="75.6836" y="69.6301" width="278.95" height="192.124" filterUnits="userSpaceOnUse" colorInterpolationFilters="sRGB" floodOpacity="0" result="shape" in="SourceGraphic" type="matrix" values="0 0 0 0 0 0 0 0 0 0 0 0 0 0 0 0 0 0 0.25 0" dy="4" stdDeviation="2" in2="effect1_dropShadow_109_171" operator="out" mode="normal"/><path fill="currentColor" d="M107.638 108.85V98.7387H94.5728V108.85L94.7195 109.25L95.1759 110.198L96.0362 110.953L97.4422 111.335L99.0238 111.618L100.455 111.712H102.055L104.232 111.466L105.907 111.054L107.365 109.772L107.638 108.85Z" stroke="currentColor" strokeWidth="0.4" ae="" x="75.6836" y="69.6301" width="278.95" height="192.124" filterUnits="userSpaceOnUse" colorInterpolationFilters="sRGB" floodOpacity="0" result="shape" in="SourceGraphic" type="matrix" values="0 0 0 0 0 0 0 0 0 0 0 0 0 0 0 0 0 0 0.25 0" dy="4" stdDeviation="2" in2="effect1_dropShadow_109_171" operator="out" mode="normal"/><path fill="currentColor" d="M107.638 108.85V98.7387H94.5728V108.85L94.7195 109.25L95.1759 110.198L96.0362 110.953L97.4422 111.335L99.0238 111.618L100.455 111.712H102.055L104.232 111.466L105.907 111.054L107.365 109.772L107.638 108.85Z" stroke="currentColor" strokeWidth="0.4" ae="" x="75.6836" y="69.6301" width="278.95" height="192.124" filterUnits="userSpaceOnUse" colorInterpolationFilters="sRGB" floodOpacity="0" result="shape" in="SourceGraphic" type="matrix" values="0 0 0 0 0 0 0 0 0 0 0 0 0 0 0 0 0 0 0.25 0" dy="4" stdDeviation="2" in2="effect1_dropShadow_109_171" operator="out" mode="normal"/><g stroke="currentColor" strokeWidth="0.4" d="M107.638 108.85V98.7387H94.5728V108.85L94.7195 109.25L95.1759 110.198L96.0362 110.953L97.4422 111.335L99.0238 111.618L100.455 111.712H102.055L104.232 111.466L105.907 111.054L107.365 109.772L107.638 108.85Z" fill="currentColor" ae="" x="75.6836" y="69.6301" width="278.95" height="192.124" filterUnits="userSpaceOnUse" colorInterpolationFilters="sRGB" floodOpacity="0" result="shape" in="SourceGraphic" type="matrix" values="0 0 0 0 0 0 0 0 0 0 0 0 0 0 0 0 0 0 0.25 0" dy="4" stdDeviation="2" in2="effect1_dropShadow_109_171" operator="out" mode="normal"/><path stroke="currentColor" strokeWidth="0.4" d="M107.638 108.85V98.7387H94.5728V108.85L94.7195 109.25L95.1759 110.198L96.0362 110.953L97.4422 111.335L99.0238 111.618L100.455 111.712H102.055L104.232 111.466L105.907 111.054L107.365 109.772L107.638 108.85Z" fill="currentColor" ae="" x="75.6836" y="69.6301" width="278.95" height="192.124" filterUnits="userSpaceOnUse" colorInterpolationFilters="sRGB" floodOpacity="0" result="shape" in="SourceGraphic" type="matrix" values="0 0 0 0 0 0 0 0 0 0 0 0 0 0 0 0 0 0 0.25 0" dy="4" stdDeviation="2" in2="effect1_dropShadow_109_171" operator="out" mode="normal"/><path stroke="currentColor" strokeWidth="0.4" d="M107.638 108.85V98.7387H94.5728V108.85L94.7195 109.25L95.1759 110.198L96.0362 110.953L97.4422 111.335L99.0238 111.618L100.455 111.712H102.055L104.232 111.466L105.907 111.054L107.365 109.772L107.638 108.85Z" fill="currentColor" ae="" x="75.6836" y="69.6301" width="278.95" height="192.124" filterUnits="userSpaceOnUse" colorInterpolationFilters="sRGB" floodOpacity="0" result="shape" in="SourceGraphic" type="matrix" values="0 0 0 0 0 0 0 0 0 0 0 0 0 0 0 0 0 0 0.25 0" dy="4" stdDeviation="2" in2="effect1_dropShadow_109_171" operator="out" mode="normal"/><path stroke="currentColor" strokeWidth="0.4" d="M107.638 108.85V98.7387H94.5728V108.85L94.7195 109.25L95.1759 110.198L96.0362 110.953L97.4422 111.335L99.0238 111.618L100.455 111.712H102.055L104.232 111.466L105.907 111.054L107.365 109.772L107.638 108.85Z" fill="currentColor" ae="" x="75.6836" y="69.6301" width="278.95" height="192.124" filterUnits="userSpaceOnUse" colorInterpolationFilters="sRGB" floodOpacity="0" result="shape" in="SourceGraphic" type="matrix" values="0 0 0 0 0 0 0 0 0 0 0 0 0 0 0 0 0 0 0.25 0" dy="4" stdDeviation="2" in2="effect1_dropShadow_109_171" operator="out" mode="normal"/><path stroke="currentColor" strokeWidth="0.4" d="M107.638 108.85V98.7387H94.5728V108.85L94.7195 109.25L95.1759 110.198L96.0362 110.953L97.4422 111.335L99.0238 111.618L100.455 111.712H102.055L104.232 111.466L105.907 111.054L107.365 109.772L107.638 108.85Z" fill="currentColor" ae="" x="75.6836" y="69.6301" width="278.95" height="192.124" filterUnits="userSpaceOnUse" colorInterpolationFilters="sRGB" floodOpacity="0" result="shape" in="SourceGraphic" type="matrix" values="0 0 0 0 0 0 0 0 0 0 0 0 0 0 0 0 0 0 0.25 0" dy="4" stdDeviation="2" in2="effect1_dropShadow_109_171" operator="out" mode="normal"/><path stroke="currentColor" strokeWidth="0.4" d="M107.638 108.85V98.7387H94.5728V108.85L94.7195 109.25L95.1759 110.198L96.0362 110.953L97.4422 111.335L99.0238 111.618L100.455 111.712H102.055L104.232 111.466L105.907 111.054L107.365 109.772L107.638 108.85Z" fill="currentColor" ae="" x="75.6836" y="69.6301" width="278.95" height="192.124" filterUnits="userSpaceOnUse" colorInterpolationFilters="sRGB" floodOpacity="0" result="shape" in="SourceGraphic" type="matrix" values="0 0 0 0 0 0 0 0 0 0 0 0 0 0 0 0 0 0 0.25 0" dy="4" stdDeviation="2" in2="effect1_dropShadow_109_171" operator="out" mode="normal"/><path stroke="currentColor" strokeWidth="0.4" d="M107.638 108.85V98.7387H94.5728V108.85L94.7195 109.25L95.1759 110.198L96.0362 110.953L97.4422 111.335L99.0238 111.618L100.455 111.712H102.055L104.232 111.466L105.907 111.054L107.365 109.772L107.638 108.85Z" fill="currentColor" ae="" x="75.6836" y="69.6301" width="278.95" height="192.124" filterUnits="userSpaceOnUse" colorInterpolationFilters="sRGB" floodOpacity="0" result="shape" in="SourceGraphic" type="matrix" values="0 0 0 0 0 0 0 0 0 0 0 0 0 0 0 0 0 0 0.25 0" dy="4" stdDeviation="2" in2="effect1_dropShadow_109_171" operator="out" mode="normal"/><path stroke="currentColor" strokeWidth="0.4" d="M107.638 108.85V98.7387H94.5728V108.85L94.7195 109.25L95.1759 110.198L96.0362 110.953L97.4422 111.335L99.0238 111.618L100.455 111.712H102.055L104.232 111.466L105.907 111.054L107.365 109.772L107.638 108.85Z" fill="currentColor" ae="" x="75.6836" y="69.6301" width="278.95" height="192.124" filterUnits="userSpaceOnUse" colorInterpolationFilters="sRGB" floodOpacity="0" result="shape" in="SourceGraphic" type="matrix" values="0 0 0 0 0 0 0 0 0 0 0 0 0 0 0 0 0 0 0.25 0" dy="4" stdDeviation="2" in2="effect1_dropShadow_109_171" operator="out" mode="normal"/><path stroke="currentColor" strokeWidth="0.4" d="M107.638 108.85V98.7387H94.5728V108.85L94.7195 109.25L95.1759 110.198L96.0362 110.953L97.4422 111.335L99.0238 111.618L100.455 111.712H102.055L104.232 111.466L105.907 111.054L107.365 109.772L107.638 108.85Z" fill="currentColor" ae="" x="75.6836" y="69.6301" width="278.95" height="192.124" filterUnits="userSpaceOnUse" colorInterpolationFilters="sRGB" floodOpacity="0" result="shape" in="SourceGraphic" type="matrix" values="0 0 0 0 0 0 0 0 0 0 0 0 0 0 0 0 0 0 0.25 0" dy="4" stdDeviation="2" in2="effect1_dropShadow_109_171" operator="out" mode="normal"/><path stroke="currentColor" strokeWidth="0.4" d="M107.638 108.85V98.7387H94.5728V108.85L94.7195 109.25L95.1759 110.198L96.0362 110.953L97.4422 111.335L99.0238 111.618L100.455 111.712H102.055L104.232 111.466L105.907 111.054L107.365 109.772L107.638 108.85Z" fill="currentColor" ae="" x="75.6836" y="69.6301" width="278.95" height="192.124" filterUnits="userSpaceOnUse" colorInterpolationFilters="sRGB" floodOpacity="0" result="shape" in="SourceGraphic" type="matrix" values="0 0 0 0 0 0 0 0 0 0 0 0 0 0 0 0 0 0 0.25 0" dy="4" stdDeviation="2" in2="effect1_dropShadow_109_171" operator="out" mode="normal"/><path stroke="currentColor" strokeWidth="0.4" d="M107.638 108.85V98.7387H94.5728V108.85L94.7195 109.25L95.1759 110.198L96.0362 110.953L97.4422 111.335L99.0238 111.618L100.455 111.712H102.055L104.232 111.466L105.907 111.054L107.365 109.772L107.638 108.85Z" fill="currentColor" ae="" x="75.6836" y="69.6301" width="278.95" height="192.124" filterUnits="userSpaceOnUse" colorInterpolationFilters="sRGB" floodOpacity="0" result="shape" in="SourceGraphic" type="matrix" values="0 0 0 0 0 0 0 0 0 0 0 0 0 0 0 0 0 0 0.25 0" dy="4" stdDeviation="2" in2="effect1_dropShadow_109_171" operator="out" mode="normal"/><path stroke="currentColor" strokeWidth="0.4" d="M107.638 108.85V98.7387H94.5728V108.85L94.7195 109.25L95.1759 110.198L96.0362 110.953L97.4422 111.335L99.0238 111.618L100.455 111.712H102.055L104.232 111.466L105.907 111.054L107.365 109.772L107.638 108.85Z" fill="currentColor" ae="" x="75.6836" y="69.6301" width="278.95" height="192.124" filterUnits="userSpaceOnUse" colorInterpolationFilters="sRGB" floodOpacity="0" result="shape" in="SourceGraphic" type="matrix" values="0 0 0 0 0 0 0 0 0 0 0 0 0 0 0 0 0 0 0.25 0" dy="4" stdDeviation="2" in2="effect1_dropShadow_109_171" operator="out" mode="normal"/><path fill="currentColor" d="M107.638 108.85V98.7387H94.5728V108.85L94.7195 109.25L95.1759 110.198L96.0362 110.953L97.4422 111.335L99.0238 111.618L100.455 111.712H102.055L104.232 111.466L105.907 111.054L107.365 109.772L107.638 108.85Z" stroke="currentColor" strokeWidth="0.4" ae="" x="75.6836" y="69.6301" width="278.95" height="192.124" filterUnits="userSpaceOnUse" colorInterpolationFilters="sRGB" floodOpacity="0" result="shape" in="SourceGraphic" type="matrix" values="0 0 0 0 0 0 0 0 0 0 0 0 0 0 0 0 0 0 0.25 0" dy="4" stdDeviation="2" in2="effect1_dropShadow_109_171" operator="out" mode="normal"/><path stroke="currentColor" strokeWidth="0.4" d="M107.638 108.85V98.7387H94.5728V108.85L94.7195 109.25L95.1759 110.198L96.0362 110.953L97.4422 111.335L99.0238 111.618L100.455 111.712H102.055L104.232 111.466L105.907 111.054L107.365 109.772L107.638 108.85Z" fill="currentColor" ae="" x="75.6836" y="69.6301" width="278.95" height="192.124" filterUnits="userSpaceOnUse" colorInterpolationFilters="sRGB" floodOpacity="0" result="shape" in="SourceGraphic" type="matrix" values="0 0 0 0 0 0 0 0 0 0 0 0 0 0 0 0 0 0 0.25 0" dy="4" stdDeviation="2" in2="effect1_dropShadow_109_171" operator="out" mode="normal"/><path stroke="currentColor" strokeWidth="0.4" d="M107.638 108.85V98.7387H94.5728V108.85L94.7195 109.25L95.1759 110.198L96.0362 110.953L97.4422 111.335L99.0238 111.618L100.455 111.712H102.055L104.232 111.466L105.907 111.054L107.365 109.772L107.638 108.85Z" fill="currentColor" ae="" x="75.6836" y="69.6301" width="278.95" height="192.124" filterUnits="userSpaceOnUse" colorInterpolationFilters="sRGB" floodOpacity="0" result="shape" in="SourceGraphic" type="matrix" values="0 0 0 0 0 0 0 0 0 0 0 0 0 0 0 0 0 0 0.25 0" dy="4" stdDeviation="2" in2="effect1_dropShadow_109_171" operator="out" mode="normal"/><path fill="currentColor" ae="" d="M107.638 108.85V98.7387H94.5728V108.85L94.7195 109.25L95.1759 110.198L96.0362 110.953L97.4422 111.335L99.0238 111.618L100.455 111.712H102.055L104.232 111.466L105.907 111.054L107.365 109.772L107.638 108.85Z" stroke="currentColor" strokeWidth="0.4" x="75.6836" y="69.6301" width="278.95" height="192.124" filterUnits="userSpaceOnUse" colorInterpolationFilters="sRGB" floodOpacity="0" result="shape" in="SourceGraphic" type="matrix" values="0 0 0 0 0 0 0 0 0 0 0 0 0 0 0 0 0 0 0.25 0" dy="4" stdDeviation="2" in2="effect1_dropShadow_109_171" operator="out" mode="normal"/><path stroke="currentColor" strokeWidth="0.4" d="M107.638 108.85V98.7387H94.5728V108.85L94.7195 109.25L95.1759 110.198L96.0362 110.953L97.4422 111.335L99.0238 111.618L100.455 111.712H102.055L104.232 111.466L105.907 111.054L107.365 109.772L107.638 108.85Z" fill="currentColor" x="75.6836" y="69.6301" width="278.95" height="192.124" filterUnits="userSpaceOnUse" colorInterpolationFilters="sRGB" floodOpacity="0" result="shape" in="SourceGraphic" type="matrix" values="0 0 0 0 0 0 0 0 0 0 0 0 0 0 0 0 0 0 0.25 0" dy="4" stdDeviation="2" in2="effect1_dropShadow_109_171" operator="out" mode="normal"/><path stroke="currentColor" strokeWidth="0.4" d="M107.638 108.85V98.7387H94.5728V108.85L94.7195 109.25L95.1759 110.198L96.0362 110.953L97.4422 111.335L99.0238 111.618L100.455 111.712H102.055L104.232 111.466L105.907 111.054L107.365 109.772L107.638 108.85Z" fill="currentColor" x="75.6836" y="69.6301" width="278.95" height="192.124" filterUnits="userSpaceOnUse" colorInterpolationFilters="sRGB" floodOpacity="0" result="shape" in="SourceGraphic" type="matrix" values="0 0 0 0 0 0 0 0 0 0 0 0 0 0 0 0 0 0 0.25 0" dy="4" stdDeviation="2" in2="effect1_dropShadow_109_171" operator="out" mode="normal"/><path stroke="currentColor" fill="currentColor" d="M107.638 108.85V98.7387H94.5728V108.85L94.7195 109.25L95.1759 110.198L96.0362 110.953L97.4422 111.335L99.0238 111.618L100.455 111.712H102.055L104.232 111.466L105.907 111.054L107.365 109.772L107.638 108.85Z" strokeWidth="0.4" x="75.6836" y="69.6301" width="278.95" height="192.124" filterUnits="userSpaceOnUse" colorInterpolationFilters="sRGB" floodOpacity="0" result="shape" in="SourceGraphic" type="matrix" values="0 0 0 0 0 0 0 0 0 0 0 0 0 0 0 0 0 0 0.25 0" dy="4" stdDeviation="2" in2="effect1_dropShadow_109_171" operator="out" mode="normal"/><path stroke="currentColor" fill="currentColor" d="M107.638 108.85V98.7387H94.5728V108.85L94.7195 109.25L95.1759 110.198L96.0362 110.953L97.4422 111.335L99.0238 111.618L100.455 111.712H102.055L104.232 111.466L105.907 111.054L107.365 109.772L107.638 108.85Z" strokeWidth="0.4" x="75.6836" y="69.6301" width="278.95" height="192.124" filterUnits="userSpaceOnUse" colorInterpolationFilters="sRGB" floodOpacity="0" result="shape" in="SourceGraphic" type="matrix" values="0 0 0 0 0 0 0 0 0 0 0 0 0 0 0 0 0 0 0.25 0" dy="4" stdDeviation="2" in2="effect1_dropShadow_109_171" operator="out" mode="normal"/><path stroke="currentColor" fill="currentColor" d="M107.638 108.85V98.7387H94.5728V108.85L94.7195 109.25L95.1759 110.198L96.0362 110.953L97.4422 111.335L99.0238 111.618L100.455 111.712H102.055L104.232 111.466L105.907 111.054L107.365 109.772L107.638 108.85Z" strokeWidth="0.4" x="75.6836" y="69.6301" width="278.95" height="192.124" filterUnits="userSpaceOnUse" colorInterpolationFilters="sRGB" floodOpacity="0" result="shape" in="SourceGraphic" type="matrix" values="0 0 0 0 0 0 0 0 0 0 0 0 0 0 0 0 0 0 0.25 0" dy="4" stdDeviation="2" in2="effect1_dropShadow_109_171" operator="out" mode="normal"/><path d="M107.638 108.85V98.7387H94.5728V108.85L94.7195 109.25L95.1759 110.198L96.0362 110.953L97.4422 111.335L99.0238 111.618L100.455 111.712H102.055L104.232 111.466L105.907 111.054L107.365 109.772L107.638 108.85Z" x="75.6836" y="69.6301" width="278.95" height="192.124" filterUnits="userSpaceOnUse" colorInterpolationFilters="sRGB" floodOpacity="0" result="shape" in="SourceGraphic" type="matrix" values="0 0 0 0 0 0 0 0 0 0 0 0 0 0 0 0 0 0 0.25 0" dy="4" stdDeviation="2" in2="effect1_dropShadow_109_171" operator="out" mode="normal" fill="currentColor"/><path d="M107.638 108.85V98.7387H94.5728V108.85L94.7195 109.25L95.1759 110.198L96.0362 110.953L97.4422 111.335L99.0238 111.618L100.455 111.712H102.055L104.232 111.466L105.907 111.054L107.365 109.772L107.638 108.85Z" x="75.6836" y="69.6301" width="278.95" height="192.124" filterUnits="userSpaceOnUse" colorInterpolationFilters="sRGB" floodOpacity="0" result="shape" in="SourceGraphic" type="matrix" values="0 0 0 0 0 0 0 0 0 0 0 0 0 0 0 0 0 0 0.25 0" dy="4" stdDeviation="2" in2="effect1_dropShadow_109_171" operator="out" mode="normal" fill="currentColor"/><path d="M107.638 108.85V98.7387H94.5728V108.85L94.7195 109.25L95.1759 110.198L96.0362 110.953L97.4422 111.335L99.0238 111.618L100.455 111.712H102.055L104.232 111.466L105.907 111.054L107.365 109.772L107.638 108.85Z" x="75.6836" y="69.6301" width="278.95" height="192.124" filterUnits="userSpaceOnUse" colorInterpolationFilters="sRGB" floodOpacity="0" result="shape" in="SourceGraphic" type="matrix" values="0 0 0 0 0 0 0 0 0 0 0 0 0 0 0 0 0 0 0.25 0" dy="4" stdDeviation="2" in2="effect1_dropShadow_109_171" operator="out" mode="normal" fill="currentColor"/><path d="M107.638 108.85V98.7387H94.5728V108.85L94.7195 109.25L95.1759 110.198L96.0362 110.953L97.4422 111.335L99.0238 111.618L100.455 111.712H102.055L104.232 111.466L105.907 111.054L107.365 109.772L107.638 108.85Z" x="75.6836" y="69.6301" width="278.95" height="192.124" filterUnits="userSpaceOnUse" colorInterpolationFilters="sRGB" floodOpacity="0" result="shape" in="SourceGraphic" type="matrix" values="0 0 0 0 0 0 0 0 0 0 0 0 0 0 0 0 0 0 0.25 0" dy="4" stdDeviation="2" in2="effect1_dropShadow_109_171" operator="out" mode="normal" fill="currentColor"/><path d="M107.638 108.85V98.7387H94.5728V108.85L94.7195 109.25L95.1759 110.198L96.0362 110.953L97.4422 111.335L99.0238 111.618L100.455 111.712H102.055L104.232 111.466L105.907 111.054L107.365 109.772L107.638 108.85Z" x="75.6836" y="69.6301" width="278.95" height="192.124" filterUnits="userSpaceOnUse" colorInterpolationFilters="sRGB" floodOpacity="0" result="shape" in="SourceGraphic" type="matrix" values="0 0 0 0 0 0 0 0 0 0 0 0 0 0 0 0 0 0 0.25 0" dy="4" stdDeviation="2" in2="effect1_dropShadow_109_171" operator="out" mode="normal" fill="currentColor"/><path d="M107.638 108.85V98.7387H94.5728V108.85L94.7195 109.25L95.1759 110.198L96.0362 110.953L97.4422 111.335L99.0238 111.618L100.455 111.712H102.055L104.232 111.466L105.907 111.054L107.365 109.772L107.638 108.85Z" x="75.6836" y="69.6301" width="278.95" height="192.124" filterUnits="userSpaceOnUse" colorInterpolationFilters="sRGB" floodOpacity="0" result="shape" in="SourceGraphic" type="matrix" values="0 0 0 0 0 0 0 0 0 0 0 0 0 0 0 0 0 0 0.25 0" dy="4" stdDeviation="2" in2="effect1_dropShadow_109_171" operator="out" mode="normal" fill="currentColor"/><defs x="75.6836" y="69.6301" width="278.95" height="192.124" filterUnits="userSpaceOnUse" colorInterpolationFilters="sRGB" floodOpacity="0" result="shape" in="SourceGraphic" type="matrix" values="0 0 0 0 0 0 0 0 0 0 0 0 0 0 0 0 0 0 0.25 0" dy="4" stdDeviation="2" in2="effect1_dropShadow_109_171" operator="out" mode="normal" fill="currentColor"/><filter x="75.6836" y="69.6301" width="278.95" height="192.124" filterUnits="userSpaceOnUse" colorInterpolationFilters="sRGB" floodOpacity="0" result="shape" in="SourceGraphic" type="matrix" values="0 0 0 0 0 0 0 0 0 0 0 0 0 0 0 0 0 0 0.25 0" dy="4" stdDeviation="2" in2="effect1_dropShadow_109_171" operator="out" mode="normal" fill="currentColor"/><feFlood floodOpacity="0" result="shape" in="SourceGraphic" type="matrix" values="0 0 0 0 0 0 0 0 0 0 0 0 0 0 0 0 0 0 0.25 0" dy="4" stdDeviation="2" in2="effect1_dropShadow_109_171" operator="out" mode="normal" fill="currentColor" width="278.95" height="192.124"/><feColorMatrix in="SourceGraphic" type="matrix" values="0 0 0 0 0 0 0 0 0 0 0 0 0 0 0 0 0 0 0.25 0" result="shape" dy="4" stdDeviation="2" in2="effect1_dropShadow_109_171" operator="out" mode="normal" fill="currentColor" width="278.95" height="192.124"/><feOffset dy="4" stdDeviation="2" in2="effect1_dropShadow_109_171" operator="out" type="matrix" values="0 0 0 0 0 0 0 0 0 0 0 0 0 0 0 0 0 0 0.25 0" mode="normal" result="shape" in="SourceGraphic" fill="currentColor" width="278.95" height="192.124"/><feGaussianBlur stdDeviation="2" in2="effect1_dropShadow_109_171" operator="out" type="matrix" values="0 0 0 0 0 0 0 0 0 0 0 0 0 0 0 0 0 0 0.25 0" mode="normal" result="shape" in="SourceGraphic" fill="currentColor" width="278.95" height="192.124"/><feComposite in2="effect1_dropShadow_109_171" operator="out" type="matrix" values="0 0 0 0 0 0 0 0 0 0 0 0 0 0 0 0 0 0 0.25 0" mode="normal" result="shape" in="SourceGraphic" fill="currentColor" width="278.95" height="192.124"/><feColorMatrix type="matrix" values="0 0 0 0 0 0 0 0 0 0 0 0 0 0 0 0 0 0 0.25 0" mode="normal" in2="effect1_dropShadow_109_171" result="shape" in="SourceGraphic" fill="currentColor" width="278.95" height="192.124"/><feBlend mode="normal" in2="effect1_dropShadow_109_171" result="shape" in="SourceGraphic" fill="currentColor" width="278.95" height="192.124"/><feBlend mode="normal" in="SourceGraphic" in2="effect1_dropShadow_109_171" result="shape" fill="currentColor" width="278.95" height="192.124"/><clipPath fill="currentColor" width="278.95" height="192.124"/><rect fill="currentColor" width="278.95" height="192.124"/></svg>