<svg xmlns="http://www.w3.org/2000/svg" viewBox="0 0 405 290" width="405" height="290" fill="#fff"><g stroke="currentColor" d="M403.534 216.097C403.428 195.172 399.537 174.247 395.381 153.746C391.011 132.185 385.522 110.889 379.606 89.6987C374.17 70.1509 369.694 48.3251 358.129 31.585C356.534 29.2623 354.127 26.75 354.127 26.75C354.127 26.75 353.436 24.2889 352.321 21.9965C344.327 5.73316 324.769 0.91244 307.608 0.753514C302.119 0.753514 292.42 1.17731 290.182 7.00457C284.267 7.00457 278.351 6.79268 272.436 6.58077C266.787 6.42185 261.084 6.20995 255.382 6.05102C237.743 5.62722 220.05 5.36235 202.41 5.2564C202.303 5.2564 202.25 5.2564 202.143 5.2564C202.037 5.2564 201.984 5.2564 201.877 5.2564C184.184 5.36235 166.544 5.62722 148.905 6.05102C143.202 6.20995 137.5 6.42185 131.851 6.58077C125.936 6.79268 120.949 6.95159 115.034 7.00457C112.742 1.17731 102.167 0.700539 96.6784 0.753514C79.465 0.859464 59.9601 5.68019 51.9663 21.9965C50.8257 24.2889 50.3731 26.75 50.3731 26.75C50.3731 26.75 47.7532 29.2623 46.1575 31.585C34.5931 48.3251 30.1698 70.1509 24.6808 89.6987C18.7653 110.889 13.2763 132.185 8.90632 153.746C4.74953 174.247 0.859186 195.172 0.752602 216.097C0.592726 244.757 7.73387 280.038 40.5618 287.137C58.4146 291.004 69.4461 288.514 77.4399 271.88C84.8475 256.358 92.7348 229.765 113.305 228.123C125.829 227.116 140.484 228.282 153.275 228.123C169.582 227.911 185.943 227.858 202.25 227.858C218.611 227.858 234.918 227.964 251.225 228.123C264.016 228.282 278.671 227.116 291.194 228.123C311.765 229.765 319.652 256.358 327.06 271.88C335.001 288.514 346.085 291.057 363.938 287.137C396.713 279.985 403.907 244.757 403.747 216.097H403.534Z" strokeWidth="1.5" opacity="0.3" strokeMiterlimit="10" fill="currentColor" width="405" height="290"/><path stroke="currentColor" d="M403.534 216.097C403.428 195.172 399.537 174.247 395.381 153.746C391.011 132.185 385.522 110.889 379.606 89.6987C374.17 70.1509 369.694 48.3251 358.129 31.585C356.534 29.2623 354.127 26.75 354.127 26.75C354.127 26.75 353.436 24.2889 352.321 21.9965C344.327 5.73316 324.769 0.91244 307.608 0.753514C302.119 0.753514 292.42 1.17731 290.182 7.00457C284.267 7.00457 278.351 6.79268 272.436 6.58077C266.787 6.42185 261.084 6.20995 255.382 6.05102C237.743 5.62722 220.05 5.36235 202.41 5.2564C202.303 5.2564 202.25 5.2564 202.143 5.2564C202.037 5.2564 201.984 5.2564 201.877 5.2564C184.184 5.36235 166.544 5.62722 148.905 6.05102C143.202 6.20995 137.5 6.42185 131.851 6.58077C125.936 6.79268 120.949 6.95159 115.034 7.00457C112.742 1.17731 102.167 0.700539 96.6784 0.753514C79.465 0.859464 59.9601 5.68019 51.9663 21.9965C50.8257 24.2889 50.3731 26.75 50.3731 26.75C50.3731 26.75 47.7532 29.2623 46.1575 31.585C34.5931 48.3251 30.1698 70.1509 24.6808 89.6987C18.7653 110.889 13.2763 132.185 8.90632 153.746C4.74953 174.247 0.859186 195.172 0.752602 216.097C0.592726 244.757 7.73387 280.038 40.5618 287.137C58.4146 291.004 69.4461 288.514 77.4399 271.88C84.8475 256.358 92.7348 229.765 113.305 228.123C125.829 227.116 140.484 228.282 153.275 228.123C169.582 227.911 185.943 227.858 202.25 227.858C218.611 227.858 234.918 227.964 251.225 228.123C264.016 228.282 278.671 227.116 291.194 228.123C311.765 229.765 319.652 256.358 327.06 271.88C335.001 288.514 346.085 291.057 363.938 287.137C396.713 279.985 403.907 244.757 403.747 216.097H403.534Z" strokeWidth="1.5" opacity="0.3" strokeMiterlimit="10" fill="currentColor" width="405" height="290"/><g opacity="0.3" stroke="currentColor" d="M356.75 105.5C359.373 105.5 361.5 103.373 361.5 100.75C361.5 98.1266 359.373 96 356.75 96C354.127 96 352 98.1266 352 100.75C352 103.373 354.127 105.5 356.75 105.5Z" strokeWidth="0.5"/><path stroke="currentColor" d="M403.534 216.097C403.428 195.172 399.537 174.247 395.381 153.746C391.011 132.185 385.522 110.889 379.606 89.6987C374.17 70.1509 369.694 48.3251 358.129 31.585C356.534 29.2623 354.127 26.75 354.127 26.75C354.127 26.75 353.436 24.2889 352.321 21.9965C344.327 5.73316 324.769 0.91244 307.608 0.753514C302.119 0.753514 292.42 1.17731 290.182 7.00457C284.267 7.00457 278.351 6.79268 272.436 6.58077C266.787 6.42185 261.084 6.20995 255.382 6.05102C237.743 5.62722 220.05 5.36235 202.41 5.2564C202.303 5.2564 202.25 5.2564 202.143 5.2564C202.037 5.2564 201.984 5.2564 201.877 5.2564C184.184 5.36235 166.544 5.62722 148.905 6.05102C143.202 6.20995 137.5 6.42185 131.851 6.58077C125.936 6.79268 120.949 6.95159 115.034 7.00457C112.742 1.17731 102.167 0.700539 96.6784 0.753514C79.465 0.859464 59.9601 5.68019 51.9663 21.9965C50.8257 24.2889 50.3731 26.75 50.3731 26.75C50.3731 26.75 47.7532 29.2623 46.1575 31.585C34.5931 48.3251 30.1698 70.1509 24.6808 89.6987C18.7653 110.889 13.2763 132.185 8.90632 153.746C4.74953 174.247 0.859186 195.172 0.752602 216.097C0.592726 244.757 7.73387 280.038 40.5618 287.137C58.4146 291.004 69.4461 288.514 77.4399 271.88C84.8475 256.358 92.7348 229.765 113.305 228.123C125.829 227.116 140.484 228.282 153.275 228.123C169.582 227.911 185.943 227.858 202.25 227.858C218.611 227.858 234.918 227.964 251.225 228.123C264.016 228.282 278.671 227.116 291.194 228.123C311.765 229.765 319.652 256.358 327.06 271.88C335.001 288.514 346.085 291.057 363.938 287.137C396.713 279.985 403.907 244.757 403.747 216.097H403.534Z" strokeWidth="1.5" opacity="0.3" strokeMiterlimit="10" fill="currentColor" width="405" height="290"/><path stroke="currentColor" d="M403.534 216.097C403.428 195.172 399.537 174.247 395.381 153.746C391.011 132.185 385.522 110.889 379.606 89.6987C374.17 70.1509 369.694 48.3251 358.129 31.585C356.534 29.2623 354.127 26.75 354.127 26.75C354.127 26.75 353.436 24.2889 352.321 21.9965C344.327 5.73316 324.769 0.91244 307.608 0.753514C302.119 0.753514 292.42 1.17731 290.182 7.00457C284.267 7.00457 278.351 6.79268 272.436 6.58077C266.787 6.42185 261.084 6.20995 255.382 6.05102C237.743 5.62722 220.05 5.36235 202.41 5.2564C202.303 5.2564 202.25 5.2564 202.143 5.2564C202.037 5.2564 201.984 5.2564 201.877 5.2564C184.184 5.36235 166.544 5.62722 148.905 6.05102C143.202 6.20995 137.5 6.42185 131.851 6.58077C125.936 6.79268 120.949 6.95159 115.034 7.00457C112.742 1.17731 102.167 0.700539 96.6784 0.753514C79.465 0.859464 59.9601 5.68019 51.9663 21.9965C50.8257 24.2889 50.3731 26.75 50.3731 26.75C50.3731 26.75 47.7532 29.2623 46.1575 31.585C34.5931 48.3251 30.1698 70.1509 24.6808 89.6987C18.7653 110.889 13.2763 132.185 8.90632 153.746C4.74953 174.247 0.859186 195.172 0.752602 216.097C0.592726 244.757 7.73387 280.038 40.5618 287.137C58.4146 291.004 69.4461 288.514 77.4399 271.88C84.8475 256.358 92.7348 229.765 113.305 228.123C125.829 227.116 140.484 228.282 153.275 228.123C169.582 227.911 185.943 227.858 202.25 227.858C218.611 227.858 234.918 227.964 251.225 228.123C264.016 228.282 278.671 227.116 291.194 228.123C311.765 229.765 319.652 256.358 327.06 271.88C335.001 288.514 346.085 291.057 363.938 287.137C396.713 279.985 403.907 244.757 403.747 216.097H403.534Z" strokeWidth="1.5" opacity="0.3" strokeMiterlimit="10" fill="currentColor" width="405" height="290"/><path stroke="currentColor" d="M403.534 216.097C403.428 195.172 399.537 174.247 395.381 153.746C391.011 132.185 385.522 110.889 379.606 89.6987C374.17 70.1509 369.694 48.3251 358.129 31.585C356.534 29.2623 354.127 26.75 354.127 26.75C354.127 26.75 353.436 24.2889 352.321 21.9965C344.327 5.73316 324.769 0.91244 307.608 0.753514C302.119 0.753514 292.42 1.17731 290.182 7.00457C284.267 7.00457 278.351 6.79268 272.436 6.58077C266.787 6.42185 261.084 6.20995 255.382 6.05102C237.743 5.62722 220.05 5.36235 202.41 5.2564C202.303 5.2564 202.25 5.2564 202.143 5.2564C202.037 5.2564 201.984 5.2564 201.877 5.2564C184.184 5.36235 166.544 5.62722 148.905 6.05102C143.202 6.20995 137.5 6.42185 131.851 6.58077C125.936 6.79268 120.949 6.95159 115.034 7.00457C112.742 1.17731 102.167 0.700539 96.6784 0.753514C79.465 0.859464 59.9601 5.68019 51.9663 21.9965C50.8257 24.2889 50.3731 26.75 50.3731 26.75C50.3731 26.75 47.7532 29.2623 46.1575 31.585C34.5931 48.3251 30.1698 70.1509 24.6808 89.6987C18.7653 110.889 13.2763 132.185 8.90632 153.746C4.74953 174.247 0.859186 195.172 0.752602 216.097C0.592726 244.757 7.73387 280.038 40.5618 287.137C58.4146 291.004 69.4461 288.514 77.4399 271.88C84.8475 256.358 92.7348 229.765 113.305 228.123C125.829 227.116 140.484 228.282 153.275 228.123C169.582 227.911 185.943 227.858 202.25 227.858C218.611 227.858 234.918 227.964 251.225 228.123C264.016 228.282 278.671 227.116 291.194 228.123C311.765 229.765 319.652 256.358 327.06 271.88C335.001 288.514 346.085 291.057 363.938 287.137C396.713 279.985 403.907 244.757 403.747 216.097H403.534Z" strokeWidth="1.5" opacity="0.3" strokeMiterlimit="10" fill="currentColor" width="405" height="290"/><path stroke="currentColor" d="M403.534 216.097C403.428 195.172 399.537 174.247 395.381 153.746C391.011 132.185 385.522 110.889 379.606 89.6987C374.17 70.1509 369.694 48.3251 358.129 31.585C356.534 29.2623 354.127 26.75 354.127 26.75C354.127 26.75 353.436 24.2889 352.321 21.9965C344.327 5.73316 324.769 0.91244 307.608 0.753514C302.119 0.753514 292.42 1.17731 290.182 7.00457C284.267 7.00457 278.351 6.79268 272.436 6.58077C266.787 6.42185 261.084 6.20995 255.382 6.05102C237.743 5.62722 220.05 5.36235 202.41 5.2564C202.303 5.2564 202.25 5.2564 202.143 5.2564C202.037 5.2564 201.984 5.2564 201.877 5.2564C184.184 5.36235 166.544 5.62722 148.905 6.05102C143.202 6.20995 137.5 6.42185 131.851 6.58077C125.936 6.79268 120.949 6.95159 115.034 7.00457C112.742 1.17731 102.167 0.700539 96.6784 0.753514C79.465 0.859464 59.9601 5.68019 51.9663 21.9965C50.8257 24.2889 50.3731 26.75 50.3731 26.75C50.3731 26.75 47.7532 29.2623 46.1575 31.585C34.5931 48.3251 30.1698 70.1509 24.6808 89.6987C18.7653 110.889 13.2763 132.185 8.90632 153.746C4.74953 174.247 0.859186 195.172 0.752602 216.097C0.592726 244.757 7.73387 280.038 40.5618 287.137C58.4146 291.004 69.4461 288.514 77.4399 271.88C84.8475 256.358 92.7348 229.765 113.305 228.123C125.829 227.116 140.484 228.282 153.275 228.123C169.582 227.911 185.943 227.858 202.25 227.858C218.611 227.858 234.918 227.964 251.225 228.123C264.016 228.282 278.671 227.116 291.194 228.123C311.765 229.765 319.652 256.358 327.06 271.88C335.001 288.514 346.085 291.057 363.938 287.137C396.713 279.985 403.907 244.757 403.747 216.097H403.534Z" strokeWidth="1.5" opacity="0.3" strokeMiterlimit="10" fill="currentColor" width="405" height="290"/><path stroke="currentColor" d="M403.534 216.097C403.428 195.172 399.537 174.247 395.381 153.746C391.011 132.185 385.522 110.889 379.606 89.6987C374.17 70.1509 369.694 48.3251 358.129 31.585C356.534 29.2623 354.127 26.75 354.127 26.75C354.127 26.75 353.436 24.2889 352.321 21.9965C344.327 5.73316 324.769 0.91244 307.608 0.753514C302.119 0.753514 292.42 1.17731 290.182 7.00457C284.267 7.00457 278.351 6.79268 272.436 6.58077C266.787 6.42185 261.084 6.20995 255.382 6.05102C237.743 5.62722 220.05 5.36235 202.41 5.2564C202.303 5.2564 202.25 5.2564 202.143 5.2564C202.037 5.2564 201.984 5.2564 201.877 5.2564C184.184 5.36235 166.544 5.62722 148.905 6.05102C143.202 6.20995 137.5 6.42185 131.851 6.58077C125.936 6.79268 120.949 6.95159 115.034 7.00457C112.742 1.17731 102.167 0.700539 96.6784 0.753514C79.465 0.859464 59.9601 5.68019 51.9663 21.9965C50.8257 24.2889 50.3731 26.75 50.3731 26.75C50.3731 26.75 47.7532 29.2623 46.1575 31.585C34.5931 48.3251 30.1698 70.1509 24.6808 89.6987C18.7653 110.889 13.2763 132.185 8.90632 153.746C4.74953 174.247 0.859186 195.172 0.752602 216.097C0.592726 244.757 7.73387 280.038 40.5618 287.137C58.4146 291.004 69.4461 288.514 77.4399 271.88C84.8475 256.358 92.7348 229.765 113.305 228.123C125.829 227.116 140.484 228.282 153.275 228.123C169.582 227.911 185.943 227.858 202.25 227.858C218.611 227.858 234.918 227.964 251.225 228.123C264.016 228.282 278.671 227.116 291.194 228.123C311.765 229.765 319.652 256.358 327.06 271.88C335.001 288.514 346.085 291.057 363.938 287.137C396.713 279.985 403.907 244.757 403.747 216.097H403.534Z" strokeWidth="1.5" opacity="0.3" strokeMiterlimit="10" fill="currentColor" width="405" height="290"/><path stroke="currentColor" d="M403.534 216.097C403.428 195.172 399.537 174.247 395.381 153.746C391.011 132.185 385.522 110.889 379.606 89.6987C374.17 70.1509 369.694 48.3251 358.129 31.585C356.534 29.2623 354.127 26.75 354.127 26.75C354.127 26.75 353.436 24.2889 352.321 21.9965C344.327 5.73316 324.769 0.91244 307.608 0.753514C302.119 0.753514 292.42 1.17731 290.182 7.00457C284.267 7.00457 278.351 6.79268 272.436 6.58077C266.787 6.42185 261.084 6.20995 255.382 6.05102C237.743 5.62722 220.05 5.36235 202.41 5.2564C202.303 5.2564 202.25 5.2564 202.143 5.2564C202.037 5.2564 201.984 5.2564 201.877 5.2564C184.184 5.36235 166.544 5.62722 148.905 6.05102C143.202 6.20995 137.5 6.42185 131.851 6.58077C125.936 6.79268 120.949 6.95159 115.034 7.00457C112.742 1.17731 102.167 0.700539 96.6784 0.753514C79.465 0.859464 59.9601 5.68019 51.9663 21.9965C50.8257 24.2889 50.3731 26.75 50.3731 26.75C50.3731 26.75 47.7532 29.2623 46.1575 31.585C34.5931 48.3251 30.1698 70.1509 24.6808 89.6987C18.7653 110.889 13.2763 132.185 8.90632 153.746C4.74953 174.247 0.859186 195.172 0.752602 216.097C0.592726 244.757 7.73387 280.038 40.5618 287.137C58.4146 291.004 69.4461 288.514 77.4399 271.88C84.8475 256.358 92.7348 229.765 113.305 228.123C125.829 227.116 140.484 228.282 153.275 228.123C169.582 227.911 185.943 227.858 202.25 227.858C218.611 227.858 234.918 227.964 251.225 228.123C264.016 228.282 278.671 227.116 291.194 228.123C311.765 229.765 319.652 256.358 327.06 271.88C335.001 288.514 346.085 291.057 363.938 287.137C396.713 279.985 403.907 244.757 403.747 216.097H403.534Z" strokeWidth="1.5" opacity="0.3" strokeMiterlimit="10" fill="currentColor" width="405" height="290"/><path stroke="currentColor" d="M403.534 216.097C403.428 195.172 399.537 174.247 395.381 153.746C391.011 132.185 385.522 110.889 379.606 89.6987C374.17 70.1509 369.694 48.3251 358.129 31.585C356.534 29.2623 354.127 26.75 354.127 26.75C354.127 26.75 353.436 24.2889 352.321 21.9965C344.327 5.73316 324.769 0.91244 307.608 0.753514C302.119 0.753514 292.42 1.17731 290.182 7.00457C284.267 7.00457 278.351 6.79268 272.436 6.58077C266.787 6.42185 261.084 6.20995 255.382 6.05102C237.743 5.62722 220.05 5.36235 202.41 5.2564C202.303 5.2564 202.25 5.2564 202.143 5.2564C202.037 5.2564 201.984 5.2564 201.877 5.2564C184.184 5.36235 166.544 5.62722 148.905 6.05102C143.202 6.20995 137.5 6.42185 131.851 6.58077C125.936 6.79268 120.949 6.95159 115.034 7.00457C112.742 1.17731 102.167 0.700539 96.6784 0.753514C79.465 0.859464 59.9601 5.68019 51.9663 21.9965C50.8257 24.2889 50.3731 26.75 50.3731 26.75C50.3731 26.75 47.7532 29.2623 46.1575 31.585C34.5931 48.3251 30.1698 70.1509 24.6808 89.6987C18.7653 110.889 13.2763 132.185 8.90632 153.746C4.74953 174.247 0.859186 195.172 0.752602 216.097C0.592726 244.757 7.73387 280.038 40.5618 287.137C58.4146 291.004 69.4461 288.514 77.4399 271.88C84.8475 256.358 92.7348 229.765 113.305 228.123C125.829 227.116 140.484 228.282 153.275 228.123C169.582 227.911 185.943 227.858 202.25 227.858C218.611 227.858 234.918 227.964 251.225 228.123C264.016 228.282 278.671 227.116 291.194 228.123C311.765 229.765 319.652 256.358 327.06 271.88C335.001 288.514 346.085 291.057 363.938 287.137C396.713 279.985 403.907 244.757 403.747 216.097H403.534Z" strokeWidth="1.5" opacity="0.3" strokeMiterlimit="10" fill="currentColor" width="405" height="290"/><path stroke="currentColor" opacity="0.3"/><path stroke="currentColor" opacity="0.3"/><path stroke="currentColor" d="M403.534 216.097C403.428 195.172 399.537 174.247 395.381 153.746C391.011 132.185 385.522 110.889 379.606 89.6987C374.17 70.1509 369.694 48.3251 358.129 31.585C356.534 29.2623 354.127 26.75 354.127 26.75C354.127 26.75 353.436 24.2889 352.321 21.9965C344.327 5.73316 324.769 0.91244 307.608 0.753514C302.119 0.753514 292.42 1.17731 290.182 7.00457C284.267 7.00457 278.351 6.79268 272.436 6.58077C266.787 6.42185 261.084 6.20995 255.382 6.05102C237.743 5.62722 220.05 5.36235 202.41 5.2564C202.303 5.2564 202.25 5.2564 202.143 5.2564C202.037 5.2564 201.984 5.2564 201.877 5.2564C184.184 5.36235 166.544 5.62722 148.905 6.05102C143.202 6.20995 137.5 6.42185 131.851 6.58077C125.936 6.79268 120.949 6.95159 115.034 7.00457C112.742 1.17731 102.167 0.700539 96.6784 0.753514C79.465 0.859464 59.9601 5.68019 51.9663 21.9965C50.8257 24.2889 50.3731 26.75 50.3731 26.75C50.3731 26.75 47.7532 29.2623 46.1575 31.585C34.5931 48.3251 30.1698 70.1509 24.6808 89.6987C18.7653 110.889 13.2763 132.185 8.90632 153.746C4.74953 174.247 0.859186 195.172 0.752602 216.097C0.592726 244.757 7.73387 280.038 40.5618 287.137C58.4146 291.004 69.4461 288.514 77.4399 271.88C84.8475 256.358 92.7348 229.765 113.305 228.123C125.829 227.116 140.484 228.282 153.275 228.123C169.582 227.911 185.943 227.858 202.25 227.858C218.611 227.858 234.918 227.964 251.225 228.123C264.016 228.282 278.671 227.116 291.194 228.123C311.765 229.765 319.652 256.358 327.06 271.88C335.001 288.514 346.085 291.057 363.938 287.137C396.713 279.985 403.907 244.757 403.747 216.097H403.534Z" strokeWidth="1.5" strokeMiterlimit="10" opacity="0.3" fill="currentColor" width="405" height="290"/><path stroke="currentColor" d="M403.534 216.097C403.428 195.172 399.537 174.247 395.381 153.746C391.011 132.185 385.522 110.889 379.606 89.6987C374.17 70.1509 369.694 48.3251 358.129 31.585C356.534 29.2623 354.127 26.75 354.127 26.75C354.127 26.75 353.436 24.2889 352.321 21.9965C344.327 5.73316 324.769 0.91244 307.608 0.753514C302.119 0.753514 292.42 1.17731 290.182 7.00457C284.267 7.00457 278.351 6.79268 272.436 6.58077C266.787 6.42185 261.084 6.20995 255.382 6.05102C237.743 5.62722 220.05 5.36235 202.41 5.2564C202.303 5.2564 202.25 5.2564 202.143 5.2564C202.037 5.2564 201.984 5.2564 201.877 5.2564C184.184 5.36235 166.544 5.62722 148.905 6.05102C143.202 6.20995 137.5 6.42185 131.851 6.58077C125.936 6.79268 120.949 6.95159 115.034 7.00457C112.742 1.17731 102.167 0.700539 96.6784 0.753514C79.465 0.859464 59.9601 5.68019 51.9663 21.9965C50.8257 24.2889 50.3731 26.75 50.3731 26.75C50.3731 26.75 47.7532 29.2623 46.1575 31.585C34.5931 48.3251 30.1698 70.1509 24.6808 89.6987C18.7653 110.889 13.2763 132.185 8.90632 153.746C4.74953 174.247 0.859186 195.172 0.752602 216.097C0.592726 244.757 7.73387 280.038 40.5618 287.137C58.4146 291.004 69.4461 288.514 77.4399 271.88C84.8475 256.358 92.7348 229.765 113.305 228.123C125.829 227.116 140.484 228.282 153.275 228.123C169.582 227.911 185.943 227.858 202.25 227.858C218.611 227.858 234.918 227.964 251.225 228.123C264.016 228.282 278.671 227.116 291.194 228.123C311.765 229.765 319.652 256.358 327.06 271.88C335.001 288.514 346.085 291.057 363.938 287.137C396.713 279.985 403.907 244.757 403.747 216.097H403.534Z" strokeWidth="1.5" strokeMiterlimit="10" opacity="0.3" fill="currentColor" width="405" height="290"/><path stroke="currentColor" d="M403.534 216.097C403.428 195.172 399.537 174.247 395.381 153.746C391.011 132.185 385.522 110.889 379.606 89.6987C374.17 70.1509 369.694 48.3251 358.129 31.585C356.534 29.2623 354.127 26.75 354.127 26.75C354.127 26.75 353.436 24.2889 352.321 21.9965C344.327 5.73316 324.769 0.91244 307.608 0.753514C302.119 0.753514 292.42 1.17731 290.182 7.00457C284.267 7.00457 278.351 6.79268 272.436 6.58077C266.787 6.42185 261.084 6.20995 255.382 6.05102C237.743 5.62722 220.05 5.36235 202.41 5.2564C202.303 5.2564 202.25 5.2564 202.143 5.2564C202.037 5.2564 201.984 5.2564 201.877 5.2564C184.184 5.36235 166.544 5.62722 148.905 6.05102C143.202 6.20995 137.5 6.42185 131.851 6.58077C125.936 6.79268 120.949 6.95159 115.034 7.00457C112.742 1.17731 102.167 0.700539 96.6784 0.753514C79.465 0.859464 59.9601 5.68019 51.9663 21.9965C50.8257 24.2889 50.3731 26.75 50.3731 26.75C50.3731 26.75 47.7532 29.2623 46.1575 31.585C34.5931 48.3251 30.1698 70.1509 24.6808 89.6987C18.7653 110.889 13.2763 132.185 8.90632 153.746C4.74953 174.247 0.859186 195.172 0.752602 216.097C0.592726 244.757 7.73387 280.038 40.5618 287.137C58.4146 291.004 69.4461 288.514 77.4399 271.88C84.8475 256.358 92.7348 229.765 113.305 228.123C125.829 227.116 140.484 228.282 153.275 228.123C169.582 227.911 185.943 227.858 202.25 227.858C218.611 227.858 234.918 227.964 251.225 228.123C264.016 228.282 278.671 227.116 291.194 228.123C311.765 229.765 319.652 256.358 327.06 271.88C335.001 288.514 346.085 291.057 363.938 287.137C396.713 279.985 403.907 244.757 403.747 216.097H403.534Z" strokeWidth="1.5" strokeMiterlimit="10" opacity="0.3" fill="currentColor" width="405" height="290"/><path stroke="currentColor" d="M403.534 216.097C403.428 195.172 399.537 174.247 395.381 153.746C391.011 132.185 385.522 110.889 379.606 89.6987C374.17 70.1509 369.694 48.3251 358.129 31.585C356.534 29.2623 354.127 26.75 354.127 26.75C354.127 26.75 353.436 24.2889 352.321 21.9965C344.327 5.73316 324.769 0.91244 307.608 0.753514C302.119 0.753514 292.42 1.17731 290.182 7.00457C284.267 7.00457 278.351 6.79268 272.436 6.58077C266.787 6.42185 261.084 6.20995 255.382 6.05102C237.743 5.62722 220.05 5.36235 202.41 5.2564C202.303 5.2564 202.25 5.2564 202.143 5.2564C202.037 5.2564 201.984 5.2564 201.877 5.2564C184.184 5.36235 166.544 5.62722 148.905 6.05102C143.202 6.20995 137.5 6.42185 131.851 6.58077C125.936 6.79268 120.949 6.95159 115.034 7.00457C112.742 1.17731 102.167 0.700539 96.6784 0.753514C79.465 0.859464 59.9601 5.68019 51.9663 21.9965C50.8257 24.2889 50.3731 26.75 50.3731 26.75C50.3731 26.75 47.7532 29.2623 46.1575 31.585C34.5931 48.3251 30.1698 70.1509 24.6808 89.6987C18.7653 110.889 13.2763 132.185 8.90632 153.746C4.74953 174.247 0.859186 195.172 0.752602 216.097C0.592726 244.757 7.73387 280.038 40.5618 287.137C58.4146 291.004 69.4461 288.514 77.4399 271.88C84.8475 256.358 92.7348 229.765 113.305 228.123C125.829 227.116 140.484 228.282 153.275 228.123C169.582 227.911 185.943 227.858 202.25 227.858C218.611 227.858 234.918 227.964 251.225 228.123C264.016 228.282 278.671 227.116 291.194 228.123C311.765 229.765 319.652 256.358 327.06 271.88C335.001 288.514 346.085 291.057 363.938 287.137C396.713 279.985 403.907 244.757 403.747 216.097H403.534Z" strokeWidth="1.5" strokeMiterlimit="10" opacity="0.3" fill="currentColor" width="405" height="290"/><path stroke="currentColor" d="M403.534 216.097C403.428 195.172 399.537 174.247 395.381 153.746C391.011 132.185 385.522 110.889 379.606 89.6987C374.17 70.1509 369.694 48.3251 358.129 31.585C356.534 29.2623 354.127 26.75 354.127 26.75C354.127 26.75 353.436 24.2889 352.321 21.9965C344.327 5.73316 324.769 0.91244 307.608 0.753514C302.119 0.753514 292.42 1.17731 290.182 7.00457C284.267 7.00457 278.351 6.79268 272.436 6.58077C266.787 6.42185 261.084 6.20995 255.382 6.05102C237.743 5.62722 220.05 5.36235 202.41 5.2564C202.303 5.2564 202.25 5.2564 202.143 5.2564C202.037 5.2564 201.984 5.2564 201.877 5.2564C184.184 5.36235 166.544 5.62722 148.905 6.05102C143.202 6.20995 137.5 6.42185 131.851 6.58077C125.936 6.79268 120.949 6.95159 115.034 7.00457C112.742 1.17731 102.167 0.700539 96.6784 0.753514C79.465 0.859464 59.9601 5.68019 51.9663 21.9965C50.8257 24.2889 50.3731 26.75 50.3731 26.75C50.3731 26.75 47.7532 29.2623 46.1575 31.585C34.5931 48.3251 30.1698 70.1509 24.6808 89.6987C18.7653 110.889 13.2763 132.185 8.90632 153.746C4.74953 174.247 0.859186 195.172 0.752602 216.097C0.592726 244.757 7.73387 280.038 40.5618 287.137C58.4146 291.004 69.4461 288.514 77.4399 271.88C84.8475 256.358 92.7348 229.765 113.305 228.123C125.829 227.116 140.484 228.282 153.275 228.123C169.582 227.911 185.943 227.858 202.25 227.858C218.611 227.858 234.918 227.964 251.225 228.123C264.016 228.282 278.671 227.116 291.194 228.123C311.765 229.765 319.652 256.358 327.06 271.88C335.001 288.514 346.085 291.057 363.938 287.137C396.713 279.985 403.907 244.757 403.747 216.097H403.534Z" strokeWidth="1.5" strokeMiterlimit="10" opacity="0.3" fill="currentColor" width="405" height="290"/><path stroke="currentColor" d="M403.534 216.097C403.428 195.172 399.537 174.247 395.381 153.746C391.011 132.185 385.522 110.889 379.606 89.6987C374.17 70.1509 369.694 48.3251 358.129 31.585C356.534 29.2623 354.127 26.75 354.127 26.75C354.127 26.75 353.436 24.2889 352.321 21.9965C344.327 5.73316 324.769 0.91244 307.608 0.753514C302.119 0.753514 292.42 1.17731 290.182 7.00457C284.267 7.00457 278.351 6.79268 272.436 6.58077C266.787 6.42185 261.084 6.20995 255.382 6.05102C237.743 5.62722 220.05 5.36235 202.41 5.2564C202.303 5.2564 202.25 5.2564 202.143 5.2564C202.037 5.2564 201.984 5.2564 201.877 5.2564C184.184 5.36235 166.544 5.62722 148.905 6.05102C143.202 6.20995 137.5 6.42185 131.851 6.58077C125.936 6.79268 120.949 6.95159 115.034 7.00457C112.742 1.17731 102.167 0.700539 96.6784 0.753514C79.465 0.859464 59.9601 5.68019 51.9663 21.9965C50.8257 24.2889 50.3731 26.75 50.3731 26.75C50.3731 26.75 47.7532 29.2623 46.1575 31.585C34.5931 48.3251 30.1698 70.1509 24.6808 89.6987C18.7653 110.889 13.2763 132.185 8.90632 153.746C4.74953 174.247 0.859186 195.172 0.752602 216.097C0.592726 244.757 7.73387 280.038 40.5618 287.137C58.4146 291.004 69.4461 288.514 77.4399 271.88C84.8475 256.358 92.7348 229.765 113.305 228.123C125.829 227.116 140.484 228.282 153.275 228.123C169.582 227.911 185.943 227.858 202.25 227.858C218.611 227.858 234.918 227.964 251.225 228.123C264.016 228.282 278.671 227.116 291.194 228.123C311.765 229.765 319.652 256.358 327.06 271.88C335.001 288.514 346.085 291.057 363.938 287.137C396.713 279.985 403.907 244.757 403.747 216.097H403.534Z" strokeWidth="1.5" strokeMiterlimit="10" opacity="0.3" fill="currentColor" width="405" height="290"/><path stroke="currentColor" d="M403.534 216.097C403.428 195.172 399.537 174.247 395.381 153.746C391.011 132.185 385.522 110.889 379.606 89.6987C374.17 70.1509 369.694 48.3251 358.129 31.585C356.534 29.2623 354.127 26.75 354.127 26.75C354.127 26.75 353.436 24.2889 352.321 21.9965C344.327 5.73316 324.769 0.91244 307.608 0.753514C302.119 0.753514 292.42 1.17731 290.182 7.00457C284.267 7.00457 278.351 6.79268 272.436 6.58077C266.787 6.42185 261.084 6.20995 255.382 6.05102C237.743 5.62722 220.05 5.36235 202.41 5.2564C202.303 5.2564 202.25 5.2564 202.143 5.2564C202.037 5.2564 201.984 5.2564 201.877 5.2564C184.184 5.36235 166.544 5.62722 148.905 6.05102C143.202 6.20995 137.5 6.42185 131.851 6.58077C125.936 6.79268 120.949 6.95159 115.034 7.00457C112.742 1.17731 102.167 0.700539 96.6784 0.753514C79.465 0.859464 59.9601 5.68019 51.9663 21.9965C50.8257 24.2889 50.3731 26.75 50.3731 26.75C50.3731 26.75 47.7532 29.2623 46.1575 31.585C34.5931 48.3251 30.1698 70.1509 24.6808 89.6987C18.7653 110.889 13.2763 132.185 8.90632 153.746C4.74953 174.247 0.859186 195.172 0.752602 216.097C0.592726 244.757 7.73387 280.038 40.5618 287.137C58.4146 291.004 69.4461 288.514 77.4399 271.88C84.8475 256.358 92.7348 229.765 113.305 228.123C125.829 227.116 140.484 228.282 153.275 228.123C169.582 227.911 185.943 227.858 202.25 227.858C218.611 227.858 234.918 227.964 251.225 228.123C264.016 228.282 278.671 227.116 291.194 228.123C311.765 229.765 319.652 256.358 327.06 271.88C335.001 288.514 346.085 291.057 363.938 287.137C396.713 279.985 403.907 244.757 403.747 216.097H403.534Z" strokeWidth="1.5" strokeMiterlimit="10" opacity="0.3" fill="currentColor" width="405" height="290"/><path stroke="currentColor" d="M403.534 216.097C403.428 195.172 399.537 174.247 395.381 153.746C391.011 132.185 385.522 110.889 379.606 89.6987C374.17 70.1509 369.694 48.3251 358.129 31.585C356.534 29.2623 354.127 26.75 354.127 26.75C354.127 26.75 353.436 24.2889 352.321 21.9965C344.327 5.73316 324.769 0.91244 307.608 0.753514C302.119 0.753514 292.42 1.17731 290.182 7.00457C284.267 7.00457 278.351 6.79268 272.436 6.58077C266.787 6.42185 261.084 6.20995 255.382 6.05102C237.743 5.62722 220.05 5.36235 202.41 5.2564C202.303 5.2564 202.25 5.2564 202.143 5.2564C202.037 5.2564 201.984 5.2564 201.877 5.2564C184.184 5.36235 166.544 5.62722 148.905 6.05102C143.202 6.20995 137.5 6.42185 131.851 6.58077C125.936 6.79268 120.949 6.95159 115.034 7.00457C112.742 1.17731 102.167 0.700539 96.6784 0.753514C79.465 0.859464 59.9601 5.68019 51.9663 21.9965C50.8257 24.2889 50.3731 26.75 50.3731 26.75C50.3731 26.75 47.7532 29.2623 46.1575 31.585C34.5931 48.3251 30.1698 70.1509 24.6808 89.6987C18.7653 110.889 13.2763 132.185 8.90632 153.746C4.74953 174.247 0.859186 195.172 0.752602 216.097C0.592726 244.757 7.73387 280.038 40.5618 287.137C58.4146 291.004 69.4461 288.514 77.4399 271.88C84.8475 256.358 92.7348 229.765 113.305 228.123C125.829 227.116 140.484 228.282 153.275 228.123C169.582 227.911 185.943 227.858 202.25 227.858C218.611 227.858 234.918 227.964 251.225 228.123C264.016 228.282 278.671 227.116 291.194 228.123C311.765 229.765 319.652 256.358 327.06 271.88C335.001 288.514 346.085 291.057 363.938 287.137C396.713 279.985 403.907 244.757 403.747 216.097H403.534Z" strokeWidth="1.5" strokeMiterlimit="10" opacity="0.3" fill="currentColor" width="405" height="290"/><path stroke="currentColor" d="M403.534 216.097C403.428 195.172 399.537 174.247 395.381 153.746C391.011 132.185 385.522 110.889 379.606 89.6987C374.17 70.1509 369.694 48.3251 358.129 31.585C356.534 29.2623 354.127 26.75 354.127 26.75C354.127 26.75 353.436 24.2889 352.321 21.9965C344.327 5.73316 324.769 0.91244 307.608 0.753514C302.119 0.753514 292.42 1.17731 290.182 7.00457C284.267 7.00457 278.351 6.79268 272.436 6.58077C266.787 6.42185 261.084 6.20995 255.382 6.05102C237.743 5.62722 220.05 5.36235 202.41 5.2564C202.303 5.2564 202.25 5.2564 202.143 5.2564C202.037 5.2564 201.984 5.2564 201.877 5.2564C184.184 5.36235 166.544 5.62722 148.905 6.05102C143.202 6.20995 137.5 6.42185 131.851 6.58077C125.936 6.79268 120.949 6.95159 115.034 7.00457C112.742 1.17731 102.167 0.700539 96.6784 0.753514C79.465 0.859464 59.9601 5.68019 51.9663 21.9965C50.8257 24.2889 50.3731 26.75 50.3731 26.75C50.3731 26.75 47.7532 29.2623 46.1575 31.585C34.5931 48.3251 30.1698 70.1509 24.6808 89.6987C18.7653 110.889 13.2763 132.185 8.90632 153.746C4.74953 174.247 0.859186 195.172 0.752602 216.097C0.592726 244.757 7.73387 280.038 40.5618 287.137C58.4146 291.004 69.4461 288.514 77.4399 271.88C84.8475 256.358 92.7348 229.765 113.305 228.123C125.829 227.116 140.484 228.282 153.275 228.123C169.582 227.911 185.943 227.858 202.25 227.858C218.611 227.858 234.918 227.964 251.225 228.123C264.016 228.282 278.671 227.116 291.194 228.123C311.765 229.765 319.652 256.358 327.06 271.88C335.001 288.514 346.085 291.057 363.938 287.137C396.713 279.985 403.907 244.757 403.747 216.097H403.534Z" strokeWidth="1.5" strokeMiterlimit="10" opacity="0.3" fill="currentColor" width="405" height="290"/><path stroke="currentColor" d="M403.534 216.097C403.428 195.172 399.537 174.247 395.381 153.746C391.011 132.185 385.522 110.889 379.606 89.6987C374.17 70.1509 369.694 48.3251 358.129 31.585C356.534 29.2623 354.127 26.75 354.127 26.75C354.127 26.75 353.436 24.2889 352.321 21.9965C344.327 5.73316 324.769 0.91244 307.608 0.753514C302.119 0.753514 292.42 1.17731 290.182 7.00457C284.267 7.00457 278.351 6.79268 272.436 6.58077C266.787 6.42185 261.084 6.20995 255.382 6.05102C237.743 5.62722 220.05 5.36235 202.41 5.2564C202.303 5.2564 202.25 5.2564 202.143 5.2564C202.037 5.2564 201.984 5.2564 201.877 5.2564C184.184 5.36235 166.544 5.62722 148.905 6.05102C143.202 6.20995 137.5 6.42185 131.851 6.58077C125.936 6.79268 120.949 6.95159 115.034 7.00457C112.742 1.17731 102.167 0.700539 96.6784 0.753514C79.465 0.859464 59.9601 5.68019 51.9663 21.9965C50.8257 24.2889 50.3731 26.75 50.3731 26.75C50.3731 26.75 47.7532 29.2623 46.1575 31.585C34.5931 48.3251 30.1698 70.1509 24.6808 89.6987C18.7653 110.889 13.2763 132.185 8.90632 153.746C4.74953 174.247 0.859186 195.172 0.752602 216.097C0.592726 244.757 7.73387 280.038 40.5618 287.137C58.4146 291.004 69.4461 288.514 77.4399 271.88C84.8475 256.358 92.7348 229.765 113.305 228.123C125.829 227.116 140.484 228.282 153.275 228.123C169.582 227.911 185.943 227.858 202.25 227.858C218.611 227.858 234.918 227.964 251.225 228.123C264.016 228.282 278.671 227.116 291.194 228.123C311.765 229.765 319.652 256.358 327.06 271.88C335.001 288.514 346.085 291.057 363.938 287.137C396.713 279.985 403.907 244.757 403.747 216.097H403.534Z" strokeWidth="1.5" strokeMiterlimit="10" opacity="0.3" fill="currentColor" width="405" height="290"/><path stroke="currentColor" opacity="0.3" d="M403.534 216.097C403.428 195.172 399.537 174.247 395.381 153.746C391.011 132.185 385.522 110.889 379.606 89.6987C374.17 70.1509 369.694 48.3251 358.129 31.585C356.534 29.2623 354.127 26.75 354.127 26.75C354.127 26.75 353.436 24.2889 352.321 21.9965C344.327 5.73316 324.769 0.91244 307.608 0.753514C302.119 0.753514 292.42 1.17731 290.182 7.00457C284.267 7.00457 278.351 6.79268 272.436 6.58077C266.787 6.42185 261.084 6.20995 255.382 6.05102C237.743 5.62722 220.05 5.36235 202.41 5.2564C202.303 5.2564 202.25 5.2564 202.143 5.2564C202.037 5.2564 201.984 5.2564 201.877 5.2564C184.184 5.36235 166.544 5.62722 148.905 6.05102C143.202 6.20995 137.5 6.42185 131.851 6.58077C125.936 6.79268 120.949 6.95159 115.034 7.00457C112.742 1.17731 102.167 0.700539 96.6784 0.753514C79.465 0.859464 59.9601 5.68019 51.9663 21.9965C50.8257 24.2889 50.3731 26.75 50.3731 26.75C50.3731 26.75 47.7532 29.2623 46.1575 31.585C34.5931 48.3251 30.1698 70.1509 24.6808 89.6987C18.7653 110.889 13.2763 132.185 8.90632 153.746C4.74953 174.247 0.859186 195.172 0.752602 216.097C0.592726 244.757 7.73387 280.038 40.5618 287.137C58.4146 291.004 69.4461 288.514 77.4399 271.88C84.8475 256.358 92.7348 229.765 113.305 228.123C125.829 227.116 140.484 228.282 153.275 228.123C169.582 227.911 185.943 227.858 202.25 227.858C218.611 227.858 234.918 227.964 251.225 228.123C264.016 228.282 278.671 227.116 291.194 228.123C311.765 229.765 319.652 256.358 327.06 271.88C335.001 288.514 346.085 291.057 363.938 287.137C396.713 279.985 403.907 244.757 403.747 216.097H403.534Z" strokeWidth="1.5" strokeMiterlimit="10" fill="currentColor" width="405" height="290"/><path stroke="currentColor" opacity="0.3" d="M403.534 216.097C403.428 195.172 399.537 174.247 395.381 153.746C391.011 132.185 385.522 110.889 379.606 89.6987C374.17 70.1509 369.694 48.3251 358.129 31.585C356.534 29.2623 354.127 26.75 354.127 26.75C354.127 26.75 353.436 24.2889 352.321 21.9965C344.327 5.73316 324.769 0.91244 307.608 0.753514C302.119 0.753514 292.42 1.17731 290.182 7.00457C284.267 7.00457 278.351 6.79268 272.436 6.58077C266.787 6.42185 261.084 6.20995 255.382 6.05102C237.743 5.62722 220.05 5.36235 202.41 5.2564C202.303 5.2564 202.25 5.2564 202.143 5.2564C202.037 5.2564 201.984 5.2564 201.877 5.2564C184.184 5.36235 166.544 5.62722 148.905 6.05102C143.202 6.20995 137.5 6.42185 131.851 6.58077C125.936 6.79268 120.949 6.95159 115.034 7.00457C112.742 1.17731 102.167 0.700539 96.6784 0.753514C79.465 0.859464 59.9601 5.68019 51.9663 21.9965C50.8257 24.2889 50.3731 26.75 50.3731 26.75C50.3731 26.75 47.7532 29.2623 46.1575 31.585C34.5931 48.3251 30.1698 70.1509 24.6808 89.6987C18.7653 110.889 13.2763 132.185 8.90632 153.746C4.74953 174.247 0.859186 195.172 0.752602 216.097C0.592726 244.757 7.73387 280.038 40.5618 287.137C58.4146 291.004 69.4461 288.514 77.4399 271.88C84.8475 256.358 92.7348 229.765 113.305 228.123C125.829 227.116 140.484 228.282 153.275 228.123C169.582 227.911 185.943 227.858 202.25 227.858C218.611 227.858 234.918 227.964 251.225 228.123C264.016 228.282 278.671 227.116 291.194 228.123C311.765 229.765 319.652 256.358 327.06 271.88C335.001 288.514 346.085 291.057 363.938 287.137C396.713 279.985 403.907 244.757 403.747 216.097H403.534Z" strokeWidth="1.5" strokeMiterlimit="10" fill="currentColor" width="405" height="290"/><path stroke="currentColor" opacity="0.3" d="M403.534 216.097C403.428 195.172 399.537 174.247 395.381 153.746C391.011 132.185 385.522 110.889 379.606 89.6987C374.17 70.1509 369.694 48.3251 358.129 31.585C356.534 29.2623 354.127 26.75 354.127 26.75C354.127 26.75 353.436 24.2889 352.321 21.9965C344.327 5.73316 324.769 0.91244 307.608 0.753514C302.119 0.753514 292.42 1.17731 290.182 7.00457C284.267 7.00457 278.351 6.79268 272.436 6.58077C266.787 6.42185 261.084 6.20995 255.382 6.05102C237.743 5.62722 220.05 5.36235 202.41 5.2564C202.303 5.2564 202.25 5.2564 202.143 5.2564C202.037 5.2564 201.984 5.2564 201.877 5.2564C184.184 5.36235 166.544 5.62722 148.905 6.05102C143.202 6.20995 137.5 6.42185 131.851 6.58077C125.936 6.79268 120.949 6.95159 115.034 7.00457C112.742 1.17731 102.167 0.700539 96.6784 0.753514C79.465 0.859464 59.9601 5.68019 51.9663 21.9965C50.8257 24.2889 50.3731 26.75 50.3731 26.75C50.3731 26.75 47.7532 29.2623 46.1575 31.585C34.5931 48.3251 30.1698 70.1509 24.6808 89.6987C18.7653 110.889 13.2763 132.185 8.90632 153.746C4.74953 174.247 0.859186 195.172 0.752602 216.097C0.592726 244.757 7.73387 280.038 40.5618 287.137C58.4146 291.004 69.4461 288.514 77.4399 271.88C84.8475 256.358 92.7348 229.765 113.305 228.123C125.829 227.116 140.484 228.282 153.275 228.123C169.582 227.911 185.943 227.858 202.25 227.858C218.611 227.858 234.918 227.964 251.225 228.123C264.016 228.282 278.671 227.116 291.194 228.123C311.765 229.765 319.652 256.358 327.06 271.88C335.001 288.514 346.085 291.057 363.938 287.137C396.713 279.985 403.907 244.757 403.747 216.097H403.534Z" strokeWidth="1.5" strokeMiterlimit="10" fill="currentColor" width="405" height="290"/><path stroke="currentColor" d="M403.534 216.097C403.428 195.172 399.537 174.247 395.381 153.746C391.011 132.185 385.522 110.889 379.606 89.6987C374.17 70.1509 369.694 48.3251 358.129 31.585C356.534 29.2623 354.127 26.75 354.127 26.75C354.127 26.75 353.436 24.2889 352.321 21.9965C344.327 5.73316 324.769 0.91244 307.608 0.753514C302.119 0.753514 292.42 1.17731 290.182 7.00457C284.267 7.00457 278.351 6.79268 272.436 6.58077C266.787 6.42185 261.084 6.20995 255.382 6.05102C237.743 5.62722 220.05 5.36235 202.41 5.2564C202.303 5.2564 202.25 5.2564 202.143 5.2564C202.037 5.2564 201.984 5.2564 201.877 5.2564C184.184 5.36235 166.544 5.62722 148.905 6.05102C143.202 6.20995 137.5 6.42185 131.851 6.58077C125.936 6.79268 120.949 6.95159 115.034 7.00457C112.742 1.17731 102.167 0.700539 96.6784 0.753514C79.465 0.859464 59.9601 5.68019 51.9663 21.9965C50.8257 24.2889 50.3731 26.75 50.3731 26.75C50.3731 26.75 47.7532 29.2623 46.1575 31.585C34.5931 48.3251 30.1698 70.1509 24.6808 89.6987C18.7653 110.889 13.2763 132.185 8.90632 153.746C4.74953 174.247 0.859186 195.172 0.752602 216.097C0.592726 244.757 7.73387 280.038 40.5618 287.137C58.4146 291.004 69.4461 288.514 77.4399 271.88C84.8475 256.358 92.7348 229.765 113.305 228.123C125.829 227.116 140.484 228.282 153.275 228.123C169.582 227.911 185.943 227.858 202.25 227.858C218.611 227.858 234.918 227.964 251.225 228.123C264.016 228.282 278.671 227.116 291.194 228.123C311.765 229.765 319.652 256.358 327.06 271.88C335.001 288.514 346.085 291.057 363.938 287.137C396.713 279.985 403.907 244.757 403.747 216.097H403.534Z" strokeWidth="1.5" strokeMiterlimit="10" fill="currentColor" width="405" height="290"/><defs fill="currentColor" width="405" height="290"/><clipPath fill="currentColor" width="405" height="290"/><rect fill="currentColor" width="405" height="290"/></svg>