<svg xmlns="http://www.w3.org/2000/svg" viewBox="0 0 44 44" fill="#fff"><path fill="currentColor" d="M16.1 40c-2.3 0-4.6-1-6.2-2.6-1.7-1.6-2.6-3.8-2.6-6.2H9.2c0 1.8.7 3.6 2 4.9s3 2 4.9 2V40m11.8 0c2.3 0 4.5-1 6.2-2.6s2.6-3.8 2.6-6.2H34.8c0 1.8-.7 3.6-2 4.9s-3.1 2-4.9 2V40M16.1 10.6c-2.3 0-4.6 1-6.2 2.6-1.7 1.6-2.6 3.8-2.6 6.2H9.2c0-1.8.7-3.6 2-4.9s3-2 4.9-2V10.6m11.8 0c2.3 0 4.5 1 6.2 2.6s2.6 3.8 2.6 6.2H34.8c0-1.8-.7-3.6-2-4.9s-3.1-2-4.9-2V10.6" cx="22" cy="25.3" r="3.6" stroke="currentColor" strokeWidth="1.8"/><circle cx="22" cy="25.3" r="3.6" stroke="currentColor" strokeWidth="1.8" fill="currentColor" d="M16.1 40c-2.3 0-4.6-1-6.2-2.6-1.7-1.6-2.6-3.8-2.6-6.2H9.2c0 1.8.7 3.6 2 4.9s3 2 4.9 2V40m11.8 0c2.3 0 4.5-1 6.2-2.6s2.6-3.8 2.6-6.2H34.8c0 1.8-.7 3.6-2 4.9s-3.1 2-4.9 2V40M16.1 10.6c-2.3 0-4.6 1-6.2 2.6-1.7 1.6-2.6 3.8-2.6 6.2H9.2c0-1.8.7-3.6 2-4.9s3-2 4.9-2V10.6m11.8 0c2.3 0 4.5 1 6.2 2.6s2.6 3.8 2.6 6.2H34.8c0-1.8-.7-3.6-2-4.9s-3.1-2-4.9-2V10.6"/><path fill="currentColor" d="M16.1 40c-2.3 0-4.6-1-6.2-2.6-1.7-1.6-2.6-3.8-2.6-6.2H9.2c0 1.8.7 3.6 2 4.9s3 2 4.9 2V40m11.8 0c2.3 0 4.5-1 6.2-2.6s2.6-3.8 2.6-6.2H34.8c0 1.8-.7 3.6-2 4.9s-3.1 2-4.9 2V40M16.1 10.6c-2.3 0-4.6 1-6.2 2.6-1.7 1.6-2.6 3.8-2.6 6.2H9.2c0-1.8.7-3.6 2-4.9s3-2 4.9-2V10.6m11.8 0c2.3 0 4.5 1 6.2 2.6s2.6 3.8 2.6 6.2H34.8c0-1.8-.7-3.6-2-4.9s-3.1-2-4.9-2V10.6"/><path fill="currentColor" d="M16.1 40c-2.3 0-4.6-1-6.2-2.6-1.7-1.6-2.6-3.8-2.6-6.2H9.2c0 1.8.7 3.6 2 4.9s3 2 4.9 2V40m11.8 0c2.3 0 4.5-1 6.2-2.6s2.6-3.8 2.6-6.2H34.8c0 1.8-.7 3.6-2 4.9s-3.1 2-4.9 2V40M16.1 10.6c-2.3 0-4.6 1-6.2 2.6-1.7 1.6-2.6 3.8-2.6 6.2H9.2c0-1.8.7-3.6 2-4.9s3-2 4.9-2V10.6m11.8 0c2.3 0 4.5 1 6.2 2.6s2.6 3.8 2.6 6.2H34.8c0-1.8-.7-3.6-2-4.9s-3.1-2-4.9-2V10.6"/></svg>