<svg xmlns="http://www.w3.org/2000/svg" viewBox="0 0 36 36" fill="#fff"><path fill="currentColor" opacity="0.5" d="M12.9,6.2c-0.2,0-0.4-0.1-0.5-0.2c-0.2-0.2-0.5-0.4-1.2-0.4c-1.1,0-4.5,1.1-5.1,1.7S5.6,8.4,5.6,8.4v0.1  c-0.4,0.3-0.8,0.7-1.1,1C3.4,10.7,0,20.2,0,25.3s3.4,5.6,3.4,5.6c0.9,0,2.3-1.8,3.7-3.5c1.2-1.5,2.3-3,3.1-3.2  c0.8-0.3,4.4-0.4,7.9-0.4V6.2H12.9z M8.4,14.6c-1.2,0-2.2-1-2.2-2.2s1-2.2,2.2-2.2s2.2,1,2.2,2.2S9.7,14.6,8.4,14.6z M15.8,18.8  c0,0.3-0.3,0.6-0.6,0.6h-0.8v0.8c0,0.3-0.3,0.6-0.6,0.6h-1.1c-0.3,0-0.6-0.3-0.6-0.6v-0.8h-0.8c-0.3,0-0.6-0.3-0.6-0.6v-1.1  c0-0.3,0.3-0.6,0.6-0.6h0.8v-0.8c0-0.3,0.3-0.6,0.6-0.6h1.1c0.3,0,0.6,0.3,0.6,0.6v0.8h0.8c0.3,0,0.6,0.3,0.6,0.6V18.8z"/><path fill="currentColor"/></svg>