<svg xmlns="http://www.w3.org/2000/svg" viewBox="0 0 1002 619" width="1002" height="619" fill="#fff"><path stroke="currentColor" d="M204.83 547.366L204.07 547.583C44.6446 591.293 4.97294 488.737 4.2998 486.783C6.6015 556.268 27.5556 610.054 85.9883 613.876C86.01 613.789 168.198 626.622 204.83 547.366Z" strokeWidth="4" strokeMiterlimit="10" opacity="0.5"/><path d="M204.83 547.366L204.07 547.583C44.6446 591.293 4.97294 488.737 4.2998 486.783C6.6015 556.268 27.5556 610.054 85.9883 613.876C86.01 613.789 168.198 626.622 204.83 547.366Z" stroke="currentColor" strokeWidth="4" strokeMiterlimit="10" opacity="0.5"/><path stroke="currentColor" d="M342.475 368.05C363.57 368.05 380.67 350.95 380.67 329.855C380.67 308.761 363.57 291.66 342.475 291.66C321.381 291.66 304.28 308.761 304.28 329.855C304.28 350.95 321.381 368.05 342.475 368.05Z" strokeWidth="4" strokeMiterlimit="10" opacity="0.5" fill="#97AFDD"/><path stroke="currentColor" opacity="0.5" d="M204.83 547.366L204.07 547.583C44.6446 591.293 4.97294 488.737 4.2998 486.783C6.6015 556.268 27.5556 610.054 85.9883 613.876C86.01 613.789 168.198 626.622 204.83 547.366Z" strokeWidth="4" strokeMiterlimit="10"/><path stroke="currentColor" opacity="0.5" d="M342.475 368.05C363.57 368.05 380.67 350.95 380.67 329.855C380.67 308.761 363.57 291.66 342.475 291.66C321.381 291.66 304.28 308.761 304.28 329.855C304.28 350.95 321.381 368.05 342.475 368.05Z" strokeWidth="4" strokeMiterlimit="10" fill="#97AFDD"/><path stroke="currentColor"/><path stroke="currentColor"/><path stroke="currentColor"/><path stroke="currentColor" d="M342.475 368.05C363.57 368.05 380.67 350.95 380.67 329.855C380.67 308.761 363.57 291.66 342.475 291.66C321.381 291.66 304.28 308.761 304.28 329.855C304.28 350.95 321.381 368.05 342.475 368.05Z" strokeWidth="4" strokeMiterlimit="10" fill="#97AFDD" opacity="0.5"/><path stroke="currentColor"/><path stroke="currentColor" d="M342.475 368.05C363.57 368.05 380.67 350.95 380.67 329.855C380.67 308.761 363.57 291.66 342.475 291.66C321.381 291.66 304.28 308.761 304.28 329.855C304.28 350.95 321.381 368.05 342.475 368.05Z" strokeWidth="4" strokeMiterlimit="10" fill="#97AFDD" opacity="0.5"/><path stroke="currentColor" d="M342.475 368.05C363.57 368.05 380.67 350.95 380.67 329.855C380.67 308.761 363.57 291.66 342.475 291.66C321.381 291.66 304.28 308.761 304.28 329.855C304.28 350.95 321.381 368.05 342.475 368.05Z" strokeWidth="4" strokeMiterlimit="10" fill="#97AFDD" opacity="0.5"/><path stroke="currentColor" d="M342.475 368.05C363.57 368.05 380.67 350.95 380.67 329.855C380.67 308.761 363.57 291.66 342.475 291.66C321.381 291.66 304.28 308.761 304.28 329.855C304.28 350.95 321.381 368.05 342.475 368.05Z" strokeWidth="4" strokeMiterlimit="10" fill="#97AFDD" opacity="0.5"/><path stroke="currentColor"/><path stroke="currentColor" d="M342.475 368.05C363.57 368.05 380.67 350.95 380.67 329.855C380.67 308.761 363.57 291.66 342.475 291.66C321.381 291.66 304.28 308.761 304.28 329.855C304.28 350.95 321.381 368.05 342.475 368.05Z" strokeWidth="4" strokeMiterlimit="10" fill="#97AFDD" opacity="0.5"/><path stroke="currentColor" d="M342.475 368.05C363.57 368.05 380.67 350.95 380.67 329.855C380.67 308.761 363.57 291.66 342.475 291.66C321.381 291.66 304.28 308.761 304.28 329.855C304.28 350.95 321.381 368.05 342.475 368.05Z" strokeWidth="4" strokeMiterlimit="10" fill="#97AFDD" opacity="0.5"/><path stroke="currentColor" d="M342.475 368.05C363.57 368.05 380.67 350.95 380.67 329.855C380.67 308.761 363.57 291.66 342.475 291.66C321.381 291.66 304.28 308.761 304.28 329.855C304.28 350.95 321.381 368.05 342.475 368.05Z" strokeWidth="4" strokeMiterlimit="10" fill="#97AFDD" opacity="0.5"/><path stroke="currentColor" d="M342.475 368.05C363.57 368.05 380.67 350.95 380.67 329.855C380.67 308.761 363.57 291.66 342.475 291.66C321.381 291.66 304.28 308.761 304.28 329.855C304.28 350.95 321.381 368.05 342.475 368.05Z" strokeWidth="4" strokeMiterlimit="10" fill="#97AFDD" opacity="0.5"/><path stroke="currentColor" d="M342.475 368.05C363.57 368.05 380.67 350.95 380.67 329.855C380.67 308.761 363.57 291.66 342.475 291.66C321.381 291.66 304.28 308.761 304.28 329.855C304.28 350.95 321.381 368.05 342.475 368.05Z" strokeWidth="4" strokeMiterlimit="10" fill="#97AFDD" opacity="0.5"/><path d="M342.475 368.05C363.57 368.05 380.67 350.95 380.67 329.855C380.67 308.761 363.57 291.66 342.475 291.66C321.381 291.66 304.28 308.761 304.28 329.855C304.28 350.95 321.381 368.05 342.475 368.05Z" strokeWidth="4" stroke="currentColor" fill="#97AFDD" strokeMiterlimit="10" opacity="0.5"/><path stroke="currentColor" d="M342.475 368.05C363.57 368.05 380.67 350.95 380.67 329.855C380.67 308.761 363.57 291.66 342.475 291.66C321.381 291.66 304.28 308.761 304.28 329.855C304.28 350.95 321.381 368.05 342.475 368.05Z" strokeWidth="4" fill="#97AFDD" strokeMiterlimit="10" opacity="0.5"/><path fill="#97AFDD" d="M342.475 368.05C363.57 368.05 380.67 350.95 380.67 329.855C380.67 308.761 363.57 291.66 342.475 291.66C321.381 291.66 304.28 308.761 304.28 329.855C304.28 350.95 321.381 368.05 342.475 368.05Z" stroke="currentColor" strokeWidth="4" strokeMiterlimit="10" opacity="0.5"/><path fill="#97AFDD" d="M342.475 368.05C363.57 368.05 380.67 350.95 380.67 329.855C380.67 308.761 363.57 291.66 342.475 291.66C321.381 291.66 304.28 308.761 304.28 329.855C304.28 350.95 321.381 368.05 342.475 368.05Z" stroke="currentColor" strokeWidth="4" strokeMiterlimit="10" opacity="0.5"/><path fill="#97AFDD" d="M342.475 368.05C363.57 368.05 380.67 350.95 380.67 329.855C380.67 308.761 363.57 291.66 342.475 291.66C321.381 291.66 304.28 308.761 304.28 329.855C304.28 350.95 321.381 368.05 342.475 368.05Z" stroke="currentColor" strokeWidth="4" strokeMiterlimit="10" opacity="0.5"/><path stroke="currentColor" d="M342.475 368.05C363.57 368.05 380.67 350.95 380.67 329.855C380.67 308.761 363.57 291.66 342.475 291.66C321.381 291.66 304.28 308.761 304.28 329.855C304.28 350.95 321.381 368.05 342.475 368.05Z" strokeWidth="4" strokeMiterlimit="10" opacity="0.5" fill="#97AFDD"/><path stroke="currentColor" d="M342.475 368.05C363.57 368.05 380.67 350.95 380.67 329.855C380.67 308.761 363.57 291.66 342.475 291.66C321.381 291.66 304.28 308.761 304.28 329.855C304.28 350.95 321.381 368.05 342.475 368.05Z" strokeWidth="4" strokeMiterlimit="10" opacity="0.5" fill="#97AFDD"/><path stroke="currentColor" d="M342.475 368.05C363.57 368.05 380.67 350.95 380.67 329.855C380.67 308.761 363.57 291.66 342.475 291.66C321.381 291.66 304.28 308.761 304.28 329.855C304.28 350.95 321.381 368.05 342.475 368.05Z" strokeWidth="4" strokeMiterlimit="10" opacity="0.5" fill="#97AFDD"/><path stroke="currentColor" d="M342.475 368.05C363.57 368.05 380.67 350.95 380.67 329.855C380.67 308.761 363.57 291.66 342.475 291.66C321.381 291.66 304.28 308.761 304.28 329.855C304.28 350.95 321.381 368.05 342.475 368.05Z" strokeWidth="4" strokeMiterlimit="10" opacity="0.5" fill="#97AFDD"/><path stroke="currentColor" d="M342.475 368.05C363.57 368.05 380.67 350.95 380.67 329.855C380.67 308.761 363.57 291.66 342.475 291.66C321.381 291.66 304.28 308.761 304.28 329.855C304.28 350.95 321.381 368.05 342.475 368.05Z" strokeWidth="4" strokeMiterlimit="10" opacity="0.5" fill="#97AFDD"/><path stroke="currentColor" d="M342.475 368.05C363.57 368.05 380.67 350.95 380.67 329.855C380.67 308.761 363.57 291.66 342.475 291.66C321.381 291.66 304.28 308.761 304.28 329.855C304.28 350.95 321.381 368.05 342.475 368.05Z" strokeWidth="4" strokeMiterlimit="10" opacity="0.5" fill="#97AFDD"/><path stroke="currentColor" opacity="0.5" d="M342.475 368.05C363.57 368.05 380.67 350.95 380.67 329.855C380.67 308.761 363.57 291.66 342.475 291.66C321.381 291.66 304.28 308.761 304.28 329.855C304.28 350.95 321.381 368.05 342.475 368.05Z" strokeWidth="4" strokeMiterlimit="10" fill="#97AFDD"/><path stroke="currentColor" opacity="0.5" d="M342.475 368.05C363.57 368.05 380.67 350.95 380.67 329.855C380.67 308.761 363.57 291.66 342.475 291.66C321.381 291.66 304.28 308.761 304.28 329.855C304.28 350.95 321.381 368.05 342.475 368.05Z" strokeWidth="4" strokeMiterlimit="10" fill="#97AFDD"/><path stroke="currentColor" opacity="0.5" d="M342.475 368.05C363.57 368.05 380.67 350.95 380.67 329.855C380.67 308.761 363.57 291.66 342.475 291.66C321.381 291.66 304.28 308.761 304.28 329.855C304.28 350.95 321.381 368.05 342.475 368.05Z" strokeWidth="4" strokeMiterlimit="10" fill="#97AFDD"/><path stroke="currentColor" opacity="0.5" d="M342.475 368.05C363.57 368.05 380.67 350.95 380.67 329.855C380.67 308.761 363.57 291.66 342.475 291.66C321.381 291.66 304.28 308.761 304.28 329.855C304.28 350.95 321.381 368.05 342.475 368.05Z" strokeWidth="4" strokeMiterlimit="10" fill="#97AFDD"/><path stroke="currentColor" opacity="0.5" d="M342.475 368.05C363.57 368.05 380.67 350.95 380.67 329.855C380.67 308.761 363.57 291.66 342.475 291.66C321.381 291.66 304.28 308.761 304.28 329.855C304.28 350.95 321.381 368.05 342.475 368.05Z" strokeWidth="4" strokeMiterlimit="10" fill="#97AFDD"/><path stroke="currentColor" d="M342.475 368.05C363.57 368.05 380.67 350.95 380.67 329.855C380.67 308.761 363.57 291.66 342.475 291.66C321.381 291.66 304.28 308.761 304.28 329.855C304.28 350.95 321.381 368.05 342.475 368.05Z" strokeWidth="4" strokeMiterlimit="10" fill="#97AFDD" opacity="0.5"/><path stroke="currentColor" d="M342.475 368.05C363.57 368.05 380.67 350.95 380.67 329.855C380.67 308.761 363.57 291.66 342.475 291.66C321.381 291.66 304.28 308.761 304.28 329.855C304.28 350.95 321.381 368.05 342.475 368.05Z" strokeWidth="4" strokeMiterlimit="10" fill="#97AFDD" opacity="0.5"/><path stroke="currentColor" d="M342.475 368.05C363.57 368.05 380.67 350.95 380.67 329.855C380.67 308.761 363.57 291.66 342.475 291.66C321.381 291.66 304.28 308.761 304.28 329.855C304.28 350.95 321.381 368.05 342.475 368.05Z" strokeWidth="4" strokeMiterlimit="10" fill="#97AFDD" opacity="0.5"/><path stroke="currentColor" d="M342.475 368.05C363.57 368.05 380.67 350.95 380.67 329.855C380.67 308.761 363.57 291.66 342.475 291.66C321.381 291.66 304.28 308.761 304.28 329.855C304.28 350.95 321.381 368.05 342.475 368.05Z" strokeWidth="4" strokeMiterlimit="10" fill="#97AFDD" opacity="0.5"/><path stroke="currentColor" d="M342.475 368.05C363.57 368.05 380.67 350.95 380.67 329.855C380.67 308.761 363.57 291.66 342.475 291.66C321.381 291.66 304.28 308.761 304.28 329.855C304.28 350.95 321.381 368.05 342.475 368.05Z" strokeWidth="4" strokeMiterlimit="10" fill="#97AFDD" opacity="0.5"/><path stroke="currentColor" d="M342.475 368.05C363.57 368.05 380.67 350.95 380.67 329.855C380.67 308.761 363.57 291.66 342.475 291.66C321.381 291.66 304.28 308.761 304.28 329.855C304.28 350.95 321.381 368.05 342.475 368.05Z" strokeWidth="4" strokeMiterlimit="10" fill="#97AFDD" opacity="0.5"/><path stroke="currentColor" d="M342.475 368.05C363.57 368.05 380.67 350.95 380.67 329.855C380.67 308.761 363.57 291.66 342.475 291.66C321.381 291.66 304.28 308.761 304.28 329.855C304.28 350.95 321.381 368.05 342.475 368.05Z" strokeWidth="4" strokeMiterlimit="10" fill="#97AFDD" opacity="0.5"/><path fill="#97AFDD" d="M342.475 368.05C363.57 368.05 380.67 350.95 380.67 329.855C380.67 308.761 363.57 291.66 342.475 291.66C321.381 291.66 304.28 308.761 304.28 329.855C304.28 350.95 321.381 368.05 342.475 368.05Z" stroke="currentColor" opacity="0.5" strokeWidth="4" strokeMiterlimit="10"/><path stroke="currentColor" opacity="0.5" d="M342.475 368.05C363.57 368.05 380.67 350.95 380.67 329.855C380.67 308.761 363.57 291.66 342.475 291.66C321.381 291.66 304.28 308.761 304.28 329.855C304.28 350.95 321.381 368.05 342.475 368.05Z" strokeWidth="4" strokeMiterlimit="10"/><path stroke="currentColor" opacity="0.5" d="M342.475 368.05C363.57 368.05 380.67 350.95 380.67 329.855C380.67 308.761 363.57 291.66 342.475 291.66C321.381 291.66 304.28 308.761 304.28 329.855C304.28 350.95 321.381 368.05 342.475 368.05Z" strokeWidth="4" strokeMiterlimit="10"/><path stroke="currentColor" d="M342.475 368.05C363.57 368.05 380.67 350.95 380.67 329.855C380.67 308.761 363.57 291.66 342.475 291.66C321.381 291.66 304.28 308.761 304.28 329.855C304.28 350.95 321.381 368.05 342.475 368.05Z" strokeWidth="4" strokeMiterlimit="10" opacity="0.5"/><path stroke="currentColor" d="M342.475 368.05C363.57 368.05 380.67 350.95 380.67 329.855C380.67 308.761 363.57 291.66 342.475 291.66C321.381 291.66 304.28 308.761 304.28 329.855C304.28 350.95 321.381 368.05 342.475 368.05Z" strokeWidth="4" strokeMiterlimit="10" opacity="0.5"/><path stroke="currentColor" opacity="0.5" d="M342.475 368.05C363.57 368.05 380.67 350.95 380.67 329.855C380.67 308.761 363.57 291.66 342.475 291.66C321.381 291.66 304.28 308.761 304.28 329.855C304.28 350.95 321.381 368.05 342.475 368.05Z" strokeWidth="4" strokeMiterlimit="10"/><path stroke="currentColor" d="M342.475 368.05C363.57 368.05 380.67 350.95 380.67 329.855C380.67 308.761 363.57 291.66 342.475 291.66C321.381 291.66 304.28 308.761 304.28 329.855C304.28 350.95 321.381 368.05 342.475 368.05Z" strokeWidth="4" strokeMiterlimit="10"/><path stroke="currentColor" d="M342.475 368.05C363.57 368.05 380.67 350.95 380.67 329.855C380.67 308.761 363.57 291.66 342.475 291.66C321.381 291.66 304.28 308.761 304.28 329.855C304.28 350.95 321.381 368.05 342.475 368.05Z" strokeWidth="4" strokeMiterlimit="10"/></svg>