<svg xmlns="http://www.w3.org/2000/svg" viewBox="0 0 36 36" fill="#fff"><path d="M3.59567 25.8536C2.71888 24.9898 2 23.8995 2 22.6462C2 22.216 2.0322 21.7227 2.09012 21.1834C2.74122 21.2985 3.37994 21.467 4 21.6863C5.67161 22.2773 7.20766 23.2371 8.48528 24.5147C8.76659 24.796 9.03248 25.0899 9.28243 25.3949C9.29803 25.4139 9.31357 25.433 9.32904 25.4522L6.72222 28C6.72222 28 6.36151 27.8364 5.83947 27.5319C5.77973 27.4681 5.71885 27.4051 5.65685 27.3431C5.46932 27.1556 5.27343 26.9783 5.07006 26.8117C4.61305 26.4373 4.11828 26.1165 3.59567 25.8536Z" fill="currentColor" fillRule="evenodd" clipRule="evenodd"/><path fillRule="evenodd" clipRule="evenodd"/></svg>