<svg xmlns="http://www.w3.org/2000/svg" viewBox="0 0 36 36" fill="#fff"><path fill="currentColor" fillRule="evenodd" clipRule="evenodd" d="M19.1641 2.54312L20.2072 1.50008L19.5001 0.792969L17.293 3.00008L19.5001 5.20718L20.2072 4.50008L19.2613 3.55415C26.2632 4.15744 31.8427 9.7369 32.446 16.7388L31.5001 15.7929L30.793 16.5L33.0001 18.7072L35.2072 16.5L34.5001 15.7929L33.457 16.836C32.8903 9.20359 26.7966 3.10981 19.1641 2.54312Z"/><path fill="currentColor" fillRule="evenodd" clipRule="evenodd" d="M19.1641 2.54312L20.2072 1.50008L19.5001 0.792969L17.293 3.00008L19.5001 5.20718L20.2072 4.50008L19.2613 3.55415C26.2632 4.15744 31.8427 9.7369 32.446 16.7388L31.5001 15.7929L30.793 16.5L33.0001 18.7072L35.2072 16.5L34.5001 15.7929L33.457 16.836C32.8903 9.20359 26.7966 3.10981 19.1641 2.54312Z"/><path fill="currentColor" fillRule="evenodd" clipRule="evenodd"/><path fill="currentColor" fillRule="evenodd" clipRule="evenodd" d="M19.1641 2.54312L20.2072 1.50008L19.5001 0.792969L17.293 3.00008L19.5001 5.20718L20.2072 4.50008L19.2613 3.55415C26.2632 4.15744 31.8427 9.7369 32.446 16.7388L31.5001 15.7929L30.793 16.5L33.0001 18.7072L35.2072 16.5L34.5001 15.7929L33.457 16.836C32.8903 9.20359 26.7966 3.10981 19.1641 2.54312Z"/><path fill="currentColor" fillRule="evenodd" clipRule="evenodd" d="M19.1641 2.54312L20.2072 1.50008L19.5001 0.792969L17.293 3.00008L19.5001 5.20718L20.2072 4.50008L19.2613 3.55415C26.2632 4.15744 31.8427 9.7369 32.446 16.7388L31.5001 15.7929L30.793 16.5L33.0001 18.7072L35.2072 16.5L34.5001 15.7929L33.457 16.836C32.8903 9.20359 26.7966 3.10981 19.1641 2.54312Z"/><path fill="currentColor" fillRule="evenodd" clipRule="evenodd" d="M19.1641 2.54312L20.2072 1.50008L19.5001 0.792969L17.293 3.00008L19.5001 5.20718L20.2072 4.50008L19.2613 3.55415C26.2632 4.15744 31.8427 9.7369 32.446 16.7388L31.5001 15.7929L30.793 16.5L33.0001 18.7072L35.2072 16.5L34.5001 15.7929L33.457 16.836C32.8903 9.20359 26.7966 3.10981 19.1641 2.54312Z"/></svg>