<svg xmlns="http://www.w3.org/2000/svg" viewBox="0 0 720 720" fill="#fff"><path d="M383.73,470.72c-5.58,0-11.13-2.32-15.08-6.85c-7.26-8.32-6.4-20.96,1.92-28.22\n\t\t\t\t\tC392.45,416.57,405,388.99,405,360c0-28.99-12.55-56.57-34.42-75.65c-8.32-7.26-9.18-19.9-1.92-28.22\n\t\t\t\t\tc7.26-8.32,19.9-9.19,28.22-1.92C427.46,280.89,445,319.45,445,360c0,40.55-17.54,79.11-48.13,105.79\n\t\t\t\t\tC393.08,469.1,388.4,470.72,383.73,470.72z"/><g d="M449.63,538.52c-5.42,0-10.82-2.19-14.76-6.5c-7.46-8.15-6.9-20.8,1.25-28.26\n\t\t\t\t\tc40.26-36.84,63.35-89.24,63.35-143.77c0-54.52-23.09-106.93-63.35-143.77c-8.15-7.46-8.71-20.11-1.25-28.26\n\t\t\t\t\tc7.46-8.15,20.11-8.71,28.26-1.25c23.8,21.78,42.56,47.69,55.76,77c13.66,30.35,20.59,62.75,20.59,96.28\n\t\t\t\t\tc0,33.53-6.93,65.92-20.59,96.28c-13.19,29.31-31.95,55.21-55.76,77C459.29,536.79,454.46,538.52,449.63,538.52z"/><path d="M383.73,470.72c-5.58,0-11.13-2.32-15.08-6.85c-7.26-8.32-6.4-20.96,1.92-28.22\n\t\t\t\t\tC392.45,416.57,405,388.99,405,360c0-28.99-12.55-56.57-34.42-75.65c-8.32-7.26-9.18-19.9-1.92-28.22\n\t\t\t\t\tc7.26-8.32,19.9-9.19,28.22-1.92C427.46,280.89,445,319.45,445,360c0,40.55-17.54,79.11-48.13,105.79\n\t\t\t\t\tC393.08,469.1,388.4,470.72,383.73,470.72z"/><path d="M383.73,470.72c-5.58,0-11.13-2.32-15.08-6.85c-7.26-8.32-6.4-20.96,1.92-28.22\n\t\t\t\t\tC392.45,416.57,405,388.99,405,360c0-28.99-12.55-56.57-34.42-75.65c-8.32-7.26-9.18-19.9-1.92-28.22\n\t\t\t\t\tc7.26-8.32,19.9-9.19,28.22-1.92C427.46,280.89,445,319.45,445,360c0,40.55-17.54,79.11-48.13,105.79\n\t\t\t\t\tC393.08,469.1,388.4,470.72,383.73,470.72z"/><path d="M383.73,470.72c-5.58,0-11.13-2.32-15.08-6.85c-7.26-8.32-6.4-20.96,1.92-28.22\n\t\t\t\t\tC392.45,416.57,405,388.99,405,360c0-28.99-12.55-56.57-34.42-75.65c-8.32-7.26-9.18-19.9-1.92-28.22\n\t\t\t\t\tc7.26-8.32,19.9-9.19,28.22-1.92C427.46,280.89,445,319.45,445,360c0,40.55-17.54,79.11-48.13,105.79\n\t\t\t\t\tC393.08,469.1,388.4,470.72,383.73,470.72z"/></svg>