<svg xmlns="http://www.w3.org/2000/svg" viewBox="0 0 36 36" fill="#fff"><path d="M18.3299 26L14.7399 29.58C15.1551 29.6912 15.5757 29.7813 15.9999 29.85V34.01H19.9999V29.89C22.4663 29.5004 24.7732 28.4243 26.6566 26.785C28.54 25.1456 29.9239 23.0091 30.6499 20.6201L26.8199 19.48C26.2501 21.3098 25.1284 22.9186 23.6084 24.0858C22.0885 25.2531 20.2448 25.9217 18.3299 26Z" fill="currentColor"/><path d="M18.3299 26L14.7399 29.58C15.1551 29.6912 15.5757 29.7813 15.9999 29.85V34.01H19.9999V29.89C22.4663 29.5004 24.7732 28.4243 26.6566 26.785C28.54 25.1456 29.9239 23.0091 30.6499 20.6201L26.8199 19.48C26.2501 21.3098 25.1284 22.9186 23.6084 24.0858C22.0885 25.2531 20.2448 25.9217 18.3299 26Z" fill="currentColor"/></svg>