<svg xmlns="http://www.w3.org/2000/svg" viewBox="0 0 36 36" width="36" height="36" fill="#fff"><g fill="currentColor" d="M28.5791 30.1112C29.1072 30.6809 29.7143 31.0429 30.4453 31.0429C36.0352 31.0429 36.0352 24.75 36.0352 24.75C36.0352 23.2544 35.3647 18.8614 34.3587 14.7732C33.9637 21.1424 31.8281 26.3629 28.5791 30.1112Z" fillRule="evenodd" clipRule="evenodd" width="36" height="36"/><path fill="currentColor" d="M28.5791 30.1112C29.1072 30.6809 29.7143 31.0429 30.4453 31.0429C36.0352 31.0429 36.0352 24.75 36.0352 24.75C36.0352 23.2544 35.3647 18.8614 34.3587 14.7732C33.9637 21.1424 31.8281 26.3629 28.5791 30.1112Z" fillRule="evenodd" clipRule="evenodd" width="36" height="36"/><path fill="currentColor" fillRule="evenodd" clipRule="evenodd" d="M28.5791 30.1112C29.1072 30.6809 29.7143 31.0429 30.4453 31.0429C36.0352 31.0429 36.0352 24.75 36.0352 24.75C36.0352 23.2544 35.3647 18.8614 34.3587 14.7732C33.9637 21.1424 31.8281 26.3629 28.5791 30.1112Z" width="36" height="36"/><defs fill="currentColor" width="36" height="36"/><clipPath fill="currentColor" width="36" height="36"/><rect fill="currentColor" width="36" height="36"/></svg>