<svg xmlns="http://www.w3.org/2000/svg" viewBox="0 0 720 720" fill="#fff"><g d="M201,285.4v157.1c0,87.81,71.19,159,159,159h0c87.81,0,159-71.19,159-159V285.4\n\t\t\t\t\tc-47.69,28.1-102.19,43.1-159,43.1C303.19,328.5,248.69,313.5,201,285.4z"/><path d="M201,285.4v157.1c0,87.81,71.19,159,159,159h0c87.81,0,159-71.19,159-159V285.4\n\t\t\t\t\tc-47.69,28.1-102.19,43.1-159,43.1C303.19,328.5,248.69,313.5,201,285.4z"/><path d="M201,285.4v157.1c0,87.81,71.19,159,159,159h0c87.81,0,159-71.19,159-159V285.4\n\t\t\t\t\tc-47.69,28.1-102.19,43.1-159,43.1C303.19,328.5,248.69,313.5,201,285.4z"/><path d="M201,285.4v157.1c0,87.81,71.19,159,159,159h0c87.81,0,159-71.19,159-159V285.4\n\t\t\t\t\tc-47.69,28.1-102.19,43.1-159,43.1C303.19,328.5,248.69,313.5,201,285.4z"/></svg>