<svg xmlns="http://www.w3.org/2000/svg" viewBox="0 0 24 14" fill="#fff"><path d="M7.40247 12.3107C7.36561 12.0281 7.31032 11.7455 7.24275 11.4752C7.11374 10.9592 6.92331 10.4739 6.67759 10.0132C6.08786 8.91358 5.19706 8.0044 4.10974 7.39623C4.07903 7.3778 4.05446 7.35938 4.02374 7.34095C3.69202 7.1628 3.34191 7.01538 2.97948 6.89252C2.94262 6.88023 2.9119 6.86795 2.87504 6.85566C2.86276 6.84952 2.85661 6.84952 2.84433 6.84338C2.50646 6.73894 2.16245 6.66523 1.80615 6.61608C1.72629 6.6038 1.65258 6.58537 1.57272 6.57922C1.49286 6.57308 1.40686 6.57308 1.32085 6.56694C1.17956 6.5608 1.04442 6.54851 0.903126 6.54851C0.817124 6.54851 0.731121 6.56694 0.651261 6.59765C0.595974 6.62223 0.540687 6.65294 0.491542 6.69594C0.393254 6.7758 0.32568 6.88023 0.282679 7.00309C0.26425 7.06453 0.251964 7.12596 0.251964 7.19353C0.251964 7.28567 0.270393 7.36553 0.301108 7.44539C0.313394 7.46997 0.331823 7.49454 0.350252 7.51911C0.380968 7.56825 0.40554 7.6174 0.442398 7.65426C0.460827 7.67269 0.491542 7.68497 0.516114 7.7034C0.559116 7.73412 0.602117 7.77098 0.651261 7.79555C0.675834 7.80783 0.706549 7.80783 0.737264 7.81398C0.792552 7.82626 0.841696 7.84469 0.903126 7.84469C1.26557 7.84469 1.61572 7.88155 1.95973 7.94912C2.02116 7.96141 2.08259 7.97984 2.14402 7.99827C2.2546 8.02284 2.35903 8.04741 2.46346 8.07813C2.49417 8.08427 2.51875 8.09656 2.54332 8.10884C2.57403 8.12113 2.60475 8.13342 2.63546 8.1457C2.7399 8.18256 2.83819 8.21327 2.94262 8.25628C3.02248 8.29313 3.09619 8.32999 3.17605 8.36685C3.24977 8.40371 3.32963 8.43442 3.40335 8.47743C3.47706 8.52043 3.54464 8.56343 3.61835 8.60643C3.69207 8.64943 3.76578 8.69243 3.83336 8.74158C3.9255 8.80301 4.01151 8.87058 4.09751 8.93815C4.14665 8.97501 4.1958 9.00573 4.2388 9.04259C4.75482 9.46646 5.19097 9.99476 5.51041 10.5845L5.51655 10.5906C5.63327 10.7995 5.72542 11.0268 5.81142 11.2541C5.88514 11.4445 5.94657 11.6411 5.99571 11.8438C6.04485 12.0465 6.08171 12.2493 6.10628 12.4643C6.13086 12.6731 6.14929 12.882 6.14929 13.097C6.14929 13.2751 6.223 13.4349 6.33972 13.5516C6.45644 13.6683 6.61616 13.742 6.80045 13.742C6.88645 13.742 6.97245 13.7236 7.05231 13.6929C7.20589 13.6253 7.32875 13.5024 7.39632 13.3489C7.42704 13.269 7.44547 13.1891 7.44547 13.097C7.45161 12.8267 7.43318 12.5687 7.40247 12.3107Z"/><path d="M7.40247 12.3107C7.36561 12.0281 7.31032 11.7455 7.24275 11.4752C7.11374 10.9592 6.92331 10.4739 6.67759 10.0132C6.08786 8.91358 5.19706 8.0044 4.10974 7.39623C4.07903 7.3778 4.05446 7.35938 4.02374 7.34095C3.69202 7.1628 3.34191 7.01538 2.97948 6.89252C2.94262 6.88023 2.9119 6.86795 2.87504 6.85566C2.86276 6.84952 2.85661 6.84952 2.84433 6.84338C2.50646 6.73894 2.16245 6.66523 1.80615 6.61608C1.72629 6.6038 1.65258 6.58537 1.57272 6.57922C1.49286 6.57308 1.40686 6.57308 1.32085 6.56694C1.17956 6.5608 1.04442 6.54851 0.903126 6.54851C0.817124 6.54851 0.731121 6.56694 0.651261 6.59765C0.595974 6.62223 0.540687 6.65294 0.491542 6.69594C0.393254 6.7758 0.32568 6.88023 0.282679 7.00309C0.26425 7.06453 0.251964 7.12596 0.251964 7.19353C0.251964 7.28567 0.270393 7.36553 0.301108 7.44539C0.313394 7.46997 0.331823 7.49454 0.350252 7.51911C0.380968 7.56825 0.40554 7.6174 0.442398 7.65426C0.460827 7.67269 0.491542 7.68497 0.516114 7.7034C0.559116 7.73412 0.602117 7.77098 0.651261 7.79555C0.675834 7.80783 0.706549 7.80783 0.737264 7.81398C0.792552 7.82626 0.841696 7.84469 0.903126 7.84469C1.26557 7.84469 1.61572 7.88155 1.95973 7.94912C2.02116 7.96141 2.08259 7.97984 2.14402 7.99827C2.2546 8.02284 2.35903 8.04741 2.46346 8.07813C2.49417 8.08427 2.51875 8.09656 2.54332 8.10884C2.57403 8.12113 2.60475 8.13342 2.63546 8.1457C2.7399 8.18256 2.83819 8.21327 2.94262 8.25628C3.02248 8.29313 3.09619 8.32999 3.17605 8.36685C3.24977 8.40371 3.32963 8.43442 3.40335 8.47743C3.47706 8.52043 3.54464 8.56343 3.61835 8.60643C3.69207 8.64943 3.76578 8.69243 3.83336 8.74158C3.9255 8.80301 4.01151 8.87058 4.09751 8.93815C4.14665 8.97501 4.1958 9.00573 4.2388 9.04259C4.75482 9.46646 5.19097 9.99476 5.51041 10.5845L5.51655 10.5906C5.63327 10.7995 5.72542 11.0268 5.81142 11.2541C5.88514 11.4445 5.94657 11.6411 5.99571 11.8438C6.04485 12.0465 6.08171 12.2493 6.10628 12.4643C6.13086 12.6731 6.14929 12.882 6.14929 13.097C6.14929 13.2751 6.223 13.4349 6.33972 13.5516C6.45644 13.6683 6.61616 13.742 6.80045 13.742C6.88645 13.742 6.97245 13.7236 7.05231 13.6929C7.20589 13.6253 7.32875 13.5024 7.39632 13.3489C7.42704 13.269 7.44547 13.1891 7.44547 13.097C7.45161 12.8267 7.43318 12.5687 7.40247 12.3107Z"/><path d="M7.40247 12.3107C7.36561 12.0281 7.31032 11.7455 7.24275 11.4752C7.11374 10.9592 6.92331 10.4739 6.67759 10.0132C6.08786 8.91358 5.19706 8.0044 4.10974 7.39623C4.07903 7.3778 4.05446 7.35938 4.02374 7.34095C3.69202 7.1628 3.34191 7.01538 2.97948 6.89252C2.94262 6.88023 2.9119 6.86795 2.87504 6.85566C2.86276 6.84952 2.85661 6.84952 2.84433 6.84338C2.50646 6.73894 2.16245 6.66523 1.80615 6.61608C1.72629 6.6038 1.65258 6.58537 1.57272 6.57922C1.49286 6.57308 1.40686 6.57308 1.32085 6.56694C1.17956 6.5608 1.04442 6.54851 0.903126 6.54851C0.817124 6.54851 0.731121 6.56694 0.651261 6.59765C0.595974 6.62223 0.540687 6.65294 0.491542 6.69594C0.393254 6.7758 0.32568 6.88023 0.282679 7.00309C0.26425 7.06453 0.251964 7.12596 0.251964 7.19353C0.251964 7.28567 0.270393 7.36553 0.301108 7.44539C0.313394 7.46997 0.331823 7.49454 0.350252 7.51911C0.380968 7.56825 0.40554 7.6174 0.442398 7.65426C0.460827 7.67269 0.491542 7.68497 0.516114 7.7034C0.559116 7.73412 0.602117 7.77098 0.651261 7.79555C0.675834 7.80783 0.706549 7.80783 0.737264 7.81398C0.792552 7.82626 0.841696 7.84469 0.903126 7.84469C1.26557 7.84469 1.61572 7.88155 1.95973 7.94912C2.02116 7.96141 2.08259 7.97984 2.14402 7.99827C2.2546 8.02284 2.35903 8.04741 2.46346 8.07813C2.49417 8.08427 2.51875 8.09656 2.54332 8.10884C2.57403 8.12113 2.60475 8.13342 2.63546 8.1457C2.7399 8.18256 2.83819 8.21327 2.94262 8.25628C3.02248 8.29313 3.09619 8.32999 3.17605 8.36685C3.24977 8.40371 3.32963 8.43442 3.40335 8.47743C3.47706 8.52043 3.54464 8.56343 3.61835 8.60643C3.69207 8.64943 3.76578 8.69243 3.83336 8.74158C3.9255 8.80301 4.01151 8.87058 4.09751 8.93815C4.14665 8.97501 4.1958 9.00573 4.2388 9.04259C4.75482 9.46646 5.19097 9.99476 5.51041 10.5845L5.51655 10.5906C5.63327 10.7995 5.72542 11.0268 5.81142 11.2541C5.88514 11.4445 5.94657 11.6411 5.99571 11.8438C6.04485 12.0465 6.08171 12.2493 6.10628 12.4643C6.13086 12.6731 6.14929 12.882 6.14929 13.097C6.14929 13.2751 6.223 13.4349 6.33972 13.5516C6.45644 13.6683 6.61616 13.742 6.80045 13.742C6.88645 13.742 6.97245 13.7236 7.05231 13.6929C7.20589 13.6253 7.32875 13.5024 7.39632 13.3489C7.42704 13.269 7.44547 13.1891 7.44547 13.097C7.45161 12.8267 7.43318 12.5687 7.40247 12.3107Z"/><path d="M7.40247 12.3107C7.36561 12.0281 7.31032 11.7455 7.24275 11.4752C7.11374 10.9592 6.92331 10.4739 6.67759 10.0132C6.08786 8.91358 5.19706 8.0044 4.10974 7.39623C4.07903 7.3778 4.05446 7.35938 4.02374 7.34095C3.69202 7.1628 3.34191 7.01538 2.97948 6.89252C2.94262 6.88023 2.9119 6.86795 2.87504 6.85566C2.86276 6.84952 2.85661 6.84952 2.84433 6.84338C2.50646 6.73894 2.16245 6.66523 1.80615 6.61608C1.72629 6.6038 1.65258 6.58537 1.57272 6.57922C1.49286 6.57308 1.40686 6.57308 1.32085 6.56694C1.17956 6.5608 1.04442 6.54851 0.903126 6.54851C0.817124 6.54851 0.731121 6.56694 0.651261 6.59765C0.595974 6.62223 0.540687 6.65294 0.491542 6.69594C0.393254 6.7758 0.32568 6.88023 0.282679 7.00309C0.26425 7.06453 0.251964 7.12596 0.251964 7.19353C0.251964 7.28567 0.270393 7.36553 0.301108 7.44539C0.313394 7.46997 0.331823 7.49454 0.350252 7.51911C0.380968 7.56825 0.40554 7.6174 0.442398 7.65426C0.460827 7.67269 0.491542 7.68497 0.516114 7.7034C0.559116 7.73412 0.602117 7.77098 0.651261 7.79555C0.675834 7.80783 0.706549 7.80783 0.737264 7.81398C0.792552 7.82626 0.841696 7.84469 0.903126 7.84469C1.26557 7.84469 1.61572 7.88155 1.95973 7.94912C2.02116 7.96141 2.08259 7.97984 2.14402 7.99827C2.2546 8.02284 2.35903 8.04741 2.46346 8.07813C2.49417 8.08427 2.51875 8.09656 2.54332 8.10884C2.57403 8.12113 2.60475 8.13342 2.63546 8.1457C2.7399 8.18256 2.83819 8.21327 2.94262 8.25628C3.02248 8.29313 3.09619 8.32999 3.17605 8.36685C3.24977 8.40371 3.32963 8.43442 3.40335 8.47743C3.47706 8.52043 3.54464 8.56343 3.61835 8.60643C3.69207 8.64943 3.76578 8.69243 3.83336 8.74158C3.9255 8.80301 4.01151 8.87058 4.09751 8.93815C4.14665 8.97501 4.1958 9.00573 4.2388 9.04259C4.75482 9.46646 5.19097 9.99476 5.51041 10.5845L5.51655 10.5906C5.63327 10.7995 5.72542 11.0268 5.81142 11.2541C5.88514 11.4445 5.94657 11.6411 5.99571 11.8438C6.04485 12.0465 6.08171 12.2493 6.10628 12.4643C6.13086 12.6731 6.14929 12.882 6.14929 13.097C6.14929 13.2751 6.223 13.4349 6.33972 13.5516C6.45644 13.6683 6.61616 13.742 6.80045 13.742C6.88645 13.742 6.97245 13.7236 7.05231 13.6929C7.20589 13.6253 7.32875 13.5024 7.39632 13.3489C7.42704 13.269 7.44547 13.1891 7.44547 13.097C7.45161 12.8267 7.43318 12.5687 7.40247 12.3107Z"/><path d="M7.40247 12.3107C7.36561 12.0281 7.31032 11.7455 7.24275 11.4752C7.11374 10.9592 6.92331 10.4739 6.67759 10.0132C6.08786 8.91358 5.19706 8.0044 4.10974 7.39623C4.07903 7.3778 4.05446 7.35938 4.02374 7.34095C3.69202 7.1628 3.34191 7.01538 2.97948 6.89252C2.94262 6.88023 2.9119 6.86795 2.87504 6.85566C2.86276 6.84952 2.85661 6.84952 2.84433 6.84338C2.50646 6.73894 2.16245 6.66523 1.80615 6.61608C1.72629 6.6038 1.65258 6.58537 1.57272 6.57922C1.49286 6.57308 1.40686 6.57308 1.32085 6.56694C1.17956 6.5608 1.04442 6.54851 0.903126 6.54851C0.817124 6.54851 0.731121 6.56694 0.651261 6.59765C0.595974 6.62223 0.540687 6.65294 0.491542 6.69594C0.393254 6.7758 0.32568 6.88023 0.282679 7.00309C0.26425 7.06453 0.251964 7.12596 0.251964 7.19353C0.251964 7.28567 0.270393 7.36553 0.301108 7.44539C0.313394 7.46997 0.331823 7.49454 0.350252 7.51911C0.380968 7.56825 0.40554 7.6174 0.442398 7.65426C0.460827 7.67269 0.491542 7.68497 0.516114 7.7034C0.559116 7.73412 0.602117 7.77098 0.651261 7.79555C0.675834 7.80783 0.706549 7.80783 0.737264 7.81398C0.792552 7.82626 0.841696 7.84469 0.903126 7.84469C1.26557 7.84469 1.61572 7.88155 1.95973 7.94912C2.02116 7.96141 2.08259 7.97984 2.14402 7.99827C2.2546 8.02284 2.35903 8.04741 2.46346 8.07813C2.49417 8.08427 2.51875 8.09656 2.54332 8.10884C2.57403 8.12113 2.60475 8.13342 2.63546 8.1457C2.7399 8.18256 2.83819 8.21327 2.94262 8.25628C3.02248 8.29313 3.09619 8.32999 3.17605 8.36685C3.24977 8.40371 3.32963 8.43442 3.40335 8.47743C3.47706 8.52043 3.54464 8.56343 3.61835 8.60643C3.69207 8.64943 3.76578 8.69243 3.83336 8.74158C3.9255 8.80301 4.01151 8.87058 4.09751 8.93815C4.14665 8.97501 4.1958 9.00573 4.2388 9.04259C4.75482 9.46646 5.19097 9.99476 5.51041 10.5845L5.51655 10.5906C5.63327 10.7995 5.72542 11.0268 5.81142 11.2541C5.88514 11.4445 5.94657 11.6411 5.99571 11.8438C6.04485 12.0465 6.08171 12.2493 6.10628 12.4643C6.13086 12.6731 6.14929 12.882 6.14929 13.097C6.14929 13.2751 6.223 13.4349 6.33972 13.5516C6.45644 13.6683 6.61616 13.742 6.80045 13.742C6.88645 13.742 6.97245 13.7236 7.05231 13.6929C7.20589 13.6253 7.32875 13.5024 7.39632 13.3489C7.42704 13.269 7.44547 13.1891 7.44547 13.097C7.45161 12.8267 7.43318 12.5687 7.40247 12.3107Z"/></svg>