<svg xmlns="http://www.w3.org/2000/svg" viewBox="0 0 1000 699" fill="#fff"><path stroke="currentColor" d="M217.963 149.369C245.129 149.369 267.174 171.408 267.174 198.566C267.174 225.725 245.129 247.764 217.963 247.764C190.798 247.764 168.753 225.725 168.753 198.566C168.753 171.408 190.798 149.369 217.963 149.369Z" strokeWidth="4" strokeLinejoin="bevel" opacity="0.5" fill="currentColor"/><path stroke="currentColor" d="M217.963 149.369C245.129 149.369 267.174 171.408 267.174 198.566C267.174 225.725 245.129 247.764 217.963 247.764C190.798 247.764 168.753 225.725 168.753 198.566C168.753 171.408 190.798 149.369 217.963 149.369Z" strokeWidth="4" strokeLinejoin="bevel" opacity="0.5" fill="currentColor"/><path stroke="currentColor" d="M217.963 149.369C245.129 149.369 267.174 171.408 267.174 198.566C267.174 225.725 245.129 247.764 217.963 247.764C190.798 247.764 168.753 225.725 168.753 198.566C168.753 171.408 190.798 149.369 217.963 149.369Z" strokeWidth="4" strokeLinejoin="bevel" opacity="0.5" fill="currentColor"/><path stroke="currentColor" d="M217.963 149.369C245.129 149.369 267.174 171.408 267.174 198.566C267.174 225.725 245.129 247.764 217.963 247.764C190.798 247.764 168.753 225.725 168.753 198.566C168.753 171.408 190.798 149.369 217.963 149.369Z" strokeWidth="4" strokeLinejoin="bevel" opacity="0.5" fill="currentColor"/><path stroke="currentColor" d="M217.963 149.369C245.129 149.369 267.174 171.408 267.174 198.566C267.174 225.725 245.129 247.764 217.963 247.764C190.798 247.764 168.753 225.725 168.753 198.566C168.753 171.408 190.798 149.369 217.963 149.369Z" strokeWidth="4" strokeLinejoin="bevel" opacity="0.5" fill="currentColor"/><path stroke="currentColor" d="M217.963 149.369C245.129 149.369 267.174 171.408 267.174 198.566C267.174 225.725 245.129 247.764 217.963 247.764C190.798 247.764 168.753 225.725 168.753 198.566C168.753 171.408 190.798 149.369 217.963 149.369Z" strokeWidth="4" strokeLinejoin="bevel" opacity="0.5" fill="currentColor"/><path stroke="currentColor" d="M217.963 149.369C245.129 149.369 267.174 171.408 267.174 198.566C267.174 225.725 245.129 247.764 217.963 247.764C190.798 247.764 168.753 225.725 168.753 198.566C168.753 171.408 190.798 149.369 217.963 149.369Z" strokeWidth="4" strokeLinejoin="bevel" opacity="0.5" fill="currentColor"/><path stroke="currentColor" d="M217.963 149.369C245.129 149.369 267.174 171.408 267.174 198.566C267.174 225.725 245.129 247.764 217.963 247.764C190.798 247.764 168.753 225.725 168.753 198.566C168.753 171.408 190.798 149.369 217.963 149.369Z" strokeWidth="4" strokeLinejoin="bevel" opacity="0.5" fill="currentColor"/><path stroke="currentColor" d="M217.963 149.369C245.129 149.369 267.174 171.408 267.174 198.566C267.174 225.725 245.129 247.764 217.963 247.764C190.798 247.764 168.753 225.725 168.753 198.566C168.753 171.408 190.798 149.369 217.963 149.369Z" strokeWidth="4" strokeLinejoin="bevel" opacity="0.5" fill="currentColor"/><g opacity="0.5" stroke="currentColor" d="M217.963 149.369C245.129 149.369 267.174 171.408 267.174 198.566C267.174 225.725 245.129 247.764 217.963 247.764C190.798 247.764 168.753 225.725 168.753 198.566C168.753 171.408 190.798 149.369 217.963 149.369Z" strokeWidth="4" strokeLinejoin="bevel" fill="currentColor"/><path stroke="currentColor" d="M217.963 149.369C245.129 149.369 267.174 171.408 267.174 198.566C267.174 225.725 245.129 247.764 217.963 247.764C190.798 247.764 168.753 225.725 168.753 198.566C168.753 171.408 190.798 149.369 217.963 149.369Z" strokeWidth="4" strokeLinejoin="bevel" opacity="0.5" fill="currentColor"/><path stroke="currentColor" d="M217.963 149.369C245.129 149.369 267.174 171.408 267.174 198.566C267.174 225.725 245.129 247.764 217.963 247.764C190.798 247.764 168.753 225.725 168.753 198.566C168.753 171.408 190.798 149.369 217.963 149.369Z" strokeWidth="4" strokeLinejoin="bevel" opacity="0.5" fill="currentColor"/><path stroke="currentColor" d="M217.963 149.369C245.129 149.369 267.174 171.408 267.174 198.566C267.174 225.725 245.129 247.764 217.963 247.764C190.798 247.764 168.753 225.725 168.753 198.566C168.753 171.408 190.798 149.369 217.963 149.369Z" strokeWidth="4" strokeLinejoin="bevel" opacity="0.5" fill="currentColor"/><path stroke="currentColor" opacity="0.5" d="M217.963 149.369C245.129 149.369 267.174 171.408 267.174 198.566C267.174 225.725 245.129 247.764 217.963 247.764C190.798 247.764 168.753 225.725 168.753 198.566C168.753 171.408 190.798 149.369 217.963 149.369Z" strokeWidth="4" strokeLinejoin="bevel" fill="currentColor"/><path stroke="currentColor" opacity="0.5" d="M217.963 149.369C245.129 149.369 267.174 171.408 267.174 198.566C267.174 225.725 245.129 247.764 217.963 247.764C190.798 247.764 168.753 225.725 168.753 198.566C168.753 171.408 190.798 149.369 217.963 149.369Z" strokeWidth="4" strokeLinejoin="bevel" fill="currentColor"/><path stroke="currentColor" d="M217.963 149.369C245.129 149.369 267.174 171.408 267.174 198.566C267.174 225.725 245.129 247.764 217.963 247.764C190.798 247.764 168.753 225.725 168.753 198.566C168.753 171.408 190.798 149.369 217.963 149.369Z" strokeWidth="4" strokeLinejoin="bevel" fill="currentColor" opacity="0.5"/><path fill="currentColor" d="M217.963 149.369C245.129 149.369 267.174 171.408 267.174 198.566C267.174 225.725 245.129 247.764 217.963 247.764C190.798 247.764 168.753 225.725 168.753 198.566C168.753 171.408 190.798 149.369 217.963 149.369Z" stroke="currentColor" strokeWidth="4" strokeLinejoin="bevel" opacity="0.5"/><path stroke="currentColor" d="M217.963 149.369C245.129 149.369 267.174 171.408 267.174 198.566C267.174 225.725 245.129 247.764 217.963 247.764C190.798 247.764 168.753 225.725 168.753 198.566C168.753 171.408 190.798 149.369 217.963 149.369Z" strokeWidth="4" strokeLinejoin="bevel" fill="currentColor" opacity="0.5"/><path fill="currentColor" d="M217.963 149.369C245.129 149.369 267.174 171.408 267.174 198.566C267.174 225.725 245.129 247.764 217.963 247.764C190.798 247.764 168.753 225.725 168.753 198.566C168.753 171.408 190.798 149.369 217.963 149.369Z" stroke="currentColor" opacity="0.5" strokeWidth="4" strokeLinejoin="bevel"/><path stroke="currentColor" opacity="0.5" d="M217.963 149.369C245.129 149.369 267.174 171.408 267.174 198.566C267.174 225.725 245.129 247.764 217.963 247.764C190.798 247.764 168.753 225.725 168.753 198.566C168.753 171.408 190.798 149.369 217.963 149.369Z" strokeWidth="4" strokeLinejoin="bevel" fill="currentColor"/><path stroke="currentColor" d="M217.963 149.369C245.129 149.369 267.174 171.408 267.174 198.566C267.174 225.725 245.129 247.764 217.963 247.764C190.798 247.764 168.753 225.725 168.753 198.566C168.753 171.408 190.798 149.369 217.963 149.369Z" strokeWidth="4" strokeLinejoin="bevel" fill="currentColor" opacity="0.5"/><path fill="currentColor" d="M217.963 149.369C245.129 149.369 267.174 171.408 267.174 198.566C267.174 225.725 245.129 247.764 217.963 247.764C190.798 247.764 168.753 225.725 168.753 198.566C168.753 171.408 190.798 149.369 217.963 149.369Z" stroke="currentColor" strokeWidth="4" strokeLinejoin="bevel" opacity="0.5"/><path fill="currentColor" d="M217.963 149.369C245.129 149.369 267.174 171.408 267.174 198.566C267.174 225.725 245.129 247.764 217.963 247.764C190.798 247.764 168.753 225.725 168.753 198.566C168.753 171.408 190.798 149.369 217.963 149.369Z" stroke="currentColor" strokeWidth="4" strokeLinejoin="bevel" opacity="0.5"/><path fill="currentColor" d="M217.963 149.369C245.129 149.369 267.174 171.408 267.174 198.566C267.174 225.725 245.129 247.764 217.963 247.764C190.798 247.764 168.753 225.725 168.753 198.566C168.753 171.408 190.798 149.369 217.963 149.369Z" stroke="currentColor" strokeWidth="4" strokeLinejoin="bevel" opacity="0.5"/><path fill="currentColor" d="M217.963 149.369C245.129 149.369 267.174 171.408 267.174 198.566C267.174 225.725 245.129 247.764 217.963 247.764C190.798 247.764 168.753 225.725 168.753 198.566C168.753 171.408 190.798 149.369 217.963 149.369Z" stroke="currentColor" strokeWidth="4" strokeLinejoin="bevel" opacity="0.5"/><path fill="currentColor" d="M217.963 149.369C245.129 149.369 267.174 171.408 267.174 198.566C267.174 225.725 245.129 247.764 217.963 247.764C190.798 247.764 168.753 225.725 168.753 198.566C168.753 171.408 190.798 149.369 217.963 149.369Z" stroke="currentColor" strokeWidth="4" strokeLinejoin="bevel" opacity="0.5"/><path fill="currentColor" d="M217.963 149.369C245.129 149.369 267.174 171.408 267.174 198.566C267.174 225.725 245.129 247.764 217.963 247.764C190.798 247.764 168.753 225.725 168.753 198.566C168.753 171.408 190.798 149.369 217.963 149.369Z" stroke="currentColor" strokeWidth="4" strokeLinejoin="bevel" opacity="0.5"/><path fill="currentColor" d="M217.963 149.369C245.129 149.369 267.174 171.408 267.174 198.566C267.174 225.725 245.129 247.764 217.963 247.764C190.798 247.764 168.753 225.725 168.753 198.566C168.753 171.408 190.798 149.369 217.963 149.369Z" stroke="currentColor" strokeWidth="4" strokeLinejoin="bevel" opacity="0.5"/><path fill="currentColor" d="M217.963 149.369C245.129 149.369 267.174 171.408 267.174 198.566C267.174 225.725 245.129 247.764 217.963 247.764C190.798 247.764 168.753 225.725 168.753 198.566C168.753 171.408 190.798 149.369 217.963 149.369Z" stroke="currentColor" strokeWidth="4" strokeLinejoin="bevel" opacity="0.5"/><path stroke="currentColor" d="M217.963 149.369C245.129 149.369 267.174 171.408 267.174 198.566C267.174 225.725 245.129 247.764 217.963 247.764C190.798 247.764 168.753 225.725 168.753 198.566C168.753 171.408 190.798 149.369 217.963 149.369Z" strokeWidth="4" strokeLinejoin="bevel" fill="currentColor" opacity="0.5"/><path fill="currentColor" d="M217.963 149.369C245.129 149.369 267.174 171.408 267.174 198.566C267.174 225.725 245.129 247.764 217.963 247.764C190.798 247.764 168.753 225.725 168.753 198.566C168.753 171.408 190.798 149.369 217.963 149.369Z" stroke="currentColor" strokeWidth="4" strokeLinejoin="bevel" opacity="0.5"/><path stroke="currentColor" d="M217.963 149.369C245.129 149.369 267.174 171.408 267.174 198.566C267.174 225.725 245.129 247.764 217.963 247.764C190.798 247.764 168.753 225.725 168.753 198.566C168.753 171.408 190.798 149.369 217.963 149.369Z" strokeWidth="4" strokeLinejoin="bevel" fill="currentColor" opacity="0.5"/><path fill="currentColor" d="M217.963 149.369C245.129 149.369 267.174 171.408 267.174 198.566C267.174 225.725 245.129 247.764 217.963 247.764C190.798 247.764 168.753 225.725 168.753 198.566C168.753 171.408 190.798 149.369 217.963 149.369Z" stroke="currentColor" strokeWidth="4" strokeLinejoin="bevel" opacity="0.5"/><path stroke="currentColor" d="M217.963 149.369C245.129 149.369 267.174 171.408 267.174 198.566C267.174 225.725 245.129 247.764 217.963 247.764C190.798 247.764 168.753 225.725 168.753 198.566C168.753 171.408 190.798 149.369 217.963 149.369Z" strokeWidth="4" strokeLinejoin="bevel" fill="currentColor" opacity="0.5"/><path fill="currentColor" d="M217.963 149.369C245.129 149.369 267.174 171.408 267.174 198.566C267.174 225.725 245.129 247.764 217.963 247.764C190.798 247.764 168.753 225.725 168.753 198.566C168.753 171.408 190.798 149.369 217.963 149.369Z" stroke="currentColor" strokeWidth="4" strokeLinejoin="bevel" opacity="0.5"/><path stroke="currentColor" d="M217.963 149.369C245.129 149.369 267.174 171.408 267.174 198.566C267.174 225.725 245.129 247.764 217.963 247.764C190.798 247.764 168.753 225.725 168.753 198.566C168.753 171.408 190.798 149.369 217.963 149.369Z" strokeWidth="4" strokeLinejoin="bevel" fill="currentColor" opacity="0.5"/><path fill="currentColor" d="M217.963 149.369C245.129 149.369 267.174 171.408 267.174 198.566C267.174 225.725 245.129 247.764 217.963 247.764C190.798 247.764 168.753 225.725 168.753 198.566C168.753 171.408 190.798 149.369 217.963 149.369Z" stroke="currentColor" strokeWidth="4" strokeLinejoin="bevel" opacity="0.5"/><path stroke="currentColor" d="M217.963 149.369C245.129 149.369 267.174 171.408 267.174 198.566C267.174 225.725 245.129 247.764 217.963 247.764C190.798 247.764 168.753 225.725 168.753 198.566C168.753 171.408 190.798 149.369 217.963 149.369Z" strokeWidth="4" strokeLinejoin="bevel" fill="currentColor" opacity="0.5"/><path fill="currentColor" d="M217.963 149.369C245.129 149.369 267.174 171.408 267.174 198.566C267.174 225.725 245.129 247.764 217.963 247.764C190.798 247.764 168.753 225.725 168.753 198.566C168.753 171.408 190.798 149.369 217.963 149.369Z" stroke="currentColor" strokeWidth="4" strokeLinejoin="bevel" opacity="0.5"/><path stroke="currentColor" d="M217.963 149.369C245.129 149.369 267.174 171.408 267.174 198.566C267.174 225.725 245.129 247.764 217.963 247.764C190.798 247.764 168.753 225.725 168.753 198.566C168.753 171.408 190.798 149.369 217.963 149.369Z" strokeWidth="4" strokeLinejoin="bevel" fill="currentColor" opacity="0.5"/><path fill="currentColor" d="M217.963 149.369C245.129 149.369 267.174 171.408 267.174 198.566C267.174 225.725 245.129 247.764 217.963 247.764C190.798 247.764 168.753 225.725 168.753 198.566C168.753 171.408 190.798 149.369 217.963 149.369Z" stroke="currentColor" opacity="0.5" strokeWidth="4" strokeLinejoin="bevel"/><path stroke="currentColor" fill="currentColor" opacity="0.5" d="M217.963 149.369C245.129 149.369 267.174 171.408 267.174 198.566C267.174 225.725 245.129 247.764 217.963 247.764C190.798 247.764 168.753 225.725 168.753 198.566C168.753 171.408 190.798 149.369 217.963 149.369Z" strokeWidth="4" strokeLinejoin="bevel"/><path stroke="currentColor" d="M217.963 149.369C245.129 149.369 267.174 171.408 267.174 198.566C267.174 225.725 245.129 247.764 217.963 247.764C190.798 247.764 168.753 225.725 168.753 198.566C168.753 171.408 190.798 149.369 217.963 149.369Z" strokeWidth="4" strokeLinejoin="bevel" fill="currentColor" opacity="0.5"/><path fill="currentColor" opacity="0.5" d="M217.963 149.369C245.129 149.369 267.174 171.408 267.174 198.566C267.174 225.725 245.129 247.764 217.963 247.764C190.798 247.764 168.753 225.725 168.753 198.566C168.753 171.408 190.798 149.369 217.963 149.369Z" stroke="currentColor" strokeWidth="4" strokeLinejoin="bevel"/><path stroke="currentColor" d="M217.963 149.369C245.129 149.369 267.174 171.408 267.174 198.566C267.174 225.725 245.129 247.764 217.963 247.764C190.798 247.764 168.753 225.725 168.753 198.566C168.753 171.408 190.798 149.369 217.963 149.369Z" strokeWidth="4" strokeLinejoin="bevel"/></svg>