<svg xmlns="http://www.w3.org/2000/svg" viewBox="0 0 100 100" width="100" height="100" fill="#fff"><g fill="currentColor" d="M89.1364 76.4545C89.1364 78.8841 87.0918 80.9091 84.5 80.9091C81.9083 80.9091 79.8637 78.8841 79.8637 76.4545C79.8637 74.025 81.9083 72 84.5 72C87.0918 72 89.1364 74.025 89.1364 76.4545ZM84.5 91.0909C87.0918 91.0909 89.1364 93.1159 89.1364 95.5455C89.1364 97.975 87.0918 100 84.5 100C81.9083 100 79.8637 97.975 79.8637 95.5455C79.8637 93.1159 81.9083 91.0909 84.5 91.0909ZM74.6364 81.5455C77.2281 81.5455 79.2727 83.5705 79.2727 86C79.2727 88.4296 77.2281 90.4546 74.6364 90.4546C72.0446 90.4546 70 88.4296 70 86C70 83.5705 72.0446 81.5455 74.6364 81.5455ZM89.7273 86C89.7273 83.5705 91.7719 81.5455 94.3636 81.5455C96.9554 81.5455 99 83.5705 99 86C99 88.4296 96.9554 90.4546 94.3636 90.4546C91.7719 90.4546 89.7273 88.4296 89.7273 86Z" stroke="currentColor" strokeWidth="2" width="100" height="100"/><path fill="currentColor" d="M89.1364 76.4545C89.1364 78.8841 87.0918 80.9091 84.5 80.9091C81.9083 80.9091 79.8637 78.8841 79.8637 76.4545C79.8637 74.025 81.9083 72 84.5 72C87.0918 72 89.1364 74.025 89.1364 76.4545ZM84.5 91.0909C87.0918 91.0909 89.1364 93.1159 89.1364 95.5455C89.1364 97.975 87.0918 100 84.5 100C81.9083 100 79.8637 97.975 79.8637 95.5455C79.8637 93.1159 81.9083 91.0909 84.5 91.0909ZM74.6364 81.5455C77.2281 81.5455 79.2727 83.5705 79.2727 86C79.2727 88.4296 77.2281 90.4546 74.6364 90.4546C72.0446 90.4546 70 88.4296 70 86C70 83.5705 72.0446 81.5455 74.6364 81.5455ZM89.7273 86C89.7273 83.5705 91.7719 81.5455 94.3636 81.5455C96.9554 81.5455 99 83.5705 99 86C99 88.4296 96.9554 90.4546 94.3636 90.4546C91.7719 90.4546 89.7273 88.4296 89.7273 86Z" stroke="currentColor" strokeWidth="2" width="100" height="100"/><path fill="currentColor" d="M89.1364 76.4545C89.1364 78.8841 87.0918 80.9091 84.5 80.9091C81.9083 80.9091 79.8637 78.8841 79.8637 76.4545C79.8637 74.025 81.9083 72 84.5 72C87.0918 72 89.1364 74.025 89.1364 76.4545ZM84.5 91.0909C87.0918 91.0909 89.1364 93.1159 89.1364 95.5455C89.1364 97.975 87.0918 100 84.5 100C81.9083 100 79.8637 97.975 79.8637 95.5455C79.8637 93.1159 81.9083 91.0909 84.5 91.0909ZM74.6364 81.5455C77.2281 81.5455 79.2727 83.5705 79.2727 86C79.2727 88.4296 77.2281 90.4546 74.6364 90.4546C72.0446 90.4546 70 88.4296 70 86C70 83.5705 72.0446 81.5455 74.6364 81.5455ZM89.7273 86C89.7273 83.5705 91.7719 81.5455 94.3636 81.5455C96.9554 81.5455 99 83.5705 99 86C99 88.4296 96.9554 90.4546 94.3636 90.4546C91.7719 90.4546 89.7273 88.4296 89.7273 86Z" stroke="currentColor" strokeWidth="2" width="100" height="100"/><path fill="currentColor" d="M52 59C52 57.8954 51.1046 57 50 57C48.8954 57 48 57.8954 48 59L52 59ZM50 99L61.547 79L38.453 79L50 99ZM48 59L48 81L52 81L52 59L48 59Z" stroke="currentColor"/><path fill="currentColor" d="M89.1364 76.4545C89.1364 78.8841 87.0918 80.9091 84.5 80.9091C81.9083 80.9091 79.8637 78.8841 79.8637 76.4545C79.8637 74.025 81.9083 72 84.5 72C87.0918 72 89.1364 74.025 89.1364 76.4545ZM84.5 91.0909C87.0918 91.0909 89.1364 93.1159 89.1364 95.5455C89.1364 97.975 87.0918 100 84.5 100C81.9083 100 79.8637 97.975 79.8637 95.5455C79.8637 93.1159 81.9083 91.0909 84.5 91.0909ZM74.6364 81.5455C77.2281 81.5455 79.2727 83.5705 79.2727 86C79.2727 88.4296 77.2281 90.4546 74.6364 90.4546C72.0446 90.4546 70 88.4296 70 86C70 83.5705 72.0446 81.5455 74.6364 81.5455ZM89.7273 86C89.7273 83.5705 91.7719 81.5455 94.3636 81.5455C96.9554 81.5455 99 83.5705 99 86C99 88.4296 96.9554 90.4546 94.3636 90.4546C91.7719 90.4546 89.7273 88.4296 89.7273 86Z" stroke="currentColor" strokeWidth="2" width="100" height="100"/><path stroke="currentColor" fill="currentColor" d="M89.1364 76.4545C89.1364 78.8841 87.0918 80.9091 84.5 80.9091C81.9083 80.9091 79.8637 78.8841 79.8637 76.4545C79.8637 74.025 81.9083 72 84.5 72C87.0918 72 89.1364 74.025 89.1364 76.4545ZM84.5 91.0909C87.0918 91.0909 89.1364 93.1159 89.1364 95.5455C89.1364 97.975 87.0918 100 84.5 100C81.9083 100 79.8637 97.975 79.8637 95.5455C79.8637 93.1159 81.9083 91.0909 84.5 91.0909ZM74.6364 81.5455C77.2281 81.5455 79.2727 83.5705 79.2727 86C79.2727 88.4296 77.2281 90.4546 74.6364 90.4546C72.0446 90.4546 70 88.4296 70 86C70 83.5705 72.0446 81.5455 74.6364 81.5455ZM89.7273 86C89.7273 83.5705 91.7719 81.5455 94.3636 81.5455C96.9554 81.5455 99 83.5705 99 86C99 88.4296 96.9554 90.4546 94.3636 90.4546C91.7719 90.4546 89.7273 88.4296 89.7273 86Z" strokeWidth="2" width="100" height="100"/><defs fill="currentColor"/><clipPath fill="currentColor" width="100" height="100"/><rect fill="currentColor"/></svg>