<svg xmlns="http://www.w3.org/2000/svg" viewBox="0 0 36 36" fill="#fff"><path fill="currentColor" d="M34.3449 14.6014C33.8808 15.2235 33.2755 16.0277 32.5792 16.936C31.0233 18.9655 29.0077 21.5211 27.0958 23.7256C27.6277 24.3118 28.0499 25.2335 28.4955 26.2061C29.4022 28.1853 30.4054 30.375 32.625 30.375C36 30.375 36 25.875 36 25.875C36 25.875 35.3209 19.5689 34.3449 14.6014Z" fillRule="evenodd" clipRule="evenodd"/><path fill="currentColor" fillRule="evenodd" clipRule="evenodd" d="M34.3449 14.6014C33.8808 15.2235 33.2755 16.0277 32.5792 16.936C31.0233 18.9655 29.0077 21.5211 27.0958 23.7256C27.6277 24.3118 28.0499 25.2335 28.4955 26.2061C29.4022 28.1853 30.4054 30.375 32.625 30.375C36 30.375 36 25.875 36 25.875C36 25.875 35.3209 19.5689 34.3449 14.6014Z"/><path fill="currentColor" d="M34.3449 14.6014C33.8808 15.2235 33.2755 16.0277 32.5792 16.936C31.0233 18.9655 29.0077 21.5211 27.0958 23.7256C27.6277 24.3118 28.0499 25.2335 28.4955 26.2061C29.4022 28.1853 30.4054 30.375 32.625 30.375C36 30.375 36 25.875 36 25.875C36 25.875 35.3209 19.5689 34.3449 14.6014Z"/></svg>