<svg xmlns="http://www.w3.org/2000/svg" viewBox="0 0 42 42" fill="#fff"><path fill="currentColor"/><path fill="currentColor" d="M32.7841 7.89875L32.5511 8.6363C32.52 8.73045 32.4423 8.80892 32.3491 8.8403L31.619 9.07569L32.3491 9.31108C32.4423 9.34246 32.52 9.42092 32.5511 9.51508L32.7841 10.2526L33.0171 9.51508C33.0482 9.42092 33.1258 9.34246 33.219 9.31108L33.9492 9.07569L33.219 8.8403C33.1258 8.80892 33.0482 8.73045 33.0171 8.6363L32.7841 7.89875Z"/><path fill="currentColor" d="M32.7841 7.89875L32.5511 8.6363C32.52 8.73045 32.4423 8.80892 32.3491 8.8403L31.619 9.07569L32.3491 9.31108C32.4423 9.34246 32.52 9.42092 32.5511 9.51508L32.7841 10.2526L33.0171 9.51508C33.0482 9.42092 33.1258 9.34246 33.219 9.31108L33.9492 9.07569L33.219 8.8403C33.1258 8.80892 33.0482 8.73045 33.0171 8.6363L32.7841 7.89875Z"/><path fill="currentColor"/><path fill="currentColor"/><path fill="currentColor" d="M32.7841 7.89875L32.5511 8.6363C32.52 8.73045 32.4423 8.80892 32.3491 8.8403L31.619 9.07569L32.3491 9.31108C32.4423 9.34246 32.52 9.42092 32.5511 9.51508L32.7841 10.2526L33.0171 9.51508C33.0482 9.42092 33.1258 9.34246 33.219 9.31108L33.9492 9.07569L33.219 8.8403C33.1258 8.80892 33.0482 8.73045 33.0171 8.6363L32.7841 7.89875Z"/><path fill="currentColor"/><path fill="currentColor"/></svg>