<svg xmlns="http://www.w3.org/2000/svg" viewBox="0 0 36 36" fill="#fff"><path d="M28.94 2.94L23.94 7.94C20.9843 6.77797 17.7541 6.50244 14.6444 7.14712C11.5346 7.79181 8.68012 9.32876 6.43 11.57L0 18L6.43 24.43C6.6 24.6 6.79 24.75 6.97 24.91L3.44 28.44L5.56 30.56L31.06 5.06L28.94 2.94ZM11 18C11.0002 16.8706 11.2736 15.7581 11.7969 14.7573C12.3203 13.7565 13.078 12.8971 14.0054 12.2527C14.9328 11.6082 16.0024 11.1977 17.1229 11.0561C18.2434 10.9146 19.3815 11.0463 20.44 11.44L11.44 20.44C11.1493 19.6593 11.0003 18.833 11 18Z" fill="currentColor"/><path d="M28.94 2.94L23.94 7.94C20.9843 6.77797 17.7541 6.50244 14.6444 7.14712C11.5346 7.79181 8.68012 9.32876 6.43 11.57L0 18L6.43 24.43C6.6 24.6 6.79 24.75 6.97 24.91L3.44 28.44L5.56 30.56L31.06 5.06L28.94 2.94ZM11 18C11.0002 16.8706 11.2736 15.7581 11.7969 14.7573C12.3203 13.7565 13.078 12.8971 14.0054 12.2527C14.9328 11.6082 16.0024 11.1977 17.1229 11.0561C18.2434 10.9146 19.3815 11.0463 20.44 11.44L11.44 20.44C11.1493 19.6593 11.0003 18.833 11 18Z" fill="currentColor"/></svg>