<svg xmlns="http://www.w3.org/2000/svg" viewBox="0 0 36 36" width="36" height="36" fill="#fff"><path fillRule="evenodd" clipRule="evenodd" d="M31.0204 18.74C32.6054 18.74 33.8904 17.4551 33.8904 15.87C33.8904 14.2849 32.6054 13 31.0204 13C29.4353 13 28.1504 14.2849 28.1504 15.87C28.1504 17.4551 29.4353 18.74 31.0204 18.74Z" fill="#FFC82C"/><path d="M31.0204 18.74C32.6054 18.74 33.8904 17.4551 33.8904 15.87C33.8904 14.2849 32.6054 13 31.0204 13C29.4353 13 28.1504 14.2849 28.1504 15.87C28.1504 17.4551 29.4353 18.74 31.0204 18.74Z" fill="#FFC82C"/><path d="M31.0204 18.74C32.6054 18.74 33.8904 17.4551 33.8904 15.87C33.8904 14.2849 32.6054 13 31.0204 13C29.4353 13 28.1504 14.2849 28.1504 15.87C28.1504 17.4551 29.4353 18.74 31.0204 18.74Z" fill="#FFC82C"/></svg>