<svg xmlns="http://www.w3.org/2000/svg" viewBox="0 0 1000 702" width="1000" height="702" fill="#fff"><path stroke="currentColor" d="M911.939 117.066C905.25 99.2311 881.842 82.5106 881.842 82.5106C859.547 0.0225475 694.571 2.25196 694.571 2.25196C694.571 2.25196 666.905 18.2591 656.672 17.8578C614.67 16.2303 556.348 15.3832 498.384 15.3609H496.154C438.19 15.3609 379.869 16.2303 337.866 17.8578C327.634 18.2591 299.967 2.25196 299.967 2.25196C299.967 2.25196 134.991 0.0225475 112.697 82.5106C112.697 82.5106 89.2877 99.2311 82.5995 117.066C82.1313 118.337 81.3288 120.633 80.3701 123.755C80.4147 123.554 121.971 46.8401 353.472 42.3813C433.352 40.843 475.354 40.3748 496.154 40.3971H498.384C519.184 40.3971 561.186 40.843 641.066 42.3813C872.567 46.8401 914.123 123.554 914.257 123.799C913.209 120.633 912.407 118.337 911.939 117.066Z" strokeWidth="4" strokeMiterlimit="10" opacity="0.5"/><path stroke="currentColor" d="M911.939 117.066C905.25 99.2311 881.842 82.5106 881.842 82.5106C859.547 0.0225475 694.571 2.25196 694.571 2.25196C694.571 2.25196 666.905 18.2591 656.672 17.8578C614.67 16.2303 556.348 15.3832 498.384 15.3609H496.154C438.19 15.3609 379.869 16.2303 337.866 17.8578C327.634 18.2591 299.967 2.25196 299.967 2.25196C299.967 2.25196 134.991 0.0225475 112.697 82.5106C112.697 82.5106 89.2877 99.2311 82.5995 117.066C82.1313 118.337 81.3288 120.633 80.3701 123.755C80.4147 123.554 121.971 46.8401 353.472 42.3813C433.352 40.843 475.354 40.3748 496.154 40.3971H498.384C519.184 40.3971 561.186 40.843 641.066 42.3813C872.567 46.8401 914.123 123.554 914.257 123.799C913.209 120.633 912.407 118.337 911.939 117.066Z" strokeWidth="4" strokeMiterlimit="10" opacity="0.5"/><path stroke="currentColor" opacity="0.5" d="M223.319 251.098C245.482 251.098 263.449 233.132 263.449 210.969C263.449 188.806 245.482 170.84 223.319 170.84C201.157 170.84 183.19 188.806 183.19 210.969C183.19 233.132 201.157 251.098 223.319 251.098Z" strokeWidth="4" strokeMiterlimit="10" fill="#8B929A"/><path stroke="currentColor" opacity="0.5" d="M223.319 251.098C245.482 251.098 263.449 233.132 263.449 210.969C263.449 188.806 245.482 170.84 223.319 170.84C201.157 170.84 183.19 188.806 183.19 210.969C183.19 233.132 201.157 251.098 223.319 251.098Z" strokeWidth="4" strokeMiterlimit="10" fill="#8B929A"/><path stroke="currentColor" opacity="0.5"/><path stroke="currentColor"/><path fill="#8B929A" d="M223.319 251.098C245.482 251.098 263.449 233.132 263.449 210.969C263.449 188.806 245.482 170.84 223.319 170.84C201.157 170.84 183.19 188.806 183.19 210.969C183.19 233.132 201.157 251.098 223.319 251.098Z" stroke="currentColor" strokeWidth="4" strokeMiterlimit="10" opacity="0.5"/><path fill="#8B929A" d="M223.319 251.098C245.482 251.098 263.449 233.132 263.449 210.969C263.449 188.806 245.482 170.84 223.319 170.84C201.157 170.84 183.19 188.806 183.19 210.969C183.19 233.132 201.157 251.098 223.319 251.098Z" stroke="currentColor" strokeWidth="4" strokeMiterlimit="10" opacity="0.5"/><path fill="currentColor"/><path fill="#8B929A" d="M223.319 251.098C245.482 251.098 263.449 233.132 263.449 210.969C263.449 188.806 245.482 170.84 223.319 170.84C201.157 170.84 183.19 188.806 183.19 210.969C183.19 233.132 201.157 251.098 223.319 251.098Z" stroke="currentColor" strokeWidth="4" strokeMiterlimit="10" opacity="0.5"/><path fill="#8B929A" d="M223.319 251.098C245.482 251.098 263.449 233.132 263.449 210.969C263.449 188.806 245.482 170.84 223.319 170.84C201.157 170.84 183.19 188.806 183.19 210.969C183.19 233.132 201.157 251.098 223.319 251.098Z" stroke="currentColor" strokeWidth="4" strokeMiterlimit="10" opacity="0.5"/><path fill="#8B929A" d="M223.319 251.098C245.482 251.098 263.449 233.132 263.449 210.969C263.449 188.806 245.482 170.84 223.319 170.84C201.157 170.84 183.19 188.806 183.19 210.969C183.19 233.132 201.157 251.098 223.319 251.098Z" stroke="currentColor" strokeWidth="4" strokeMiterlimit="10" opacity="0.5"/><path fill="#8B929A" d="M223.319 251.098C245.482 251.098 263.449 233.132 263.449 210.969C263.449 188.806 245.482 170.84 223.319 170.84C201.157 170.84 183.19 188.806 183.19 210.969C183.19 233.132 201.157 251.098 223.319 251.098Z" stroke="currentColor" strokeWidth="4" strokeMiterlimit="10" opacity="0.5"/><path fill="#8B929A" d="M223.319 251.098C245.482 251.098 263.449 233.132 263.449 210.969C263.449 188.806 245.482 170.84 223.319 170.84C201.157 170.84 183.19 188.806 183.19 210.969C183.19 233.132 201.157 251.098 223.319 251.098Z" stroke="currentColor" strokeWidth="4" strokeMiterlimit="10" opacity="0.5"/><path fill="#8B929A" d="M223.319 251.098C245.482 251.098 263.449 233.132 263.449 210.969C263.449 188.806 245.482 170.84 223.319 170.84C201.157 170.84 183.19 188.806 183.19 210.969C183.19 233.132 201.157 251.098 223.319 251.098Z" stroke="currentColor" strokeWidth="4" strokeMiterlimit="10" opacity="0.5"/><path fill="#8B929A" d="M223.319 251.098C245.482 251.098 263.449 233.132 263.449 210.969C263.449 188.806 245.482 170.84 223.319 170.84C201.157 170.84 183.19 188.806 183.19 210.969C183.19 233.132 201.157 251.098 223.319 251.098Z" stroke="currentColor" strokeWidth="4" strokeMiterlimit="10" opacity="0.5"/><path fill="#8B929A" d="M223.319 251.098C245.482 251.098 263.449 233.132 263.449 210.969C263.449 188.806 245.482 170.84 223.319 170.84C201.157 170.84 183.19 188.806 183.19 210.969C183.19 233.132 201.157 251.098 223.319 251.098Z" stroke="currentColor" strokeWidth="4" strokeMiterlimit="10" opacity="0.5"/><path fill="#8B929A" d="M223.319 251.098C245.482 251.098 263.449 233.132 263.449 210.969C263.449 188.806 245.482 170.84 223.319 170.84C201.157 170.84 183.19 188.806 183.19 210.969C183.19 233.132 201.157 251.098 223.319 251.098Z" stroke="currentColor" strokeWidth="4" strokeMiterlimit="10" opacity="0.5"/><path fill="#8B929A" d="M223.319 251.098C245.482 251.098 263.449 233.132 263.449 210.969C263.449 188.806 245.482 170.84 223.319 170.84C201.157 170.84 183.19 188.806 183.19 210.969C183.19 233.132 201.157 251.098 223.319 251.098Z" stroke="currentColor" strokeWidth="4" strokeMiterlimit="10" opacity="0.5"/><path fill="#8B929A" d="M223.319 251.098C245.482 251.098 263.449 233.132 263.449 210.969C263.449 188.806 245.482 170.84 223.319 170.84C201.157 170.84 183.19 188.806 183.19 210.969C183.19 233.132 201.157 251.098 223.319 251.098Z" stroke="currentColor" strokeWidth="4" strokeMiterlimit="10" opacity="0.5"/><path fill="#8B929A" d="M223.319 251.098C245.482 251.098 263.449 233.132 263.449 210.969C263.449 188.806 245.482 170.84 223.319 170.84C201.157 170.84 183.19 188.806 183.19 210.969C183.19 233.132 201.157 251.098 223.319 251.098Z" stroke="currentColor" strokeWidth="4" strokeMiterlimit="10" opacity="0.5"/><path fill="#8B929A" d="M223.319 251.098C245.482 251.098 263.449 233.132 263.449 210.969C263.449 188.806 245.482 170.84 223.319 170.84C201.157 170.84 183.19 188.806 183.19 210.969C183.19 233.132 201.157 251.098 223.319 251.098Z" stroke="currentColor" strokeWidth="4" strokeMiterlimit="10" opacity="0.5"/><path fill="#8B929A" d="M223.319 251.098C245.482 251.098 263.449 233.132 263.449 210.969C263.449 188.806 245.482 170.84 223.319 170.84C201.157 170.84 183.19 188.806 183.19 210.969C183.19 233.132 201.157 251.098 223.319 251.098Z" stroke="currentColor" strokeWidth="4" strokeMiterlimit="10" opacity="0.5"/><path stroke="currentColor" d="M223.319 251.098C245.482 251.098 263.449 233.132 263.449 210.969C263.449 188.806 245.482 170.84 223.319 170.84C201.157 170.84 183.19 188.806 183.19 210.969C183.19 233.132 201.157 251.098 223.319 251.098Z" strokeWidth="4" strokeMiterlimit="10" fill="#8B929A" opacity="0.5"/><path stroke="currentColor" d="M223.319 251.098C245.482 251.098 263.449 233.132 263.449 210.969C263.449 188.806 245.482 170.84 223.319 170.84C201.157 170.84 183.19 188.806 183.19 210.969C183.19 233.132 201.157 251.098 223.319 251.098Z" strokeWidth="4" strokeMiterlimit="10" fill="#8B929A" opacity="0.5"/><path stroke="currentColor" d="M223.319 251.098C245.482 251.098 263.449 233.132 263.449 210.969C263.449 188.806 245.482 170.84 223.319 170.84C201.157 170.84 183.19 188.806 183.19 210.969C183.19 233.132 201.157 251.098 223.319 251.098Z" strokeWidth="4" strokeMiterlimit="10" fill="#8B929A" opacity="0.5"/><path stroke="currentColor" d="M223.319 251.098C245.482 251.098 263.449 233.132 263.449 210.969C263.449 188.806 245.482 170.84 223.319 170.84C201.157 170.84 183.19 188.806 183.19 210.969C183.19 233.132 201.157 251.098 223.319 251.098Z" strokeWidth="4" strokeMiterlimit="10" fill="#8B929A" opacity="0.5"/><path fill="#8B929A" d="M223.319 251.098C245.482 251.098 263.449 233.132 263.449 210.969C263.449 188.806 245.482 170.84 223.319 170.84C201.157 170.84 183.19 188.806 183.19 210.969C183.19 233.132 201.157 251.098 223.319 251.098Z" stroke="currentColor" strokeWidth="4" strokeMiterlimit="10" opacity="0.5"/><path fill="#8B929A" d="M223.319 251.098C245.482 251.098 263.449 233.132 263.449 210.969C263.449 188.806 245.482 170.84 223.319 170.84C201.157 170.84 183.19 188.806 183.19 210.969C183.19 233.132 201.157 251.098 223.319 251.098Z" stroke="currentColor" strokeWidth="4" strokeMiterlimit="10" opacity="0.5"/><path stroke="currentColor" d="M223.319 251.098C245.482 251.098 263.449 233.132 263.449 210.969C263.449 188.806 245.482 170.84 223.319 170.84C201.157 170.84 183.19 188.806 183.19 210.969C183.19 233.132 201.157 251.098 223.319 251.098Z" strokeWidth="4" strokeMiterlimit="10" fill="#8B929A" opacity="0.5"/><path fill="#8B929A" d="M223.319 251.098C245.482 251.098 263.449 233.132 263.449 210.969C263.449 188.806 245.482 170.84 223.319 170.84C201.157 170.84 183.19 188.806 183.19 210.969C183.19 233.132 201.157 251.098 223.319 251.098Z" stroke="currentColor" strokeWidth="4" strokeMiterlimit="10" opacity="0.5"/><path stroke="currentColor" d="M223.319 251.098C245.482 251.098 263.449 233.132 263.449 210.969C263.449 188.806 245.482 170.84 223.319 170.84C201.157 170.84 183.19 188.806 183.19 210.969C183.19 233.132 201.157 251.098 223.319 251.098Z" strokeWidth="4" strokeMiterlimit="10" fill="#8B929A" opacity="0.5"/><path fill="#8B929A" d="M223.319 251.098C245.482 251.098 263.449 233.132 263.449 210.969C263.449 188.806 245.482 170.84 223.319 170.84C201.157 170.84 183.19 188.806 183.19 210.969C183.19 233.132 201.157 251.098 223.319 251.098Z" stroke="currentColor" strokeWidth="4" strokeMiterlimit="10" opacity="0.5"/><path stroke="currentColor" d="M223.319 251.098C245.482 251.098 263.449 233.132 263.449 210.969C263.449 188.806 245.482 170.84 223.319 170.84C201.157 170.84 183.19 188.806 183.19 210.969C183.19 233.132 201.157 251.098 223.319 251.098Z" strokeWidth="4" strokeMiterlimit="10" fill="#8B929A" opacity="0.5"/><path stroke="currentColor" d="M223.319 251.098C245.482 251.098 263.449 233.132 263.449 210.969C263.449 188.806 245.482 170.84 223.319 170.84C201.157 170.84 183.19 188.806 183.19 210.969C183.19 233.132 201.157 251.098 223.319 251.098Z" strokeWidth="4" strokeMiterlimit="10" fill="#8B929A" opacity="0.5"/><path stroke="currentColor" d="M223.319 251.098C245.482 251.098 263.449 233.132 263.449 210.969C263.449 188.806 245.482 170.84 223.319 170.84C201.157 170.84 183.19 188.806 183.19 210.969C183.19 233.132 201.157 251.098 223.319 251.098Z" strokeWidth="4" strokeMiterlimit="10" fill="#8B929A" opacity="0.5"/><path stroke="currentColor" d="M223.319 251.098C245.482 251.098 263.449 233.132 263.449 210.969C263.449 188.806 245.482 170.84 223.319 170.84C201.157 170.84 183.19 188.806 183.19 210.969C183.19 233.132 201.157 251.098 223.319 251.098Z" strokeWidth="4" strokeMiterlimit="10" fill="#8B929A" opacity="0.5"/><path stroke="currentColor" d="M223.319 251.098C245.482 251.098 263.449 233.132 263.449 210.969C263.449 188.806 245.482 170.84 223.319 170.84C201.157 170.84 183.19 188.806 183.19 210.969C183.19 233.132 201.157 251.098 223.319 251.098Z" strokeWidth="4" strokeMiterlimit="10" fill="#8B929A" opacity="0.5"/><path fill="#8B929A" d="M223.319 251.098C245.482 251.098 263.449 233.132 263.449 210.969C263.449 188.806 245.482 170.84 223.319 170.84C201.157 170.84 183.19 188.806 183.19 210.969C183.19 233.132 201.157 251.098 223.319 251.098Z" stroke="currentColor" strokeWidth="4" strokeMiterlimit="10" opacity="0.5"/><path fill="#8B929A" d="M223.319 251.098C245.482 251.098 263.449 233.132 263.449 210.969C263.449 188.806 245.482 170.84 223.319 170.84C201.157 170.84 183.19 188.806 183.19 210.969C183.19 233.132 201.157 251.098 223.319 251.098Z" stroke="currentColor" strokeWidth="4" strokeMiterlimit="10" opacity="0.5"/><path fill="#8B929A" d="M223.319 251.098C245.482 251.098 263.449 233.132 263.449 210.969C263.449 188.806 245.482 170.84 223.319 170.84C201.157 170.84 183.19 188.806 183.19 210.969C183.19 233.132 201.157 251.098 223.319 251.098Z" stroke="currentColor" strokeWidth="4" strokeMiterlimit="10" opacity="0.5"/><path fill="#8B929A" d="M223.319 251.098C245.482 251.098 263.449 233.132 263.449 210.969C263.449 188.806 245.482 170.84 223.319 170.84C201.157 170.84 183.19 188.806 183.19 210.969C183.19 233.132 201.157 251.098 223.319 251.098Z" stroke="currentColor" strokeWidth="4" strokeMiterlimit="10" opacity="0.5"/><path fill="#8B929A" d="M223.319 251.098C245.482 251.098 263.449 233.132 263.449 210.969C263.449 188.806 245.482 170.84 223.319 170.84C201.157 170.84 183.19 188.806 183.19 210.969C183.19 233.132 201.157 251.098 223.319 251.098Z" stroke="currentColor" strokeWidth="4" strokeMiterlimit="10" opacity="0.5"/><path fill="#8B929A" d="M223.319 251.098C245.482 251.098 263.449 233.132 263.449 210.969C263.449 188.806 245.482 170.84 223.319 170.84C201.157 170.84 183.19 188.806 183.19 210.969C183.19 233.132 201.157 251.098 223.319 251.098Z" stroke="currentColor" strokeWidth="4" strokeMiterlimit="10" opacity="0.5"/><path fill="#8B929A" d="M223.319 251.098C245.482 251.098 263.449 233.132 263.449 210.969C263.449 188.806 245.482 170.84 223.319 170.84C201.157 170.84 183.19 188.806 183.19 210.969C183.19 233.132 201.157 251.098 223.319 251.098Z" stroke="currentColor" strokeWidth="4" strokeMiterlimit="10" opacity="0.5"/><path fill="#8B929A" d="M223.319 251.098C245.482 251.098 263.449 233.132 263.449 210.969C263.449 188.806 245.482 170.84 223.319 170.84C201.157 170.84 183.19 188.806 183.19 210.969C183.19 233.132 201.157 251.098 223.319 251.098Z" stroke="currentColor" strokeWidth="4" strokeMiterlimit="10" opacity="0.5"/><path stroke="currentColor" d="M223.319 251.098C245.482 251.098 263.449 233.132 263.449 210.969C263.449 188.806 245.482 170.84 223.319 170.84C201.157 170.84 183.19 188.806 183.19 210.969C183.19 233.132 201.157 251.098 223.319 251.098Z" strokeWidth="4" strokeMiterlimit="10" opacity="0.5"/><path stroke="currentColor" d="M223.319 251.098C245.482 251.098 263.449 233.132 263.449 210.969C263.449 188.806 245.482 170.84 223.319 170.84C201.157 170.84 183.19 188.806 183.19 210.969C183.19 233.132 201.157 251.098 223.319 251.098Z" strokeWidth="4" strokeMiterlimit="10" opacity="0.5"/><path stroke="currentColor" d="M223.319 251.098C245.482 251.098 263.449 233.132 263.449 210.969C263.449 188.806 245.482 170.84 223.319 170.84C201.157 170.84 183.19 188.806 183.19 210.969C183.19 233.132 201.157 251.098 223.319 251.098Z" strokeWidth="4" strokeMiterlimit="10" opacity="0.5"/><path stroke="currentColor" d="M223.319 251.098C245.482 251.098 263.449 233.132 263.449 210.969C263.449 188.806 245.482 170.84 223.319 170.84C201.157 170.84 183.19 188.806 183.19 210.969C183.19 233.132 201.157 251.098 223.319 251.098Z" strokeWidth="4" strokeMiterlimit="10" opacity="0.5"/><path stroke="currentColor" opacity="0.5" d="M223.319 251.098C245.482 251.098 263.449 233.132 263.449 210.969C263.449 188.806 245.482 170.84 223.319 170.84C201.157 170.84 183.19 188.806 183.19 210.969C183.19 233.132 201.157 251.098 223.319 251.098Z" strokeWidth="4" strokeMiterlimit="10"/><path stroke="currentColor" d="M223.319 251.098C245.482 251.098 263.449 233.132 263.449 210.969C263.449 188.806 245.482 170.84 223.319 170.84C201.157 170.84 183.19 188.806 183.19 210.969C183.19 233.132 201.157 251.098 223.319 251.098Z" strokeWidth="4" strokeMiterlimit="10" opacity="0.5"/><path stroke="currentColor" d="M223.319 251.098C245.482 251.098 263.449 233.132 263.449 210.969C263.449 188.806 245.482 170.84 223.319 170.84C201.157 170.84 183.19 188.806 183.19 210.969C183.19 233.132 201.157 251.098 223.319 251.098Z" strokeWidth="4" strokeMiterlimit="10" opacity="0.5"/><path stroke="currentColor" opacity="0.5" d="M223.319 251.098C245.482 251.098 263.449 233.132 263.449 210.969C263.449 188.806 245.482 170.84 223.319 170.84C201.157 170.84 183.19 188.806 183.19 210.969C183.19 233.132 201.157 251.098 223.319 251.098Z" strokeWidth="4" strokeMiterlimit="10"/><path stroke="currentColor" d="M223.319 251.098C245.482 251.098 263.449 233.132 263.449 210.969C263.449 188.806 245.482 170.84 223.319 170.84C201.157 170.84 183.19 188.806 183.19 210.969C183.19 233.132 201.157 251.098 223.319 251.098Z" strokeWidth="4" strokeMiterlimit="10"/><path stroke="currentColor" d="M223.319 251.098C245.482 251.098 263.449 233.132 263.449 210.969C263.449 188.806 245.482 170.84 223.319 170.84C201.157 170.84 183.19 188.806 183.19 210.969C183.19 233.132 201.157 251.098 223.319 251.098Z" strokeWidth="4" strokeMiterlimit="10"/></svg>