<svg xmlns="http://www.w3.org/2000/svg" viewBox="0 0 36 36" fill="#fff"><path fill="currentColor" d="M27.5555 16.4101C28.1311 16.7947 28.8078 17 29.5 17C30.4283 17 31.3185 16.6313 31.9749 15.9749C32.6313 15.3185 33 14.4283 33 13.5C33 12.8078 32.7947 12.1311 32.4102 11.5555C32.0256 10.9799 31.4789 10.5313 30.8394 10.2664C30.1999 10.0015 29.4961 9.9322 28.8172 10.0673C28.1383 10.2023 27.5146 10.5356 27.0251 11.0251C26.5357 11.5146 26.2023 12.1383 26.0673 12.8172C25.9322 13.4961 26.0015 14.1999 26.2664 14.8394C26.5313 15.4789 26.9799 16.0256 27.5555 16.4101Z" opacity="0.5"/><g opacity="0.5" fill="currentColor" d="M27.5555 16.4101C28.1311 16.7947 28.8078 17 29.5 17C30.4283 17 31.3185 16.6313 31.9749 15.9749C32.6313 15.3185 33 14.4283 33 13.5C33 12.8078 32.7947 12.1311 32.4102 11.5555C32.0256 10.9799 31.4789 10.5313 30.8394 10.2664C30.1999 10.0015 29.4961 9.9322 28.8172 10.0673C28.1383 10.2023 27.5146 10.5356 27.0251 11.0251C26.5357 11.5146 26.2023 12.1383 26.0673 12.8172C25.9322 13.4961 26.0015 14.1999 26.2664 14.8394C26.5313 15.4789 26.9799 16.0256 27.5555 16.4101Z"/><path fill="currentColor" d="M27.5555 16.4101C28.1311 16.7947 28.8078 17 29.5 17C30.4283 17 31.3185 16.6313 31.9749 15.9749C32.6313 15.3185 33 14.4283 33 13.5C33 12.8078 32.7947 12.1311 32.4102 11.5555C32.0256 10.9799 31.4789 10.5313 30.8394 10.2664C30.1999 10.0015 29.4961 9.9322 28.8172 10.0673C28.1383 10.2023 27.5146 10.5356 27.0251 11.0251C26.5357 11.5146 26.2023 12.1383 26.0673 12.8172C25.9322 13.4961 26.0015 14.1999 26.2664 14.8394C26.5313 15.4789 26.9799 16.0256 27.5555 16.4101Z"/><path fill="currentColor"/><path fill="currentColor" d="M27.5555 16.4101C28.1311 16.7947 28.8078 17 29.5 17C30.4283 17 31.3185 16.6313 31.9749 15.9749C32.6313 15.3185 33 14.4283 33 13.5C33 12.8078 32.7947 12.1311 32.4102 11.5555C32.0256 10.9799 31.4789 10.5313 30.8394 10.2664C30.1999 10.0015 29.4961 9.9322 28.8172 10.0673C28.1383 10.2023 27.5146 10.5356 27.0251 11.0251C26.5357 11.5146 26.2023 12.1383 26.0673 12.8172C25.9322 13.4961 26.0015 14.1999 26.2664 14.8394C26.5313 15.4789 26.9799 16.0256 27.5555 16.4101Z"/><path fill="currentColor"/></svg>