<svg xmlns="http://www.w3.org/2000/svg" viewBox="0 0 36 36" fill="#fff"><path d="M11.3767 24.2511C11.709 26.9749 12.8981 29.4341 14.6662 31.3511C13.8151 31.6154 12.9104 31.7578 11.9724 31.7578C6.9626 31.7578 2.90137 27.6966 2.90137 22.6868C2.90137 20.1803 3.91794 17.9113 5.56128 16.2695C6.35921 19.6438 8.49449 22.5012 11.3767 24.2511Z" fill="#BE4040" cx="18.0022" cy="13.3177" r="9.07101" transform="rotate(-180 18.0022 13.3177)"/><path d="M11.3767 24.2511C11.709 26.9749 12.8981 29.4341 14.6662 31.3511C13.8151 31.6154 12.9104 31.7578 11.9724 31.7578C6.9626 31.7578 2.90137 27.6966 2.90137 22.6868C2.90137 20.1803 3.91794 17.9113 5.56128 16.2695C6.35921 19.6438 8.49449 22.5012 11.3767 24.2511Z" fill="#BE4040" cx="18.0022" cy="13.3177" r="9.07101" transform="rotate(-180 18.0022 13.3177)"/><circle cx="18.0022" cy="13.3177" r="9.07101" transform="rotate(-180 18.0022 13.3177)" fill="#BE4040"/></svg>