<svg xmlns="http://www.w3.org/2000/svg" viewBox="0 0 24 24" fill="#fff"><path d="M23 6.5C23 7.88071 21.8979 9 20.5384 9C19.1789 9 18.0768 7.88071 18.0768 6.5C18.0768 5.11929 19.1789 4 20.5384 4C21.8979 4 23 5.11929 23 6.5Z" fill="currentColor"/><path d="M23 6.5C23 7.88071 21.8979 9 20.5384 9C19.1789 9 18.0768 7.88071 18.0768 6.5C18.0768 5.11929 19.1789 4 20.5384 4C21.8979 4 23 5.11929 23 6.5Z" fill="currentColor"/><path d="M23 6.5C23 7.88071 21.8979 9 20.5384 9C19.1789 9 18.0768 7.88071 18.0768 6.5C18.0768 5.11929 19.1789 4 20.5384 4C21.8979 4 23 5.11929 23 6.5Z" fill="currentColor"/></svg>