<svg xmlns="http://www.w3.org/2000/svg" viewBox="0 0 57 45" width="41" height="45" fill="#fff"><path fill="currentColor" d="M28.0661 27.4272V28.735H23.0743C22.735 28.735 22.4096 28.8698 22.1697 29.1098C21.9297 29.3497 21.7949 29.6751 21.7949 30.0144V30.6463L39.3671 30.6464V30.0144C39.3671 29.6751 39.2323 29.3497 38.9924 29.1097C38.7524 28.8698 38.4271 28.735 38.0877 28.735H33.096V27.4272L28.0661 27.4272Z" maskUnits="userSpaceOnUse" x="30.6709" y="0" width="28.0621" height="36.6291" transform="rotate(22.1353 30.6709 0)"/><mask maskUnits="userSpaceOnUse" x="30.6709" y="0" width="28.0621" height="36.6291" fill="currentColor" transform="rotate(22.1353 30.6709 0)"/><rect fill="currentColor" x="30.6709" width="28.0621" height="36.6291" transform="rotate(22.1353 30.6709 0)" d="M28.0661 27.4272V28.735H23.0743C22.735 28.735 22.4096 28.8698 22.1697 29.1098C21.9297 29.3497 21.7949 29.6751 21.7949 30.0144V30.6463L39.3671 30.6464V30.0144C39.3671 29.6751 39.2323 29.3497 38.9924 29.1097C38.7524 28.8698 38.4271 28.735 38.0877 28.735H33.096V27.4272L28.0661 27.4272Z"/><g fill="currentColor" d="M28.0661 27.4272V28.735H23.0743C22.735 28.735 22.4096 28.8698 22.1697 29.1098C21.9297 29.3497 21.7949 29.6751 21.7949 30.0144V30.6463L39.3671 30.6464V30.0144C39.3671 29.6751 39.2323 29.3497 38.9924 29.1097C38.7524 28.8698 38.4271 28.735 38.0877 28.735H33.096V27.4272L28.0661 27.4272Z"/><path fill="currentColor" d="M28.0661 27.4272V28.735H23.0743C22.735 28.735 22.4096 28.8698 22.1697 29.1098C21.9297 29.3497 21.7949 29.6751 21.7949 30.0144V30.6463L39.3671 30.6464V30.0144C39.3671 29.6751 39.2323 29.3497 38.9924 29.1097C38.7524 28.8698 38.4271 28.735 38.0877 28.735H33.096V27.4272L28.0661 27.4272Z"/><path fill="currentColor"/></svg>