<svg xmlns="http://www.w3.org/2000/svg" viewBox="0 0 294 213" fill="#fff"><path fill="currentColor" d="M146.609 19.8521C156.883 19.8521 165.109 27.9674 165.109 37.8521C165.109 47.7367 156.883 55.8521 146.609 55.8521C136.334 55.8521 128.109 47.7367 128.109 37.8521C128.109 27.9674 136.334 19.8521 146.609 19.8521Z" stroke="#1A9FFF" strokeWidth="5"/><path fill="currentColor" d="M146.609 19.8521C156.883 19.8521 165.109 27.9674 165.109 37.8521C165.109 47.7367 156.883 55.8521 146.609 55.8521C136.334 55.8521 128.109 47.7367 128.109 37.8521C128.109 27.9674 136.334 19.8521 146.609 19.8521Z" stroke="#1A9FFF" strokeWidth="5"/><path fill="currentColor" d="M146.609 19.8521C156.883 19.8521 165.109 27.9674 165.109 37.8521C165.109 47.7367 156.883 55.8521 146.609 55.8521C136.334 55.8521 128.109 47.7367 128.109 37.8521C128.109 27.9674 136.334 19.8521 146.609 19.8521Z" stroke="#1A9FFF" strokeWidth="5"/><path fill="currentColor"/><path fill="currentColor"/><path fill="currentColor"/><path fill="currentColor" d="M146.609 19.8521C156.883 19.8521 165.109 27.9674 165.109 37.8521C165.109 47.7367 156.883 55.8521 146.609 55.8521C136.334 55.8521 128.109 47.7367 128.109 37.8521C128.109 27.9674 136.334 19.8521 146.609 19.8521Z" stroke="#1A9FFF" strokeWidth="5"/><path fill="currentColor"/><path fill="currentColor"/><path fill="currentColor" d="M146.609 19.8521C156.883 19.8521 165.109 27.9674 165.109 37.8521C165.109 47.7367 156.883 55.8521 146.609 55.8521C136.334 55.8521 128.109 47.7367 128.109 37.8521C128.109 27.9674 136.334 19.8521 146.609 19.8521Z" stroke="#1A9FFF" strokeWidth="5"/><path fill="currentColor"/><path fill="currentColor" d="M190.4 44.7456C181.035 44.7456 173.418 52.3623 173.418 61.7274C173.418 71.0925 181.035 78.7092 190.4 78.7092C199.765 78.7092 207.382 71.0925 207.382 61.7274C207.382 52.3623 199.765 44.7456 190.4 44.7456ZM190.4 75.2366C182.94 75.2366 176.891 69.1868 176.891 61.7274C176.891 54.268 182.94 48.2242 190.4 48.2242C197.859 48.2242 203.909 54.274 203.909 61.7274C203.909 69.1807 197.859 75.2366 190.4 75.2366Z"/><path fill="currentColor" d="M146.609 19.8521C156.883 19.8521 165.109 27.9674 165.109 37.8521C165.109 47.7367 156.883 55.8521 146.609 55.8521C136.334 55.8521 128.109 47.7367 128.109 37.8521C128.109 27.9674 136.334 19.8521 146.609 19.8521Z" stroke="#1A9FFF" strokeWidth="5"/><path fill="currentColor" d="M146.609 19.8521C156.883 19.8521 165.109 27.9674 165.109 37.8521C165.109 47.7367 156.883 55.8521 146.609 55.8521C136.334 55.8521 128.109 47.7367 128.109 37.8521C128.109 27.9674 136.334 19.8521 146.609 19.8521Z" stroke="#1A9FFF" strokeWidth="5"/><path fill="currentColor" d="M146.609 19.8521C156.883 19.8521 165.109 27.9674 165.109 37.8521C165.109 47.7367 156.883 55.8521 146.609 55.8521C136.334 55.8521 128.109 47.7367 128.109 37.8521C128.109 27.9674 136.334 19.8521 146.609 19.8521Z" stroke="#1A9FFF" strokeWidth="5"/><path fill="currentColor" d="M146.609 19.8521C156.883 19.8521 165.109 27.9674 165.109 37.8521C165.109 47.7367 156.883 55.8521 146.609 55.8521C136.334 55.8521 128.109 47.7367 128.109 37.8521C128.109 27.9674 136.334 19.8521 146.609 19.8521Z" stroke="#1A9FFF" strokeWidth="5"/><path stroke="#1A9FFF" d="M146.609 19.8521C156.883 19.8521 165.109 27.9674 165.109 37.8521C165.109 47.7367 156.883 55.8521 146.609 55.8521C136.334 55.8521 128.109 47.7367 128.109 37.8521C128.109 27.9674 136.334 19.8521 146.609 19.8521Z" strokeWidth="5"/></svg>