<svg xmlns="http://www.w3.org/2000/svg" viewBox="0 0 36 36" width="36" height="36" fill="#fff"><rect width="3.11475" height="3.35435" transform="rotate(-180 29.5947 8.35449)" fill=" currentColor " x="29.5947" y="8.35449"/><rect width="3.59394" height="3.35435" transform="rotate(-180 33.1895 11.7085)" fill=" currentColor " x="33.1895" y="11.7085"/><rect width="3.59394" height="3.35435" transform="rotate(-180 33.1895 11.7085)" fill=" currentColor " x="33.1895" y="11.7085"/><rect x="29.5947" y="8.35449" width="3.11475" height="3.35435" transform="rotate(-180 29.5947 8.35449)" fill=" currentColor "/><rect width="3.59394" height="3.35435" transform="rotate(-180 33.1895 11.7085)" fill=" currentColor " x="33.1895" y="11.7085"/><rect width="3.59394" height="3.35435" transform="rotate(-180 33.1895 11.7085)" fill=" currentColor " x="33.1895" y="11.7085"/><rect width="3.59394" height="3.35435" transform="rotate(-180 33.1895 11.7085)" fill=" currentColor " x="33.1895" y="11.7085"/><rect width="3.11475" height="3.35435" transform="rotate(-180 29.5947 8.35449)" fill=" currentColor " x="29.5947" y="8.35449"/><rect width="3.59394" height="3.35435" transform="rotate(-180 33.1895 11.7085)" fill=" currentColor " x="33.1895" y="11.7085"/><rect x="29.5947" y="8.35449" width="3.11475" height="3.35435" transform="rotate(-180 29.5947 8.35449)" fill=" currentColor "/><rect x="29.5947" y="8.35449" width="6.4691" height="6.4691" transform="rotate(-180 29.5947 8.35449)" fill=" currentColor "/><rect width="3.59394" height="3.35435" transform="rotate(-180 33.1895 11.7085)" fill=" currentColor " x="33.1895" y="11.7085"/><rect width="6.4691" height="6.4691" transform="matrix(1 0 0 -1 3 24.8867)"/><rect width="3.11475"/><rect x="26.4795" y="18.418" width="3.59394" height="3.35435" transform="rotate(-180 26.4795 18.418)"/><rect x="33.1895" y="11.7085" width="3.59394" height="3.35435" transform="rotate(-180 33.1895 11.7085)" fill=" currentColor "/><rect x="33.1895" y="11.7085" width="3.59394" height="3.35435" transform="rotate(-180 33.1895 11.7085)" fill=" currentColor "/><rect x="33.1895" y="11.7085" width="3.59394" height="3.35435" transform="rotate(-180 33.1895 11.7085)"/></svg>