<svg xmlns="http://www.w3.org/2000/svg" viewBox="0 0 144 101" fill="#fff"><path fill="currentColor" fillRule="evenodd" clipRule="evenodd" d="M50.7071 55.7071C51.0976 55.3166 51.0976 54.6834 50.7071 54.2929L44.3431 47.9289C43.9526 47.5384 43.3195 47.5384 42.9289 47.9289C42.5384 48.3195 42.5384 48.9526 42.9289 49.3431L48.5858 55L42.9289 60.6569C42.5384 61.0474 42.5384 61.6805 42.9289 62.0711C43.3195 62.4616 43.9526 62.4616 44.3431 62.0711L50.7071 55.7071ZM31 56H50V54H31V56Z" fillOpacity="0.6" stroke="currentColor" cx="72.5" cy="55.5" r="11"/><path fill="currentColor" d="M50.7071 55.7071C51.0976 55.3166 51.0976 54.6834 50.7071 54.2929L44.3431 47.9289C43.9526 47.5384 43.3195 47.5384 42.9289 47.9289C42.5384 48.3195 42.5384 48.9526 42.9289 49.3431L48.5858 55L42.9289 60.6569C42.5384 61.0474 42.5384 61.6805 42.9289 62.0711C43.3195 62.4616 43.9526 62.4616 44.3431 62.0711L50.7071 55.7071ZM31 56H50V54H31V56Z" fillOpacity="0.6" fillRule="evenodd" clipRule="evenodd" stroke="currentColor" cx="72.5" cy="55.5" r="11"/><path fill="currentColor" fillRule="evenodd" clipRule="evenodd"/><path fill="currentColor" fillRule="evenodd" clipRule="evenodd" d="M50.7071 55.7071C51.0976 55.3166 51.0976 54.6834 50.7071 54.2929L44.3431 47.9289C43.9526 47.5384 43.3195 47.5384 42.9289 47.9289C42.5384 48.3195 42.5384 48.9526 42.9289 49.3431L48.5858 55L42.9289 60.6569C42.5384 61.0474 42.5384 61.6805 42.9289 62.0711C43.3195 62.4616 43.9526 62.4616 44.3431 62.0711L50.7071 55.7071ZM31 56H50V54H31V56Z" fillOpacity="0.6" stroke="currentColor" cx="72.5" cy="55.5" r="11"/><circle stroke="currentColor" cx="72.5" cy="55.5" r="11" fill="currentColor" d="M50.7071 55.7071C51.0976 55.3166 51.0976 54.6834 50.7071 54.2929L44.3431 47.9289C43.9526 47.5384 43.3195 47.5384 42.9289 47.9289C42.5384 48.3195 42.5384 48.9526 42.9289 49.3431L48.5858 55L42.9289 60.6569C42.5384 61.0474 42.5384 61.6805 42.9289 62.0711C43.3195 62.4616 43.9526 62.4616 44.3431 62.0711L50.7071 55.7071ZM31 56H50V54H31V56Z"/><circle stroke="currentColor" cx="72.5" cy="55.5" r="11" fill="currentColor" d="M50.7071 55.7071C51.0976 55.3166 51.0976 54.6834 50.7071 54.2929L44.3431 47.9289C43.9526 47.5384 43.3195 47.5384 42.9289 47.9289C42.5384 48.3195 42.5384 48.9526 42.9289 49.3431L48.5858 55L42.9289 60.6569C42.5384 61.0474 42.5384 61.6805 42.9289 62.0711C43.3195 62.4616 43.9526 62.4616 44.3431 62.0711L50.7071 55.7071ZM31 56H50V54H31V56Z"/><circle stroke="currentColor" cx="122.5" cy="55.5" r="11"/><path fill="currentColor" d="M50.7071 55.7071C51.0976 55.3166 51.0976 54.6834 50.7071 54.2929L44.3431 47.9289C43.9526 47.5384 43.3195 47.5384 42.9289 47.9289C42.5384 48.3195 42.5384 48.9526 42.9289 49.3431L48.5858 55L42.9289 60.6569C42.5384 61.0474 42.5384 61.6805 42.9289 62.0711C43.3195 62.4616 43.9526 62.4616 44.3431 62.0711L50.7071 55.7071ZM31 56H50V54H31V56Z"/><path fill="currentColor"/><path fill="currentColor" d="M50.7071 55.7071C51.0976 55.3166 51.0976 54.6834 50.7071 54.2929L44.3431 47.9289C43.9526 47.5384 43.3195 47.5384 42.9289 47.9289C42.5384 48.3195 42.5384 48.9526 42.9289 49.3431L48.5858 55L42.9289 60.6569C42.5384 61.0474 42.5384 61.6805 42.9289 62.0711C43.3195 62.4616 43.9526 62.4616 44.3431 62.0711L50.7071 55.7071ZM31 56H50V54H31V56Z"/><path fill="currentColor" d="M50.7071 55.7071C51.0976 55.3166 51.0976 54.6834 50.7071 54.2929L44.3431 47.9289C43.9526 47.5384 43.3195 47.5384 42.9289 47.9289C42.5384 48.3195 42.5384 48.9526 42.9289 49.3431L48.5858 55L42.9289 60.6569C42.5384 61.0474 42.5384 61.6805 42.9289 62.0711C43.3195 62.4616 43.9526 62.4616 44.3431 62.0711L50.7071 55.7071ZM31 56H50V54H31V56Z"/><path fill="currentColor" d="M50.7071 55.7071C51.0976 55.3166 51.0976 54.6834 50.7071 54.2929L44.3431 47.9289C43.9526 47.5384 43.3195 47.5384 42.9289 47.9289C42.5384 48.3195 42.5384 48.9526 42.9289 49.3431L48.5858 55L42.9289 60.6569C42.5384 61.0474 42.5384 61.6805 42.9289 62.0711C43.3195 62.4616 43.9526 62.4616 44.3431 62.0711L50.7071 55.7071ZM31 56H50V54H31V56Z"/></svg>