<svg xmlns="http://www.w3.org/2000/svg" viewBox="0 0 36 36" fill="#fff"><path d="M26.7079 14.1338C26.7079 12.0555 25.0142 10.3645 22.9321 10.3645C20.8502 10.3645 19.1559 12.0554 19.1559 14.1338C19.1559 16.2122 20.8501 17.9027 22.9321 17.9027C25.0141 17.9027 26.7079 16.2122 26.7079 14.1338ZM20.1018 14.1273C20.1018 12.5634 21.372 11.296 22.9384 11.296C24.505 11.296 25.7749 12.5634 25.7749 14.1273C25.7749 15.6912 24.5051 16.9586 22.9384 16.9586C21.372 16.9585 20.1018 15.6912 20.1018 14.1273Z" fill="currentColor"/><path d="M26.7079 14.1338C26.7079 12.0555 25.0142 10.3645 22.9321 10.3645C20.8502 10.3645 19.1559 12.0554 19.1559 14.1338C19.1559 16.2122 20.8501 17.9027 22.9321 17.9027C25.0141 17.9027 26.7079 16.2122 26.7079 14.1338ZM20.1018 14.1273C20.1018 12.5634 21.372 11.296 22.9384 11.296C24.505 11.296 25.7749 12.5634 25.7749 14.1273C25.7749 15.6912 24.5051 16.9586 22.9384 16.9586C21.372 16.9585 20.1018 15.6912 20.1018 14.1273Z" fill="currentColor"/><path d="M26.7079 14.1338C26.7079 12.0555 25.0142 10.3645 22.9321 10.3645C20.8502 10.3645 19.1559 12.0554 19.1559 14.1338C19.1559 16.2122 20.8501 17.9027 22.9321 17.9027C25.0141 17.9027 26.7079 16.2122 26.7079 14.1338ZM20.1018 14.1273C20.1018 12.5634 21.372 11.296 22.9384 11.296C24.505 11.296 25.7749 12.5634 25.7749 14.1273C25.7749 15.6912 24.5051 16.9586 22.9384 16.9586C21.372 16.9585 20.1018 15.6912 20.1018 14.1273Z" fill="currentColor"/></svg>