<svg xmlns="http://www.w3.org/2000/svg" viewBox="0 0 542 316" width="542" height="316" fill="#fff"><g d="M456.073 85.1748L438.531 157.16" strokeLinecap="round" fill="white" stroke="white" strokeWidth="10" width="542" height="316"/><g d="M456.073 85.1748L438.531 157.16" strokeLinecap="round" fill="white" stroke="white" strokeWidth="10" width="542" height="316"/><path d="M111.506 48.22C99.911 44.4727 85.8021 47.69 76.0611 52.4514L75.4019 52.7786C68.6189 56.2048 62.7146 61.1392 57.9605 66.9075L57.9586 66.9104C52.8278 73.1439 49.1441 80.3039 46.6402 87.7522C43.5811 96.8378 42.2267 106.292 41.524 115.446C40.5014 128.782 41.8242 141.616 43.6812 154.292L44.4732 159.833C45.3335 165.886 46.1499 173.216 47.5133 178.276C68.0052 254.323 180.969 203.684 151.981 122.068C152.345 120.198 152.18 118.43 151.934 117.064C151.577 115.084 150.783 112.779 150.516 111.844V111.841L149.157 107.138C148.928 106.354 148.698 105.571 148.467 104.787L147.77 102.438C146.757 98.9677 145.551 94.0269 143.874 89.5764C142.329 85.4778 140.147 81.0738 136.681 77.6682C135.257 73.3626 133.462 69.0578 131.05 64.9885L131.049 64.9876L130.623 64.2795C128.453 60.7491 125.778 57.346 122.462 54.4895C119.318 51.7677 115.614 49.5484 111.508 48.22H111.506Z" strokeLinecap="round"/><path d="M456.073 85.1748L438.531 157.16" strokeLinecap="round" fill="white" stroke="white" strokeWidth="10" width="542" height="316"/><path d="M456.073 85.1748L438.531 157.16" strokeLinecap="round" fill="white" stroke="white" strokeWidth="10" width="542" height="316"/><path d="M456.073 85.1748L438.531 157.16" strokeLinecap="round" fill="white" stroke="white" strokeWidth="10" width="542" height="316"/><path d="M456.073 85.1748L438.531 157.16" strokeLinecap="round" fill="white" stroke="white" strokeWidth="10" width="542" height="316"/><path d="M456.073 85.1748L438.531 157.16" strokeLinecap="round" fill="white" stroke="white" strokeWidth="10" width="542" height="316"/><path d="M456.073 85.1748L438.531 157.16" strokeLinecap="round" fill="white" stroke="white" strokeWidth="10" width="542" height="316"/><g d="M456.073 85.1748L438.531 157.16" strokeLinecap="round" fill="white" stroke="white" strokeWidth="10" width="542" height="316"/><path d="M456.073 85.1748L438.531 157.16" strokeLinecap="round" fill="white" stroke="white" strokeWidth="10" width="542" height="316"/><path d="M456.073 85.1748L438.531 157.16" strokeLinecap="round" fill="white" stroke="white" strokeWidth="10" width="542" height="316"/><path d="M456.073 85.1748L438.531 157.16" strokeLinecap="round" fill="white" stroke="white" strokeWidth="10" width="542" height="316"/><path d="M456.073 85.1748L438.531 157.16" strokeLinecap="round" fill="white" stroke="white" strokeWidth="10" width="542" height="316"/><path d="M456.073 85.1748L438.531 157.16" strokeLinecap="round" fill="white" stroke="white" strokeWidth="10" width="542" height="316"/><path d="M456.073 85.1748L438.531 157.16" strokeLinecap="round" fill="white" stroke="white" strokeWidth="10" width="542" height="316"/><path d="M456.073 85.1748L438.531 157.16" strokeLinecap="round" fill="white" stroke="white" strokeWidth="10" width="542" height="316"/><path d="M456.073 85.1748L438.531 157.16" strokeLinecap="round" fill="white" stroke="white" strokeWidth="10" width="542" height="316"/><path d="M456.073 85.1748L438.531 157.16" strokeLinecap="round" fill="white" stroke="white" strokeWidth="10" width="542" height="316"/><path d="M456.073 85.1748L438.531 157.16" strokeLinecap="round" fill="white" stroke="white" strokeWidth="10" width="542" height="316"/><path fill="white" d="M456.073 85.1748L438.531 157.16" stroke="white" strokeLinecap="round" strokeWidth="10" width="542" height="316"/><path fill="white" d="M456.073 85.1748L438.531 157.16" stroke="white" strokeLinecap="round" strokeWidth="10" width="542" height="316"/><path fill="white" d="M456.073 85.1748L438.531 157.16" stroke="white" strokeLinecap="round" strokeWidth="10" width="542" height="316"/><path fill="white" d="M456.073 85.1748L438.531 157.16" stroke="white" strokeLinecap="round" strokeWidth="10" width="542" height="316"/><path stroke="white" d="M456.073 85.1748L438.531 157.16" strokeLinecap="round" strokeWidth="10" fill="white" width="542" height="316"/><path stroke="white" d="M456.073 85.1748L438.531 157.16" strokeWidth="10" strokeLinecap="round" fill="white" width="542" height="316"/><path d="M456.073 85.1748L438.531 157.16" strokeWidth="10" strokeLinecap="round" fill="white" width="542" height="316"/><path d="M456.073 85.1748L438.531 157.16" strokeWidth="10" strokeLinecap="round" fill="white" width="542" height="316"/><defs fill="white" width="542" height="316"/><clipPath fill="white" width="542" height="316"/><rect fill="white" width="542" height="316"/></svg>