<svg xmlns="http://www.w3.org/2000/svg" viewBox="0 0 36 36" width="26" height="4" fill="#fff"><rect x="13" y="3" width="10" height="3" fill="currentColor" d="M27 32.2952H9L7 14.2952H29L27 32.2952ZM12 29.2952H14V17.2952H12V29.2952ZM17 17.2952V29.2952H19V17.2952H17ZM22 29.2952H24V17.2952H22V29.2952Z"/><rect x="13" y="3" width="10" height="3" fill="currentColor" d="M27 32.2952H9L7 14.2952H29L27 32.2952ZM12 29.2952H14V17.2952H12V29.2952ZM17 17.2952V29.2952H19V17.2952H17ZM22 29.2952H24V17.2952H22V29.2952Z"/><path d="M27 32.2952H9L7 14.2952H29L27 32.2952ZM12 29.2952H14V17.2952H12V29.2952ZM17 17.2952V29.2952H19V17.2952H17ZM22 29.2952H24V17.2952H22V29.2952Z" fill="currentColor"/></svg>