<svg xmlns="http://www.w3.org/2000/svg" viewBox="0 0 36 36" width="27" height="24" fill="#fff"><rect x="15" y="23" width="8" height="2" stroke="currentColor" strokeWidth="2" fill="currentColor" d="M9.5 17.5L13 21L9.5 24.5"/><rect x="15" y="23" width="8" height="2" fill="currentColor" d="M9.5 17.5L13 21L9.5 24.5" stroke="currentColor" strokeWidth="2"/><rect x="15" y="23" width="8" height="2" fill="currentColor" d="M9.5 17.5L13 21L9.5 24.5" stroke="currentColor" strokeWidth="2"/><rect x="15" y="23" width="8" height="2" fill="currentColor" d="M9.5 17.5L13 21L9.5 24.5" stroke="currentColor" strokeWidth="2"/><rect x="15" y="23" width="8" height="2" fill="currentColor" d="M9.5 17.5L13 21L9.5 24.5" stroke="currentColor" strokeWidth="2"/><path d="M9.5 17.5L13 21L9.5 24.5" stroke="currentColor" strokeWidth="2" x="15" y="23" width="8" height="2" fill="currentColor"/><rect x="15" y="23" width="8" height="2" fill="currentColor"/></svg>