<svg xmlns="http://www.w3.org/2000/svg" viewBox="0 0 36 36" fill="#fff"><g className="SVGIcon_Notification_Uvula" fillRule="evenodd" clipRule="evenodd" d="M18 34C19.2396 33.9986 20.4483 33.6133 21.46 32.897C22.4718 32.1807 23.2368 31.1687 23.65 30H12.35C12.7632 31.1687 13.5282 32.1807 14.54 32.897C15.5517 33.6133 16.7604 33.9986 18 34Z" fill="currentColor"/><path fillRule="evenodd" clipRule="evenodd" d="M18 34C19.2396 33.9986 20.4483 33.6133 21.46 32.897C22.4718 32.1807 23.2368 31.1687 23.65 30H12.35C12.7632 31.1687 13.5282 32.1807 14.54 32.897C15.5517 33.6133 16.7604 33.9986 18 34Z" fill="currentColor" className="SVGIcon_Notification_Uvula"/><path className="SVGIcon_Notification_Uvula" fillRule="evenodd" clipRule="evenodd" d="M18 34C19.2396 33.9986 20.4483 33.6133 21.46 32.897C22.4718 32.1807 23.2368 31.1687 23.65 30H12.35C12.7632 31.1687 13.5282 32.1807 14.54 32.897C15.5517 33.6133 16.7604 33.9986 18 34Z" fill="currentColor"/></svg>