<svg xmlns="http://www.w3.org/2000/svg" viewBox="0 0 813 153" width="45" height="45" fill="#fff"><rect fill="#55FF00" opacity="0.8" x="232.551" y="18.2051" width="7.71962" height="3.85981" rx="1.9299" transform="rotate(5.20229 232.551 18.2051)" fillOpacity="0.3" attributeName="fill-opacity" values="1;0;1" dur="2s" repeatCount="indefinite" calcMode="spline" keySplines="0.4 0 0.6 1; 0.4 0 0.6 1" stroke="currentColor" d="M246.456 22.5699C244.16 21.6821 239.861 21.0099 233.253 20.4519C233.253 20.5026 233.272 20.547 233.278 20.5977C233.132 23.7114 229.543 24.967 227.108 25.785C222.51 27.1041 217.703 26.9519 213.112 25.7597C212.783 25.6709 212.472 25.5758 212.167 25.4743C212.212 25.6582 212.243 25.8485 212.263 26.0514C212.218 29.2285 208.959 30.9534 206.441 31.9236C201.672 33.6104 196.51 33.4582 191.76 31.8982C187.455 30.4334 185.482 27.7699 186.04 25.3538C185.603 25.5187 185.178 25.6646 184.785 25.7977C180.187 27.1168 175.38 26.9646 170.789 25.7724C164.663 24.1236 162.977 20.2933 166.318 17.8772C163.497 17.7948 160.935 17.725 158.81 17.6743C158.176 17.6616 157.58 17.6553 157.009 17.6553C150.135 17.6553 147.738 18.7714 143.248 24.1553C142.849 24.6372 142.202 25.5377 141.555 26.4699L154.206 23.7621C155.405 23.5402 155.792 25.3285 154.58 25.6011C154.58 25.6011 110.577 35.8109 82.7758 45.3041C64.3538 51.5758 5.46687 67.9115 0.0322266 112.226C39.9011 113.596 64.8231 102.2 93.4359 89.092C125.169 74.5637 161.093 58.1202 225.795 56.3573C227.558 50.371 229.201 46.5344 232.099 43.5983C239.67 35.9124 253.913 34.8978 253.913 34.8978C253.913 34.8978 253.463 25.2904 246.456 22.5763V22.5699Z" strokeWidth="5.76327"/><animate attributeName="fill-opacity" values="1;0;1" dur="2s" repeatCount="indefinite" calcMode="spline" keySplines="0.4 0 0.6 1; 0.4 0 0.6 1" stroke="currentColor" d="M246.456 22.5699C244.16 21.6821 239.861 21.0099 233.253 20.4519C233.253 20.5026 233.272 20.547 233.278 20.5977C233.132 23.7114 229.543 24.967 227.108 25.785C222.51 27.1041 217.703 26.9519 213.112 25.7597C212.783 25.6709 212.472 25.5758 212.167 25.4743C212.212 25.6582 212.243 25.8485 212.263 26.0514C212.218 29.2285 208.959 30.9534 206.441 31.9236C201.672 33.6104 196.51 33.4582 191.76 31.8982C187.455 30.4334 185.482 27.7699 186.04 25.3538C185.603 25.5187 185.178 25.6646 184.785 25.7977C180.187 27.1168 175.38 26.9646 170.789 25.7724C164.663 24.1236 162.977 20.2933 166.318 17.8772C163.497 17.7948 160.935 17.725 158.81 17.6743C158.176 17.6616 157.58 17.6553 157.009 17.6553C150.135 17.6553 147.738 18.7714 143.248 24.1553C142.849 24.6372 142.202 25.5377 141.555 26.4699L154.206 23.7621C155.405 23.5402 155.792 25.3285 154.58 25.6011C154.58 25.6011 110.577 35.8109 82.7758 45.3041C64.3538 51.5758 5.46687 67.9115 0.0322266 112.226C39.9011 113.596 64.8231 102.2 93.4359 89.092C125.169 74.5637 161.093 58.1202 225.795 56.3573C227.558 50.371 229.201 46.5344 232.099 43.5983C239.67 35.9124 253.913 34.8978 253.913 34.8978C253.913 34.8978 253.463 25.2904 246.456 22.5763V22.5699Z" strokeWidth="5.76327" fill="#55FF00" x="232.551" y="18.2051" width="7.71962" height="3.85981" transform="rotate(5.20229 232.551 18.2051)" rx="1.9299"/><path stroke="currentColor" d="M422.911 42.4865C421.85 42.4865 420.989 43.3466 420.989 44.4076L420.989 48.2498C420.99 49.3108 421.85 50.1709 422.911 50.1709L436.358 50.1709C437.419 50.1709 438.279 49.3108 438.279 48.2498L438.279 44.4076C438.279 43.3466 437.419 42.4865 436.358 42.4865L422.911 42.4865Z" strokeWidth="5.76327" fill="#1A9FFF" x="2.88163" y="2.88163" width="9.60544" height="27.043" transform="matrix(8.78456e-08 -1 -1 -2.17505e-08 465.767 54.0142)"/><path fill="#55FF00" d="M246.456 22.5699C244.16 21.6821 239.861 21.0099 233.253 20.4519C233.253 20.5026 233.272 20.547 233.278 20.5977C233.132 23.7114 229.543 24.967 227.108 25.785C222.51 27.1041 217.703 26.9519 213.112 25.7597C212.783 25.6709 212.472 25.5758 212.167 25.4743C212.212 25.6582 212.243 25.8485 212.263 26.0514C212.218 29.2285 208.959 30.9534 206.441 31.9236C201.672 33.6104 196.51 33.4582 191.76 31.8982C187.455 30.4334 185.482 27.7699 186.04 25.3538C185.603 25.5187 185.178 25.6646 184.785 25.7977C180.187 27.1168 175.38 26.9646 170.789 25.7724C164.663 24.1236 162.977 20.2933 166.318 17.8772C163.497 17.7948 160.935 17.725 158.81 17.6743C158.176 17.6616 157.58 17.6553 157.009 17.6553C150.135 17.6553 147.738 18.7714 143.248 24.1553C142.849 24.6372 142.202 25.5377 141.555 26.4699L154.206 23.7621C155.405 23.5402 155.792 25.3285 154.58 25.6011C154.58 25.6011 110.577 35.8109 82.7758 45.3041C64.3538 51.5758 5.46687 67.9115 0.0322266 112.226C39.9011 113.596 64.8231 102.2 93.4359 89.092C125.169 74.5637 161.093 58.1202 225.795 56.3573C227.558 50.371 229.201 46.5344 232.099 43.5983C239.67 35.9124 253.913 34.8978 253.913 34.8978C253.913 34.8978 253.463 25.2904 246.456 22.5763V22.5699Z" stroke="currentColor" x="232.551" y="18.2051" width="7.71962" height="3.85981" transform="rotate(5.20229 232.551 18.2051)" strokeWidth="5.76327" rx="1.9299" attributeName="fill-opacity" values="1;0;1" dur="2s" repeatCount="indefinite" calcMode="spline" keySplines="0.4 0 0.6 1; 0.4 0 0.6 1"/><rect stroke="currentColor" fill="#1A9FFF" x="2.88163" y="2.88163" width="9.60544" height="27.043" transform="matrix(8.78456e-08 -1 -1 -2.17505e-08 465.767 54.0142)" strokeWidth="5.76327"/><path fill="#1A9FFF"/><path fill="#55FF00" d="M246.456 22.5699C244.16 21.6821 239.861 21.0099 233.253 20.4519C233.253 20.5026 233.272 20.547 233.278 20.5977C233.132 23.7114 229.543 24.967 227.108 25.785C222.51 27.1041 217.703 26.9519 213.112 25.7597C212.783 25.6709 212.472 25.5758 212.167 25.4743C212.212 25.6582 212.243 25.8485 212.263 26.0514C212.218 29.2285 208.959 30.9534 206.441 31.9236C201.672 33.6104 196.51 33.4582 191.76 31.8982C187.455 30.4334 185.482 27.7699 186.04 25.3538C185.603 25.5187 185.178 25.6646 184.785 25.7977C180.187 27.1168 175.38 26.9646 170.789 25.7724C164.663 24.1236 162.977 20.2933 166.318 17.8772C163.497 17.7948 160.935 17.725 158.81 17.6743C158.176 17.6616 157.58 17.6553 157.009 17.6553C150.135 17.6553 147.738 18.7714 143.248 24.1553C142.849 24.6372 142.202 25.5377 141.555 26.4699L154.206 23.7621C155.405 23.5402 155.792 25.3285 154.58 25.6011C154.58 25.6011 110.577 35.8109 82.7758 45.3041C64.3538 51.5758 5.46687 67.9115 0.0322266 112.226C39.9011 113.596 64.8231 102.2 93.4359 89.092C125.169 74.5637 161.093 58.1202 225.795 56.3573C227.558 50.371 229.201 46.5344 232.099 43.5983C239.67 35.9124 253.913 34.8978 253.913 34.8978C253.913 34.8978 253.463 25.2904 246.456 22.5763V22.5699Z" x="232.551" y="18.2051" width="7.71962" height="3.85981" rx="1.9299" transform="rotate(5.20229 232.551 18.2051)" attributeName="fill-opacity" values="1;0;1" dur="2s" repeatCount="indefinite" calcMode="spline" keySplines="0.4 0 0.6 1; 0.4 0 0.6 1"/><path fill="#55FF00" d="M246.456 22.5699C244.16 21.6821 239.861 21.0099 233.253 20.4519C233.253 20.5026 233.272 20.547 233.278 20.5977C233.132 23.7114 229.543 24.967 227.108 25.785C222.51 27.1041 217.703 26.9519 213.112 25.7597C212.783 25.6709 212.472 25.5758 212.167 25.4743C212.212 25.6582 212.243 25.8485 212.263 26.0514C212.218 29.2285 208.959 30.9534 206.441 31.9236C201.672 33.6104 196.51 33.4582 191.76 31.8982C187.455 30.4334 185.482 27.7699 186.04 25.3538C185.603 25.5187 185.178 25.6646 184.785 25.7977C180.187 27.1168 175.38 26.9646 170.789 25.7724C164.663 24.1236 162.977 20.2933 166.318 17.8772C163.497 17.7948 160.935 17.725 158.81 17.6743C158.176 17.6616 157.58 17.6553 157.009 17.6553C150.135 17.6553 147.738 18.7714 143.248 24.1553C142.849 24.6372 142.202 25.5377 141.555 26.4699L154.206 23.7621C155.405 23.5402 155.792 25.3285 154.58 25.6011C154.58 25.6011 110.577 35.8109 82.7758 45.3041C64.3538 51.5758 5.46687 67.9115 0.0322266 112.226C39.9011 113.596 64.8231 102.2 93.4359 89.092C125.169 74.5637 161.093 58.1202 225.795 56.3573C227.558 50.371 229.201 46.5344 232.099 43.5983C239.67 35.9124 253.913 34.8978 253.913 34.8978C253.913 34.8978 253.463 25.2904 246.456 22.5763V22.5699Z" x="232.551" y="18.2051" width="7.71962" height="3.85981" rx="1.9299" transform="rotate(5.20229 232.551 18.2051)" attributeName="fill-opacity" values="1;0;1" dur="2s" repeatCount="indefinite" calcMode="spline" keySplines="0.4 0 0.6 1; 0.4 0 0.6 1"/><path fill="#55FF00" d="M246.456 22.5699C244.16 21.6821 239.861 21.0099 233.253 20.4519C233.253 20.5026 233.272 20.547 233.278 20.5977C233.132 23.7114 229.543 24.967 227.108 25.785C222.51 27.1041 217.703 26.9519 213.112 25.7597C212.783 25.6709 212.472 25.5758 212.167 25.4743C212.212 25.6582 212.243 25.8485 212.263 26.0514C212.218 29.2285 208.959 30.9534 206.441 31.9236C201.672 33.6104 196.51 33.4582 191.76 31.8982C187.455 30.4334 185.482 27.7699 186.04 25.3538C185.603 25.5187 185.178 25.6646 184.785 25.7977C180.187 27.1168 175.38 26.9646 170.789 25.7724C164.663 24.1236 162.977 20.2933 166.318 17.8772C163.497 17.7948 160.935 17.725 158.81 17.6743C158.176 17.6616 157.58 17.6553 157.009 17.6553C150.135 17.6553 147.738 18.7714 143.248 24.1553C142.849 24.6372 142.202 25.5377 141.555 26.4699L154.206 23.7621C155.405 23.5402 155.792 25.3285 154.58 25.6011C154.58 25.6011 110.577 35.8109 82.7758 45.3041C64.3538 51.5758 5.46687 67.9115 0.0322266 112.226C39.9011 113.596 64.8231 102.2 93.4359 89.092C125.169 74.5637 161.093 58.1202 225.795 56.3573C227.558 50.371 229.201 46.5344 232.099 43.5983C239.67 35.9124 253.913 34.8978 253.913 34.8978C253.913 34.8978 253.463 25.2904 246.456 22.5763V22.5699Z" x="232.551" y="18.2051" width="7.71962" height="3.85981" rx="1.9299" transform="rotate(5.20229 232.551 18.2051)" attributeName="fill-opacity" values="1;0;1" dur="2s" repeatCount="indefinite" calcMode="spline" keySplines="0.4 0 0.6 1; 0.4 0 0.6 1"/><path fill="currentColor"/><path fill="currentColor"/><path fill="#55FF00" d="M246.456 22.5699C244.16 21.6821 239.861 21.0099 233.253 20.4519C233.253 20.5026 233.272 20.547 233.278 20.5977C233.132 23.7114 229.543 24.967 227.108 25.785C222.51 27.1041 217.703 26.9519 213.112 25.7597C212.783 25.6709 212.472 25.5758 212.167 25.4743C212.212 25.6582 212.243 25.8485 212.263 26.0514C212.218 29.2285 208.959 30.9534 206.441 31.9236C201.672 33.6104 196.51 33.4582 191.76 31.8982C187.455 30.4334 185.482 27.7699 186.04 25.3538C185.603 25.5187 185.178 25.6646 184.785 25.7977C180.187 27.1168 175.38 26.9646 170.789 25.7724C164.663 24.1236 162.977 20.2933 166.318 17.8772C163.497 17.7948 160.935 17.725 158.81 17.6743C158.176 17.6616 157.58 17.6553 157.009 17.6553C150.135 17.6553 147.738 18.7714 143.248 24.1553C142.849 24.6372 142.202 25.5377 141.555 26.4699L154.206 23.7621C155.405 23.5402 155.792 25.3285 154.58 25.6011C154.58 25.6011 110.577 35.8109 82.7758 45.3041C64.3538 51.5758 5.46687 67.9115 0.0322266 112.226C39.9011 113.596 64.8231 102.2 93.4359 89.092C125.169 74.5637 161.093 58.1202 225.795 56.3573C227.558 50.371 229.201 46.5344 232.099 43.5983C239.67 35.9124 253.913 34.8978 253.913 34.8978C253.913 34.8978 253.463 25.2904 246.456 22.5763V22.5699Z" x="232.551" y="18.2051" width="7.71962" height="3.85981" rx="1.9299" transform="rotate(5.20229 232.551 18.2051)" attributeName="fill-opacity" values="1;0;1" dur="2s" repeatCount="indefinite" calcMode="spline" keySplines="0.4 0 0.6 1; 0.4 0 0.6 1"/><path fill="#55FF00" d="M246.456 22.5699C244.16 21.6821 239.861 21.0099 233.253 20.4519C233.253 20.5026 233.272 20.547 233.278 20.5977C233.132 23.7114 229.543 24.967 227.108 25.785C222.51 27.1041 217.703 26.9519 213.112 25.7597C212.783 25.6709 212.472 25.5758 212.167 25.4743C212.212 25.6582 212.243 25.8485 212.263 26.0514C212.218 29.2285 208.959 30.9534 206.441 31.9236C201.672 33.6104 196.51 33.4582 191.76 31.8982C187.455 30.4334 185.482 27.7699 186.04 25.3538C185.603 25.5187 185.178 25.6646 184.785 25.7977C180.187 27.1168 175.38 26.9646 170.789 25.7724C164.663 24.1236 162.977 20.2933 166.318 17.8772C163.497 17.7948 160.935 17.725 158.81 17.6743C158.176 17.6616 157.58 17.6553 157.009 17.6553C150.135 17.6553 147.738 18.7714 143.248 24.1553C142.849 24.6372 142.202 25.5377 141.555 26.4699L154.206 23.7621C155.405 23.5402 155.792 25.3285 154.58 25.6011C154.58 25.6011 110.577 35.8109 82.7758 45.3041C64.3538 51.5758 5.46687 67.9115 0.0322266 112.226C39.9011 113.596 64.8231 102.2 93.4359 89.092C125.169 74.5637 161.093 58.1202 225.795 56.3573C227.558 50.371 229.201 46.5344 232.099 43.5983C239.67 35.9124 253.913 34.8978 253.913 34.8978C253.913 34.8978 253.463 25.2904 246.456 22.5763V22.5699Z" x="232.551" y="18.2051" width="7.71962" height="3.85981" rx="1.9299" transform="rotate(5.20229 232.551 18.2051)" attributeName="fill-opacity" values="1;0;1" dur="2s" repeatCount="indefinite" calcMode="spline" keySplines="0.4 0 0.6 1; 0.4 0 0.6 1"/><path fill="#55FF00" d="M246.456 22.5699C244.16 21.6821 239.861 21.0099 233.253 20.4519C233.253 20.5026 233.272 20.547 233.278 20.5977C233.132 23.7114 229.543 24.967 227.108 25.785C222.51 27.1041 217.703 26.9519 213.112 25.7597C212.783 25.6709 212.472 25.5758 212.167 25.4743C212.212 25.6582 212.243 25.8485 212.263 26.0514C212.218 29.2285 208.959 30.9534 206.441 31.9236C201.672 33.6104 196.51 33.4582 191.76 31.8982C187.455 30.4334 185.482 27.7699 186.04 25.3538C185.603 25.5187 185.178 25.6646 184.785 25.7977C180.187 27.1168 175.38 26.9646 170.789 25.7724C164.663 24.1236 162.977 20.2933 166.318 17.8772C163.497 17.7948 160.935 17.725 158.81 17.6743C158.176 17.6616 157.58 17.6553 157.009 17.6553C150.135 17.6553 147.738 18.7714 143.248 24.1553C142.849 24.6372 142.202 25.5377 141.555 26.4699L154.206 23.7621C155.405 23.5402 155.792 25.3285 154.58 25.6011C154.58 25.6011 110.577 35.8109 82.7758 45.3041C64.3538 51.5758 5.46687 67.9115 0.0322266 112.226C39.9011 113.596 64.8231 102.2 93.4359 89.092C125.169 74.5637 161.093 58.1202 225.795 56.3573C227.558 50.371 229.201 46.5344 232.099 43.5983C239.67 35.9124 253.913 34.8978 253.913 34.8978C253.913 34.8978 253.463 25.2904 246.456 22.5763V22.5699Z" x="232.551" y="18.2051" width="7.71962" height="3.85981" rx="1.9299" transform="rotate(5.20229 232.551 18.2051)" attributeName="fill-opacity" values="1;0;1" dur="2s" repeatCount="indefinite" calcMode="spline" keySplines="0.4 0 0.6 1; 0.4 0 0.6 1"/><path fill="currentColor"/><path fill="#55FF00" d="M246.456 22.5699C244.16 21.6821 239.861 21.0099 233.253 20.4519C233.253 20.5026 233.272 20.547 233.278 20.5977C233.132 23.7114 229.543 24.967 227.108 25.785C222.51 27.1041 217.703 26.9519 213.112 25.7597C212.783 25.6709 212.472 25.5758 212.167 25.4743C212.212 25.6582 212.243 25.8485 212.263 26.0514C212.218 29.2285 208.959 30.9534 206.441 31.9236C201.672 33.6104 196.51 33.4582 191.76 31.8982C187.455 30.4334 185.482 27.7699 186.04 25.3538C185.603 25.5187 185.178 25.6646 184.785 25.7977C180.187 27.1168 175.38 26.9646 170.789 25.7724C164.663 24.1236 162.977 20.2933 166.318 17.8772C163.497 17.7948 160.935 17.725 158.81 17.6743C158.176 17.6616 157.58 17.6553 157.009 17.6553C150.135 17.6553 147.738 18.7714 143.248 24.1553C142.849 24.6372 142.202 25.5377 141.555 26.4699L154.206 23.7621C155.405 23.5402 155.792 25.3285 154.58 25.6011C154.58 25.6011 110.577 35.8109 82.7758 45.3041C64.3538 51.5758 5.46687 67.9115 0.0322266 112.226C39.9011 113.596 64.8231 102.2 93.4359 89.092C125.169 74.5637 161.093 58.1202 225.795 56.3573C227.558 50.371 229.201 46.5344 232.099 43.5983C239.67 35.9124 253.913 34.8978 253.913 34.8978C253.913 34.8978 253.463 25.2904 246.456 22.5763V22.5699Z" x="232.551" y="18.2051" width="7.71962" height="3.85981" rx="1.9299" transform="rotate(5.20229 232.551 18.2051)" attributeName="fill-opacity" values="1;0;1" dur="2s" repeatCount="indefinite" calcMode="spline" keySplines="0.4 0 0.6 1; 0.4 0 0.6 1"/><path fill="#55FF00" d="M246.456 22.5699C244.16 21.6821 239.861 21.0099 233.253 20.4519C233.253 20.5026 233.272 20.547 233.278 20.5977C233.132 23.7114 229.543 24.967 227.108 25.785C222.51 27.1041 217.703 26.9519 213.112 25.7597C212.783 25.6709 212.472 25.5758 212.167 25.4743C212.212 25.6582 212.243 25.8485 212.263 26.0514C212.218 29.2285 208.959 30.9534 206.441 31.9236C201.672 33.6104 196.51 33.4582 191.76 31.8982C187.455 30.4334 185.482 27.7699 186.04 25.3538C185.603 25.5187 185.178 25.6646 184.785 25.7977C180.187 27.1168 175.38 26.9646 170.789 25.7724C164.663 24.1236 162.977 20.2933 166.318 17.8772C163.497 17.7948 160.935 17.725 158.81 17.6743C158.176 17.6616 157.58 17.6553 157.009 17.6553C150.135 17.6553 147.738 18.7714 143.248 24.1553C142.849 24.6372 142.202 25.5377 141.555 26.4699L154.206 23.7621C155.405 23.5402 155.792 25.3285 154.58 25.6011C154.58 25.6011 110.577 35.8109 82.7758 45.3041C64.3538 51.5758 5.46687 67.9115 0.0322266 112.226C39.9011 113.596 64.8231 102.2 93.4359 89.092C125.169 74.5637 161.093 58.1202 225.795 56.3573C227.558 50.371 229.201 46.5344 232.099 43.5983C239.67 35.9124 253.913 34.8978 253.913 34.8978C253.913 34.8978 253.463 25.2904 246.456 22.5763V22.5699Z" x="232.551" y="18.2051" width="7.71962" height="3.85981" rx="1.9299" transform="rotate(5.20229 232.551 18.2051)" attributeName="fill-opacity" values="1;0;1" dur="2s" repeatCount="indefinite" calcMode="spline" keySplines="0.4 0 0.6 1; 0.4 0 0.6 1"/><path fill="#55FF00" d="M246.456 22.5699C244.16 21.6821 239.861 21.0099 233.253 20.4519C233.253 20.5026 233.272 20.547 233.278 20.5977C233.132 23.7114 229.543 24.967 227.108 25.785C222.51 27.1041 217.703 26.9519 213.112 25.7597C212.783 25.6709 212.472 25.5758 212.167 25.4743C212.212 25.6582 212.243 25.8485 212.263 26.0514C212.218 29.2285 208.959 30.9534 206.441 31.9236C201.672 33.6104 196.51 33.4582 191.76 31.8982C187.455 30.4334 185.482 27.7699 186.04 25.3538C185.603 25.5187 185.178 25.6646 184.785 25.7977C180.187 27.1168 175.38 26.9646 170.789 25.7724C164.663 24.1236 162.977 20.2933 166.318 17.8772C163.497 17.7948 160.935 17.725 158.81 17.6743C158.176 17.6616 157.58 17.6553 157.009 17.6553C150.135 17.6553 147.738 18.7714 143.248 24.1553C142.849 24.6372 142.202 25.5377 141.555 26.4699L154.206 23.7621C155.405 23.5402 155.792 25.3285 154.58 25.6011C154.58 25.6011 110.577 35.8109 82.7758 45.3041C64.3538 51.5758 5.46687 67.9115 0.0322266 112.226C39.9011 113.596 64.8231 102.2 93.4359 89.092C125.169 74.5637 161.093 58.1202 225.795 56.3573C227.558 50.371 229.201 46.5344 232.099 43.5983C239.67 35.9124 253.913 34.8978 253.913 34.8978C253.913 34.8978 253.463 25.2904 246.456 22.5763V22.5699Z" x="232.551" y="18.2051" width="7.71962" height="3.85981" rx="1.9299" transform="rotate(5.20229 232.551 18.2051)" attributeName="fill-opacity" values="1;0;1" dur="2s" repeatCount="indefinite" calcMode="spline" keySplines="0.4 0 0.6 1; 0.4 0 0.6 1"/><rect fill="#55FF00" x="232.551" y="18.2051" width="7.71962" height="3.85981" rx="1.9299" transform="rotate(5.20229 232.551 18.2051)" attributeName="fill-opacity" values="1;0;1" dur="2s" repeatCount="indefinite" calcMode="spline" keySplines="0.4 0 0.6 1; 0.4 0 0.6 1"/><animate attributeName="fill-opacity" values="1;0;1" dur="2s" repeatCount="indefinite" calcMode="spline" keySplines="0.4 0 0.6 1; 0.4 0 0.6 1"/></svg>