<svg xmlns="http://www.w3.org/2000/svg" viewBox="0 0 232.73 46.07" fill="#fff"><g stroke="null" id="svg_5" d="m14.64039,33.37339l-2.35595,-0.97622c0.41652,0.86775 1.1411,1.59667 2.09996,2.00017c2.07393,0.86341 4.46459,-0.12149 5.33235,-2.19542c0.41652,-1.00226 0.42086,-2.11298 0.00434,-3.11957c-0.41652,-1.00659 -1.1975,-1.79191 -2.19976,-2.21277c-0.99792,-0.41652 -2.06525,-0.39917 -3.00677,-0.04773l2.43405,1.00659c1.53159,0.6378 2.25182,2.395 1.61836,3.92659c-0.6378,1.53592 -2.395,2.25616 -3.92659,1.61836"/><path stroke="null" id="svg_14" d="m229.54999,4.42667c-0.03,-0.55 -0.06,-1.21 -0.06,-1.71l-0.02,0c-0.13,0.46 -0.3,0.96 -0.5,1.5l-0.7,1.92l-0.39,0l-0.64,-1.88c-0.19,-0.56 -0.35,-1.07 -0.46,-1.54l-0.01,0c-0.01,0.49 -0.04,1.15 -0.08,1.75l-0.11,1.69l-0.49,0l0.28,-3.95l0.65,0l0.67,1.91c0.16,0.49 0.3,0.92 0.4,1.33l0.02,0c0.1,-0.4 0.24,-0.83 0.42,-1.33l0.7,-1.91l0.65,0l0.25,3.95l-0.5,0l-0.08,-1.73z"/><path stroke="null" id="svg_14" d="m229.54999,4.42667c-0.03,-0.55 -0.06,-1.21 -0.06,-1.71l-0.02,0c-0.13,0.46 -0.3,0.96 -0.5,1.5l-0.7,1.92l-0.39,0l-0.64,-1.88c-0.19,-0.56 -0.35,-1.07 -0.46,-1.54l-0.01,0c-0.01,0.49 -0.04,1.15 -0.08,1.75l-0.11,1.69l-0.49,0l0.28,-3.95l0.65,0l0.67,1.91c0.16,0.49 0.3,0.92 0.4,1.33l0.02,0c0.1,-0.4 0.24,-0.83 0.42,-1.33l0.7,-1.91l0.65,0l0.25,3.95l-0.5,0l-0.08,-1.73z"/><path stroke="null" id="svg_5"/><path stroke="null" id="svg_14" d="m229.54999,4.42667c-0.03,-0.55 -0.06,-1.21 -0.06,-1.71l-0.02,0c-0.13,0.46 -0.3,0.96 -0.5,1.5l-0.7,1.92l-0.39,0l-0.64,-1.88c-0.19,-0.56 -0.35,-1.07 -0.46,-1.54l-0.01,0c-0.01,0.49 -0.04,1.15 -0.08,1.75l-0.11,1.69l-0.49,0l0.28,-3.95l0.65,0l0.67,1.91c0.16,0.49 0.3,0.92 0.4,1.33l0.02,0c0.1,-0.4 0.24,-0.83 0.42,-1.33l0.7,-1.91l0.65,0l0.25,3.95l-0.5,0l-0.08,-1.73z"/><g id="svg_8"/><path id="svg_14" d="m229.54999,4.42667c-0.03,-0.55 -0.06,-1.21 -0.06,-1.71l-0.02,0c-0.13,0.46 -0.3,0.96 -0.5,1.5l-0.7,1.92l-0.39,0l-0.64,-1.88c-0.19,-0.56 -0.35,-1.07 -0.46,-1.54l-0.01,0c-0.01,0.49 -0.04,1.15 -0.08,1.75l-0.11,1.69l-0.49,0l0.28,-3.95l0.65,0l0.67,1.91c0.16,0.49 0.3,0.92 0.4,1.33l0.02,0c0.1,-0.4 0.24,-0.83 0.42,-1.33l0.7,-1.91l0.65,0l0.25,3.95l-0.5,0l-0.08,-1.73z"/><path id="svg_9"/><path id="svg_14" d="m229.54999,4.42667c-0.03,-0.55 -0.06,-1.21 -0.06,-1.71l-0.02,0c-0.13,0.46 -0.3,0.96 -0.5,1.5l-0.7,1.92l-0.39,0l-0.64,-1.88c-0.19,-0.56 -0.35,-1.07 -0.46,-1.54l-0.01,0c-0.01,0.49 -0.04,1.15 -0.08,1.75l-0.11,1.69l-0.49,0l0.28,-3.95l0.65,0l0.67,1.91c0.16,0.49 0.3,0.92 0.4,1.33l0.02,0c0.1,-0.4 0.24,-0.83 0.42,-1.33l0.7,-1.91l0.65,0l0.25,3.95l-0.5,0l-0.08,-1.73z"/><path id="svg_14" d="m229.54999,4.42667c-0.03,-0.55 -0.06,-1.21 -0.06,-1.71l-0.02,0c-0.13,0.46 -0.3,0.96 -0.5,1.5l-0.7,1.92l-0.39,0l-0.64,-1.88c-0.19,-0.56 -0.35,-1.07 -0.46,-1.54l-0.01,0c-0.01,0.49 -0.04,1.15 -0.08,1.75l-0.11,1.69l-0.49,0l0.28,-3.95l0.65,0l0.67,1.91c0.16,0.49 0.3,0.92 0.4,1.33l0.02,0c0.1,-0.4 0.24,-0.83 0.42,-1.33l0.7,-1.91l0.65,0l0.25,3.95l-0.5,0l-0.08,-1.73z"/><g id="svg_14" d="m229.54999,4.42667c-0.03,-0.55 -0.06,-1.21 -0.06,-1.71l-0.02,0c-0.13,0.46 -0.3,0.96 -0.5,1.5l-0.7,1.92l-0.39,0l-0.64,-1.88c-0.19,-0.56 -0.35,-1.07 -0.46,-1.54l-0.01,0c-0.01,0.49 -0.04,1.15 -0.08,1.75l-0.11,1.69l-0.49,0l0.28,-3.95l0.65,0l0.67,1.91c0.16,0.49 0.3,0.92 0.4,1.33l0.02,0c0.1,-0.4 0.24,-0.83 0.42,-1.33l0.7,-1.91l0.65,0l0.25,3.95l-0.5,0l-0.08,-1.73z"/><path id="svg_14" d="m229.54999,4.42667c-0.03,-0.55 -0.06,-1.21 -0.06,-1.71l-0.02,0c-0.13,0.46 -0.3,0.96 -0.5,1.5l-0.7,1.92l-0.39,0l-0.64,-1.88c-0.19,-0.56 -0.35,-1.07 -0.46,-1.54l-0.01,0c-0.01,0.49 -0.04,1.15 -0.08,1.75l-0.11,1.69l-0.49,0l0.28,-3.95l0.65,0l0.67,1.91c0.16,0.49 0.3,0.92 0.4,1.33l0.02,0c0.1,-0.4 0.24,-0.83 0.42,-1.33l0.7,-1.91l0.65,0l0.25,3.95l-0.5,0l-0.08,-1.73z"/><path id="svg_14" d="m229.54999,4.42667c-0.03,-0.55 -0.06,-1.21 -0.06,-1.71l-0.02,0c-0.13,0.46 -0.3,0.96 -0.5,1.5l-0.7,1.92l-0.39,0l-0.64,-1.88c-0.19,-0.56 -0.35,-1.07 -0.46,-1.54l-0.01,0c-0.01,0.49 -0.04,1.15 -0.08,1.75l-0.11,1.69l-0.49,0l0.28,-3.95l0.65,0l0.67,1.91c0.16,0.49 0.3,0.92 0.4,1.33l0.02,0c0.1,-0.4 0.24,-0.83 0.42,-1.33l0.7,-1.91l0.65,0l0.25,3.95l-0.5,0l-0.08,-1.73z"/></svg>