<svg xmlns="http://www.w3.org/2000/svg" viewBox="0 0 90 153" width="90" height="153" fill="#fff"><path d="M7.38013 66.81H47.9525V51.4659C48.1944 51.495 48.4405 51.5099 48.6902 51.5099C48.7848 51.5099 48.8789 51.5078 48.9725 51.5035V66.81H90.0001V67.83H48.4625H7.38013V66.81ZM48.9725 17.8563V0.51001H47.9525V17.8939C48.1944 17.8649 48.4405 17.8499 48.6902 17.8499C48.7848 17.8499 48.8789 17.8521 48.9725 17.8563Z" stroke="white" strokeWidth="1.02" x="43.0798" y="18.36" width="11.22" height="32.64" rx="5.61" fill="#3D4450" fillRule="evenodd" clipRule="evenodd"/><path d="M7.38013 66.81H47.9525V51.4659C48.1944 51.495 48.4405 51.5099 48.6902 51.5099C48.7848 51.5099 48.8789 51.5078 48.9725 51.5035V66.81H90.0001V67.83H48.4625H7.38013V66.81ZM48.9725 17.8563V0.51001H47.9525V17.8939C48.1944 17.8649 48.4405 17.8499 48.6902 17.8499C48.7848 17.8499 48.8789 17.8521 48.9725 17.8563Z" stroke="white" strokeWidth="1.02" x="43.0798" y="18.36" width="11.22" height="32.64" rx="5.61" fill="#3D4450" fillRule="evenodd" clipRule="evenodd"/><path d="M7.38013 66.81H47.9525V51.4659C48.1944 51.495 48.4405 51.5099 48.6902 51.5099C48.7848 51.5099 48.8789 51.5078 48.9725 51.5035V66.81H90.0001V67.83H48.4625H7.38013V66.81ZM48.9725 17.8563V0.51001H47.9525V17.8939C48.1944 17.8649 48.4405 17.8499 48.6902 17.8499C48.7848 17.8499 48.8789 17.8521 48.9725 17.8563Z" stroke="white" strokeWidth="1.02" x="43.0798" y="18.36" width="11.22" height="32.64" rx="5.61" fill="#3D4450" fillRule="evenodd" clipRule="evenodd"/><rect x="43.0798" y="18.36" width="11.22" height="32.64" rx="5.61" fill="#3D4450" stroke="white" strokeWidth="1.02" fillRule="evenodd" clipRule="evenodd" d="M7.38013 66.81H47.9525V51.4659C48.1944 51.495 48.4405 51.5099 48.6902 51.5099C48.7848 51.5099 48.8789 51.5078 48.9725 51.5035V66.81H90.0001V67.83H48.4625H7.38013V66.81ZM48.9725 17.8563V0.51001H47.9525V17.8939C48.1944 17.8649 48.4405 17.8499 48.6902 17.8499C48.7848 17.8499 48.8789 17.8521 48.9725 17.8563Z"/><path fillRule="evenodd" clipRule="evenodd" d="M7.38013 66.81H47.9525V51.4659C48.1944 51.495 48.4405 51.5099 48.6902 51.5099C48.7848 51.5099 48.8789 51.5078 48.9725 51.5035V66.81H90.0001V67.83H48.4625H7.38013V66.81ZM48.9725 17.8563V0.51001H47.9525V17.8939C48.1944 17.8649 48.4405 17.8499 48.6902 17.8499C48.7848 17.8499 48.8789 17.8521 48.9725 17.8563Z" fill="#3D4450"/></svg>