<svg xmlns="http://www.w3.org/2000/svg" viewBox="0 0 999 701" width="999" height="701" fill="#fff"><path d="M360.716 24.145C338.973 24.145 338.973 -0.0142184 288.238 4.81763C237.504 9.64949 150.941 50.9281 155.773 82.3351C155.773 82.3351 167.491 76.9571 181.141 70.0475C191.158 65.0226 201.371 60.4005 211.754 56.1919C214.632 55.0229 217.581 53.8636 220.593 52.7253C245.718 43.1341 274.782 35.0166 301.526 35.0166C334.315 35.0166 333.095 42.9195 360.716 43.6348V24.145Z" fill="currentColor"/><path fill="currentColor" d="M495.28 130.533C489.358 129.928 483.667 127.915 478.682 124.662C474.478 121.908 473.536 120.797 473.536 118.55C473.536 114.032 478.489 106.132 486.993 97.1206C491.825 91.9988 498.517 86.0073 499.242 86.1765C500.643 86.4905 511.95 97.5071 516.153 102.677C522.845 110.867 525.817 117.583 524.343 120.579C523.159 122.85 515.815 127.296 510.403 128.987C505.504 130.448 500.373 130.973 495.28 130.533ZM467.883 113.863C464.341 108.395 462.238 102.121 461.771 95.6227C461.505 92.5725 461.717 89.4996 462.399 86.5147C463.646 79.6306 466.802 73.2351 471.507 68.057C473.367 66.1001 473.536 66.0518 475.831 66.8249C479.717 68.5314 483.224 70.9953 486.147 74.0726L488.829 76.4886L487.38 78.3005C480.561 86.642 474.942 95.896 470.685 105.794C469.32 108.819 468.826 112.166 469.26 115.457C469.695 116.593 469.26 116.182 467.859 113.984L467.883 113.863ZM529.078 114.757C529.289 112.082 528.909 109.393 527.967 106.881C525.744 100.141 518.303 87.5535 511.563 79.0494L509.437 76.3678L511.853 74.2418C514.118 72.0632 516.585 70.1056 519.221 68.3953C520.869 67.3319 522.72 66.6242 524.657 66.3175C525.334 66.3175 527.701 68.7335 529.61 71.4877C532.679 75.8356 534.818 80.7705 535.891 85.9832C536.619 90.6471 536.66 95.3924 536.012 100.068C535.378 103.102 534.439 106.065 533.21 108.91C532.106 111.192 530.822 113.381 529.368 115.457C528.909 116.061 528.909 116.061 529.151 114.781L529.078 114.757ZM495.884 65.0371C492.504 63.359 488.935 62.0937 485.254 61.2683C484.085 61.1057 482.905 61.041 481.726 61.0749C479.504 61.1957 479.6 61.075 483.152 59.408C485.919 58.0831 488.84 57.1091 491.849 56.5089C496.649 55.7184 501.545 55.7184 506.345 56.5089C510.302 57.3395 514.113 58.7563 517.651 60.7126L518.424 61.1958H516.636C511.604 61.4109 506.687 62.7744 502.262 65.1821C500.57 66.0035 499.097 66.6558 499 66.6558C498.903 66.6558 497.502 65.9551 495.932 65.1579L495.884 65.0371Z" stroke="currentColor" strokeWidth="2" strokeMiterlimit="10" opacity="0.5" x="473.169" y="231.179" width="52" height="25" rx="37.405" cx="499.064" cy="93.3039" ry="37.385"/><path fill="currentColor" d="M495.28 130.533C489.358 129.928 483.667 127.915 478.682 124.662C474.478 121.908 473.536 120.797 473.536 118.55C473.536 114.032 478.489 106.132 486.993 97.1206C491.825 91.9988 498.517 86.0073 499.242 86.1765C500.643 86.4905 511.95 97.5071 516.153 102.677C522.845 110.867 525.817 117.583 524.343 120.579C523.159 122.85 515.815 127.296 510.403 128.987C505.504 130.448 500.373 130.973 495.28 130.533ZM467.883 113.863C464.341 108.395 462.238 102.121 461.771 95.6227C461.505 92.5725 461.717 89.4996 462.399 86.5147C463.646 79.6306 466.802 73.2351 471.507 68.057C473.367 66.1001 473.536 66.0518 475.831 66.8249C479.717 68.5314 483.224 70.9953 486.147 74.0726L488.829 76.4886L487.38 78.3005C480.561 86.642 474.942 95.896 470.685 105.794C469.32 108.819 468.826 112.166 469.26 115.457C469.695 116.593 469.26 116.182 467.859 113.984L467.883 113.863ZM529.078 114.757C529.289 112.082 528.909 109.393 527.967 106.881C525.744 100.141 518.303 87.5535 511.563 79.0494L509.437 76.3678L511.853 74.2418C514.118 72.0632 516.585 70.1056 519.221 68.3953C520.869 67.3319 522.72 66.6242 524.657 66.3175C525.334 66.3175 527.701 68.7335 529.61 71.4877C532.679 75.8356 534.818 80.7705 535.891 85.9832C536.619 90.6471 536.66 95.3924 536.012 100.068C535.378 103.102 534.439 106.065 533.21 108.91C532.106 111.192 530.822 113.381 529.368 115.457C528.909 116.061 528.909 116.061 529.151 114.781L529.078 114.757ZM495.884 65.0371C492.504 63.359 488.935 62.0937 485.254 61.2683C484.085 61.1057 482.905 61.041 481.726 61.0749C479.504 61.1957 479.6 61.075 483.152 59.408C485.919 58.0831 488.84 57.1091 491.849 56.5089C496.649 55.7184 501.545 55.7184 506.345 56.5089C510.302 57.3395 514.113 58.7563 517.651 60.7126L518.424 61.1958H516.636C511.604 61.4109 506.687 62.7744 502.262 65.1821C500.57 66.0035 499.097 66.6558 499 66.6558C498.903 66.6558 497.502 65.9551 495.932 65.1579L495.884 65.0371Z" stroke="currentColor" strokeWidth="2" strokeMiterlimit="10" opacity="0.5" x="473.169" y="231.179" width="52" height="25" rx="37.405" cx="499.064" cy="93.3039" ry="37.385"/><path stroke="currentColor" d="M495.28 130.533C489.358 129.928 483.667 127.915 478.682 124.662C474.478 121.908 473.536 120.797 473.536 118.55C473.536 114.032 478.489 106.132 486.993 97.1206C491.825 91.9988 498.517 86.0073 499.242 86.1765C500.643 86.4905 511.95 97.5071 516.153 102.677C522.845 110.867 525.817 117.583 524.343 120.579C523.159 122.85 515.815 127.296 510.403 128.987C505.504 130.448 500.373 130.973 495.28 130.533ZM467.883 113.863C464.341 108.395 462.238 102.121 461.771 95.6227C461.505 92.5725 461.717 89.4996 462.399 86.5147C463.646 79.6306 466.802 73.2351 471.507 68.057C473.367 66.1001 473.536 66.0518 475.831 66.8249C479.717 68.5314 483.224 70.9953 486.147 74.0726L488.829 76.4886L487.38 78.3005C480.561 86.642 474.942 95.896 470.685 105.794C469.32 108.819 468.826 112.166 469.26 115.457C469.695 116.593 469.26 116.182 467.859 113.984L467.883 113.863ZM529.078 114.757C529.289 112.082 528.909 109.393 527.967 106.881C525.744 100.141 518.303 87.5535 511.563 79.0494L509.437 76.3678L511.853 74.2418C514.118 72.0632 516.585 70.1056 519.221 68.3953C520.869 67.3319 522.72 66.6242 524.657 66.3175C525.334 66.3175 527.701 68.7335 529.61 71.4877C532.679 75.8356 534.818 80.7705 535.891 85.9832C536.619 90.6471 536.66 95.3924 536.012 100.068C535.378 103.102 534.439 106.065 533.21 108.91C532.106 111.192 530.822 113.381 529.368 115.457C528.909 116.061 528.909 116.061 529.151 114.781L529.078 114.757ZM495.884 65.0371C492.504 63.359 488.935 62.0937 485.254 61.2683C484.085 61.1057 482.905 61.041 481.726 61.0749C479.504 61.1957 479.6 61.075 483.152 59.408C485.919 58.0831 488.84 57.1091 491.849 56.5089C496.649 55.7184 501.545 55.7184 506.345 56.5089C510.302 57.3395 514.113 58.7563 517.651 60.7126L518.424 61.1958H516.636C511.604 61.4109 506.687 62.7744 502.262 65.1821C500.57 66.0035 499.097 66.6558 499 66.6558C498.903 66.6558 497.502 65.9551 495.932 65.1579L495.884 65.0371Z" strokeWidth="2" strokeMiterlimit="10" opacity="0.5" fill="currentColor" x="473.169" y="231.179" width="52" height="25" rx="37.405" cx="499.064" cy="93.3039" ry="37.385"/><path stroke="currentColor" d="M495.28 130.533C489.358 129.928 483.667 127.915 478.682 124.662C474.478 121.908 473.536 120.797 473.536 118.55C473.536 114.032 478.489 106.132 486.993 97.1206C491.825 91.9988 498.517 86.0073 499.242 86.1765C500.643 86.4905 511.95 97.5071 516.153 102.677C522.845 110.867 525.817 117.583 524.343 120.579C523.159 122.85 515.815 127.296 510.403 128.987C505.504 130.448 500.373 130.973 495.28 130.533ZM467.883 113.863C464.341 108.395 462.238 102.121 461.771 95.6227C461.505 92.5725 461.717 89.4996 462.399 86.5147C463.646 79.6306 466.802 73.2351 471.507 68.057C473.367 66.1001 473.536 66.0518 475.831 66.8249C479.717 68.5314 483.224 70.9953 486.147 74.0726L488.829 76.4886L487.38 78.3005C480.561 86.642 474.942 95.896 470.685 105.794C469.32 108.819 468.826 112.166 469.26 115.457C469.695 116.593 469.26 116.182 467.859 113.984L467.883 113.863ZM529.078 114.757C529.289 112.082 528.909 109.393 527.967 106.881C525.744 100.141 518.303 87.5535 511.563 79.0494L509.437 76.3678L511.853 74.2418C514.118 72.0632 516.585 70.1056 519.221 68.3953C520.869 67.3319 522.72 66.6242 524.657 66.3175C525.334 66.3175 527.701 68.7335 529.61 71.4877C532.679 75.8356 534.818 80.7705 535.891 85.9832C536.619 90.6471 536.66 95.3924 536.012 100.068C535.378 103.102 534.439 106.065 533.21 108.91C532.106 111.192 530.822 113.381 529.368 115.457C528.909 116.061 528.909 116.061 529.151 114.781L529.078 114.757ZM495.884 65.0371C492.504 63.359 488.935 62.0937 485.254 61.2683C484.085 61.1057 482.905 61.041 481.726 61.0749C479.504 61.1957 479.6 61.075 483.152 59.408C485.919 58.0831 488.84 57.1091 491.849 56.5089C496.649 55.7184 501.545 55.7184 506.345 56.5089C510.302 57.3395 514.113 58.7563 517.651 60.7126L518.424 61.1958H516.636C511.604 61.4109 506.687 62.7744 502.262 65.1821C500.57 66.0035 499.097 66.6558 499 66.6558C498.903 66.6558 497.502 65.9551 495.932 65.1579L495.884 65.0371Z" strokeWidth="2" strokeMiterlimit="10" opacity="0.5" fill="currentColor" x="473.169" y="231.179" width="52" height="25" rx="37.405" cx="499.064" cy="93.3039" ry="37.385"/><path stroke="currentColor" d="M495.28 130.533C489.358 129.928 483.667 127.915 478.682 124.662C474.478 121.908 473.536 120.797 473.536 118.55C473.536 114.032 478.489 106.132 486.993 97.1206C491.825 91.9988 498.517 86.0073 499.242 86.1765C500.643 86.4905 511.95 97.5071 516.153 102.677C522.845 110.867 525.817 117.583 524.343 120.579C523.159 122.85 515.815 127.296 510.403 128.987C505.504 130.448 500.373 130.973 495.28 130.533ZM467.883 113.863C464.341 108.395 462.238 102.121 461.771 95.6227C461.505 92.5725 461.717 89.4996 462.399 86.5147C463.646 79.6306 466.802 73.2351 471.507 68.057C473.367 66.1001 473.536 66.0518 475.831 66.8249C479.717 68.5314 483.224 70.9953 486.147 74.0726L488.829 76.4886L487.38 78.3005C480.561 86.642 474.942 95.896 470.685 105.794C469.32 108.819 468.826 112.166 469.26 115.457C469.695 116.593 469.26 116.182 467.859 113.984L467.883 113.863ZM529.078 114.757C529.289 112.082 528.909 109.393 527.967 106.881C525.744 100.141 518.303 87.5535 511.563 79.0494L509.437 76.3678L511.853 74.2418C514.118 72.0632 516.585 70.1056 519.221 68.3953C520.869 67.3319 522.72 66.6242 524.657 66.3175C525.334 66.3175 527.701 68.7335 529.61 71.4877C532.679 75.8356 534.818 80.7705 535.891 85.9832C536.619 90.6471 536.66 95.3924 536.012 100.068C535.378 103.102 534.439 106.065 533.21 108.91C532.106 111.192 530.822 113.381 529.368 115.457C528.909 116.061 528.909 116.061 529.151 114.781L529.078 114.757ZM495.884 65.0371C492.504 63.359 488.935 62.0937 485.254 61.2683C484.085 61.1057 482.905 61.041 481.726 61.0749C479.504 61.1957 479.6 61.075 483.152 59.408C485.919 58.0831 488.84 57.1091 491.849 56.5089C496.649 55.7184 501.545 55.7184 506.345 56.5089C510.302 57.3395 514.113 58.7563 517.651 60.7126L518.424 61.1958H516.636C511.604 61.4109 506.687 62.7744 502.262 65.1821C500.57 66.0035 499.097 66.6558 499 66.6558C498.903 66.6558 497.502 65.9551 495.932 65.1579L495.884 65.0371Z" strokeWidth="2" strokeMiterlimit="10" opacity="0.5" fill="currentColor" x="473.169" y="231.179" width="52" height="25" rx="37.405" cx="499.064" cy="93.3039" ry="37.385"/><path stroke="currentColor" d="M495.28 130.533C489.358 129.928 483.667 127.915 478.682 124.662C474.478 121.908 473.536 120.797 473.536 118.55C473.536 114.032 478.489 106.132 486.993 97.1206C491.825 91.9988 498.517 86.0073 499.242 86.1765C500.643 86.4905 511.95 97.5071 516.153 102.677C522.845 110.867 525.817 117.583 524.343 120.579C523.159 122.85 515.815 127.296 510.403 128.987C505.504 130.448 500.373 130.973 495.28 130.533ZM467.883 113.863C464.341 108.395 462.238 102.121 461.771 95.6227C461.505 92.5725 461.717 89.4996 462.399 86.5147C463.646 79.6306 466.802 73.2351 471.507 68.057C473.367 66.1001 473.536 66.0518 475.831 66.8249C479.717 68.5314 483.224 70.9953 486.147 74.0726L488.829 76.4886L487.38 78.3005C480.561 86.642 474.942 95.896 470.685 105.794C469.32 108.819 468.826 112.166 469.26 115.457C469.695 116.593 469.26 116.182 467.859 113.984L467.883 113.863ZM529.078 114.757C529.289 112.082 528.909 109.393 527.967 106.881C525.744 100.141 518.303 87.5535 511.563 79.0494L509.437 76.3678L511.853 74.2418C514.118 72.0632 516.585 70.1056 519.221 68.3953C520.869 67.3319 522.72 66.6242 524.657 66.3175C525.334 66.3175 527.701 68.7335 529.61 71.4877C532.679 75.8356 534.818 80.7705 535.891 85.9832C536.619 90.6471 536.66 95.3924 536.012 100.068C535.378 103.102 534.439 106.065 533.21 108.91C532.106 111.192 530.822 113.381 529.368 115.457C528.909 116.061 528.909 116.061 529.151 114.781L529.078 114.757ZM495.884 65.0371C492.504 63.359 488.935 62.0937 485.254 61.2683C484.085 61.1057 482.905 61.041 481.726 61.0749C479.504 61.1957 479.6 61.075 483.152 59.408C485.919 58.0831 488.84 57.1091 491.849 56.5089C496.649 55.7184 501.545 55.7184 506.345 56.5089C510.302 57.3395 514.113 58.7563 517.651 60.7126L518.424 61.1958H516.636C511.604 61.4109 506.687 62.7744 502.262 65.1821C500.57 66.0035 499.097 66.6558 499 66.6558C498.903 66.6558 497.502 65.9551 495.932 65.1579L495.884 65.0371Z" strokeWidth="2" strokeMiterlimit="10" opacity="0.5" fill="currentColor" x="473.169" y="231.179" width="52" height="25" rx="37.405" cx="499.064" cy="93.3039" ry="37.385"/><path stroke="currentColor" opacity="0.5" d="M495.28 130.533C489.358 129.928 483.667 127.915 478.682 124.662C474.478 121.908 473.536 120.797 473.536 118.55C473.536 114.032 478.489 106.132 486.993 97.1206C491.825 91.9988 498.517 86.0073 499.242 86.1765C500.643 86.4905 511.95 97.5071 516.153 102.677C522.845 110.867 525.817 117.583 524.343 120.579C523.159 122.85 515.815 127.296 510.403 128.987C505.504 130.448 500.373 130.973 495.28 130.533ZM467.883 113.863C464.341 108.395 462.238 102.121 461.771 95.6227C461.505 92.5725 461.717 89.4996 462.399 86.5147C463.646 79.6306 466.802 73.2351 471.507 68.057C473.367 66.1001 473.536 66.0518 475.831 66.8249C479.717 68.5314 483.224 70.9953 486.147 74.0726L488.829 76.4886L487.38 78.3005C480.561 86.642 474.942 95.896 470.685 105.794C469.32 108.819 468.826 112.166 469.26 115.457C469.695 116.593 469.26 116.182 467.859 113.984L467.883 113.863ZM529.078 114.757C529.289 112.082 528.909 109.393 527.967 106.881C525.744 100.141 518.303 87.5535 511.563 79.0494L509.437 76.3678L511.853 74.2418C514.118 72.0632 516.585 70.1056 519.221 68.3953C520.869 67.3319 522.72 66.6242 524.657 66.3175C525.334 66.3175 527.701 68.7335 529.61 71.4877C532.679 75.8356 534.818 80.7705 535.891 85.9832C536.619 90.6471 536.66 95.3924 536.012 100.068C535.378 103.102 534.439 106.065 533.21 108.91C532.106 111.192 530.822 113.381 529.368 115.457C528.909 116.061 528.909 116.061 529.151 114.781L529.078 114.757ZM495.884 65.0371C492.504 63.359 488.935 62.0937 485.254 61.2683C484.085 61.1057 482.905 61.041 481.726 61.0749C479.504 61.1957 479.6 61.075 483.152 59.408C485.919 58.0831 488.84 57.1091 491.849 56.5089C496.649 55.7184 501.545 55.7184 506.345 56.5089C510.302 57.3395 514.113 58.7563 517.651 60.7126L518.424 61.1958H516.636C511.604 61.4109 506.687 62.7744 502.262 65.1821C500.57 66.0035 499.097 66.6558 499 66.6558C498.903 66.6558 497.502 65.9551 495.932 65.1579L495.884 65.0371Z" strokeWidth="2" strokeMiterlimit="10" fill="currentColor" x="473.169" y="231.179" width="52" height="25" rx="37.405" cx="499.064" cy="93.3039" ry="37.385"/><path stroke="currentColor" d="M495.28 130.533C489.358 129.928 483.667 127.915 478.682 124.662C474.478 121.908 473.536 120.797 473.536 118.55C473.536 114.032 478.489 106.132 486.993 97.1206C491.825 91.9988 498.517 86.0073 499.242 86.1765C500.643 86.4905 511.95 97.5071 516.153 102.677C522.845 110.867 525.817 117.583 524.343 120.579C523.159 122.85 515.815 127.296 510.403 128.987C505.504 130.448 500.373 130.973 495.28 130.533ZM467.883 113.863C464.341 108.395 462.238 102.121 461.771 95.6227C461.505 92.5725 461.717 89.4996 462.399 86.5147C463.646 79.6306 466.802 73.2351 471.507 68.057C473.367 66.1001 473.536 66.0518 475.831 66.8249C479.717 68.5314 483.224 70.9953 486.147 74.0726L488.829 76.4886L487.38 78.3005C480.561 86.642 474.942 95.896 470.685 105.794C469.32 108.819 468.826 112.166 469.26 115.457C469.695 116.593 469.26 116.182 467.859 113.984L467.883 113.863ZM529.078 114.757C529.289 112.082 528.909 109.393 527.967 106.881C525.744 100.141 518.303 87.5535 511.563 79.0494L509.437 76.3678L511.853 74.2418C514.118 72.0632 516.585 70.1056 519.221 68.3953C520.869 67.3319 522.72 66.6242 524.657 66.3175C525.334 66.3175 527.701 68.7335 529.61 71.4877C532.679 75.8356 534.818 80.7705 535.891 85.9832C536.619 90.6471 536.66 95.3924 536.012 100.068C535.378 103.102 534.439 106.065 533.21 108.91C532.106 111.192 530.822 113.381 529.368 115.457C528.909 116.061 528.909 116.061 529.151 114.781L529.078 114.757ZM495.884 65.0371C492.504 63.359 488.935 62.0937 485.254 61.2683C484.085 61.1057 482.905 61.041 481.726 61.0749C479.504 61.1957 479.6 61.075 483.152 59.408C485.919 58.0831 488.84 57.1091 491.849 56.5089C496.649 55.7184 501.545 55.7184 506.345 56.5089C510.302 57.3395 514.113 58.7563 517.651 60.7126L518.424 61.1958H516.636C511.604 61.4109 506.687 62.7744 502.262 65.1821C500.57 66.0035 499.097 66.6558 499 66.6558C498.903 66.6558 497.502 65.9551 495.932 65.1579L495.884 65.0371Z" strokeWidth="2" strokeMiterlimit="10" opacity="0.5" fill="currentColor" x="473.169" y="231.179" width="52" height="25" rx="37.405" cx="499.064" cy="93.3039" ry="37.385"/><path stroke="currentColor" d="M495.28 130.533C489.358 129.928 483.667 127.915 478.682 124.662C474.478 121.908 473.536 120.797 473.536 118.55C473.536 114.032 478.489 106.132 486.993 97.1206C491.825 91.9988 498.517 86.0073 499.242 86.1765C500.643 86.4905 511.95 97.5071 516.153 102.677C522.845 110.867 525.817 117.583 524.343 120.579C523.159 122.85 515.815 127.296 510.403 128.987C505.504 130.448 500.373 130.973 495.28 130.533ZM467.883 113.863C464.341 108.395 462.238 102.121 461.771 95.6227C461.505 92.5725 461.717 89.4996 462.399 86.5147C463.646 79.6306 466.802 73.2351 471.507 68.057C473.367 66.1001 473.536 66.0518 475.831 66.8249C479.717 68.5314 483.224 70.9953 486.147 74.0726L488.829 76.4886L487.38 78.3005C480.561 86.642 474.942 95.896 470.685 105.794C469.32 108.819 468.826 112.166 469.26 115.457C469.695 116.593 469.26 116.182 467.859 113.984L467.883 113.863ZM529.078 114.757C529.289 112.082 528.909 109.393 527.967 106.881C525.744 100.141 518.303 87.5535 511.563 79.0494L509.437 76.3678L511.853 74.2418C514.118 72.0632 516.585 70.1056 519.221 68.3953C520.869 67.3319 522.72 66.6242 524.657 66.3175C525.334 66.3175 527.701 68.7335 529.61 71.4877C532.679 75.8356 534.818 80.7705 535.891 85.9832C536.619 90.6471 536.66 95.3924 536.012 100.068C535.378 103.102 534.439 106.065 533.21 108.91C532.106 111.192 530.822 113.381 529.368 115.457C528.909 116.061 528.909 116.061 529.151 114.781L529.078 114.757ZM495.884 65.0371C492.504 63.359 488.935 62.0937 485.254 61.2683C484.085 61.1057 482.905 61.041 481.726 61.0749C479.504 61.1957 479.6 61.075 483.152 59.408C485.919 58.0831 488.84 57.1091 491.849 56.5089C496.649 55.7184 501.545 55.7184 506.345 56.5089C510.302 57.3395 514.113 58.7563 517.651 60.7126L518.424 61.1958H516.636C511.604 61.4109 506.687 62.7744 502.262 65.1821C500.57 66.0035 499.097 66.6558 499 66.6558C498.903 66.6558 497.502 65.9551 495.932 65.1579L495.884 65.0371Z" strokeWidth="2" strokeMiterlimit="10" opacity="0.5" fill="currentColor" x="473.169" y="231.179" width="52" height="25" rx="37.405" cx="499.064" cy="93.3039" ry="37.385"/><path stroke="currentColor" opacity="0.5" d="M495.28 130.533C489.358 129.928 483.667 127.915 478.682 124.662C474.478 121.908 473.536 120.797 473.536 118.55C473.536 114.032 478.489 106.132 486.993 97.1206C491.825 91.9988 498.517 86.0073 499.242 86.1765C500.643 86.4905 511.95 97.5071 516.153 102.677C522.845 110.867 525.817 117.583 524.343 120.579C523.159 122.85 515.815 127.296 510.403 128.987C505.504 130.448 500.373 130.973 495.28 130.533ZM467.883 113.863C464.341 108.395 462.238 102.121 461.771 95.6227C461.505 92.5725 461.717 89.4996 462.399 86.5147C463.646 79.6306 466.802 73.2351 471.507 68.057C473.367 66.1001 473.536 66.0518 475.831 66.8249C479.717 68.5314 483.224 70.9953 486.147 74.0726L488.829 76.4886L487.38 78.3005C480.561 86.642 474.942 95.896 470.685 105.794C469.32 108.819 468.826 112.166 469.26 115.457C469.695 116.593 469.26 116.182 467.859 113.984L467.883 113.863ZM529.078 114.757C529.289 112.082 528.909 109.393 527.967 106.881C525.744 100.141 518.303 87.5535 511.563 79.0494L509.437 76.3678L511.853 74.2418C514.118 72.0632 516.585 70.1056 519.221 68.3953C520.869 67.3319 522.72 66.6242 524.657 66.3175C525.334 66.3175 527.701 68.7335 529.61 71.4877C532.679 75.8356 534.818 80.7705 535.891 85.9832C536.619 90.6471 536.66 95.3924 536.012 100.068C535.378 103.102 534.439 106.065 533.21 108.91C532.106 111.192 530.822 113.381 529.368 115.457C528.909 116.061 528.909 116.061 529.151 114.781L529.078 114.757ZM495.884 65.0371C492.504 63.359 488.935 62.0937 485.254 61.2683C484.085 61.1057 482.905 61.041 481.726 61.0749C479.504 61.1957 479.6 61.075 483.152 59.408C485.919 58.0831 488.84 57.1091 491.849 56.5089C496.649 55.7184 501.545 55.7184 506.345 56.5089C510.302 57.3395 514.113 58.7563 517.651 60.7126L518.424 61.1958H516.636C511.604 61.4109 506.687 62.7744 502.262 65.1821C500.57 66.0035 499.097 66.6558 499 66.6558C498.903 66.6558 497.502 65.9551 495.932 65.1579L495.884 65.0371Z" strokeWidth="2" strokeMiterlimit="10" fill="currentColor" x="473.169" y="231.179" width="52" height="25" rx="37.405" cx="499.064" cy="93.3039" ry="37.385"/><path stroke="currentColor" opacity="0.5" d="M495.28 130.533C489.358 129.928 483.667 127.915 478.682 124.662C474.478 121.908 473.536 120.797 473.536 118.55C473.536 114.032 478.489 106.132 486.993 97.1206C491.825 91.9988 498.517 86.0073 499.242 86.1765C500.643 86.4905 511.95 97.5071 516.153 102.677C522.845 110.867 525.817 117.583 524.343 120.579C523.159 122.85 515.815 127.296 510.403 128.987C505.504 130.448 500.373 130.973 495.28 130.533ZM467.883 113.863C464.341 108.395 462.238 102.121 461.771 95.6227C461.505 92.5725 461.717 89.4996 462.399 86.5147C463.646 79.6306 466.802 73.2351 471.507 68.057C473.367 66.1001 473.536 66.0518 475.831 66.8249C479.717 68.5314 483.224 70.9953 486.147 74.0726L488.829 76.4886L487.38 78.3005C480.561 86.642 474.942 95.896 470.685 105.794C469.32 108.819 468.826 112.166 469.26 115.457C469.695 116.593 469.26 116.182 467.859 113.984L467.883 113.863ZM529.078 114.757C529.289 112.082 528.909 109.393 527.967 106.881C525.744 100.141 518.303 87.5535 511.563 79.0494L509.437 76.3678L511.853 74.2418C514.118 72.0632 516.585 70.1056 519.221 68.3953C520.869 67.3319 522.72 66.6242 524.657 66.3175C525.334 66.3175 527.701 68.7335 529.61 71.4877C532.679 75.8356 534.818 80.7705 535.891 85.9832C536.619 90.6471 536.66 95.3924 536.012 100.068C535.378 103.102 534.439 106.065 533.21 108.91C532.106 111.192 530.822 113.381 529.368 115.457C528.909 116.061 528.909 116.061 529.151 114.781L529.078 114.757ZM495.884 65.0371C492.504 63.359 488.935 62.0937 485.254 61.2683C484.085 61.1057 482.905 61.041 481.726 61.0749C479.504 61.1957 479.6 61.075 483.152 59.408C485.919 58.0831 488.84 57.1091 491.849 56.5089C496.649 55.7184 501.545 55.7184 506.345 56.5089C510.302 57.3395 514.113 58.7563 517.651 60.7126L518.424 61.1958H516.636C511.604 61.4109 506.687 62.7744 502.262 65.1821C500.57 66.0035 499.097 66.6558 499 66.6558C498.903 66.6558 497.502 65.9551 495.932 65.1579L495.884 65.0371Z" strokeWidth="2" strokeMiterlimit="10" fill="currentColor" x="473.169" y="231.179" width="52" height="25" rx="37.405" cx="499.064" cy="93.3039" ry="37.385"/><path stroke="currentColor" d="M495.28 130.533C489.358 129.928 483.667 127.915 478.682 124.662C474.478 121.908 473.536 120.797 473.536 118.55C473.536 114.032 478.489 106.132 486.993 97.1206C491.825 91.9988 498.517 86.0073 499.242 86.1765C500.643 86.4905 511.95 97.5071 516.153 102.677C522.845 110.867 525.817 117.583 524.343 120.579C523.159 122.85 515.815 127.296 510.403 128.987C505.504 130.448 500.373 130.973 495.28 130.533ZM467.883 113.863C464.341 108.395 462.238 102.121 461.771 95.6227C461.505 92.5725 461.717 89.4996 462.399 86.5147C463.646 79.6306 466.802 73.2351 471.507 68.057C473.367 66.1001 473.536 66.0518 475.831 66.8249C479.717 68.5314 483.224 70.9953 486.147 74.0726L488.829 76.4886L487.38 78.3005C480.561 86.642 474.942 95.896 470.685 105.794C469.32 108.819 468.826 112.166 469.26 115.457C469.695 116.593 469.26 116.182 467.859 113.984L467.883 113.863ZM529.078 114.757C529.289 112.082 528.909 109.393 527.967 106.881C525.744 100.141 518.303 87.5535 511.563 79.0494L509.437 76.3678L511.853 74.2418C514.118 72.0632 516.585 70.1056 519.221 68.3953C520.869 67.3319 522.72 66.6242 524.657 66.3175C525.334 66.3175 527.701 68.7335 529.61 71.4877C532.679 75.8356 534.818 80.7705 535.891 85.9832C536.619 90.6471 536.66 95.3924 536.012 100.068C535.378 103.102 534.439 106.065 533.21 108.91C532.106 111.192 530.822 113.381 529.368 115.457C528.909 116.061 528.909 116.061 529.151 114.781L529.078 114.757ZM495.884 65.0371C492.504 63.359 488.935 62.0937 485.254 61.2683C484.085 61.1057 482.905 61.041 481.726 61.0749C479.504 61.1957 479.6 61.075 483.152 59.408C485.919 58.0831 488.84 57.1091 491.849 56.5089C496.649 55.7184 501.545 55.7184 506.345 56.5089C510.302 57.3395 514.113 58.7563 517.651 60.7126L518.424 61.1958H516.636C511.604 61.4109 506.687 62.7744 502.262 65.1821C500.57 66.0035 499.097 66.6558 499 66.6558C498.903 66.6558 497.502 65.9551 495.932 65.1579L495.884 65.0371Z" strokeWidth="2" strokeMiterlimit="10" fill="currentColor" x="473.169" y="231.179" width="52" height="25" rx="37.405" cx="499.064" cy="93.3039" ry="37.385"/><path stroke="currentColor" d="M495.28 130.533C489.358 129.928 483.667 127.915 478.682 124.662C474.478 121.908 473.536 120.797 473.536 118.55C473.536 114.032 478.489 106.132 486.993 97.1206C491.825 91.9988 498.517 86.0073 499.242 86.1765C500.643 86.4905 511.95 97.5071 516.153 102.677C522.845 110.867 525.817 117.583 524.343 120.579C523.159 122.85 515.815 127.296 510.403 128.987C505.504 130.448 500.373 130.973 495.28 130.533ZM467.883 113.863C464.341 108.395 462.238 102.121 461.771 95.6227C461.505 92.5725 461.717 89.4996 462.399 86.5147C463.646 79.6306 466.802 73.2351 471.507 68.057C473.367 66.1001 473.536 66.0518 475.831 66.8249C479.717 68.5314 483.224 70.9953 486.147 74.0726L488.829 76.4886L487.38 78.3005C480.561 86.642 474.942 95.896 470.685 105.794C469.32 108.819 468.826 112.166 469.26 115.457C469.695 116.593 469.26 116.182 467.859 113.984L467.883 113.863ZM529.078 114.757C529.289 112.082 528.909 109.393 527.967 106.881C525.744 100.141 518.303 87.5535 511.563 79.0494L509.437 76.3678L511.853 74.2418C514.118 72.0632 516.585 70.1056 519.221 68.3953C520.869 67.3319 522.72 66.6242 524.657 66.3175C525.334 66.3175 527.701 68.7335 529.61 71.4877C532.679 75.8356 534.818 80.7705 535.891 85.9832C536.619 90.6471 536.66 95.3924 536.012 100.068C535.378 103.102 534.439 106.065 533.21 108.91C532.106 111.192 530.822 113.381 529.368 115.457C528.909 116.061 528.909 116.061 529.151 114.781L529.078 114.757ZM495.884 65.0371C492.504 63.359 488.935 62.0937 485.254 61.2683C484.085 61.1057 482.905 61.041 481.726 61.0749C479.504 61.1957 479.6 61.075 483.152 59.408C485.919 58.0831 488.84 57.1091 491.849 56.5089C496.649 55.7184 501.545 55.7184 506.345 56.5089C510.302 57.3395 514.113 58.7563 517.651 60.7126L518.424 61.1958H516.636C511.604 61.4109 506.687 62.7744 502.262 65.1821C500.57 66.0035 499.097 66.6558 499 66.6558C498.903 66.6558 497.502 65.9551 495.932 65.1579L495.884 65.0371Z" strokeWidth="2" strokeMiterlimit="10" fill="currentColor" x="473.169" y="231.179" width="52" height="25" rx="37.405" cx="499.064" cy="93.3039" ry="37.385"/><path stroke="currentColor" d="M495.28 130.533C489.358 129.928 483.667 127.915 478.682 124.662C474.478 121.908 473.536 120.797 473.536 118.55C473.536 114.032 478.489 106.132 486.993 97.1206C491.825 91.9988 498.517 86.0073 499.242 86.1765C500.643 86.4905 511.95 97.5071 516.153 102.677C522.845 110.867 525.817 117.583 524.343 120.579C523.159 122.85 515.815 127.296 510.403 128.987C505.504 130.448 500.373 130.973 495.28 130.533ZM467.883 113.863C464.341 108.395 462.238 102.121 461.771 95.6227C461.505 92.5725 461.717 89.4996 462.399 86.5147C463.646 79.6306 466.802 73.2351 471.507 68.057C473.367 66.1001 473.536 66.0518 475.831 66.8249C479.717 68.5314 483.224 70.9953 486.147 74.0726L488.829 76.4886L487.38 78.3005C480.561 86.642 474.942 95.896 470.685 105.794C469.32 108.819 468.826 112.166 469.26 115.457C469.695 116.593 469.26 116.182 467.859 113.984L467.883 113.863ZM529.078 114.757C529.289 112.082 528.909 109.393 527.967 106.881C525.744 100.141 518.303 87.5535 511.563 79.0494L509.437 76.3678L511.853 74.2418C514.118 72.0632 516.585 70.1056 519.221 68.3953C520.869 67.3319 522.72 66.6242 524.657 66.3175C525.334 66.3175 527.701 68.7335 529.61 71.4877C532.679 75.8356 534.818 80.7705 535.891 85.9832C536.619 90.6471 536.66 95.3924 536.012 100.068C535.378 103.102 534.439 106.065 533.21 108.91C532.106 111.192 530.822 113.381 529.368 115.457C528.909 116.061 528.909 116.061 529.151 114.781L529.078 114.757ZM495.884 65.0371C492.504 63.359 488.935 62.0937 485.254 61.2683C484.085 61.1057 482.905 61.041 481.726 61.0749C479.504 61.1957 479.6 61.075 483.152 59.408C485.919 58.0831 488.84 57.1091 491.849 56.5089C496.649 55.7184 501.545 55.7184 506.345 56.5089C510.302 57.3395 514.113 58.7563 517.651 60.7126L518.424 61.1958H516.636C511.604 61.4109 506.687 62.7744 502.262 65.1821C500.57 66.0035 499.097 66.6558 499 66.6558C498.903 66.6558 497.502 65.9551 495.932 65.1579L495.884 65.0371Z" strokeWidth="2" strokeMiterlimit="10" fill="currentColor" x="473.169" y="231.179" width="52" height="25" rx="37.405" cx="499.064" cy="93.3039" ry="37.385"/><path stroke="currentColor" d="M495.28 130.533C489.358 129.928 483.667 127.915 478.682 124.662C474.478 121.908 473.536 120.797 473.536 118.55C473.536 114.032 478.489 106.132 486.993 97.1206C491.825 91.9988 498.517 86.0073 499.242 86.1765C500.643 86.4905 511.95 97.5071 516.153 102.677C522.845 110.867 525.817 117.583 524.343 120.579C523.159 122.85 515.815 127.296 510.403 128.987C505.504 130.448 500.373 130.973 495.28 130.533ZM467.883 113.863C464.341 108.395 462.238 102.121 461.771 95.6227C461.505 92.5725 461.717 89.4996 462.399 86.5147C463.646 79.6306 466.802 73.2351 471.507 68.057C473.367 66.1001 473.536 66.0518 475.831 66.8249C479.717 68.5314 483.224 70.9953 486.147 74.0726L488.829 76.4886L487.38 78.3005C480.561 86.642 474.942 95.896 470.685 105.794C469.32 108.819 468.826 112.166 469.26 115.457C469.695 116.593 469.26 116.182 467.859 113.984L467.883 113.863ZM529.078 114.757C529.289 112.082 528.909 109.393 527.967 106.881C525.744 100.141 518.303 87.5535 511.563 79.0494L509.437 76.3678L511.853 74.2418C514.118 72.0632 516.585 70.1056 519.221 68.3953C520.869 67.3319 522.72 66.6242 524.657 66.3175C525.334 66.3175 527.701 68.7335 529.61 71.4877C532.679 75.8356 534.818 80.7705 535.891 85.9832C536.619 90.6471 536.66 95.3924 536.012 100.068C535.378 103.102 534.439 106.065 533.21 108.91C532.106 111.192 530.822 113.381 529.368 115.457C528.909 116.061 528.909 116.061 529.151 114.781L529.078 114.757ZM495.884 65.0371C492.504 63.359 488.935 62.0937 485.254 61.2683C484.085 61.1057 482.905 61.041 481.726 61.0749C479.504 61.1957 479.6 61.075 483.152 59.408C485.919 58.0831 488.84 57.1091 491.849 56.5089C496.649 55.7184 501.545 55.7184 506.345 56.5089C510.302 57.3395 514.113 58.7563 517.651 60.7126L518.424 61.1958H516.636C511.604 61.4109 506.687 62.7744 502.262 65.1821C500.57 66.0035 499.097 66.6558 499 66.6558C498.903 66.6558 497.502 65.9551 495.932 65.1579L495.884 65.0371Z" strokeWidth="2" strokeMiterlimit="10" fill="currentColor" x="473.169" y="231.179" width="52" height="25" rx="37.405" cx="499.064" cy="93.3039" ry="37.385"/><path fill="currentColor" d="M495.28 130.533C489.358 129.928 483.667 127.915 478.682 124.662C474.478 121.908 473.536 120.797 473.536 118.55C473.536 114.032 478.489 106.132 486.993 97.1206C491.825 91.9988 498.517 86.0073 499.242 86.1765C500.643 86.4905 511.95 97.5071 516.153 102.677C522.845 110.867 525.817 117.583 524.343 120.579C523.159 122.85 515.815 127.296 510.403 128.987C505.504 130.448 500.373 130.973 495.28 130.533ZM467.883 113.863C464.341 108.395 462.238 102.121 461.771 95.6227C461.505 92.5725 461.717 89.4996 462.399 86.5147C463.646 79.6306 466.802 73.2351 471.507 68.057C473.367 66.1001 473.536 66.0518 475.831 66.8249C479.717 68.5314 483.224 70.9953 486.147 74.0726L488.829 76.4886L487.38 78.3005C480.561 86.642 474.942 95.896 470.685 105.794C469.32 108.819 468.826 112.166 469.26 115.457C469.695 116.593 469.26 116.182 467.859 113.984L467.883 113.863ZM529.078 114.757C529.289 112.082 528.909 109.393 527.967 106.881C525.744 100.141 518.303 87.5535 511.563 79.0494L509.437 76.3678L511.853 74.2418C514.118 72.0632 516.585 70.1056 519.221 68.3953C520.869 67.3319 522.72 66.6242 524.657 66.3175C525.334 66.3175 527.701 68.7335 529.61 71.4877C532.679 75.8356 534.818 80.7705 535.891 85.9832C536.619 90.6471 536.66 95.3924 536.012 100.068C535.378 103.102 534.439 106.065 533.21 108.91C532.106 111.192 530.822 113.381 529.368 115.457C528.909 116.061 528.909 116.061 529.151 114.781L529.078 114.757ZM495.884 65.0371C492.504 63.359 488.935 62.0937 485.254 61.2683C484.085 61.1057 482.905 61.041 481.726 61.0749C479.504 61.1957 479.6 61.075 483.152 59.408C485.919 58.0831 488.84 57.1091 491.849 56.5089C496.649 55.7184 501.545 55.7184 506.345 56.5089C510.302 57.3395 514.113 58.7563 517.651 60.7126L518.424 61.1958H516.636C511.604 61.4109 506.687 62.7744 502.262 65.1821C500.57 66.0035 499.097 66.6558 499 66.6558C498.903 66.6558 497.502 65.9551 495.932 65.1579L495.884 65.0371Z" stroke="currentColor" strokeWidth="2" strokeMiterlimit="10" x="473.169" y="231.179" width="52" height="25" rx="37.405" cx="499.064" cy="93.3039" ry="37.385"/><path fill="currentColor" d="M495.28 130.533C489.358 129.928 483.667 127.915 478.682 124.662C474.478 121.908 473.536 120.797 473.536 118.55C473.536 114.032 478.489 106.132 486.993 97.1206C491.825 91.9988 498.517 86.0073 499.242 86.1765C500.643 86.4905 511.95 97.5071 516.153 102.677C522.845 110.867 525.817 117.583 524.343 120.579C523.159 122.85 515.815 127.296 510.403 128.987C505.504 130.448 500.373 130.973 495.28 130.533ZM467.883 113.863C464.341 108.395 462.238 102.121 461.771 95.6227C461.505 92.5725 461.717 89.4996 462.399 86.5147C463.646 79.6306 466.802 73.2351 471.507 68.057C473.367 66.1001 473.536 66.0518 475.831 66.8249C479.717 68.5314 483.224 70.9953 486.147 74.0726L488.829 76.4886L487.38 78.3005C480.561 86.642 474.942 95.896 470.685 105.794C469.32 108.819 468.826 112.166 469.26 115.457C469.695 116.593 469.26 116.182 467.859 113.984L467.883 113.863ZM529.078 114.757C529.289 112.082 528.909 109.393 527.967 106.881C525.744 100.141 518.303 87.5535 511.563 79.0494L509.437 76.3678L511.853 74.2418C514.118 72.0632 516.585 70.1056 519.221 68.3953C520.869 67.3319 522.72 66.6242 524.657 66.3175C525.334 66.3175 527.701 68.7335 529.61 71.4877C532.679 75.8356 534.818 80.7705 535.891 85.9832C536.619 90.6471 536.66 95.3924 536.012 100.068C535.378 103.102 534.439 106.065 533.21 108.91C532.106 111.192 530.822 113.381 529.368 115.457C528.909 116.061 528.909 116.061 529.151 114.781L529.078 114.757ZM495.884 65.0371C492.504 63.359 488.935 62.0937 485.254 61.2683C484.085 61.1057 482.905 61.041 481.726 61.0749C479.504 61.1957 479.6 61.075 483.152 59.408C485.919 58.0831 488.84 57.1091 491.849 56.5089C496.649 55.7184 501.545 55.7184 506.345 56.5089C510.302 57.3395 514.113 58.7563 517.651 60.7126L518.424 61.1958H516.636C511.604 61.4109 506.687 62.7744 502.262 65.1821C500.57 66.0035 499.097 66.6558 499 66.6558C498.903 66.6558 497.502 65.9551 495.932 65.1579L495.884 65.0371Z" stroke="currentColor" strokeWidth="2" strokeMiterlimit="10" x="473.169" y="231.179" width="52" height="25" rx="37.405" cx="499.064" cy="93.3039" ry="37.385"/><path fill="currentColor" d="M495.28 130.533C489.358 129.928 483.667 127.915 478.682 124.662C474.478 121.908 473.536 120.797 473.536 118.55C473.536 114.032 478.489 106.132 486.993 97.1206C491.825 91.9988 498.517 86.0073 499.242 86.1765C500.643 86.4905 511.95 97.5071 516.153 102.677C522.845 110.867 525.817 117.583 524.343 120.579C523.159 122.85 515.815 127.296 510.403 128.987C505.504 130.448 500.373 130.973 495.28 130.533ZM467.883 113.863C464.341 108.395 462.238 102.121 461.771 95.6227C461.505 92.5725 461.717 89.4996 462.399 86.5147C463.646 79.6306 466.802 73.2351 471.507 68.057C473.367 66.1001 473.536 66.0518 475.831 66.8249C479.717 68.5314 483.224 70.9953 486.147 74.0726L488.829 76.4886L487.38 78.3005C480.561 86.642 474.942 95.896 470.685 105.794C469.32 108.819 468.826 112.166 469.26 115.457C469.695 116.593 469.26 116.182 467.859 113.984L467.883 113.863ZM529.078 114.757C529.289 112.082 528.909 109.393 527.967 106.881C525.744 100.141 518.303 87.5535 511.563 79.0494L509.437 76.3678L511.853 74.2418C514.118 72.0632 516.585 70.1056 519.221 68.3953C520.869 67.3319 522.72 66.6242 524.657 66.3175C525.334 66.3175 527.701 68.7335 529.61 71.4877C532.679 75.8356 534.818 80.7705 535.891 85.9832C536.619 90.6471 536.66 95.3924 536.012 100.068C535.378 103.102 534.439 106.065 533.21 108.91C532.106 111.192 530.822 113.381 529.368 115.457C528.909 116.061 528.909 116.061 529.151 114.781L529.078 114.757ZM495.884 65.0371C492.504 63.359 488.935 62.0937 485.254 61.2683C484.085 61.1057 482.905 61.041 481.726 61.0749C479.504 61.1957 479.6 61.075 483.152 59.408C485.919 58.0831 488.84 57.1091 491.849 56.5089C496.649 55.7184 501.545 55.7184 506.345 56.5089C510.302 57.3395 514.113 58.7563 517.651 60.7126L518.424 61.1958H516.636C511.604 61.4109 506.687 62.7744 502.262 65.1821C500.57 66.0035 499.097 66.6558 499 66.6558C498.903 66.6558 497.502 65.9551 495.932 65.1579L495.884 65.0371Z" stroke="currentColor" strokeWidth="2" strokeMiterlimit="10" x="473.169" y="231.179" width="52" height="25" rx="37.405" cx="499.064" cy="93.3039" ry="37.385"/><path fill="currentColor" d="M495.28 130.533C489.358 129.928 483.667 127.915 478.682 124.662C474.478 121.908 473.536 120.797 473.536 118.55C473.536 114.032 478.489 106.132 486.993 97.1206C491.825 91.9988 498.517 86.0073 499.242 86.1765C500.643 86.4905 511.95 97.5071 516.153 102.677C522.845 110.867 525.817 117.583 524.343 120.579C523.159 122.85 515.815 127.296 510.403 128.987C505.504 130.448 500.373 130.973 495.28 130.533ZM467.883 113.863C464.341 108.395 462.238 102.121 461.771 95.6227C461.505 92.5725 461.717 89.4996 462.399 86.5147C463.646 79.6306 466.802 73.2351 471.507 68.057C473.367 66.1001 473.536 66.0518 475.831 66.8249C479.717 68.5314 483.224 70.9953 486.147 74.0726L488.829 76.4886L487.38 78.3005C480.561 86.642 474.942 95.896 470.685 105.794C469.32 108.819 468.826 112.166 469.26 115.457C469.695 116.593 469.26 116.182 467.859 113.984L467.883 113.863ZM529.078 114.757C529.289 112.082 528.909 109.393 527.967 106.881C525.744 100.141 518.303 87.5535 511.563 79.0494L509.437 76.3678L511.853 74.2418C514.118 72.0632 516.585 70.1056 519.221 68.3953C520.869 67.3319 522.72 66.6242 524.657 66.3175C525.334 66.3175 527.701 68.7335 529.61 71.4877C532.679 75.8356 534.818 80.7705 535.891 85.9832C536.619 90.6471 536.66 95.3924 536.012 100.068C535.378 103.102 534.439 106.065 533.21 108.91C532.106 111.192 530.822 113.381 529.368 115.457C528.909 116.061 528.909 116.061 529.151 114.781L529.078 114.757ZM495.884 65.0371C492.504 63.359 488.935 62.0937 485.254 61.2683C484.085 61.1057 482.905 61.041 481.726 61.0749C479.504 61.1957 479.6 61.075 483.152 59.408C485.919 58.0831 488.84 57.1091 491.849 56.5089C496.649 55.7184 501.545 55.7184 506.345 56.5089C510.302 57.3395 514.113 58.7563 517.651 60.7126L518.424 61.1958H516.636C511.604 61.4109 506.687 62.7744 502.262 65.1821C500.57 66.0035 499.097 66.6558 499 66.6558C498.903 66.6558 497.502 65.9551 495.932 65.1579L495.884 65.0371Z" stroke="currentColor" strokeWidth="2" strokeMiterlimit="10" x="473.169" y="231.179" width="52" height="25" rx="37.405" cx="499.064" cy="93.3039" ry="37.385"/><path stroke="currentColor" d="M495.28 130.533C489.358 129.928 483.667 127.915 478.682 124.662C474.478 121.908 473.536 120.797 473.536 118.55C473.536 114.032 478.489 106.132 486.993 97.1206C491.825 91.9988 498.517 86.0073 499.242 86.1765C500.643 86.4905 511.95 97.5071 516.153 102.677C522.845 110.867 525.817 117.583 524.343 120.579C523.159 122.85 515.815 127.296 510.403 128.987C505.504 130.448 500.373 130.973 495.28 130.533ZM467.883 113.863C464.341 108.395 462.238 102.121 461.771 95.6227C461.505 92.5725 461.717 89.4996 462.399 86.5147C463.646 79.6306 466.802 73.2351 471.507 68.057C473.367 66.1001 473.536 66.0518 475.831 66.8249C479.717 68.5314 483.224 70.9953 486.147 74.0726L488.829 76.4886L487.38 78.3005C480.561 86.642 474.942 95.896 470.685 105.794C469.32 108.819 468.826 112.166 469.26 115.457C469.695 116.593 469.26 116.182 467.859 113.984L467.883 113.863ZM529.078 114.757C529.289 112.082 528.909 109.393 527.967 106.881C525.744 100.141 518.303 87.5535 511.563 79.0494L509.437 76.3678L511.853 74.2418C514.118 72.0632 516.585 70.1056 519.221 68.3953C520.869 67.3319 522.72 66.6242 524.657 66.3175C525.334 66.3175 527.701 68.7335 529.61 71.4877C532.679 75.8356 534.818 80.7705 535.891 85.9832C536.619 90.6471 536.66 95.3924 536.012 100.068C535.378 103.102 534.439 106.065 533.21 108.91C532.106 111.192 530.822 113.381 529.368 115.457C528.909 116.061 528.909 116.061 529.151 114.781L529.078 114.757ZM495.884 65.0371C492.504 63.359 488.935 62.0937 485.254 61.2683C484.085 61.1057 482.905 61.041 481.726 61.0749C479.504 61.1957 479.6 61.075 483.152 59.408C485.919 58.0831 488.84 57.1091 491.849 56.5089C496.649 55.7184 501.545 55.7184 506.345 56.5089C510.302 57.3395 514.113 58.7563 517.651 60.7126L518.424 61.1958H516.636C511.604 61.4109 506.687 62.7744 502.262 65.1821C500.57 66.0035 499.097 66.6558 499 66.6558C498.903 66.6558 497.502 65.9551 495.932 65.1579L495.884 65.0371Z" strokeWidth="2" strokeMiterlimit="10" x="473.169" y="231.179" width="52" height="25" rx="37.405" fill="currentColor" cx="499.064" cy="93.3039" ry="37.385"/><path stroke="currentColor" d="M495.28 130.533C489.358 129.928 483.667 127.915 478.682 124.662C474.478 121.908 473.536 120.797 473.536 118.55C473.536 114.032 478.489 106.132 486.993 97.1206C491.825 91.9988 498.517 86.0073 499.242 86.1765C500.643 86.4905 511.95 97.5071 516.153 102.677C522.845 110.867 525.817 117.583 524.343 120.579C523.159 122.85 515.815 127.296 510.403 128.987C505.504 130.448 500.373 130.973 495.28 130.533ZM467.883 113.863C464.341 108.395 462.238 102.121 461.771 95.6227C461.505 92.5725 461.717 89.4996 462.399 86.5147C463.646 79.6306 466.802 73.2351 471.507 68.057C473.367 66.1001 473.536 66.0518 475.831 66.8249C479.717 68.5314 483.224 70.9953 486.147 74.0726L488.829 76.4886L487.38 78.3005C480.561 86.642 474.942 95.896 470.685 105.794C469.32 108.819 468.826 112.166 469.26 115.457C469.695 116.593 469.26 116.182 467.859 113.984L467.883 113.863ZM529.078 114.757C529.289 112.082 528.909 109.393 527.967 106.881C525.744 100.141 518.303 87.5535 511.563 79.0494L509.437 76.3678L511.853 74.2418C514.118 72.0632 516.585 70.1056 519.221 68.3953C520.869 67.3319 522.72 66.6242 524.657 66.3175C525.334 66.3175 527.701 68.7335 529.61 71.4877C532.679 75.8356 534.818 80.7705 535.891 85.9832C536.619 90.6471 536.66 95.3924 536.012 100.068C535.378 103.102 534.439 106.065 533.21 108.91C532.106 111.192 530.822 113.381 529.368 115.457C528.909 116.061 528.909 116.061 529.151 114.781L529.078 114.757ZM495.884 65.0371C492.504 63.359 488.935 62.0937 485.254 61.2683C484.085 61.1057 482.905 61.041 481.726 61.0749C479.504 61.1957 479.6 61.075 483.152 59.408C485.919 58.0831 488.84 57.1091 491.849 56.5089C496.649 55.7184 501.545 55.7184 506.345 56.5089C510.302 57.3395 514.113 58.7563 517.651 60.7126L518.424 61.1958H516.636C511.604 61.4109 506.687 62.7744 502.262 65.1821C500.57 66.0035 499.097 66.6558 499 66.6558C498.903 66.6558 497.502 65.9551 495.932 65.1579L495.884 65.0371Z" strokeWidth="2" strokeMiterlimit="10" x="473.169" y="231.179" width="52" height="25" rx="37.405" fill="currentColor" cx="499.064" cy="93.3039" ry="37.385"/><path stroke="currentColor" d="M495.28 130.533C489.358 129.928 483.667 127.915 478.682 124.662C474.478 121.908 473.536 120.797 473.536 118.55C473.536 114.032 478.489 106.132 486.993 97.1206C491.825 91.9988 498.517 86.0073 499.242 86.1765C500.643 86.4905 511.95 97.5071 516.153 102.677C522.845 110.867 525.817 117.583 524.343 120.579C523.159 122.85 515.815 127.296 510.403 128.987C505.504 130.448 500.373 130.973 495.28 130.533ZM467.883 113.863C464.341 108.395 462.238 102.121 461.771 95.6227C461.505 92.5725 461.717 89.4996 462.399 86.5147C463.646 79.6306 466.802 73.2351 471.507 68.057C473.367 66.1001 473.536 66.0518 475.831 66.8249C479.717 68.5314 483.224 70.9953 486.147 74.0726L488.829 76.4886L487.38 78.3005C480.561 86.642 474.942 95.896 470.685 105.794C469.32 108.819 468.826 112.166 469.26 115.457C469.695 116.593 469.26 116.182 467.859 113.984L467.883 113.863ZM529.078 114.757C529.289 112.082 528.909 109.393 527.967 106.881C525.744 100.141 518.303 87.5535 511.563 79.0494L509.437 76.3678L511.853 74.2418C514.118 72.0632 516.585 70.1056 519.221 68.3953C520.869 67.3319 522.72 66.6242 524.657 66.3175C525.334 66.3175 527.701 68.7335 529.61 71.4877C532.679 75.8356 534.818 80.7705 535.891 85.9832C536.619 90.6471 536.66 95.3924 536.012 100.068C535.378 103.102 534.439 106.065 533.21 108.91C532.106 111.192 530.822 113.381 529.368 115.457C528.909 116.061 528.909 116.061 529.151 114.781L529.078 114.757ZM495.884 65.0371C492.504 63.359 488.935 62.0937 485.254 61.2683C484.085 61.1057 482.905 61.041 481.726 61.0749C479.504 61.1957 479.6 61.075 483.152 59.408C485.919 58.0831 488.84 57.1091 491.849 56.5089C496.649 55.7184 501.545 55.7184 506.345 56.5089C510.302 57.3395 514.113 58.7563 517.651 60.7126L518.424 61.1958H516.636C511.604 61.4109 506.687 62.7744 502.262 65.1821C500.57 66.0035 499.097 66.6558 499 66.6558C498.903 66.6558 497.502 65.9551 495.932 65.1579L495.884 65.0371Z" strokeWidth="2" strokeMiterlimit="10" x="473.169" y="231.179" width="52" height="25" rx="37.405" fill="currentColor" cx="499.064" cy="93.3039" ry="37.385"/><path stroke="currentColor" d="M495.28 130.533C489.358 129.928 483.667 127.915 478.682 124.662C474.478 121.908 473.536 120.797 473.536 118.55C473.536 114.032 478.489 106.132 486.993 97.1206C491.825 91.9988 498.517 86.0073 499.242 86.1765C500.643 86.4905 511.95 97.5071 516.153 102.677C522.845 110.867 525.817 117.583 524.343 120.579C523.159 122.85 515.815 127.296 510.403 128.987C505.504 130.448 500.373 130.973 495.28 130.533ZM467.883 113.863C464.341 108.395 462.238 102.121 461.771 95.6227C461.505 92.5725 461.717 89.4996 462.399 86.5147C463.646 79.6306 466.802 73.2351 471.507 68.057C473.367 66.1001 473.536 66.0518 475.831 66.8249C479.717 68.5314 483.224 70.9953 486.147 74.0726L488.829 76.4886L487.38 78.3005C480.561 86.642 474.942 95.896 470.685 105.794C469.32 108.819 468.826 112.166 469.26 115.457C469.695 116.593 469.26 116.182 467.859 113.984L467.883 113.863ZM529.078 114.757C529.289 112.082 528.909 109.393 527.967 106.881C525.744 100.141 518.303 87.5535 511.563 79.0494L509.437 76.3678L511.853 74.2418C514.118 72.0632 516.585 70.1056 519.221 68.3953C520.869 67.3319 522.72 66.6242 524.657 66.3175C525.334 66.3175 527.701 68.7335 529.61 71.4877C532.679 75.8356 534.818 80.7705 535.891 85.9832C536.619 90.6471 536.66 95.3924 536.012 100.068C535.378 103.102 534.439 106.065 533.21 108.91C532.106 111.192 530.822 113.381 529.368 115.457C528.909 116.061 528.909 116.061 529.151 114.781L529.078 114.757ZM495.884 65.0371C492.504 63.359 488.935 62.0937 485.254 61.2683C484.085 61.1057 482.905 61.041 481.726 61.0749C479.504 61.1957 479.6 61.075 483.152 59.408C485.919 58.0831 488.84 57.1091 491.849 56.5089C496.649 55.7184 501.545 55.7184 506.345 56.5089C510.302 57.3395 514.113 58.7563 517.651 60.7126L518.424 61.1958H516.636C511.604 61.4109 506.687 62.7744 502.262 65.1821C500.57 66.0035 499.097 66.6558 499 66.6558C498.903 66.6558 497.502 65.9551 495.932 65.1579L495.884 65.0371Z" strokeWidth="2" strokeMiterlimit="10" x="473.169" y="231.179" width="52" height="25" rx="37.405" fill="currentColor" cx="499.064" cy="93.3039" ry="37.385"/><path stroke="currentColor" d="M495.28 130.533C489.358 129.928 483.667 127.915 478.682 124.662C474.478 121.908 473.536 120.797 473.536 118.55C473.536 114.032 478.489 106.132 486.993 97.1206C491.825 91.9988 498.517 86.0073 499.242 86.1765C500.643 86.4905 511.95 97.5071 516.153 102.677C522.845 110.867 525.817 117.583 524.343 120.579C523.159 122.85 515.815 127.296 510.403 128.987C505.504 130.448 500.373 130.973 495.28 130.533ZM467.883 113.863C464.341 108.395 462.238 102.121 461.771 95.6227C461.505 92.5725 461.717 89.4996 462.399 86.5147C463.646 79.6306 466.802 73.2351 471.507 68.057C473.367 66.1001 473.536 66.0518 475.831 66.8249C479.717 68.5314 483.224 70.9953 486.147 74.0726L488.829 76.4886L487.38 78.3005C480.561 86.642 474.942 95.896 470.685 105.794C469.32 108.819 468.826 112.166 469.26 115.457C469.695 116.593 469.26 116.182 467.859 113.984L467.883 113.863ZM529.078 114.757C529.289 112.082 528.909 109.393 527.967 106.881C525.744 100.141 518.303 87.5535 511.563 79.0494L509.437 76.3678L511.853 74.2418C514.118 72.0632 516.585 70.1056 519.221 68.3953C520.869 67.3319 522.72 66.6242 524.657 66.3175C525.334 66.3175 527.701 68.7335 529.61 71.4877C532.679 75.8356 534.818 80.7705 535.891 85.9832C536.619 90.6471 536.66 95.3924 536.012 100.068C535.378 103.102 534.439 106.065 533.21 108.91C532.106 111.192 530.822 113.381 529.368 115.457C528.909 116.061 528.909 116.061 529.151 114.781L529.078 114.757ZM495.884 65.0371C492.504 63.359 488.935 62.0937 485.254 61.2683C484.085 61.1057 482.905 61.041 481.726 61.0749C479.504 61.1957 479.6 61.075 483.152 59.408C485.919 58.0831 488.84 57.1091 491.849 56.5089C496.649 55.7184 501.545 55.7184 506.345 56.5089C510.302 57.3395 514.113 58.7563 517.651 60.7126L518.424 61.1958H516.636C511.604 61.4109 506.687 62.7744 502.262 65.1821C500.57 66.0035 499.097 66.6558 499 66.6558C498.903 66.6558 497.502 65.9551 495.932 65.1579L495.884 65.0371Z" strokeWidth="2" strokeMiterlimit="10" x="473.169" y="231.179" width="52" height="25" rx="37.405" fill="currentColor" cx="499.064" cy="93.3039" ry="37.385"/><path stroke="currentColor" d="M495.28 130.533C489.358 129.928 483.667 127.915 478.682 124.662C474.478 121.908 473.536 120.797 473.536 118.55C473.536 114.032 478.489 106.132 486.993 97.1206C491.825 91.9988 498.517 86.0073 499.242 86.1765C500.643 86.4905 511.95 97.5071 516.153 102.677C522.845 110.867 525.817 117.583 524.343 120.579C523.159 122.85 515.815 127.296 510.403 128.987C505.504 130.448 500.373 130.973 495.28 130.533ZM467.883 113.863C464.341 108.395 462.238 102.121 461.771 95.6227C461.505 92.5725 461.717 89.4996 462.399 86.5147C463.646 79.6306 466.802 73.2351 471.507 68.057C473.367 66.1001 473.536 66.0518 475.831 66.8249C479.717 68.5314 483.224 70.9953 486.147 74.0726L488.829 76.4886L487.38 78.3005C480.561 86.642 474.942 95.896 470.685 105.794C469.32 108.819 468.826 112.166 469.26 115.457C469.695 116.593 469.26 116.182 467.859 113.984L467.883 113.863ZM529.078 114.757C529.289 112.082 528.909 109.393 527.967 106.881C525.744 100.141 518.303 87.5535 511.563 79.0494L509.437 76.3678L511.853 74.2418C514.118 72.0632 516.585 70.1056 519.221 68.3953C520.869 67.3319 522.72 66.6242 524.657 66.3175C525.334 66.3175 527.701 68.7335 529.61 71.4877C532.679 75.8356 534.818 80.7705 535.891 85.9832C536.619 90.6471 536.66 95.3924 536.012 100.068C535.378 103.102 534.439 106.065 533.21 108.91C532.106 111.192 530.822 113.381 529.368 115.457C528.909 116.061 528.909 116.061 529.151 114.781L529.078 114.757ZM495.884 65.0371C492.504 63.359 488.935 62.0937 485.254 61.2683C484.085 61.1057 482.905 61.041 481.726 61.0749C479.504 61.1957 479.6 61.075 483.152 59.408C485.919 58.0831 488.84 57.1091 491.849 56.5089C496.649 55.7184 501.545 55.7184 506.345 56.5089C510.302 57.3395 514.113 58.7563 517.651 60.7126L518.424 61.1958H516.636C511.604 61.4109 506.687 62.7744 502.262 65.1821C500.57 66.0035 499.097 66.6558 499 66.6558C498.903 66.6558 497.502 65.9551 495.932 65.1579L495.884 65.0371Z" strokeWidth="2" strokeMiterlimit="10" x="473.169" y="231.179" width="52" height="25" rx="37.405" fill="currentColor" cx="499.064" cy="93.3039" ry="37.385"/><path stroke="currentColor" d="M495.28 130.533C489.358 129.928 483.667 127.915 478.682 124.662C474.478 121.908 473.536 120.797 473.536 118.55C473.536 114.032 478.489 106.132 486.993 97.1206C491.825 91.9988 498.517 86.0073 499.242 86.1765C500.643 86.4905 511.95 97.5071 516.153 102.677C522.845 110.867 525.817 117.583 524.343 120.579C523.159 122.85 515.815 127.296 510.403 128.987C505.504 130.448 500.373 130.973 495.28 130.533ZM467.883 113.863C464.341 108.395 462.238 102.121 461.771 95.6227C461.505 92.5725 461.717 89.4996 462.399 86.5147C463.646 79.6306 466.802 73.2351 471.507 68.057C473.367 66.1001 473.536 66.0518 475.831 66.8249C479.717 68.5314 483.224 70.9953 486.147 74.0726L488.829 76.4886L487.38 78.3005C480.561 86.642 474.942 95.896 470.685 105.794C469.32 108.819 468.826 112.166 469.26 115.457C469.695 116.593 469.26 116.182 467.859 113.984L467.883 113.863ZM529.078 114.757C529.289 112.082 528.909 109.393 527.967 106.881C525.744 100.141 518.303 87.5535 511.563 79.0494L509.437 76.3678L511.853 74.2418C514.118 72.0632 516.585 70.1056 519.221 68.3953C520.869 67.3319 522.72 66.6242 524.657 66.3175C525.334 66.3175 527.701 68.7335 529.61 71.4877C532.679 75.8356 534.818 80.7705 535.891 85.9832C536.619 90.6471 536.66 95.3924 536.012 100.068C535.378 103.102 534.439 106.065 533.21 108.91C532.106 111.192 530.822 113.381 529.368 115.457C528.909 116.061 528.909 116.061 529.151 114.781L529.078 114.757ZM495.884 65.0371C492.504 63.359 488.935 62.0937 485.254 61.2683C484.085 61.1057 482.905 61.041 481.726 61.0749C479.504 61.1957 479.6 61.075 483.152 59.408C485.919 58.0831 488.84 57.1091 491.849 56.5089C496.649 55.7184 501.545 55.7184 506.345 56.5089C510.302 57.3395 514.113 58.7563 517.651 60.7126L518.424 61.1958H516.636C511.604 61.4109 506.687 62.7744 502.262 65.1821C500.57 66.0035 499.097 66.6558 499 66.6558C498.903 66.6558 497.502 65.9551 495.932 65.1579L495.884 65.0371Z" strokeWidth="2" strokeMiterlimit="10" x="473.169" y="231.179" width="52" height="25" rx="37.405" fill="currentColor" cx="499.064" cy="93.3039" ry="37.385"/><path stroke="currentColor" d="M495.28 130.533C489.358 129.928 483.667 127.915 478.682 124.662C474.478 121.908 473.536 120.797 473.536 118.55C473.536 114.032 478.489 106.132 486.993 97.1206C491.825 91.9988 498.517 86.0073 499.242 86.1765C500.643 86.4905 511.95 97.5071 516.153 102.677C522.845 110.867 525.817 117.583 524.343 120.579C523.159 122.85 515.815 127.296 510.403 128.987C505.504 130.448 500.373 130.973 495.28 130.533ZM467.883 113.863C464.341 108.395 462.238 102.121 461.771 95.6227C461.505 92.5725 461.717 89.4996 462.399 86.5147C463.646 79.6306 466.802 73.2351 471.507 68.057C473.367 66.1001 473.536 66.0518 475.831 66.8249C479.717 68.5314 483.224 70.9953 486.147 74.0726L488.829 76.4886L487.38 78.3005C480.561 86.642 474.942 95.896 470.685 105.794C469.32 108.819 468.826 112.166 469.26 115.457C469.695 116.593 469.26 116.182 467.859 113.984L467.883 113.863ZM529.078 114.757C529.289 112.082 528.909 109.393 527.967 106.881C525.744 100.141 518.303 87.5535 511.563 79.0494L509.437 76.3678L511.853 74.2418C514.118 72.0632 516.585 70.1056 519.221 68.3953C520.869 67.3319 522.72 66.6242 524.657 66.3175C525.334 66.3175 527.701 68.7335 529.61 71.4877C532.679 75.8356 534.818 80.7705 535.891 85.9832C536.619 90.6471 536.66 95.3924 536.012 100.068C535.378 103.102 534.439 106.065 533.21 108.91C532.106 111.192 530.822 113.381 529.368 115.457C528.909 116.061 528.909 116.061 529.151 114.781L529.078 114.757ZM495.884 65.0371C492.504 63.359 488.935 62.0937 485.254 61.2683C484.085 61.1057 482.905 61.041 481.726 61.0749C479.504 61.1957 479.6 61.075 483.152 59.408C485.919 58.0831 488.84 57.1091 491.849 56.5089C496.649 55.7184 501.545 55.7184 506.345 56.5089C510.302 57.3395 514.113 58.7563 517.651 60.7126L518.424 61.1958H516.636C511.604 61.4109 506.687 62.7744 502.262 65.1821C500.57 66.0035 499.097 66.6558 499 66.6558C498.903 66.6558 497.502 65.9551 495.932 65.1579L495.884 65.0371Z" strokeWidth="2" strokeMiterlimit="10" x="473.169" y="231.179" width="52" height="25" rx="37.405" fill="currentColor" cx="499.064" cy="93.3039" ry="37.385"/><path stroke="currentColor" d="M495.28 130.533C489.358 129.928 483.667 127.915 478.682 124.662C474.478 121.908 473.536 120.797 473.536 118.55C473.536 114.032 478.489 106.132 486.993 97.1206C491.825 91.9988 498.517 86.0073 499.242 86.1765C500.643 86.4905 511.95 97.5071 516.153 102.677C522.845 110.867 525.817 117.583 524.343 120.579C523.159 122.85 515.815 127.296 510.403 128.987C505.504 130.448 500.373 130.973 495.28 130.533ZM467.883 113.863C464.341 108.395 462.238 102.121 461.771 95.6227C461.505 92.5725 461.717 89.4996 462.399 86.5147C463.646 79.6306 466.802 73.2351 471.507 68.057C473.367 66.1001 473.536 66.0518 475.831 66.8249C479.717 68.5314 483.224 70.9953 486.147 74.0726L488.829 76.4886L487.38 78.3005C480.561 86.642 474.942 95.896 470.685 105.794C469.32 108.819 468.826 112.166 469.26 115.457C469.695 116.593 469.26 116.182 467.859 113.984L467.883 113.863ZM529.078 114.757C529.289 112.082 528.909 109.393 527.967 106.881C525.744 100.141 518.303 87.5535 511.563 79.0494L509.437 76.3678L511.853 74.2418C514.118 72.0632 516.585 70.1056 519.221 68.3953C520.869 67.3319 522.72 66.6242 524.657 66.3175C525.334 66.3175 527.701 68.7335 529.61 71.4877C532.679 75.8356 534.818 80.7705 535.891 85.9832C536.619 90.6471 536.66 95.3924 536.012 100.068C535.378 103.102 534.439 106.065 533.21 108.91C532.106 111.192 530.822 113.381 529.368 115.457C528.909 116.061 528.909 116.061 529.151 114.781L529.078 114.757ZM495.884 65.0371C492.504 63.359 488.935 62.0937 485.254 61.2683C484.085 61.1057 482.905 61.041 481.726 61.0749C479.504 61.1957 479.6 61.075 483.152 59.408C485.919 58.0831 488.84 57.1091 491.849 56.5089C496.649 55.7184 501.545 55.7184 506.345 56.5089C510.302 57.3395 514.113 58.7563 517.651 60.7126L518.424 61.1958H516.636C511.604 61.4109 506.687 62.7744 502.262 65.1821C500.57 66.0035 499.097 66.6558 499 66.6558C498.903 66.6558 497.502 65.9551 495.932 65.1579L495.884 65.0371Z" strokeWidth="2" strokeMiterlimit="10" x="473.169" y="231.179" width="52" height="25" rx="37.405" fill="currentColor" cx="499.064" cy="93.3039" ry="37.385"/><path stroke="currentColor" d="M495.28 130.533C489.358 129.928 483.667 127.915 478.682 124.662C474.478 121.908 473.536 120.797 473.536 118.55C473.536 114.032 478.489 106.132 486.993 97.1206C491.825 91.9988 498.517 86.0073 499.242 86.1765C500.643 86.4905 511.95 97.5071 516.153 102.677C522.845 110.867 525.817 117.583 524.343 120.579C523.159 122.85 515.815 127.296 510.403 128.987C505.504 130.448 500.373 130.973 495.28 130.533ZM467.883 113.863C464.341 108.395 462.238 102.121 461.771 95.6227C461.505 92.5725 461.717 89.4996 462.399 86.5147C463.646 79.6306 466.802 73.2351 471.507 68.057C473.367 66.1001 473.536 66.0518 475.831 66.8249C479.717 68.5314 483.224 70.9953 486.147 74.0726L488.829 76.4886L487.38 78.3005C480.561 86.642 474.942 95.896 470.685 105.794C469.32 108.819 468.826 112.166 469.26 115.457C469.695 116.593 469.26 116.182 467.859 113.984L467.883 113.863ZM529.078 114.757C529.289 112.082 528.909 109.393 527.967 106.881C525.744 100.141 518.303 87.5535 511.563 79.0494L509.437 76.3678L511.853 74.2418C514.118 72.0632 516.585 70.1056 519.221 68.3953C520.869 67.3319 522.72 66.6242 524.657 66.3175C525.334 66.3175 527.701 68.7335 529.61 71.4877C532.679 75.8356 534.818 80.7705 535.891 85.9832C536.619 90.6471 536.66 95.3924 536.012 100.068C535.378 103.102 534.439 106.065 533.21 108.91C532.106 111.192 530.822 113.381 529.368 115.457C528.909 116.061 528.909 116.061 529.151 114.781L529.078 114.757ZM495.884 65.0371C492.504 63.359 488.935 62.0937 485.254 61.2683C484.085 61.1057 482.905 61.041 481.726 61.0749C479.504 61.1957 479.6 61.075 483.152 59.408C485.919 58.0831 488.84 57.1091 491.849 56.5089C496.649 55.7184 501.545 55.7184 506.345 56.5089C510.302 57.3395 514.113 58.7563 517.651 60.7126L518.424 61.1958H516.636C511.604 61.4109 506.687 62.7744 502.262 65.1821C500.57 66.0035 499.097 66.6558 499 66.6558C498.903 66.6558 497.502 65.9551 495.932 65.1579L495.884 65.0371Z" strokeWidth="2" strokeMiterlimit="10" x="473.169" y="231.179" width="52" height="25" rx="37.405" fill="currentColor" cx="499.064" cy="93.3039" ry="37.385"/><rect stroke="currentColor" x="473.169" y="231.179" width="52" height="25" strokeWidth="2" d="M495.28 130.533C489.358 129.928 483.667 127.915 478.682 124.662C474.478 121.908 473.536 120.797 473.536 118.55C473.536 114.032 478.489 106.132 486.993 97.1206C491.825 91.9988 498.517 86.0073 499.242 86.1765C500.643 86.4905 511.95 97.5071 516.153 102.677C522.845 110.867 525.817 117.583 524.343 120.579C523.159 122.85 515.815 127.296 510.403 128.987C505.504 130.448 500.373 130.973 495.28 130.533ZM467.883 113.863C464.341 108.395 462.238 102.121 461.771 95.6227C461.505 92.5725 461.717 89.4996 462.399 86.5147C463.646 79.6306 466.802 73.2351 471.507 68.057C473.367 66.1001 473.536 66.0518 475.831 66.8249C479.717 68.5314 483.224 70.9953 486.147 74.0726L488.829 76.4886L487.38 78.3005C480.561 86.642 474.942 95.896 470.685 105.794C469.32 108.819 468.826 112.166 469.26 115.457C469.695 116.593 469.26 116.182 467.859 113.984L467.883 113.863ZM529.078 114.757C529.289 112.082 528.909 109.393 527.967 106.881C525.744 100.141 518.303 87.5535 511.563 79.0494L509.437 76.3678L511.853 74.2418C514.118 72.0632 516.585 70.1056 519.221 68.3953C520.869 67.3319 522.72 66.6242 524.657 66.3175C525.334 66.3175 527.701 68.7335 529.61 71.4877C532.679 75.8356 534.818 80.7705 535.891 85.9832C536.619 90.6471 536.66 95.3924 536.012 100.068C535.378 103.102 534.439 106.065 533.21 108.91C532.106 111.192 530.822 113.381 529.368 115.457C528.909 116.061 528.909 116.061 529.151 114.781L529.078 114.757ZM495.884 65.0371C492.504 63.359 488.935 62.0937 485.254 61.2683C484.085 61.1057 482.905 61.041 481.726 61.0749C479.504 61.1957 479.6 61.075 483.152 59.408C485.919 58.0831 488.84 57.1091 491.849 56.5089C496.649 55.7184 501.545 55.7184 506.345 56.5089C510.302 57.3395 514.113 58.7563 517.651 60.7126L518.424 61.1958H516.636C511.604 61.4109 506.687 62.7744 502.262 65.1821C500.57 66.0035 499.097 66.6558 499 66.6558C498.903 66.6558 497.502 65.9551 495.932 65.1579L495.884 65.0371Z" rx="37.405" strokeMiterlimit="10" fill="currentColor" cx="499.064" cy="93.3039" ry="37.385"/><path stroke="currentColor" d="M495.28 130.533C489.358 129.928 483.667 127.915 478.682 124.662C474.478 121.908 473.536 120.797 473.536 118.55C473.536 114.032 478.489 106.132 486.993 97.1206C491.825 91.9988 498.517 86.0073 499.242 86.1765C500.643 86.4905 511.95 97.5071 516.153 102.677C522.845 110.867 525.817 117.583 524.343 120.579C523.159 122.85 515.815 127.296 510.403 128.987C505.504 130.448 500.373 130.973 495.28 130.533ZM467.883 113.863C464.341 108.395 462.238 102.121 461.771 95.6227C461.505 92.5725 461.717 89.4996 462.399 86.5147C463.646 79.6306 466.802 73.2351 471.507 68.057C473.367 66.1001 473.536 66.0518 475.831 66.8249C479.717 68.5314 483.224 70.9953 486.147 74.0726L488.829 76.4886L487.38 78.3005C480.561 86.642 474.942 95.896 470.685 105.794C469.32 108.819 468.826 112.166 469.26 115.457C469.695 116.593 469.26 116.182 467.859 113.984L467.883 113.863ZM529.078 114.757C529.289 112.082 528.909 109.393 527.967 106.881C525.744 100.141 518.303 87.5535 511.563 79.0494L509.437 76.3678L511.853 74.2418C514.118 72.0632 516.585 70.1056 519.221 68.3953C520.869 67.3319 522.72 66.6242 524.657 66.3175C525.334 66.3175 527.701 68.7335 529.61 71.4877C532.679 75.8356 534.818 80.7705 535.891 85.9832C536.619 90.6471 536.66 95.3924 536.012 100.068C535.378 103.102 534.439 106.065 533.21 108.91C532.106 111.192 530.822 113.381 529.368 115.457C528.909 116.061 528.909 116.061 529.151 114.781L529.078 114.757ZM495.884 65.0371C492.504 63.359 488.935 62.0937 485.254 61.2683C484.085 61.1057 482.905 61.041 481.726 61.0749C479.504 61.1957 479.6 61.075 483.152 59.408C485.919 58.0831 488.84 57.1091 491.849 56.5089C496.649 55.7184 501.545 55.7184 506.345 56.5089C510.302 57.3395 514.113 58.7563 517.651 60.7126L518.424 61.1958H516.636C511.604 61.4109 506.687 62.7744 502.262 65.1821C500.57 66.0035 499.097 66.6558 499 66.6558C498.903 66.6558 497.502 65.9551 495.932 65.1579L495.884 65.0371Z" strokeWidth="2" x="473.169" y="231.179" width="52" height="25" rx="37.405" strokeMiterlimit="10" fill="currentColor" cx="499.064" cy="93.3039" ry="37.385"/><rect stroke="currentColor" x="473.169" y="231.179" width="52" height="25" rx="37.405" strokeWidth="2" strokeMiterlimit="10" d="M495.28 130.533C489.358 129.928 483.667 127.915 478.682 124.662C474.478 121.908 473.536 120.797 473.536 118.55C473.536 114.032 478.489 106.132 486.993 97.1206C491.825 91.9988 498.517 86.0073 499.242 86.1765C500.643 86.4905 511.95 97.5071 516.153 102.677C522.845 110.867 525.817 117.583 524.343 120.579C523.159 122.85 515.815 127.296 510.403 128.987C505.504 130.448 500.373 130.973 495.28 130.533ZM467.883 113.863C464.341 108.395 462.238 102.121 461.771 95.6227C461.505 92.5725 461.717 89.4996 462.399 86.5147C463.646 79.6306 466.802 73.2351 471.507 68.057C473.367 66.1001 473.536 66.0518 475.831 66.8249C479.717 68.5314 483.224 70.9953 486.147 74.0726L488.829 76.4886L487.38 78.3005C480.561 86.642 474.942 95.896 470.685 105.794C469.32 108.819 468.826 112.166 469.26 115.457C469.695 116.593 469.26 116.182 467.859 113.984L467.883 113.863ZM529.078 114.757C529.289 112.082 528.909 109.393 527.967 106.881C525.744 100.141 518.303 87.5535 511.563 79.0494L509.437 76.3678L511.853 74.2418C514.118 72.0632 516.585 70.1056 519.221 68.3953C520.869 67.3319 522.72 66.6242 524.657 66.3175C525.334 66.3175 527.701 68.7335 529.61 71.4877C532.679 75.8356 534.818 80.7705 535.891 85.9832C536.619 90.6471 536.66 95.3924 536.012 100.068C535.378 103.102 534.439 106.065 533.21 108.91C532.106 111.192 530.822 113.381 529.368 115.457C528.909 116.061 528.909 116.061 529.151 114.781L529.078 114.757ZM495.884 65.0371C492.504 63.359 488.935 62.0937 485.254 61.2683C484.085 61.1057 482.905 61.041 481.726 61.0749C479.504 61.1957 479.6 61.075 483.152 59.408C485.919 58.0831 488.84 57.1091 491.849 56.5089C496.649 55.7184 501.545 55.7184 506.345 56.5089C510.302 57.3395 514.113 58.7563 517.651 60.7126L518.424 61.1958H516.636C511.604 61.4109 506.687 62.7744 502.262 65.1821C500.57 66.0035 499.097 66.6558 499 66.6558C498.903 66.6558 497.502 65.9551 495.932 65.1579L495.884 65.0371Z" fill="currentColor" cx="499.064" cy="93.3039" ry="37.385"/><path stroke="currentColor" d="M495.28 130.533C489.358 129.928 483.667 127.915 478.682 124.662C474.478 121.908 473.536 120.797 473.536 118.55C473.536 114.032 478.489 106.132 486.993 97.1206C491.825 91.9988 498.517 86.0073 499.242 86.1765C500.643 86.4905 511.95 97.5071 516.153 102.677C522.845 110.867 525.817 117.583 524.343 120.579C523.159 122.85 515.815 127.296 510.403 128.987C505.504 130.448 500.373 130.973 495.28 130.533ZM467.883 113.863C464.341 108.395 462.238 102.121 461.771 95.6227C461.505 92.5725 461.717 89.4996 462.399 86.5147C463.646 79.6306 466.802 73.2351 471.507 68.057C473.367 66.1001 473.536 66.0518 475.831 66.8249C479.717 68.5314 483.224 70.9953 486.147 74.0726L488.829 76.4886L487.38 78.3005C480.561 86.642 474.942 95.896 470.685 105.794C469.32 108.819 468.826 112.166 469.26 115.457C469.695 116.593 469.26 116.182 467.859 113.984L467.883 113.863ZM529.078 114.757C529.289 112.082 528.909 109.393 527.967 106.881C525.744 100.141 518.303 87.5535 511.563 79.0494L509.437 76.3678L511.853 74.2418C514.118 72.0632 516.585 70.1056 519.221 68.3953C520.869 67.3319 522.72 66.6242 524.657 66.3175C525.334 66.3175 527.701 68.7335 529.61 71.4877C532.679 75.8356 534.818 80.7705 535.891 85.9832C536.619 90.6471 536.66 95.3924 536.012 100.068C535.378 103.102 534.439 106.065 533.21 108.91C532.106 111.192 530.822 113.381 529.368 115.457C528.909 116.061 528.909 116.061 529.151 114.781L529.078 114.757ZM495.884 65.0371C492.504 63.359 488.935 62.0937 485.254 61.2683C484.085 61.1057 482.905 61.041 481.726 61.0749C479.504 61.1957 479.6 61.075 483.152 59.408C485.919 58.0831 488.84 57.1091 491.849 56.5089C496.649 55.7184 501.545 55.7184 506.345 56.5089C510.302 57.3395 514.113 58.7563 517.651 60.7126L518.424 61.1958H516.636C511.604 61.4109 506.687 62.7744 502.262 65.1821C500.57 66.0035 499.097 66.6558 499 66.6558C498.903 66.6558 497.502 65.9551 495.932 65.1579L495.884 65.0371Z" strokeWidth="2" fill="currentColor" cx="499.064" cy="93.3039" rx="37.405" ry="37.385"/><path fill="currentColor" d="M495.28 130.533C489.358 129.928 483.667 127.915 478.682 124.662C474.478 121.908 473.536 120.797 473.536 118.55C473.536 114.032 478.489 106.132 486.993 97.1206C491.825 91.9988 498.517 86.0073 499.242 86.1765C500.643 86.4905 511.95 97.5071 516.153 102.677C522.845 110.867 525.817 117.583 524.343 120.579C523.159 122.85 515.815 127.296 510.403 128.987C505.504 130.448 500.373 130.973 495.28 130.533ZM467.883 113.863C464.341 108.395 462.238 102.121 461.771 95.6227C461.505 92.5725 461.717 89.4996 462.399 86.5147C463.646 79.6306 466.802 73.2351 471.507 68.057C473.367 66.1001 473.536 66.0518 475.831 66.8249C479.717 68.5314 483.224 70.9953 486.147 74.0726L488.829 76.4886L487.38 78.3005C480.561 86.642 474.942 95.896 470.685 105.794C469.32 108.819 468.826 112.166 469.26 115.457C469.695 116.593 469.26 116.182 467.859 113.984L467.883 113.863ZM529.078 114.757C529.289 112.082 528.909 109.393 527.967 106.881C525.744 100.141 518.303 87.5535 511.563 79.0494L509.437 76.3678L511.853 74.2418C514.118 72.0632 516.585 70.1056 519.221 68.3953C520.869 67.3319 522.72 66.6242 524.657 66.3175C525.334 66.3175 527.701 68.7335 529.61 71.4877C532.679 75.8356 534.818 80.7705 535.891 85.9832C536.619 90.6471 536.66 95.3924 536.012 100.068C535.378 103.102 534.439 106.065 533.21 108.91C532.106 111.192 530.822 113.381 529.368 115.457C528.909 116.061 528.909 116.061 529.151 114.781L529.078 114.757ZM495.884 65.0371C492.504 63.359 488.935 62.0937 485.254 61.2683C484.085 61.1057 482.905 61.041 481.726 61.0749C479.504 61.1957 479.6 61.075 483.152 59.408C485.919 58.0831 488.84 57.1091 491.849 56.5089C496.649 55.7184 501.545 55.7184 506.345 56.5089C510.302 57.3395 514.113 58.7563 517.651 60.7126L518.424 61.1958H516.636C511.604 61.4109 506.687 62.7744 502.262 65.1821C500.57 66.0035 499.097 66.6558 499 66.6558C498.903 66.6558 497.502 65.9551 495.932 65.1579L495.884 65.0371Z" cx="499.064" cy="93.3039" rx="37.405" ry="37.385"/><ellipse cx="499.064" cy="93.3039" rx="37.405" ry="37.385" fill="currentColor" d="M495.28 130.533C489.358 129.928 483.667 127.915 478.682 124.662C474.478 121.908 473.536 120.797 473.536 118.55C473.536 114.032 478.489 106.132 486.993 97.1206C491.825 91.9988 498.517 86.0073 499.242 86.1765C500.643 86.4905 511.95 97.5071 516.153 102.677C522.845 110.867 525.817 117.583 524.343 120.579C523.159 122.85 515.815 127.296 510.403 128.987C505.504 130.448 500.373 130.973 495.28 130.533ZM467.883 113.863C464.341 108.395 462.238 102.121 461.771 95.6227C461.505 92.5725 461.717 89.4996 462.399 86.5147C463.646 79.6306 466.802 73.2351 471.507 68.057C473.367 66.1001 473.536 66.0518 475.831 66.8249C479.717 68.5314 483.224 70.9953 486.147 74.0726L488.829 76.4886L487.38 78.3005C480.561 86.642 474.942 95.896 470.685 105.794C469.32 108.819 468.826 112.166 469.26 115.457C469.695 116.593 469.26 116.182 467.859 113.984L467.883 113.863ZM529.078 114.757C529.289 112.082 528.909 109.393 527.967 106.881C525.744 100.141 518.303 87.5535 511.563 79.0494L509.437 76.3678L511.853 74.2418C514.118 72.0632 516.585 70.1056 519.221 68.3953C520.869 67.3319 522.72 66.6242 524.657 66.3175C525.334 66.3175 527.701 68.7335 529.61 71.4877C532.679 75.8356 534.818 80.7705 535.891 85.9832C536.619 90.6471 536.66 95.3924 536.012 100.068C535.378 103.102 534.439 106.065 533.21 108.91C532.106 111.192 530.822 113.381 529.368 115.457C528.909 116.061 528.909 116.061 529.151 114.781L529.078 114.757ZM495.884 65.0371C492.504 63.359 488.935 62.0937 485.254 61.2683C484.085 61.1057 482.905 61.041 481.726 61.0749C479.504 61.1957 479.6 61.075 483.152 59.408C485.919 58.0831 488.84 57.1091 491.849 56.5089C496.649 55.7184 501.545 55.7184 506.345 56.5089C510.302 57.3395 514.113 58.7563 517.651 60.7126L518.424 61.1958H516.636C511.604 61.4109 506.687 62.7744 502.262 65.1821C500.57 66.0035 499.097 66.6558 499 66.6558C498.903 66.6558 497.502 65.9551 495.932 65.1579L495.884 65.0371Z"/><path fill="currentColor" d="M495.28 130.533C489.358 129.928 483.667 127.915 478.682 124.662C474.478 121.908 473.536 120.797 473.536 118.55C473.536 114.032 478.489 106.132 486.993 97.1206C491.825 91.9988 498.517 86.0073 499.242 86.1765C500.643 86.4905 511.95 97.5071 516.153 102.677C522.845 110.867 525.817 117.583 524.343 120.579C523.159 122.85 515.815 127.296 510.403 128.987C505.504 130.448 500.373 130.973 495.28 130.533ZM467.883 113.863C464.341 108.395 462.238 102.121 461.771 95.6227C461.505 92.5725 461.717 89.4996 462.399 86.5147C463.646 79.6306 466.802 73.2351 471.507 68.057C473.367 66.1001 473.536 66.0518 475.831 66.8249C479.717 68.5314 483.224 70.9953 486.147 74.0726L488.829 76.4886L487.38 78.3005C480.561 86.642 474.942 95.896 470.685 105.794C469.32 108.819 468.826 112.166 469.26 115.457C469.695 116.593 469.26 116.182 467.859 113.984L467.883 113.863ZM529.078 114.757C529.289 112.082 528.909 109.393 527.967 106.881C525.744 100.141 518.303 87.5535 511.563 79.0494L509.437 76.3678L511.853 74.2418C514.118 72.0632 516.585 70.1056 519.221 68.3953C520.869 67.3319 522.72 66.6242 524.657 66.3175C525.334 66.3175 527.701 68.7335 529.61 71.4877C532.679 75.8356 534.818 80.7705 535.891 85.9832C536.619 90.6471 536.66 95.3924 536.012 100.068C535.378 103.102 534.439 106.065 533.21 108.91C532.106 111.192 530.822 113.381 529.368 115.457C528.909 116.061 528.909 116.061 529.151 114.781L529.078 114.757ZM495.884 65.0371C492.504 63.359 488.935 62.0937 485.254 61.2683C484.085 61.1057 482.905 61.041 481.726 61.0749C479.504 61.1957 479.6 61.075 483.152 59.408C485.919 58.0831 488.84 57.1091 491.849 56.5089C496.649 55.7184 501.545 55.7184 506.345 56.5089C510.302 57.3395 514.113 58.7563 517.651 60.7126L518.424 61.1958H516.636C511.604 61.4109 506.687 62.7744 502.262 65.1821C500.57 66.0035 499.097 66.6558 499 66.6558C498.903 66.6558 497.502 65.9551 495.932 65.1579L495.884 65.0371Z"/></svg>