<svg xmlns="http://www.w3.org/2000/svg" viewBox="0 0 657 308" width="657" height="308" fill="#fff"><path d="M646.364 134.237C646.364 134.237 652.2 131.319 652.2 139.1L652.2 176.271C652.2 176.271 654.145 214.959 624.968 253.861C595.791 292.764 568.56 300.544 568.56 300.544C568.56 300.544 564.397 303.423 562.588 296.148C560.779 288.873 623.023 284.983 646.364 134.237V134.237Z" stroke="currentColor" strokeWidth="3.89022" strokeMiterlimit="10"/><path d="M270.803 193.738C270.803 213.074 286.478 228.75 305.815 228.75C325.151 228.75 340.827 213.074 340.827 193.738C340.827 174.401 325.151 158.726 305.815 158.726C286.478 158.726 270.803 174.401 270.803 193.738Z" stroke="currentColor" strokeWidth="3" strokeMiterlimit="10" fill="currentColor"/><path stroke="currentColor" d="M270.803 193.738C270.803 213.074 286.478 228.75 305.815 228.75C325.151 228.75 340.827 213.074 340.827 193.738C340.827 174.401 325.151 158.726 305.815 158.726C286.478 158.726 270.803 174.401 270.803 193.738Z" strokeWidth="3" strokeMiterlimit="10" fill="currentColor"/><path stroke="currentColor" d="M270.803 193.738C270.803 213.074 286.478 228.75 305.815 228.75C325.151 228.75 340.827 213.074 340.827 193.738C340.827 174.401 325.151 158.726 305.815 158.726C286.478 158.726 270.803 174.401 270.803 193.738Z" strokeWidth="3" strokeMiterlimit="10" fill="currentColor"/><path stroke="currentColor"/><path stroke="currentColor"/><path stroke="currentColor" d="M270.803 193.738C270.803 213.074 286.478 228.75 305.815 228.75C325.151 228.75 340.827 213.074 340.827 193.738C340.827 174.401 325.151 158.726 305.815 158.726C286.478 158.726 270.803 174.401 270.803 193.738Z" strokeWidth="3" strokeMiterlimit="10" fill="currentColor"/><path stroke="currentColor" d="M270.803 193.738C270.803 213.074 286.478 228.75 305.815 228.75C325.151 228.75 340.827 213.074 340.827 193.738C340.827 174.401 325.151 158.726 305.815 158.726C286.478 158.726 270.803 174.401 270.803 193.738Z" strokeWidth="3" strokeMiterlimit="10" fill="currentColor"/><path fill="currentColor"/><path fill="currentColor" d="M270.803 193.738C270.803 213.074 286.478 228.75 305.815 228.75C325.151 228.75 340.827 213.074 340.827 193.738C340.827 174.401 325.151 158.726 305.815 158.726C286.478 158.726 270.803 174.401 270.803 193.738Z" stroke="currentColor" strokeWidth="3" strokeMiterlimit="10"/><path stroke="currentColor" d="M270.803 193.738C270.803 213.074 286.478 228.75 305.815 228.75C325.151 228.75 340.827 213.074 340.827 193.738C340.827 174.401 325.151 158.726 305.815 158.726C286.478 158.726 270.803 174.401 270.803 193.738Z" strokeWidth="3" strokeMiterlimit="10" fill="currentColor"/><path fill="currentColor" d="M270.803 193.738C270.803 213.074 286.478 228.75 305.815 228.75C325.151 228.75 340.827 213.074 340.827 193.738C340.827 174.401 325.151 158.726 305.815 158.726C286.478 158.726 270.803 174.401 270.803 193.738Z" stroke="currentColor" strokeWidth="3" strokeMiterlimit="10"/><path stroke="currentColor" d="M270.803 193.738C270.803 213.074 286.478 228.75 305.815 228.75C325.151 228.75 340.827 213.074 340.827 193.738C340.827 174.401 325.151 158.726 305.815 158.726C286.478 158.726 270.803 174.401 270.803 193.738Z" strokeWidth="3" strokeMiterlimit="10"/><path stroke="currentColor" d="M270.803 193.738C270.803 213.074 286.478 228.75 305.815 228.75C325.151 228.75 340.827 213.074 340.827 193.738C340.827 174.401 325.151 158.726 305.815 158.726C286.478 158.726 270.803 174.401 270.803 193.738Z" strokeWidth="3" strokeMiterlimit="10"/><path stroke="currentColor" d="M270.803 193.738C270.803 213.074 286.478 228.75 305.815 228.75C325.151 228.75 340.827 213.074 340.827 193.738C340.827 174.401 325.151 158.726 305.815 158.726C286.478 158.726 270.803 174.401 270.803 193.738Z" strokeWidth="3" strokeMiterlimit="10"/><path stroke="currentColor" d="M270.803 193.738C270.803 213.074 286.478 228.75 305.815 228.75C325.151 228.75 340.827 213.074 340.827 193.738C340.827 174.401 325.151 158.726 305.815 158.726C286.478 158.726 270.803 174.401 270.803 193.738Z" strokeWidth="3" strokeMiterlimit="10"/><path stroke="currentColor" d="M270.803 193.738C270.803 213.074 286.478 228.75 305.815 228.75C325.151 228.75 340.827 213.074 340.827 193.738C340.827 174.401 325.151 158.726 305.815 158.726C286.478 158.726 270.803 174.401 270.803 193.738Z" strokeWidth="3" strokeMiterlimit="10"/><path stroke="currentColor" d="M270.803 193.738C270.803 213.074 286.478 228.75 305.815 228.75C325.151 228.75 340.827 213.074 340.827 193.738C340.827 174.401 325.151 158.726 305.815 158.726C286.478 158.726 270.803 174.401 270.803 193.738Z" strokeWidth="3" strokeMiterlimit="10"/></svg>