<svg xmlns="http://www.w3.org/2000/svg" viewBox="0 0 50 50" fill="#fff"><path fill="currentColor" fillRule="evenodd" clipRule="evenodd" d="M36.0028 16.7004C36.0028 13.5823 33.4669 11.0464 30.3488 11.0464C27.2307 11.0464 24.6948 13.5823 24.6948 16.7004C24.6948 19.8185 27.2307 22.3544 30.3488 22.3544C33.4669 22.3544 36.0028 19.8185 36.0028 16.7004ZM26.1108 16.6905C26.1108 14.347 28.0152 12.4426 30.3587 12.4426C32.7022 12.4426 34.6066 14.3421 34.6066 16.6905C34.6066 19.034 32.7071 20.9384 30.3587 20.9384C28.0102 20.9384 26.1108 19.0389 26.1108 16.6905Z"/><path fill="currentColor" fillRule="evenodd" clipRule="evenodd" d="M36.0028 16.7004C36.0028 13.5823 33.4669 11.0464 30.3488 11.0464C27.2307 11.0464 24.6948 13.5823 24.6948 16.7004C24.6948 19.8185 27.2307 22.3544 30.3488 22.3544C33.4669 22.3544 36.0028 19.8185 36.0028 16.7004ZM26.1108 16.6905C26.1108 14.347 28.0152 12.4426 30.3587 12.4426C32.7022 12.4426 34.6066 14.3421 34.6066 16.6905C34.6066 19.034 32.7071 20.9384 30.3587 20.9384C28.0102 20.9384 26.1108 19.0389 26.1108 16.6905Z"/><path fill="currentColor" d="M36.0028 16.7004C36.0028 13.5823 33.4669 11.0464 30.3488 11.0464C27.2307 11.0464 24.6948 13.5823 24.6948 16.7004C24.6948 19.8185 27.2307 22.3544 30.3488 22.3544C33.4669 22.3544 36.0028 19.8185 36.0028 16.7004ZM26.1108 16.6905C26.1108 14.347 28.0152 12.4426 30.3587 12.4426C32.7022 12.4426 34.6066 14.3421 34.6066 16.6905C34.6066 19.034 32.7071 20.9384 30.3587 20.9384C28.0102 20.9384 26.1108 19.0389 26.1108 16.6905Z"/><path fill="currentColor"/></svg>