<svg xmlns="http://www.w3.org/2000/svg" viewBox="0 0 33 49" fill="#fff"><path fill="currentColor" fillRule="evenodd" clipRule="evenodd" d="M22.2456 22.4164C22.2456 21.6666 22.8127 21.0002 23.6228 21.0002C24.3519 21.0002 25 21.6666 25 22.4164C25 23.1661 24.3519 23.8325 23.6228 23.8325C22.8937 23.8325 22.2456 23.1661 22.2456 22.4164Z"/><path fill="currentColor" d="M18.6812 22.4164C18.6812 21.6666 19.2483 21.0002 20.0584 21.0002C20.8685 21.0002 21.5166 21.6666 21.4355 22.4164C21.4355 23.1661 20.8685 23.8325 20.0584 23.8325C19.3293 23.8325 18.6812 23.1661 18.6812 22.4164Z"/><path fill="currentColor" d="M18.6812 22.4164C18.6812 21.6666 19.2483 21.0002 20.0584 21.0002C20.8685 21.0002 21.5166 21.6666 21.4355 22.4164C21.4355 23.1661 20.8685 23.8325 20.0584 23.8325C19.3293 23.8325 18.6812 23.1661 18.6812 22.4164Z"/><path fill="currentColor"/><path fill="currentColor" d="M8.14983 22.4164C8.14983 21.6666 8.7169 21.0002 9.527 21.0002C10.3371 21.0002 10.9852 21.6666 10.9042 22.4164C10.9042 23.1661 10.3371 23.8325 9.527 23.8325C8.79791 23.8325 8.14983 23.1661 8.14983 22.4164Z"/><path fill="currentColor"/></svg>