<svg xmlns="http://www.w3.org/2000/svg" viewBox="0 0 24 27" width="24" height="27" fill="#fff"><path d="M1.55554 15.117C1.5602 17.9135 2.67377 20.5942 4.65227 22.5716C6.63077 24.549 9.31284 25.662 12.1109 25.6667C13.4966 25.6713 14.8694 25.4003 16.1493 24.8696C17.4292 24.3388 18.5907 23.5588 19.5661 22.5751C21.5374 20.5994 22.651 17.9274 22.6662 15.1373C22.7204 9.22235 18.2188 4.68248 12.1949 4.57003H7.49304V1.77783L1.55554 6.06029L7.49304 10.3441V7.68603H12.1502C16.4051 7.76731 19.5865 10.9565 19.5485 15.1048C19.5119 19.2125 16.176 22.5561 12.1109 22.5561C10.1389 22.5539 8.24838 21.7701 6.85402 20.3764C5.45966 18.9828 4.67535 17.0933 4.6732 15.1224" fill="currentColor"/></svg>