<svg xmlns="http://www.w3.org/2000/svg" viewBox="0 0 36 36" width="3" height="27" fill="#fff"><path fillRule="evenodd" clipRule="evenodd" d="M19.92 15.89L20.1 16.06C21.38 17.32 21.38 19.35 20.1 20.61L19.92 20.78L17.43 18.33L19.92 15.88V15.89Z" fill="freeze" fillOpacity="0.25" x="0.728821" y="10" width="3" height="27" transform="rotate(-46.9546 0.728821 9.47668)" attributeName="y" begin="0" dur="150ms" from="0" to="10" values="0; 5; 10" keyTimes="0; .8; 1"/><path fillRule="evenodd" clipRule="evenodd" d="M19.92 15.89L20.1 16.06C21.38 17.32 21.38 19.35 20.1 20.61L19.92 20.78L17.43 18.33L19.92 15.88V15.89Z" fill="freeze" fillOpacity="0.25" x="0.728821" y="10" width="3" height="27" transform="rotate(-46.9546 0.728821 9.47668)" attributeName="y" begin="0" dur="150ms" from="0" to="10" values="0; 5; 10" keyTimes="0; .8; 1"/><path fillRule="evenodd" clipRule="evenodd" d="M19.92 15.89L20.1 16.06C21.38 17.32 21.38 19.35 20.1 20.61L19.92 20.78L17.43 18.33L19.92 15.88V15.89Z" fill="freeze" fillOpacity="0.25" x="0.728821" y="10" width="3" height="27" transform="rotate(-46.9546 0.728821 9.47668)" attributeName="y" begin="0" dur="150ms" from="0" to="10" values="0; 5; 10" keyTimes="0; .8; 1"/><path fillRule="evenodd" clipRule="evenodd" d="M19.92 15.89L20.1 16.06C21.38 17.32 21.38 19.35 20.1 20.61L19.92 20.78L17.43 18.33L19.92 15.88V15.89Z" fill="freeze" fillOpacity="0.25" x="0.728821" y="10" width="3" height="27" transform="rotate(-46.9546 0.728821 9.47668)" attributeName="y" begin="0" dur="150ms" from="0" to="10" values="0; 5; 10" keyTimes="0; .8; 1"/><rect x="0.728821" y="10" width="3" height="27" transform="rotate(-46.9546 0.728821 9.47668)" fill="freeze" attributeName="y" begin="0" dur="150ms" from="0" to="10" values="0; 5; 10" keyTimes="0; .8; 1"/><animate attributeName="y" begin="0" dur="150ms" from="0" to="10" values="0; 5; 10" keyTimes="0; .8; 1" fill="freeze"/></svg>