<svg xmlns="http://www.w3.org/2000/svg" viewBox="0 0 36 36" width="36" height="36" fill="#fff"><line x1="1" y1="30" x2="32" y2="30" stroke="white" strokeWidth="2" strokeDasharray="2 2" d="M28 20V22V24H26H23H21V22H23H24H26V20V18H28H31H34V6H31H28H26V4H28H34H36V6V18V20H34H30H28Z" fill="white" fillRule="evenodd" clipRule="evenodd"/><path d="M28 20V22V24H26H23H21V22H23H24H26V20V18H28H31H34V6H31H28H26V4H28H34H36V6V18V20H34H30H28Z" fill="white" fillRule="evenodd" clipRule="evenodd"/><path fillRule="evenodd" clipRule="evenodd" d="M28 20V22V24H26H23H21V22H23H24H26V20V18H28H31H34V6H31H28H26V4H28H34H36V6V18V20H34H30H28Z" fill="white"/><path fillRule="evenodd" clipRule="evenodd" d="M28 20V22V24H26H23H21V22H23H24H26V20V18H28H31H34V6H31H28H26V4H28H34H36V6V18V20H34H30H28Z" fill="white"/></svg>