<svg xmlns="http://www.w3.org/2000/svg" viewBox="0 0 36 36" fill="#fff"><path fill="currentColor" d="M23.106 18.2678L27.1082 18.2678C27.0536 20.4966 26.1758 22.709 24.4749 24.4099C22.6611 26.2237 20.2657 27.1015 17.8891 27.0432V23.041C19.2416 23.1007 20.6137 22.6142 21.6464 21.5815C22.5663 20.6616 23.0528 19.4725 23.106 18.2678Z" cx="18" cy="18" r="2"/><path fill="currentColor" d="M23.106 18.2678L27.1082 18.2678C27.0536 20.4966 26.1758 22.709 24.4749 24.4099C22.6611 26.2237 20.2657 27.1015 17.8891 27.0432V23.041C19.2416 23.1007 20.6137 22.6142 21.6464 21.5815C22.5663 20.6616 23.0528 19.4725 23.106 18.2678Z" cx="18" cy="18" r="2"/><circle fill="currentColor" cx="18" cy="18" r="2" d="M23.106 18.2678L27.1082 18.2678C27.0536 20.4966 26.1758 22.709 24.4749 24.4099C22.6611 26.2237 20.2657 27.1015 17.8891 27.0432V23.041C19.2416 23.1007 20.6137 22.6142 21.6464 21.5815C22.5663 20.6616 23.0528 19.4725 23.106 18.2678Z"/><path fill="currentColor" d="M23.106 18.2678L27.1082 18.2678C27.0536 20.4966 26.1758 22.709 24.4749 24.4099C22.6611 26.2237 20.2657 27.1015 17.8891 27.0432V23.041C19.2416 23.1007 20.6137 22.6142 21.6464 21.5815C22.5663 20.6616 23.0528 19.4725 23.106 18.2678Z"/><path fill="currentColor" d="M23.106 18.2678L27.1082 18.2678C27.0536 20.4966 26.1758 22.709 24.4749 24.4099C22.6611 26.2237 20.2657 27.1015 17.8891 27.0432V23.041C19.2416 23.1007 20.6137 22.6142 21.6464 21.5815C22.5663 20.6616 23.0528 19.4725 23.106 18.2678Z"/></svg>