<svg xmlns="http://www.w3.org/2000/svg" viewBox="0 0 10 9" width="10" height="9" fill="#fff"><path d="M7.29268 3.40664C7.29268 2.81885 6.81365 2.34058 6.22477 2.34058C5.63595 2.34058 5.15675 2.81882 5.15675 3.40664C5.15675 3.99447 5.63592 4.47261 6.22477 4.47261C6.81361 4.47261 7.29268 3.99447 7.29268 3.40664ZM5.42427 3.40481C5.42427 2.96249 5.78351 2.60404 6.22653 2.60404C6.66962 2.60404 7.0288 2.96249 7.0288 3.40481C7.0288 3.84713 6.66966 4.20558 6.22653 4.20558C5.78351 4.20554 5.42427 3.84713 5.42427 3.40481Z" fill="white"/><path d="M7.29268 3.40664C7.29268 2.81885 6.81365 2.34058 6.22477 2.34058C5.63595 2.34058 5.15675 2.81882 5.15675 3.40664C5.15675 3.99447 5.63592 4.47261 6.22477 4.47261C6.81361 4.47261 7.29268 3.99447 7.29268 3.40664ZM5.42427 3.40481C5.42427 2.96249 5.78351 2.60404 6.22653 2.60404C6.66962 2.60404 7.0288 2.96249 7.0288 3.40481C7.0288 3.84713 6.66966 4.20558 6.22653 4.20558C5.78351 4.20554 5.42427 3.84713 5.42427 3.40481Z" fill="white"/></svg>