<svg xmlns="http://www.w3.org/2000/svg" viewBox="0 0 36 36" width="36" height="36" fill="#fff"><path d="M31.4615 12L32.1538 14.1913C32.2462 14.471 32.4769 14.7042 32.7538 14.7974L34.9231 15.4968L32.7538 16.1961C32.4769 16.2894 32.2462 16.5225 32.1538 16.8022L31.4615 18.9935L30.7692 16.8022C30.6769 16.5225 30.4462 16.2894 30.1692 16.1961L28 15.4968L30.1692 14.7974C30.4462 14.7042 30.6769 14.471 30.7692 14.1913L31.4615 12Z" fill="currentColor"/><path d="M26.4615 25L27.1538 27.1913C27.2462 27.471 27.4769 27.7042 27.7538 27.7974L29.9231 28.4968L27.7538 29.1961C27.4769 29.2894 27.2462 29.5225 27.1538 29.8022L26.4615 31.9935L25.7692 29.8022C25.6769 29.5225 25.4462 29.2894 25.1692 29.1961L23 28.4968L25.1692 27.7974C25.4462 27.7042 25.6769 27.471 25.7692 27.1913L26.4615 25Z" fill="currentColor"/><path d="M26.4615 25L27.1538 27.1913C27.2462 27.471 27.4769 27.7042 27.7538 27.7974L29.9231 28.4968L27.7538 29.1961C27.4769 29.2894 27.2462 29.5225 27.1538 29.8022L26.4615 31.9935L25.7692 29.8022C25.6769 29.5225 25.4462 29.2894 25.1692 29.1961L23 28.4968L25.1692 27.7974C25.4462 27.7042 25.6769 27.471 25.7692 27.1913L26.4615 25Z" fill="currentColor"/><path d="M26.4615 25L27.1538 27.1913C27.2462 27.471 27.4769 27.7042 27.7538 27.7974L29.9231 28.4968L27.7538 29.1961C27.4769 29.2894 27.2462 29.5225 27.1538 29.8022L26.4615 31.9935L25.7692 29.8022C25.6769 29.5225 25.4462 29.2894 25.1692 29.1961L23 28.4968L25.1692 27.7974C25.4462 27.7042 25.6769 27.471 25.7692 27.1913L26.4615 25Z" fill="currentColor"/><path d="M26.4615 25L27.1538 27.1913C27.2462 27.471 27.4769 27.7042 27.7538 27.7974L29.9231 28.4968L27.7538 29.1961C27.4769 29.2894 27.2462 29.5225 27.1538 29.8022L26.4615 31.9935L25.7692 29.8022C25.6769 29.5225 25.4462 29.2894 25.1692 29.1961L23 28.4968L25.1692 27.7974C25.4462 27.7042 25.6769 27.471 25.7692 27.1913L26.4615 25Z" fill="currentColor"/></svg>