<svg xmlns="http://www.w3.org/2000/svg" viewBox="0 0 32 36" width="31.8913" height="36" fill="#fff"><g fill="currentColor" fillRule="evenodd" clipRule="evenodd" d="M16.977 2.54312L17.9009 1.50008L17.2745 0.792969L15.3193 3.00008L17.2745 5.20718L17.9009 4.50008L17.063 3.55415C23.2658 4.15744 28.2085 9.7369 28.7429 16.7388L27.905 15.7929L27.2786 16.5L29.2338 18.7072L31.189 16.5L30.5626 15.7929L29.6386 16.836C29.1366 9.20359 23.7383 3.10981 16.977 2.54312Z" width="31.8913" height="36"/><path fill="currentColor" fillRule="evenodd" clipRule="evenodd" d="M16.977 2.54312L17.9009 1.50008L17.2745 0.792969L15.3193 3.00008L17.2745 5.20718L17.9009 4.50008L17.063 3.55415C23.2658 4.15744 28.2085 9.7369 28.7429 16.7388L27.905 15.7929L27.2786 16.5L29.2338 18.7072L31.189 16.5L30.5626 15.7929L29.6386 16.836C29.1366 9.20359 23.7383 3.10981 16.977 2.54312Z" width="31.8913" height="36"/><path fill="currentColor" fillRule="evenodd" clipRule="evenodd" d="M16.977 2.54312L17.9009 1.50008L17.2745 0.792969L15.3193 3.00008L17.2745 5.20718L17.9009 4.50008L17.063 3.55415C23.2658 4.15744 28.2085 9.7369 28.7429 16.7388L27.905 15.7929L27.2786 16.5L29.2338 18.7072L31.189 16.5L30.5626 15.7929L29.6386 16.836C29.1366 9.20359 23.7383 3.10981 16.977 2.54312Z" width="31.8913" height="36"/><path fill="currentColor" fillRule="evenodd" clipRule="evenodd" d="M16.977 2.54312L17.9009 1.50008L17.2745 0.792969L15.3193 3.00008L17.2745 5.20718L17.9009 4.50008L17.063 3.55415C23.2658 4.15744 28.2085 9.7369 28.7429 16.7388L27.905 15.7929L27.2786 16.5L29.2338 18.7072L31.189 16.5L30.5626 15.7929L29.6386 16.836C29.1366 9.20359 23.7383 3.10981 16.977 2.54312Z" width="31.8913" height="36"/><path fill="currentColor" fillRule="evenodd" clipRule="evenodd" d="M16.977 2.54312L17.9009 1.50008L17.2745 0.792969L15.3193 3.00008L17.2745 5.20718L17.9009 4.50008L17.063 3.55415C23.2658 4.15744 28.2085 9.7369 28.7429 16.7388L27.905 15.7929L27.2786 16.5L29.2338 18.7072L31.189 16.5L30.5626 15.7929L29.6386 16.836C29.1366 9.20359 23.7383 3.10981 16.977 2.54312Z" width="31.8913" height="36"/><path fill="currentColor" fillRule="evenodd" clipRule="evenodd" d="M16.977 2.54312L17.9009 1.50008L17.2745 0.792969L15.3193 3.00008L17.2745 5.20718L17.9009 4.50008L17.063 3.55415C23.2658 4.15744 28.2085 9.7369 28.7429 16.7388L27.905 15.7929L27.2786 16.5L29.2338 18.7072L31.189 16.5L30.5626 15.7929L29.6386 16.836C29.1366 9.20359 23.7383 3.10981 16.977 2.54312Z" width="31.8913" height="36"/><clipPath fill="currentColor" width="31.8913" height="36"/><rect fill="currentColor" width="31.8913" height="36"/></svg>