<svg xmlns="http://www.w3.org/2000/svg" viewBox="0 0 36 36" fill="#fff"><path d="M19.92 15.89L20.1 16.06C21.38 17.32 21.38 19.35 20.1 20.61L19.92 20.78L17.43 18.33L19.92 15.88V15.89Z" fill="currentColor" fillRule="evenodd" clipRule="evenodd" fillOpacity="0.5"/><path fillRule="evenodd" clipRule="evenodd" d="M19.92 15.89L20.1 16.06C21.38 17.32 21.38 19.35 20.1 20.61L19.92 20.78L17.43 18.33L19.92 15.88V15.89Z" fill="currentColor" fillOpacity="0.5"/><path fillRule="evenodd" clipRule="evenodd" d="M19.92 15.89L20.1 16.06C21.38 17.32 21.38 19.35 20.1 20.61L19.92 20.78L17.43 18.33L19.92 15.88V15.89Z" fill="currentColor" fillOpacity="0.5"/><path fillRule="evenodd" clipRule="evenodd" d="M19.92 15.89L20.1 16.06C21.38 17.32 21.38 19.35 20.1 20.61L19.92 20.78L17.43 18.33L19.92 15.88V15.89Z" fill="currentColor"/></svg>