<svg xmlns="http://www.w3.org/2000/svg" viewBox="0 0 1280 720" width="1280" height="720" fill="#fff"><path fill="white" d="M584.879 377.879C583.707 379.05 583.707 380.95 584.879 382.121L603.971 401.213C605.142 402.385 607.042 402.385 608.213 401.213C609.385 400.042 609.385 398.142 608.213 396.971L591.243 380L608.213 363.029C609.385 361.858 609.385 359.958 608.213 358.787C607.042 357.615 605.142 357.615 603.971 358.787L584.879 377.879ZM658 380V377H587V380V383H658V380Z"/><path fill="white"/><path fill="#1A9FFF"/><path fill="#126FB2" d="M1049.5 265.5L1070 269.5M1070 269.5L1063 254M1070 269.5L1063 281.5" opacity="0.7" strokeWidth="3" strokeLinecap="round" stroke="white" x1="633.997" y1="268.5" x2="956.435" y2="270.419" gradientUnits="userSpaceOnUse" stopColor="#75C5FF" stopOpacity="0.5" offset="1"/><path opacity="0.7" d="M1049.5 265.5L1070 269.5M1070 269.5L1063 254M1070 269.5L1063 281.5" strokeWidth="3" strokeLinecap="round" fill="#126FB2" stroke="white" x1="633.997" y1="268.5" x2="956.435" y2="270.419" gradientUnits="userSpaceOnUse" stopColor="#75C5FF" stopOpacity="0.5" offset="1"/><path fill="#126FB2" d="M1049.5 265.5L1070 269.5M1070 269.5L1063 254M1070 269.5L1063 281.5" stroke="white" opacity="0.7" strokeWidth="3" x1="633.997" y1="268.5" x2="956.435" y2="270.419" gradientUnits="userSpaceOnUse" stopColor="#75C5FF" stopOpacity="0.5" offset="1"/><path stroke="white" opacity="0.7" d="M1049.5 265.5L1070 269.5M1070 269.5L1063 254M1070 269.5L1063 281.5" strokeWidth="3" x1="633.997" y1="268.5" x2="956.435" y2="270.419" gradientUnits="userSpaceOnUse" stopColor="#75C5FF" stopOpacity="0.5" offset="1"/><defs x1="633.997" y1="268.5" x2="956.435" y2="270.419" gradientUnits="userSpaceOnUse" stopColor="#75C5FF" stopOpacity="0.5" offset="1"/><linearGradient x1="633.997" y1="268.5" x2="956.435" y2="270.419" gradientUnits="userSpaceOnUse" stopColor="#75C5FF" stopOpacity="0.5" offset="1"/><stop stopColor="#75C5FF" stopOpacity="0.5" offset="1"/><stop offset="1" stopColor="#75C5FF"/></svg>