<svg xmlns="http://www.w3.org/2000/svg" viewBox="0 0 36 36" fill="#fff"><path d="M18 28C18 23.5817 21.5817 20 26 20C30.4183 20 34 23.5817 34 28C34 32.4183 30.4183 36 26 36C21.5817 36 18 32.4183 18 28ZM26 23C25.1655 23 24.3788 23.2044 23.6872 23.5659L30.4341 30.3128C30.7956 29.6212 31 28.8345 31 28C31 25.2386 28.7614 23 26 23ZM21 28C21 27.1655 21.2044 26.3788 21.5659 25.6872L28.3128 32.4341C27.6212 32.7956 26.8345 33 26 33C23.2386 33 21 30.7614 21 28Z" fill="currentColor" fillRule="evenodd" clipRule="evenodd"/><path d="M18 28C18 23.5817 21.5817 20 26 20C30.4183 20 34 23.5817 34 28C34 32.4183 30.4183 36 26 36C21.5817 36 18 32.4183 18 28ZM26 23C25.1655 23 24.3788 23.2044 23.6872 23.5659L30.4341 30.3128C30.7956 29.6212 31 28.8345 31 28C31 25.2386 28.7614 23 26 23ZM21 28C21 27.1655 21.2044 26.3788 21.5659 25.6872L28.3128 32.4341C27.6212 32.7956 26.8345 33 26 33C23.2386 33 21 30.7614 21 28Z" fill="currentColor" fillRule="evenodd" clipRule="evenodd"/><path fillRule="evenodd" clipRule="evenodd" d="M18 28C18 23.5817 21.5817 20 26 20C30.4183 20 34 23.5817 34 28C34 32.4183 30.4183 36 26 36C21.5817 36 18 32.4183 18 28ZM26 23C25.1655 23 24.3788 23.2044 23.6872 23.5659L30.4341 30.3128C30.7956 29.6212 31 28.8345 31 28C31 25.2386 28.7614 23 26 23ZM21 28C21 27.1655 21.2044 26.3788 21.5659 25.6872L28.3128 32.4341C27.6212 32.7956 26.8345 33 26 33C23.2386 33 21 30.7614 21 28Z" fill="currentColor"/></svg>