<svg xmlns="http://www.w3.org/2000/svg" viewBox="0 0 36 36" fill="#fff"><path fill="currentColor" opacity="0.5" d="M23.8,13.5l0.6-2l0.5-3c0-0.2,0-0.3-0.1-0.4c-0.1-0.1-0.4-0.3-0.7-0.4c-0.1,0-0.2-0.1-0.3-0.1c-1.7-0.1-3.7-0.2-5.9-0.2v7.6  h4C22.8,14.9,23.6,14.3,23.8,13.5z"/><path fill="currentColor" d="M23.8,13.5l0.6-2l0.5-3c0-0.2,0-0.3-0.1-0.4c-0.1-0.1-0.4-0.3-0.7-0.4c-0.1,0-0.2-0.1-0.3-0.1c-1.7-0.1-3.7-0.2-5.9-0.2v7.6  h4C22.8,14.9,23.6,14.3,23.8,13.5z"/><path fill="currentColor" opacity="0.5" d="M32.1,9c-0.1-0.1-0.3-0.1-0.6-0.2V8.2c0-0.2-0.1-0.4-0.3-0.5c-0.5-0.3-1.8-1-3.1-1c-1.7,0-1.7,0.6-1.7,0.6v0.5  c-0.4,0-0.8-0.1-1.2-0.1l0,0c0.2,0.2,0.3,0.6,0.3,0.9l-0.5,3l0,0l0,0l-0.1,0.7c-0.2,1.4,0.2,2.8,1.1,3.8c1.1,1.2,2.5,3,3.5,4.5  c0.6,1.1,1.3,2.8,1.8,4.5c0.5,1.7,1,3.4,1.3,4.5c0.1,0.5,0.6,0.8,1.1,0.6l0.1,0c0.5-0.3,1-0.8,1.2-1.4c0.4-1.2,0.9-3.1,0.9-5.8  C36,18,33.2,9.6,32.1,9z M29.2,10.1c0.6,0,1.1,0.5,1.1,1.1s-0.5,1.1-1.1,1.1s-1.1-0.5-1.1-1.1S28.6,10.1,29.2,10.1z M25.9,9.9  l0.3-0.6C26.4,9,26.7,8.9,27,9.1c0.3,0.1,0.4,0.5,0.3,0.8l-0.3,0.6c-0.1,0.3-0.5,0.4-0.8,0.3C25.9,10.5,25.8,10.2,25.9,9.9z   M27,14.6c-0.6,0-1.1-0.5-1.1-1.1s0.5-1.1,1.1-1.1s1.1,0.5,1.1,1.1S27.6,14.6,27,14.6z M29.2,16.9c-0.6,0-1.1-0.5-1.1-1.1  s0.5-1.1,1.1-1.1s1.1,0.5,1.1,1.1S29.9,16.9,29.2,16.9z M31.5,14.6c-0.6,0-1.1-0.5-1.1-1.1s0.5-1.1,1.1-1.1s1.1,0.5,1.1,1.1  S32.1,14.6,31.5,14.6z"/><path fill="currentColor" opacity="0.5"/><path fill="currentColor"/><path fill="currentColor"/></svg>