<svg xmlns="http://www.w3.org/2000/svg" viewBox="0 0 36 36" fill="#fff"><path fill="currentColor" d="M15,11.1h15.4c.5,0,1-.3,1.3-.8.3-.5.3-1.1,0-1.5-.3-.5-.8-.8-1.3-.8h-15.4c-.5,0-1,.3-1.3.8-.3.5-.3,1.1,0,1.5.3.5.8.8,1.3.8ZM15,19.5h15.4c.5,0,1-.3,1.3-.8.3-.5.3-1.1,0-1.5-.3-.5-.8-.8-1.3-.8h-15.4c-.5,0-1,.3-1.3.8-.3.5-.3,1.1,0,1.5.3.5.8.8,1.3.8ZM15,27.9h15.4c.5,0,1-.3,1.3-.8.3-.5.3-1.1,0-1.5-.3-.5-.8-.8-1.3-.8h-15.4c-.5,0-1,.3-1.3.8-.3.5-.3,1.1,0,1.5.3.5.8.8,1.3.8Z" strokeWidth="0" points="7 12 4.4 9.3 5.9 7.9 7 9.4 9.9 5.6 11.5 6.9 7 12"/><path fill="currentColor" d="M15,11.1h15.4c.5,0,1-.3,1.3-.8.3-.5.3-1.1,0-1.5-.3-.5-.8-.8-1.3-.8h-15.4c-.5,0-1,.3-1.3.8-.3.5-.3,1.1,0,1.5.3.5.8.8,1.3.8ZM15,19.5h15.4c.5,0,1-.3,1.3-.8.3-.5.3-1.1,0-1.5-.3-.5-.8-.8-1.3-.8h-15.4c-.5,0-1,.3-1.3.8-.3.5-.3,1.1,0,1.5.3.5.8.8,1.3.8ZM15,27.9h15.4c.5,0,1-.3,1.3-.8.3-.5.3-1.1,0-1.5-.3-.5-.8-.8-1.3-.8h-15.4c-.5,0-1,.3-1.3.8-.3.5-.3,1.1,0,1.5.3.5.8.8,1.3.8Z" strokeWidth="0" points="7 12 4.4 9.3 5.9 7.9 7 9.4 9.9 5.6 11.5 6.9 7 12"/><polygon fill="currentColor" points="7 12 4.4 9.3 5.9 7.9 7 9.4 9.9 5.6 11.5 6.9 7 12" strokeWidth="0"/></svg>