<svg xmlns="http://www.w3.org/2000/svg" viewBox="0 0 32 32" width="32" height="32" fill="#fff"><g fill="currentColor" d="M28.282 0H6.53576C3.98766 0 2.25959 2.72067 3.08048 5.13292C3.98027 7.77704 4.82962 11.0701 4.82962 14.08C4.82962 17.7831 3.11555 23.2002 1.67094 27.1082C0.810881 29.4348 2.50354 32.0001 4.98403 32.0001H16.3496C24.0297 32.0001 31.7097 25.6 31.7097 12.8V3.42771C31.7097 1.53464 30.175 0 28.282 0Z" width="32" height="32"/><path fill="currentColor" d="M28.282 0H6.53576C3.98766 0 2.25959 2.72067 3.08048 5.13292C3.98027 7.77704 4.82962 11.0701 4.82962 14.08C4.82962 17.7831 3.11555 23.2002 1.67094 27.1082C0.810881 29.4348 2.50354 32.0001 4.98403 32.0001H16.3496C24.0297 32.0001 31.7097 25.6 31.7097 12.8V3.42771C31.7097 1.53464 30.175 0 28.282 0Z" width="32" height="32"/><defs fill="currentColor" width="32" height="32"/><clipPath fill="currentColor" width="32" height="32"/><rect fill="currentColor" width="32" height="32"/></svg>