<svg xmlns="http://www.w3.org/2000/svg" viewBox="0 0 36 36" width="36" height="36" fill="#fff"><rect width="2.63415" height="25.6829" transform="matrix(1 0 0 -1 3 31)" fill=" currentColor "/><rect width="2.63415" height="25.6829" transform="matrix(1 0 0 -1 3 31)" fill=" currentColor "/><rect width="2.63415" height="25.6829" transform="matrix(1 0 0 -1 3 31)" fill=" currentColor "/><rect width="2.63415" height="25.6829" transform="matrix(1 0 0 -1 3 31)" fill=" currentColor "/><rect width="2.63415" height="25.6829" transform="matrix(1 0 0 -1 3 31)" fill=" currentColor "/><rect width="2.63415" height="25.6829" transform="matrix(1 0 0 -1 3 31)" fill=" currentColor "/><rect width="2.63415" height="25.6829" transform="matrix(1 0 0 -1 3 31)" fill=" currentColor "/><rect width="2.63415" height="25.6829" transform="matrix(1 0 0 -1 3 31)" fill=" currentColor "/></svg>