<svg xmlns="http://www.w3.org/2000/svg" viewBox="0 0 36 36" width="36" height="36" fill="#fff"><g d="M24.5 3L25.6 6.41C25.7467 6.88667 26.1133 7.25333 26.59 7.4L30 8.5L26.59 9.6C26.1133 9.74667 25.7467 10.1133 25.6 10.59L24.5 14L23.4 10.59C23.2533 10.1133 22.8867 9.74667 22.41 9.6L19 8.5L22.41 7.4C22.8867 7.25333 23.2533 6.88667 23.4 6.41L24.5 3Z" fill="currentColor"/><path d="M24.5 3L25.6 6.41C25.7467 6.88667 26.1133 7.25333 26.59 7.4L30 8.5L26.59 9.6C26.1133 9.74667 25.7467 10.1133 25.6 10.59L24.5 14L23.4 10.59C23.2533 10.1133 22.8867 9.74667 22.41 9.6L19 8.5L22.41 7.4C22.8867 7.25333 23.2533 6.88667 23.4 6.41L24.5 3Z" fill="currentColor"/><path d="M6.5 10L7.4 12.82C7.52 13.18 7.82 13.48 8.18 13.6L11 14.5L8.18 15.4C7.82 15.52 7.52 15.82 7.4 16.18L6.5 19L5.6 16.18C5.48 15.82 5.18 15.52 4.82 15.4L2 14.5L4.82 13.6C5.18 13.48 5.48 13.18 5.6 12.82L6.5 10Z" fill="currentColor" width="36" height="36"/><path d="M24.5 3L25.6 6.41C25.7467 6.88667 26.1133 7.25333 26.59 7.4L30 8.5L26.59 9.6C26.1133 9.74667 25.7467 10.1133 25.6 10.59L24.5 14L23.4 10.59C23.2533 10.1133 22.8867 9.74667 22.41 9.6L19 8.5L22.41 7.4C22.8867 7.25333 23.2533 6.88667 23.4 6.41L24.5 3Z" fill="currentColor"/><path d="M6.5 10L7.4 12.82C7.52 13.18 7.82 13.48 8.18 13.6L11 14.5L8.18 15.4C7.82 15.52 7.52 15.82 7.4 16.18L6.5 19L5.6 16.18C5.48 15.82 5.18 15.52 4.82 15.4L2 14.5L4.82 13.6C5.18 13.48 5.48 13.18 5.6 12.82L6.5 10Z" fill="currentColor" width="36" height="36"/><clipPath width="36" height="36" fill="currentColor"/><rect width="36" height="36" fill="currentColor"/></svg>