<svg xmlns="http://www.w3.org/2000/svg" viewBox="0 0 1024 1024" fill="#fff"><path fill="currentColor" d="M448 604.4C448 591.7 451.8 579.4 458.8 568.8C465.8 558.3 475.8 550.1 487.5 545.2C499.2 540.4 512.1 539.1 524.5 541.6C536.9 544.1 548.3 550.2 557.3 559.1C566.3 568.1 572.3 579.5 574.8 591.9C577.3 604.3 576 617.2 571.2 628.9C566.4 640.6 558.2 650.6 547.6 657.6C537.1 664.6 524.7 668.4 512 668.4C503.6 668.4 495.3 666.8 487.5 663.6C479.7 660.4 472.7 655.7 466.7 649.7C460.8 643.8 456 636.7 452.8 628.9C449.6 621.2 448 612.9 448 604.4ZM512 711.1C481.8 711.1 452.9 723.1 431.5 744.4C410.2 765.7 398.2 794.7 398.2 824.9V881.8H443.7L455.1 995.6H568.9L580.3 881.8H625.8V824.9C625.8 794.7 613.8 765.8 592.5 744.4C571.1 723.1 542.2 711.1 512 711.1Z"/><path fill="currentColor" d="M448 604.4C448 591.7 451.8 579.4 458.8 568.8C465.8 558.3 475.8 550.1 487.5 545.2C499.2 540.4 512.1 539.1 524.5 541.6C536.9 544.1 548.3 550.2 557.3 559.1C566.3 568.1 572.3 579.5 574.8 591.9C577.3 604.3 576 617.2 571.2 628.9C566.4 640.6 558.2 650.6 547.6 657.6C537.1 664.6 524.7 668.4 512 668.4C503.6 668.4 495.3 666.8 487.5 663.6C479.7 660.4 472.7 655.7 466.7 649.7C460.8 643.8 456 636.7 452.8 628.9C449.6 621.2 448 612.9 448 604.4ZM512 711.1C481.8 711.1 452.9 723.1 431.5 744.4C410.2 765.7 398.2 794.7 398.2 824.9V881.8H443.7L455.1 995.6H568.9L580.3 881.8H625.8V824.9C625.8 794.7 613.8 765.8 592.5 744.4C571.1 723.1 542.2 711.1 512 711.1Z"/></svg>