<svg xmlns="http://www.w3.org/2000/svg" viewBox="0 0 50 50" fill="#fff"><path fill="currentColor" fillRule="evenodd" clipRule="evenodd" d="M46.7467 31.76C46.7467 31.76 44 29 37 29C30 29 27.2533 31.76 27.2533 31.76C27.2533 31.76 25 39.3733 25 42.4667C25 44.7867 28.3333 46.3333 28.3333 46.3333L32.3333 42.3333H41.6667L45.6667 46.3333C45.6667 46.3333 49 44.7867 49 42.4667C49 39.3733 46.7467 31.76 46.7467 31.76ZM35 37H33V39H31V37H29V35H31V33H33V35H35V37ZM39.3333 39C39.0037 39 38.6815 38.9023 38.4074 38.7191C38.1333 38.536 37.9197 38.2757 37.7935 37.9711C37.6674 37.6666 37.6344 37.3315 37.6987 37.0082C37.763 36.6849 37.9217 36.3879 38.1548 36.1548C38.3879 35.9217 38.6849 35.763 39.0082 35.6987C39.3315 35.6344 39.6666 35.6674 39.9711 35.7935C40.2757 35.9197 40.536 36.1333 40.7191 36.4074C40.9023 36.6815 41 37.0037 41 37.3333C41 37.5522 40.9569 37.7689 40.8731 37.9711C40.7894 38.1733 40.6666 38.3571 40.5118 38.5118C40.3571 38.6666 40.1733 38.7894 39.9711 38.8731C39.7689 38.9569 39.5522 39 39.3333 39ZM43.3333 36.3333C43.0037 36.3333 42.6815 36.2356 42.4074 36.0524C42.1333 35.8693 41.9197 35.609 41.7935 35.3045C41.6674 34.9999 41.6344 34.6648 41.6987 34.3415C41.763 34.0182 41.9217 33.7212 42.1548 33.4882C42.3879 33.2551 42.6849 33.0963 43.0082 33.032C43.3315 32.9677 43.6666 33.0007 43.9711 33.1269C44.2757 33.253 44.536 33.4666 44.7191 33.7407C44.9023 34.0148 45 34.337 45 34.6667C45 35.1087 44.8244 35.5326 44.5118 35.8452C44.1993 36.1577 43.7754 36.3333 43.3333 36.3333Z" cx="19" cy="42" r="2.5"/><path fill="currentColor"/><path fill="currentColor" d="M46.7467 31.76C46.7467 31.76 44 29 37 29C30 29 27.2533 31.76 27.2533 31.76C27.2533 31.76 25 39.3733 25 42.4667C25 44.7867 28.3333 46.3333 28.3333 46.3333L32.3333 42.3333H41.6667L45.6667 46.3333C45.6667 46.3333 49 44.7867 49 42.4667C49 39.3733 46.7467 31.76 46.7467 31.76ZM35 37H33V39H31V37H29V35H31V33H33V35H35V37ZM39.3333 39C39.0037 39 38.6815 38.9023 38.4074 38.7191C38.1333 38.536 37.9197 38.2757 37.7935 37.9711C37.6674 37.6666 37.6344 37.3315 37.6987 37.0082C37.763 36.6849 37.9217 36.3879 38.1548 36.1548C38.3879 35.9217 38.6849 35.763 39.0082 35.6987C39.3315 35.6344 39.6666 35.6674 39.9711 35.7935C40.2757 35.9197 40.536 36.1333 40.7191 36.4074C40.9023 36.6815 41 37.0037 41 37.3333C41 37.5522 40.9569 37.7689 40.8731 37.9711C40.7894 38.1733 40.6666 38.3571 40.5118 38.5118C40.3571 38.6666 40.1733 38.7894 39.9711 38.8731C39.7689 38.9569 39.5522 39 39.3333 39ZM43.3333 36.3333C43.0037 36.3333 42.6815 36.2356 42.4074 36.0524C42.1333 35.8693 41.9197 35.609 41.7935 35.3045C41.6674 34.9999 41.6344 34.6648 41.6987 34.3415C41.763 34.0182 41.9217 33.7212 42.1548 33.4882C42.3879 33.2551 42.6849 33.0963 43.0082 33.032C43.3315 32.9677 43.6666 33.0007 43.9711 33.1269C44.2757 33.253 44.536 33.4666 44.7191 33.7407C44.9023 34.0148 45 34.337 45 34.6667C45 35.1087 44.8244 35.5326 44.5118 35.8452C44.1993 36.1577 43.7754 36.3333 43.3333 36.3333Z" fillRule="evenodd" clipRule="evenodd" cx="19" cy="42" r="2.5"/><path fill="currentColor"/><circle fill="currentColor" cx="19" cy="42" r="2.5"/><circle fill="currentColor" cx="19" cy="42" r="2.5"/><circle fill="currentColor" cx="19" cy="42" r="2.5"/></svg>