<svg xmlns="http://www.w3.org/2000/svg" viewBox="0 0 32 32" fill="#fff"><path d="M3.55554 17.2959L3.55554 21.7194C7.26969 21.7194 10.2806 24.7303 10.2806 28.4445L14.7041 28.4445C14.7041 22.2873 9.71272 17.2959 3.55554 17.2959Z" fill="currentColor"/><path d="M3.55554 17.2959L3.55554 21.7194C7.26969 21.7194 10.2806 24.7303 10.2806 28.4445L14.7041 28.4445C14.7041 22.2873 9.71272 17.2959 3.55554 17.2959Z" fill="currentColor"/><path d="M3.55554 17.2959L3.55554 21.7194C7.26969 21.7194 10.2806 24.7303 10.2806 28.4445L14.7041 28.4445C14.7041 22.2873 9.71272 17.2959 3.55554 17.2959Z" fill="currentColor"/><path d="M3.55554 17.2959L3.55554 21.7194C7.26969 21.7194 10.2806 24.7303 10.2806 28.4445L14.7041 28.4445C14.7041 22.2873 9.71272 17.2959 3.55554 17.2959Z" fill="currentColor"/></svg>