<svg xmlns="http://www.w3.org/2000/svg" viewBox="0 0 36 36" fill="#fff"><path fill="currentColor" d="M23.6518 24.0625H20.7178L18.1798 19.8145H17.8738H16.0018V24.0625H13.3558V11.4625H18.0718C19.7998 11.4625 21.0718 11.8105 21.8878 12.5065C22.7038 13.1905 23.1118 14.1505 23.1118 15.3865C23.1118 16.3585 22.8958 17.1685 22.4638 17.8165C22.0438 18.4645 21.4498 18.9565 20.6818 19.2925L23.6518 24.0625ZM16.0018 13.7125V17.5465H18.0718C18.7678 17.5465 19.3078 17.3725 19.6918 17.0245C20.0878 16.6645 20.2858 16.1725 20.2858 15.5485C20.2858 14.9365 20.0938 14.4805 19.7098 14.1805C19.3378 13.8685 18.7378 13.7125 17.9098 13.7125H16.0018Z"/><path fill="currentColor" d="M23.6518 24.0625H20.7178L18.1798 19.8145H17.8738H16.0018V24.0625H13.3558V11.4625H18.0718C19.7998 11.4625 21.0718 11.8105 21.8878 12.5065C22.7038 13.1905 23.1118 14.1505 23.1118 15.3865C23.1118 16.3585 22.8958 17.1685 22.4638 17.8165C22.0438 18.4645 21.4498 18.9565 20.6818 19.2925L23.6518 24.0625ZM16.0018 13.7125V17.5465H18.0718C18.7678 17.5465 19.3078 17.3725 19.6918 17.0245C20.0878 16.6645 20.2858 16.1725 20.2858 15.5485C20.2858 14.9365 20.0938 14.4805 19.7098 14.1805C19.3378 13.8685 18.7378 13.7125 17.9098 13.7125H16.0018Z"/></svg>