<svg xmlns="http://www.w3.org/2000/svg" viewBox="0 0 36 36" fill="#fff"><path fill="currentColor" d="M3 7V3C10.9565 3 18.5871 6.16071 24.2132 11.7868C29.8393 17.4129 33 25.0435 33 33H29C29 29.5856 28.3275 26.2047 27.0209 23.0502C25.7142 19.8958 23.7991 17.0295 21.3848 14.6152C18.9705 12.2009 16.1042 10.2858 12.9498 8.97913C9.7953 7.67251 6.41437 7 3 7Z"/><path fill="currentColor" d="M3 7V3C10.9565 3 18.5871 6.16071 24.2132 11.7868C29.8393 17.4129 33 25.0435 33 33H29C29 29.5856 28.3275 26.2047 27.0209 23.0502C25.7142 19.8958 23.7991 17.0295 21.3848 14.6152C18.9705 12.2009 16.1042 10.2858 12.9498 8.97913C9.7953 7.67251 6.41437 7 3 7Z"/><path fill="currentColor" d="M3 7V3C10.9565 3 18.5871 6.16071 24.2132 11.7868C29.8393 17.4129 33 25.0435 33 33H29C29 29.5856 28.3275 26.2047 27.0209 23.0502C25.7142 19.8958 23.7991 17.0295 21.3848 14.6152C18.9705 12.2009 16.1042 10.2858 12.9498 8.97913C9.7953 7.67251 6.41437 7 3 7Z"/><path fill="currentColor" d="M3 7V3C10.9565 3 18.5871 6.16071 24.2132 11.7868C29.8393 17.4129 33 25.0435 33 33H29C29 29.5856 28.3275 26.2047 27.0209 23.0502C25.7142 19.8958 23.7991 17.0295 21.3848 14.6152C18.9705 12.2009 16.1042 10.2858 12.9498 8.97913C9.7953 7.67251 6.41437 7 3 7Z"/></svg>