<svg xmlns="http://www.w3.org/2000/svg" viewBox="0 0 24 24" width="24" height="24" fill="#fff"><path d="M3.68306 15.323C3.20306 15.803 2.77845 16.3384 2.43691 16.9199L0.341537 20.4091C0.119999 20.7784 0 21.203 0 21.6276C0 22.9384 1.06153 23.9999 2.3723 23.9999C2.79691 23.9999 3.22152 23.8799 3.59075 23.6584L7.07996 21.563C7.6615 21.2122 8.20611 20.7968 8.67688 20.3168L16.6985 12.3046L11.6954 7.30151L3.68306 15.323Z" fill="currentColor"/><path d="M3.68306 15.323C3.20306 15.803 2.77845 16.3384 2.43691 16.9199L0.341537 20.4091C0.119999 20.7784 0 21.203 0 21.6276C0 22.9384 1.06153 23.9999 2.3723 23.9999C2.79691 23.9999 3.22152 23.8799 3.59075 23.6584L7.07996 21.563C7.6615 21.2122 8.20611 20.7968 8.67688 20.3168L16.6985 12.3046L11.6954 7.30151L3.68306 15.323Z" fill="currentColor"/></svg>