<svg xmlns="http://www.w3.org/2000/svg" viewBox="0 0 37 36" width="37" height="36" fill="#fff"><rect x="6.44922" y="25.7402" width="2.64483" height="1.89759" fill="currentColor" fillRule="evenodd" clipRule="evenodd" d="M10.7189 3.75H7.14062V6.25H10.7189L10.7189 12.4258H7.14062V14.9258H10.7189L10.7189 21.1016H7.14062V23.6016H10.7189L10.7189 29.7773H7.14062V32.2773H29.4057V32.25H30.237L30.237 3.75H29.4057H10.7189ZM15.8242 21.9331L19.6261 20.3802L23.428 21.9331L19.6261 13.3789L15.8242 21.9331Z"/><rect x="6.44922" y="25.7402" width="2.64483" height="1.89759" fill="currentColor" fillRule="evenodd" clipRule="evenodd" d="M10.7189 3.75H7.14062V6.25H10.7189L10.7189 12.4258H7.14062V14.9258H10.7189L10.7189 21.1016H7.14062V23.6016H10.7189L10.7189 29.7773H7.14062V32.2773H29.4057V32.25H30.237L30.237 3.75H29.4057H10.7189ZM15.8242 21.9331L19.6261 20.3802L23.428 21.9331L19.6261 13.3789L15.8242 21.9331Z"/><rect x="6.44922" y="25.7402" width="2.64483" height="1.89759" fill="currentColor" fillRule="evenodd" clipRule="evenodd" d="M10.7189 3.75H7.14062V6.25H10.7189L10.7189 12.4258H7.14062V14.9258H10.7189L10.7189 21.1016H7.14062V23.6016H10.7189L10.7189 29.7773H7.14062V32.2773H29.4057V32.25H30.237L30.237 3.75H29.4057H10.7189ZM15.8242 21.9331L19.6261 20.3802L23.428 21.9331L19.6261 13.3789L15.8242 21.9331Z"/><path fillRule="evenodd" clipRule="evenodd" d="M10.7189 3.75H7.14062V6.25H10.7189L10.7189 12.4258H7.14062V14.9258H10.7189L10.7189 21.1016H7.14062V23.6016H10.7189L10.7189 29.7773H7.14062V32.2773H29.4057V32.25H30.237L30.237 3.75H29.4057H10.7189ZM15.8242 21.9331L19.6261 20.3802L23.428 21.9331L19.6261 13.3789L15.8242 21.9331Z" fill="currentColor"/></svg>