<svg xmlns="http://www.w3.org/2000/svg" viewBox="0 0 158 104" width="9.74366" height="3.89777" fill="#fff"><path fill="currentColor" d="M156.393 3.76298C157.111 3.34877 157.356 2.43139 156.942 1.71395C156.528 0.996508 155.611 0.750696 154.893 1.16491L1.60674 89.6649C0.889303 90.0791 0.643493 90.9965 1.05771 91.7139C1.47192 92.4314 2.3893 92.6772 3.10674 92.263L156.393 3.76298Z" stroke="currentColor" opacity="0.5" strokeWidth="0.576923" strokeMiterlimit="10" fillRule="evenodd" clipRule="evenodd" x="86.8213" y="16.4932" width="9.74366" height="3.89777" rx="1.94888"/><path fill="currentColor" d="M146.29 45.794L145.743 45.9781L136.885 19.6722L137.394 19.3744L146.29 45.794Z"/><path fill="currentColor"/><path fill="currentColor"/><path stroke="currentColor" opacity="0.5" d="M156.393 3.76298C157.111 3.34877 157.356 2.43139 156.942 1.71395C156.528 0.996508 155.611 0.750696 154.893 1.16491L1.60674 89.6649C0.889303 90.0791 0.643493 90.9965 1.05771 91.7139C1.47192 92.4314 2.3893 92.6772 3.10674 92.263L156.393 3.76298Z" strokeWidth="0.576923" strokeMiterlimit="10" fill="currentColor" fillRule="evenodd" clipRule="evenodd" x="86.8213" y="16.4932" width="9.74366" height="3.89777" rx="1.94888"/><path stroke="currentColor" d="M156.393 3.76298C157.111 3.34877 157.356 2.43139 156.942 1.71395C156.528 0.996508 155.611 0.750696 154.893 1.16491L1.60674 89.6649C0.889303 90.0791 0.643493 90.9965 1.05771 91.7139C1.47192 92.4314 2.3893 92.6772 3.10674 92.263L156.393 3.76298Z" strokeWidth="0.576923" strokeMiterlimit="10" fill="currentColor" opacity="0.5" fillRule="evenodd" clipRule="evenodd" x="86.8213" y="16.4932" width="9.74366" height="3.89777" rx="1.94888"/><path stroke="currentColor"/><path stroke="currentColor" d="M156.393 3.76298C157.111 3.34877 157.356 2.43139 156.942 1.71395C156.528 0.996508 155.611 0.750696 154.893 1.16491L1.60674 89.6649C0.889303 90.0791 0.643493 90.9965 1.05771 91.7139C1.47192 92.4314 2.3893 92.6772 3.10674 92.263L156.393 3.76298Z" strokeWidth="0.576923" strokeMiterlimit="10" fill="currentColor" opacity="0.5" fillRule="evenodd" clipRule="evenodd" x="86.8213" y="16.4932" width="9.74366" height="3.89777" rx="1.94888"/><path stroke="currentColor"/><path fill="currentColor" d="M156.393 3.76298C157.111 3.34877 157.356 2.43139 156.942 1.71395C156.528 0.996508 155.611 0.750696 154.893 1.16491L1.60674 89.6649C0.889303 90.0791 0.643493 90.9965 1.05771 91.7139C1.47192 92.4314 2.3893 92.6772 3.10674 92.263L156.393 3.76298Z" stroke="currentColor" opacity="0.5" strokeWidth="0.576923" strokeMiterlimit="10" fillRule="evenodd" clipRule="evenodd" x="86.8213" y="16.4932" width="9.74366" height="3.89777" rx="1.94888"/><path stroke="currentColor" opacity="0.5" d="M156.393 3.76298C157.111 3.34877 157.356 2.43139 156.942 1.71395C156.528 0.996508 155.611 0.750696 154.893 1.16491L1.60674 89.6649C0.889303 90.0791 0.643493 90.9965 1.05771 91.7139C1.47192 92.4314 2.3893 92.6772 3.10674 92.263L156.393 3.76298Z" strokeWidth="0.576923" strokeMiterlimit="10" fill="currentColor" fillRule="evenodd" clipRule="evenodd" x="86.8213" y="16.4932" width="9.74366" height="3.89777" rx="1.94888"/><g opacity="0.5" fill="currentColor" fillRule="evenodd" clipRule="evenodd" d="M156.393 3.76298C157.111 3.34877 157.356 2.43139 156.942 1.71395C156.528 0.996508 155.611 0.750696 154.893 1.16491L1.60674 89.6649C0.889303 90.0791 0.643493 90.9965 1.05771 91.7139C1.47192 92.4314 2.3893 92.6772 3.10674 92.263L156.393 3.76298Z" stroke="currentColor" x="86.8213" y="16.4932" width="9.74366" height="3.89777" rx="1.94888" strokeWidth="0.576923" strokeMiterlimit="10"/><path fill="currentColor" fillRule="evenodd" clipRule="evenodd" d="M156.393 3.76298C157.111 3.34877 157.356 2.43139 156.942 1.71395C156.528 0.996508 155.611 0.750696 154.893 1.16491L1.60674 89.6649C0.889303 90.0791 0.643493 90.9965 1.05771 91.7139C1.47192 92.4314 2.3893 92.6772 3.10674 92.263L156.393 3.76298Z" stroke="currentColor" x="86.8213" y="16.4932" width="9.74366" height="3.89777" rx="1.94888" strokeWidth="0.576923" strokeMiterlimit="10" opacity="0.5"/><path fill="currentColor" d="M156.393 3.76298C157.111 3.34877 157.356 2.43139 156.942 1.71395C156.528 0.996508 155.611 0.750696 154.893 1.16491L1.60674 89.6649C0.889303 90.0791 0.643493 90.9965 1.05771 91.7139C1.47192 92.4314 2.3893 92.6772 3.10674 92.263L156.393 3.76298Z" stroke="currentColor" x="86.8213" y="16.4932" width="9.74366" height="3.89777" rx="1.94888" strokeWidth="0.576923" strokeMiterlimit="10" opacity="0.5"/><path fill="currentColor" d="M156.393 3.76298C157.111 3.34877 157.356 2.43139 156.942 1.71395C156.528 0.996508 155.611 0.750696 154.893 1.16491L1.60674 89.6649C0.889303 90.0791 0.643493 90.9965 1.05771 91.7139C1.47192 92.4314 2.3893 92.6772 3.10674 92.263L156.393 3.76298Z" stroke="currentColor" x="86.8213" y="16.4932" width="9.74366" height="3.89777" rx="1.94888" strokeWidth="0.576923" strokeMiterlimit="10" opacity="0.5"/><rect stroke="currentColor" x="86.8213" y="16.4932" width="9.74366" height="3.89777" rx="1.94888" strokeWidth="0.576923" strokeMiterlimit="10" opacity="0.5" d="M156.393 3.76298C157.111 3.34877 157.356 2.43139 156.942 1.71395C156.528 0.996508 155.611 0.750696 154.893 1.16491L1.60674 89.6649C0.889303 90.0791 0.643493 90.9965 1.05771 91.7139C1.47192 92.4314 2.3893 92.6772 3.10674 92.263L156.393 3.76298Z" fill="currentColor"/><rect stroke="currentColor" x="86.8213" y="16.4932" width="9.74366" height="3.89777" rx="1.94888" strokeWidth="0.576923" strokeMiterlimit="10" opacity="0.5" d="M156.393 3.76298C157.111 3.34877 157.356 2.43139 156.942 1.71395C156.528 0.996508 155.611 0.750696 154.893 1.16491L1.60674 89.6649C0.889303 90.0791 0.643493 90.9965 1.05771 91.7139C1.47192 92.4314 2.3893 92.6772 3.10674 92.263L156.393 3.76298Z" fill="currentColor"/><path stroke="currentColor" opacity="0.5" d="M156.393 3.76298C157.111 3.34877 157.356 2.43139 156.942 1.71395C156.528 0.996508 155.611 0.750696 154.893 1.16491L1.60674 89.6649C0.889303 90.0791 0.643493 90.9965 1.05771 91.7139C1.47192 92.4314 2.3893 92.6772 3.10674 92.263L156.393 3.76298Z" strokeWidth="0.576923" strokeMiterlimit="10" fill="currentColor"/><path stroke="currentColor" d="M156.393 3.76298C157.111 3.34877 157.356 2.43139 156.942 1.71395C156.528 0.996508 155.611 0.750696 154.893 1.16491L1.60674 89.6649C0.889303 90.0791 0.643493 90.9965 1.05771 91.7139C1.47192 92.4314 2.3893 92.6772 3.10674 92.263L156.393 3.76298Z" strokeWidth="0.576923" strokeMiterlimit="10" opacity="0.5" fill="currentColor"/><path stroke="currentColor" d="M156.393 3.76298C157.111 3.34877 157.356 2.43139 156.942 1.71395C156.528 0.996508 155.611 0.750696 154.893 1.16491L1.60674 89.6649C0.889303 90.0791 0.643493 90.9965 1.05771 91.7139C1.47192 92.4314 2.3893 92.6772 3.10674 92.263L156.393 3.76298Z" strokeWidth="0.576923" strokeMiterlimit="10" opacity="0.5" fill="currentColor"/><path stroke="currentColor" opacity="0.5" d="M156.393 3.76298C157.111 3.34877 157.356 2.43139 156.942 1.71395C156.528 0.996508 155.611 0.750696 154.893 1.16491L1.60674 89.6649C0.889303 90.0791 0.643493 90.9965 1.05771 91.7139C1.47192 92.4314 2.3893 92.6772 3.10674 92.263L156.393 3.76298Z" strokeWidth="0.576923" strokeMiterlimit="10" fill="currentColor"/><path stroke="currentColor" d="M156.393 3.76298C157.111 3.34877 157.356 2.43139 156.942 1.71395C156.528 0.996508 155.611 0.750696 154.893 1.16491L1.60674 89.6649C0.889303 90.0791 0.643493 90.9965 1.05771 91.7139C1.47192 92.4314 2.3893 92.6772 3.10674 92.263L156.393 3.76298Z" strokeWidth="0.576923" strokeMiterlimit="10" opacity="0.5" fill="currentColor"/><path stroke="currentColor" d="M156.393 3.76298C157.111 3.34877 157.356 2.43139 156.942 1.71395C156.528 0.996508 155.611 0.750696 154.893 1.16491L1.60674 89.6649C0.889303 90.0791 0.643493 90.9965 1.05771 91.7139C1.47192 92.4314 2.3893 92.6772 3.10674 92.263L156.393 3.76298Z" strokeWidth="0.576923" strokeMiterlimit="10" opacity="0.5" fill="currentColor"/><path stroke="currentColor" opacity="0.5" d="M156.393 3.76298C157.111 3.34877 157.356 2.43139 156.942 1.71395C156.528 0.996508 155.611 0.750696 154.893 1.16491L1.60674 89.6649C0.889303 90.0791 0.643493 90.9965 1.05771 91.7139C1.47192 92.4314 2.3893 92.6772 3.10674 92.263L156.393 3.76298Z" strokeWidth="0.576923" strokeMiterlimit="10" fill="currentColor"/><path fill="currentColor" d="M156.393 3.76298C157.111 3.34877 157.356 2.43139 156.942 1.71395C156.528 0.996508 155.611 0.750696 154.893 1.16491L1.60674 89.6649C0.889303 90.0791 0.643493 90.9965 1.05771 91.7139C1.47192 92.4314 2.3893 92.6772 3.10674 92.263L156.393 3.76298Z"/></svg>