<svg xmlns="http://www.w3.org/2000/svg" viewBox="0 0 1002 680" width="1002" height="680" fill="#fff"><path d="M245.448 447.686C245.448 447.686 223.968 454.465 195.561 524.185C167.154 593.904 138.535 676.507 138.535 676.507" stroke="currentColor" strokeWidth="4" strokeMiterlimit="10" opacity="0.5"/><path stroke="currentColor" d="M338.548 354.903C358.611 354.903 374.875 338.639 374.875 318.576C374.875 298.512 358.611 282.248 338.548 282.248C318.485 282.248 302.22 298.512 302.22 318.576C302.22 338.639 318.485 354.903 338.548 354.903Z" strokeWidth="4" strokeMiterlimit="10" opacity="0.5" fill="#97AFDD"/><path d="M338.548 354.903C358.611 354.903 374.875 338.639 374.875 318.576C374.875 298.512 358.611 282.248 338.548 282.248C318.485 282.248 302.22 298.512 302.22 318.576C302.22 338.639 318.485 354.903 338.548 354.903Z" stroke="currentColor" strokeWidth="4" strokeMiterlimit="10" opacity="0.5" fill="#97AFDD"/><path stroke="currentColor" d="M245.448 447.686C245.448 447.686 223.968 454.465 195.561 524.185C167.154 593.904 138.535 676.507 138.535 676.507" strokeWidth="4" strokeMiterlimit="10" opacity="0.5"/><path stroke="currentColor" opacity="0.5" d="M245.448 447.686C245.448 447.686 223.968 454.465 195.561 524.185C167.154 593.904 138.535 676.507 138.535 676.507" strokeWidth="4" strokeMiterlimit="10"/><path stroke="currentColor" opacity="0.5" d="M245.448 447.686C245.448 447.686 223.968 454.465 195.561 524.185C167.154 593.904 138.535 676.507 138.535 676.507" strokeWidth="4" strokeMiterlimit="10"/><path stroke="currentColor" opacity="0.5" d="M338.548 354.903C358.611 354.903 374.875 338.639 374.875 318.576C374.875 298.512 358.611 282.248 338.548 282.248C318.485 282.248 302.22 298.512 302.22 318.576C302.22 338.639 318.485 354.903 338.548 354.903Z" strokeWidth="4" strokeMiterlimit="10" fill="#97AFDD"/><path stroke="currentColor" opacity="0.5" d="M338.548 354.903C358.611 354.903 374.875 338.639 374.875 318.576C374.875 298.512 358.611 282.248 338.548 282.248C318.485 282.248 302.22 298.512 302.22 318.576C302.22 338.639 318.485 354.903 338.548 354.903Z" strokeWidth="4" strokeMiterlimit="10" fill="#97AFDD"/><path stroke="currentColor" d="M338.548 354.903C358.611 354.903 374.875 338.639 374.875 318.576C374.875 298.512 358.611 282.248 338.548 282.248C318.485 282.248 302.22 298.512 302.22 318.576C302.22 338.639 318.485 354.903 338.548 354.903Z" strokeWidth="4" strokeMiterlimit="10" fill="#97AFDD" opacity="0.5"/><path stroke="currentColor" d="M338.548 354.903C358.611 354.903 374.875 338.639 374.875 318.576C374.875 298.512 358.611 282.248 338.548 282.248C318.485 282.248 302.22 298.512 302.22 318.576C302.22 338.639 318.485 354.903 338.548 354.903Z" strokeWidth="4" strokeMiterlimit="10" fill="#97AFDD" opacity="0.5"/><path stroke="currentColor" d="M338.548 354.903C358.611 354.903 374.875 338.639 374.875 318.576C374.875 298.512 358.611 282.248 338.548 282.248C318.485 282.248 302.22 298.512 302.22 318.576C302.22 338.639 318.485 354.903 338.548 354.903Z" strokeWidth="4" strokeMiterlimit="10" fill="#97AFDD" opacity="0.5"/><path stroke="currentColor"/><path stroke="currentColor"/><path stroke="currentColor" d="M338.548 354.903C358.611 354.903 374.875 338.639 374.875 318.576C374.875 298.512 358.611 282.248 338.548 282.248C318.485 282.248 302.22 298.512 302.22 318.576C302.22 338.639 318.485 354.903 338.548 354.903Z" strokeWidth="4" strokeMiterlimit="10" fill="#97AFDD" opacity="0.5"/><path stroke="currentColor"/><path stroke="currentColor"/><path stroke="currentColor" d="M338.548 354.903C358.611 354.903 374.875 338.639 374.875 318.576C374.875 298.512 358.611 282.248 338.548 282.248C318.485 282.248 302.22 298.512 302.22 318.576C302.22 338.639 318.485 354.903 338.548 354.903Z" strokeWidth="4" strokeMiterlimit="10" fill="#97AFDD" opacity="0.5"/><path stroke="currentColor" d="M338.548 354.903C358.611 354.903 374.875 338.639 374.875 318.576C374.875 298.512 358.611 282.248 338.548 282.248C318.485 282.248 302.22 298.512 302.22 318.576C302.22 338.639 318.485 354.903 338.548 354.903Z" strokeWidth="4" strokeMiterlimit="10" fill="#97AFDD" opacity="0.5"/><path d="M338.548 354.903C358.611 354.903 374.875 338.639 374.875 318.576C374.875 298.512 358.611 282.248 338.548 282.248C318.485 282.248 302.22 298.512 302.22 318.576C302.22 338.639 318.485 354.903 338.548 354.903Z" strokeWidth="4" stroke="currentColor" strokeMiterlimit="10" fill="#97AFDD" opacity="0.5"/><path stroke="currentColor" d="M338.548 354.903C358.611 354.903 374.875 338.639 374.875 318.576C374.875 298.512 358.611 282.248 338.548 282.248C318.485 282.248 302.22 298.512 302.22 318.576C302.22 338.639 318.485 354.903 338.548 354.903Z" strokeWidth="4" strokeMiterlimit="10" fill="#97AFDD" opacity="0.5"/><path stroke="currentColor" d="M338.548 354.903C358.611 354.903 374.875 338.639 374.875 318.576C374.875 298.512 358.611 282.248 338.548 282.248C318.485 282.248 302.22 298.512 302.22 318.576C302.22 338.639 318.485 354.903 338.548 354.903Z" strokeWidth="4" fill="#97AFDD" strokeMiterlimit="10" opacity="0.5"/><path fill="#97AFDD" d="M338.548 354.903C358.611 354.903 374.875 338.639 374.875 318.576C374.875 298.512 358.611 282.248 338.548 282.248C318.485 282.248 302.22 298.512 302.22 318.576C302.22 338.639 318.485 354.903 338.548 354.903Z" stroke="currentColor" strokeWidth="4" strokeMiterlimit="10" opacity="0.5"/><path fill="#97AFDD" d="M338.548 354.903C358.611 354.903 374.875 338.639 374.875 318.576C374.875 298.512 358.611 282.248 338.548 282.248C318.485 282.248 302.22 298.512 302.22 318.576C302.22 338.639 318.485 354.903 338.548 354.903Z" stroke="currentColor" strokeWidth="4" strokeMiterlimit="10" opacity="0.5"/><path fill="#97AFDD" d="M338.548 354.903C358.611 354.903 374.875 338.639 374.875 318.576C374.875 298.512 358.611 282.248 338.548 282.248C318.485 282.248 302.22 298.512 302.22 318.576C302.22 338.639 318.485 354.903 338.548 354.903Z" stroke="currentColor" strokeWidth="4" strokeMiterlimit="10" opacity="0.5"/><path stroke="currentColor" d="M338.548 354.903C358.611 354.903 374.875 338.639 374.875 318.576C374.875 298.512 358.611 282.248 338.548 282.248C318.485 282.248 302.22 298.512 302.22 318.576C302.22 338.639 318.485 354.903 338.548 354.903Z" strokeWidth="4" strokeMiterlimit="10" fill="#97AFDD" opacity="0.5"/><path stroke="currentColor" d="M338.548 354.903C358.611 354.903 374.875 338.639 374.875 318.576C374.875 298.512 358.611 282.248 338.548 282.248C318.485 282.248 302.22 298.512 302.22 318.576C302.22 338.639 318.485 354.903 338.548 354.903Z" strokeWidth="4" strokeMiterlimit="10" fill="#97AFDD" opacity="0.5"/><path stroke="currentColor" d="M338.548 354.903C358.611 354.903 374.875 338.639 374.875 318.576C374.875 298.512 358.611 282.248 338.548 282.248C318.485 282.248 302.22 298.512 302.22 318.576C302.22 338.639 318.485 354.903 338.548 354.903Z" strokeWidth="4" strokeMiterlimit="10" fill="#97AFDD" opacity="0.5"/><path stroke="currentColor"/><path stroke="currentColor" d="M338.548 354.903C358.611 354.903 374.875 338.639 374.875 318.576C374.875 298.512 358.611 282.248 338.548 282.248C318.485 282.248 302.22 298.512 302.22 318.576C302.22 338.639 318.485 354.903 338.548 354.903Z" strokeWidth="4" strokeMiterlimit="10" fill="#97AFDD" opacity="0.5"/><path stroke="currentColor" d="M338.548 354.903C358.611 354.903 374.875 338.639 374.875 318.576C374.875 298.512 358.611 282.248 338.548 282.248C318.485 282.248 302.22 298.512 302.22 318.576C302.22 338.639 318.485 354.903 338.548 354.903Z" strokeWidth="4" strokeMiterlimit="10" fill="#97AFDD" opacity="0.5"/><path fill="#97AFDD" d="M338.548 354.903C358.611 354.903 374.875 338.639 374.875 318.576C374.875 298.512 358.611 282.248 338.548 282.248C318.485 282.248 302.22 298.512 302.22 318.576C302.22 338.639 318.485 354.903 338.548 354.903Z" stroke="currentColor" strokeWidth="4" strokeMiterlimit="10" opacity="0.5"/><path fill="#97AFDD" d="M338.548 354.903C358.611 354.903 374.875 338.639 374.875 318.576C374.875 298.512 358.611 282.248 338.548 282.248C318.485 282.248 302.22 298.512 302.22 318.576C302.22 338.639 318.485 354.903 338.548 354.903Z" stroke="currentColor" strokeWidth="4" strokeMiterlimit="10" opacity="0.5"/><path fill="#97AFDD" d="M338.548 354.903C358.611 354.903 374.875 338.639 374.875 318.576C374.875 298.512 358.611 282.248 338.548 282.248C318.485 282.248 302.22 298.512 302.22 318.576C302.22 338.639 318.485 354.903 338.548 354.903Z" stroke="currentColor" strokeWidth="4" strokeMiterlimit="10" opacity="0.5"/><path fill="currentColor" d="M768.68 163.764H733.68V198.764H768.68V163.764Z" stroke="#8B929A" strokeWidth="3" strokeMiterlimit="10"/><path stroke="currentColor" d="M338.548 354.903C358.611 354.903 374.875 338.639 374.875 318.576C374.875 298.512 358.611 282.248 338.548 282.248C318.485 282.248 302.22 298.512 302.22 318.576C302.22 338.639 318.485 354.903 338.548 354.903Z" strokeWidth="4" strokeMiterlimit="10" fill="#97AFDD" opacity="0.5"/><path stroke="currentColor" d="M338.548 354.903C358.611 354.903 374.875 338.639 374.875 318.576C374.875 298.512 358.611 282.248 338.548 282.248C318.485 282.248 302.22 298.512 302.22 318.576C302.22 338.639 318.485 354.903 338.548 354.903Z" strokeWidth="4" strokeMiterlimit="10" fill="#97AFDD" opacity="0.5"/><path stroke="currentColor" d="M338.548 354.903C358.611 354.903 374.875 338.639 374.875 318.576C374.875 298.512 358.611 282.248 338.548 282.248C318.485 282.248 302.22 298.512 302.22 318.576C302.22 338.639 318.485 354.903 338.548 354.903Z" strokeWidth="4" strokeMiterlimit="10" fill="#97AFDD" opacity="0.5"/><path stroke="currentColor" d="M338.548 354.903C358.611 354.903 374.875 338.639 374.875 318.576C374.875 298.512 358.611 282.248 338.548 282.248C318.485 282.248 302.22 298.512 302.22 318.576C302.22 338.639 318.485 354.903 338.548 354.903Z" strokeWidth="4" strokeMiterlimit="10" fill="#97AFDD" opacity="0.5"/><path stroke="currentColor" d="M338.548 354.903C358.611 354.903 374.875 338.639 374.875 318.576C374.875 298.512 358.611 282.248 338.548 282.248C318.485 282.248 302.22 298.512 302.22 318.576C302.22 338.639 318.485 354.903 338.548 354.903Z" strokeWidth="4" strokeMiterlimit="10" fill="#97AFDD" opacity="0.5"/><path stroke="currentColor" d="M338.548 354.903C358.611 354.903 374.875 338.639 374.875 318.576C374.875 298.512 358.611 282.248 338.548 282.248C318.485 282.248 302.22 298.512 302.22 318.576C302.22 338.639 318.485 354.903 338.548 354.903Z" strokeWidth="4" strokeMiterlimit="10" fill="#97AFDD" opacity="0.5"/><path stroke="#8B929A" d="M885.273 201.264C896.319 201.264 905.273 192.309 905.273 181.264C905.273 170.218 896.319 161.264 885.273 161.264C874.228 161.264 865.273 170.218 865.273 181.264C865.273 192.309 874.228 201.264 885.273 201.264Z" strokeWidth="3" strokeMiterlimit="10" fill="#97AFDD"/><path stroke="currentColor" fill="#97AFDD" d="M338.548 354.903C358.611 354.903 374.875 338.639 374.875 318.576C374.875 298.512 358.611 282.248 338.548 282.248C318.485 282.248 302.22 298.512 302.22 318.576C302.22 338.639 318.485 354.903 338.548 354.903Z" opacity="0.5" strokeWidth="4" strokeMiterlimit="10"/><path stroke="currentColor" opacity="0.5"/><path stroke="currentColor" d="M338.548 354.903C358.611 354.903 374.875 338.639 374.875 318.576C374.875 298.512 358.611 282.248 338.548 282.248C318.485 282.248 302.22 298.512 302.22 318.576C302.22 338.639 318.485 354.903 338.548 354.903Z" strokeWidth="4" strokeMiterlimit="10" opacity="0.5"/><path stroke="currentColor" d="M338.548 354.903C358.611 354.903 374.875 338.639 374.875 318.576C374.875 298.512 358.611 282.248 338.548 282.248C318.485 282.248 302.22 298.512 302.22 318.576C302.22 338.639 318.485 354.903 338.548 354.903Z" strokeWidth="4" strokeMiterlimit="10" opacity="0.5"/><path stroke="currentColor" opacity="0.5" d="M338.548 354.903C358.611 354.903 374.875 338.639 374.875 318.576C374.875 298.512 358.611 282.248 338.548 282.248C318.485 282.248 302.22 298.512 302.22 318.576C302.22 338.639 318.485 354.903 338.548 354.903Z" strokeWidth="4" strokeMiterlimit="10"/><path stroke="currentColor" d="M338.548 354.903C358.611 354.903 374.875 338.639 374.875 318.576C374.875 298.512 358.611 282.248 338.548 282.248C318.485 282.248 302.22 298.512 302.22 318.576C302.22 338.639 318.485 354.903 338.548 354.903Z" strokeWidth="4" strokeMiterlimit="10"/><path stroke="currentColor" d="M338.548 354.903C358.611 354.903 374.875 338.639 374.875 318.576C374.875 298.512 358.611 282.248 338.548 282.248C318.485 282.248 302.22 298.512 302.22 318.576C302.22 338.639 318.485 354.903 338.548 354.903Z" strokeWidth="4" strokeMiterlimit="10"/></svg>