<svg xmlns="http://www.w3.org/2000/svg" viewBox="0 0 1280 720" width="1280" height="720" fill="#fff"><path fill="white" opacity="0.7"/><path fill="#59BF40" d="M898.043 124.5L881.265 142.118L873.707 134.212L867.75 140.386L881.265 154.5L904 130.673L898.043 124.5Z" stroke="white" cx="374.396" cy="353.396" r="24.7509" strokeWidth="3.28975"/><path fill="#59BF40" d="M898.043 124.5L881.265 142.118L873.707 134.212L867.75 140.386L881.265 154.5L904 130.673L898.043 124.5Z" stroke="white" cx="374.396" cy="353.396" r="24.7509" strokeWidth="3.28975"/><circle stroke="white" cx="374.396" cy="353.396" r="24.7509" strokeWidth="3.28975" d="M898.043 124.5L881.265 142.118L873.707 134.212L867.75 140.386L881.265 154.5L904 130.673L898.043 124.5Z" fill="#59BF40"/><path stroke="white" d="M898.043 124.5L881.265 142.118L873.707 134.212L867.75 140.386L881.265 154.5L904 130.673L898.043 124.5Z" strokeWidth="3.28975" fill="#59BF40"/><path fill="#59BF40" d="M898.043 124.5L881.265 142.118L873.707 134.212L867.75 140.386L881.265 154.5L904 130.673L898.043 124.5Z"/></svg>