<svg xmlns="http://www.w3.org/2000/svg" viewBox="0 0 36 36" width="36" height="36" fill="#fff"><path d="M34 22.7V19.7H26V17.7L31 15.1V11.15L25.25 14.15H10.75L5 11.15V15.08L10 17.68V19.68H2V22.68H10V24.6L5 27.2V31.13L10.61 28.2C11.2158 29.6612 12.2412 30.91 13.5566 31.7886C14.8719 32.6671 16.4182 33.1361 18 33.1361C19.5818 33.1361 21.1281 32.6671 22.4434 31.7886C23.7588 30.91 24.7842 29.6612 25.39 28.2L31 31.15V27.22L26 24.62V22.7H34Z" fill="currentColor"/><path d="M34 22.7V19.7H26V17.7L31 15.1V11.15L25.25 14.15H10.75L5 11.15V15.08L10 17.68V19.68H2V22.68H10V24.6L5 27.2V31.13L10.61 28.2C11.2158 29.6612 12.2412 30.91 13.5566 31.7886C14.8719 32.6671 16.4182 33.1361 18 33.1361C19.5818 33.1361 21.1281 32.6671 22.4434 31.7886C23.7588 30.91 24.7842 29.6612 25.39 28.2L31 31.15V27.22L26 24.62V22.7H34Z" fill="currentColor"/></svg>