<svg xmlns="http://www.w3.org/2000/svg" viewBox="0 0 689 239" width="16" height="26" fill="#fff"><path fill="currentColor" d="M97.9995 108.025C97.9996 85.3862 116.352 67.0336 138.992 67.0336L354.255 67.0336C371.868 67.0336 386.146 52.7552 386.146 35.1418L386.146 15.2914C386.146 8.64114 391.537 3.25006 398.188 3.25006C404.838 3.25006 410.229 8.60261 410.229 15.2528C410.229 36.6481 410.229 82.3484 410.229 116.665C410.229 123.76 415.98 129.5 423.075 129.5C430.169 129.5 435.921 123.749 435.921 116.655L435.921 16.9868C435.921 9.40023 442.071 3.25005 449.657 3.25003C457.244 3.25001 463.394 9.4002 463.394 16.9868L463.394 116.655C463.394 123.749 469.146 129.5 476.24 129.5C483.335 129.5 489.086 123.765 489.086 116.67C489.086 111.148 489.086 104.384 489.086 97.5007C489.086 79.8275 503.413 65.5001 521.086 65.5001L683.499 65.5001" stroke="currentColor" strokeWidth="6.50002" x="673" y="52.2498" width="16" height="26"/><path fill="currentColor" d="M97.9995 108.025C97.9996 85.3862 116.352 67.0336 138.992 67.0336L354.255 67.0336C371.868 67.0336 386.146 52.7552 386.146 35.1418L386.146 15.2914C386.146 8.64114 391.537 3.25006 398.188 3.25006C404.838 3.25006 410.229 8.60261 410.229 15.2528C410.229 36.6481 410.229 82.3484 410.229 116.665C410.229 123.76 415.98 129.5 423.075 129.5C430.169 129.5 435.921 123.749 435.921 116.655L435.921 16.9868C435.921 9.40023 442.071 3.25005 449.657 3.25003C457.244 3.25001 463.394 9.4002 463.394 16.9868L463.394 116.655C463.394 123.749 469.146 129.5 476.24 129.5C483.335 129.5 489.086 123.765 489.086 116.67C489.086 111.148 489.086 104.384 489.086 97.5007C489.086 79.8275 503.413 65.5001 521.086 65.5001L683.499 65.5001" stroke="currentColor" strokeWidth="6.50002" x="673" y="52.2498" width="16" height="26"/><path fill="currentColor" d="M97.9995 108.025C97.9996 85.3862 116.352 67.0336 138.992 67.0336L354.255 67.0336C371.868 67.0336 386.146 52.7552 386.146 35.1418L386.146 15.2914C386.146 8.64114 391.537 3.25006 398.188 3.25006C404.838 3.25006 410.229 8.60261 410.229 15.2528C410.229 36.6481 410.229 82.3484 410.229 116.665C410.229 123.76 415.98 129.5 423.075 129.5C430.169 129.5 435.921 123.749 435.921 116.655L435.921 16.9868C435.921 9.40023 442.071 3.25005 449.657 3.25003C457.244 3.25001 463.394 9.4002 463.394 16.9868L463.394 116.655C463.394 123.749 469.146 129.5 476.24 129.5C483.335 129.5 489.086 123.765 489.086 116.67C489.086 111.148 489.086 104.384 489.086 97.5007C489.086 79.8275 503.413 65.5001 521.086 65.5001L683.499 65.5001" stroke="currentColor" strokeWidth="6.50002" x="673" y="52.2498" width="16" height="26"/><path fill="currentColor"/><path fill="currentColor"/><path fill="currentColor" d="M97.9995 108.025C97.9996 85.3862 116.352 67.0336 138.992 67.0336L354.255 67.0336C371.868 67.0336 386.146 52.7552 386.146 35.1418L386.146 15.2914C386.146 8.64114 391.537 3.25006 398.188 3.25006C404.838 3.25006 410.229 8.60261 410.229 15.2528C410.229 36.6481 410.229 82.3484 410.229 116.665C410.229 123.76 415.98 129.5 423.075 129.5C430.169 129.5 435.921 123.749 435.921 116.655L435.921 16.9868C435.921 9.40023 442.071 3.25005 449.657 3.25003C457.244 3.25001 463.394 9.4002 463.394 16.9868L463.394 116.655C463.394 123.749 469.146 129.5 476.24 129.5C483.335 129.5 489.086 123.765 489.086 116.67C489.086 111.148 489.086 104.384 489.086 97.5007C489.086 79.8275 503.413 65.5001 521.086 65.5001L683.499 65.5001" stroke="currentColor" strokeWidth="6.50002" x="673" y="52.2498" width="16" height="26"/><path fill="currentColor" d="M97.9995 108.025C97.9996 85.3862 116.352 67.0336 138.992 67.0336L354.255 67.0336C371.868 67.0336 386.146 52.7552 386.146 35.1418L386.146 15.2914C386.146 8.64114 391.537 3.25006 398.188 3.25006C404.838 3.25006 410.229 8.60261 410.229 15.2528C410.229 36.6481 410.229 82.3484 410.229 116.665C410.229 123.76 415.98 129.5 423.075 129.5C430.169 129.5 435.921 123.749 435.921 116.655L435.921 16.9868C435.921 9.40023 442.071 3.25005 449.657 3.25003C457.244 3.25001 463.394 9.4002 463.394 16.9868L463.394 116.655C463.394 123.749 469.146 129.5 476.24 129.5C483.335 129.5 489.086 123.765 489.086 116.67C489.086 111.148 489.086 104.384 489.086 97.5007C489.086 79.8275 503.413 65.5001 521.086 65.5001L683.499 65.5001" stroke="currentColor" strokeWidth="6.50002" x="673" y="52.2498" width="16" height="26"/><path fill="currentColor"/><path fill="currentColor" d="M97.9995 108.025C97.9996 85.3862 116.352 67.0336 138.992 67.0336L354.255 67.0336C371.868 67.0336 386.146 52.7552 386.146 35.1418L386.146 15.2914C386.146 8.64114 391.537 3.25006 398.188 3.25006C404.838 3.25006 410.229 8.60261 410.229 15.2528C410.229 36.6481 410.229 82.3484 410.229 116.665C410.229 123.76 415.98 129.5 423.075 129.5C430.169 129.5 435.921 123.749 435.921 116.655L435.921 16.9868C435.921 9.40023 442.071 3.25005 449.657 3.25003C457.244 3.25001 463.394 9.4002 463.394 16.9868L463.394 116.655C463.394 123.749 469.146 129.5 476.24 129.5C483.335 129.5 489.086 123.765 489.086 116.67C489.086 111.148 489.086 104.384 489.086 97.5007C489.086 79.8275 503.413 65.5001 521.086 65.5001L683.499 65.5001" stroke="currentColor" strokeWidth="6.50002" x="673" y="52.2498" width="16" height="26"/><path fill="currentColor"/><path fill="currentColor" d="M97.9995 108.025C97.9996 85.3862 116.352 67.0336 138.992 67.0336L354.255 67.0336C371.868 67.0336 386.146 52.7552 386.146 35.1418L386.146 15.2914C386.146 8.64114 391.537 3.25006 398.188 3.25006C404.838 3.25006 410.229 8.60261 410.229 15.2528C410.229 36.6481 410.229 82.3484 410.229 116.665C410.229 123.76 415.98 129.5 423.075 129.5C430.169 129.5 435.921 123.749 435.921 116.655L435.921 16.9868C435.921 9.40023 442.071 3.25005 449.657 3.25003C457.244 3.25001 463.394 9.4002 463.394 16.9868L463.394 116.655C463.394 123.749 469.146 129.5 476.24 129.5C483.335 129.5 489.086 123.765 489.086 116.67C489.086 111.148 489.086 104.384 489.086 97.5007C489.086 79.8275 503.413 65.5001 521.086 65.5001L683.499 65.5001" stroke="currentColor" strokeWidth="6.50002" x="673" y="52.2498" width="16" height="26"/><path fill="currentColor" d="M123.211 129.547C117.151 129.547 112.222 134.476 112.222 140.536C112.222 146.596 117.151 151.525 123.211 151.525C129.272 151.525 134.2 146.596 134.2 140.536C134.2 134.476 129.272 129.547 123.211 129.547ZM123.211 149.278C118.384 149.278 114.469 145.363 114.469 140.536C114.469 135.709 118.384 131.798 123.211 131.798C128.038 131.798 131.953 135.713 131.953 140.536C131.953 145.359 128.038 149.278 123.211 149.278Z"/><path fill="currentColor" d="M97.9995 108.025C97.9996 85.3862 116.352 67.0336 138.992 67.0336L354.255 67.0336C371.868 67.0336 386.146 52.7552 386.146 35.1418L386.146 15.2914C386.146 8.64114 391.537 3.25006 398.188 3.25006C404.838 3.25006 410.229 8.60261 410.229 15.2528C410.229 36.6481 410.229 82.3484 410.229 116.665C410.229 123.76 415.98 129.5 423.075 129.5C430.169 129.5 435.921 123.749 435.921 116.655L435.921 16.9868C435.921 9.40023 442.071 3.25005 449.657 3.25003C457.244 3.25001 463.394 9.4002 463.394 16.9868L463.394 116.655C463.394 123.749 469.146 129.5 476.24 129.5C483.335 129.5 489.086 123.765 489.086 116.67C489.086 111.148 489.086 104.384 489.086 97.5007C489.086 79.8275 503.413 65.5001 521.086 65.5001L683.499 65.5001" stroke="currentColor" strokeWidth="6.50002" x="673" y="52.2498" width="16" height="26"/><path fill="currentColor" d="M97.9995 108.025C97.9996 85.3862 116.352 67.0336 138.992 67.0336L354.255 67.0336C371.868 67.0336 386.146 52.7552 386.146 35.1418L386.146 15.2914C386.146 8.64114 391.537 3.25006 398.188 3.25006C404.838 3.25006 410.229 8.60261 410.229 15.2528C410.229 36.6481 410.229 82.3484 410.229 116.665C410.229 123.76 415.98 129.5 423.075 129.5C430.169 129.5 435.921 123.749 435.921 116.655L435.921 16.9868C435.921 9.40023 442.071 3.25005 449.657 3.25003C457.244 3.25001 463.394 9.4002 463.394 16.9868L463.394 116.655C463.394 123.749 469.146 129.5 476.24 129.5C483.335 129.5 489.086 123.765 489.086 116.67C489.086 111.148 489.086 104.384 489.086 97.5007C489.086 79.8275 503.413 65.5001 521.086 65.5001L683.499 65.5001" stroke="currentColor" strokeWidth="6.50002" x="673" y="52.2498" width="16" height="26"/><path fill="currentColor" d="M97.9995 108.025C97.9996 85.3862 116.352 67.0336 138.992 67.0336L354.255 67.0336C371.868 67.0336 386.146 52.7552 386.146 35.1418L386.146 15.2914C386.146 8.64114 391.537 3.25006 398.188 3.25006C404.838 3.25006 410.229 8.60261 410.229 15.2528C410.229 36.6481 410.229 82.3484 410.229 116.665C410.229 123.76 415.98 129.5 423.075 129.5C430.169 129.5 435.921 123.749 435.921 116.655L435.921 16.9868C435.921 9.40023 442.071 3.25005 449.657 3.25003C457.244 3.25001 463.394 9.4002 463.394 16.9868L463.394 116.655C463.394 123.749 469.146 129.5 476.24 129.5C483.335 129.5 489.086 123.765 489.086 116.67C489.086 111.148 489.086 104.384 489.086 97.5007C489.086 79.8275 503.413 65.5001 521.086 65.5001L683.499 65.5001" stroke="currentColor" strokeWidth="6.50002" x="673" y="52.2498" width="16" height="26"/><path fill="currentColor" d="M97.9995 108.025C97.9996 85.3862 116.352 67.0336 138.992 67.0336L354.255 67.0336C371.868 67.0336 386.146 52.7552 386.146 35.1418L386.146 15.2914C386.146 8.64114 391.537 3.25006 398.188 3.25006C404.838 3.25006 410.229 8.60261 410.229 15.2528C410.229 36.6481 410.229 82.3484 410.229 116.665C410.229 123.76 415.98 129.5 423.075 129.5C430.169 129.5 435.921 123.749 435.921 116.655L435.921 16.9868C435.921 9.40023 442.071 3.25005 449.657 3.25003C457.244 3.25001 463.394 9.4002 463.394 16.9868L463.394 116.655C463.394 123.749 469.146 129.5 476.24 129.5C483.335 129.5 489.086 123.765 489.086 116.67C489.086 111.148 489.086 104.384 489.086 97.5007C489.086 79.8275 503.413 65.5001 521.086 65.5001L683.499 65.5001" stroke="currentColor" strokeWidth="6.50002" x="673" y="52.2498" width="16" height="26"/><path stroke="currentColor" d="M97.9995 108.025C97.9996 85.3862 116.352 67.0336 138.992 67.0336L354.255 67.0336C371.868 67.0336 386.146 52.7552 386.146 35.1418L386.146 15.2914C386.146 8.64114 391.537 3.25006 398.188 3.25006C404.838 3.25006 410.229 8.60261 410.229 15.2528C410.229 36.6481 410.229 82.3484 410.229 116.665C410.229 123.76 415.98 129.5 423.075 129.5C430.169 129.5 435.921 123.749 435.921 116.655L435.921 16.9868C435.921 9.40023 442.071 3.25005 449.657 3.25003C457.244 3.25001 463.394 9.4002 463.394 16.9868L463.394 116.655C463.394 123.749 469.146 129.5 476.24 129.5C483.335 129.5 489.086 123.765 489.086 116.67C489.086 111.148 489.086 104.384 489.086 97.5007C489.086 79.8275 503.413 65.5001 521.086 65.5001L683.499 65.5001" strokeWidth="6.50002" fill="currentColor" x="673" y="52.2498" width="16" height="26"/><rect fill="currentColor" x="673" y="52.2498" width="16" height="26"/></svg>