<svg xmlns="http://www.w3.org/2000/svg" viewBox="0 0 36 36" fill="#fff"><path fill="currentColor" d="M27.6539 12.15V19.854H29.4719V21.888H27.6539V24.75H24.9719V21.888H19.0319V20.16L25.2059 12.15H27.6539ZM25.0799 15.3L21.6059 19.854H25.0799V15.3Z"/><path fill="currentColor" d="M27.6539 12.15V19.854H29.4719V21.888H27.6539V24.75H24.9719V21.888H19.0319V20.16L25.2059 12.15H27.6539ZM25.0799 15.3L21.6059 19.854H25.0799V15.3Z"/><path fill="currentColor" d="M27.6539 12.15V19.854H29.4719V21.888H27.6539V24.75H24.9719V21.888H19.0319V20.16L25.2059 12.15H27.6539ZM25.0799 15.3L21.6059 19.854H25.0799V15.3Z"/></svg>