<svg xmlns="http://www.w3.org/2000/svg" viewBox="0 0 36 36" width="36" height="36" fill="#fff"><path d="M11.3057 14.8302V17.7877H1.79932L1.79932 14.8302C1.79932 13.5751 2.3001 12.3715 3.19149 11.4841C4.08289 10.5967 5.29188 10.0981 6.55251 10.0981C7.81313 10.0981 9.02212 10.5967 9.91352 11.4841C10.8049 12.3715 11.3057 13.5751 11.3057 14.8302ZM6.55251 8.32357C7.08131 8.32357 7.59823 8.16746 8.03792 7.87498C8.4776 7.5825 8.82029 7.16679 9.02265 6.68041C9.22502 6.19403 9.27796 5.65883 9.1748 5.1425C9.07164 4.62616 8.81699 4.15188 8.44307 3.77962C8.06916 3.40736 7.59275 3.15385 7.07411 3.05115C6.55547 2.94844 6.01789 3.00115 5.52934 3.20262C5.04079 3.40408 4.62322 3.74525 4.32943 4.18298C4.03564 4.62071 3.87884 5.13534 3.87884 5.66179C3.87805 6.01156 3.94667 6.35804 4.08076 6.68133C4.21485 7.00462 4.41176 7.29837 4.66019 7.54569C4.90862 7.79302 5.20367 7.98905 5.52841 8.12254C5.85315 8.25604 6.20117 8.32435 6.55251 8.32357Z" fill="currentColor"/><path d="M8.04932 33L28.0493 4.25" fill="currentColor" stroke="currentColor" strokeWidth="1.875" strokeLinecap="round"/><path d="M8.04932 33L28.0493 4.25" stroke="currentColor" strokeWidth="1.875" strokeLinecap="round"/></svg>