<svg xmlns="http://www.w3.org/2000/svg" viewBox="0 0 36 36" width="36" height="36" fill="#fff"><path fillRule="evenodd" clipRule="evenodd" d="M24 28C28.4183 28 32 24.4183 32 20C32 15.5817 28.4183 12 24 12C19.5817 12 16 15.5817 16 20C16 24.4183 19.5817 28 24 28ZM22.5 21.5V26H25.5V21.5H30V18.5H25.5V14H22.5V18.5H18V21.5H22.5Z" fill="currentColor"/><path fillRule="evenodd" clipRule="evenodd" d="M24 28C28.4183 28 32 24.4183 32 20C32 15.5817 28.4183 12 24 12C19.5817 12 16 15.5817 16 20C16 24.4183 19.5817 28 24 28ZM22.5 21.5V26H25.5V21.5H30V18.5H25.5V14H22.5V18.5H18V21.5H22.5Z" fill="currentColor"/></svg>