<svg xmlns="http://www.w3.org/2000/svg" viewBox="0 0 36 36" width="36" height="36" fill="#fff"><path d="M24.6599 31.4394L24.6582 31.4402C24.1299 31.7025 23.5854 31.9342 23.0274 32.1334L23.028 32.1349L23.0289 32.1346C24.2724 31.6914 25.4429 31.088 26.514 30.3482L26.5154 30.3472L25.1107 28.3133L25.1092 28.3144C24.6171 28.6541 24.1 28.9594 23.5614 29.227L24.6599 31.4394Z" fill="currentColor "/><path d="M31.4388 11.3316L31.4396 11.3332C31.7019 11.8616 31.9337 12.4062 32.1329 12.9643L32.1347 12.9636L32.1343 12.9627C31.6911 11.7192 31.0877 10.5488 30.3479 9.47764L30.3469 9.47617L28.3131 10.8809L28.3141 10.8824C28.6538 11.3744 28.959 11.8914 29.2265 12.4299L31.4388 11.3316Z" fill="currentColor " cx="17.9963" cy="17.9964" r="8.42106" transform="rotate(2.9087 17.9963 17.9964)" stroke="currentColor " strokeWidth="2"/><path d="M24.6599 31.4394L24.6582 31.4402C24.1299 31.7025 23.5854 31.9342 23.0274 32.1334L23.028 32.1349L23.0289 32.1346C24.2724 31.6914 25.4429 31.088 26.514 30.3482L26.5154 30.3472L25.1107 28.3133L25.1092 28.3144C24.6171 28.6541 24.1 28.9594 23.5614 29.227L24.6599 31.4394Z" fill="currentColor "/><path d="M31.4388 11.3316L31.4396 11.3332C31.7019 11.8616 31.9337 12.4062 32.1329 12.9643L32.1347 12.9636L32.1343 12.9627C31.6911 11.7192 31.0877 10.5488 30.3479 9.47764L30.3469 9.47617L28.3131 10.8809L28.3141 10.8824C28.6538 11.3744 28.959 11.8914 29.2265 12.4299L31.4388 11.3316Z" fill="currentColor " cx="17.9963" cy="17.9964" r="8.42106" transform="rotate(2.9087 17.9963 17.9964)" stroke="currentColor " strokeWidth="2"/><path d="M31.4388 11.3316L31.4396 11.3332C31.7019 11.8616 31.9337 12.4062 32.1329 12.9643L32.1347 12.9636L32.1343 12.9627C31.6911 11.7192 31.0877 10.5488 30.3479 9.47764L30.3469 9.47617L28.3131 10.8809L28.3141 10.8824C28.6538 11.3744 28.959 11.8914 29.2265 12.4299L31.4388 11.3316Z" fill="currentColor " cx="17.9963" cy="17.9964" r="8.42106" transform="rotate(2.9087 17.9963 17.9964)" stroke="currentColor " strokeWidth="2"/><path d="M31.4388 11.3316L31.4396 11.3332C31.7019 11.8616 31.9337 12.4062 32.1329 12.9643L32.1347 12.9636L32.1343 12.9627C31.6911 11.7192 31.0877 10.5488 30.3479 9.47764L30.3469 9.47617L28.3131 10.8809L28.3141 10.8824C28.6538 11.3744 28.959 11.8914 29.2265 12.4299L31.4388 11.3316Z" fill="currentColor " cx="17.9963" cy="17.9964" r="8.42106" transform="rotate(2.9087 17.9963 17.9964)" stroke="currentColor " strokeWidth="2"/><path d="M31.4388 11.3316L31.4396 11.3332C31.7019 11.8616 31.9337 12.4062 32.1329 12.9643L32.1347 12.9636L32.1343 12.9627C31.6911 11.7192 31.0877 10.5488 30.3479 9.47764L30.3469 9.47617L28.3131 10.8809L28.3141 10.8824C28.6538 11.3744 28.959 11.8914 29.2265 12.4299L31.4388 11.3316Z" fill="currentColor " cx="17.9963" cy="17.9964" r="8.42106" transform="rotate(2.9087 17.9963 17.9964)" stroke="currentColor " strokeWidth="2"/><path d="M31.4388 11.3316L31.4396 11.3332C31.7019 11.8616 31.9337 12.4062 32.1329 12.9643L32.1347 12.9636L32.1343 12.9627C31.6911 11.7192 31.0877 10.5488 30.3479 9.47764L30.3469 9.47617L28.3131 10.8809L28.3141 10.8824C28.6538 11.3744 28.959 11.8914 29.2265 12.4299L31.4388 11.3316Z" fill="currentColor " cx="17.9963" cy="17.9964" r="8.42106" transform="rotate(2.9087 17.9963 17.9964)" stroke="currentColor " strokeWidth="2"/><path d="M31.4388 11.3316L31.4396 11.3332C31.7019 11.8616 31.9337 12.4062 32.1329 12.9643L32.1347 12.9636L32.1343 12.9627C31.6911 11.7192 31.0877 10.5488 30.3479 9.47764L30.3469 9.47617L28.3131 10.8809L28.3141 10.8824C28.6538 11.3744 28.959 11.8914 29.2265 12.4299L31.4388 11.3316Z" fill="currentColor " cx="17.9963" cy="17.9964" r="8.42106" transform="rotate(2.9087 17.9963 17.9964)" stroke="currentColor " strokeWidth="2"/><circle cx="17.9963" cy="17.9964" r="8.42106" transform="rotate(2.9087 17.9963 17.9964)"/></svg>