<svg xmlns="http://www.w3.org/2000/svg" viewBox="0 0 36 36" fill="#fff"><path fill="currentColor" d="M14 30C14 27.2386 11.7614 25 9 25C6.23858 25 4 27.2386 4 30V32H14V30Z"/><path fill="currentColor" d="M14 30C14 27.2386 11.7614 25 9 25C6.23858 25 4 27.2386 4 30V32H14V30Z"/><path fill="currentColor" d="M14 30C14 27.2386 11.7614 25 9 25C6.23858 25 4 27.2386 4 30V32H14V30Z"/><path fill="currentColor" d="M14 30C14 27.2386 11.7614 25 9 25C6.23858 25 4 27.2386 4 30V32H14V30Z"/><path fill="currentColor" d="M14 30C14 27.2386 11.7614 25 9 25C6.23858 25 4 27.2386 4 30V32H14V30Z"/></svg>