<svg xmlns="http://www.w3.org/2000/svg" viewBox="0 0 24 24" fill="#fff"><path d="M7 8H5V19H15V17H16V19L15.9951 19.1025C15.9472 19.573 15.573 19.9472 15.1025 19.9951L15 20H5L4.89746 19.9951C4.42703 19.9472 4.05278 19.573 4.00488 19.1025L4 19V8C4 7.48232 4.39333 7.05621 4.89746 7.00488L5 7H7V8Z" fill="currentColor"/><path d="M7 8H5V19H15V17H16V19L15.9951 19.1025C15.9472 19.573 15.573 19.9472 15.1025 19.9951L15 20H5L4.89746 19.9951C4.42703 19.9472 4.05278 19.573 4.00488 19.1025L4 19V8C4 7.48232 4.39333 7.05621 4.89746 7.00488L5 7H7V8Z" fill="currentColor"/></svg>