<svg xmlns="http://www.w3.org/2000/svg" viewBox="0 0 315 221" fill="#fff"><path fill="currentColor" d="M112.411 170.625C112.556 170.646 112.7 170.664 112.844 170.679C112.7 170.664 112.556 170.646 112.411 170.625ZM68.5723 162.85C68.9337 162.957 69.3025 163.051 69.6787 163.126C69.7859 163.148 69.8937 163.168 70.002 163.187V163.188C69.5134 163.102 69.0367 162.988 68.5723 162.85ZM71.2578 108.92C72.0358 104.489 76.2591 101.527 80.6904 102.304L122.682 109.677C127.113 110.455 130.076 114.679 129.298 119.111L122.219 159.43C121.441 163.862 117.217 166.824 112.785 166.046L70.7939 158.673C66.3628 157.895 63.401 153.672 64.1787 149.241L71.2578 108.92ZM125.521 163.834C125.344 164.18 125.152 164.516 124.945 164.841C125.152 164.516 125.344 164.18 125.521 163.834ZM67.6328 162.532C67.7974 162.595 67.9637 162.655 68.1318 162.711C67.9637 162.655 67.7974 162.595 67.6328 162.532ZM67.1035 162.315C67.2457 162.377 67.389 162.438 67.5342 162.495C67.389 162.438 67.2457 162.377 67.1035 162.315ZM126.442 161.494C126.373 161.741 126.294 161.983 126.211 162.223C126.262 162.076 126.312 161.928 126.358 161.778L126.442 161.494ZM64.6934 160.929C64.9816 161.14 65.2787 161.341 65.5859 161.528C65.2787 161.341 64.9817 161.14 64.6934 160.929ZM126.623 160.769C126.605 160.853 126.585 160.936 126.565 161.019C126.585 160.936 126.605 160.853 126.623 160.769ZM59.6602 152.843C59.7266 153.223 59.8112 153.598 59.9111 153.967C59.8112 153.598 59.7266 153.223 59.6602 152.843ZM59.5117 151.677C59.5418 152.052 59.5888 152.424 59.6514 152.791C59.5888 152.424 59.5418 152.052 59.5117 151.677ZM59.4873 151.295C59.4479 150.506 59.4824 149.703 59.5957 148.893C59.4824 149.703 59.4479 150.506 59.4873 151.295ZM66.9463 107.184C66.8677 107.494 66.8003 107.809 66.7441 108.128L59.665 148.448L66.7441 108.127C66.7821 107.911 66.8257 107.697 66.874 107.486L66.9463 107.184ZM134 118.006C133.992 118.318 133.974 118.632 133.942 118.947C133.974 118.632 133.992 118.318 134 118.006ZM67.5215 105.453C67.3709 105.817 67.2357 106.19 67.1182 106.573C67.2357 106.19 67.3709 105.817 67.5215 105.453ZM125.037 105.539C124.734 105.445 124.425 105.363 124.111 105.292L124.117 105.292C124.429 105.364 124.736 105.446 125.037 105.539ZM67.7656 104.899C67.6931 105.053 67.6232 105.209 67.5566 105.367C67.6232 105.209 67.6931 105.053 67.7656 104.899ZM68.8867 102.976C68.5372 103.47 68.221 103.991 67.9424 104.537C68.221 103.991 68.5371 103.47 68.8867 102.976ZM80.5654 97.6636C80.7629 97.6838 80.9609 97.7081 81.1592 97.7378C80.9609 97.7081 80.7629 97.6838 80.5654 97.6636ZM125.921 162.982C125.9 163.031 125.878 163.08 125.856 163.128C125.878 163.08 125.9 163.031 125.921 162.982ZM59.6123 148.772L59.6133 148.767C59.607 148.809 59.6016 148.851 59.5957 148.893C59.6013 148.853 59.6063 148.812 59.6123 148.772ZM59.4971 151.469C59.4934 151.411 59.4902 151.353 59.4873 151.295C59.4902 151.353 59.4934 151.411 59.4971 151.469ZM133.979 116.88C133.982 116.937 133.985 116.993 133.988 117.049C133.985 116.993 133.982 116.937 133.979 116.88ZM133.994 117.205C133.996 117.255 133.999 117.305 134 117.356C133.999 117.305 133.996 117.255 133.994 117.205ZM134.003 117.544C134.003 117.586 134.004 117.628 134.004 117.669C134.004 117.628 134.003 117.586 134.003 117.544ZM134.002 117.865C134.001 117.909 134.002 117.953 134.001 117.997C134.002 117.953 134.001 117.909 134.002 117.865Z" cx="202.429" cy="77.1477" r="14.5135"/><path fill="currentColor" d="M112.411 170.625C112.556 170.646 112.7 170.664 112.844 170.679C112.7 170.664 112.556 170.646 112.411 170.625ZM68.5723 162.85C68.9337 162.957 69.3025 163.051 69.6787 163.126C69.7859 163.148 69.8937 163.168 70.002 163.187V163.188C69.5134 163.102 69.0367 162.988 68.5723 162.85ZM71.2578 108.92C72.0358 104.489 76.2591 101.527 80.6904 102.304L122.682 109.677C127.113 110.455 130.076 114.679 129.298 119.111L122.219 159.43C121.441 163.862 117.217 166.824 112.785 166.046L70.7939 158.673C66.3628 157.895 63.401 153.672 64.1787 149.241L71.2578 108.92ZM125.521 163.834C125.344 164.18 125.152 164.516 124.945 164.841C125.152 164.516 125.344 164.18 125.521 163.834ZM67.6328 162.532C67.7974 162.595 67.9637 162.655 68.1318 162.711C67.9637 162.655 67.7974 162.595 67.6328 162.532ZM67.1035 162.315C67.2457 162.377 67.389 162.438 67.5342 162.495C67.389 162.438 67.2457 162.377 67.1035 162.315ZM126.442 161.494C126.373 161.741 126.294 161.983 126.211 162.223C126.262 162.076 126.312 161.928 126.358 161.778L126.442 161.494ZM64.6934 160.929C64.9816 161.14 65.2787 161.341 65.5859 161.528C65.2787 161.341 64.9817 161.14 64.6934 160.929ZM126.623 160.769C126.605 160.853 126.585 160.936 126.565 161.019C126.585 160.936 126.605 160.853 126.623 160.769ZM59.6602 152.843C59.7266 153.223 59.8112 153.598 59.9111 153.967C59.8112 153.598 59.7266 153.223 59.6602 152.843ZM59.5117 151.677C59.5418 152.052 59.5888 152.424 59.6514 152.791C59.5888 152.424 59.5418 152.052 59.5117 151.677ZM59.4873 151.295C59.4479 150.506 59.4824 149.703 59.5957 148.893C59.4824 149.703 59.4479 150.506 59.4873 151.295ZM66.9463 107.184C66.8677 107.494 66.8003 107.809 66.7441 108.128L59.665 148.448L66.7441 108.127C66.7821 107.911 66.8257 107.697 66.874 107.486L66.9463 107.184ZM134 118.006C133.992 118.318 133.974 118.632 133.942 118.947C133.974 118.632 133.992 118.318 134 118.006ZM67.5215 105.453C67.3709 105.817 67.2357 106.19 67.1182 106.573C67.2357 106.19 67.3709 105.817 67.5215 105.453ZM125.037 105.539C124.734 105.445 124.425 105.363 124.111 105.292L124.117 105.292C124.429 105.364 124.736 105.446 125.037 105.539ZM67.7656 104.899C67.6931 105.053 67.6232 105.209 67.5566 105.367C67.6232 105.209 67.6931 105.053 67.7656 104.899ZM68.8867 102.976C68.5372 103.47 68.221 103.991 67.9424 104.537C68.221 103.991 68.5371 103.47 68.8867 102.976ZM80.5654 97.6636C80.7629 97.6838 80.9609 97.7081 81.1592 97.7378C80.9609 97.7081 80.7629 97.6838 80.5654 97.6636ZM125.921 162.982C125.9 163.031 125.878 163.08 125.856 163.128C125.878 163.08 125.9 163.031 125.921 162.982ZM59.6123 148.772L59.6133 148.767C59.607 148.809 59.6016 148.851 59.5957 148.893C59.6013 148.853 59.6063 148.812 59.6123 148.772ZM59.4971 151.469C59.4934 151.411 59.4902 151.353 59.4873 151.295C59.4902 151.353 59.4934 151.411 59.4971 151.469ZM133.979 116.88C133.982 116.937 133.985 116.993 133.988 117.049C133.985 116.993 133.982 116.937 133.979 116.88ZM133.994 117.205C133.996 117.255 133.999 117.305 134 117.356C133.999 117.305 133.996 117.255 133.994 117.205ZM134.003 117.544C134.003 117.586 134.004 117.628 134.004 117.669C134.004 117.628 134.003 117.586 134.003 117.544ZM134.002 117.865C134.001 117.909 134.002 117.953 134.001 117.997C134.002 117.953 134.001 117.909 134.002 117.865Z" cx="202.429" cy="77.1477" r="14.5135"/><path fill="currentColor" d="M112.411 170.625C112.556 170.646 112.7 170.664 112.844 170.679C112.7 170.664 112.556 170.646 112.411 170.625ZM68.5723 162.85C68.9337 162.957 69.3025 163.051 69.6787 163.126C69.7859 163.148 69.8937 163.168 70.002 163.187V163.188C69.5134 163.102 69.0367 162.988 68.5723 162.85ZM71.2578 108.92C72.0358 104.489 76.2591 101.527 80.6904 102.304L122.682 109.677C127.113 110.455 130.076 114.679 129.298 119.111L122.219 159.43C121.441 163.862 117.217 166.824 112.785 166.046L70.7939 158.673C66.3628 157.895 63.401 153.672 64.1787 149.241L71.2578 108.92ZM125.521 163.834C125.344 164.18 125.152 164.516 124.945 164.841C125.152 164.516 125.344 164.18 125.521 163.834ZM67.6328 162.532C67.7974 162.595 67.9637 162.655 68.1318 162.711C67.9637 162.655 67.7974 162.595 67.6328 162.532ZM67.1035 162.315C67.2457 162.377 67.389 162.438 67.5342 162.495C67.389 162.438 67.2457 162.377 67.1035 162.315ZM126.442 161.494C126.373 161.741 126.294 161.983 126.211 162.223C126.262 162.076 126.312 161.928 126.358 161.778L126.442 161.494ZM64.6934 160.929C64.9816 161.14 65.2787 161.341 65.5859 161.528C65.2787 161.341 64.9817 161.14 64.6934 160.929ZM126.623 160.769C126.605 160.853 126.585 160.936 126.565 161.019C126.585 160.936 126.605 160.853 126.623 160.769ZM59.6602 152.843C59.7266 153.223 59.8112 153.598 59.9111 153.967C59.8112 153.598 59.7266 153.223 59.6602 152.843ZM59.5117 151.677C59.5418 152.052 59.5888 152.424 59.6514 152.791C59.5888 152.424 59.5418 152.052 59.5117 151.677ZM59.4873 151.295C59.4479 150.506 59.4824 149.703 59.5957 148.893C59.4824 149.703 59.4479 150.506 59.4873 151.295ZM66.9463 107.184C66.8677 107.494 66.8003 107.809 66.7441 108.128L59.665 148.448L66.7441 108.127C66.7821 107.911 66.8257 107.697 66.874 107.486L66.9463 107.184ZM134 118.006C133.992 118.318 133.974 118.632 133.942 118.947C133.974 118.632 133.992 118.318 134 118.006ZM67.5215 105.453C67.3709 105.817 67.2357 106.19 67.1182 106.573C67.2357 106.19 67.3709 105.817 67.5215 105.453ZM125.037 105.539C124.734 105.445 124.425 105.363 124.111 105.292L124.117 105.292C124.429 105.364 124.736 105.446 125.037 105.539ZM67.7656 104.899C67.6931 105.053 67.6232 105.209 67.5566 105.367C67.6232 105.209 67.6931 105.053 67.7656 104.899ZM68.8867 102.976C68.5372 103.47 68.221 103.991 67.9424 104.537C68.221 103.991 68.5371 103.47 68.8867 102.976ZM80.5654 97.6636C80.7629 97.6838 80.9609 97.7081 81.1592 97.7378C80.9609 97.7081 80.7629 97.6838 80.5654 97.6636ZM125.921 162.982C125.9 163.031 125.878 163.08 125.856 163.128C125.878 163.08 125.9 163.031 125.921 162.982ZM59.6123 148.772L59.6133 148.767C59.607 148.809 59.6016 148.851 59.5957 148.893C59.6013 148.853 59.6063 148.812 59.6123 148.772ZM59.4971 151.469C59.4934 151.411 59.4902 151.353 59.4873 151.295C59.4902 151.353 59.4934 151.411 59.4971 151.469ZM133.979 116.88C133.982 116.937 133.985 116.993 133.988 117.049C133.985 116.993 133.982 116.937 133.979 116.88ZM133.994 117.205C133.996 117.255 133.999 117.305 134 117.356C133.999 117.305 133.996 117.255 133.994 117.205ZM134.003 117.544C134.003 117.586 134.004 117.628 134.004 117.669C134.004 117.628 134.003 117.586 134.003 117.544ZM134.002 117.865C134.001 117.909 134.002 117.953 134.001 117.997C134.002 117.953 134.001 117.909 134.002 117.865Z" cx="202.429" cy="77.1477" r="14.5135"/><path fill="currentColor" d="M112.411 170.625C112.556 170.646 112.7 170.664 112.844 170.679C112.7 170.664 112.556 170.646 112.411 170.625ZM68.5723 162.85C68.9337 162.957 69.3025 163.051 69.6787 163.126C69.7859 163.148 69.8937 163.168 70.002 163.187V163.188C69.5134 163.102 69.0367 162.988 68.5723 162.85ZM71.2578 108.92C72.0358 104.489 76.2591 101.527 80.6904 102.304L122.682 109.677C127.113 110.455 130.076 114.679 129.298 119.111L122.219 159.43C121.441 163.862 117.217 166.824 112.785 166.046L70.7939 158.673C66.3628 157.895 63.401 153.672 64.1787 149.241L71.2578 108.92ZM125.521 163.834C125.344 164.18 125.152 164.516 124.945 164.841C125.152 164.516 125.344 164.18 125.521 163.834ZM67.6328 162.532C67.7974 162.595 67.9637 162.655 68.1318 162.711C67.9637 162.655 67.7974 162.595 67.6328 162.532ZM67.1035 162.315C67.2457 162.377 67.389 162.438 67.5342 162.495C67.389 162.438 67.2457 162.377 67.1035 162.315ZM126.442 161.494C126.373 161.741 126.294 161.983 126.211 162.223C126.262 162.076 126.312 161.928 126.358 161.778L126.442 161.494ZM64.6934 160.929C64.9816 161.14 65.2787 161.341 65.5859 161.528C65.2787 161.341 64.9817 161.14 64.6934 160.929ZM126.623 160.769C126.605 160.853 126.585 160.936 126.565 161.019C126.585 160.936 126.605 160.853 126.623 160.769ZM59.6602 152.843C59.7266 153.223 59.8112 153.598 59.9111 153.967C59.8112 153.598 59.7266 153.223 59.6602 152.843ZM59.5117 151.677C59.5418 152.052 59.5888 152.424 59.6514 152.791C59.5888 152.424 59.5418 152.052 59.5117 151.677ZM59.4873 151.295C59.4479 150.506 59.4824 149.703 59.5957 148.893C59.4824 149.703 59.4479 150.506 59.4873 151.295ZM66.9463 107.184C66.8677 107.494 66.8003 107.809 66.7441 108.128L59.665 148.448L66.7441 108.127C66.7821 107.911 66.8257 107.697 66.874 107.486L66.9463 107.184ZM134 118.006C133.992 118.318 133.974 118.632 133.942 118.947C133.974 118.632 133.992 118.318 134 118.006ZM67.5215 105.453C67.3709 105.817 67.2357 106.19 67.1182 106.573C67.2357 106.19 67.3709 105.817 67.5215 105.453ZM125.037 105.539C124.734 105.445 124.425 105.363 124.111 105.292L124.117 105.292C124.429 105.364 124.736 105.446 125.037 105.539ZM67.7656 104.899C67.6931 105.053 67.6232 105.209 67.5566 105.367C67.6232 105.209 67.6931 105.053 67.7656 104.899ZM68.8867 102.976C68.5372 103.47 68.221 103.991 67.9424 104.537C68.221 103.991 68.5371 103.47 68.8867 102.976ZM80.5654 97.6636C80.7629 97.6838 80.9609 97.7081 81.1592 97.7378C80.9609 97.7081 80.7629 97.6838 80.5654 97.6636ZM125.921 162.982C125.9 163.031 125.878 163.08 125.856 163.128C125.878 163.08 125.9 163.031 125.921 162.982ZM59.6123 148.772L59.6133 148.767C59.607 148.809 59.6016 148.851 59.5957 148.893C59.6013 148.853 59.6063 148.812 59.6123 148.772ZM59.4971 151.469C59.4934 151.411 59.4902 151.353 59.4873 151.295C59.4902 151.353 59.4934 151.411 59.4971 151.469ZM133.979 116.88C133.982 116.937 133.985 116.993 133.988 117.049C133.985 116.993 133.982 116.937 133.979 116.88ZM133.994 117.205C133.996 117.255 133.999 117.305 134 117.356C133.999 117.305 133.996 117.255 133.994 117.205ZM134.003 117.544C134.003 117.586 134.004 117.628 134.004 117.669C134.004 117.628 134.003 117.586 134.003 117.544ZM134.002 117.865C134.001 117.909 134.002 117.953 134.001 117.997C134.002 117.953 134.001 117.909 134.002 117.865Z" cx="202.429" cy="77.1477" r="14.5135"/><path fill="currentColor" d="M112.411 170.625C112.556 170.646 112.7 170.664 112.844 170.679C112.7 170.664 112.556 170.646 112.411 170.625ZM68.5723 162.85C68.9337 162.957 69.3025 163.051 69.6787 163.126C69.7859 163.148 69.8937 163.168 70.002 163.187V163.188C69.5134 163.102 69.0367 162.988 68.5723 162.85ZM71.2578 108.92C72.0358 104.489 76.2591 101.527 80.6904 102.304L122.682 109.677C127.113 110.455 130.076 114.679 129.298 119.111L122.219 159.43C121.441 163.862 117.217 166.824 112.785 166.046L70.7939 158.673C66.3628 157.895 63.401 153.672 64.1787 149.241L71.2578 108.92ZM125.521 163.834C125.344 164.18 125.152 164.516 124.945 164.841C125.152 164.516 125.344 164.18 125.521 163.834ZM67.6328 162.532C67.7974 162.595 67.9637 162.655 68.1318 162.711C67.9637 162.655 67.7974 162.595 67.6328 162.532ZM67.1035 162.315C67.2457 162.377 67.389 162.438 67.5342 162.495C67.389 162.438 67.2457 162.377 67.1035 162.315ZM126.442 161.494C126.373 161.741 126.294 161.983 126.211 162.223C126.262 162.076 126.312 161.928 126.358 161.778L126.442 161.494ZM64.6934 160.929C64.9816 161.14 65.2787 161.341 65.5859 161.528C65.2787 161.341 64.9817 161.14 64.6934 160.929ZM126.623 160.769C126.605 160.853 126.585 160.936 126.565 161.019C126.585 160.936 126.605 160.853 126.623 160.769ZM59.6602 152.843C59.7266 153.223 59.8112 153.598 59.9111 153.967C59.8112 153.598 59.7266 153.223 59.6602 152.843ZM59.5117 151.677C59.5418 152.052 59.5888 152.424 59.6514 152.791C59.5888 152.424 59.5418 152.052 59.5117 151.677ZM59.4873 151.295C59.4479 150.506 59.4824 149.703 59.5957 148.893C59.4824 149.703 59.4479 150.506 59.4873 151.295ZM66.9463 107.184C66.8677 107.494 66.8003 107.809 66.7441 108.128L59.665 148.448L66.7441 108.127C66.7821 107.911 66.8257 107.697 66.874 107.486L66.9463 107.184ZM134 118.006C133.992 118.318 133.974 118.632 133.942 118.947C133.974 118.632 133.992 118.318 134 118.006ZM67.5215 105.453C67.3709 105.817 67.2357 106.19 67.1182 106.573C67.2357 106.19 67.3709 105.817 67.5215 105.453ZM125.037 105.539C124.734 105.445 124.425 105.363 124.111 105.292L124.117 105.292C124.429 105.364 124.736 105.446 125.037 105.539ZM67.7656 104.899C67.6931 105.053 67.6232 105.209 67.5566 105.367C67.6232 105.209 67.6931 105.053 67.7656 104.899ZM68.8867 102.976C68.5372 103.47 68.221 103.991 67.9424 104.537C68.221 103.991 68.5371 103.47 68.8867 102.976ZM80.5654 97.6636C80.7629 97.6838 80.9609 97.7081 81.1592 97.7378C80.9609 97.7081 80.7629 97.6838 80.5654 97.6636ZM125.921 162.982C125.9 163.031 125.878 163.08 125.856 163.128C125.878 163.08 125.9 163.031 125.921 162.982ZM59.6123 148.772L59.6133 148.767C59.607 148.809 59.6016 148.851 59.5957 148.893C59.6013 148.853 59.6063 148.812 59.6123 148.772ZM59.4971 151.469C59.4934 151.411 59.4902 151.353 59.4873 151.295C59.4902 151.353 59.4934 151.411 59.4971 151.469ZM133.979 116.88C133.982 116.937 133.985 116.993 133.988 117.049C133.985 116.993 133.982 116.937 133.979 116.88ZM133.994 117.205C133.996 117.255 133.999 117.305 134 117.356C133.999 117.305 133.996 117.255 133.994 117.205ZM134.003 117.544C134.003 117.586 134.004 117.628 134.004 117.669C134.004 117.628 134.003 117.586 134.003 117.544ZM134.002 117.865C134.001 117.909 134.002 117.953 134.001 117.997C134.002 117.953 134.001 117.909 134.002 117.865Z" cx="202.429" cy="77.1477" r="14.5135"/><circle fill="currentColor" cx="202.429" cy="77.1477" r="14.5135"/><circle fill="currentColor" cx="202.429" cy="77.1477" r="14.5135"/></svg>