<svg xmlns="http://www.w3.org/2000/svg" viewBox="0 0 1920 1080" width="24.2764" height="35.947" fill="#fff"><path fill="currentColor" d="M1193 141H728V0H1193V141ZM1155 77C1143.95 77 1135 85.9543 1135 97C1135 108.046 1143.95 117 1155 117C1166.05 117 1175 108.046 1175 97C1175 85.9543 1166.05 77 1155 77ZM771 107H821V87H771V107ZM852 107H902V87H852V107Z" x="863.5" y="323.5" width="27" height="55" stroke="currentColor" strokeWidth="6.06911"/><path fill="currentColor" d="M1193 141H728V0H1193V141ZM1155 77C1143.95 77 1135 85.9543 1135 97C1135 108.046 1143.95 117 1155 117C1166.05 117 1175 108.046 1175 97C1175 85.9543 1166.05 77 1155 77ZM771 107H821V87H771V107ZM852 107H902V87H852V107Z" x="863.5" y="323.5" width="27" height="55" stroke="currentColor" strokeWidth="6.06911"/><path fill="currentColor" d="M1193 141H728V0H1193V141ZM1155 77C1143.95 77 1135 85.9543 1135 97C1135 108.046 1143.95 117 1155 117C1166.05 117 1175 108.046 1175 97C1175 85.9543 1166.05 77 1155 77ZM771 107H821V87H771V107ZM852 107H902V87H852V107Z" x="863.5" y="323.5" width="27" height="55" stroke="currentColor" strokeWidth="6.06911"/><path fill="currentColor" d="M1193 141H728V0H1193V141ZM1155 77C1143.95 77 1135 85.9543 1135 97C1135 108.046 1143.95 117 1155 117C1166.05 117 1175 108.046 1175 97C1175 85.9543 1166.05 77 1155 77ZM771 107H821V87H771V107ZM852 107H902V87H852V107Z" x="863.5" y="323.5" width="27" height="55" stroke="currentColor" strokeWidth="6.06911"/><path fill="#1A9FFF"/><rect fill="currentColor" x="863.5" y="323.5" width="27" height="55" stroke="currentColor" strokeWidth="6.06911" d="M1193 141H728V0H1193V141ZM1155 77C1143.95 77 1135 85.9543 1135 97C1135 108.046 1143.95 117 1155 117C1166.05 117 1175 108.046 1175 97C1175 85.9543 1166.05 77 1155 77ZM771 107H821V87H771V107ZM852 107H902V87H852V107Z"/><rect fill="currentColor" x="863.5" y="323.5" width="27" height="55" stroke="currentColor" strokeWidth="6.06911" d="M1193 141H728V0H1193V141ZM1155 77C1143.95 77 1135 85.9543 1135 97C1135 108.046 1143.95 117 1155 117C1166.05 117 1175 108.046 1175 97C1175 85.9543 1166.05 77 1155 77ZM771 107H821V87H771V107ZM852 107H902V87H852V107Z"/><rect fill="currentColor" x="863.5" y="323.5" width="27" height="55" stroke="currentColor" strokeWidth="6.06911" d="M1193 141H728V0H1193V141ZM1155 77C1143.95 77 1135 85.9543 1135 97C1135 108.046 1143.95 117 1155 117C1166.05 117 1175 108.046 1175 97C1175 85.9543 1166.05 77 1155 77ZM771 107H821V87H771V107ZM852 107H902V87H852V107Z"/><rect stroke="currentColor" x="863.5" y="323.5" width="27" height="55" strokeWidth="6.06911" d="M1193 141H728V0H1193V141ZM1155 77C1143.95 77 1135 85.9543 1135 97C1135 108.046 1143.95 117 1155 117C1166.05 117 1175 108.046 1175 97C1175 85.9543 1166.05 77 1155 77ZM771 107H821V87H771V107ZM852 107H902V87H852V107Z" fill="currentColor"/><path stroke="currentColor" d="M1193 141H728V0H1193V141ZM1155 77C1143.95 77 1135 85.9543 1135 97C1135 108.046 1143.95 117 1155 117C1166.05 117 1175 108.046 1175 97C1175 85.9543 1166.05 77 1155 77ZM771 107H821V87H771V107ZM852 107H902V87H852V107Z" strokeWidth="6.06911" fill="currentColor" x="863.5" y="323.5" width="27" height="55"/><rect fill="currentColor" x="863.5" y="323.5" width="27" height="55" stroke="currentColor" strokeWidth="6.06911" d="M1193 141H728V0H1193V141ZM1155 77C1143.95 77 1135 85.9543 1135 97C1135 108.046 1143.95 117 1155 117C1166.05 117 1175 108.046 1175 97C1175 85.9543 1166.05 77 1155 77ZM771 107H821V87H771V107ZM852 107H902V87H852V107Z"/><rect stroke="currentColor" x="863.5" y="323.5" width="27" height="55" strokeWidth="6.06911" d="M1193 141H728V0H1193V141ZM1155 77C1143.95 77 1135 85.9543 1135 97C1135 108.046 1143.95 117 1155 117C1166.05 117 1175 108.046 1175 97C1175 85.9543 1166.05 77 1155 77ZM771 107H821V87H771V107ZM852 107H902V87H852V107Z" fill="currentColor"/><path stroke="currentColor" d="M1193 141H728V0H1193V141ZM1155 77C1143.95 77 1135 85.9543 1135 97C1135 108.046 1143.95 117 1155 117C1166.05 117 1175 108.046 1175 97C1175 85.9543 1166.05 77 1155 77ZM771 107H821V87H771V107ZM852 107H902V87H852V107Z" strokeWidth="6.06911" fill="currentColor"/><path fill="currentColor" d="M1193 141H728V0H1193V141ZM1155 77C1143.95 77 1135 85.9543 1135 97C1135 108.046 1143.95 117 1155 117C1166.05 117 1175 108.046 1175 97C1175 85.9543 1166.05 77 1155 77ZM771 107H821V87H771V107ZM852 107H902V87H852V107Z"/></svg>