<svg xmlns="http://www.w3.org/2000/svg" viewBox="0 0 1000 730" fill="#fff"><defs x1="125.482" y1="199.986" x2="211.482" y2="199.986" gradientUnits="userSpaceOnUse" stopColor="#4897D2" offset="1" stopOpacity="0" stroke="currentColor" d="M418.327 202.213V195.266L411.658 198.739L404.988 202.213L411.658 205.687L418.327 209.16V202.213Z" strokeWidth="3" strokeDasharray="12 12" strokeMiterlimit="10" r="80.821" fill="currentColor" cx="388.315" cy="372.932"/><linearGradient x1="125.482" y1="199.986" x2="211.482" y2="199.986" gradientUnits="userSpaceOnUse" stopColor="#4897D2" offset="1" stopOpacity="0" stroke="currentColor" d="M418.327 202.213V195.266L411.658 198.739L404.988 202.213L411.658 205.687L418.327 209.16V202.213Z" strokeWidth="3" strokeDasharray="12 12" strokeMiterlimit="10" r="80.821" fill="currentColor" cx="388.315" cy="372.932"/><stop stopColor="#4897D2" offset="1" stopOpacity="0" x1="125.482" y1="199.986" x2="211.482" y2="199.986" gradientUnits="userSpaceOnUse" stroke="currentColor" d="M215 189C151.8 191 135.667 151.5 135.5 131.5L141 109C141.5 104.667 157 95.6 215 94C273 92.4 289.167 103.333 290 109L297 143C296 157.5 278.2 187 215 189Z" strokeWidth="2" strokeDasharray="12 12"/><stop offset="1" stopColor="#4897D2" stopOpacity="0" x1="125.482" y1="199.986" x2="211.482" y2="199.986" gradientUnits="userSpaceOnUse" stroke="currentColor" d="M215 189C151.8 191 135.667 151.5 135.5 131.5L141 109C141.5 104.667 157 95.6 215 94C273 92.4 289.167 103.333 290 109L297 143C296 157.5 278.2 187 215 189Z" strokeWidth="2" strokeDasharray="12 12"/><linearGradient x1="125.482" y1="199.986" x2="211.482" y2="199.986" gradientUnits="userSpaceOnUse" stopColor="#4897D2" offset="1" stopOpacity="0" stroke="currentColor" d="M418.327 202.213V195.266L411.658 198.739L404.988 202.213L411.658 205.687L418.327 209.16V202.213Z" strokeWidth="3" strokeDasharray="12 12" strokeMiterlimit="10" r="80.821" fill="currentColor" cx="388.315" cy="372.932"/><stop stopColor="#4897D2" offset="1" stopOpacity="0" x1="125.482" y1="199.986" x2="211.482" y2="199.986" gradientUnits="userSpaceOnUse" stroke="currentColor" d="M215 189C151.8 191 135.667 151.5 135.5 131.5L141 109C141.5 104.667 157 95.6 215 94C273 92.4 289.167 103.333 290 109L297 143C296 157.5 278.2 187 215 189Z" strokeWidth="2" strokeDasharray="12 12"/><stop offset="1" stopColor="#4897D2" stopOpacity="0" x1="125.482" y1="199.986" x2="211.482" y2="199.986" gradientUnits="userSpaceOnUse" stroke="currentColor" d="M418.327 202.213V195.266L411.658 198.739L404.988 202.213L411.658 205.687L418.327 209.16V202.213Z" strokeWidth="3" strokeDasharray="12 12" strokeMiterlimit="10" r="80.821" fill="currentColor" cx="388.315" cy="372.932"/><linearGradient x1="125.482" y1="199.986" x2="211.482" y2="199.986" gradientUnits="userSpaceOnUse" stopColor="#4897D2" offset="1" stopOpacity="0" stroke="currentColor" d="M215 189C151.8 191 135.667 151.5 135.5 131.5L141 109C141.5 104.667 157 95.6 215 94C273 92.4 289.167 103.333 290 109L297 143C296 157.5 278.2 187 215 189Z" strokeWidth="2" strokeDasharray="12 12"/><stop stopColor="#4897D2" offset="1" stopOpacity="0" x1="125.482" y1="199.986" x2="211.482" y2="199.986" gradientUnits="userSpaceOnUse" stroke="currentColor" d="M215 189C151.8 191 135.667 151.5 135.5 131.5L141 109C141.5 104.667 157 95.6 215 94C273 92.4 289.167 103.333 290 109L297 143C296 157.5 278.2 187 215 189Z" strokeWidth="2" strokeDasharray="12 12"/><stop offset="1" stopColor="#4897D2" stopOpacity="0" x1="125.482" y1="199.986" x2="211.482" y2="199.986" gradientUnits="userSpaceOnUse" stroke="currentColor" d="M215 189C151.8 191 135.667 151.5 135.5 131.5L141 109C141.5 104.667 157 95.6 215 94C273 92.4 289.167 103.333 290 109L297 143C296 157.5 278.2 187 215 189Z" strokeWidth="2" strokeDasharray="12 12"/><linearGradient x1="125.482" y1="199.986" x2="211.482" y2="199.986" gradientUnits="userSpaceOnUse" stopColor="#4897D2" offset="1" stopOpacity="0" stroke="currentColor" d="M215 189C151.8 191 135.667 151.5 135.5 131.5L141 109C141.5 104.667 157 95.6 215 94C273 92.4 289.167 103.333 290 109L297 143C296 157.5 278.2 187 215 189Z" strokeWidth="2" strokeDasharray="12 12"/><stop stopColor="#4897D2" offset="1" stopOpacity="0" stroke="currentColor" d="M215 189C151.8 191 135.667 151.5 135.5 131.5L141 109C141.5 104.667 157 95.6 215 94C273 92.4 289.167 103.333 290 109L297 143C296 157.5 278.2 187 215 189Z" strokeWidth="2" strokeDasharray="12 12"/><stop offset="1" stopColor="#4897D2" stopOpacity="0" stroke="currentColor" d="M215 189C151.8 191 135.667 151.5 135.5 131.5L141 109C141.5 104.667 157 95.6 215 94C273 92.4 289.167 103.333 290 109L297 143C296 157.5 278.2 187 215 189Z" strokeWidth="2" strokeDasharray="12 12"/><path stroke="currentColor" d="M418.327 202.213V195.266L411.658 198.739L404.988 202.213L411.658 205.687L418.327 209.16V202.213Z" strokeWidth="3" strokeDasharray="12 12" strokeMiterlimit="10" r="80.821" fill="currentColor" cx="388.315" cy="372.932"/><path stroke="currentColor"/><path stroke="currentColor" d="M418.327 202.213V195.266L411.658 198.739L404.988 202.213L411.658 205.687L418.327 209.16V202.213Z" strokeWidth="3" strokeDasharray="12 12" strokeMiterlimit="10" r="80.821" fill="currentColor" cx="388.315" cy="372.932"/><path stroke="currentColor"/><path stroke="currentColor" d="M418.327 202.213V195.266L411.658 198.739L404.988 202.213L411.658 205.687L418.327 209.16V202.213Z" strokeWidth="3" strokeMiterlimit="10" r="80.821" fill="currentColor" cx="388.315" cy="372.932"/><path stroke="currentColor" d="M418.327 202.213V195.266L411.658 198.739L404.988 202.213L411.658 205.687L418.327 209.16V202.213Z" strokeWidth="3" strokeMiterlimit="10" r="80.821" fill="currentColor" cx="388.315" cy="372.932"/><path stroke="currentColor" d="M418.327 202.213V195.266L411.658 198.739L404.988 202.213L411.658 205.687L418.327 209.16V202.213Z" strokeWidth="3" strokeMiterlimit="10" r="80.821" fill="currentColor" cx="388.315" cy="372.932"/><circle r="15" fill="currentColor" strokeWidth="4"/><circle r="80.821" fill="currentColor" strokeWidth="3" d="M418.327 202.213V195.266L411.658 198.739L404.988 202.213L411.658 205.687L418.327 209.16V202.213Z" stroke="currentColor" strokeMiterlimit="10" cx="388.315" cy="372.932"/><path d="M418.327 202.213V195.266L411.658 198.739L404.988 202.213L411.658 205.687L418.327 209.16V202.213Z" stroke="currentColor" strokeMiterlimit="10" fill="currentColor" strokeWidth="3" cx="388.315" cy="372.932" r="80.821"/><path d="M418.327 202.213V195.266L411.658 198.739L404.988 202.213L411.658 205.687L418.327 209.16V202.213Z" stroke="currentColor" strokeMiterlimit="10" fill="currentColor" strokeWidth="3" cx="388.315" cy="372.932" r="80.821"/><path d="M418.327 202.213V195.266L411.658 198.739L404.988 202.213L411.658 205.687L418.327 209.16V202.213Z" stroke="currentColor" strokeMiterlimit="10" fill="currentColor" strokeWidth="3" cx="388.315" cy="372.932" r="80.821"/><path d="M418.327 202.213V195.266L411.658 198.739L404.988 202.213L411.658 205.687L418.327 209.16V202.213Z" stroke="currentColor" strokeMiterlimit="10" fill="currentColor" strokeWidth="3" cx="388.315" cy="372.932" r="80.821"/><path stroke="currentColor" d="M418.327 202.213V195.266L411.658 198.739L404.988 202.213L411.658 205.687L418.327 209.16V202.213Z" strokeMiterlimit="10" fill="currentColor" strokeWidth="3" cx="388.315" cy="372.932" r="80.821"/><path d="M418.327 202.213V195.266L411.658 198.739L404.988 202.213L411.658 205.687L418.327 209.16V202.213Z" stroke="currentColor" strokeMiterlimit="10" fill="currentColor" strokeWidth="3" cx="388.315" cy="372.932" r="80.821"/><path d="M418.327 202.213V195.266L411.658 198.739L404.988 202.213L411.658 205.687L418.327 209.16V202.213Z" stroke="currentColor" strokeMiterlimit="10" fill="currentColor" strokeWidth="3" cx="388.315" cy="372.932" r="80.821"/><path d="M418.327 202.213V195.266L411.658 198.739L404.988 202.213L411.658 205.687L418.327 209.16V202.213Z" stroke="currentColor" strokeMiterlimit="10" fill="currentColor" strokeWidth="3" cx="388.315" cy="372.932" r="80.821"/><path stroke="currentColor" d="M418.327 202.213V195.266L411.658 198.739L404.988 202.213L411.658 205.687L418.327 209.16V202.213Z" strokeMiterlimit="10" fill="currentColor" strokeWidth="3" cx="388.315" cy="372.932" r="80.821"/><path stroke="currentColor" d="M418.327 202.213V195.266L411.658 198.739L404.988 202.213L411.658 205.687L418.327 209.16V202.213Z" strokeMiterlimit="10" fill="currentColor" strokeWidth="3" cx="388.315" cy="372.932" r="80.821"/><path fill="currentColor" d="M418.327 202.213V195.266L411.658 198.739L404.988 202.213L411.658 205.687L418.327 209.16V202.213Z" stroke="currentColor" strokeWidth="3" strokeMiterlimit="10" cx="388.315" cy="372.932" r="80.821"/><path fill="currentColor" d="M418.327 202.213V195.266L411.658 198.739L404.988 202.213L411.658 205.687L418.327 209.16V202.213Z" stroke="currentColor" strokeWidth="3" strokeMiterlimit="10" cx="388.315" cy="372.932" r="80.821"/><path fill="currentColor" d="M418.327 202.213V195.266L411.658 198.739L404.988 202.213L411.658 205.687L418.327 209.16V202.213Z" stroke="currentColor" strokeWidth="3" strokeMiterlimit="10" cx="388.315" cy="372.932" r="80.821"/><path fill="currentColor" d="M418.327 202.213V195.266L411.658 198.739L404.988 202.213L411.658 205.687L418.327 209.16V202.213Z" stroke="currentColor" strokeWidth="3" strokeMiterlimit="10" cx="388.315" cy="372.932" r="80.821"/><path stroke="currentColor" d="M418.327 202.213V195.266L411.658 198.739L404.988 202.213L411.658 205.687L418.327 209.16V202.213Z" strokeWidth="3" strokeMiterlimit="10" cx="388.315" cy="372.932" r="80.821" fill="currentColor"/><path stroke="currentColor" d="M418.327 202.213V195.266L411.658 198.739L404.988 202.213L411.658 205.687L418.327 209.16V202.213Z" strokeWidth="3" strokeMiterlimit="10" cx="388.315" cy="372.932" r="80.821" fill="currentColor"/><path stroke="currentColor" d="M418.327 202.213V195.266L411.658 198.739L404.988 202.213L411.658 205.687L418.327 209.16V202.213Z" strokeWidth="3" strokeMiterlimit="10" cx="388.315" cy="372.932" r="80.821" fill="currentColor"/><path stroke="currentColor" d="M418.327 202.213V195.266L411.658 198.739L404.988 202.213L411.658 205.687L418.327 209.16V202.213Z" strokeWidth="3" strokeMiterlimit="10" cx="388.315" cy="372.932" r="80.821" fill="currentColor"/><path stroke="currentColor" d="M418.327 202.213V195.266L411.658 198.739L404.988 202.213L411.658 205.687L418.327 209.16V202.213Z" strokeWidth="3" strokeMiterlimit="10" cx="388.315" cy="372.932" r="80.821" fill="currentColor"/><path stroke="currentColor" d="M853.694 44.0912C828.614 21.7902 722.69 13.824 678.111 10.6514C600.093 5.07032 499.796 5.07031 499.796 5.07031C499.796 5.07031 399.454 5.07032 321.481 10.6514C276.903 13.824 170.956 21.7902 145.899 44.0912C135.362 53.4701 119.87 74.6826 101.529 117.27C118.133 97.0531 151.156 68.4069 210 58.009C279.265 45.8049 425.9 44.1144 499.843 43.9059C573.786 43.6975 720.397 45.8049 789.662 58.009C848.506 68.4069 881.529 97.0531 898.134 117.27C879.746 74.6826 864.254 53.4701 853.694 44.0912Z" strokeWidth="3" strokeMiterlimit="10" cx="388.315" cy="372.932" r="80.821" fill="currentColor"/><path stroke="currentColor" d="M418.327 202.213V195.266L411.658 198.739L404.988 202.213L411.658 205.687L418.327 209.16V202.213Z" strokeWidth="3" strokeMiterlimit="10" cx="388.315" cy="372.932" r="80.821" fill="currentColor"/><circle stroke="currentColor" cx="388.315" cy="372.932" r="80.821" fill="currentColor" strokeWidth="3" strokeMiterlimit="10" d="M418.327 202.213V195.266L411.658 198.739L404.988 202.213L411.658 205.687L418.327 209.16V202.213Z"/><circle stroke="currentColor" cx="388.315" cy="372.932" r="80.821" strokeMiterlimit="10" fill="currentColor" d="M418.327 202.213V195.266L411.658 198.739L404.988 202.213L411.658 205.687L418.327 209.16V202.213Z"/><path fill="currentColor" d="M418.327 202.213V195.266L411.658 198.739L404.988 202.213L411.658 205.687L418.327 209.16V202.213Z"/><path fill="currentColor" d="M418.327 202.213V195.266L411.658 198.739L404.988 202.213L411.658 205.687L418.327 209.16V202.213Z"/></svg>