<svg xmlns="http://www.w3.org/2000/svg" viewBox="0 0 657 308" width="657" height="308" fill="#fff"><path d="M620.569 30.5823L623.545 22.6463C623.545 22.6463 624.109 15.5661 633.835 21.4014C633.835 21.4014 637.92 22.6463 637.92 31.6327C637.92 40.6191 639.456 49.625 639.456 49.625" stroke="currentColor" strokeWidth="3.89022" strokeMiterlimit="10"/><path d="M206.941 191.578C206.941 172.241 191.266 156.566 171.929 156.566C152.592 156.566 136.917 172.241 136.917 191.578C136.917 210.914 152.592 226.59 171.929 226.59C191.266 226.59 206.941 210.914 206.941 191.578Z" stroke="currentColor" strokeWidth="3" strokeMiterlimit="10" fill="currentColor"/><path stroke="currentColor" d="M206.941 191.578C206.941 172.241 191.266 156.566 171.929 156.566C152.592 156.566 136.917 172.241 136.917 191.578C136.917 210.914 152.592 226.59 171.929 226.59C191.266 226.59 206.941 210.914 206.941 191.578Z" strokeWidth="3" strokeMiterlimit="10" fill="currentColor"/><path stroke="currentColor" d="M620.569 30.5823L623.545 22.6463C623.545 22.6463 624.109 15.5661 633.835 21.4014C633.835 21.4014 637.92 22.6463 637.92 31.6327C637.92 40.6191 639.456 49.625 639.456 49.625" strokeWidth="3.89022" strokeMiterlimit="10"/><path stroke="currentColor" d="M206.941 191.578C206.941 172.241 191.266 156.566 171.929 156.566C152.592 156.566 136.917 172.241 136.917 191.578C136.917 210.914 152.592 226.59 171.929 226.59C191.266 226.59 206.941 210.914 206.941 191.578Z" strokeWidth="3" strokeMiterlimit="10" fill="currentColor"/><path stroke="currentColor" d="M206.941 191.578C206.941 172.241 191.266 156.566 171.929 156.566C152.592 156.566 136.917 172.241 136.917 191.578C136.917 210.914 152.592 226.59 171.929 226.59C191.266 226.59 206.941 210.914 206.941 191.578Z" strokeWidth="3" strokeMiterlimit="10" fill="currentColor"/><path stroke="currentColor" d="M206.941 191.578C206.941 172.241 191.266 156.566 171.929 156.566C152.592 156.566 136.917 172.241 136.917 191.578C136.917 210.914 152.592 226.59 171.929 226.59C191.266 226.59 206.941 210.914 206.941 191.578Z" strokeWidth="3" strokeMiterlimit="10" fill="currentColor"/><path stroke="currentColor" d="M206.941 191.578C206.941 172.241 191.266 156.566 171.929 156.566C152.592 156.566 136.917 172.241 136.917 191.578C136.917 210.914 152.592 226.59 171.929 226.59C191.266 226.59 206.941 210.914 206.941 191.578Z" strokeWidth="3" strokeMiterlimit="10" fill="currentColor"/><path stroke="currentColor" d="M206.941 191.578C206.941 172.241 191.266 156.566 171.929 156.566C152.592 156.566 136.917 172.241 136.917 191.578C136.917 210.914 152.592 226.59 171.929 226.59C191.266 226.59 206.941 210.914 206.941 191.578Z" strokeWidth="3" strokeMiterlimit="10" fill="currentColor"/><path stroke="currentColor"/><path fill="currentColor" d="M206.941 191.578C206.941 172.241 191.266 156.566 171.929 156.566C152.592 156.566 136.917 172.241 136.917 191.578C136.917 210.914 152.592 226.59 171.929 226.59C191.266 226.59 206.941 210.914 206.941 191.578Z" stroke="currentColor" strokeWidth="3" strokeMiterlimit="10"/><path stroke="currentColor" d="M206.941 191.578C206.941 172.241 191.266 156.566 171.929 156.566C152.592 156.566 136.917 172.241 136.917 191.578C136.917 210.914 152.592 226.59 171.929 226.59C191.266 226.59 206.941 210.914 206.941 191.578Z" strokeWidth="3" strokeMiterlimit="10"/><path stroke="currentColor" d="M206.941 191.578C206.941 172.241 191.266 156.566 171.929 156.566C152.592 156.566 136.917 172.241 136.917 191.578C136.917 210.914 152.592 226.59 171.929 226.59C191.266 226.59 206.941 210.914 206.941 191.578Z" strokeWidth="3" strokeMiterlimit="10"/><path stroke="currentColor" d="M206.941 191.578C206.941 172.241 191.266 156.566 171.929 156.566C152.592 156.566 136.917 172.241 136.917 191.578C136.917 210.914 152.592 226.59 171.929 226.59C191.266 226.59 206.941 210.914 206.941 191.578Z" strokeWidth="3" strokeMiterlimit="10"/><path stroke="currentColor" d="M206.941 191.578C206.941 172.241 191.266 156.566 171.929 156.566C152.592 156.566 136.917 172.241 136.917 191.578C136.917 210.914 152.592 226.59 171.929 226.59C191.266 226.59 206.941 210.914 206.941 191.578Z" strokeWidth="3" strokeMiterlimit="10"/><path stroke="currentColor" d="M206.941 191.578C206.941 172.241 191.266 156.566 171.929 156.566C152.592 156.566 136.917 172.241 136.917 191.578C136.917 210.914 152.592 226.59 171.929 226.59C191.266 226.59 206.941 210.914 206.941 191.578Z" strokeWidth="3" strokeMiterlimit="10"/><path stroke="currentColor" d="M206.941 191.578C206.941 172.241 191.266 156.566 171.929 156.566C152.592 156.566 136.917 172.241 136.917 191.578C136.917 210.914 152.592 226.59 171.929 226.59C191.266 226.59 206.941 210.914 206.941 191.578Z" strokeWidth="3" strokeMiterlimit="10"/></svg>