<svg xmlns="http://www.w3.org/2000/svg" viewBox="0 0 32 32" fill="#fff"><path fill="currentColor" d="M24.9091 10.9091C22.0975 10.9091 19.8182 13.1884 19.8182 16C19.8182 18.8117 22.0975 21.0909 24.9091 21.0909C27.7207 21.0909 30 18.8117 30 16C30 13.1884 27.7207 10.9091 24.9091 10.9091Z"/><path fill="currentColor" d="M24.9091 10.9091C22.0975 10.9091 19.8182 13.1884 19.8182 16C19.8182 18.8117 22.0975 21.0909 24.9091 21.0909C27.7207 21.0909 30 18.8117 30 16C30 13.1884 27.7207 10.9091 24.9091 10.9091Z"/><path fill="currentColor" d="M24.9091 10.9091C22.0975 10.9091 19.8182 13.1884 19.8182 16C19.8182 18.8117 22.0975 21.0909 24.9091 21.0909C27.7207 21.0909 30 18.8117 30 16C30 13.1884 27.7207 10.9091 24.9091 10.9091Z"/><path fill="currentColor" d="M24.9091 10.9091C22.0975 10.9091 19.8182 13.1884 19.8182 16C19.8182 18.8117 22.0975 21.0909 24.9091 21.0909C27.7207 21.0909 30 18.8117 30 16C30 13.1884 27.7207 10.9091 24.9091 10.9091Z"/></svg>