<svg xmlns="http://www.w3.org/2000/svg" viewBox="0 0 1024 1024" fill="#fff"><path fill="currentColor" d="M512 56.9C358.5 56.9 205.6 76 56.8999 113.8V711.1C75.7999 706.3 94.7999 701.8 113.8 697.6C142.1 691.3 170.6 685.8 199.1 680.9V623.2C170.5 628 142.1 633.4 113.8 639.4V158.6C244.4 128.8 378 113.8 512 113.8C646 113.8 779.6 128.8 910.2 158.6V639.4C881.9 633.3 853.4 627.9 824.9 623.2V680.9C853.5 685.8 881.9 691.4 910.2 697.6C929.2 701.8 948.2 706.3 967.1 711.1V113.8C818.4 76 665.5 56.9 512 56.9Z"/><path fill="currentColor" d="M512 56.9C358.5 56.9 205.6 76 56.8999 113.8V711.1C75.7999 706.3 94.7999 701.8 113.8 697.6C142.1 691.3 170.6 685.8 199.1 680.9V623.2C170.5 628 142.1 633.4 113.8 639.4V158.6C244.4 128.8 378 113.8 512 113.8C646 113.8 779.6 128.8 910.2 158.6V639.4C881.9 633.3 853.4 627.9 824.9 623.2V680.9C853.5 685.8 881.9 691.4 910.2 697.6C929.2 701.8 948.2 706.3 967.1 711.1V113.8C818.4 76 665.5 56.9 512 56.9Z"/><path fill="currentColor" d="M512 56.9C358.5 56.9 205.6 76 56.8999 113.8V711.1C75.7999 706.3 94.7999 701.8 113.8 697.6C142.1 691.3 170.6 685.8 199.1 680.9V623.2C170.5 628 142.1 633.4 113.8 639.4V158.6C244.4 128.8 378 113.8 512 113.8C646 113.8 779.6 128.8 910.2 158.6V639.4C881.9 633.3 853.4 627.9 824.9 623.2V680.9C853.5 685.8 881.9 691.4 910.2 697.6C929.2 701.8 948.2 706.3 967.1 711.1V113.8C818.4 76 665.5 56.9 512 56.9Z"/></svg>