<svg xmlns="http://www.w3.org/2000/svg" viewBox="0 0 36 36" fill="#fff"><path fill="currentColor" fillRule="evenodd" clipRule="evenodd" d="M17.1226 21.8281C17.1567 21.9421 17.1923 22.0518 17.2292 22.1568C17.411 22.675 17.6095 23.0384 17.7903 23.2564C17.8978 23.386 17.969 23.4308 18 23.4454C18.0309 23.4308 18.1021 23.386 18.2096 23.2564C18.3904 23.0384 18.589 22.675 18.7708 22.1568C18.8062 22.0559 18.8404 21.9507 18.8734 21.8414C19.454 21.8301 20.0246 21.8033 20.5801 21.7617C20.5024 22.0757 20.4149 22.3718 20.3184 22.6469C20.1049 23.2553 19.8327 23.8035 19.4908 24.2156C19.1562 24.6189 18.6586 25 18 25C17.3413 25 16.8437 24.6189 16.5091 24.2156C16.1672 23.8035 15.8951 23.2553 15.6816 22.6469C15.5808 22.3597 15.4898 22.0495 15.4096 21.72C15.9651 21.7714 16.5379 21.8077 17.1226 21.8281ZM16.6316 18.1083C16.6313 18.0723 16.6312 18.0362 16.6312 18C16.6312 16.3411 16.8684 14.8713 17.2292 13.8432C17.411 13.325 17.6095 12.9616 17.7903 12.7436C17.8978 12.614 17.969 12.5692 18 12.5546C18.0309 12.5692 18.1021 12.614 18.2096 12.7436C18.3904 12.9616 18.589 13.325 18.7708 13.8432C19.1316 14.8713 19.3687 16.3411 19.3687 18C19.3687 18.0445 19.3685 18.0889 19.3682 18.1332C19.9413 18.1094 20.4875 18.0679 21 18.0119C21 18.0079 21 18.004 21 18C21 16.2209 20.7482 14.578 20.3184 13.3531C20.1049 12.7447 19.8327 12.1965 19.4908 11.7844C19.1562 11.3811 18.6586 11 18 11C17.3413 11 16.8437 11.3811 16.5091 11.7844C16.1672 12.1965 15.8951 12.7447 15.6816 13.3531C15.2556 14.5672 15.0044 16.1919 15 17.9529C15.5078 18.0204 16.0542 18.0734 16.6316 18.1083ZM17.985 23.4514C17.9832 23.4517 17.9824 23.4519 17.9824 23.452C17.9824 23.452 17.9825 23.452 17.9829 23.4519C17.9833 23.4518 17.984 23.4517 17.985 23.4514ZM18.0149 23.4514C18.0167 23.4517 18.0176 23.4519 18.0176 23.452C18.0176 23.452 18.0167 23.4519 18.0149 23.4514ZM18.017 12.5482C18.0174 12.5481 18.0176 12.548 18.0176 12.548C18.0176 12.548 18.0167 12.5481 18.0149 12.5486C18.0158 12.5485 18.0165 12.5483 18.017 12.5482ZM17.985 12.5486C17.9833 12.5483 17.9824 12.5481 17.9824 12.548C17.9824 12.548 17.9833 12.5481 17.985 12.5486Z"/><path fill="currentColor" fillRule="evenodd" clipRule="evenodd" d="M17.1226 21.8281C17.1567 21.9421 17.1923 22.0518 17.2292 22.1568C17.411 22.675 17.6095 23.0384 17.7903 23.2564C17.8978 23.386 17.969 23.4308 18 23.4454C18.0309 23.4308 18.1021 23.386 18.2096 23.2564C18.3904 23.0384 18.589 22.675 18.7708 22.1568C18.8062 22.0559 18.8404 21.9507 18.8734 21.8414C19.454 21.8301 20.0246 21.8033 20.5801 21.7617C20.5024 22.0757 20.4149 22.3718 20.3184 22.6469C20.1049 23.2553 19.8327 23.8035 19.4908 24.2156C19.1562 24.6189 18.6586 25 18 25C17.3413 25 16.8437 24.6189 16.5091 24.2156C16.1672 23.8035 15.8951 23.2553 15.6816 22.6469C15.5808 22.3597 15.4898 22.0495 15.4096 21.72C15.9651 21.7714 16.5379 21.8077 17.1226 21.8281ZM16.6316 18.1083C16.6313 18.0723 16.6312 18.0362 16.6312 18C16.6312 16.3411 16.8684 14.8713 17.2292 13.8432C17.411 13.325 17.6095 12.9616 17.7903 12.7436C17.8978 12.614 17.969 12.5692 18 12.5546C18.0309 12.5692 18.1021 12.614 18.2096 12.7436C18.3904 12.9616 18.589 13.325 18.7708 13.8432C19.1316 14.8713 19.3687 16.3411 19.3687 18C19.3687 18.0445 19.3685 18.0889 19.3682 18.1332C19.9413 18.1094 20.4875 18.0679 21 18.0119C21 18.0079 21 18.004 21 18C21 16.2209 20.7482 14.578 20.3184 13.3531C20.1049 12.7447 19.8327 12.1965 19.4908 11.7844C19.1562 11.3811 18.6586 11 18 11C17.3413 11 16.8437 11.3811 16.5091 11.7844C16.1672 12.1965 15.8951 12.7447 15.6816 13.3531C15.2556 14.5672 15.0044 16.1919 15 17.9529C15.5078 18.0204 16.0542 18.0734 16.6316 18.1083ZM17.985 23.4514C17.9832 23.4517 17.9824 23.4519 17.9824 23.452C17.9824 23.452 17.9825 23.452 17.9829 23.4519C17.9833 23.4518 17.984 23.4517 17.985 23.4514ZM18.0149 23.4514C18.0167 23.4517 18.0176 23.4519 18.0176 23.452C18.0176 23.452 18.0167 23.4519 18.0149 23.4514ZM18.017 12.5482C18.0174 12.5481 18.0176 12.548 18.0176 12.548C18.0176 12.548 18.0167 12.5481 18.0149 12.5486C18.0158 12.5485 18.0165 12.5483 18.017 12.5482ZM17.985 12.5486C17.9833 12.5483 17.9824 12.5481 17.9824 12.548C17.9824 12.548 17.9833 12.5481 17.985 12.5486Z"/><path fill="currentColor" fillRule="evenodd" clipRule="evenodd" d="M17.1226 21.8281C17.1567 21.9421 17.1923 22.0518 17.2292 22.1568C17.411 22.675 17.6095 23.0384 17.7903 23.2564C17.8978 23.386 17.969 23.4308 18 23.4454C18.0309 23.4308 18.1021 23.386 18.2096 23.2564C18.3904 23.0384 18.589 22.675 18.7708 22.1568C18.8062 22.0559 18.8404 21.9507 18.8734 21.8414C19.454 21.8301 20.0246 21.8033 20.5801 21.7617C20.5024 22.0757 20.4149 22.3718 20.3184 22.6469C20.1049 23.2553 19.8327 23.8035 19.4908 24.2156C19.1562 24.6189 18.6586 25 18 25C17.3413 25 16.8437 24.6189 16.5091 24.2156C16.1672 23.8035 15.8951 23.2553 15.6816 22.6469C15.5808 22.3597 15.4898 22.0495 15.4096 21.72C15.9651 21.7714 16.5379 21.8077 17.1226 21.8281ZM16.6316 18.1083C16.6313 18.0723 16.6312 18.0362 16.6312 18C16.6312 16.3411 16.8684 14.8713 17.2292 13.8432C17.411 13.325 17.6095 12.9616 17.7903 12.7436C17.8978 12.614 17.969 12.5692 18 12.5546C18.0309 12.5692 18.1021 12.614 18.2096 12.7436C18.3904 12.9616 18.589 13.325 18.7708 13.8432C19.1316 14.8713 19.3687 16.3411 19.3687 18C19.3687 18.0445 19.3685 18.0889 19.3682 18.1332C19.9413 18.1094 20.4875 18.0679 21 18.0119C21 18.0079 21 18.004 21 18C21 16.2209 20.7482 14.578 20.3184 13.3531C20.1049 12.7447 19.8327 12.1965 19.4908 11.7844C19.1562 11.3811 18.6586 11 18 11C17.3413 11 16.8437 11.3811 16.5091 11.7844C16.1672 12.1965 15.8951 12.7447 15.6816 13.3531C15.2556 14.5672 15.0044 16.1919 15 17.9529C15.5078 18.0204 16.0542 18.0734 16.6316 18.1083ZM17.985 23.4514C17.9832 23.4517 17.9824 23.4519 17.9824 23.452C17.9824 23.452 17.9825 23.452 17.9829 23.4519C17.9833 23.4518 17.984 23.4517 17.985 23.4514ZM18.0149 23.4514C18.0167 23.4517 18.0176 23.4519 18.0176 23.452C18.0176 23.452 18.0167 23.4519 18.0149 23.4514ZM18.017 12.5482C18.0174 12.5481 18.0176 12.548 18.0176 12.548C18.0176 12.548 18.0167 12.5481 18.0149 12.5486C18.0158 12.5485 18.0165 12.5483 18.017 12.5482ZM17.985 12.5486C17.9833 12.5483 17.9824 12.5481 17.9824 12.548C17.9824 12.548 17.9833 12.5481 17.985 12.5486Z"/><path fill="currentColor" fillRule="evenodd" clipRule="evenodd" d="M17.1226 21.8281C17.1567 21.9421 17.1923 22.0518 17.2292 22.1568C17.411 22.675 17.6095 23.0384 17.7903 23.2564C17.8978 23.386 17.969 23.4308 18 23.4454C18.0309 23.4308 18.1021 23.386 18.2096 23.2564C18.3904 23.0384 18.589 22.675 18.7708 22.1568C18.8062 22.0559 18.8404 21.9507 18.8734 21.8414C19.454 21.8301 20.0246 21.8033 20.5801 21.7617C20.5024 22.0757 20.4149 22.3718 20.3184 22.6469C20.1049 23.2553 19.8327 23.8035 19.4908 24.2156C19.1562 24.6189 18.6586 25 18 25C17.3413 25 16.8437 24.6189 16.5091 24.2156C16.1672 23.8035 15.8951 23.2553 15.6816 22.6469C15.5808 22.3597 15.4898 22.0495 15.4096 21.72C15.9651 21.7714 16.5379 21.8077 17.1226 21.8281ZM16.6316 18.1083C16.6313 18.0723 16.6312 18.0362 16.6312 18C16.6312 16.3411 16.8684 14.8713 17.2292 13.8432C17.411 13.325 17.6095 12.9616 17.7903 12.7436C17.8978 12.614 17.969 12.5692 18 12.5546C18.0309 12.5692 18.1021 12.614 18.2096 12.7436C18.3904 12.9616 18.589 13.325 18.7708 13.8432C19.1316 14.8713 19.3687 16.3411 19.3687 18C19.3687 18.0445 19.3685 18.0889 19.3682 18.1332C19.9413 18.1094 20.4875 18.0679 21 18.0119C21 18.0079 21 18.004 21 18C21 16.2209 20.7482 14.578 20.3184 13.3531C20.1049 12.7447 19.8327 12.1965 19.4908 11.7844C19.1562 11.3811 18.6586 11 18 11C17.3413 11 16.8437 11.3811 16.5091 11.7844C16.1672 12.1965 15.8951 12.7447 15.6816 13.3531C15.2556 14.5672 15.0044 16.1919 15 17.9529C15.5078 18.0204 16.0542 18.0734 16.6316 18.1083ZM17.985 23.4514C17.9832 23.4517 17.9824 23.4519 17.9824 23.452C17.9824 23.452 17.9825 23.452 17.9829 23.4519C17.9833 23.4518 17.984 23.4517 17.985 23.4514ZM18.0149 23.4514C18.0167 23.4517 18.0176 23.4519 18.0176 23.452C18.0176 23.452 18.0167 23.4519 18.0149 23.4514ZM18.017 12.5482C18.0174 12.5481 18.0176 12.548 18.0176 12.548C18.0176 12.548 18.0167 12.5481 18.0149 12.5486C18.0158 12.5485 18.0165 12.5483 18.017 12.5482ZM17.985 12.5486C17.9833 12.5483 17.9824 12.5481 17.9824 12.548C17.9824 12.548 17.9833 12.5481 17.985 12.5486Z"/><path fill="currentColor" fillRule="evenodd" clipRule="evenodd" d="M17.1226 21.8281C17.1567 21.9421 17.1923 22.0518 17.2292 22.1568C17.411 22.675 17.6095 23.0384 17.7903 23.2564C17.8978 23.386 17.969 23.4308 18 23.4454C18.0309 23.4308 18.1021 23.386 18.2096 23.2564C18.3904 23.0384 18.589 22.675 18.7708 22.1568C18.8062 22.0559 18.8404 21.9507 18.8734 21.8414C19.454 21.8301 20.0246 21.8033 20.5801 21.7617C20.5024 22.0757 20.4149 22.3718 20.3184 22.6469C20.1049 23.2553 19.8327 23.8035 19.4908 24.2156C19.1562 24.6189 18.6586 25 18 25C17.3413 25 16.8437 24.6189 16.5091 24.2156C16.1672 23.8035 15.8951 23.2553 15.6816 22.6469C15.5808 22.3597 15.4898 22.0495 15.4096 21.72C15.9651 21.7714 16.5379 21.8077 17.1226 21.8281ZM16.6316 18.1083C16.6313 18.0723 16.6312 18.0362 16.6312 18C16.6312 16.3411 16.8684 14.8713 17.2292 13.8432C17.411 13.325 17.6095 12.9616 17.7903 12.7436C17.8978 12.614 17.969 12.5692 18 12.5546C18.0309 12.5692 18.1021 12.614 18.2096 12.7436C18.3904 12.9616 18.589 13.325 18.7708 13.8432C19.1316 14.8713 19.3687 16.3411 19.3687 18C19.3687 18.0445 19.3685 18.0889 19.3682 18.1332C19.9413 18.1094 20.4875 18.0679 21 18.0119C21 18.0079 21 18.004 21 18C21 16.2209 20.7482 14.578 20.3184 13.3531C20.1049 12.7447 19.8327 12.1965 19.4908 11.7844C19.1562 11.3811 18.6586 11 18 11C17.3413 11 16.8437 11.3811 16.5091 11.7844C16.1672 12.1965 15.8951 12.7447 15.6816 13.3531C15.2556 14.5672 15.0044 16.1919 15 17.9529C15.5078 18.0204 16.0542 18.0734 16.6316 18.1083ZM17.985 23.4514C17.9832 23.4517 17.9824 23.4519 17.9824 23.452C17.9824 23.452 17.9825 23.452 17.9829 23.4519C17.9833 23.4518 17.984 23.4517 17.985 23.4514ZM18.0149 23.4514C18.0167 23.4517 18.0176 23.4519 18.0176 23.452C18.0176 23.452 18.0167 23.4519 18.0149 23.4514ZM18.017 12.5482C18.0174 12.5481 18.0176 12.548 18.0176 12.548C18.0176 12.548 18.0167 12.5481 18.0149 12.5486C18.0158 12.5485 18.0165 12.5483 18.017 12.5482ZM17.985 12.5486C17.9833 12.5483 17.9824 12.5481 17.9824 12.548C17.9824 12.548 17.9833 12.5481 17.985 12.5486Z"/></svg>