<svg xmlns="http://www.w3.org/2000/svg" viewBox="0 0 682 658" width="682" height="658" fill="#fff"><path stroke="currentColor" d="M292.066 137.165C292.066 137.165 278.431 172.196 292.046 228.604C292.046 228.604 304.378 229.654 304.378 217.984C304.378 206.313 303.989 158.308 303.989 146.637C303.989 134.967 292.066 137.165 292.066 137.165Z" strokeWidth="5.83533" strokeMiterlimit="10"/><path stroke="currentColor" d="M115.661 206.941C134.998 206.941 150.673 191.266 150.673 171.929C150.673 152.592 134.998 136.917 115.661 136.917C96.3243 136.917 80.6489 152.592 80.6489 171.929C80.6489 191.266 96.3243 206.941 115.661 206.941Z" strokeWidth="3" strokeMiterlimit="10" fill="currentColor"/><path stroke="currentColor" d="M292.066 137.165C292.066 137.165 278.431 172.196 292.046 228.604C292.046 228.604 304.378 229.654 304.378 217.984C304.378 206.313 303.989 158.308 303.989 146.637C303.989 134.967 292.066 137.165 292.066 137.165Z" strokeWidth="5.83533" strokeMiterlimit="10"/><path stroke="currentColor" d="M292.066 137.165C292.066 137.165 278.431 172.196 292.046 228.604C292.046 228.604 304.378 229.654 304.378 217.984C304.378 206.313 303.989 158.308 303.989 146.637C303.989 134.967 292.066 137.165 292.066 137.165Z" strokeWidth="5.83533" strokeMiterlimit="10"/><path stroke="currentColor" d="M115.661 206.941C134.998 206.941 150.673 191.266 150.673 171.929C150.673 152.592 134.998 136.917 115.661 136.917C96.3243 136.917 80.6489 152.592 80.6489 171.929C80.6489 191.266 96.3243 206.941 115.661 206.941Z" strokeWidth="3" strokeMiterlimit="10" fill="currentColor"/><path stroke="currentColor" d="M115.661 206.941C134.998 206.941 150.673 191.266 150.673 171.929C150.673 152.592 134.998 136.917 115.661 136.917C96.3243 136.917 80.6489 152.592 80.6489 171.929C80.6489 191.266 96.3243 206.941 115.661 206.941Z" strokeWidth="3" strokeMiterlimit="10" fill="currentColor"/><path stroke="currentColor" d="M115.661 206.941C134.998 206.941 150.673 191.266 150.673 171.929C150.673 152.592 134.998 136.917 115.661 136.917C96.3243 136.917 80.6489 152.592 80.6489 171.929C80.6489 191.266 96.3243 206.941 115.661 206.941Z" strokeWidth="3" strokeMiterlimit="10" fill="currentColor"/><path stroke="currentColor"/><path stroke="currentColor" d="M115.661 206.941C134.998 206.941 150.673 191.266 150.673 171.929C150.673 152.592 134.998 136.917 115.661 136.917C96.3243 136.917 80.6489 152.592 80.6489 171.929C80.6489 191.266 96.3243 206.941 115.661 206.941Z" strokeWidth="3" strokeMiterlimit="10" fill="currentColor"/><path stroke="currentColor" d="M115.661 206.941C134.998 206.941 150.673 191.266 150.673 171.929C150.673 152.592 134.998 136.917 115.661 136.917C96.3243 136.917 80.6489 152.592 80.6489 171.929C80.6489 191.266 96.3243 206.941 115.661 206.941Z" strokeWidth="3" strokeMiterlimit="10" fill="currentColor"/><path stroke="currentColor" d="M115.661 206.941C134.998 206.941 150.673 191.266 150.673 171.929C150.673 152.592 134.998 136.917 115.661 136.917C96.3243 136.917 80.6489 152.592 80.6489 171.929C80.6489 191.266 96.3243 206.941 115.661 206.941Z" strokeWidth="3" strokeMiterlimit="10" fill="currentColor"/><path stroke="currentColor" d="M115.661 206.941C134.998 206.941 150.673 191.266 150.673 171.929C150.673 152.592 134.998 136.917 115.661 136.917C96.3243 136.917 80.6489 152.592 80.6489 171.929C80.6489 191.266 96.3243 206.941 115.661 206.941Z" strokeWidth="3" strokeMiterlimit="10" fill="currentColor"/><path stroke="currentColor" d="M115.661 206.941C134.998 206.941 150.673 191.266 150.673 171.929C150.673 152.592 134.998 136.917 115.661 136.917C96.3243 136.917 80.6489 152.592 80.6489 171.929C80.6489 191.266 96.3243 206.941 115.661 206.941Z" strokeWidth="3" strokeMiterlimit="10" fill="currentColor"/><path stroke="currentColor" d="M115.661 206.941C134.998 206.941 150.673 191.266 150.673 171.929C150.673 152.592 134.998 136.917 115.661 136.917C96.3243 136.917 80.6489 152.592 80.6489 171.929C80.6489 191.266 96.3243 206.941 115.661 206.941Z" strokeWidth="3" strokeMiterlimit="10" fill="currentColor"/><path stroke="currentColor" d="M115.661 206.941C134.998 206.941 150.673 191.266 150.673 171.929C150.673 152.592 134.998 136.917 115.661 136.917C96.3243 136.917 80.6489 152.592 80.6489 171.929C80.6489 191.266 96.3243 206.941 115.661 206.941Z" strokeWidth="3" strokeMiterlimit="10" fill="currentColor"/><path stroke="currentColor" d="M115.661 206.941C134.998 206.941 150.673 191.266 150.673 171.929C150.673 152.592 134.998 136.917 115.661 136.917C96.3243 136.917 80.6489 152.592 80.6489 171.929C80.6489 191.266 96.3243 206.941 115.661 206.941Z" strokeWidth="3" strokeMiterlimit="10" fill="currentColor"/><path fill="currentColor" d="M115.661 206.941C134.998 206.941 150.673 191.266 150.673 171.929C150.673 152.592 134.998 136.917 115.661 136.917C96.3243 136.917 80.6489 152.592 80.6489 171.929C80.6489 191.266 96.3243 206.941 115.661 206.941Z" stroke="currentColor" strokeWidth="3" strokeMiterlimit="10"/><path fill="currentColor" d="M115.661 206.941C134.998 206.941 150.673 191.266 150.673 171.929C150.673 152.592 134.998 136.917 115.661 136.917C96.3243 136.917 80.6489 152.592 80.6489 171.929C80.6489 191.266 96.3243 206.941 115.661 206.941Z" stroke="currentColor" strokeWidth="3" strokeMiterlimit="10"/><path stroke="currentColor" d="M115.661 206.941C134.998 206.941 150.673 191.266 150.673 171.929C150.673 152.592 134.998 136.917 115.661 136.917C96.3243 136.917 80.6489 152.592 80.6489 171.929C80.6489 191.266 96.3243 206.941 115.661 206.941Z" strokeWidth="3" strokeMiterlimit="10" fill="currentColor"/><path fill="currentColor" d="M115.661 206.941C134.998 206.941 150.673 191.266 150.673 171.929C150.673 152.592 134.998 136.917 115.661 136.917C96.3243 136.917 80.6489 152.592 80.6489 171.929C80.6489 191.266 96.3243 206.941 115.661 206.941Z" stroke="currentColor" strokeWidth="3" strokeMiterlimit="10"/><path stroke="currentColor" d="M115.661 206.941C134.998 206.941 150.673 191.266 150.673 171.929C150.673 152.592 134.998 136.917 115.661 136.917C96.3243 136.917 80.6489 152.592 80.6489 171.929C80.6489 191.266 96.3243 206.941 115.661 206.941Z" strokeWidth="3" strokeMiterlimit="10" fill="currentColor"/><path fill="currentColor" d="M115.661 206.941C134.998 206.941 150.673 191.266 150.673 171.929C150.673 152.592 134.998 136.917 115.661 136.917C96.3243 136.917 80.6489 152.592 80.6489 171.929C80.6489 191.266 96.3243 206.941 115.661 206.941Z" stroke="currentColor" strokeWidth="3" strokeMiterlimit="10"/><path stroke="currentColor" d="M115.661 206.941C134.998 206.941 150.673 191.266 150.673 171.929C150.673 152.592 134.998 136.917 115.661 136.917C96.3243 136.917 80.6489 152.592 80.6489 171.929C80.6489 191.266 96.3243 206.941 115.661 206.941Z" strokeWidth="3" strokeMiterlimit="10" fill="currentColor"/><path stroke="currentColor" d="M115.661 206.941C134.998 206.941 150.673 191.266 150.673 171.929C150.673 152.592 134.998 136.917 115.661 136.917C96.3243 136.917 80.6489 152.592 80.6489 171.929C80.6489 191.266 96.3243 206.941 115.661 206.941Z" strokeWidth="3" strokeMiterlimit="10" fill="currentColor"/><path stroke="currentColor" d="M115.661 206.941C134.998 206.941 150.673 191.266 150.673 171.929C150.673 152.592 134.998 136.917 115.661 136.917C96.3243 136.917 80.6489 152.592 80.6489 171.929C80.6489 191.266 96.3243 206.941 115.661 206.941Z" strokeWidth="3" strokeMiterlimit="10" fill="currentColor"/><path stroke="currentColor" d="M115.661 206.941C134.998 206.941 150.673 191.266 150.673 171.929C150.673 152.592 134.998 136.917 115.661 136.917C96.3243 136.917 80.6489 152.592 80.6489 171.929C80.6489 191.266 96.3243 206.941 115.661 206.941Z" strokeWidth="3" strokeMiterlimit="10" fill="currentColor"/><path fill="currentColor" d="M115.661 206.941C134.998 206.941 150.673 191.266 150.673 171.929C150.673 152.592 134.998 136.917 115.661 136.917C96.3243 136.917 80.6489 152.592 80.6489 171.929C80.6489 191.266 96.3243 206.941 115.661 206.941Z" stroke="currentColor" strokeWidth="3" strokeMiterlimit="10"/><path fill="currentColor" d="M115.661 206.941C134.998 206.941 150.673 191.266 150.673 171.929C150.673 152.592 134.998 136.917 115.661 136.917C96.3243 136.917 80.6489 152.592 80.6489 171.929C80.6489 191.266 96.3243 206.941 115.661 206.941Z" stroke="currentColor" strokeWidth="3" strokeMiterlimit="10"/><path fill="currentColor" d="M115.661 206.941C134.998 206.941 150.673 191.266 150.673 171.929C150.673 152.592 134.998 136.917 115.661 136.917C96.3243 136.917 80.6489 152.592 80.6489 171.929C80.6489 191.266 96.3243 206.941 115.661 206.941Z" stroke="currentColor" strokeWidth="3" strokeMiterlimit="10"/><path fill="currentColor" d="M115.661 206.941C134.998 206.941 150.673 191.266 150.673 171.929C150.673 152.592 134.998 136.917 115.661 136.917C96.3243 136.917 80.6489 152.592 80.6489 171.929C80.6489 191.266 96.3243 206.941 115.661 206.941Z" stroke="currentColor" strokeWidth="3" strokeMiterlimit="10"/><path stroke="currentColor" d="M115.661 206.941C134.998 206.941 150.673 191.266 150.673 171.929C150.673 152.592 134.998 136.917 115.661 136.917C96.3243 136.917 80.6489 152.592 80.6489 171.929C80.6489 191.266 96.3243 206.941 115.661 206.941Z" strokeWidth="3" strokeMiterlimit="10" fill="currentColor"/><path stroke="currentColor" d="M115.661 206.941C134.998 206.941 150.673 191.266 150.673 171.929C150.673 152.592 134.998 136.917 115.661 136.917C96.3243 136.917 80.6489 152.592 80.6489 171.929C80.6489 191.266 96.3243 206.941 115.661 206.941Z" strokeWidth="3" strokeMiterlimit="10" fill="currentColor"/><path stroke="currentColor" d="M115.661 206.941C134.998 206.941 150.673 191.266 150.673 171.929C150.673 152.592 134.998 136.917 115.661 136.917C96.3243 136.917 80.6489 152.592 80.6489 171.929C80.6489 191.266 96.3243 206.941 115.661 206.941Z" strokeWidth="3" strokeMiterlimit="10" fill="currentColor"/><path stroke="currentColor" d="M115.661 206.941C134.998 206.941 150.673 191.266 150.673 171.929C150.673 152.592 134.998 136.917 115.661 136.917C96.3243 136.917 80.6489 152.592 80.6489 171.929C80.6489 191.266 96.3243 206.941 115.661 206.941Z" strokeWidth="3" strokeMiterlimit="10" fill="currentColor"/><path fill="currentColor" d="M115.661 206.941C134.998 206.941 150.673 191.266 150.673 171.929C150.673 152.592 134.998 136.917 115.661 136.917C96.3243 136.917 80.6489 152.592 80.6489 171.929C80.6489 191.266 96.3243 206.941 115.661 206.941Z" stroke="currentColor" strokeWidth="3" strokeMiterlimit="10"/><path fill="currentColor" d="M567.413 386.942C586.749 386.942 602.425 371.267 602.425 351.93C602.425 332.593 586.749 316.918 567.413 316.918C548.076 316.918 532.401 332.593 532.401 351.93C532.401 371.267 548.076 386.942 567.413 386.942Z" stroke="currentColor" strokeWidth="3" strokeMiterlimit="10"/><path fill="currentColor" d="M115.661 206.941C134.998 206.941 150.673 191.266 150.673 171.929C150.673 152.592 134.998 136.917 115.661 136.917C96.3243 136.917 80.6489 152.592 80.6489 171.929C80.6489 191.266 96.3243 206.941 115.661 206.941Z" stroke="currentColor" strokeWidth="3" strokeMiterlimit="10"/><path fill="currentColor" d="M115.661 206.941C134.998 206.941 150.673 191.266 150.673 171.929C150.673 152.592 134.998 136.917 115.661 136.917C96.3243 136.917 80.6489 152.592 80.6489 171.929C80.6489 191.266 96.3243 206.941 115.661 206.941Z" stroke="currentColor" strokeWidth="3" strokeMiterlimit="10"/><path stroke="currentColor" d="M115.661 206.941C134.998 206.941 150.673 191.266 150.673 171.929C150.673 152.592 134.998 136.917 115.661 136.917C96.3243 136.917 80.6489 152.592 80.6489 171.929C80.6489 191.266 96.3243 206.941 115.661 206.941Z" strokeWidth="3" strokeMiterlimit="10"/><path stroke="currentColor" d="M115.661 206.941C134.998 206.941 150.673 191.266 150.673 171.929C150.673 152.592 134.998 136.917 115.661 136.917C96.3243 136.917 80.6489 152.592 80.6489 171.929C80.6489 191.266 96.3243 206.941 115.661 206.941Z" strokeWidth="3" strokeMiterlimit="10"/><path stroke="currentColor" d="M115.661 221.685C143.054 221.685 165.261 199.478 165.261 172.085C165.261 144.691 143.054 122.484 115.661 122.484C88.2674 122.484 66.0605 144.691 66.0605 172.085C66.0605 199.478 88.2674 221.685 115.661 221.685Z" strokeWidth="4" strokeMiterlimit="10"/><path stroke="currentColor" d="M115.661 206.941C134.998 206.941 150.673 191.266 150.673 171.929C150.673 152.592 134.998 136.917 115.661 136.917C96.3243 136.917 80.6489 152.592 80.6489 171.929C80.6489 191.266 96.3243 206.941 115.661 206.941Z" strokeWidth="3" strokeMiterlimit="10"/></svg>