<svg xmlns="http://www.w3.org/2000/svg" viewBox="0 0 24 24" width="24" height="24" fill="#fff"><g d="M14.0002 10.4721C15.2276 9.37344 16 7.77693 16 6C16 2.68629 13.3137 0 10 0C6.68629 0 4 2.68629 4 6C4 7.77707 4.77257 9.3737 6.00015 10.4724V6C6.00015 3.79086 7.79101 1.99999 10.0002 1.99999C12.2093 1.99999 14.0002 3.79085 14.0002 5.99999V10.4721Z" fill="white" fillRule="evenodd" clipRule="evenodd" width="24" height="24"/><path d="M14.0002 10.4721C15.2276 9.37344 16 7.77693 16 6C16 2.68629 13.3137 0 10 0C6.68629 0 4 2.68629 4 6C4 7.77707 4.77257 9.3737 6.00015 10.4724V6C6.00015 3.79086 7.79101 1.99999 10.0002 1.99999C12.2093 1.99999 14.0002 3.79085 14.0002 5.99999V10.4721Z" fill="white" fillRule="evenodd" clipRule="evenodd" width="24" height="24"/><path fillRule="evenodd" clipRule="evenodd" d="M14.0002 10.4721C15.2276 9.37344 16 7.77693 16 6C16 2.68629 13.3137 0 10 0C6.68629 0 4 2.68629 4 6C4 7.77707 4.77257 9.3737 6.00015 10.4724V6C6.00015 3.79086 7.79101 1.99999 10.0002 1.99999C12.2093 1.99999 14.0002 3.79085 14.0002 5.99999V10.4721Z" fill="white" width="24" height="24"/><defs width="24" height="24" fill="white"/><clipPath width="24" height="24" fill="white"/><rect width="24" height="24" fill="white"/></svg>