<svg xmlns="http://www.w3.org/2000/svg" viewBox="0 0 1003 631" width="1003" height="631" fill="#fff"><path stroke="black" d="M432.744 389.834C432.744 410.105 424.69 429.546 410.354 443.88C396.018 458.214 376.574 466.267 356.299 466.267C336.025 466.267 316.581 458.214 302.245 443.88C287.909 429.546 279.854 410.105 279.854 389.834C279.854 369.563 287.909 350.122 302.245 335.788C316.581 321.454 336.025 313.401 356.299 313.401C376.574 313.401 396.018 321.454 410.354 335.788C424.69 350.122 432.744 369.563 432.744 389.834V389.834Z" strokeWidth="4" opacity="0.5" fillRule="evenodd" clipRule="evenodd" strokeLinecap="round" strokeLinejoin="round" fill="#4D4D4D"/><path stroke="black" d="M432.744 389.834C432.744 410.105 424.69 429.546 410.354 443.88C396.018 458.214 376.574 466.267 356.299 466.267C336.025 466.267 316.581 458.214 302.245 443.88C287.909 429.546 279.854 410.105 279.854 389.834C279.854 369.563 287.909 350.122 302.245 335.788C316.581 321.454 336.025 313.401 356.299 313.401C376.574 313.401 396.018 321.454 410.354 335.788C424.69 350.122 432.744 369.563 432.744 389.834V389.834Z" strokeWidth="4" opacity="0.5" fillRule="evenodd" clipRule="evenodd" strokeLinecap="round" strokeLinejoin="round" fill="#4D4D4D"/><path stroke="black" opacity="0.5" fillRule="evenodd" clipRule="evenodd" d="M432.744 389.834C432.744 410.105 424.69 429.546 410.354 443.88C396.018 458.214 376.574 466.267 356.299 466.267C336.025 466.267 316.581 458.214 302.245 443.88C287.909 429.546 279.854 410.105 279.854 389.834C279.854 369.563 287.909 350.122 302.245 335.788C316.581 321.454 336.025 313.401 356.299 313.401C376.574 313.401 396.018 321.454 410.354 335.788C424.69 350.122 432.744 369.563 432.744 389.834V389.834Z" strokeWidth="4" strokeLinecap="round" strokeLinejoin="round" fill="#4D4D4D"/><path stroke="black" fill="#4D4D4D" fillRule="evenodd" clipRule="evenodd"/><path stroke="currentColor" opacity="0.5" fillRule="evenodd" clipRule="evenodd"/><path stroke="#ED838F" fillRule="evenodd" clipRule="evenodd" d="M815.684 295.09L813.935 293.341L797.556 309.74L781.157 293.341L779.408 295.09L795.807 311.489L779.408 327.867L781.157 329.616L797.556 313.217L813.935 329.616L815.684 327.867L799.285 311.489L815.684 295.09Z" strokeWidth="3" strokeLinecap="round" strokeLinejoin="round" fill="#97AFDD" strokeMiterlimit="10" opacity="0.5"/><path stroke="#ED838F" fillRule="evenodd" clipRule="evenodd" d="M815.684 295.09L813.935 293.341L797.556 309.74L781.157 293.341L779.408 295.09L795.807 311.489L779.408 327.867L781.157 329.616L797.556 313.217L813.935 329.616L815.684 327.867L799.285 311.489L815.684 295.09Z" strokeWidth="3" strokeLinecap="round" strokeLinejoin="round" fill="#97AFDD" strokeMiterlimit="10" opacity="0.5"/><path fill="currentColor"/><path stroke="#ED838F" d="M815.684 295.09L813.935 293.341L797.556 309.74L781.157 293.341L779.408 295.09L795.807 311.489L779.408 327.867L781.157 329.616L797.556 313.217L813.935 329.616L815.684 327.867L799.285 311.489L815.684 295.09Z" strokeWidth="3" strokeMiterlimit="10" opacity="0.5" fill="#97AFDD"/><path stroke="#ED838F" d="M815.684 295.09L813.935 293.341L797.556 309.74L781.157 293.341L779.408 295.09L795.807 311.489L779.408 327.867L781.157 329.616L797.556 313.217L813.935 329.616L815.684 327.867L799.285 311.489L815.684 295.09Z" strokeWidth="3" strokeMiterlimit="10" opacity="0.5" fill="#97AFDD"/><path stroke="#ED838F" d="M815.684 295.09L813.935 293.341L797.556 309.74L781.157 293.341L779.408 295.09L795.807 311.489L779.408 327.867L781.157 329.616L797.556 313.217L813.935 329.616L815.684 327.867L799.285 311.489L815.684 295.09Z" strokeWidth="3" strokeMiterlimit="10" opacity="0.5" fill="#97AFDD"/><path stroke="#ED838F" d="M815.684 295.09L813.935 293.341L797.556 309.74L781.157 293.341L779.408 295.09L795.807 311.489L779.408 327.867L781.157 329.616L797.556 313.217L813.935 329.616L815.684 327.867L799.285 311.489L815.684 295.09Z" strokeWidth="3" strokeMiterlimit="10" opacity="0.5" fill="#97AFDD"/><path stroke="#ED838F" opacity="0.5" d="M815.684 295.09L813.935 293.341L797.556 309.74L781.157 293.341L779.408 295.09L795.807 311.489L779.408 327.867L781.157 329.616L797.556 313.217L813.935 329.616L815.684 327.867L799.285 311.489L815.684 295.09Z" strokeWidth="3" strokeMiterlimit="10" fill="#97AFDD"/><path stroke="#ED838F" opacity="0.5" d="M815.684 295.09L813.935 293.341L797.556 309.74L781.157 293.341L779.408 295.09L795.807 311.489L779.408 327.867L781.157 329.616L797.556 313.217L813.935 329.616L815.684 327.867L799.285 311.489L815.684 295.09Z" strokeWidth="3" strokeMiterlimit="10" fill="#97AFDD"/><path stroke="#ED838F" opacity="0.5" d="M815.684 295.09L813.935 293.341L797.556 309.74L781.157 293.341L779.408 295.09L795.807 311.489L779.408 327.867L781.157 329.616L797.556 313.217L813.935 329.616L815.684 327.867L799.285 311.489L815.684 295.09Z" strokeWidth="3" strokeMiterlimit="10" fill="#97AFDD"/><path stroke="#ED838F" opacity="0.5" d="M815.684 295.09L813.935 293.341L797.556 309.74L781.157 293.341L779.408 295.09L795.807 311.489L779.408 327.867L781.157 329.616L797.556 313.217L813.935 329.616L815.684 327.867L799.285 311.489L815.684 295.09Z" strokeWidth="3" strokeMiterlimit="10" fill="#97AFDD"/><path stroke="#ED838F" d="M815.684 295.09L813.935 293.341L797.556 309.74L781.157 293.341L779.408 295.09L795.807 311.489L779.408 327.867L781.157 329.616L797.556 313.217L813.935 329.616L815.684 327.867L799.285 311.489L815.684 295.09Z" strokeWidth="3" strokeMiterlimit="10" fill="#97AFDD"/><path stroke="#ED838F" d="M815.684 295.09L813.935 293.341L797.556 309.74L781.157 293.341L779.408 295.09L795.807 311.489L779.408 327.867L781.157 329.616L797.556 313.217L813.935 329.616L815.684 327.867L799.285 311.489L815.684 295.09Z" strokeWidth="3" strokeMiterlimit="10" fill="#97AFDD"/><path stroke="#ED838F" d="M815.684 295.09L813.935 293.341L797.556 309.74L781.157 293.341L779.408 295.09L795.807 311.489L779.408 327.867L781.157 329.616L797.556 313.217L813.935 329.616L815.684 327.867L799.285 311.489L815.684 295.09Z" strokeWidth="3" strokeMiterlimit="10" fill="#97AFDD"/><path stroke="#ED838F" d="M815.684 295.09L813.935 293.341L797.556 309.74L781.157 293.341L779.408 295.09L795.807 311.489L779.408 327.867L781.157 329.616L797.556 313.217L813.935 329.616L815.684 327.867L799.285 311.489L815.684 295.09Z" strokeWidth="3" strokeMiterlimit="10" fill="#97AFDD"/><path stroke="#ED838F" d="M815.684 295.09L813.935 293.341L797.556 309.74L781.157 293.341L779.408 295.09L795.807 311.489L779.408 327.867L781.157 329.616L797.556 313.217L813.935 329.616L815.684 327.867L799.285 311.489L815.684 295.09Z" strokeWidth="3" strokeMiterlimit="10" fill="#97AFDD"/><path stroke="#ED838F" d="M815.684 295.09L813.935 293.341L797.556 309.74L781.157 293.341L779.408 295.09L795.807 311.489L779.408 327.867L781.157 329.616L797.556 313.217L813.935 329.616L815.684 327.867L799.285 311.489L815.684 295.09Z" strokeWidth="3" strokeMiterlimit="10" fill="#97AFDD"/><path stroke="#ED838F" d="M815.684 295.09L813.935 293.341L797.556 309.74L781.157 293.341L779.408 295.09L795.807 311.489L779.408 327.867L781.157 329.616L797.556 313.217L813.935 329.616L815.684 327.867L799.285 311.489L815.684 295.09Z" strokeWidth="3" strokeMiterlimit="10" fill="#97AFDD"/><path fill="#97AFDD" d="M815.684 295.09L813.935 293.341L797.556 309.74L781.157 293.341L779.408 295.09L795.807 311.489L779.408 327.867L781.157 329.616L797.556 313.217L813.935 329.616L815.684 327.867L799.285 311.489L815.684 295.09Z"/></svg>