<svg xmlns="http://www.w3.org/2000/svg" viewBox="0 0 1000 655" fill="#fff"><path stroke="currentColor" d="M373.32 346.58C392.151 346.58 407.416 331.326 407.416 312.509C407.416 293.693 392.151 278.438 373.32 278.438C354.49 278.438 339.225 293.693 339.225 312.509C339.225 331.326 354.49 346.58 373.32 346.58Z" strokeWidth="4" strokeLinejoin="bevel" opacity="0.5" strokeMiterlimit="22.93" fill="currentColor"/><path stroke="currentColor" d="M373.32 346.58C392.151 346.58 407.416 331.326 407.416 312.509C407.416 293.693 392.151 278.438 373.32 278.438C354.49 278.438 339.225 293.693 339.225 312.509C339.225 331.326 354.49 346.58 373.32 346.58Z" strokeWidth="4" strokeLinejoin="bevel" opacity="0.5" strokeMiterlimit="22.93" fill="currentColor"/><path stroke="currentColor"/><path stroke="currentColor" opacity="0.5" d="M373.32 346.58C392.151 346.58 407.416 331.326 407.416 312.509C407.416 293.693 392.151 278.438 373.32 278.438C354.49 278.438 339.225 293.693 339.225 312.509C339.225 331.326 354.49 346.58 373.32 346.58Z" strokeWidth="4" strokeLinejoin="bevel" strokeMiterlimit="22.93" fill="currentColor"/><path stroke="currentColor" d="M373.32 346.58C392.151 346.58 407.416 331.326 407.416 312.509C407.416 293.693 392.151 278.438 373.32 278.438C354.49 278.438 339.225 293.693 339.225 312.509C339.225 331.326 354.49 346.58 373.32 346.58Z" strokeWidth="4" strokeLinejoin="bevel" opacity="0.5" strokeMiterlimit="22.93" fill="currentColor"/><path stroke="currentColor" d="M373.32 346.58C392.151 346.58 407.416 331.326 407.416 312.509C407.416 293.693 392.151 278.438 373.32 278.438C354.49 278.438 339.225 293.693 339.225 312.509C339.225 331.326 354.49 346.58 373.32 346.58Z" strokeWidth="4" strokeLinejoin="bevel" opacity="0.5" strokeMiterlimit="22.93" fill="currentColor"/><path stroke="currentColor" d="M373.32 346.58C392.151 346.58 407.416 331.326 407.416 312.509C407.416 293.693 392.151 278.438 373.32 278.438C354.49 278.438 339.225 293.693 339.225 312.509C339.225 331.326 354.49 346.58 373.32 346.58Z" strokeWidth="4" strokeLinejoin="bevel" opacity="0.5" strokeMiterlimit="22.93" fill="currentColor"/><path stroke="currentColor" d="M373.32 346.58C392.151 346.58 407.416 331.326 407.416 312.509C407.416 293.693 392.151 278.438 373.32 278.438C354.49 278.438 339.225 293.693 339.225 312.509C339.225 331.326 354.49 346.58 373.32 346.58Z" strokeWidth="4" strokeLinejoin="bevel" opacity="0.5" strokeMiterlimit="22.93" fill="currentColor"/><path stroke="currentColor" d="M373.32 346.58C392.151 346.58 407.416 331.326 407.416 312.509C407.416 293.693 392.151 278.438 373.32 278.438C354.49 278.438 339.225 293.693 339.225 312.509C339.225 331.326 354.49 346.58 373.32 346.58Z" strokeWidth="4" strokeLinejoin="bevel" opacity="0.5" strokeMiterlimit="22.93" fill="currentColor"/><path stroke="currentColor" d="M373.32 346.58C392.151 346.58 407.416 331.326 407.416 312.509C407.416 293.693 392.151 278.438 373.32 278.438C354.49 278.438 339.225 293.693 339.225 312.509C339.225 331.326 354.49 346.58 373.32 346.58Z" strokeWidth="4" strokeLinejoin="bevel" opacity="0.5" strokeMiterlimit="22.93" fill="currentColor"/><path stroke="currentColor" opacity="0.5" d="M491.211 303.271H508.789C514.616 303.271 519.384 308.035 519.384 313.858C519.384 319.68 514.616 324.445 508.789 324.445H491.211C485.384 324.445 480.616 319.68 480.616 313.858C480.616 308.035 485.384 303.271 491.211 303.271Z" strokeWidth="4" strokeMiterlimit="22.93"/><g opacity="0.5" stroke="currentColor" d="M373.32 346.58C392.151 346.58 407.416 331.326 407.416 312.509C407.416 293.693 392.151 278.438 373.32 278.438C354.49 278.438 339.225 293.693 339.225 312.509C339.225 331.326 354.49 346.58 373.32 346.58Z" strokeWidth="4" strokeMiterlimit="22.93" fill="currentColor" strokeLinejoin="bevel"/><path stroke="currentColor" d="M373.32 346.58C392.151 346.58 407.416 331.326 407.416 312.509C407.416 293.693 392.151 278.438 373.32 278.438C354.49 278.438 339.225 293.693 339.225 312.509C339.225 331.326 354.49 346.58 373.32 346.58Z" strokeWidth="4" strokeMiterlimit="22.93" fill="currentColor" opacity="0.5" strokeLinejoin="bevel"/><path stroke="currentColor" d="M373.32 346.58C392.151 346.58 407.416 331.326 407.416 312.509C407.416 293.693 392.151 278.438 373.32 278.438C354.49 278.438 339.225 293.693 339.225 312.509C339.225 331.326 354.49 346.58 373.32 346.58Z" strokeWidth="4" strokeMiterlimit="22.93" fill="currentColor" opacity="0.5" strokeLinejoin="bevel"/><path stroke="currentColor" d="M373.32 346.58C392.151 346.58 407.416 331.326 407.416 312.509C407.416 293.693 392.151 278.438 373.32 278.438C354.49 278.438 339.225 293.693 339.225 312.509C339.225 331.326 354.49 346.58 373.32 346.58Z" strokeWidth="4" strokeMiterlimit="22.93" fill="currentColor" opacity="0.5" strokeLinejoin="bevel"/><path stroke="currentColor" d="M373.32 346.58C392.151 346.58 407.416 331.326 407.416 312.509C407.416 293.693 392.151 278.438 373.32 278.438C354.49 278.438 339.225 293.693 339.225 312.509C339.225 331.326 354.49 346.58 373.32 346.58Z" strokeWidth="4" strokeMiterlimit="22.93" fill="currentColor" opacity="0.5" strokeLinejoin="bevel"/><path fill="currentColor" d="M373.32 346.58C392.151 346.58 407.416 331.326 407.416 312.509C407.416 293.693 392.151 278.438 373.32 278.438C354.49 278.438 339.225 293.693 339.225 312.509C339.225 331.326 354.49 346.58 373.32 346.58Z" stroke="currentColor" opacity="0.5" strokeWidth="4" strokeLinejoin="bevel"/><path stroke="currentColor" opacity="0.5" d="M373.32 346.58C392.151 346.58 407.416 331.326 407.416 312.509C407.416 293.693 392.151 278.438 373.32 278.438C354.49 278.438 339.225 293.693 339.225 312.509C339.225 331.326 354.49 346.58 373.32 346.58Z" strokeWidth="4" strokeLinejoin="bevel" fill="currentColor"/><path stroke="currentColor" d="M373.32 346.58C392.151 346.58 407.416 331.326 407.416 312.509C407.416 293.693 392.151 278.438 373.32 278.438C354.49 278.438 339.225 293.693 339.225 312.509C339.225 331.326 354.49 346.58 373.32 346.58Z" strokeWidth="4" strokeLinejoin="bevel" fill="currentColor" opacity="0.5"/><path fill="currentColor" d="M373.32 346.58C392.151 346.58 407.416 331.326 407.416 312.509C407.416 293.693 392.151 278.438 373.32 278.438C354.49 278.438 339.225 293.693 339.225 312.509C339.225 331.326 354.49 346.58 373.32 346.58Z" stroke="currentColor" strokeWidth="4" strokeLinejoin="bevel" opacity="0.5"/><path fill="currentColor" d="M373.32 346.58C392.151 346.58 407.416 331.326 407.416 312.509C407.416 293.693 392.151 278.438 373.32 278.438C354.49 278.438 339.225 293.693 339.225 312.509C339.225 331.326 354.49 346.58 373.32 346.58Z" stroke="currentColor" strokeWidth="4" strokeLinejoin="bevel" opacity="0.5"/><path fill="currentColor" d="M373.32 346.58C392.151 346.58 407.416 331.326 407.416 312.509C407.416 293.693 392.151 278.438 373.32 278.438C354.49 278.438 339.225 293.693 339.225 312.509C339.225 331.326 354.49 346.58 373.32 346.58Z" stroke="currentColor" strokeWidth="4" strokeLinejoin="bevel" opacity="0.5"/><path fill="currentColor" d="M373.32 346.58C392.151 346.58 407.416 331.326 407.416 312.509C407.416 293.693 392.151 278.438 373.32 278.438C354.49 278.438 339.225 293.693 339.225 312.509C339.225 331.326 354.49 346.58 373.32 346.58Z" stroke="currentColor" strokeWidth="4" strokeLinejoin="bevel" opacity="0.5"/><path fill="currentColor" d="M373.32 346.58C392.151 346.58 407.416 331.326 407.416 312.509C407.416 293.693 392.151 278.438 373.32 278.438C354.49 278.438 339.225 293.693 339.225 312.509C339.225 331.326 354.49 346.58 373.32 346.58Z" stroke="currentColor" strokeWidth="4" strokeLinejoin="bevel" opacity="0.5"/><path fill="currentColor" d="M373.32 346.58C392.151 346.58 407.416 331.326 407.416 312.509C407.416 293.693 392.151 278.438 373.32 278.438C354.49 278.438 339.225 293.693 339.225 312.509C339.225 331.326 354.49 346.58 373.32 346.58Z" stroke="currentColor" strokeWidth="4" strokeLinejoin="bevel" opacity="0.5"/><path fill="currentColor" d="M373.32 346.58C392.151 346.58 407.416 331.326 407.416 312.509C407.416 293.693 392.151 278.438 373.32 278.438C354.49 278.438 339.225 293.693 339.225 312.509C339.225 331.326 354.49 346.58 373.32 346.58Z" stroke="currentColor" strokeWidth="4" strokeLinejoin="bevel" opacity="0.5"/><path fill="currentColor" d="M373.32 346.58C392.151 346.58 407.416 331.326 407.416 312.509C407.416 293.693 392.151 278.438 373.32 278.438C354.49 278.438 339.225 293.693 339.225 312.509C339.225 331.326 354.49 346.58 373.32 346.58Z" stroke="currentColor" strokeWidth="4" strokeLinejoin="bevel" opacity="0.5"/><path stroke="currentColor" d="M373.32 346.58C392.151 346.58 407.416 331.326 407.416 312.509C407.416 293.693 392.151 278.438 373.32 278.438C354.49 278.438 339.225 293.693 339.225 312.509C339.225 331.326 354.49 346.58 373.32 346.58Z" strokeWidth="4" strokeLinejoin="bevel" opacity="0.5" fill="currentColor"/><path stroke="currentColor" d="M373.32 346.58C392.151 346.58 407.416 331.326 407.416 312.509C407.416 293.693 392.151 278.438 373.32 278.438C354.49 278.438 339.225 293.693 339.225 312.509C339.225 331.326 354.49 346.58 373.32 346.58Z" strokeWidth="4" strokeLinejoin="bevel" opacity="0.5" fill="currentColor"/><path stroke="currentColor" opacity="0.5" d="M373.32 346.58C392.151 346.58 407.416 331.326 407.416 312.509C407.416 293.693 392.151 278.438 373.32 278.438C354.49 278.438 339.225 293.693 339.225 312.509C339.225 331.326 354.49 346.58 373.32 346.58Z" strokeWidth="4" strokeLinejoin="bevel" fill="currentColor"/><path stroke="currentColor" d="M373.32 346.58C392.151 346.58 407.416 331.326 407.416 312.509C407.416 293.693 392.151 278.438 373.32 278.438C354.49 278.438 339.225 293.693 339.225 312.509C339.225 331.326 354.49 346.58 373.32 346.58Z" strokeWidth="4" strokeLinejoin="bevel" fill="currentColor" opacity="0.5"/><path fill="currentColor" d="M373.32 346.58C392.151 346.58 407.416 331.326 407.416 312.509C407.416 293.693 392.151 278.438 373.32 278.438C354.49 278.438 339.225 293.693 339.225 312.509C339.225 331.326 354.49 346.58 373.32 346.58Z" stroke="currentColor" strokeWidth="4" strokeLinejoin="bevel" opacity="0.5"/><path stroke="currentColor" d="M373.32 346.58C392.151 346.58 407.416 331.326 407.416 312.509C407.416 293.693 392.151 278.438 373.32 278.438C354.49 278.438 339.225 293.693 339.225 312.509C339.225 331.326 354.49 346.58 373.32 346.58Z" strokeWidth="4" strokeLinejoin="bevel" fill="currentColor" opacity="0.5"/><path fill="currentColor" d="M373.32 346.58C392.151 346.58 407.416 331.326 407.416 312.509C407.416 293.693 392.151 278.438 373.32 278.438C354.49 278.438 339.225 293.693 339.225 312.509C339.225 331.326 354.49 346.58 373.32 346.58Z" stroke="currentColor" strokeWidth="4" strokeLinejoin="bevel" opacity="0.5"/><path stroke="currentColor" d="M373.32 346.58C392.151 346.58 407.416 331.326 407.416 312.509C407.416 293.693 392.151 278.438 373.32 278.438C354.49 278.438 339.225 293.693 339.225 312.509C339.225 331.326 354.49 346.58 373.32 346.58Z" strokeWidth="4" strokeLinejoin="bevel" fill="currentColor" opacity="0.5"/><path fill="currentColor" d="M373.32 346.58C392.151 346.58 407.416 331.326 407.416 312.509C407.416 293.693 392.151 278.438 373.32 278.438C354.49 278.438 339.225 293.693 339.225 312.509C339.225 331.326 354.49 346.58 373.32 346.58Z" stroke="currentColor" strokeWidth="4" strokeLinejoin="bevel" opacity="0.5"/><path stroke="currentColor" d="M373.32 346.58C392.151 346.58 407.416 331.326 407.416 312.509C407.416 293.693 392.151 278.438 373.32 278.438C354.49 278.438 339.225 293.693 339.225 312.509C339.225 331.326 354.49 346.58 373.32 346.58Z" strokeWidth="4" strokeLinejoin="bevel" fill="currentColor" opacity="0.5"/><path fill="currentColor" d="M373.32 346.58C392.151 346.58 407.416 331.326 407.416 312.509C407.416 293.693 392.151 278.438 373.32 278.438C354.49 278.438 339.225 293.693 339.225 312.509C339.225 331.326 354.49 346.58 373.32 346.58Z" stroke="currentColor" opacity="0.5" strokeWidth="4" strokeLinejoin="bevel"/><path stroke="currentColor" fill="currentColor" opacity="0.5" d="M373.32 346.58C392.151 346.58 407.416 331.326 407.416 312.509C407.416 293.693 392.151 278.438 373.32 278.438C354.49 278.438 339.225 293.693 339.225 312.509C339.225 331.326 354.49 346.58 373.32 346.58Z" strokeWidth="4" strokeLinejoin="bevel"/><path stroke="currentColor" d="M373.32 346.58C392.151 346.58 407.416 331.326 407.416 312.509C407.416 293.693 392.151 278.438 373.32 278.438C354.49 278.438 339.225 293.693 339.225 312.509C339.225 331.326 354.49 346.58 373.32 346.58Z" strokeWidth="4" strokeLinejoin="bevel" fill="currentColor" opacity="0.5"/><path stroke="currentColor" fill="currentColor" opacity="0.5" d="M373.32 346.58C392.151 346.58 407.416 331.326 407.416 312.509C407.416 293.693 392.151 278.438 373.32 278.438C354.49 278.438 339.225 293.693 339.225 312.509C339.225 331.326 354.49 346.58 373.32 346.58Z" strokeWidth="4" strokeLinejoin="bevel"/><path stroke="currentColor" d="M373.32 346.58C392.151 346.58 407.416 331.326 407.416 312.509C407.416 293.693 392.151 278.438 373.32 278.438C354.49 278.438 339.225 293.693 339.225 312.509C339.225 331.326 354.49 346.58 373.32 346.58Z" strokeWidth="4" strokeLinejoin="bevel"/></svg>