<svg xmlns="http://www.w3.org/2000/svg" viewBox="0 0 231 298" width="37.8873" height="9.47183" fill="#fff"><path stroke="currentColor" d="M51.2656 255.274L80.8438 260.467L51.2656 255.275C51.2466 255.272 51.2279 255.267 51.209 255.263L51.2656 255.274ZM52.1855 215.532C52.7553 212.286 55.8484 210.117 59.0938 210.686L89.8467 216.085C93.092 216.655 95.2612 219.749 94.6914 222.995L89.5068 252.523C88.937 255.768 85.844 257.937 82.5986 257.368L51.8457 251.968C48.6005 251.398 46.4322 248.305 47.002 245.06L52.1855 215.532ZM92.6016 254.026C92.6078 254.004 92.6141 253.982 92.6201 253.959C92.6141 253.982 92.6078 254.004 92.6016 254.026ZM43.625 247.25C43.6435 247.398 43.6658 247.546 43.6914 247.693C43.6658 247.546 43.6436 247.398 43.625 247.25ZM49.2275 213.583C49.0796 214.023 48.9627 214.48 48.8799 214.952L43.6963 244.48C43.641 244.795 43.601 245.109 43.5781 245.421C43.601 245.109 43.64 244.795 43.6953 244.48L48.8799 214.951C48.9627 214.479 49.0796 214.023 49.2275 213.583ZM98.1211 221.433C98.1349 221.679 98.1418 221.928 98.1357 222.177C98.1418 221.928 98.1349 221.679 98.1211 221.433ZM59.6748 207.38H59.6738H59.6748ZM43.7461 247.967C43.7273 247.876 43.7074 247.785 43.6914 247.693C43.7074 247.785 43.7273 247.876 43.7461 247.967ZM43.6035 247.036C43.6107 247.107 43.6161 247.179 43.625 247.25C43.6161 247.179 43.6107 247.107 43.6035 247.036ZM43.5566 246.129C43.5564 246.045 43.5546 245.961 43.5566 245.876C43.5546 245.961 43.5564 246.045 43.5566 246.129ZM97.8525 219.677C97.873 219.758 97.8938 219.839 97.9121 219.92C97.8938 219.839 97.873 219.758 97.8525 219.677Z" strokeWidth="6.31455" fill="currentColor" x="107.347" width="12.6291" height="12.6291" y="132.605" cx="148.251" cy="192.263" r="10.629"/><rect fill="currentColor" x="107.347" width="12.6291" height="12.6291" y="132.605" d="M51.2656 255.274L80.8438 260.467L51.2656 255.275C51.2466 255.272 51.2279 255.267 51.209 255.263L51.2656 255.274ZM52.1855 215.532C52.7553 212.286 55.8484 210.117 59.0938 210.686L89.8467 216.085C93.092 216.655 95.2612 219.749 94.6914 222.995L89.5068 252.523C88.937 255.768 85.844 257.937 82.5986 257.368L51.8457 251.968C48.6005 251.398 46.4322 248.305 47.002 245.06L52.1855 215.532ZM92.6016 254.026C92.6078 254.004 92.6141 253.982 92.6201 253.959C92.6141 253.982 92.6078 254.004 92.6016 254.026ZM43.625 247.25C43.6435 247.398 43.6658 247.546 43.6914 247.693C43.6658 247.546 43.6436 247.398 43.625 247.25ZM49.2275 213.583C49.0796 214.023 48.9627 214.48 48.8799 214.952L43.6963 244.48C43.641 244.795 43.601 245.109 43.5781 245.421C43.601 245.109 43.64 244.795 43.6953 244.48L48.8799 214.951C48.9627 214.479 49.0796 214.023 49.2275 213.583ZM98.1211 221.433C98.1349 221.679 98.1418 221.928 98.1357 222.177C98.1418 221.928 98.1349 221.679 98.1211 221.433ZM59.6748 207.38H59.6738H59.6748ZM43.7461 247.967C43.7273 247.876 43.7074 247.785 43.6914 247.693C43.7074 247.785 43.7273 247.876 43.7461 247.967ZM43.6035 247.036C43.6107 247.107 43.6161 247.179 43.625 247.25C43.6161 247.179 43.6107 247.107 43.6035 247.036ZM43.5566 246.129C43.5564 246.045 43.5546 245.961 43.5566 245.876C43.5546 245.961 43.5564 246.045 43.5566 246.129ZM97.8525 219.677C97.873 219.758 97.8938 219.839 97.9121 219.92C97.8938 219.839 97.873 219.758 97.8525 219.677Z" cx="148.251" cy="192.263" r="10.629"/><rect fill="currentColor" x="107.347" y="132.605" width="12.6291" height="12.6291" d="M51.2656 255.274L80.8438 260.467L51.2656 255.275C51.2466 255.272 51.2279 255.267 51.209 255.263L51.2656 255.274ZM52.1855 215.532C52.7553 212.286 55.8484 210.117 59.0938 210.686L89.8467 216.085C93.092 216.655 95.2612 219.749 94.6914 222.995L89.5068 252.523C88.937 255.768 85.844 257.937 82.5986 257.368L51.8457 251.968C48.6005 251.398 46.4322 248.305 47.002 245.06L52.1855 215.532ZM92.6016 254.026C92.6078 254.004 92.6141 253.982 92.6201 253.959C92.6141 253.982 92.6078 254.004 92.6016 254.026ZM43.625 247.25C43.6435 247.398 43.6658 247.546 43.6914 247.693C43.6658 247.546 43.6436 247.398 43.625 247.25ZM49.2275 213.583C49.0796 214.023 48.9627 214.48 48.8799 214.952L43.6963 244.48C43.641 244.795 43.601 245.109 43.5781 245.421C43.601 245.109 43.64 244.795 43.6953 244.48L48.8799 214.951C48.9627 214.479 49.0796 214.023 49.2275 213.583ZM98.1211 221.433C98.1349 221.679 98.1418 221.928 98.1357 222.177C98.1418 221.928 98.1349 221.679 98.1211 221.433ZM59.6748 207.38H59.6738H59.6748ZM43.7461 247.967C43.7273 247.876 43.7074 247.785 43.6914 247.693C43.7074 247.785 43.7273 247.876 43.7461 247.967ZM43.6035 247.036C43.6107 247.107 43.6161 247.179 43.625 247.25C43.6161 247.179 43.6107 247.107 43.6035 247.036ZM43.5566 246.129C43.5564 246.045 43.5546 245.961 43.5566 245.876C43.5546 245.961 43.5564 246.045 43.5566 246.129ZM97.8525 219.677C97.873 219.758 97.8938 219.839 97.9121 219.92C97.8938 219.839 97.873 219.758 97.8525 219.677Z" cx="148.251" cy="192.263" r="10.629"/><path fill="currentColor" d="M108.036 176.783L107.806 173.823L112.827 175.993L110.949 178.029L108.036 176.783Z"/><path fill="currentColor"/><path fill="currentColor"/><path fill="currentColor" d="M51.2656 255.274L80.8438 260.467L51.2656 255.275C51.2466 255.272 51.2279 255.267 51.209 255.263L51.2656 255.274ZM52.1855 215.532C52.7553 212.286 55.8484 210.117 59.0938 210.686L89.8467 216.085C93.092 216.655 95.2612 219.749 94.6914 222.995L89.5068 252.523C88.937 255.768 85.844 257.937 82.5986 257.368L51.8457 251.968C48.6005 251.398 46.4322 248.305 47.002 245.06L52.1855 215.532ZM92.6016 254.026C92.6078 254.004 92.6141 253.982 92.6201 253.959C92.6141 253.982 92.6078 254.004 92.6016 254.026ZM43.625 247.25C43.6435 247.398 43.6658 247.546 43.6914 247.693C43.6658 247.546 43.6436 247.398 43.625 247.25ZM49.2275 213.583C49.0796 214.023 48.9627 214.48 48.8799 214.952L43.6963 244.48C43.641 244.795 43.601 245.109 43.5781 245.421C43.601 245.109 43.64 244.795 43.6953 244.48L48.8799 214.951C48.9627 214.479 49.0796 214.023 49.2275 213.583ZM98.1211 221.433C98.1349 221.679 98.1418 221.928 98.1357 222.177C98.1418 221.928 98.1349 221.679 98.1211 221.433ZM59.6748 207.38H59.6738H59.6748ZM43.7461 247.967C43.7273 247.876 43.7074 247.785 43.6914 247.693C43.7074 247.785 43.7273 247.876 43.7461 247.967ZM43.6035 247.036C43.6107 247.107 43.6161 247.179 43.625 247.25C43.6161 247.179 43.6107 247.107 43.6035 247.036ZM43.5566 246.129C43.5564 246.045 43.5546 245.961 43.5566 245.876C43.5546 245.961 43.5564 246.045 43.5566 246.129ZM97.8525 219.677C97.873 219.758 97.8938 219.839 97.9121 219.92C97.8938 219.839 97.873 219.758 97.8525 219.677Z" cx="148.251" cy="192.263" r="10.629"/><path fill="currentColor" d="M51.2656 255.274L80.8438 260.467L51.2656 255.275C51.2466 255.272 51.2279 255.267 51.209 255.263L51.2656 255.274ZM52.1855 215.532C52.7553 212.286 55.8484 210.117 59.0938 210.686L89.8467 216.085C93.092 216.655 95.2612 219.749 94.6914 222.995L89.5068 252.523C88.937 255.768 85.844 257.937 82.5986 257.368L51.8457 251.968C48.6005 251.398 46.4322 248.305 47.002 245.06L52.1855 215.532ZM92.6016 254.026C92.6078 254.004 92.6141 253.982 92.6201 253.959C92.6141 253.982 92.6078 254.004 92.6016 254.026ZM43.625 247.25C43.6435 247.398 43.6658 247.546 43.6914 247.693C43.6658 247.546 43.6436 247.398 43.625 247.25ZM49.2275 213.583C49.0796 214.023 48.9627 214.48 48.8799 214.952L43.6963 244.48C43.641 244.795 43.601 245.109 43.5781 245.421C43.601 245.109 43.64 244.795 43.6953 244.48L48.8799 214.951C48.9627 214.479 49.0796 214.023 49.2275 213.583ZM98.1211 221.433C98.1349 221.679 98.1418 221.928 98.1357 222.177C98.1418 221.928 98.1349 221.679 98.1211 221.433ZM59.6748 207.38H59.6738H59.6748ZM43.7461 247.967C43.7273 247.876 43.7074 247.785 43.6914 247.693C43.7074 247.785 43.7273 247.876 43.7461 247.967ZM43.6035 247.036C43.6107 247.107 43.6161 247.179 43.625 247.25C43.6161 247.179 43.6107 247.107 43.6035 247.036ZM43.5566 246.129C43.5564 246.045 43.5546 245.961 43.5566 245.876C43.5546 245.961 43.5564 246.045 43.5566 246.129ZM97.8525 219.677C97.873 219.758 97.8938 219.839 97.9121 219.92C97.8938 219.839 97.873 219.758 97.8525 219.677Z" cx="148.251" cy="192.263" r="10.629"/><circle fill="currentColor" cx="148.251" cy="192.263" r="10.629"/><circle fill="currentColor" cx="148.251" cy="192.263" r="10.629"/></svg>