<svg xmlns="http://www.w3.org/2000/svg" viewBox="0 0 36 36" fill="#fff"><path fill="currentColor" d="M28.055 9.145H9.553v18.502h18.502V9.145ZM17.3 14.547l3.671 7.949 1.533-2.655 2.954 5.117H19.55l.003-.003h-7.06L17.3 14.547Zm5.348 2.172a2.63 2.63 0 1 0 0-5.262 2.63 2.63 0 0 0 0 5.262Z" fillRule="evenodd" clipRule="evenodd"/><path fill="currentColor" fillRule="evenodd" d="M28.055 9.145H9.553v18.502h18.502V9.145ZM17.3 14.547l3.671 7.949 1.533-2.655 2.954 5.117H19.55l.003-.003h-7.06L17.3 14.547Zm5.348 2.172a2.63 2.63 0 1 0 0-5.262 2.63 2.63 0 0 0 0 5.262Z" clipRule="evenodd"/></svg>