<svg xmlns="http://www.w3.org/2000/svg" viewBox="0 0 36 36" fill="#fff"><path fill="currentColor" d="M25.9303 24.5625L26.5793 26.6168C26.6659 26.8791 26.8822 27.0977 27.1418 27.1851L29.1755 27.8407L27.1418 28.4964C26.8822 28.5838 26.6659 28.8023 26.5793 29.0646L25.9303 31.1189L25.2812 29.0646C25.1947 28.8023 24.9784 28.5838 24.7187 28.4964L22.6851 27.8407L24.7187 27.1851C24.9784 27.0977 25.1947 26.8791 25.2812 26.6168L25.9303 24.5625Z"/><path fill="currentColor" d="M25.9303 24.5625L26.5793 26.6168C26.6659 26.8791 26.8822 27.0977 27.1418 27.1851L29.1755 27.8407L27.1418 28.4964C26.8822 28.5838 26.6659 28.8023 26.5793 29.0646L25.9303 31.1189L25.2812 29.0646C25.1947 28.8023 24.9784 28.5838 24.7187 28.4964L22.6851 27.8407L24.7187 27.1851C24.9784 27.0977 25.1947 26.8791 25.2812 26.6168L25.9303 24.5625Z"/><path fill="currentColor" d="M8.11778 3.9375L8.76682 5.99185C8.85336 6.25411 9.0697 6.47265 9.32932 6.56007L11.363 7.21571L9.32932 7.87136C9.0697 7.95878 8.85336 8.17732 8.76682 8.43958L8.11778 10.4939L7.46874 8.43958C7.3822 8.17732 7.16586 7.95878 6.90624 7.87136L4.87259 7.21571L6.90624 6.56007C7.16586 6.47265 7.3822 6.25411 7.46874 5.99185L8.11778 3.9375Z"/><path fill="currentColor"/><path fill="currentColor"/></svg>