<svg xmlns="http://www.w3.org/2000/svg" viewBox="0 0 36 36" fill="#fff"><path fill="currentColor" d="M27.3111 12.15V19.854H29.1291V21.888H27.3111V24.75H24.6291V21.888H18.6891V20.16L24.8631 12.15H27.3111ZM24.7371 15.3L21.2631 19.854H24.7371V15.3Z"/><path fill="currentColor" d="M27.3111 12.15V19.854H29.1291V21.888H27.3111V24.75H24.6291V21.888H18.6891V20.16L24.8631 12.15H27.3111ZM24.7371 15.3L21.2631 19.854H24.7371V15.3Z"/><path fill="currentColor" d="M27.3111 12.15V19.854H29.1291V21.888H27.3111V24.75H24.6291V21.888H18.6891V20.16L24.8631 12.15H27.3111ZM24.7371 15.3L21.2631 19.854H24.7371V15.3Z"/></svg>