<svg xmlns="http://www.w3.org/2000/svg" viewBox="0 0 487 751" width="24.3474" height="14.98" fill="#fff"><path fill="currentColor" d="M232.991 535.448L232.519 530.41L240.181 533.572L235.563 536.222L232.991 535.448Z" stroke="currentColor" strokeWidth="6.34447" cx="304.128" cy="564.122" r="18.8076" x="72.3972" y="175.317" width="46.7251" height="20.0024"/><path stroke="currentColor" d="M232.991 535.448L232.519 530.41L240.181 533.572L235.563 536.222L232.991 535.448Z" strokeWidth="6.34447" fill="currentColor" cx="304.128" cy="564.122" r="18.8076" x="72.3972" y="175.317" width="46.7251" height="20.0024"/><path fill="currentColor" d="M232.991 535.448L232.519 530.41L240.181 533.572L235.563 536.222L232.991 535.448Z" cx="304.128" cy="564.122" r="18.8076" x="72.3972" y="175.317" width="46.7251" height="20.0024"/><path fill="currentColor" d="M232.991 535.448L232.519 530.41L240.181 533.572L235.563 536.222L232.991 535.448Z" cx="304.128" cy="564.122" r="18.8076" x="72.3972" y="175.317" width="46.7251" height="20.0024"/><path fill="currentColor" d="M232.991 535.448L232.519 530.41L240.181 533.572L235.563 536.222L232.991 535.448Z" cx="304.128" cy="564.122" r="18.8076" x="72.3972" y="175.317" width="46.7251" height="20.0024"/><circle fill="currentColor" cx="304.128" cy="564.122" r="18.8076" d="M232.991 535.448L232.519 530.41L240.181 533.572L235.563 536.222L232.991 535.448Z" x="72.3972" y="175.317" width="46.7251" height="20.0024"/><circle fill="currentColor" cx="304.128" cy="564.122" r="18.8076" d="M232.991 535.448L232.519 530.41L240.181 533.572L235.563 536.222L232.991 535.448Z" x="72.3972" y="175.317" width="46.7251" height="20.0024"/><path fill="currentColor" d="M232.991 535.448L232.519 530.41L240.181 533.572L235.563 536.222L232.991 535.448Z" x="72.3972" y="175.317" width="46.7251" height="20.0024"/><path fill="currentColor" d="M232.991 535.448L232.519 530.41L240.181 533.572L235.563 536.222L232.991 535.448Z" x="72.3972" y="175.317" width="46.7251" height="20.0024"/><rect fill="currentColor" x="72.3972" y="175.317" width="46.7251" height="20.0024"/><rect fill="currentColor" x="72.3972" y="175.317" width="46.7251" height="20.0024"/></svg>