<svg xmlns="http://www.w3.org/2000/svg" viewBox="0 0 36 36" fill="#fff"><g fill="currentColor" fillRule="evenodd" d="m3.326 3.25 20.852 8.648L15.53 32.75l-20.852-8.648z" clipRule="evenodd"/><path fill="currentColor" fillRule="evenodd" d="m3.326 3.25 20.852 8.648L15.53 32.75l-20.852-8.648z" clipRule="evenodd"/><g fill="currentColor" d="m3.326 3.25 20.852 8.648L15.53 32.75l-20.852-8.648z"/><path fill="currentColor" d="m3.326 3.25 20.852 8.648L15.53 32.75l-20.852-8.648z"/><path fill="currentColor" d="m3.326 3.25 20.852 8.648L15.53 32.75l-20.852-8.648z"/><defs fill="currentColor" d="m3.326 3.25 20.852 8.648L15.53 32.75l-20.852-8.648z"/><clipPath fill="currentColor" d="m3.326 3.25 20.852 8.648L15.53 32.75l-20.852-8.648z"/><path fill="currentColor" d="m3.326 3.25 20.852 8.648L15.53 32.75l-20.852-8.648z"/><clipPath fill="currentColor" d="m3.326 3.25 20.852 8.648L15.53 32.75l-20.852-8.648z"/><path fill="currentColor" d="m3.326 3.25 20.852 8.648L15.53 32.75l-20.852-8.648z"/></svg>