<svg xmlns="http://www.w3.org/2000/svg" viewBox="0 0 36 36" fill="#fff"><path d="M22.13 12.57C22.1358 10.8113 21.7026 9.07896 20.8698 7.52995C20.037 5.98093 18.8308 4.6642 17.3606 3.69907C15.8903 2.73395 14.2025 2.15093 12.4501 2.00284C10.6976 1.85476 8.93588 2.14629 7.32454 2.85102C5.71321 3.55575 4.30318 4.65141 3.22224 6.03871C2.14129 7.42601 1.42359 9.06111 1.13416 10.7958C0.84474 12.5306 0.992742 14.3101 1.56476 15.9732C2.13677 17.6363 3.11473 19.1303 4.41 20.32L12.74 29V23.06C15.3212 22.7722 17.7059 21.5433 19.4382 19.6081C21.1704 17.6729 22.1288 15.1672 22.13 12.57ZM17.91 9.80001H14.82C14.2157 11.5094 13.3227 13.1024 12.18 14.51C13.4932 15.5123 14.9676 16.2834 16.54 16.79L15.91 19.21C13.9649 18.6056 12.1454 17.6535 10.54 16.4C9.43064 17.6158 8.06415 18.5689 6.54 19.19L5.7 16.81C6.81557 16.3684 7.81958 15.6854 8.64 14.81C8.01937 14.2121 7.43499 13.5776 6.89 12.91L8.89 11.34C9.33614 11.8903 9.8136 12.4145 10.32 12.91C11.0397 11.9344 11.6658 10.8931 12.19 9.80001H6.09V7.30001H10.16V5.00001H12.66V7.30001H17.91V9.80001Z" fill="currentColor"/><path d="M22.13 12.57C22.1358 10.8113 21.7026 9.07896 20.8698 7.52995C20.037 5.98093 18.8308 4.6642 17.3606 3.69907C15.8903 2.73395 14.2025 2.15093 12.4501 2.00284C10.6976 1.85476 8.93588 2.14629 7.32454 2.85102C5.71321 3.55575 4.30318 4.65141 3.22224 6.03871C2.14129 7.42601 1.42359 9.06111 1.13416 10.7958C0.84474 12.5306 0.992742 14.3101 1.56476 15.9732C2.13677 17.6363 3.11473 19.1303 4.41 20.32L12.74 29V23.06C15.3212 22.7722 17.7059 21.5433 19.4382 19.6081C21.1704 17.6729 22.1288 15.1672 22.13 12.57ZM17.91 9.80001H14.82C14.2157 11.5094 13.3227 13.1024 12.18 14.51C13.4932 15.5123 14.9676 16.2834 16.54 16.79L15.91 19.21C13.9649 18.6056 12.1454 17.6535 10.54 16.4C9.43064 17.6158 8.06415 18.5689 6.54 19.19L5.7 16.81C6.81557 16.3684 7.81958 15.6854 8.64 14.81C8.01937 14.2121 7.43499 13.5776 6.89 12.91L8.89 11.34C9.33614 11.8903 9.8136 12.4145 10.32 12.91C11.0397 11.9344 11.6658 10.8931 12.19 9.80001H6.09V7.30001H10.16V5.00001H12.66V7.30001H17.91V9.80001Z"/></svg>