<svg xmlns="http://www.w3.org/2000/svg" viewBox="0 0 36 36" fill="#fff"><path fill="currentColor" d="M4.15493 11.9751C3.58564 13.3267 3.2205 14.7555 3.07147 16.2145L7.06211 16.6311C7.17433 15.5601 7.44158 14.5111 7.85548 13.517L4.15493 11.9751Z"/><path fill="currentColor" d="M4.15493 11.9751C3.58564 13.3267 3.2205 14.7555 3.07147 16.2145L7.06211 16.6311C7.17433 15.5601 7.44158 14.5111 7.85548 13.517L4.15493 11.9751Z"/><path fill="currentColor" d="M4.15493 11.9751C3.58564 13.3267 3.2205 14.7555 3.07147 16.2145L7.06211 16.6311C7.17433 15.5601 7.44158 14.5111 7.85548 13.517L4.15493 11.9751Z"/><path fill="currentColor" d="M4.15493 11.9751C3.58564 13.3267 3.2205 14.7555 3.07147 16.2145L7.06211 16.6311C7.17433 15.5601 7.44158 14.5111 7.85548 13.517L4.15493 11.9751Z"/><path fill="currentColor" d="M4.15493 11.9751C3.58564 13.3267 3.2205 14.7555 3.07147 16.2145L7.06211 16.6311C7.17433 15.5601 7.44158 14.5111 7.85548 13.517L4.15493 11.9751Z"/></svg>