<svg xmlns="http://www.w3.org/2000/svg" viewBox="0 0 800 574" fill="#fff"><path stroke="currentColor" d="M522.986 422.981C539.121 422.981 552.201 409.888 552.201 393.737C552.201 377.586 539.121 364.493 522.986 364.493C506.851 364.493 493.771 377.586 493.771 393.737C493.771 409.888 506.851 422.981 522.986 422.981Z" strokeWidth="4" opacity="0.5" strokeMiterlimit="10" fill="currentColor"/><path stroke="currentColor" opacity="0.5" d="M522.986 422.981C539.121 422.981 552.201 409.888 552.201 393.737C552.201 377.586 539.121 364.493 522.986 364.493C506.851 364.493 493.771 377.586 493.771 393.737C493.771 409.888 506.851 422.981 522.986 422.981Z" strokeWidth="4" strokeMiterlimit="10" fill="currentColor"/><path stroke="currentColor"/><path stroke="currentColor"/><path stroke="currentColor"/><path stroke="currentColor" d="M522.986 422.981C539.121 422.981 552.201 409.888 552.201 393.737C552.201 377.586 539.121 364.493 522.986 364.493C506.851 364.493 493.771 377.586 493.771 393.737C493.771 409.888 506.851 422.981 522.986 422.981Z" strokeWidth="4" strokeMiterlimit="10" fill="currentColor" opacity="0.5"/><path stroke="currentColor" d="M522.986 422.981C539.121 422.981 552.201 409.888 552.201 393.737C552.201 377.586 539.121 364.493 522.986 364.493C506.851 364.493 493.771 377.586 493.771 393.737C493.771 409.888 506.851 422.981 522.986 422.981Z" strokeWidth="4" strokeMiterlimit="10" fill="currentColor" opacity="0.5"/><path stroke="currentColor" d="M522.986 422.981C539.121 422.981 552.201 409.888 552.201 393.737C552.201 377.586 539.121 364.493 522.986 364.493C506.851 364.493 493.771 377.586 493.771 393.737C493.771 409.888 506.851 422.981 522.986 422.981Z" strokeWidth="4" strokeMiterlimit="10" fill="currentColor" opacity="0.5"/><path fill="currentColor"/><path fill="currentColor"/><path fill="currentColor" d="M522.986 422.981C539.121 422.981 552.201 409.888 552.201 393.737C552.201 377.586 539.121 364.493 522.986 364.493C506.851 364.493 493.771 377.586 493.771 393.737C493.771 409.888 506.851 422.981 522.986 422.981Z" stroke="currentColor" strokeWidth="4" strokeMiterlimit="10" opacity="0.5"/><path fill="currentColor" d="M522.986 422.981C539.121 422.981 552.201 409.888 552.201 393.737C552.201 377.586 539.121 364.493 522.986 364.493C506.851 364.493 493.771 377.586 493.771 393.737C493.771 409.888 506.851 422.981 522.986 422.981Z" stroke="currentColor" strokeWidth="4" strokeMiterlimit="10" opacity="0.5"/><path stroke="currentColor" d="M522.986 422.981C539.121 422.981 552.201 409.888 552.201 393.737C552.201 377.586 539.121 364.493 522.986 364.493C506.851 364.493 493.771 377.586 493.771 393.737C493.771 409.888 506.851 422.981 522.986 422.981Z" strokeWidth="4" strokeMiterlimit="10" fill="currentColor" opacity="0.5"/><path stroke="currentColor" d="M522.986 422.981C539.121 422.981 552.201 409.888 552.201 393.737C552.201 377.586 539.121 364.493 522.986 364.493C506.851 364.493 493.771 377.586 493.771 393.737C493.771 409.888 506.851 422.981 522.986 422.981Z" strokeWidth="4" strokeMiterlimit="10" fill="currentColor" opacity="0.5"/><path stroke="currentColor" d="M522.986 422.981C539.121 422.981 552.201 409.888 552.201 393.737C552.201 377.586 539.121 364.493 522.986 364.493C506.851 364.493 493.771 377.586 493.771 393.737C493.771 409.888 506.851 422.981 522.986 422.981Z" strokeWidth="4" strokeMiterlimit="10" fill="currentColor" opacity="0.5"/><path stroke="currentColor" d="M522.986 422.981C539.121 422.981 552.201 409.888 552.201 393.737C552.201 377.586 539.121 364.493 522.986 364.493C506.851 364.493 493.771 377.586 493.771 393.737C493.771 409.888 506.851 422.981 522.986 422.981Z" strokeWidth="4" strokeMiterlimit="10" fill="currentColor" opacity="0.5"/><path fill="currentColor" d="M522.986 422.981C539.121 422.981 552.201 409.888 552.201 393.737C552.201 377.586 539.121 364.493 522.986 364.493C506.851 364.493 493.771 377.586 493.771 393.737C493.771 409.888 506.851 422.981 522.986 422.981Z" stroke="currentColor" strokeWidth="4" strokeMiterlimit="10" opacity="0.5"/><path fill="currentColor" d="M522.986 422.981C539.121 422.981 552.201 409.888 552.201 393.737C552.201 377.586 539.121 364.493 522.986 364.493C506.851 364.493 493.771 377.586 493.771 393.737C493.771 409.888 506.851 422.981 522.986 422.981Z" stroke="currentColor" strokeWidth="4" strokeMiterlimit="10" opacity="0.5"/><path stroke="currentColor" d="M522.986 422.981C539.121 422.981 552.201 409.888 552.201 393.737C552.201 377.586 539.121 364.493 522.986 364.493C506.851 364.493 493.771 377.586 493.771 393.737C493.771 409.888 506.851 422.981 522.986 422.981Z" strokeWidth="4" strokeMiterlimit="10" fill="currentColor" opacity="0.5"/><path fill="currentColor" d="M522.986 422.981C539.121 422.981 552.201 409.888 552.201 393.737C552.201 377.586 539.121 364.493 522.986 364.493C506.851 364.493 493.771 377.586 493.771 393.737C493.771 409.888 506.851 422.981 522.986 422.981Z" stroke="currentColor" strokeWidth="4" strokeMiterlimit="10" opacity="0.5"/><path stroke="currentColor" d="M522.986 422.981C539.121 422.981 552.201 409.888 552.201 393.737C552.201 377.586 539.121 364.493 522.986 364.493C506.851 364.493 493.771 377.586 493.771 393.737C493.771 409.888 506.851 422.981 522.986 422.981Z" strokeWidth="4" strokeMiterlimit="10" fill="currentColor" opacity="0.5"/><path fill="currentColor" d="M522.986 422.981C539.121 422.981 552.201 409.888 552.201 393.737C552.201 377.586 539.121 364.493 522.986 364.493C506.851 364.493 493.771 377.586 493.771 393.737C493.771 409.888 506.851 422.981 522.986 422.981Z" stroke="currentColor" opacity="0.5" strokeWidth="4"/><path stroke="currentColor" opacity="0.5" d="M522.986 422.981C539.121 422.981 552.201 409.888 552.201 393.737C552.201 377.586 539.121 364.493 522.986 364.493C506.851 364.493 493.771 377.586 493.771 393.737C493.771 409.888 506.851 422.981 522.986 422.981Z" strokeWidth="4" fill="currentColor"/><path stroke="currentColor" d="M522.986 422.981C539.121 422.981 552.201 409.888 552.201 393.737C552.201 377.586 539.121 364.493 522.986 364.493C506.851 364.493 493.771 377.586 493.771 393.737C493.771 409.888 506.851 422.981 522.986 422.981Z" strokeWidth="4" fill="currentColor" opacity="0.5"/><path stroke="currentColor" fill="currentColor" d="M522.986 422.981C539.121 422.981 552.201 409.888 552.201 393.737C552.201 377.586 539.121 364.493 522.986 364.493C506.851 364.493 493.771 377.586 493.771 393.737C493.771 409.888 506.851 422.981 522.986 422.981Z" strokeWidth="4" opacity="0.5"/><path stroke="currentColor" d="M522.986 422.981C539.121 422.981 552.201 409.888 552.201 393.737C552.201 377.586 539.121 364.493 522.986 364.493C506.851 364.493 493.771 377.586 493.771 393.737C493.771 409.888 506.851 422.981 522.986 422.981Z" strokeWidth="4" fill="currentColor" opacity="0.5"/><path stroke="currentColor" fill="currentColor" d="M522.986 422.981C539.121 422.981 552.201 409.888 552.201 393.737C552.201 377.586 539.121 364.493 522.986 364.493C506.851 364.493 493.771 377.586 493.771 393.737C493.771 409.888 506.851 422.981 522.986 422.981Z" strokeWidth="4" opacity="0.5"/><path stroke="currentColor" d="M522.986 422.981C539.121 422.981 552.201 409.888 552.201 393.737C552.201 377.586 539.121 364.493 522.986 364.493C506.851 364.493 493.771 377.586 493.771 393.737C493.771 409.888 506.851 422.981 522.986 422.981Z" strokeWidth="4" fill="currentColor" opacity="0.5"/><path stroke="currentColor" fill="currentColor"/><path stroke="currentColor" d="M522.986 422.981C539.121 422.981 552.201 409.888 552.201 393.737C552.201 377.586 539.121 364.493 522.986 364.493C506.851 364.493 493.771 377.586 493.771 393.737C493.771 409.888 506.851 422.981 522.986 422.981Z" strokeWidth="4" fill="currentColor" opacity="0.5"/><path stroke="currentColor" fill="currentColor" d="M522.986 422.981C539.121 422.981 552.201 409.888 552.201 393.737C552.201 377.586 539.121 364.493 522.986 364.493C506.851 364.493 493.771 377.586 493.771 393.737C493.771 409.888 506.851 422.981 522.986 422.981Z" opacity="0.5" strokeWidth="4"/><path stroke="currentColor" opacity="0.5" d="M522.986 422.981C539.121 422.981 552.201 409.888 552.201 393.737C552.201 377.586 539.121 364.493 522.986 364.493C506.851 364.493 493.771 377.586 493.771 393.737C493.771 409.888 506.851 422.981 522.986 422.981Z" strokeWidth="4"/><path stroke="currentColor" opacity="0.5" d="M522.986 422.981C539.121 422.981 552.201 409.888 552.201 393.737C552.201 377.586 539.121 364.493 522.986 364.493C506.851 364.493 493.771 377.586 493.771 393.737C493.771 409.888 506.851 422.981 522.986 422.981Z" strokeWidth="4"/><path stroke="currentColor" d="M522.986 422.981C539.121 422.981 552.201 409.888 552.201 393.737C552.201 377.586 539.121 364.493 522.986 364.493C506.851 364.493 493.771 377.586 493.771 393.737C493.771 409.888 506.851 422.981 522.986 422.981Z" strokeWidth="4" opacity="0.5"/><path stroke="currentColor" opacity="0.5" d="M522.986 422.981C539.121 422.981 552.201 409.888 552.201 393.737C552.201 377.586 539.121 364.493 522.986 364.493C506.851 364.493 493.771 377.586 493.771 393.737C493.771 409.888 506.851 422.981 522.986 422.981Z" strokeWidth="4"/><path stroke="currentColor" d="M522.986 422.981C539.121 422.981 552.201 409.888 552.201 393.737C552.201 377.586 539.121 364.493 522.986 364.493C506.851 364.493 493.771 377.586 493.771 393.737C493.771 409.888 506.851 422.981 522.986 422.981Z" strokeWidth="4"/></svg>