<svg xmlns="http://www.w3.org/2000/svg" viewBox="0 0 24 25" width="24" height="25" fill="#fff"><path d="M4.7805 10.7651C4.70569 11.1852 4.66665 11.6177 4.66665 12.0594C4.66665 14.1379 5.53141 16.0145 6.92078 17.349L4.94878 20.0632C2.73181 18.1086 1.33331 15.2473 1.33331 12.0594C1.33331 11.2586 1.42155 10.4784 1.58884 9.72806L4.7805 10.7651Z" fill="#EEEEEE"/><path d="M4.7805 10.7651C4.70569 11.1852 4.66665 11.6177 4.66665 12.0594C4.66665 14.1379 5.53141 16.0145 6.92078 17.349L4.94878 20.0632C2.73181 18.1086 1.33331 15.2473 1.33331 12.0594C1.33331 11.2586 1.42155 10.4784 1.58884 9.72806L4.7805 10.7651Z" fill="#EEEEEE"/><path d="M4.7805 10.7651C4.70569 11.1852 4.66665 11.6177 4.66665 12.0594C4.66665 14.1379 5.53141 16.0145 6.92078 17.349L4.94878 20.0632C2.73181 18.1086 1.33331 15.2473 1.33331 12.0594C1.33331 11.2586 1.42155 10.4784 1.58884 9.72806L4.7805 10.7651Z" fill="#EEEEEE"/><path d="M4.7805 10.7651C4.70569 11.1852 4.66665 11.6177 4.66665 12.0594C4.66665 14.1379 5.53141 16.0145 6.92078 17.349L4.94878 20.0632C2.73181 18.1086 1.33331 15.2473 1.33331 12.0594C1.33331 11.2586 1.42155 10.4784 1.58884 9.72806L4.7805 10.7651Z" fill="#EEEEEE"/><path d="M4.7805 10.7651C4.70569 11.1852 4.66665 11.6177 4.66665 12.0594C4.66665 14.1379 5.53141 16.0145 6.92078 17.349L4.94878 20.0632C2.73181 18.1086 1.33331 15.2473 1.33331 12.0594C1.33331 11.2586 1.42155 10.4784 1.58884 9.72806L4.7805 10.7651Z" fill="#EEEEEE"/></svg>