<svg xmlns="http://www.w3.org/2000/svg" viewBox="0 0 36 36" width="36" height="36" fill="#fff"><rect width="1.24994" height="2.49988" transform="matrix(1 0 0 -1 25.498 33)" fill=" currentColor "/><rect width="1.24994" height="2.49988" transform="matrix(-4.37114e-08 -1 -1 4.37114e-08 32.998 11.1255)" fill="currentColor" fillRule="evenodd" clipRule="evenodd" d="M29.2499 6.75H6.75098V29.2489H29.2499V6.75ZM17.1903 18.8109L15.3017 25.8956L23.8983 16.2309H19.7703L21.3183 9.52285L13.0623 18.8109H17.1903Z"/><rect width="1.24994" height="2.49988" transform="matrix(-4.37114e-08 -1 -1 4.37114e-08 32.998 11.1255)" fill="currentColor" fillRule="evenodd" clipRule="evenodd" d="M29.2499 6.75H6.75098V29.2489H29.2499V6.75ZM17.1903 18.8109L15.3017 25.8956L23.8983 16.2309H19.7703L21.3183 9.52285L13.0623 18.8109H17.1903Z"/><rect width="1.24994" height="2.49988" transform="matrix(-4.37114e-08 -1 -1 4.37114e-08 32.998 11.1255)" fill="currentColor" fillRule="evenodd" clipRule="evenodd" d="M29.2499 6.75H6.75098V29.2489H29.2499V6.75ZM17.1903 18.8109L15.3017 25.8956L23.8983 16.2309H19.7703L21.3183 9.52285L13.0623 18.8109H17.1903Z"/><rect width="1.24994" height="2.49988" transform="matrix(-4.37114e-08 -1 -1 4.37114e-08 32.998 11.1255)" fill="currentColor" fillRule="evenodd" clipRule="evenodd" d="M29.2499 6.75H6.75098V29.2489H29.2499V6.75ZM17.1903 18.8109L15.3017 25.8956L23.8983 16.2309H19.7703L21.3183 9.52285L13.0623 18.8109H17.1903Z"/><rect width="1.24994" height="2.49988" transform="matrix(-4.37114e-08 -1 -1 4.37114e-08 32.998 11.1255)" fill="currentColor" fillRule="evenodd" clipRule="evenodd" d="M29.2499 6.75H6.75098V29.2489H29.2499V6.75ZM17.1903 18.8109L15.3017 25.8956L23.8983 16.2309H19.7703L21.3183 9.52285L13.0623 18.8109H17.1903Z"/><rect width="1.24994" height="2.49988" transform="matrix(-4.37114e-08 -1 -1 4.37114e-08 32.998 11.1255)" fill="currentColor" fillRule="evenodd" clipRule="evenodd" d="M29.2499 6.75H6.75098V29.2489H29.2499V6.75ZM17.1903 18.8109L15.3017 25.8956L23.8983 16.2309H19.7703L21.3183 9.52285L13.0623 18.8109H17.1903Z"/><rect width="1.24994" height="2.49988" transform="matrix(-4.37114e-08 -1 -1 4.37114e-08 32.998 11.1255)" fill="currentColor" fillRule="evenodd" clipRule="evenodd" d="M29.2499 6.75H6.75098V29.2489H29.2499V6.75ZM17.1903 18.8109L15.3017 25.8956L23.8983 16.2309H19.7703L21.3183 9.52285L13.0623 18.8109H17.1903Z"/><rect width="1.24994" height="2.49988" transform="matrix(1 0 0 -1 25.498 33)" fill=" currentColor "/><rect width="1.24994" height="2.49988" transform="matrix(-4.37114e-08 -1 -1 4.37114e-08 32.998 11.1255)" fill="currentColor" fillRule="evenodd" clipRule="evenodd" d="M29.2499 6.75H6.75098V29.2489H29.2499V6.75ZM17.1903 18.8109L15.3017 25.8956L23.8983 16.2309H19.7703L21.3183 9.52285L13.0623 18.8109H17.1903Z"/><rect width="1.24994" height="2.49988" transform="matrix(-4.37114e-08 -1 -1 4.37114e-08 32.998 11.1255)" fill="currentColor" fillRule="evenodd" clipRule="evenodd" d="M29.2499 6.75H6.75098V29.2489H29.2499V6.75ZM17.1903 18.8109L15.3017 25.8956L23.8983 16.2309H19.7703L21.3183 9.52285L13.0623 18.8109H17.1903Z"/><rect width="1.24994" height="2.49988" transform="matrix(1 0 0 -1 25.498 33)"/><rect width="1.24994" height="2.49988" transform="matrix(-4.37114e-08 -1 -1 4.37114e-08 32.998 11.1255)" fill="currentColor" fillRule="evenodd" clipRule="evenodd" d="M29.2499 6.75H6.75098V29.2489H29.2499V6.75ZM17.1903 18.8109L15.3017 25.8956L23.8983 16.2309H19.7703L21.3183 9.52285L13.0623 18.8109H17.1903Z"/><rect width="1.24994" height="2.49988" transform="matrix(-4.37114e-08 -1 -1 4.37114e-08 32.998 11.1255)" fill="currentColor" fillRule="evenodd" clipRule="evenodd" d="M29.2499 6.75H6.75098V29.2489H29.2499V6.75ZM17.1903 18.8109L15.3017 25.8956L23.8983 16.2309H19.7703L21.3183 9.52285L13.0623 18.8109H17.1903Z"/><rect width="1.24994" height="2.49988"/><rect width="1.24994" height="2.49988" transform="matrix(-4.37114e-08 -1 -1 4.37114e-08 32.998 11.1255)" fill="currentColor" fillRule="evenodd" clipRule="evenodd" d="M29.2499 6.75H6.75098V29.2489H29.2499V6.75ZM17.1903 18.8109L15.3017 25.8956L23.8983 16.2309H19.7703L21.3183 9.52285L13.0623 18.8109H17.1903Z"/><rect width="1.24994" height="2.49988" transform="matrix(-4.37114e-08 -1 -1 4.37114e-08 5.5 11.1255)"/><rect width="1.24994"/><rect width="1.24994" height="2.49988"/><rect width="1.24994" height="2.49988" transform="matrix(-4.37114e-08 -1 -1 4.37114e-08 32.998 23.625)"/><rect width="1.24994"/><rect width="1.24994" height="2.49988" transform="matrix(-4.37114e-08 -1 -1 4.37114e-08 32.998 11.1255)" fill="currentColor" fillRule="evenodd" clipRule="evenodd" d="M29.2499 6.75H6.75098V29.2489H29.2499V6.75ZM17.1903 18.8109L15.3017 25.8956L23.8983 16.2309H19.7703L21.3183 9.52285L13.0623 18.8109H17.1903Z"/><rect width="1.24994" height="2.49988" transform="matrix(-4.37114e-08 -1 -1 4.37114e-08 32.998 11.1255)" fill="currentColor" fillRule="evenodd" clipRule="evenodd" d="M29.2499 6.75H6.75098V29.2489H29.2499V6.75ZM17.1903 18.8109L15.3017 25.8956L23.8983 16.2309H19.7703L21.3183 9.52285L13.0623 18.8109H17.1903Z"/><path fillRule="evenodd" clipRule="evenodd"/></svg>