<svg xmlns="http://www.w3.org/2000/svg" viewBox="0 0 316 68" fill="#fff"><path fill="currentColor" d="M94.7256 66.118L95.1356 65.9814C96.6685 65.1103 97.9015 63.8185 98.5503 62.1036C99.8101 58.7732 101.161 53.4316 101.161 45.8384C101.161 31.6127 93.258 7.90317 90.0967 6.32253C89.723 6.13561 89.1941 5.92655 88.5161 5.70326V4.00719C88.5161 3.47871 88.2542 2.98677 87.7964 2.7222C86.2947 1.8538 82.6634 0 79.0323 0C74.2904 0 74.2904 1.58063 74.2904 1.58063V2.93214C73.2529 2.80403 72.1702 2.68151 71.0434 2.56622L71.0833 2.60949C71.7122 3.30182 72.037 4.16635 71.8558 5.16374L70.328 13.5656L70.3406 13.5696L70.308 13.6752L69.9306 15.7515C69.2354 19.5754 70.4671 23.5069 73.0877 26.4282C76.1953 29.8924 80.2411 34.7256 82.8713 39.1092C84.6967 42.1516 86.494 46.9568 88.0204 51.718C89.5532 56.4987 90.8355 61.3067 91.618 64.398C91.9648 65.7676 93.4004 66.5597 94.7256 66.118ZM73.6668 7.19625C74.0574 6.41546 75.0066 6.09897 75.7875 6.48937C76.5684 6.87976 76.8848 7.82921 76.4945 8.61L75.7041 10.1905C75.3138 10.9714 74.3643 11.2878 73.5834 10.8975C72.8027 10.5072 72.4861 9.55771 72.8766 8.77689L73.6668 7.19625ZM85.3548 25.2901C85.3548 27.036 83.9394 28.4514 82.1935 28.4514C80.4477 28.4514 79.0323 27.036 79.0323 25.2901C79.0323 23.5443 80.4477 22.1289 82.1935 22.1289C83.9394 22.1289 85.3548 23.5443 85.3548 25.2901ZM88.5161 22.1289C90.2619 22.1289 91.6773 20.7135 91.6773 18.9676C91.6773 17.2217 90.2619 15.8063 88.5161 15.8063C86.7702 15.8063 85.3548 17.2217 85.3548 18.9676C85.3548 20.7135 86.7702 22.1289 88.5161 22.1289ZM85.3548 12.6451C85.3548 14.3909 83.9394 15.8063 82.1935 15.8063C80.4477 15.8063 79.0323 14.3909 79.0323 12.6451C79.0323 10.8992 80.4477 9.4838 82.1935 9.4838C83.9394 9.4838 85.3548 10.8992 85.3548 12.6451ZM75.871 22.1289C77.6169 22.1289 79.0323 20.7135 79.0323 18.9676C79.0323 17.2217 77.6169 15.8063 75.871 15.8063C74.1251 15.8063 72.7097 17.2217 72.7097 18.9676C72.7097 20.7135 74.1251 22.1289 75.871 22.1289Z" fillRule="evenodd" clipRule="evenodd"/><path fill="currentColor" fillRule="evenodd" clipRule="evenodd" d="M315.312 17.8612V40.7508H287.845V17.8612L315.312 17.8612ZM303.868 22.4391H299.29V27.017H303.868V22.4391ZM303.868 31.595H299.29V36.1729H303.868V31.595Z"/><path fill="currentColor" fillRule="evenodd" clipRule="evenodd" d="M94.7256 66.118L95.1356 65.9814C96.6685 65.1103 97.9015 63.8185 98.5503 62.1036C99.8101 58.7732 101.161 53.4316 101.161 45.8384C101.161 31.6127 93.258 7.90317 90.0967 6.32253C89.723 6.13561 89.1941 5.92655 88.5161 5.70326V4.00719C88.5161 3.47871 88.2542 2.98677 87.7964 2.7222C86.2947 1.8538 82.6634 0 79.0323 0C74.2904 0 74.2904 1.58063 74.2904 1.58063V2.93214C73.2529 2.80403 72.1702 2.68151 71.0434 2.56622L71.0833 2.60949C71.7122 3.30182 72.037 4.16635 71.8558 5.16374L70.328 13.5656L70.3406 13.5696L70.308 13.6752L69.9306 15.7515C69.2354 19.5754 70.4671 23.5069 73.0877 26.4282C76.1953 29.8924 80.2411 34.7256 82.8713 39.1092C84.6967 42.1516 86.494 46.9568 88.0204 51.718C89.5532 56.4987 90.8355 61.3067 91.618 64.398C91.9648 65.7676 93.4004 66.5597 94.7256 66.118ZM73.6668 7.19625C74.0574 6.41546 75.0066 6.09897 75.7875 6.48937C76.5684 6.87976 76.8848 7.82921 76.4945 8.61L75.7041 10.1905C75.3138 10.9714 74.3643 11.2878 73.5834 10.8975C72.8027 10.5072 72.4861 9.55771 72.8766 8.77689L73.6668 7.19625ZM85.3548 25.2901C85.3548 27.036 83.9394 28.4514 82.1935 28.4514C80.4477 28.4514 79.0323 27.036 79.0323 25.2901C79.0323 23.5443 80.4477 22.1289 82.1935 22.1289C83.9394 22.1289 85.3548 23.5443 85.3548 25.2901ZM88.5161 22.1289C90.2619 22.1289 91.6773 20.7135 91.6773 18.9676C91.6773 17.2217 90.2619 15.8063 88.5161 15.8063C86.7702 15.8063 85.3548 17.2217 85.3548 18.9676C85.3548 20.7135 86.7702 22.1289 88.5161 22.1289ZM85.3548 12.6451C85.3548 14.3909 83.9394 15.8063 82.1935 15.8063C80.4477 15.8063 79.0323 14.3909 79.0323 12.6451C79.0323 10.8992 80.4477 9.4838 82.1935 9.4838C83.9394 9.4838 85.3548 10.8992 85.3548 12.6451ZM75.871 22.1289C77.6169 22.1289 79.0323 20.7135 79.0323 18.9676C79.0323 17.2217 77.6169 15.8063 75.871 15.8063C74.1251 15.8063 72.7097 17.2217 72.7097 18.9676C72.7097 20.7135 74.1251 22.1289 75.871 22.1289Z"/><path fill="currentColor"/><path fill="currentColor" fillRule="evenodd" clipRule="evenodd" d="M94.7256 66.118L95.1356 65.9814C96.6685 65.1103 97.9015 63.8185 98.5503 62.1036C99.8101 58.7732 101.161 53.4316 101.161 45.8384C101.161 31.6127 93.258 7.90317 90.0967 6.32253C89.723 6.13561 89.1941 5.92655 88.5161 5.70326V4.00719C88.5161 3.47871 88.2542 2.98677 87.7964 2.7222C86.2947 1.8538 82.6634 0 79.0323 0C74.2904 0 74.2904 1.58063 74.2904 1.58063V2.93214C73.2529 2.80403 72.1702 2.68151 71.0434 2.56622L71.0833 2.60949C71.7122 3.30182 72.037 4.16635 71.8558 5.16374L70.328 13.5656L70.3406 13.5696L70.308 13.6752L69.9306 15.7515C69.2354 19.5754 70.4671 23.5069 73.0877 26.4282C76.1953 29.8924 80.2411 34.7256 82.8713 39.1092C84.6967 42.1516 86.494 46.9568 88.0204 51.718C89.5532 56.4987 90.8355 61.3067 91.618 64.398C91.9648 65.7676 93.4004 66.5597 94.7256 66.118ZM73.6668 7.19625C74.0574 6.41546 75.0066 6.09897 75.7875 6.48937C76.5684 6.87976 76.8848 7.82921 76.4945 8.61L75.7041 10.1905C75.3138 10.9714 74.3643 11.2878 73.5834 10.8975C72.8027 10.5072 72.4861 9.55771 72.8766 8.77689L73.6668 7.19625ZM85.3548 25.2901C85.3548 27.036 83.9394 28.4514 82.1935 28.4514C80.4477 28.4514 79.0323 27.036 79.0323 25.2901C79.0323 23.5443 80.4477 22.1289 82.1935 22.1289C83.9394 22.1289 85.3548 23.5443 85.3548 25.2901ZM88.5161 22.1289C90.2619 22.1289 91.6773 20.7135 91.6773 18.9676C91.6773 17.2217 90.2619 15.8063 88.5161 15.8063C86.7702 15.8063 85.3548 17.2217 85.3548 18.9676C85.3548 20.7135 86.7702 22.1289 88.5161 22.1289ZM85.3548 12.6451C85.3548 14.3909 83.9394 15.8063 82.1935 15.8063C80.4477 15.8063 79.0323 14.3909 79.0323 12.6451C79.0323 10.8992 80.4477 9.4838 82.1935 9.4838C83.9394 9.4838 85.3548 10.8992 85.3548 12.6451ZM75.871 22.1289C77.6169 22.1289 79.0323 20.7135 79.0323 18.9676C79.0323 17.2217 77.6169 15.8063 75.871 15.8063C74.1251 15.8063 72.7097 17.2217 72.7097 18.9676C72.7097 20.7135 74.1251 22.1289 75.871 22.1289Z"/><path fill="currentColor" fillRule="evenodd" clipRule="evenodd"/></svg>