<svg xmlns="http://www.w3.org/2000/svg" viewBox="0 0 1920 1080" width="44.2764" height="39" fill="#fff"><path fill="currentColor" d="M1193 141H728V0H1193V141ZM1155 77C1143.95 77 1135 85.9543 1135 97C1135 108.046 1143.95 117 1155 117C1166.05 117 1175 108.046 1175 97C1175 85.9543 1166.05 77 1155 77ZM771 107H821V87H771V107ZM852 107H902V87H852V107Z" x="947" y="680.556" width="24.2764" height="48.947" stroke="currentColor" strokeWidth="6.06911"/><rect fill="currentColor" x="947" y="680.556" width="24.2764" height="48.947" stroke="currentColor" strokeWidth="6.06911" d="M877 353C877 353 877 456.189 877 508.943C877 539 891.383 561.298 921 569.234C966 581.292 959.842 605.5 959.842 690.261"/><rect stroke="currentColor" x="947" y="680.556" width="24.2764" height="48.947" strokeWidth="6.06911" fill="currentColor" d="M877 353C877 353 877 456.189 877 508.943C877 539 891.383 561.298 921 569.234C966 581.292 959.842 605.5 959.842 690.261"/><rect fill="currentColor" x="947" y="680.556" width="24.2764" height="48.947" stroke="currentColor" d="M1193 141H728V0H1193V141ZM1155 77C1143.95 77 1135 85.9543 1135 97C1135 108.046 1143.95 117 1155 117C1166.05 117 1175 108.046 1175 97C1175 85.9543 1166.05 77 1155 77ZM771 107H821V87H771V107ZM852 107H902V87H852V107Z" strokeWidth="6.06911"/><path stroke="currentColor" d="M1193 141H728V0H1193V141ZM1155 77C1143.95 77 1135 85.9543 1135 97C1135 108.046 1143.95 117 1155 117C1166.05 117 1175 108.046 1175 97C1175 85.9543 1166.05 77 1155 77ZM771 107H821V87H771V107ZM852 107H902V87H852V107Z" strokeWidth="6.06911" fill="currentColor"/><path fill="currentColor" d="M1193 141H728V0H1193V141ZM1155 77C1143.95 77 1135 85.9543 1135 97C1135 108.046 1143.95 117 1155 117C1166.05 117 1175 108.046 1175 97C1175 85.9543 1166.05 77 1155 77ZM771 107H821V87H771V107ZM852 107H902V87H852V107Z"/><path fill="currentColor"/></svg>