<svg xmlns="http://www.w3.org/2000/svg" viewBox="0 0 36 36" fill="#fff"><path fill="currentColor" d="M18 0L35 7.00016V29L18 36L1 29V7.00016L18 0ZM4 27.7647V9.76471L18 4L32 9.76471V27.7647L24.6111 24.7222L24.1734 27.7864L27.1208 29L18 32.7556L8.87919 29L11.8266 27.7864L11.3889 24.7222L4 27.7647Z" fillRule="evenodd" clipRule="evenodd"/><path fill="currentColor" d="M18 0L35 7.00016V29L18 36L1 29V7.00016L18 0ZM4 27.7647V9.76471L18 4L32 9.76471V27.7647L24.6111 24.7222L24.1734 27.7864L27.1208 29L18 32.7556L8.87919 29L11.8266 27.7864L11.3889 24.7222L4 27.7647Z" fillRule="evenodd" clipRule="evenodd"/><path fill="currentColor" fillRule="evenodd" clipRule="evenodd" d="M18 0L35 7.00016V29L18 36L1 29V7.00016L18 0ZM4 27.7647V9.76471L18 4L32 9.76471V27.7647L24.6111 24.7222L24.1734 27.7864L27.1208 29L18 32.7556L8.87919 29L11.8266 27.7864L11.3889 24.7222L4 27.7647Z"/></svg>