<svg xmlns="http://www.w3.org/2000/svg" viewBox="0 0 1280 720" width="1280" height="720" fill="#fff"><path fill="white"/><path fill="#59BF40" opacity="0.7" d="M405.043 124.5L388.265 142.118L380.707 134.212L374.75 140.386L388.265 154.5L411 130.673L405.043 124.5Z" stroke="white" cx="897.396" cy="353.396" r="24.7509" strokeWidth="3.28975"/><path fill="#59BF40" d="M405.043 124.5L388.265 142.118L380.707 134.212L374.75 140.386L388.265 154.5L411 130.673L405.043 124.5Z" stroke="white" cx="897.396" cy="353.396" r="24.7509" strokeWidth="3.28975"/><circle stroke="white" cx="897.396" cy="353.396" r="24.7509" strokeWidth="3.28975" d="M405.043 124.5L388.265 142.118L380.707 134.212L374.75 140.386L388.265 154.5L411 130.673L405.043 124.5Z" fill="#59BF40"/><path stroke="white" d="M405.043 124.5L388.265 142.118L380.707 134.212L374.75 140.386L388.265 154.5L411 130.673L405.043 124.5Z" strokeWidth="3.28975" fill="#59BF40"/><path fill="#59BF40" d="M405.043 124.5L388.265 142.118L380.707 134.212L374.75 140.386L388.265 154.5L411 130.673L405.043 124.5Z"/></svg>