<svg xmlns="http://www.w3.org/2000/svg" viewBox="0 0 32 36" fill="#fff"><path fill="currentColor" fillRule="evenodd" clipRule="evenodd" d="M19.1021 32.7709L18.1625 30.9338L19.7899 29.8732L19.347 29.0071L16.9523 30.5678L18.3349 33.2709L19.1021 32.7709Z"/><path fill="currentColor" fillRule="evenodd" clipRule="evenodd" d="M19.1021 32.7709L18.1625 30.9338L19.7899 29.8732L19.347 29.0071L16.9523 30.5678L18.3349 33.2709L19.1021 32.7709Z"/><path fill="currentColor" fillRule="evenodd" clipRule="evenodd"/><path fill="currentColor" fillRule="evenodd" clipRule="evenodd"/><path fill="currentColor" fillRule="evenodd" clipRule="evenodd" d="M19.1021 32.7709L18.1625 30.9338L19.7899 29.8732L19.347 29.0071L16.9523 30.5678L18.3349 33.2709L19.1021 32.7709Z"/><path fill="currentColor" d="M19.1021 32.7709L18.1625 30.9338L19.7899 29.8732L19.347 29.0071L16.9523 30.5678L18.3349 33.2709L19.1021 32.7709Z" fillRule="evenodd" clipRule="evenodd"/><path fill="currentColor" fillRule="evenodd" clipRule="evenodd" d="M19.1021 32.7709L18.1625 30.9338L19.7899 29.8732L19.347 29.0071L16.9523 30.5678L18.3349 33.2709L19.1021 32.7709Z"/></svg>