<svg xmlns="http://www.w3.org/2000/svg" viewBox="0 0 1200 1200" fill="#fff"><g d="M904.2,629h-267c-17.6,0-31.8,14.2-31.8,31.8v267c0,17.6,14.2,31.8,31.8,31.8h267c17.6,0,31.8-14.2,31.8-31.8v-267   C936,643.2,921.8,629,904.2,629z M860.5,829.8l-87.7,87.7L685,829.8c-6.6-6.6-6.6-17.4,0-24c6.6-6.6,17.4-6.6,24,0l46.7,46.7v-164   c0-9.4,7.6-17,17-17s17,7.6,17,17v164l46.7-46.7c6.6-6.6,17.4-6.6,24,0C867.1,812.4,867.1,823.2,860.5,829.8z"/><path d="M904.2,629h-267c-17.6,0-31.8,14.2-31.8,31.8v267c0,17.6,14.2,31.8,31.8,31.8h267c17.6,0,31.8-14.2,31.8-31.8v-267   C936,643.2,921.8,629,904.2,629z M860.5,829.8l-87.7,87.7L685,829.8c-6.6-6.6-6.6-17.4,0-24c6.6-6.6,17.4-6.6,24,0l46.7,46.7v-164   c0-9.4,7.6-17,17-17s17,7.6,17,17v164l46.7-46.7c6.6-6.6,17.4-6.6,24,0C867.1,812.4,867.1,823.2,860.5,829.8z"/><path d="M904.2,629h-267c-17.6,0-31.8,14.2-31.8,31.8v267c0,17.6,14.2,31.8,31.8,31.8h267c17.6,0,31.8-14.2,31.8-31.8v-267   C936,643.2,921.8,629,904.2,629z M860.5,829.8l-87.7,87.7L685,829.8c-6.6-6.6-6.6-17.4,0-24c6.6-6.6,17.4-6.6,24,0l46.7,46.7v-164   c0-9.4,7.6-17,17-17s17,7.6,17,17v164l46.7-46.7c6.6-6.6,17.4-6.6,24,0C867.1,812.4,867.1,823.2,860.5,829.8z"/></svg>