<svg xmlns="http://www.w3.org/2000/svg" viewBox="0 0 36 36" fill="#fff"><path d="M18 22.05C19.5913 22.05 21.1174 21.4179 22.2426 20.2927C23.3678 19.1675 24 17.6413 24 16.05V8.05005C24 6.45875 23.3678 4.93263 22.2426 3.80741C21.1174 2.68219 19.5913 2.05005 18 2.05005C16.4087 2.05005 14.8826 2.68219 13.7573 3.80741C12.6321 4.93263 12 6.45875 12 8.05005V16.05C12 17.6413 12.6321 19.1675 13.7573 20.2927C14.8826 21.4179 16.4087 22.05 18 22.05Z" fill="currentColor"/><path d="M18 22.05C19.5913 22.05 21.1174 21.4179 22.2426 20.2927C23.3678 19.1675 24 17.6413 24 16.05V8.05005C24 6.45875 23.3678 4.93263 22.2426 3.80741C21.1174 2.68219 19.5913 2.05005 18 2.05005C16.4087 2.05005 14.8826 2.68219 13.7573 3.80741C12.6321 4.93263 12 6.45875 12 8.05005V16.05C12 17.6413 12.6321 19.1675 13.7573 20.2927C14.8826 21.4179 16.4087 22.05 18 22.05Z" fill="currentColor"/></svg>