<svg xmlns="http://www.w3.org/2000/svg" viewBox="0 0 24 25" width="24" height="25" fill="#fff"><path d="M8.10957 15.7176C7.21296 14.7629 6.66375 13.4782 6.66375 12.0651C6.66375 11.8388 6.67784 11.6157 6.70519 11.3968L1.58319 9.73256C1.4637 10.2685 1.38452 10.8196 1.34899 11.3826C1.33474 11.6083 1.32751 11.8359 1.32751 12.0651C1.32751 14.655 2.25003 17.0295 3.78439 18.8777C4.13971 19.3058 4.52785 19.7056 4.94494 20.0733L8.10957 15.7176Z" fill="#AAAAAA"/><path d="M10.9994 1.43896C7.04366 1.80676 3.71437 4.3334 2.20111 7.82928L7.32311 9.49352C8.0771 8.12521 9.41413 7.12328 10.9994 6.82256V1.43896Z" fill="#EEEEEE"/><path d="M8.10957 15.7176C7.21296 14.7629 6.66375 13.4782 6.66375 12.0651C6.66375 11.8388 6.67784 11.6157 6.70519 11.3968L1.58319 9.73256C1.4637 10.2685 1.38452 10.8196 1.34899 11.3826C1.33474 11.6083 1.32751 11.8359 1.32751 12.0651C1.32751 14.655 2.25003 17.0295 3.78439 18.8777C4.13971 19.3058 4.52785 19.7056 4.94494 20.0733L8.10957 15.7176Z" fill="#AAAAAA"/><path d="M8.10957 15.7176C7.21296 14.7629 6.66375 13.4782 6.66375 12.0651C6.66375 11.8388 6.67784 11.6157 6.70519 11.3968L1.58319 9.73256C1.4637 10.2685 1.38452 10.8196 1.34899 11.3826C1.33474 11.6083 1.32751 11.8359 1.32751 12.0651C1.32751 14.655 2.25003 17.0295 3.78439 18.8777C4.13971 19.3058 4.52785 19.7056 4.94494 20.0733L8.10957 15.7176Z" fill="#AAAAAA"/><path d="M10.9994 1.43896C7.04366 1.80676 3.71437 4.3334 2.20111 7.82928L7.32311 9.49352C8.0771 8.12521 9.41413 7.12328 10.9994 6.82256V1.43896Z" fill="#EEEEEE"/></svg>