<svg xmlns="http://www.w3.org/2000/svg" viewBox="0 0 36 36" fill="#fff"><path fill="currentColor" d="M36 25.9716H32.9795L30.3666 21.5983H28.1244V25.9716H25.4003V13H30.2554C32.0344 13 33.3439 13.3583 34.184 14.0748C35.024 14.779 35.4441 15.7673 35.4441 17.0397C35.4441 18.0404 35.2217 18.8743 34.777 19.5414C34.3446 20.2085 33.7331 20.715 32.9424 21.0609L36 25.9716ZM28.1244 15.3164V19.2634H30.2554C30.972 19.2634 31.5279 19.0843 31.9232 18.726C32.3309 18.3554 32.5347 17.8489 32.5347 17.2065C32.5347 16.5765 32.3371 16.107 31.9417 15.7982C31.5588 15.477 30.9411 15.3164 30.0886 15.3164H28.1244Z"/><path fill="currentColor" d="M36 25.9716H32.9795L30.3666 21.5983H28.1244V25.9716H25.4003V13H30.2554C32.0344 13 33.3439 13.3583 34.184 14.0748C35.024 14.779 35.4441 15.7673 35.4441 17.0397C35.4441 18.0404 35.2217 18.8743 34.777 19.5414C34.3446 20.2085 33.7331 20.715 32.9424 21.0609L36 25.9716ZM28.1244 15.3164V19.2634H30.2554C30.972 19.2634 31.5279 19.0843 31.9232 18.726C32.3309 18.3554 32.5347 17.8489 32.5347 17.2065C32.5347 16.5765 32.3371 16.107 31.9417 15.7982C31.5588 15.477 30.9411 15.3164 30.0886 15.3164H28.1244Z"/><path fill="currentColor" d="M36 25.9716H32.9795L30.3666 21.5983H28.1244V25.9716H25.4003V13H30.2554C32.0344 13 33.3439 13.3583 34.184 14.0748C35.024 14.779 35.4441 15.7673 35.4441 17.0397C35.4441 18.0404 35.2217 18.8743 34.777 19.5414C34.3446 20.2085 33.7331 20.715 32.9424 21.0609L36 25.9716ZM28.1244 15.3164V19.2634H30.2554C30.972 19.2634 31.5279 19.0843 31.9232 18.726C32.3309 18.3554 32.5347 17.8489 32.5347 17.2065C32.5347 16.5765 32.3371 16.107 31.9417 15.7982C31.5588 15.477 30.9411 15.3164 30.0886 15.3164H28.1244Z"/></svg>