<svg xmlns="http://www.w3.org/2000/svg" viewBox="0 0 36 36" width="36" height="36" fill="#fff"><path d="M18 8.67969C19.2243 8.67969 20.4367 8.92084 21.5679 9.38937C22.699 9.85791 23.7268 10.5447 24.5925 11.4104C25.4583 12.2761 26.145 13.3039 26.6136 14.4351C27.0821 15.5662 27.3232 16.7786 27.3232 18.0029C27.3232 19.2273 27.0821 20.4396 26.6136 21.5708C26.145 22.7019 25.4583 23.7297 24.5925 24.5955C23.7268 25.4612 22.699 26.1479 21.5679 26.6165C20.4367 27.085 19.2243 27.3262 18 27.3262L18 18.0029L18 8.67969Z" fill="currentColor"/><path d="M18 8.67969C19.2243 8.67969 20.4367 8.92084 21.5679 9.38937C22.699 9.85791 23.7268 10.5447 24.5925 11.4104C25.4583 12.2761 26.145 13.3039 26.6136 14.4351C27.0821 15.5662 27.3232 16.7786 27.3232 18.0029C27.3232 19.2273 27.0821 20.4396 26.6136 21.5708C26.145 22.7019 25.4583 23.7297 24.5925 24.5955C23.7268 25.4612 22.699 26.1479 21.5679 26.6165C20.4367 27.085 19.2243 27.3262 18 27.3262L18 18.0029L18 8.67969Z" fill="currentColor"/></svg>