<svg xmlns="http://www.w3.org/2000/svg" viewBox="0 0 36 36" fill="#fff"><path fill="currentColor" d="M29 19V11.1836L32 8.18356V22H26.917C26.9716 21.6748 27 21.3407 27 21C27 20.2987 26.8797 19.6256 26.6585 19H29Z"/><path fill="currentColor" d="M29 19V11.1836L32 8.18356V22H26.917C26.9716 21.6748 27 21.3407 27 21C27 20.2987 26.8797 19.6256 26.6585 19H29Z"/><path fill="currentColor" d="M29 19V11.1836L32 8.18356V22H26.917C26.9716 21.6748 27 21.3407 27 21C27 20.2987 26.8797 19.6256 26.6585 19H29Z"/><path fill="currentColor" d="M29 19V11.1836L32 8.18356V22H26.917C26.9716 21.6748 27 21.3407 27 21C27 20.2987 26.8797 19.6256 26.6585 19H29Z"/><path fill="currentColor" d="M29 19V11.1836L32 8.18356V22H26.917C26.9716 21.6748 27 21.3407 27 21C27 20.2987 26.8797 19.6256 26.6585 19H29Z"/></svg>