<svg xmlns="http://www.w3.org/2000/svg" viewBox="0 0 36 39" fill="#fff"><path fill="white" d="M36 9C36 13.9706 31.9706 18 27 18C22.0294 18 18 13.9706 18 9C18 4.02944 22.0294 0 27 0C31.9706 0 36 4.02944 36 9ZM29.7251 13.7912H32.04L28.1091 3.6H25.9544L22.14 13.7912H24.3675L25.0372 11.8112H29.0263L29.7251 13.7912ZM25.6196 10.1078L27.0172 6.03136L28.444 10.1078H25.6196Z" fillOpacity="0.65"/><path fill="white" d="M36 9C36 13.9706 31.9706 18 27 18C22.0294 18 18 13.9706 18 9C18 4.02944 22.0294 0 27 0C31.9706 0 36 4.02944 36 9ZM29.7251 13.7912H32.04L28.1091 3.6H25.9544L22.14 13.7912H24.3675L25.0372 11.8112H29.0263L29.7251 13.7912ZM25.6196 10.1078L27.0172 6.03136L28.444 10.1078H25.6196Z" fillOpacity="0.65"/></svg>