<svg xmlns="http://www.w3.org/2000/svg" viewBox="0 0 36 36" fill="#fff"><line x1="6.8" y1="8.2" x2="29" y2="27.8" fill="#fff" stroke="#fff" strokeMiterlimit="10" strokeWidth="0" points="20.5 4.7 15.3 4.7 15.3 11.7 12.3 9.1 12.3 1.7 23.5 1.7 23.5 18.9 20.5 16.3 20.5 4.7"/><g points="20.5 4.7 15.3 4.7 15.3 11.7 12.3 9.1 12.3 1.7 23.5 1.7 23.5 18.9 20.5 16.3 20.5 4.7" fill="#fff" strokeWidth="0"/><polygon points="20.5 4.7 15.3 4.7 15.3 11.7 12.3 9.1 12.3 1.7 23.5 1.7 23.5 18.9 20.5 16.3 20.5 4.7" fill="#fff" strokeWidth="0"/><polygon points="20.5 4.7 15.3 4.7 15.3 11.7 12.3 9.1 12.3 1.7 23.5 1.7 23.5 18.9 20.5 16.3 20.5 4.7" fill="#fff" strokeWidth="0"/><polygon points="20.5 4.7 15.3 4.7 15.3 11.7 12.3 9.1 12.3 1.7 23.5 1.7 23.5 18.9 20.5 16.3 20.5 4.7" fill="#fff" strokeWidth="0"/><polygon points="20.5 4.7 15.3 4.7 15.3 11.7 12.3 9.1 12.3 1.7 23.5 1.7 23.5 18.9 20.5 16.3 20.5 4.7" fill="#fff" strokeWidth="0"/></svg>