<svg xmlns="http://www.w3.org/2000/svg" viewBox="0 0 44 44" fill="#fff"><path fill="currentColor" d="M27.9 4v1.9c1.8 0 3.6.7 4.9 2s2 3.1 2 4.9h1.9c0-2.4-.9-4.6-2.6-6.2S30.2 4 27.9 4M16.1 4v1.9c-1.9 0-3.6.7-4.9 2s-2 3.1-2 4.9H7.3c0-2.4.9-4.6 2.6-6.2C11.5 5 13.8 4 16.1 4m11.8 36v-1.9c1.8 0 3.6-.7 4.9-2s2-3.1 2-4.9h1.9c0 2.4-.9 4.6-2.6 6.2S30.2 40 27.9 40M16.1 40v-1.9c-1.9 0-3.6-.7-4.9-2s-2-3.1-2-4.9H7.3c0 2.4.9 4.6 2.6 6.2 1.6 1.6 3.9 2.6 6.2 2.6" cx="22" cy="25.3" r="3.6" stroke="currentColor" strokeWidth="1.8"/><circle cx="22" cy="25.3" r="3.6" fill="currentColor" stroke="currentColor" strokeWidth="1.8" d="M27.9 4v1.9c1.8 0 3.6.7 4.9 2s2 3.1 2 4.9h1.9c0-2.4-.9-4.6-2.6-6.2S30.2 4 27.9 4M16.1 4v1.9c-1.9 0-3.6.7-4.9 2s-2 3.1-2 4.9H7.3c0-2.4.9-4.6 2.6-6.2C11.5 5 13.8 4 16.1 4m11.8 36v-1.9c1.8 0 3.6-.7 4.9-2s2-3.1 2-4.9h1.9c0 2.4-.9 4.6-2.6 6.2S30.2 40 27.9 40M16.1 40v-1.9c-1.9 0-3.6-.7-4.9-2s-2-3.1-2-4.9H7.3c0 2.4.9 4.6 2.6 6.2 1.6 1.6 3.9 2.6 6.2 2.6"/><circle cx="22" cy="25.3" r="3.6" stroke="currentColor" strokeWidth="1.8" fill="currentColor" d="M27.9 4v1.9c1.8 0 3.6.7 4.9 2s2 3.1 2 4.9h1.9c0-2.4-.9-4.6-2.6-6.2S30.2 4 27.9 4M16.1 4v1.9c-1.9 0-3.6.7-4.9 2s-2 3.1-2 4.9H7.3c0-2.4.9-4.6 2.6-6.2C11.5 5 13.8 4 16.1 4m11.8 36v-1.9c1.8 0 3.6-.7 4.9-2s2-3.1 2-4.9h1.9c0 2.4-.9 4.6-2.6 6.2S30.2 40 27.9 40M16.1 40v-1.9c-1.9 0-3.6-.7-4.9-2s-2-3.1-2-4.9H7.3c0 2.4.9 4.6 2.6 6.2 1.6 1.6 3.9 2.6 6.2 2.6"/><path fill="currentColor" d="M27.9 4v1.9c1.8 0 3.6.7 4.9 2s2 3.1 2 4.9h1.9c0-2.4-.9-4.6-2.6-6.2S30.2 4 27.9 4M16.1 4v1.9c-1.9 0-3.6.7-4.9 2s-2 3.1-2 4.9H7.3c0-2.4.9-4.6 2.6-6.2C11.5 5 13.8 4 16.1 4m11.8 36v-1.9c1.8 0 3.6-.7 4.9-2s2-3.1 2-4.9h1.9c0 2.4-.9 4.6-2.6 6.2S30.2 40 27.9 40M16.1 40v-1.9c-1.9 0-3.6-.7-4.9-2s-2-3.1-2-4.9H7.3c0 2.4.9 4.6 2.6 6.2 1.6 1.6 3.9 2.6 6.2 2.6"/><path fill="currentColor" d="M27.9 4v1.9c1.8 0 3.6.7 4.9 2s2 3.1 2 4.9h1.9c0-2.4-.9-4.6-2.6-6.2S30.2 4 27.9 4M16.1 4v1.9c-1.9 0-3.6.7-4.9 2s-2 3.1-2 4.9H7.3c0-2.4.9-4.6 2.6-6.2C11.5 5 13.8 4 16.1 4m11.8 36v-1.9c1.8 0 3.6-.7 4.9-2s2-3.1 2-4.9h1.9c0 2.4-.9 4.6-2.6 6.2S30.2 40 27.9 40M16.1 40v-1.9c-1.9 0-3.6-.7-4.9-2s-2-3.1-2-4.9H7.3c0 2.4.9 4.6 2.6 6.2 1.6 1.6 3.9 2.6 6.2 2.6"/></svg>