<svg xmlns="http://www.w3.org/2000/svg" viewBox="0 0 44 44" fill="#fff"><path fill="currentColor" d="M8.9 40c-2.3 0-4.6-1-6.2-2.6C1 35.8.1 33.6.1 31.2H2c0 1.8.7 3.6 2 4.9s3 2 4.9 2V40m26.2 0c2.3 0 4.5-1 6.2-2.6s2.6-3.8 2.6-6.2H42c0 1.8-.7 3.6-2 4.9s-3.1 2-4.9 2V40M8.9 10.6c-2.3 0-4.6 1-6.2 2.6C1 14.8.1 17 .1 19.4H2c0-1.8.7-3.6 2-4.9s3-2 4.9-2V10.6m26.2 0c2.3 0 4.5 1 6.2 2.6s2.6 3.8 2.6 6.2H42c0-1.8-.7-3.6-2-4.9s-3.1-2-4.9-2V10.6" cx="29.2" cy="25.3" r="3.6" stroke="currentColor" strokeWidth="1.8"/><circle cx="29.2" cy="25.3" r="3.6" fill="currentColor" stroke="currentColor" strokeWidth="1.8" d="M8.9 40c-2.3 0-4.6-1-6.2-2.6C1 35.8.1 33.6.1 31.2H2c0 1.8.7 3.6 2 4.9s3 2 4.9 2V40m26.2 0c2.3 0 4.5-1 6.2-2.6s2.6-3.8 2.6-6.2H42c0 1.8-.7 3.6-2 4.9s-3.1 2-4.9 2V40M8.9 10.6c-2.3 0-4.6 1-6.2 2.6C1 14.8.1 17 .1 19.4H2c0-1.8.7-3.6 2-4.9s3-2 4.9-2V10.6m26.2 0c2.3 0 4.5 1 6.2 2.6s2.6 3.8 2.6 6.2H42c0-1.8-.7-3.6-2-4.9s-3.1-2-4.9-2V10.6"/><circle cx="29.2" cy="25.3" r="3.6" stroke="currentColor" strokeWidth="1.8" fill="currentColor" d="M8.9 40c-2.3 0-4.6-1-6.2-2.6C1 35.8.1 33.6.1 31.2H2c0 1.8.7 3.6 2 4.9s3 2 4.9 2V40m26.2 0c2.3 0 4.5-1 6.2-2.6s2.6-3.8 2.6-6.2H42c0 1.8-.7 3.6-2 4.9s-3.1 2-4.9 2V40M8.9 10.6c-2.3 0-4.6 1-6.2 2.6C1 14.8.1 17 .1 19.4H2c0-1.8.7-3.6 2-4.9s3-2 4.9-2V10.6m26.2 0c2.3 0 4.5 1 6.2 2.6s2.6 3.8 2.6 6.2H42c0-1.8-.7-3.6-2-4.9s-3.1-2-4.9-2V10.6"/><circle cx="29.2" cy="25.3" r="3.6" stroke="currentColor" strokeWidth="1.8" fill="currentColor" d="M8.9 40c-2.3 0-4.6-1-6.2-2.6C1 35.8.1 33.6.1 31.2H2c0 1.8.7 3.6 2 4.9s3 2 4.9 2V40m26.2 0c2.3 0 4.5-1 6.2-2.6s2.6-3.8 2.6-6.2H42c0 1.8-.7 3.6-2 4.9s-3.1 2-4.9 2V40M8.9 10.6c-2.3 0-4.6 1-6.2 2.6C1 14.8.1 17 .1 19.4H2c0-1.8.7-3.6 2-4.9s3-2 4.9-2V10.6m26.2 0c2.3 0 4.5 1 6.2 2.6s2.6 3.8 2.6 6.2H42c0-1.8-.7-3.6-2-4.9s-3.1-2-4.9-2V10.6"/><path fill="currentColor" d="M8.9 40c-2.3 0-4.6-1-6.2-2.6C1 35.8.1 33.6.1 31.2H2c0 1.8.7 3.6 2 4.9s3 2 4.9 2V40m26.2 0c2.3 0 4.5-1 6.2-2.6s2.6-3.8 2.6-6.2H42c0 1.8-.7 3.6-2 4.9s-3.1 2-4.9 2V40M8.9 10.6c-2.3 0-4.6 1-6.2 2.6C1 14.8.1 17 .1 19.4H2c0-1.8.7-3.6 2-4.9s3-2 4.9-2V10.6m26.2 0c2.3 0 4.5 1 6.2 2.6s2.6 3.8 2.6 6.2H42c0-1.8-.7-3.6-2-4.9s-3.1-2-4.9-2V10.6"/><path fill="currentColor"/></svg>