<svg xmlns="http://www.w3.org/2000/svg" viewBox="0 0 36 36" fill="#fff"><path fill="currentColor" d="M25 12.0328C25 18.381 17 22 17 22C17 22 9 18.381 9 12.0328C9 7.04412 12.5817 3 17 3C21.4183 3 25 7.04412 25 12.0328Z" stroke="currentColor" strokeWidth="3"/><path stroke="currentColor" d="M25 12.0328C25 18.381 17 22 17 22C17 22 9 18.381 9 12.0328C9 7.04412 12.5817 3 17 3C21.4183 3 25 7.04412 25 12.0328Z" strokeWidth="3" fill="currentColor"/><path fill="currentColor" d="M25 12.0328C25 18.381 17 22 17 22C17 22 9 18.381 9 12.0328C9 7.04412 12.5817 3 17 3C21.4183 3 25 7.04412 25 12.0328Z"/></svg>