<svg xmlns="http://www.w3.org/2000/svg" viewBox="0 0 153 46" fill="#fff"><path d="M14.44 34.8766L11.625 33.7331C12.1463 34.7726 12.9804 35.6562 14.1272 36.124C16.6294 37.1636 19.4966 35.9681 20.5391 33.4732C21.0604 32.2777 21.0604 30.9263 20.5391 29.7308C20.0178 28.5353 19.0795 27.5997 17.8805 27.08C16.6816 26.5602 15.3783 26.6122 14.2836 27.028L17.2029 28.2235C19.0274 29.0031 19.9136 31.0822 19.1316 32.9014C18.4018 34.7726 16.2645 35.6562 14.44 34.8766Z" fill="#E0E1E6"/><path d="M153 16.5288C153 18.0361 151.905 18.9197 150.602 18.9197C149.299 18.9197 148.204 17.9841 148.204 16.5288C148.204 15.0214 149.351 14.1378 150.602 14.1378C151.853 14.0858 153 15.0214 153 16.5288ZM148.569 16.5288C148.569 17.7762 149.455 18.5559 150.55 18.5559C151.645 18.5559 152.531 17.7762 152.531 16.5288C152.531 15.2813 151.645 14.5016 150.55 14.5016C149.455 14.5016 148.569 15.2813 148.569 16.5288ZM150.602 15.2813C151.228 15.2813 151.436 15.5932 151.436 15.957C151.436 16.2689 151.228 16.4768 151.019 16.6327L151.593 17.6723H151.123L150.654 16.7367H150.133V17.6723H149.768V15.2813H150.602ZM150.185 16.3728H150.602C150.863 16.3728 151.019 16.2169 151.019 16.009C151.019 15.8011 150.915 15.6451 150.602 15.6451H150.185V16.3728Z" fill="#E0E1E6"/><path d="M153 16.5288C153 18.0361 151.905 18.9197 150.602 18.9197C149.299 18.9197 148.204 17.9841 148.204 16.5288C148.204 15.0214 149.351 14.1378 150.602 14.1378C151.853 14.0858 153 15.0214 153 16.5288ZM148.569 16.5288C148.569 17.7762 149.455 18.5559 150.55 18.5559C151.645 18.5559 152.531 17.7762 152.531 16.5288C152.531 15.2813 151.645 14.5016 150.55 14.5016C149.455 14.5016 148.569 15.2813 148.569 16.5288ZM150.602 15.2813C151.228 15.2813 151.436 15.5932 151.436 15.957C151.436 16.2689 151.228 16.4768 151.019 16.6327L151.593 17.6723H151.123L150.654 16.7367H150.133V17.6723H149.768V15.2813H150.602ZM150.185 16.3728H150.602C150.863 16.3728 151.019 16.2169 151.019 16.009C151.019 15.8011 150.915 15.6451 150.602 15.6451H150.185V16.3728Z" fill="#E0E1E6"/><path d="M153 16.5288C153 18.0361 151.905 18.9197 150.602 18.9197C149.299 18.9197 148.204 17.9841 148.204 16.5288C148.204 15.0214 149.351 14.1378 150.602 14.1378C151.853 14.0858 153 15.0214 153 16.5288ZM148.569 16.5288C148.569 17.7762 149.455 18.5559 150.55 18.5559C151.645 18.5559 152.531 17.7762 152.531 16.5288C152.531 15.2813 151.645 14.5016 150.55 14.5016C149.455 14.5016 148.569 15.2813 148.569 16.5288ZM150.602 15.2813C151.228 15.2813 151.436 15.5932 151.436 15.957C151.436 16.2689 151.228 16.4768 151.019 16.6327L151.593 17.6723H151.123L150.654 16.7367H150.133V17.6723H149.768V15.2813H150.602ZM150.185 16.3728H150.602C150.863 16.3728 151.019 16.2169 151.019 16.009C151.019 15.8011 150.915 15.6451 150.602 15.6451H150.185V16.3728Z" fill="#E0E1E6"/><path d="M153 16.5288C153 18.0361 151.905 18.9197 150.602 18.9197C149.299 18.9197 148.204 17.9841 148.204 16.5288C148.204 15.0214 149.351 14.1378 150.602 14.1378C151.853 14.0858 153 15.0214 153 16.5288ZM148.569 16.5288C148.569 17.7762 149.455 18.5559 150.55 18.5559C151.645 18.5559 152.531 17.7762 152.531 16.5288C152.531 15.2813 151.645 14.5016 150.55 14.5016C149.455 14.5016 148.569 15.2813 148.569 16.5288ZM150.602 15.2813C151.228 15.2813 151.436 15.5932 151.436 15.957C151.436 16.2689 151.228 16.4768 151.019 16.6327L151.593 17.6723H151.123L150.654 16.7367H150.133V17.6723H149.768V15.2813H150.602ZM150.185 16.3728H150.602C150.863 16.3728 151.019 16.2169 151.019 16.009C151.019 15.8011 150.915 15.6451 150.602 15.6451H150.185V16.3728Z" fill="#E0E1E6"/></svg>