<svg xmlns="http://www.w3.org/2000/svg" viewBox="0 0 32 36" width="31.8913" height="36" fill="#fff"><g fill="currentColor" fillRule="evenodd" clipRule="evenodd" d="M2.86072 13.4381L4.48816 14.4988L5.42777 12.6617L6.19496 13.1617L4.81241 15.8648L2.41778 14.3041L2.86072 13.4381Z" width="31.8913" height="36"/><path fill="currentColor" fillRule="evenodd" clipRule="evenodd" d="M2.86072 13.4381L4.48816 14.4988L5.42777 12.6617L6.19496 13.1617L4.81241 15.8648L2.41778 14.3041L2.86072 13.4381Z" width="31.8913" height="36"/><path fill="currentColor" fillRule="evenodd" clipRule="evenodd" d="M2.86072 13.4381L4.48816 14.4988L5.42777 12.6617L6.19496 13.1617L4.81241 15.8648L2.41778 14.3041L2.86072 13.4381Z" width="31.8913" height="36"/><path fill="currentColor" fillRule="evenodd" clipRule="evenodd"/><path fill="currentColor" fillRule="evenodd" clipRule="evenodd"/><path fill="currentColor" fillRule="evenodd" clipRule="evenodd"/><path fill="currentColor" d="M2.86072 13.4381L4.48816 14.4988L5.42777 12.6617L6.19496 13.1617L4.81241 15.8648L2.41778 14.3041L2.86072 13.4381Z" fillRule="evenodd" clipRule="evenodd" width="31.8913" height="36"/><path fill="currentColor" fillRule="evenodd" clipRule="evenodd" d="M2.86072 13.4381L4.48816 14.4988L5.42777 12.6617L6.19496 13.1617L4.81241 15.8648L2.41778 14.3041L2.86072 13.4381Z" width="31.8913" height="36"/><defs fill="currentColor" width="31.8913" height="36"/><clipPath fill="currentColor" width="31.8913" height="36"/><rect fill="currentColor" width="31.8913" height="36"/></svg>