<svg xmlns="http://www.w3.org/2000/svg" viewBox="0 0 36 36" fill="#fff"><line x1="8.2" y1="6.9" x2="27.7" y2="29.1" fill="#fff" stroke="#fff" strokeMiterlimit="10" strokeWidth="0" points="4.6 20.6 4.6 15.4 11.6 15.4 9 12.4 1.6 12.4 1.6 23.6 18.9 23.6 16.2 20.6 4.6 20.6"/><g points="4.6 20.6 4.6 15.4 11.6 15.4 9 12.4 1.6 12.4 1.6 23.6 18.9 23.6 16.2 20.6 4.6 20.6" fill="#fff" strokeWidth="0"/><polygon points="4.6 20.6 4.6 15.4 11.6 15.4 9 12.4 1.6 12.4 1.6 23.6 18.9 23.6 16.2 20.6 4.6 20.6" fill="#fff" strokeWidth="0"/><polygon points="4.6 20.6 4.6 15.4 11.6 15.4 9 12.4 1.6 12.4 1.6 23.6 18.9 23.6 16.2 20.6 4.6 20.6" fill="#fff" strokeWidth="0"/><polygon points="4.6 20.6 4.6 15.4 11.6 15.4 9 12.4 1.6 12.4 1.6 23.6 18.9 23.6 16.2 20.6 4.6 20.6" fill="#fff" strokeWidth="0"/><polygon points="4.6 20.6 4.6 15.4 11.6 15.4 9 12.4 1.6 12.4 1.6 23.6 18.9 23.6 16.2 20.6 4.6 20.6" fill="#fff" strokeWidth="0"/></svg>