<svg xmlns="http://www.w3.org/2000/svg" viewBox="0 0 1024 1024" fill="#fff"><path d="M23 0H1000.26V580.248H23V0ZM511.642 228.01C523.914 228.01 535.683 223.157 544.361 214.518C553.039 205.879 557.914 194.162 557.914 181.944V89.812H465.37V181.944C465.37 194.162 470.245 205.879 478.923 214.518C487.601 223.157 499.37 228.01 511.642 228.01ZM740.687 295.497L806.162 230.314L740.687 165.13L675.213 230.314C670.914 234.594 667.503 239.675 665.177 245.267C662.85 250.859 661.652 256.853 661.652 262.905C661.652 268.958 662.85 274.952 665.177 280.544C667.503 286.136 670.914 291.217 675.213 295.497C679.512 299.777 684.616 303.172 690.233 305.489C695.85 307.805 701.87 308.997 707.95 308.997C714.03 308.997 720.05 307.805 725.667 305.489C731.284 303.172 736.388 299.777 740.687 295.497ZM756.553 425.767C765.231 417.128 777 412.275 789.272 412.275H881.816V504.407H789.272C777 504.407 765.231 499.553 756.553 490.914C747.876 482.275 743.001 470.558 743.001 458.341C743.001 446.123 747.876 434.406 756.553 425.767ZM280.283 458.341C280.283 446.123 275.408 434.406 266.731 425.767C258.053 417.128 246.284 412.275 234.012 412.275H141.468V504.407H234.012C246.284 504.407 258.053 499.553 266.731 490.914C275.408 482.275 280.283 470.558 280.283 458.341ZM358.115 280.546C355.787 286.138 352.374 291.219 348.071 295.497C343.774 299.78 338.671 303.178 333.053 305.496C327.436 307.814 321.415 309.008 315.334 309.008C309.253 309.008 303.232 307.814 297.615 305.496C291.998 303.178 286.894 299.78 282.597 295.497L217.122 230.314L282.597 165.13L348.071 230.314C352.374 234.592 355.787 239.672 358.115 245.265C360.444 250.857 361.642 256.852 361.642 262.905C361.642 268.959 360.444 274.954 358.115 280.546ZM674.525 460.022C674.525 475.422 672.388 490.322 668.394 504.443H354.903C350.909 490.322 348.772 475.422 348.772 460.022C348.772 370.068 421.694 297.146 511.648 297.146C601.603 297.146 674.525 370.068 674.525 460.022Z" fill="white" fillRule="evenodd" clipRule="evenodd"/><path d="M1000.26 1024H918.264L847.335 905.282H786.467V1024H712.52V671.871H844.316C892.608 671.871 928.157 681.597 950.961 701.047C973.766 720.163 985.168 746.992 985.168 781.534C985.168 808.698 979.131 831.335 967.058 849.445C955.321 867.554 938.721 881.304 917.257 890.694L1000.26 1024ZM786.467 734.751V841.899H844.316C863.767 841.899 878.859 837.036 889.59 827.311C900.657 817.25 906.191 803.5 906.191 786.061C906.191 768.958 900.825 756.214 890.093 747.83C879.697 739.111 862.929 734.751 839.789 734.751H786.467Z" fill="white" fillRule="evenodd" clipRule="evenodd"/><path d="M23 0H1000.26V580.248H23V0ZM511.642 228.01C523.914 228.01 535.683 223.157 544.361 214.518C553.039 205.879 557.914 194.162 557.914 181.944V89.812H465.37V181.944C465.37 194.162 470.245 205.879 478.923 214.518C487.601 223.157 499.37 228.01 511.642 228.01ZM740.687 295.497L806.162 230.314L740.687 165.13L675.213 230.314C670.914 234.594 667.503 239.675 665.177 245.267C662.85 250.859 661.652 256.853 661.652 262.905C661.652 268.958 662.85 274.952 665.177 280.544C667.503 286.136 670.914 291.217 675.213 295.497C679.512 299.777 684.616 303.172 690.233 305.489C695.85 307.805 701.87 308.997 707.95 308.997C714.03 308.997 720.05 307.805 725.667 305.489C731.284 303.172 736.388 299.777 740.687 295.497ZM756.553 425.767C765.231 417.128 777 412.275 789.272 412.275H881.816V504.407H789.272C777 504.407 765.231 499.553 756.553 490.914C747.876 482.275 743.001 470.558 743.001 458.341C743.001 446.123 747.876 434.406 756.553 425.767ZM280.283 458.341C280.283 446.123 275.408 434.406 266.731 425.767C258.053 417.128 246.284 412.275 234.012 412.275H141.468V504.407H234.012C246.284 504.407 258.053 499.553 266.731 490.914C275.408 482.275 280.283 470.558 280.283 458.341ZM358.115 280.546C355.787 286.138 352.374 291.219 348.071 295.497C343.774 299.78 338.671 303.178 333.053 305.496C327.436 307.814 321.415 309.008 315.334 309.008C309.253 309.008 303.232 307.814 297.615 305.496C291.998 303.178 286.894 299.78 282.597 295.497L217.122 230.314L282.597 165.13L348.071 230.314C352.374 234.592 355.787 239.672 358.115 245.265C360.444 250.857 361.642 256.852 361.642 262.905C361.642 268.959 360.444 274.954 358.115 280.546ZM674.525 460.022C674.525 475.422 672.388 490.322 668.394 504.443H354.903C350.909 490.322 348.772 475.422 348.772 460.022C348.772 370.068 421.694 297.146 511.648 297.146C601.603 297.146 674.525 370.068 674.525 460.022Z" fill="white" fillRule="evenodd" clipRule="evenodd"/><path fillRule="evenodd" clipRule="evenodd"/></svg>