<svg xmlns="http://www.w3.org/2000/svg" viewBox="0 0 320 161" width="204.021" height="110.254" fill="#fff"><path stroke="currentColor" d="M279.941 134.163L270.727 124.919C281.818 113.768 288.046 98.6593 288.046 82.9074C288.046 67.1556 281.818 52.0469 270.727 40.8958L279.941 31.6523C286.664 38.3759 291.999 46.3643 295.638 55.1597C299.278 63.955 301.151 73.3844 301.151 82.9074C301.151 92.4304 299.278 101.86 295.638 110.655C291.999 119.451 286.664 127.439 279.941 134.163Z" opacity="0.5" strokeWidth="0.33" cx="16.8424" cy="16.109" r="3.79487" fill="currentColor" fillRule="evenodd" clipRule="evenodd" x="48.4718" y="18.8213" width="204.021" height="110.254" rx="1.62418"/><path stroke="currentColor" opacity="0.7" d="M66.7831 12.812V8.72473C66.7831 7.73659 65.9821 6.93555 64.994 6.93555H9.45837C8.47023 6.93555 7.66919 7.73659 7.66919 8.72473V23.4921C7.66919 24.4802 8.47023 25.2813 9.45837 25.2813H42.2381" strokeWidth="1.07351" cx="16.8424" cy="16.109" r="3.79487" fill="currentColor" fillRule="evenodd" clipRule="evenodd"/><path stroke="currentColor" opacity="0.5" d="M279.941 134.163L270.727 124.919C281.818 113.768 288.046 98.6593 288.046 82.9074C288.046 67.1556 281.818 52.0469 270.727 40.8958L279.941 31.6523C286.664 38.3759 291.999 46.3643 295.638 55.1597C299.278 63.955 301.151 73.3844 301.151 82.9074C301.151 92.4304 299.278 101.86 295.638 110.655C291.999 119.451 286.664 127.439 279.941 134.163Z" strokeWidth="0.33" cx="16.8424" cy="16.109" r="3.79487" fill="currentColor" fillRule="evenodd" clipRule="evenodd" x="48.4718" y="18.8213" width="204.021" height="110.254" rx="1.62418"/><circle stroke="currentColor" cx="16.8424" cy="16.109" r="3.79487" strokeWidth="0.33" fill="currentColor" fillRule="evenodd" clipRule="evenodd" d="M279.941 134.163L270.727 124.919C281.818 113.768 288.046 98.6593 288.046 82.9074C288.046 67.1556 281.818 52.0469 270.727 40.8958L279.941 31.6523C286.664 38.3759 291.999 46.3643 295.638 55.1597C299.278 63.955 301.151 73.3844 301.151 82.9074C301.151 92.4304 299.278 101.86 295.638 110.655C291.999 119.451 286.664 127.439 279.941 134.163Z" opacity="0.5" x="48.4718" y="18.8213" width="204.021" height="110.254" rx="1.62418"/><mask fill="currentColor" fillRule="evenodd" clipRule="evenodd" d="M279.941 134.163L270.727 124.919C281.818 113.768 288.046 98.6593 288.046 82.9074C288.046 67.1556 281.818 52.0469 270.727 40.8958L279.941 31.6523C286.664 38.3759 291.999 46.3643 295.638 55.1597C299.278 63.955 301.151 73.3844 301.151 82.9074C301.151 92.4304 299.278 101.86 295.638 110.655C291.999 119.451 286.664 127.439 279.941 134.163Z" stroke="currentColor" opacity="0.5" x="48.4718" y="18.8213" width="204.021" height="110.254" rx="1.62418" strokeWidth="0.33"/><path fillRule="evenodd" clipRule="evenodd"/><path fill="currentColor"/><rect stroke="currentColor" opacity="0.5" x="48.4718" y="18.8213" width="204.021" height="110.254" rx="1.62418" strokeWidth="0.33" fill="currentColor" d="M279.941 134.163L270.727 124.919C281.818 113.768 288.046 98.6593 288.046 82.9074C288.046 67.1556 281.818 52.0469 270.727 40.8958L279.941 31.6523C286.664 38.3759 291.999 46.3643 295.638 55.1597C299.278 63.955 301.151 73.3844 301.151 82.9074C301.151 92.4304 299.278 101.86 295.638 110.655C291.999 119.451 286.664 127.439 279.941 134.163Z"/><path fill="currentColor" d="M279.941 134.163L270.727 124.919C281.818 113.768 288.046 98.6593 288.046 82.9074C288.046 67.1556 281.818 52.0469 270.727 40.8958L279.941 31.6523C286.664 38.3759 291.999 46.3643 295.638 55.1597C299.278 63.955 301.151 73.3844 301.151 82.9074C301.151 92.4304 299.278 101.86 295.638 110.655C291.999 119.451 286.664 127.439 279.941 134.163Z" opacity="0.5"/><g opacity="0.5" fill="currentColor"/><path fill="currentColor" opacity="0.5" d="M279.941 134.163L270.727 124.919C281.818 113.768 288.046 98.6593 288.046 82.9074C288.046 67.1556 281.818 52.0469 270.727 40.8958L279.941 31.6523C286.664 38.3759 291.999 46.3643 295.638 55.1597C299.278 63.955 301.151 73.3844 301.151 82.9074C301.151 92.4304 299.278 101.86 295.638 110.655C291.999 119.451 286.664 127.439 279.941 134.163Z"/><path fill="currentColor" opacity="0.5" d="M279.941 134.163L270.727 124.919C281.818 113.768 288.046 98.6593 288.046 82.9074C288.046 67.1556 281.818 52.0469 270.727 40.8958L279.941 31.6523C286.664 38.3759 291.999 46.3643 295.638 55.1597C299.278 63.955 301.151 73.3844 301.151 82.9074C301.151 92.4304 299.278 101.86 295.638 110.655C291.999 119.451 286.664 127.439 279.941 134.163Z"/><path fill="currentColor"/><g opacity="0.5" fill="currentColor" d="M279.941 134.163L270.727 124.919C281.818 113.768 288.046 98.6593 288.046 82.9074C288.046 67.1556 281.818 52.0469 270.727 40.8958L279.941 31.6523C286.664 38.3759 291.999 46.3643 295.638 55.1597C299.278 63.955 301.151 73.3844 301.151 82.9074C301.151 92.4304 299.278 101.86 295.638 110.655C291.999 119.451 286.664 127.439 279.941 134.163Z"/><path fill="currentColor" opacity="0.5" d="M279.941 134.163L270.727 124.919C281.818 113.768 288.046 98.6593 288.046 82.9074C288.046 67.1556 281.818 52.0469 270.727 40.8958L279.941 31.6523C286.664 38.3759 291.999 46.3643 295.638 55.1597C299.278 63.955 301.151 73.3844 301.151 82.9074C301.151 92.4304 299.278 101.86 295.638 110.655C291.999 119.451 286.664 127.439 279.941 134.163Z"/><path fill="currentColor" opacity="0.5" d="M279.941 134.163L270.727 124.919C281.818 113.768 288.046 98.6593 288.046 82.9074C288.046 67.1556 281.818 52.0469 270.727 40.8958L279.941 31.6523C286.664 38.3759 291.999 46.3643 295.638 55.1597C299.278 63.955 301.151 73.3844 301.151 82.9074C301.151 92.4304 299.278 101.86 295.638 110.655C291.999 119.451 286.664 127.439 279.941 134.163Z"/><path fill="currentColor" d="M279.941 134.163L270.727 124.919C281.818 113.768 288.046 98.6593 288.046 82.9074C288.046 67.1556 281.818 52.0469 270.727 40.8958L279.941 31.6523C286.664 38.3759 291.999 46.3643 295.638 55.1597C299.278 63.955 301.151 73.3844 301.151 82.9074C301.151 92.4304 299.278 101.86 295.638 110.655C291.999 119.451 286.664 127.439 279.941 134.163Z" opacity="0.5"/><g opacity="0.5" fill="currentColor" d="M279.941 134.163L270.727 124.919C281.818 113.768 288.046 98.6593 288.046 82.9074C288.046 67.1556 281.818 52.0469 270.727 40.8958L279.941 31.6523C286.664 38.3759 291.999 46.3643 295.638 55.1597C299.278 63.955 301.151 73.3844 301.151 82.9074C301.151 92.4304 299.278 101.86 295.638 110.655C291.999 119.451 286.664 127.439 279.941 134.163Z"/><path fill="currentColor" opacity="0.5" d="M279.941 134.163L270.727 124.919C281.818 113.768 288.046 98.6593 288.046 82.9074C288.046 67.1556 281.818 52.0469 270.727 40.8958L279.941 31.6523C286.664 38.3759 291.999 46.3643 295.638 55.1597C299.278 63.955 301.151 73.3844 301.151 82.9074C301.151 92.4304 299.278 101.86 295.638 110.655C291.999 119.451 286.664 127.439 279.941 134.163Z"/><path fill="currentColor" opacity="0.5" d="M279.941 134.163L270.727 124.919C281.818 113.768 288.046 98.6593 288.046 82.9074C288.046 67.1556 281.818 52.0469 270.727 40.8958L279.941 31.6523C286.664 38.3759 291.999 46.3643 295.638 55.1597C299.278 63.955 301.151 73.3844 301.151 82.9074C301.151 92.4304 299.278 101.86 295.638 110.655C291.999 119.451 286.664 127.439 279.941 134.163Z"/><path fill="currentColor" d="M279.941 134.163L270.727 124.919C281.818 113.768 288.046 98.6593 288.046 82.9074C288.046 67.1556 281.818 52.0469 270.727 40.8958L279.941 31.6523C286.664 38.3759 291.999 46.3643 295.638 55.1597C299.278 63.955 301.151 73.3844 301.151 82.9074C301.151 92.4304 299.278 101.86 295.638 110.655C291.999 119.451 286.664 127.439 279.941 134.163Z" opacity="0.5"/><g opacity="0.5" fill="currentColor" d="M279.941 134.163L270.727 124.919C281.818 113.768 288.046 98.6593 288.046 82.9074C288.046 67.1556 281.818 52.0469 270.727 40.8958L279.941 31.6523C286.664 38.3759 291.999 46.3643 295.638 55.1597C299.278 63.955 301.151 73.3844 301.151 82.9074C301.151 92.4304 299.278 101.86 295.638 110.655C291.999 119.451 286.664 127.439 279.941 134.163Z"/><path fill="currentColor" opacity="0.5" d="M279.941 134.163L270.727 124.919C281.818 113.768 288.046 98.6593 288.046 82.9074C288.046 67.1556 281.818 52.0469 270.727 40.8958L279.941 31.6523C286.664 38.3759 291.999 46.3643 295.638 55.1597C299.278 63.955 301.151 73.3844 301.151 82.9074C301.151 92.4304 299.278 101.86 295.638 110.655C291.999 119.451 286.664 127.439 279.941 134.163Z"/><path fill="currentColor" opacity="0.5" d="M279.941 134.163L270.727 124.919C281.818 113.768 288.046 98.6593 288.046 82.9074C288.046 67.1556 281.818 52.0469 270.727 40.8958L279.941 31.6523C286.664 38.3759 291.999 46.3643 295.638 55.1597C299.278 63.955 301.151 73.3844 301.151 82.9074C301.151 92.4304 299.278 101.86 295.638 110.655C291.999 119.451 286.664 127.439 279.941 134.163Z"/><path fill="currentColor" d="M279.941 134.163L270.727 124.919C281.818 113.768 288.046 98.6593 288.046 82.9074C288.046 67.1556 281.818 52.0469 270.727 40.8958L279.941 31.6523C286.664 38.3759 291.999 46.3643 295.638 55.1597C299.278 63.955 301.151 73.3844 301.151 82.9074C301.151 92.4304 299.278 101.86 295.638 110.655C291.999 119.451 286.664 127.439 279.941 134.163Z" opacity="0.5"/><g opacity="0.5" fill="currentColor" d="M279.941 134.163L270.727 124.919C281.818 113.768 288.046 98.6593 288.046 82.9074C288.046 67.1556 281.818 52.0469 270.727 40.8958L279.941 31.6523C286.664 38.3759 291.999 46.3643 295.638 55.1597C299.278 63.955 301.151 73.3844 301.151 82.9074C301.151 92.4304 299.278 101.86 295.638 110.655C291.999 119.451 286.664 127.439 279.941 134.163Z"/><path fill="currentColor" opacity="0.5" d="M279.941 134.163L270.727 124.919C281.818 113.768 288.046 98.6593 288.046 82.9074C288.046 67.1556 281.818 52.0469 270.727 40.8958L279.941 31.6523C286.664 38.3759 291.999 46.3643 295.638 55.1597C299.278 63.955 301.151 73.3844 301.151 82.9074C301.151 92.4304 299.278 101.86 295.638 110.655C291.999 119.451 286.664 127.439 279.941 134.163Z"/><path fill="currentColor" opacity="0.5" d="M279.941 134.163L270.727 124.919C281.818 113.768 288.046 98.6593 288.046 82.9074C288.046 67.1556 281.818 52.0469 270.727 40.8958L279.941 31.6523C286.664 38.3759 291.999 46.3643 295.638 55.1597C299.278 63.955 301.151 73.3844 301.151 82.9074C301.151 92.4304 299.278 101.86 295.638 110.655C291.999 119.451 286.664 127.439 279.941 134.163Z"/><path fill="currentColor" d="M279.941 134.163L270.727 124.919C281.818 113.768 288.046 98.6593 288.046 82.9074C288.046 67.1556 281.818 52.0469 270.727 40.8958L279.941 31.6523C286.664 38.3759 291.999 46.3643 295.638 55.1597C299.278 63.955 301.151 73.3844 301.151 82.9074C301.151 92.4304 299.278 101.86 295.638 110.655C291.999 119.451 286.664 127.439 279.941 134.163Z" opacity="0.5"/><g opacity="0.5" fill="currentColor" d="M279.941 134.163L270.727 124.919C281.818 113.768 288.046 98.6593 288.046 82.9074C288.046 67.1556 281.818 52.0469 270.727 40.8958L279.941 31.6523C286.664 38.3759 291.999 46.3643 295.638 55.1597C299.278 63.955 301.151 73.3844 301.151 82.9074C301.151 92.4304 299.278 101.86 295.638 110.655C291.999 119.451 286.664 127.439 279.941 134.163Z"/><path fill="currentColor" opacity="0.5" d="M279.941 134.163L270.727 124.919C281.818 113.768 288.046 98.6593 288.046 82.9074C288.046 67.1556 281.818 52.0469 270.727 40.8958L279.941 31.6523C286.664 38.3759 291.999 46.3643 295.638 55.1597C299.278 63.955 301.151 73.3844 301.151 82.9074C301.151 92.4304 299.278 101.86 295.638 110.655C291.999 119.451 286.664 127.439 279.941 134.163Z"/><path fill="currentColor" opacity="0.5" d="M279.941 134.163L270.727 124.919C281.818 113.768 288.046 98.6593 288.046 82.9074C288.046 67.1556 281.818 52.0469 270.727 40.8958L279.941 31.6523C286.664 38.3759 291.999 46.3643 295.638 55.1597C299.278 63.955 301.151 73.3844 301.151 82.9074C301.151 92.4304 299.278 101.86 295.638 110.655C291.999 119.451 286.664 127.439 279.941 134.163Z"/><path fill="currentColor" d="M279.941 134.163L270.727 124.919C281.818 113.768 288.046 98.6593 288.046 82.9074C288.046 67.1556 281.818 52.0469 270.727 40.8958L279.941 31.6523C286.664 38.3759 291.999 46.3643 295.638 55.1597C299.278 63.955 301.151 73.3844 301.151 82.9074C301.151 92.4304 299.278 101.86 295.638 110.655C291.999 119.451 286.664 127.439 279.941 134.163Z" opacity="0.5"/><g opacity="0.5" fill="currentColor" d="M279.941 134.163L270.727 124.919C281.818 113.768 288.046 98.6593 288.046 82.9074C288.046 67.1556 281.818 52.0469 270.727 40.8958L279.941 31.6523C286.664 38.3759 291.999 46.3643 295.638 55.1597C299.278 63.955 301.151 73.3844 301.151 82.9074C301.151 92.4304 299.278 101.86 295.638 110.655C291.999 119.451 286.664 127.439 279.941 134.163Z"/><path fill="currentColor" opacity="0.5" d="M279.941 134.163L270.727 124.919C281.818 113.768 288.046 98.6593 288.046 82.9074C288.046 67.1556 281.818 52.0469 270.727 40.8958L279.941 31.6523C286.664 38.3759 291.999 46.3643 295.638 55.1597C299.278 63.955 301.151 73.3844 301.151 82.9074C301.151 92.4304 299.278 101.86 295.638 110.655C291.999 119.451 286.664 127.439 279.941 134.163Z"/><path fill="currentColor" opacity="0.5" d="M279.941 134.163L270.727 124.919C281.818 113.768 288.046 98.6593 288.046 82.9074C288.046 67.1556 281.818 52.0469 270.727 40.8958L279.941 31.6523C286.664 38.3759 291.999 46.3643 295.638 55.1597C299.278 63.955 301.151 73.3844 301.151 82.9074C301.151 92.4304 299.278 101.86 295.638 110.655C291.999 119.451 286.664 127.439 279.941 134.163Z"/><path fill="currentColor" d="M279.941 134.163L270.727 124.919C281.818 113.768 288.046 98.6593 288.046 82.9074C288.046 67.1556 281.818 52.0469 270.727 40.8958L279.941 31.6523C286.664 38.3759 291.999 46.3643 295.638 55.1597C299.278 63.955 301.151 73.3844 301.151 82.9074C301.151 92.4304 299.278 101.86 295.638 110.655C291.999 119.451 286.664 127.439 279.941 134.163Z" opacity="0.5"/><g opacity="0.5" fill="currentColor" d="M279.941 134.163L270.727 124.919C281.818 113.768 288.046 98.6593 288.046 82.9074C288.046 67.1556 281.818 52.0469 270.727 40.8958L279.941 31.6523C286.664 38.3759 291.999 46.3643 295.638 55.1597C299.278 63.955 301.151 73.3844 301.151 82.9074C301.151 92.4304 299.278 101.86 295.638 110.655C291.999 119.451 286.664 127.439 279.941 134.163Z"/><path fill="currentColor" opacity="0.5" d="M279.941 134.163L270.727 124.919C281.818 113.768 288.046 98.6593 288.046 82.9074C288.046 67.1556 281.818 52.0469 270.727 40.8958L279.941 31.6523C286.664 38.3759 291.999 46.3643 295.638 55.1597C299.278 63.955 301.151 73.3844 301.151 82.9074C301.151 92.4304 299.278 101.86 295.638 110.655C291.999 119.451 286.664 127.439 279.941 134.163Z"/></svg>