<svg xmlns="http://www.w3.org/2000/svg" viewBox="0 0 1200 1200" fill="#fff"><path fill="currentColor" d="m686.23 353.69c0 47.625-38.605 86.234-86.23 86.234s-86.23-38.609-86.23-86.234 38.605-86.23 86.23-86.23 86.23 38.605 86.23 86.23" fillRule="evenodd"/><path fill="currentColor" d="m686.23 353.69c0 47.625-38.605 86.234-86.23 86.234s-86.23-38.609-86.23-86.234 38.605-86.23 86.23-86.23 86.23 38.605 86.23 86.23" fillRule="evenodd"/><path fill="currentColor" d="m686.23 353.69c0 47.625-38.605 86.234-86.23 86.234s-86.23-38.609-86.23-86.234 38.605-86.23 86.23-86.23 86.23 38.605 86.23 86.23" fillRule="evenodd"/></svg>