<svg xmlns="http://www.w3.org/2000/svg" viewBox="0 0 396 288" width="396" height="288" fill="#fff"><g stroke="currentColor" d="M394.686 205.79C392.978 158.058 379.966 108.215 365.698 62.7441C355.902 31.4922 352.687 15.816 317.369 8.12858C298.127 3.9583 278.032 2.25 258.388 2.25C238.192 2.25 217.946 2.25 197.75 2.35049C177.554 2.30024 157.308 2.25 137.112 2.25C117.468 2.25 97.3728 3.90806 78.1314 8.12858C42.7632 15.816 39.5982 31.4922 29.8016 62.7441C15.5338 108.215 2.52193 158.058 0.81381 205.79C0.612854 211.115 0.964526 216.542 0.81381 221.868L1.86884 234.127C4.5315 257.441 14.4285 280.302 39.347 286.03C51.2034 287.788 64.2655 289.396 71.7008 277.538C76.2223 270.354 77.3276 261.661 80.1409 253.773C84.6624 241.011 92.2485 225.134 107.521 223.878C115.107 223.275 123.497 223.476 131.083 223.325C153.289 222.923 175.544 223.677 197.75 223.325C219.956 223.626 242.211 222.923 264.417 223.325C272.003 223.476 280.443 223.224 287.979 223.878C303.252 225.134 310.838 241.011 315.359 253.773C318.122 261.661 319.278 270.354 323.799 277.538C331.235 289.346 344.297 287.788 356.153 286.03C381.071 280.302 390.969 257.441 393.631 234.127L394.686 221.868C394.535 216.542 394.887 211.115 394.686 205.79Z" strokeWidth="1.5" strokeMiterlimit="10" opacity="0.3" fill="currentColor" width="396" height="288"/><path stroke="currentColor" d="M394.686 205.79C392.978 158.058 379.966 108.215 365.698 62.7441C355.902 31.4922 352.687 15.816 317.369 8.12858C298.127 3.9583 278.032 2.25 258.388 2.25C238.192 2.25 217.946 2.25 197.75 2.35049C177.554 2.30024 157.308 2.25 137.112 2.25C117.468 2.25 97.3728 3.90806 78.1314 8.12858C42.7632 15.816 39.5982 31.4922 29.8016 62.7441C15.5338 108.215 2.52193 158.058 0.81381 205.79C0.612854 211.115 0.964526 216.542 0.81381 221.868L1.86884 234.127C4.5315 257.441 14.4285 280.302 39.347 286.03C51.2034 287.788 64.2655 289.396 71.7008 277.538C76.2223 270.354 77.3276 261.661 80.1409 253.773C84.6624 241.011 92.2485 225.134 107.521 223.878C115.107 223.275 123.497 223.476 131.083 223.325C153.289 222.923 175.544 223.677 197.75 223.325C219.956 223.626 242.211 222.923 264.417 223.325C272.003 223.476 280.443 223.224 287.979 223.878C303.252 225.134 310.838 241.011 315.359 253.773C318.122 261.661 319.278 270.354 323.799 277.538C331.235 289.346 344.297 287.788 356.153 286.03C381.071 280.302 390.969 257.441 393.631 234.127L394.686 221.868C394.535 216.542 394.887 211.115 394.686 205.79Z" strokeWidth="1.5" strokeMiterlimit="10" opacity="0.3" fill="currentColor" width="396" height="288"/><path stroke="currentColor" d="M394.686 205.79C392.978 158.058 379.966 108.215 365.698 62.7441C355.902 31.4922 352.687 15.816 317.369 8.12858C298.127 3.9583 278.032 2.25 258.388 2.25C238.192 2.25 217.946 2.25 197.75 2.35049C177.554 2.30024 157.308 2.25 137.112 2.25C117.468 2.25 97.3728 3.90806 78.1314 8.12858C42.7632 15.816 39.5982 31.4922 29.8016 62.7441C15.5338 108.215 2.52193 158.058 0.81381 205.79C0.612854 211.115 0.964526 216.542 0.81381 221.868L1.86884 234.127C4.5315 257.441 14.4285 280.302 39.347 286.03C51.2034 287.788 64.2655 289.396 71.7008 277.538C76.2223 270.354 77.3276 261.661 80.1409 253.773C84.6624 241.011 92.2485 225.134 107.521 223.878C115.107 223.275 123.497 223.476 131.083 223.325C153.289 222.923 175.544 223.677 197.75 223.325C219.956 223.626 242.211 222.923 264.417 223.325C272.003 223.476 280.443 223.224 287.979 223.878C303.252 225.134 310.838 241.011 315.359 253.773C318.122 261.661 319.278 270.354 323.799 277.538C331.235 289.346 344.297 287.788 356.153 286.03C381.071 280.302 390.969 257.441 393.631 234.127L394.686 221.868C394.535 216.542 394.887 211.115 394.686 205.79Z" strokeWidth="1.5" strokeMiterlimit="10" opacity="0.3" fill="currentColor" width="396" height="288"/><path stroke="currentColor"/><path stroke="currentColor" d="M394.686 205.79C392.978 158.058 379.966 108.215 365.698 62.7441C355.902 31.4922 352.687 15.816 317.369 8.12858C298.127 3.9583 278.032 2.25 258.388 2.25C238.192 2.25 217.946 2.25 197.75 2.35049C177.554 2.30024 157.308 2.25 137.112 2.25C117.468 2.25 97.3728 3.90806 78.1314 8.12858C42.7632 15.816 39.5982 31.4922 29.8016 62.7441C15.5338 108.215 2.52193 158.058 0.81381 205.79C0.612854 211.115 0.964526 216.542 0.81381 221.868L1.86884 234.127C4.5315 257.441 14.4285 280.302 39.347 286.03C51.2034 287.788 64.2655 289.396 71.7008 277.538C76.2223 270.354 77.3276 261.661 80.1409 253.773C84.6624 241.011 92.2485 225.134 107.521 223.878C115.107 223.275 123.497 223.476 131.083 223.325C153.289 222.923 175.544 223.677 197.75 223.325C219.956 223.626 242.211 222.923 264.417 223.325C272.003 223.476 280.443 223.224 287.979 223.878C303.252 225.134 310.838 241.011 315.359 253.773C318.122 261.661 319.278 270.354 323.799 277.538C331.235 289.346 344.297 287.788 356.153 286.03C381.071 280.302 390.969 257.441 393.631 234.127L394.686 221.868C394.535 216.542 394.887 211.115 394.686 205.79Z" strokeWidth="1.5" strokeMiterlimit="10" opacity="0.3" fill="currentColor" width="396" height="288"/><path stroke="currentColor"/><path stroke="currentColor"/><path stroke="currentColor" d="M394.686 205.79C392.978 158.058 379.966 108.215 365.698 62.7441C355.902 31.4922 352.687 15.816 317.369 8.12858C298.127 3.9583 278.032 2.25 258.388 2.25C238.192 2.25 217.946 2.25 197.75 2.35049C177.554 2.30024 157.308 2.25 137.112 2.25C117.468 2.25 97.3728 3.90806 78.1314 8.12858C42.7632 15.816 39.5982 31.4922 29.8016 62.7441C15.5338 108.215 2.52193 158.058 0.81381 205.79C0.612854 211.115 0.964526 216.542 0.81381 221.868L1.86884 234.127C4.5315 257.441 14.4285 280.302 39.347 286.03C51.2034 287.788 64.2655 289.396 71.7008 277.538C76.2223 270.354 77.3276 261.661 80.1409 253.773C84.6624 241.011 92.2485 225.134 107.521 223.878C115.107 223.275 123.497 223.476 131.083 223.325C153.289 222.923 175.544 223.677 197.75 223.325C219.956 223.626 242.211 222.923 264.417 223.325C272.003 223.476 280.443 223.224 287.979 223.878C303.252 225.134 310.838 241.011 315.359 253.773C318.122 261.661 319.278 270.354 323.799 277.538C331.235 289.346 344.297 287.788 356.153 286.03C381.071 280.302 390.969 257.441 393.631 234.127L394.686 221.868C394.535 216.542 394.887 211.115 394.686 205.79Z" strokeWidth="1.5" strokeMiterlimit="10" opacity="0.3" fill="currentColor" width="396" height="288"/><path stroke="currentColor" d="M394.686 205.79C392.978 158.058 379.966 108.215 365.698 62.7441C355.902 31.4922 352.687 15.816 317.369 8.12858C298.127 3.9583 278.032 2.25 258.388 2.25C238.192 2.25 217.946 2.25 197.75 2.35049C177.554 2.30024 157.308 2.25 137.112 2.25C117.468 2.25 97.3728 3.90806 78.1314 8.12858C42.7632 15.816 39.5982 31.4922 29.8016 62.7441C15.5338 108.215 2.52193 158.058 0.81381 205.79C0.612854 211.115 0.964526 216.542 0.81381 221.868L1.86884 234.127C4.5315 257.441 14.4285 280.302 39.347 286.03C51.2034 287.788 64.2655 289.396 71.7008 277.538C76.2223 270.354 77.3276 261.661 80.1409 253.773C84.6624 241.011 92.2485 225.134 107.521 223.878C115.107 223.275 123.497 223.476 131.083 223.325C153.289 222.923 175.544 223.677 197.75 223.325C219.956 223.626 242.211 222.923 264.417 223.325C272.003 223.476 280.443 223.224 287.979 223.878C303.252 225.134 310.838 241.011 315.359 253.773C318.122 261.661 319.278 270.354 323.799 277.538C331.235 289.346 344.297 287.788 356.153 286.03C381.071 280.302 390.969 257.441 393.631 234.127L394.686 221.868C394.535 216.542 394.887 211.115 394.686 205.79Z" strokeWidth="1.5" strokeMiterlimit="10" opacity="0.3" fill="currentColor" width="396" height="288"/><path stroke="currentColor" d="M394.686 205.79C392.978 158.058 379.966 108.215 365.698 62.7441C355.902 31.4922 352.687 15.816 317.369 8.12858C298.127 3.9583 278.032 2.25 258.388 2.25C238.192 2.25 217.946 2.25 197.75 2.35049C177.554 2.30024 157.308 2.25 137.112 2.25C117.468 2.25 97.3728 3.90806 78.1314 8.12858C42.7632 15.816 39.5982 31.4922 29.8016 62.7441C15.5338 108.215 2.52193 158.058 0.81381 205.79C0.612854 211.115 0.964526 216.542 0.81381 221.868L1.86884 234.127C4.5315 257.441 14.4285 280.302 39.347 286.03C51.2034 287.788 64.2655 289.396 71.7008 277.538C76.2223 270.354 77.3276 261.661 80.1409 253.773C84.6624 241.011 92.2485 225.134 107.521 223.878C115.107 223.275 123.497 223.476 131.083 223.325C153.289 222.923 175.544 223.677 197.75 223.325C219.956 223.626 242.211 222.923 264.417 223.325C272.003 223.476 280.443 223.224 287.979 223.878C303.252 225.134 310.838 241.011 315.359 253.773C318.122 261.661 319.278 270.354 323.799 277.538C331.235 289.346 344.297 287.788 356.153 286.03C381.071 280.302 390.969 257.441 393.631 234.127L394.686 221.868C394.535 216.542 394.887 211.115 394.686 205.79Z" strokeWidth="1.5" strokeMiterlimit="10" opacity="0.3" fill="currentColor" width="396" height="288"/><path stroke="currentColor"/><path stroke="currentColor" d="M394.686 205.79C392.978 158.058 379.966 108.215 365.698 62.7441C355.902 31.4922 352.687 15.816 317.369 8.12858C298.127 3.9583 278.032 2.25 258.388 2.25C238.192 2.25 217.946 2.25 197.75 2.35049C177.554 2.30024 157.308 2.25 137.112 2.25C117.468 2.25 97.3728 3.90806 78.1314 8.12858C42.7632 15.816 39.5982 31.4922 29.8016 62.7441C15.5338 108.215 2.52193 158.058 0.81381 205.79C0.612854 211.115 0.964526 216.542 0.81381 221.868L1.86884 234.127C4.5315 257.441 14.4285 280.302 39.347 286.03C51.2034 287.788 64.2655 289.396 71.7008 277.538C76.2223 270.354 77.3276 261.661 80.1409 253.773C84.6624 241.011 92.2485 225.134 107.521 223.878C115.107 223.275 123.497 223.476 131.083 223.325C153.289 222.923 175.544 223.677 197.75 223.325C219.956 223.626 242.211 222.923 264.417 223.325C272.003 223.476 280.443 223.224 287.979 223.878C303.252 225.134 310.838 241.011 315.359 253.773C318.122 261.661 319.278 270.354 323.799 277.538C331.235 289.346 344.297 287.788 356.153 286.03C381.071 280.302 390.969 257.441 393.631 234.127L394.686 221.868C394.535 216.542 394.887 211.115 394.686 205.79Z" strokeWidth="1.5" strokeMiterlimit="10" opacity="0.3" fill="currentColor" width="396" height="288"/><path stroke="currentColor" d="M394.686 205.79C392.978 158.058 379.966 108.215 365.698 62.7441C355.902 31.4922 352.687 15.816 317.369 8.12858C298.127 3.9583 278.032 2.25 258.388 2.25C238.192 2.25 217.946 2.25 197.75 2.35049C177.554 2.30024 157.308 2.25 137.112 2.25C117.468 2.25 97.3728 3.90806 78.1314 8.12858C42.7632 15.816 39.5982 31.4922 29.8016 62.7441C15.5338 108.215 2.52193 158.058 0.81381 205.79C0.612854 211.115 0.964526 216.542 0.81381 221.868L1.86884 234.127C4.5315 257.441 14.4285 280.302 39.347 286.03C51.2034 287.788 64.2655 289.396 71.7008 277.538C76.2223 270.354 77.3276 261.661 80.1409 253.773C84.6624 241.011 92.2485 225.134 107.521 223.878C115.107 223.275 123.497 223.476 131.083 223.325C153.289 222.923 175.544 223.677 197.75 223.325C219.956 223.626 242.211 222.923 264.417 223.325C272.003 223.476 280.443 223.224 287.979 223.878C303.252 225.134 310.838 241.011 315.359 253.773C318.122 261.661 319.278 270.354 323.799 277.538C331.235 289.346 344.297 287.788 356.153 286.03C381.071 280.302 390.969 257.441 393.631 234.127L394.686 221.868C394.535 216.542 394.887 211.115 394.686 205.79Z" strokeWidth="1.5" strokeMiterlimit="10" opacity="0.3" fill="currentColor" width="396" height="288"/><path stroke="currentColor" d="M394.686 205.79C392.978 158.058 379.966 108.215 365.698 62.7441C355.902 31.4922 352.687 15.816 317.369 8.12858C298.127 3.9583 278.032 2.25 258.388 2.25C238.192 2.25 217.946 2.25 197.75 2.35049C177.554 2.30024 157.308 2.25 137.112 2.25C117.468 2.25 97.3728 3.90806 78.1314 8.12858C42.7632 15.816 39.5982 31.4922 29.8016 62.7441C15.5338 108.215 2.52193 158.058 0.81381 205.79C0.612854 211.115 0.964526 216.542 0.81381 221.868L1.86884 234.127C4.5315 257.441 14.4285 280.302 39.347 286.03C51.2034 287.788 64.2655 289.396 71.7008 277.538C76.2223 270.354 77.3276 261.661 80.1409 253.773C84.6624 241.011 92.2485 225.134 107.521 223.878C115.107 223.275 123.497 223.476 131.083 223.325C153.289 222.923 175.544 223.677 197.75 223.325C219.956 223.626 242.211 222.923 264.417 223.325C272.003 223.476 280.443 223.224 287.979 223.878C303.252 225.134 310.838 241.011 315.359 253.773C318.122 261.661 319.278 270.354 323.799 277.538C331.235 289.346 344.297 287.788 356.153 286.03C381.071 280.302 390.969 257.441 393.631 234.127L394.686 221.868C394.535 216.542 394.887 211.115 394.686 205.79Z" strokeWidth="1.5" opacity="0.3" strokeMiterlimit="10" fill="currentColor" width="396" height="288"/><path stroke="currentColor" d="M394.686 205.79C392.978 158.058 379.966 108.215 365.698 62.7441C355.902 31.4922 352.687 15.816 317.369 8.12858C298.127 3.9583 278.032 2.25 258.388 2.25C238.192 2.25 217.946 2.25 197.75 2.35049C177.554 2.30024 157.308 2.25 137.112 2.25C117.468 2.25 97.3728 3.90806 78.1314 8.12858C42.7632 15.816 39.5982 31.4922 29.8016 62.7441C15.5338 108.215 2.52193 158.058 0.81381 205.79C0.612854 211.115 0.964526 216.542 0.81381 221.868L1.86884 234.127C4.5315 257.441 14.4285 280.302 39.347 286.03C51.2034 287.788 64.2655 289.396 71.7008 277.538C76.2223 270.354 77.3276 261.661 80.1409 253.773C84.6624 241.011 92.2485 225.134 107.521 223.878C115.107 223.275 123.497 223.476 131.083 223.325C153.289 222.923 175.544 223.677 197.75 223.325C219.956 223.626 242.211 222.923 264.417 223.325C272.003 223.476 280.443 223.224 287.979 223.878C303.252 225.134 310.838 241.011 315.359 253.773C318.122 261.661 319.278 270.354 323.799 277.538C331.235 289.346 344.297 287.788 356.153 286.03C381.071 280.302 390.969 257.441 393.631 234.127L394.686 221.868C394.535 216.542 394.887 211.115 394.686 205.79Z" strokeWidth="1.5" opacity="0.3" strokeMiterlimit="10" fill="currentColor" width="396" height="288"/><path stroke="currentColor"/><path stroke="currentColor" opacity="0.3" d="M394.686 205.79C392.978 158.058 379.966 108.215 365.698 62.7441C355.902 31.4922 352.687 15.816 317.369 8.12858C298.127 3.9583 278.032 2.25 258.388 2.25C238.192 2.25 217.946 2.25 197.75 2.35049C177.554 2.30024 157.308 2.25 137.112 2.25C117.468 2.25 97.3728 3.90806 78.1314 8.12858C42.7632 15.816 39.5982 31.4922 29.8016 62.7441C15.5338 108.215 2.52193 158.058 0.81381 205.79C0.612854 211.115 0.964526 216.542 0.81381 221.868L1.86884 234.127C4.5315 257.441 14.4285 280.302 39.347 286.03C51.2034 287.788 64.2655 289.396 71.7008 277.538C76.2223 270.354 77.3276 261.661 80.1409 253.773C84.6624 241.011 92.2485 225.134 107.521 223.878C115.107 223.275 123.497 223.476 131.083 223.325C153.289 222.923 175.544 223.677 197.75 223.325C219.956 223.626 242.211 222.923 264.417 223.325C272.003 223.476 280.443 223.224 287.979 223.878C303.252 225.134 310.838 241.011 315.359 253.773C318.122 261.661 319.278 270.354 323.799 277.538C331.235 289.346 344.297 287.788 356.153 286.03C381.071 280.302 390.969 257.441 393.631 234.127L394.686 221.868C394.535 216.542 394.887 211.115 394.686 205.79Z" strokeWidth="1.5" strokeMiterlimit="10" fill="currentColor" width="396" height="288"/><path stroke="currentColor" d="M394.686 205.79C392.978 158.058 379.966 108.215 365.698 62.7441C355.902 31.4922 352.687 15.816 317.369 8.12858C298.127 3.9583 278.032 2.25 258.388 2.25C238.192 2.25 217.946 2.25 197.75 2.35049C177.554 2.30024 157.308 2.25 137.112 2.25C117.468 2.25 97.3728 3.90806 78.1314 8.12858C42.7632 15.816 39.5982 31.4922 29.8016 62.7441C15.5338 108.215 2.52193 158.058 0.81381 205.79C0.612854 211.115 0.964526 216.542 0.81381 221.868L1.86884 234.127C4.5315 257.441 14.4285 280.302 39.347 286.03C51.2034 287.788 64.2655 289.396 71.7008 277.538C76.2223 270.354 77.3276 261.661 80.1409 253.773C84.6624 241.011 92.2485 225.134 107.521 223.878C115.107 223.275 123.497 223.476 131.083 223.325C153.289 222.923 175.544 223.677 197.75 223.325C219.956 223.626 242.211 222.923 264.417 223.325C272.003 223.476 280.443 223.224 287.979 223.878C303.252 225.134 310.838 241.011 315.359 253.773C318.122 261.661 319.278 270.354 323.799 277.538C331.235 289.346 344.297 287.788 356.153 286.03C381.071 280.302 390.969 257.441 393.631 234.127L394.686 221.868C394.535 216.542 394.887 211.115 394.686 205.79Z" strokeWidth="1.5" opacity="0.3" strokeMiterlimit="10" fill="currentColor" width="396" height="288"/><path stroke="currentColor" d="M394.686 205.79C392.978 158.058 379.966 108.215 365.698 62.7441C355.902 31.4922 352.687 15.816 317.369 8.12858C298.127 3.9583 278.032 2.25 258.388 2.25C238.192 2.25 217.946 2.25 197.75 2.35049C177.554 2.30024 157.308 2.25 137.112 2.25C117.468 2.25 97.3728 3.90806 78.1314 8.12858C42.7632 15.816 39.5982 31.4922 29.8016 62.7441C15.5338 108.215 2.52193 158.058 0.81381 205.79C0.612854 211.115 0.964526 216.542 0.81381 221.868L1.86884 234.127C4.5315 257.441 14.4285 280.302 39.347 286.03C51.2034 287.788 64.2655 289.396 71.7008 277.538C76.2223 270.354 77.3276 261.661 80.1409 253.773C84.6624 241.011 92.2485 225.134 107.521 223.878C115.107 223.275 123.497 223.476 131.083 223.325C153.289 222.923 175.544 223.677 197.75 223.325C219.956 223.626 242.211 222.923 264.417 223.325C272.003 223.476 280.443 223.224 287.979 223.878C303.252 225.134 310.838 241.011 315.359 253.773C318.122 261.661 319.278 270.354 323.799 277.538C331.235 289.346 344.297 287.788 356.153 286.03C381.071 280.302 390.969 257.441 393.631 234.127L394.686 221.868C394.535 216.542 394.887 211.115 394.686 205.79Z" strokeWidth="1.5" opacity="0.3" strokeMiterlimit="10" fill="currentColor" width="396" height="288"/><path stroke="currentColor" opacity="0.3" d="M394.686 205.79C392.978 158.058 379.966 108.215 365.698 62.7441C355.902 31.4922 352.687 15.816 317.369 8.12858C298.127 3.9583 278.032 2.25 258.388 2.25C238.192 2.25 217.946 2.25 197.75 2.35049C177.554 2.30024 157.308 2.25 137.112 2.25C117.468 2.25 97.3728 3.90806 78.1314 8.12858C42.7632 15.816 39.5982 31.4922 29.8016 62.7441C15.5338 108.215 2.52193 158.058 0.81381 205.79C0.612854 211.115 0.964526 216.542 0.81381 221.868L1.86884 234.127C4.5315 257.441 14.4285 280.302 39.347 286.03C51.2034 287.788 64.2655 289.396 71.7008 277.538C76.2223 270.354 77.3276 261.661 80.1409 253.773C84.6624 241.011 92.2485 225.134 107.521 223.878C115.107 223.275 123.497 223.476 131.083 223.325C153.289 222.923 175.544 223.677 197.75 223.325C219.956 223.626 242.211 222.923 264.417 223.325C272.003 223.476 280.443 223.224 287.979 223.878C303.252 225.134 310.838 241.011 315.359 253.773C318.122 261.661 319.278 270.354 323.799 277.538C331.235 289.346 344.297 287.788 356.153 286.03C381.071 280.302 390.969 257.441 393.631 234.127L394.686 221.868C394.535 216.542 394.887 211.115 394.686 205.79Z" strokeWidth="1.5" strokeMiterlimit="10" fill="currentColor" width="396" height="288"/><g opacity="0.3" stroke="currentColor" d="M394.686 205.79C392.978 158.058 379.966 108.215 365.698 62.7441C355.902 31.4922 352.687 15.816 317.369 8.12858C298.127 3.9583 278.032 2.25 258.388 2.25C238.192 2.25 217.946 2.25 197.75 2.35049C177.554 2.30024 157.308 2.25 137.112 2.25C117.468 2.25 97.3728 3.90806 78.1314 8.12858C42.7632 15.816 39.5982 31.4922 29.8016 62.7441C15.5338 108.215 2.52193 158.058 0.81381 205.79C0.612854 211.115 0.964526 216.542 0.81381 221.868L1.86884 234.127C4.5315 257.441 14.4285 280.302 39.347 286.03C51.2034 287.788 64.2655 289.396 71.7008 277.538C76.2223 270.354 77.3276 261.661 80.1409 253.773C84.6624 241.011 92.2485 225.134 107.521 223.878C115.107 223.275 123.497 223.476 131.083 223.325C153.289 222.923 175.544 223.677 197.75 223.325C219.956 223.626 242.211 222.923 264.417 223.325C272.003 223.476 280.443 223.224 287.979 223.878C303.252 225.134 310.838 241.011 315.359 253.773C318.122 261.661 319.278 270.354 323.799 277.538C331.235 289.346 344.297 287.788 356.153 286.03C381.071 280.302 390.969 257.441 393.631 234.127L394.686 221.868C394.535 216.542 394.887 211.115 394.686 205.79Z" strokeWidth="1.5" strokeMiterlimit="10" fill="currentColor" width="396" height="288"/><path stroke="currentColor" opacity="0.3" d="M394.686 205.79C392.978 158.058 379.966 108.215 365.698 62.7441C355.902 31.4922 352.687 15.816 317.369 8.12858C298.127 3.9583 278.032 2.25 258.388 2.25C238.192 2.25 217.946 2.25 197.75 2.35049C177.554 2.30024 157.308 2.25 137.112 2.25C117.468 2.25 97.3728 3.90806 78.1314 8.12858C42.7632 15.816 39.5982 31.4922 29.8016 62.7441C15.5338 108.215 2.52193 158.058 0.81381 205.79C0.612854 211.115 0.964526 216.542 0.81381 221.868L1.86884 234.127C4.5315 257.441 14.4285 280.302 39.347 286.03C51.2034 287.788 64.2655 289.396 71.7008 277.538C76.2223 270.354 77.3276 261.661 80.1409 253.773C84.6624 241.011 92.2485 225.134 107.521 223.878C115.107 223.275 123.497 223.476 131.083 223.325C153.289 222.923 175.544 223.677 197.75 223.325C219.956 223.626 242.211 222.923 264.417 223.325C272.003 223.476 280.443 223.224 287.979 223.878C303.252 225.134 310.838 241.011 315.359 253.773C318.122 261.661 319.278 270.354 323.799 277.538C331.235 289.346 344.297 287.788 356.153 286.03C381.071 280.302 390.969 257.441 393.631 234.127L394.686 221.868C394.535 216.542 394.887 211.115 394.686 205.79Z" strokeWidth="1.5" strokeMiterlimit="10" fill="currentColor" width="396" height="288"/><path stroke="currentColor" opacity="0.3" d="M394.686 205.79C392.978 158.058 379.966 108.215 365.698 62.7441C355.902 31.4922 352.687 15.816 317.369 8.12858C298.127 3.9583 278.032 2.25 258.388 2.25C238.192 2.25 217.946 2.25 197.75 2.35049C177.554 2.30024 157.308 2.25 137.112 2.25C117.468 2.25 97.3728 3.90806 78.1314 8.12858C42.7632 15.816 39.5982 31.4922 29.8016 62.7441C15.5338 108.215 2.52193 158.058 0.81381 205.79C0.612854 211.115 0.964526 216.542 0.81381 221.868L1.86884 234.127C4.5315 257.441 14.4285 280.302 39.347 286.03C51.2034 287.788 64.2655 289.396 71.7008 277.538C76.2223 270.354 77.3276 261.661 80.1409 253.773C84.6624 241.011 92.2485 225.134 107.521 223.878C115.107 223.275 123.497 223.476 131.083 223.325C153.289 222.923 175.544 223.677 197.75 223.325C219.956 223.626 242.211 222.923 264.417 223.325C272.003 223.476 280.443 223.224 287.979 223.878C303.252 225.134 310.838 241.011 315.359 253.773C318.122 261.661 319.278 270.354 323.799 277.538C331.235 289.346 344.297 287.788 356.153 286.03C381.071 280.302 390.969 257.441 393.631 234.127L394.686 221.868C394.535 216.542 394.887 211.115 394.686 205.79Z" strokeWidth="1.5" strokeMiterlimit="10" fill="currentColor" width="396" height="288"/><path stroke="currentColor" opacity="0.3" d="M394.686 205.79C392.978 158.058 379.966 108.215 365.698 62.7441C355.902 31.4922 352.687 15.816 317.369 8.12858C298.127 3.9583 278.032 2.25 258.388 2.25C238.192 2.25 217.946 2.25 197.75 2.35049C177.554 2.30024 157.308 2.25 137.112 2.25C117.468 2.25 97.3728 3.90806 78.1314 8.12858C42.7632 15.816 39.5982 31.4922 29.8016 62.7441C15.5338 108.215 2.52193 158.058 0.81381 205.79C0.612854 211.115 0.964526 216.542 0.81381 221.868L1.86884 234.127C4.5315 257.441 14.4285 280.302 39.347 286.03C51.2034 287.788 64.2655 289.396 71.7008 277.538C76.2223 270.354 77.3276 261.661 80.1409 253.773C84.6624 241.011 92.2485 225.134 107.521 223.878C115.107 223.275 123.497 223.476 131.083 223.325C153.289 222.923 175.544 223.677 197.75 223.325C219.956 223.626 242.211 222.923 264.417 223.325C272.003 223.476 280.443 223.224 287.979 223.878C303.252 225.134 310.838 241.011 315.359 253.773C318.122 261.661 319.278 270.354 323.799 277.538C331.235 289.346 344.297 287.788 356.153 286.03C381.071 280.302 390.969 257.441 393.631 234.127L394.686 221.868C394.535 216.542 394.887 211.115 394.686 205.79Z" strokeWidth="1.5" strokeMiterlimit="10" fill="currentColor" width="396" height="288"/><path stroke="currentColor" d="M394.686 205.79C392.978 158.058 379.966 108.215 365.698 62.7441C355.902 31.4922 352.687 15.816 317.369 8.12858C298.127 3.9583 278.032 2.25 258.388 2.25C238.192 2.25 217.946 2.25 197.75 2.35049C177.554 2.30024 157.308 2.25 137.112 2.25C117.468 2.25 97.3728 3.90806 78.1314 8.12858C42.7632 15.816 39.5982 31.4922 29.8016 62.7441C15.5338 108.215 2.52193 158.058 0.81381 205.79C0.612854 211.115 0.964526 216.542 0.81381 221.868L1.86884 234.127C4.5315 257.441 14.4285 280.302 39.347 286.03C51.2034 287.788 64.2655 289.396 71.7008 277.538C76.2223 270.354 77.3276 261.661 80.1409 253.773C84.6624 241.011 92.2485 225.134 107.521 223.878C115.107 223.275 123.497 223.476 131.083 223.325C153.289 222.923 175.544 223.677 197.75 223.325C219.956 223.626 242.211 222.923 264.417 223.325C272.003 223.476 280.443 223.224 287.979 223.878C303.252 225.134 310.838 241.011 315.359 253.773C318.122 261.661 319.278 270.354 323.799 277.538C331.235 289.346 344.297 287.788 356.153 286.03C381.071 280.302 390.969 257.441 393.631 234.127L394.686 221.868C394.535 216.542 394.887 211.115 394.686 205.79Z" strokeWidth="1.5" strokeMiterlimit="10" fill="currentColor" width="396" height="288"/><path stroke="currentColor" d="M394.686 205.79C392.978 158.058 379.966 108.215 365.698 62.7441C355.902 31.4922 352.687 15.816 317.369 8.12858C298.127 3.9583 278.032 2.25 258.388 2.25C238.192 2.25 217.946 2.25 197.75 2.35049C177.554 2.30024 157.308 2.25 137.112 2.25C117.468 2.25 97.3728 3.90806 78.1314 8.12858C42.7632 15.816 39.5982 31.4922 29.8016 62.7441C15.5338 108.215 2.52193 158.058 0.81381 205.79C0.612854 211.115 0.964526 216.542 0.81381 221.868L1.86884 234.127C4.5315 257.441 14.4285 280.302 39.347 286.03C51.2034 287.788 64.2655 289.396 71.7008 277.538C76.2223 270.354 77.3276 261.661 80.1409 253.773C84.6624 241.011 92.2485 225.134 107.521 223.878C115.107 223.275 123.497 223.476 131.083 223.325C153.289 222.923 175.544 223.677 197.75 223.325C219.956 223.626 242.211 222.923 264.417 223.325C272.003 223.476 280.443 223.224 287.979 223.878C303.252 225.134 310.838 241.011 315.359 253.773C318.122 261.661 319.278 270.354 323.799 277.538C331.235 289.346 344.297 287.788 356.153 286.03C381.071 280.302 390.969 257.441 393.631 234.127L394.686 221.868C394.535 216.542 394.887 211.115 394.686 205.79Z" strokeWidth="1.5" strokeMiterlimit="10" fill="currentColor" width="396" height="288"/><path stroke="currentColor" d="M394.686 205.79C392.978 158.058 379.966 108.215 365.698 62.7441C355.902 31.4922 352.687 15.816 317.369 8.12858C298.127 3.9583 278.032 2.25 258.388 2.25C238.192 2.25 217.946 2.25 197.75 2.35049C177.554 2.30024 157.308 2.25 137.112 2.25C117.468 2.25 97.3728 3.90806 78.1314 8.12858C42.7632 15.816 39.5982 31.4922 29.8016 62.7441C15.5338 108.215 2.52193 158.058 0.81381 205.79C0.612854 211.115 0.964526 216.542 0.81381 221.868L1.86884 234.127C4.5315 257.441 14.4285 280.302 39.347 286.03C51.2034 287.788 64.2655 289.396 71.7008 277.538C76.2223 270.354 77.3276 261.661 80.1409 253.773C84.6624 241.011 92.2485 225.134 107.521 223.878C115.107 223.275 123.497 223.476 131.083 223.325C153.289 222.923 175.544 223.677 197.75 223.325C219.956 223.626 242.211 222.923 264.417 223.325C272.003 223.476 280.443 223.224 287.979 223.878C303.252 225.134 310.838 241.011 315.359 253.773C318.122 261.661 319.278 270.354 323.799 277.538C331.235 289.346 344.297 287.788 356.153 286.03C381.071 280.302 390.969 257.441 393.631 234.127L394.686 221.868C394.535 216.542 394.887 211.115 394.686 205.79Z" strokeWidth="1.5" strokeMiterlimit="10" fill="currentColor" width="396" height="288"/><defs fill="currentColor" width="396" height="288"/><clipPath fill="currentColor" width="396" height="288"/><rect fill="currentColor" width="396" height="288"/></svg>