<svg xmlns="http://www.w3.org/2000/svg" viewBox="0 0 1500 584" width="35.7734" height="13.5692" fill="#fff"><path stroke="currentColor" d="M1496.92 382.653H1042V430.147C1042 432.424 1043.84 434.261 1046.11 434.261H1082.35C1086.89 439.381 1093.49 442.627 1100.82 442.627H1112.54C1119.87 442.627 1126.48 439.381 1131.01 434.261H1410.08C1414.61 439.381 1421.22 442.627 1428.55 442.627H1440.27C1447.6 442.627 1454.21 439.381 1458.74 434.261H1494.98C1497.25 434.261 1499.09 432.424 1499.09 430.147V382.653H1496.9H1496.92ZM1116.67 413.216C1116.67 414.651 1115.5 415.821 1114.07 415.821H1078.63C1077.2 415.821 1076.03 414.651 1076.03 413.216V399.484C1076.03 398.049 1077.2 396.878 1078.63 396.878H1114.07C1115.5 396.878 1116.67 398.049 1116.67 399.484V413.216ZM1203.65 413.216C1203.65 414.651 1202.48 415.821 1201.05 415.821H1165.61C1164.18 415.821 1163.01 414.651 1163.01 413.216V399.484C1163.01 398.049 1164.18 396.878 1165.61 396.878H1201.05C1202.48 396.878 1203.65 398.049 1203.65 399.484V413.216ZM1288.86 413.216C1288.86 414.651 1287.69 415.821 1286.26 415.821H1252.59C1251.16 415.821 1249.99 414.651 1249.99 413.216V406.258C1249.99 404.823 1251.16 403.653 1252.59 403.653H1286.26C1287.69 403.653 1288.86 404.823 1288.86 406.258V413.216ZM1444.67 412.1C1441.52 412.1 1438.96 409.54 1438.96 406.386C1438.96 403.232 1441.52 400.672 1444.67 400.672C1447.83 400.672 1450.39 403.232 1450.39 406.386C1450.39 409.54 1447.83 412.1 1444.67 412.1ZM1473.81 422.568C1464.88 422.568 1457.63 415.328 1457.63 406.386C1457.63 397.445 1464.87 390.204 1473.81 390.204C1482.75 390.204 1489.99 397.445 1489.99 406.386C1489.99 415.328 1482.75 422.568 1473.81 422.568Z" strokeWidth="6.16783" fill="currentColor" x="446.398" y="413.909" width="29.6056" height="6.16783"/><rect fill="currentColor" x="446.398" y="413.909" width="29.6056" height="6.16783" d="M1496.92 382.653H1042V430.147C1042 432.424 1043.84 434.261 1046.11 434.261H1082.35C1086.89 439.381 1093.49 442.627 1100.82 442.627H1112.54C1119.87 442.627 1126.48 439.381 1131.01 434.261H1410.08C1414.61 439.381 1421.22 442.627 1428.55 442.627H1440.27C1447.6 442.627 1454.21 439.381 1458.74 434.261H1494.98C1497.25 434.261 1499.09 432.424 1499.09 430.147V382.653H1496.9H1496.92ZM1116.67 413.216C1116.67 414.651 1115.5 415.821 1114.07 415.821H1078.63C1077.2 415.821 1076.03 414.651 1076.03 413.216V399.484C1076.03 398.049 1077.2 396.878 1078.63 396.878H1114.07C1115.5 396.878 1116.67 398.049 1116.67 399.484V413.216ZM1203.65 413.216C1203.65 414.651 1202.48 415.821 1201.05 415.821H1165.61C1164.18 415.821 1163.01 414.651 1163.01 413.216V399.484C1163.01 398.049 1164.18 396.878 1165.61 396.878H1201.05C1202.48 396.878 1203.65 398.049 1203.65 399.484V413.216ZM1288.86 413.216C1288.86 414.651 1287.69 415.821 1286.26 415.821H1252.59C1251.16 415.821 1249.99 414.651 1249.99 413.216V406.258C1249.99 404.823 1251.16 403.653 1252.59 403.653H1286.26C1287.69 403.653 1288.86 404.823 1288.86 406.258V413.216ZM1444.67 412.1C1441.52 412.1 1438.96 409.54 1438.96 406.386C1438.96 403.232 1441.52 400.672 1444.67 400.672C1447.83 400.672 1450.39 403.232 1450.39 406.386C1450.39 409.54 1447.83 412.1 1444.67 412.1ZM1473.81 422.568C1464.88 422.568 1457.63 415.328 1457.63 406.386C1457.63 397.445 1464.87 390.204 1473.81 390.204C1482.75 390.204 1489.99 397.445 1489.99 406.386C1489.99 415.328 1482.75 422.568 1473.81 422.568Z"/><rect fill="currentColor" x="446.398" y="413.909" width="29.6056" height="6.16783" d="M1496.92 382.653H1042V430.147C1042 432.424 1043.84 434.261 1046.11 434.261H1082.35C1086.89 439.381 1093.49 442.627 1100.82 442.627H1112.54C1119.87 442.627 1126.48 439.381 1131.01 434.261H1410.08C1414.61 439.381 1421.22 442.627 1428.55 442.627H1440.27C1447.6 442.627 1454.21 439.381 1458.74 434.261H1494.98C1497.25 434.261 1499.09 432.424 1499.09 430.147V382.653H1496.9H1496.92ZM1116.67 413.216C1116.67 414.651 1115.5 415.821 1114.07 415.821H1078.63C1077.2 415.821 1076.03 414.651 1076.03 413.216V399.484C1076.03 398.049 1077.2 396.878 1078.63 396.878H1114.07C1115.5 396.878 1116.67 398.049 1116.67 399.484V413.216ZM1203.65 413.216C1203.65 414.651 1202.48 415.821 1201.05 415.821H1165.61C1164.18 415.821 1163.01 414.651 1163.01 413.216V399.484C1163.01 398.049 1164.18 396.878 1165.61 396.878H1201.05C1202.48 396.878 1203.65 398.049 1203.65 399.484V413.216ZM1288.86 413.216C1288.86 414.651 1287.69 415.821 1286.26 415.821H1252.59C1251.16 415.821 1249.99 414.651 1249.99 413.216V406.258C1249.99 404.823 1251.16 403.653 1252.59 403.653H1286.26C1287.69 403.653 1288.86 404.823 1288.86 406.258V413.216ZM1444.67 412.1C1441.52 412.1 1438.96 409.54 1438.96 406.386C1438.96 403.232 1441.52 400.672 1444.67 400.672C1447.83 400.672 1450.39 403.232 1450.39 406.386C1450.39 409.54 1447.83 412.1 1444.67 412.1ZM1473.81 422.568C1464.88 422.568 1457.63 415.328 1457.63 406.386C1457.63 397.445 1464.87 390.204 1473.81 390.204C1482.75 390.204 1489.99 397.445 1489.99 406.386C1489.99 415.328 1482.75 422.568 1473.81 422.568Z"/><rect fill="currentColor" x="446.398" y="413.909" width="29.6056" height="6.16783" d="M452.853 369.787C451.648 370.991 451.648 372.944 452.853 374.148L472.479 393.774C473.683 394.978 475.636 394.978 476.84 393.774C478.044 392.569 478.044 390.617 476.84 389.413L459.395 371.967L476.84 354.522C478.044 353.318 478.044 351.365 476.84 350.161C475.636 348.956 473.683 348.956 472.479 350.161L452.853 369.787ZM511.777 371.967L511.777 368.883L455.033 368.883L455.033 371.967L455.033 375.051L511.777 375.051L511.777 371.967Z"/><path fill="currentColor" d="M1496.92 382.653H1042V430.147C1042 432.424 1043.84 434.261 1046.11 434.261H1082.35C1086.89 439.381 1093.49 442.627 1100.82 442.627H1112.54C1119.87 442.627 1126.48 439.381 1131.01 434.261H1410.08C1414.61 439.381 1421.22 442.627 1428.55 442.627H1440.27C1447.6 442.627 1454.21 439.381 1458.74 434.261H1494.98C1497.25 434.261 1499.09 432.424 1499.09 430.147V382.653H1496.9H1496.92ZM1116.67 413.216C1116.67 414.651 1115.5 415.821 1114.07 415.821H1078.63C1077.2 415.821 1076.03 414.651 1076.03 413.216V399.484C1076.03 398.049 1077.2 396.878 1078.63 396.878H1114.07C1115.5 396.878 1116.67 398.049 1116.67 399.484V413.216ZM1203.65 413.216C1203.65 414.651 1202.48 415.821 1201.05 415.821H1165.61C1164.18 415.821 1163.01 414.651 1163.01 413.216V399.484C1163.01 398.049 1164.18 396.878 1165.61 396.878H1201.05C1202.48 396.878 1203.65 398.049 1203.65 399.484V413.216ZM1288.86 413.216C1288.86 414.651 1287.69 415.821 1286.26 415.821H1252.59C1251.16 415.821 1249.99 414.651 1249.99 413.216V406.258C1249.99 404.823 1251.16 403.653 1252.59 403.653H1286.26C1287.69 403.653 1288.86 404.823 1288.86 406.258V413.216ZM1444.67 412.1C1441.52 412.1 1438.96 409.54 1438.96 406.386C1438.96 403.232 1441.52 400.672 1444.67 400.672C1447.83 400.672 1450.39 403.232 1450.39 406.386C1450.39 409.54 1447.83 412.1 1444.67 412.1ZM1473.81 422.568C1464.88 422.568 1457.63 415.328 1457.63 406.386C1457.63 397.445 1464.87 390.204 1473.81 390.204C1482.75 390.204 1489.99 397.445 1489.99 406.386C1489.99 415.328 1482.75 422.568 1473.81 422.568Z"/><path fill="currentColor"/><path fill="currentColor"/><path fill="currentColor"/><path fill="currentColor" d="M1496.92 382.653H1042V430.147C1042 432.424 1043.84 434.261 1046.11 434.261H1082.35C1086.89 439.381 1093.49 442.627 1100.82 442.627H1112.54C1119.87 442.627 1126.48 439.381 1131.01 434.261H1410.08C1414.61 439.381 1421.22 442.627 1428.55 442.627H1440.27C1447.6 442.627 1454.21 439.381 1458.74 434.261H1494.98C1497.25 434.261 1499.09 432.424 1499.09 430.147V382.653H1496.9H1496.92ZM1116.67 413.216C1116.67 414.651 1115.5 415.821 1114.07 415.821H1078.63C1077.2 415.821 1076.03 414.651 1076.03 413.216V399.484C1076.03 398.049 1077.2 396.878 1078.63 396.878H1114.07C1115.5 396.878 1116.67 398.049 1116.67 399.484V413.216ZM1203.65 413.216C1203.65 414.651 1202.48 415.821 1201.05 415.821H1165.61C1164.18 415.821 1163.01 414.651 1163.01 413.216V399.484C1163.01 398.049 1164.18 396.878 1165.61 396.878H1201.05C1202.48 396.878 1203.65 398.049 1203.65 399.484V413.216ZM1288.86 413.216C1288.86 414.651 1287.69 415.821 1286.26 415.821H1252.59C1251.16 415.821 1249.99 414.651 1249.99 413.216V406.258C1249.99 404.823 1251.16 403.653 1252.59 403.653H1286.26C1287.69 403.653 1288.86 404.823 1288.86 406.258V413.216ZM1444.67 412.1C1441.52 412.1 1438.96 409.54 1438.96 406.386C1438.96 403.232 1441.52 400.672 1444.67 400.672C1447.83 400.672 1450.39 403.232 1450.39 406.386C1450.39 409.54 1447.83 412.1 1444.67 412.1ZM1473.81 422.568C1464.88 422.568 1457.63 415.328 1457.63 406.386C1457.63 397.445 1464.87 390.204 1473.81 390.204C1482.75 390.204 1489.99 397.445 1489.99 406.386C1489.99 415.328 1482.75 422.568 1473.81 422.568Z"/><path fill="currentColor" d="M1496.92 382.653H1042V430.147C1042 432.424 1043.84 434.261 1046.11 434.261H1082.35C1086.89 439.381 1093.49 442.627 1100.82 442.627H1112.54C1119.87 442.627 1126.48 439.381 1131.01 434.261H1410.08C1414.61 439.381 1421.22 442.627 1428.55 442.627H1440.27C1447.6 442.627 1454.21 439.381 1458.74 434.261H1494.98C1497.25 434.261 1499.09 432.424 1499.09 430.147V382.653H1496.9H1496.92ZM1116.67 413.216C1116.67 414.651 1115.5 415.821 1114.07 415.821H1078.63C1077.2 415.821 1076.03 414.651 1076.03 413.216V399.484C1076.03 398.049 1077.2 396.878 1078.63 396.878H1114.07C1115.5 396.878 1116.67 398.049 1116.67 399.484V413.216ZM1203.65 413.216C1203.65 414.651 1202.48 415.821 1201.05 415.821H1165.61C1164.18 415.821 1163.01 414.651 1163.01 413.216V399.484C1163.01 398.049 1164.18 396.878 1165.61 396.878H1201.05C1202.48 396.878 1203.65 398.049 1203.65 399.484V413.216ZM1288.86 413.216C1288.86 414.651 1287.69 415.821 1286.26 415.821H1252.59C1251.16 415.821 1249.99 414.651 1249.99 413.216V406.258C1249.99 404.823 1251.16 403.653 1252.59 403.653H1286.26C1287.69 403.653 1288.86 404.823 1288.86 406.258V413.216ZM1444.67 412.1C1441.52 412.1 1438.96 409.54 1438.96 406.386C1438.96 403.232 1441.52 400.672 1444.67 400.672C1447.83 400.672 1450.39 403.232 1450.39 406.386C1450.39 409.54 1447.83 412.1 1444.67 412.1ZM1473.81 422.568C1464.88 422.568 1457.63 415.328 1457.63 406.386C1457.63 397.445 1464.87 390.204 1473.81 390.204C1482.75 390.204 1489.99 397.445 1489.99 406.386C1489.99 415.328 1482.75 422.568 1473.81 422.568Z"/><path fill="currentColor"/><path fill="currentColor" d="M1496.92 382.653H1042V430.147C1042 432.424 1043.84 434.261 1046.11 434.261H1082.35C1086.89 439.381 1093.49 442.627 1100.82 442.627H1112.54C1119.87 442.627 1126.48 439.381 1131.01 434.261H1410.08C1414.61 439.381 1421.22 442.627 1428.55 442.627H1440.27C1447.6 442.627 1454.21 439.381 1458.74 434.261H1494.98C1497.25 434.261 1499.09 432.424 1499.09 430.147V382.653H1496.9H1496.92ZM1116.67 413.216C1116.67 414.651 1115.5 415.821 1114.07 415.821H1078.63C1077.2 415.821 1076.03 414.651 1076.03 413.216V399.484C1076.03 398.049 1077.2 396.878 1078.63 396.878H1114.07C1115.5 396.878 1116.67 398.049 1116.67 399.484V413.216ZM1203.65 413.216C1203.65 414.651 1202.48 415.821 1201.05 415.821H1165.61C1164.18 415.821 1163.01 414.651 1163.01 413.216V399.484C1163.01 398.049 1164.18 396.878 1165.61 396.878H1201.05C1202.48 396.878 1203.65 398.049 1203.65 399.484V413.216ZM1288.86 413.216C1288.86 414.651 1287.69 415.821 1286.26 415.821H1252.59C1251.16 415.821 1249.99 414.651 1249.99 413.216V406.258C1249.99 404.823 1251.16 403.653 1252.59 403.653H1286.26C1287.69 403.653 1288.86 404.823 1288.86 406.258V413.216ZM1444.67 412.1C1441.52 412.1 1438.96 409.54 1438.96 406.386C1438.96 403.232 1441.52 400.672 1444.67 400.672C1447.83 400.672 1450.39 403.232 1450.39 406.386C1450.39 409.54 1447.83 412.1 1444.67 412.1ZM1473.81 422.568C1464.88 422.568 1457.63 415.328 1457.63 406.386C1457.63 397.445 1464.87 390.204 1473.81 390.204C1482.75 390.204 1489.99 397.445 1489.99 406.386C1489.99 415.328 1482.75 422.568 1473.81 422.568Z"/><path fill="currentColor"/><path fill="currentColor" d="M1496.92 382.653H1042V430.147C1042 432.424 1043.84 434.261 1046.11 434.261H1082.35C1086.89 439.381 1093.49 442.627 1100.82 442.627H1112.54C1119.87 442.627 1126.48 439.381 1131.01 434.261H1410.08C1414.61 439.381 1421.22 442.627 1428.55 442.627H1440.27C1447.6 442.627 1454.21 439.381 1458.74 434.261H1494.98C1497.25 434.261 1499.09 432.424 1499.09 430.147V382.653H1496.9H1496.92ZM1116.67 413.216C1116.67 414.651 1115.5 415.821 1114.07 415.821H1078.63C1077.2 415.821 1076.03 414.651 1076.03 413.216V399.484C1076.03 398.049 1077.2 396.878 1078.63 396.878H1114.07C1115.5 396.878 1116.67 398.049 1116.67 399.484V413.216ZM1203.65 413.216C1203.65 414.651 1202.48 415.821 1201.05 415.821H1165.61C1164.18 415.821 1163.01 414.651 1163.01 413.216V399.484C1163.01 398.049 1164.18 396.878 1165.61 396.878H1201.05C1202.48 396.878 1203.65 398.049 1203.65 399.484V413.216ZM1288.86 413.216C1288.86 414.651 1287.69 415.821 1286.26 415.821H1252.59C1251.16 415.821 1249.99 414.651 1249.99 413.216V406.258C1249.99 404.823 1251.16 403.653 1252.59 403.653H1286.26C1287.69 403.653 1288.86 404.823 1288.86 406.258V413.216ZM1444.67 412.1C1441.52 412.1 1438.96 409.54 1438.96 406.386C1438.96 403.232 1441.52 400.672 1444.67 400.672C1447.83 400.672 1450.39 403.232 1450.39 406.386C1450.39 409.54 1447.83 412.1 1444.67 412.1ZM1473.81 422.568C1464.88 422.568 1457.63 415.328 1457.63 406.386C1457.63 397.445 1464.87 390.204 1473.81 390.204C1482.75 390.204 1489.99 397.445 1489.99 406.386C1489.99 415.328 1482.75 422.568 1473.81 422.568Z"/><path fill="currentColor" d="M1496.92 382.653H1042V430.147C1042 432.424 1043.84 434.261 1046.11 434.261H1082.35C1086.89 439.381 1093.49 442.627 1100.82 442.627H1112.54C1119.87 442.627 1126.48 439.381 1131.01 434.261H1410.08C1414.61 439.381 1421.22 442.627 1428.55 442.627H1440.27C1447.6 442.627 1454.21 439.381 1458.74 434.261H1494.98C1497.25 434.261 1499.09 432.424 1499.09 430.147V382.653H1496.9H1496.92ZM1116.67 413.216C1116.67 414.651 1115.5 415.821 1114.07 415.821H1078.63C1077.2 415.821 1076.03 414.651 1076.03 413.216V399.484C1076.03 398.049 1077.2 396.878 1078.63 396.878H1114.07C1115.5 396.878 1116.67 398.049 1116.67 399.484V413.216ZM1203.65 413.216C1203.65 414.651 1202.48 415.821 1201.05 415.821H1165.61C1164.18 415.821 1163.01 414.651 1163.01 413.216V399.484C1163.01 398.049 1164.18 396.878 1165.61 396.878H1201.05C1202.48 396.878 1203.65 398.049 1203.65 399.484V413.216ZM1288.86 413.216C1288.86 414.651 1287.69 415.821 1286.26 415.821H1252.59C1251.16 415.821 1249.99 414.651 1249.99 413.216V406.258C1249.99 404.823 1251.16 403.653 1252.59 403.653H1286.26C1287.69 403.653 1288.86 404.823 1288.86 406.258V413.216ZM1444.67 412.1C1441.52 412.1 1438.96 409.54 1438.96 406.386C1438.96 403.232 1441.52 400.672 1444.67 400.672C1447.83 400.672 1450.39 403.232 1450.39 406.386C1450.39 409.54 1447.83 412.1 1444.67 412.1ZM1473.81 422.568C1464.88 422.568 1457.63 415.328 1457.63 406.386C1457.63 397.445 1464.87 390.204 1473.81 390.204C1482.75 390.204 1489.99 397.445 1489.99 406.386C1489.99 415.328 1482.75 422.568 1473.81 422.568Z"/><path fill="currentColor" d="M1496.92 382.653H1042V430.147C1042 432.424 1043.84 434.261 1046.11 434.261H1082.35C1086.89 439.381 1093.49 442.627 1100.82 442.627H1112.54C1119.87 442.627 1126.48 439.381 1131.01 434.261H1410.08C1414.61 439.381 1421.22 442.627 1428.55 442.627H1440.27C1447.6 442.627 1454.21 439.381 1458.74 434.261H1494.98C1497.25 434.261 1499.09 432.424 1499.09 430.147V382.653H1496.9H1496.92ZM1116.67 413.216C1116.67 414.651 1115.5 415.821 1114.07 415.821H1078.63C1077.2 415.821 1076.03 414.651 1076.03 413.216V399.484C1076.03 398.049 1077.2 396.878 1078.63 396.878H1114.07C1115.5 396.878 1116.67 398.049 1116.67 399.484V413.216ZM1203.65 413.216C1203.65 414.651 1202.48 415.821 1201.05 415.821H1165.61C1164.18 415.821 1163.01 414.651 1163.01 413.216V399.484C1163.01 398.049 1164.18 396.878 1165.61 396.878H1201.05C1202.48 396.878 1203.65 398.049 1203.65 399.484V413.216ZM1288.86 413.216C1288.86 414.651 1287.69 415.821 1286.26 415.821H1252.59C1251.16 415.821 1249.99 414.651 1249.99 413.216V406.258C1249.99 404.823 1251.16 403.653 1252.59 403.653H1286.26C1287.69 403.653 1288.86 404.823 1288.86 406.258V413.216ZM1444.67 412.1C1441.52 412.1 1438.96 409.54 1438.96 406.386C1438.96 403.232 1441.52 400.672 1444.67 400.672C1447.83 400.672 1450.39 403.232 1450.39 406.386C1450.39 409.54 1447.83 412.1 1444.67 412.1ZM1473.81 422.568C1464.88 422.568 1457.63 415.328 1457.63 406.386C1457.63 397.445 1464.87 390.204 1473.81 390.204C1482.75 390.204 1489.99 397.445 1489.99 406.386C1489.99 415.328 1482.75 422.568 1473.81 422.568Z"/><path fill="currentColor" d="M1496.92 382.653H1042V430.147C1042 432.424 1043.84 434.261 1046.11 434.261H1082.35C1086.89 439.381 1093.49 442.627 1100.82 442.627H1112.54C1119.87 442.627 1126.48 439.381 1131.01 434.261H1410.08C1414.61 439.381 1421.22 442.627 1428.55 442.627H1440.27C1447.6 442.627 1454.21 439.381 1458.74 434.261H1494.98C1497.25 434.261 1499.09 432.424 1499.09 430.147V382.653H1496.9H1496.92ZM1116.67 413.216C1116.67 414.651 1115.5 415.821 1114.07 415.821H1078.63C1077.2 415.821 1076.03 414.651 1076.03 413.216V399.484C1076.03 398.049 1077.2 396.878 1078.63 396.878H1114.07C1115.5 396.878 1116.67 398.049 1116.67 399.484V413.216ZM1203.65 413.216C1203.65 414.651 1202.48 415.821 1201.05 415.821H1165.61C1164.18 415.821 1163.01 414.651 1163.01 413.216V399.484C1163.01 398.049 1164.18 396.878 1165.61 396.878H1201.05C1202.48 396.878 1203.65 398.049 1203.65 399.484V413.216ZM1288.86 413.216C1288.86 414.651 1287.69 415.821 1286.26 415.821H1252.59C1251.16 415.821 1249.99 414.651 1249.99 413.216V406.258C1249.99 404.823 1251.16 403.653 1252.59 403.653H1286.26C1287.69 403.653 1288.86 404.823 1288.86 406.258V413.216ZM1444.67 412.1C1441.52 412.1 1438.96 409.54 1438.96 406.386C1438.96 403.232 1441.52 400.672 1444.67 400.672C1447.83 400.672 1450.39 403.232 1450.39 406.386C1450.39 409.54 1447.83 412.1 1444.67 412.1ZM1473.81 422.568C1464.88 422.568 1457.63 415.328 1457.63 406.386C1457.63 397.445 1464.87 390.204 1473.81 390.204C1482.75 390.204 1489.99 397.445 1489.99 406.386C1489.99 415.328 1482.75 422.568 1473.81 422.568Z"/><path fill="currentColor" d="M1496.92 382.653H1042V430.147C1042 432.424 1043.84 434.261 1046.11 434.261H1082.35C1086.89 439.381 1093.49 442.627 1100.82 442.627H1112.54C1119.87 442.627 1126.48 439.381 1131.01 434.261H1410.08C1414.61 439.381 1421.22 442.627 1428.55 442.627H1440.27C1447.6 442.627 1454.21 439.381 1458.74 434.261H1494.98C1497.25 434.261 1499.09 432.424 1499.09 430.147V382.653H1496.9H1496.92ZM1116.67 413.216C1116.67 414.651 1115.5 415.821 1114.07 415.821H1078.63C1077.2 415.821 1076.03 414.651 1076.03 413.216V399.484C1076.03 398.049 1077.2 396.878 1078.63 396.878H1114.07C1115.5 396.878 1116.67 398.049 1116.67 399.484V413.216ZM1203.65 413.216C1203.65 414.651 1202.48 415.821 1201.05 415.821H1165.61C1164.18 415.821 1163.01 414.651 1163.01 413.216V399.484C1163.01 398.049 1164.18 396.878 1165.61 396.878H1201.05C1202.48 396.878 1203.65 398.049 1203.65 399.484V413.216ZM1288.86 413.216C1288.86 414.651 1287.69 415.821 1286.26 415.821H1252.59C1251.16 415.821 1249.99 414.651 1249.99 413.216V406.258C1249.99 404.823 1251.16 403.653 1252.59 403.653H1286.26C1287.69 403.653 1288.86 404.823 1288.86 406.258V413.216ZM1444.67 412.1C1441.52 412.1 1438.96 409.54 1438.96 406.386C1438.96 403.232 1441.52 400.672 1444.67 400.672C1447.83 400.672 1450.39 403.232 1450.39 406.386C1450.39 409.54 1447.83 412.1 1444.67 412.1ZM1473.81 422.568C1464.88 422.568 1457.63 415.328 1457.63 406.386C1457.63 397.445 1464.87 390.204 1473.81 390.204C1482.75 390.204 1489.99 397.445 1489.99 406.386C1489.99 415.328 1482.75 422.568 1473.81 422.568Z"/><path fill="currentColor" d="M1496.92 382.653H1042V430.147C1042 432.424 1043.84 434.261 1046.11 434.261H1082.35C1086.89 439.381 1093.49 442.627 1100.82 442.627H1112.54C1119.87 442.627 1126.48 439.381 1131.01 434.261H1410.08C1414.61 439.381 1421.22 442.627 1428.55 442.627H1440.27C1447.6 442.627 1454.21 439.381 1458.74 434.261H1494.98C1497.25 434.261 1499.09 432.424 1499.09 430.147V382.653H1496.9H1496.92ZM1116.67 413.216C1116.67 414.651 1115.5 415.821 1114.07 415.821H1078.63C1077.2 415.821 1076.03 414.651 1076.03 413.216V399.484C1076.03 398.049 1077.2 396.878 1078.63 396.878H1114.07C1115.5 396.878 1116.67 398.049 1116.67 399.484V413.216ZM1203.65 413.216C1203.65 414.651 1202.48 415.821 1201.05 415.821H1165.61C1164.18 415.821 1163.01 414.651 1163.01 413.216V399.484C1163.01 398.049 1164.18 396.878 1165.61 396.878H1201.05C1202.48 396.878 1203.65 398.049 1203.65 399.484V413.216ZM1288.86 413.216C1288.86 414.651 1287.69 415.821 1286.26 415.821H1252.59C1251.16 415.821 1249.99 414.651 1249.99 413.216V406.258C1249.99 404.823 1251.16 403.653 1252.59 403.653H1286.26C1287.69 403.653 1288.86 404.823 1288.86 406.258V413.216ZM1444.67 412.1C1441.52 412.1 1438.96 409.54 1438.96 406.386C1438.96 403.232 1441.52 400.672 1444.67 400.672C1447.83 400.672 1450.39 403.232 1450.39 406.386C1450.39 409.54 1447.83 412.1 1444.67 412.1ZM1473.81 422.568C1464.88 422.568 1457.63 415.328 1457.63 406.386C1457.63 397.445 1464.87 390.204 1473.81 390.204C1482.75 390.204 1489.99 397.445 1489.99 406.386C1489.99 415.328 1482.75 422.568 1473.81 422.568Z"/><path fill="currentColor" d="M1496.92 382.653H1042V430.147C1042 432.424 1043.84 434.261 1046.11 434.261H1082.35C1086.89 439.381 1093.49 442.627 1100.82 442.627H1112.54C1119.87 442.627 1126.48 439.381 1131.01 434.261H1410.08C1414.61 439.381 1421.22 442.627 1428.55 442.627H1440.27C1447.6 442.627 1454.21 439.381 1458.74 434.261H1494.98C1497.25 434.261 1499.09 432.424 1499.09 430.147V382.653H1496.9H1496.92ZM1116.67 413.216C1116.67 414.651 1115.5 415.821 1114.07 415.821H1078.63C1077.2 415.821 1076.03 414.651 1076.03 413.216V399.484C1076.03 398.049 1077.2 396.878 1078.63 396.878H1114.07C1115.5 396.878 1116.67 398.049 1116.67 399.484V413.216ZM1203.65 413.216C1203.65 414.651 1202.48 415.821 1201.05 415.821H1165.61C1164.18 415.821 1163.01 414.651 1163.01 413.216V399.484C1163.01 398.049 1164.18 396.878 1165.61 396.878H1201.05C1202.48 396.878 1203.65 398.049 1203.65 399.484V413.216ZM1288.86 413.216C1288.86 414.651 1287.69 415.821 1286.26 415.821H1252.59C1251.16 415.821 1249.99 414.651 1249.99 413.216V406.258C1249.99 404.823 1251.16 403.653 1252.59 403.653H1286.26C1287.69 403.653 1288.86 404.823 1288.86 406.258V413.216ZM1444.67 412.1C1441.52 412.1 1438.96 409.54 1438.96 406.386C1438.96 403.232 1441.52 400.672 1444.67 400.672C1447.83 400.672 1450.39 403.232 1450.39 406.386C1450.39 409.54 1447.83 412.1 1444.67 412.1ZM1473.81 422.568C1464.88 422.568 1457.63 415.328 1457.63 406.386C1457.63 397.445 1464.87 390.204 1473.81 390.204C1482.75 390.204 1489.99 397.445 1489.99 406.386C1489.99 415.328 1482.75 422.568 1473.81 422.568Z"/><path fill="currentColor" d="M1496.92 382.653H1042V430.147C1042 432.424 1043.84 434.261 1046.11 434.261H1082.35C1086.89 439.381 1093.49 442.627 1100.82 442.627H1112.54C1119.87 442.627 1126.48 439.381 1131.01 434.261H1410.08C1414.61 439.381 1421.22 442.627 1428.55 442.627H1440.27C1447.6 442.627 1454.21 439.381 1458.74 434.261H1494.98C1497.25 434.261 1499.09 432.424 1499.09 430.147V382.653H1496.9H1496.92ZM1116.67 413.216C1116.67 414.651 1115.5 415.821 1114.07 415.821H1078.63C1077.2 415.821 1076.03 414.651 1076.03 413.216V399.484C1076.03 398.049 1077.2 396.878 1078.63 396.878H1114.07C1115.5 396.878 1116.67 398.049 1116.67 399.484V413.216ZM1203.65 413.216C1203.65 414.651 1202.48 415.821 1201.05 415.821H1165.61C1164.18 415.821 1163.01 414.651 1163.01 413.216V399.484C1163.01 398.049 1164.18 396.878 1165.61 396.878H1201.05C1202.48 396.878 1203.65 398.049 1203.65 399.484V413.216ZM1288.86 413.216C1288.86 414.651 1287.69 415.821 1286.26 415.821H1252.59C1251.16 415.821 1249.99 414.651 1249.99 413.216V406.258C1249.99 404.823 1251.16 403.653 1252.59 403.653H1286.26C1287.69 403.653 1288.86 404.823 1288.86 406.258V413.216ZM1444.67 412.1C1441.52 412.1 1438.96 409.54 1438.96 406.386C1438.96 403.232 1441.52 400.672 1444.67 400.672C1447.83 400.672 1450.39 403.232 1450.39 406.386C1450.39 409.54 1447.83 412.1 1444.67 412.1ZM1473.81 422.568C1464.88 422.568 1457.63 415.328 1457.63 406.386C1457.63 397.445 1464.87 390.204 1473.81 390.204C1482.75 390.204 1489.99 397.445 1489.99 406.386C1489.99 415.328 1482.75 422.568 1473.81 422.568Z"/><path fill="currentColor" d="M1496.92 382.653H1042V430.147C1042 432.424 1043.84 434.261 1046.11 434.261H1082.35C1086.89 439.381 1093.49 442.627 1100.82 442.627H1112.54C1119.87 442.627 1126.48 439.381 1131.01 434.261H1410.08C1414.61 439.381 1421.22 442.627 1428.55 442.627H1440.27C1447.6 442.627 1454.21 439.381 1458.74 434.261H1494.98C1497.25 434.261 1499.09 432.424 1499.09 430.147V382.653H1496.9H1496.92ZM1116.67 413.216C1116.67 414.651 1115.5 415.821 1114.07 415.821H1078.63C1077.2 415.821 1076.03 414.651 1076.03 413.216V399.484C1076.03 398.049 1077.2 396.878 1078.63 396.878H1114.07C1115.5 396.878 1116.67 398.049 1116.67 399.484V413.216ZM1203.65 413.216C1203.65 414.651 1202.48 415.821 1201.05 415.821H1165.61C1164.18 415.821 1163.01 414.651 1163.01 413.216V399.484C1163.01 398.049 1164.18 396.878 1165.61 396.878H1201.05C1202.48 396.878 1203.65 398.049 1203.65 399.484V413.216ZM1288.86 413.216C1288.86 414.651 1287.69 415.821 1286.26 415.821H1252.59C1251.16 415.821 1249.99 414.651 1249.99 413.216V406.258C1249.99 404.823 1251.16 403.653 1252.59 403.653H1286.26C1287.69 403.653 1288.86 404.823 1288.86 406.258V413.216ZM1444.67 412.1C1441.52 412.1 1438.96 409.54 1438.96 406.386C1438.96 403.232 1441.52 400.672 1444.67 400.672C1447.83 400.672 1450.39 403.232 1450.39 406.386C1450.39 409.54 1447.83 412.1 1444.67 412.1ZM1473.81 422.568C1464.88 422.568 1457.63 415.328 1457.63 406.386C1457.63 397.445 1464.87 390.204 1473.81 390.204C1482.75 390.204 1489.99 397.445 1489.99 406.386C1489.99 415.328 1482.75 422.568 1473.81 422.568Z"/><path fill="currentColor" d="M1496.92 382.653H1042V430.147C1042 432.424 1043.84 434.261 1046.11 434.261H1082.35C1086.89 439.381 1093.49 442.627 1100.82 442.627H1112.54C1119.87 442.627 1126.48 439.381 1131.01 434.261H1410.08C1414.61 439.381 1421.22 442.627 1428.55 442.627H1440.27C1447.6 442.627 1454.21 439.381 1458.74 434.261H1494.98C1497.25 434.261 1499.09 432.424 1499.09 430.147V382.653H1496.9H1496.92ZM1116.67 413.216C1116.67 414.651 1115.5 415.821 1114.07 415.821H1078.63C1077.2 415.821 1076.03 414.651 1076.03 413.216V399.484C1076.03 398.049 1077.2 396.878 1078.63 396.878H1114.07C1115.5 396.878 1116.67 398.049 1116.67 399.484V413.216ZM1203.65 413.216C1203.65 414.651 1202.48 415.821 1201.05 415.821H1165.61C1164.18 415.821 1163.01 414.651 1163.01 413.216V399.484C1163.01 398.049 1164.18 396.878 1165.61 396.878H1201.05C1202.48 396.878 1203.65 398.049 1203.65 399.484V413.216ZM1288.86 413.216C1288.86 414.651 1287.69 415.821 1286.26 415.821H1252.59C1251.16 415.821 1249.99 414.651 1249.99 413.216V406.258C1249.99 404.823 1251.16 403.653 1252.59 403.653H1286.26C1287.69 403.653 1288.86 404.823 1288.86 406.258V413.216ZM1444.67 412.1C1441.52 412.1 1438.96 409.54 1438.96 406.386C1438.96 403.232 1441.52 400.672 1444.67 400.672C1447.83 400.672 1450.39 403.232 1450.39 406.386C1450.39 409.54 1447.83 412.1 1444.67 412.1ZM1473.81 422.568C1464.88 422.568 1457.63 415.328 1457.63 406.386C1457.63 397.445 1464.87 390.204 1473.81 390.204C1482.75 390.204 1489.99 397.445 1489.99 406.386C1489.99 415.328 1482.75 422.568 1473.81 422.568Z"/><path fill="currentColor" d="M1496.92 382.653H1042V430.147C1042 432.424 1043.84 434.261 1046.11 434.261H1082.35C1086.89 439.381 1093.49 442.627 1100.82 442.627H1112.54C1119.87 442.627 1126.48 439.381 1131.01 434.261H1410.08C1414.61 439.381 1421.22 442.627 1428.55 442.627H1440.27C1447.6 442.627 1454.21 439.381 1458.74 434.261H1494.98C1497.25 434.261 1499.09 432.424 1499.09 430.147V382.653H1496.9H1496.92ZM1116.67 413.216C1116.67 414.651 1115.5 415.821 1114.07 415.821H1078.63C1077.2 415.821 1076.03 414.651 1076.03 413.216V399.484C1076.03 398.049 1077.2 396.878 1078.63 396.878H1114.07C1115.5 396.878 1116.67 398.049 1116.67 399.484V413.216ZM1203.65 413.216C1203.65 414.651 1202.48 415.821 1201.05 415.821H1165.61C1164.18 415.821 1163.01 414.651 1163.01 413.216V399.484C1163.01 398.049 1164.18 396.878 1165.61 396.878H1201.05C1202.48 396.878 1203.65 398.049 1203.65 399.484V413.216ZM1288.86 413.216C1288.86 414.651 1287.69 415.821 1286.26 415.821H1252.59C1251.16 415.821 1249.99 414.651 1249.99 413.216V406.258C1249.99 404.823 1251.16 403.653 1252.59 403.653H1286.26C1287.69 403.653 1288.86 404.823 1288.86 406.258V413.216ZM1444.67 412.1C1441.52 412.1 1438.96 409.54 1438.96 406.386C1438.96 403.232 1441.52 400.672 1444.67 400.672C1447.83 400.672 1450.39 403.232 1450.39 406.386C1450.39 409.54 1447.83 412.1 1444.67 412.1ZM1473.81 422.568C1464.88 422.568 1457.63 415.328 1457.63 406.386C1457.63 397.445 1464.87 390.204 1473.81 390.204C1482.75 390.204 1489.99 397.445 1489.99 406.386C1489.99 415.328 1482.75 422.568 1473.81 422.568Z"/></svg>