<svg xmlns="http://www.w3.org/2000/svg" viewBox="0 0 36 36" fill="#fff"><path fill="#FFC82C" fillRule="evenodd" clipRule="evenodd" d="M31.02 18.74C32.6051 18.74 33.89 17.4551 33.89 15.87C33.89 14.2849 32.6051 13 31.02 13C29.435 13 28.15 14.2849 28.15 15.87C28.15 17.4551 29.435 18.74 31.02 18.74Z"/><path fill="#FFC82C" d="M31.02 18.74C32.6051 18.74 33.89 17.4551 33.89 15.87C33.89 14.2849 32.6051 13 31.02 13C29.435 13 28.15 14.2849 28.15 15.87C28.15 17.4551 29.435 18.74 31.02 18.74Z"/><path fill="#FFC82C" d="M31.02 18.74C32.6051 18.74 33.89 17.4551 33.89 15.87C33.89 14.2849 32.6051 13 31.02 13C29.435 13 28.15 14.2849 28.15 15.87C28.15 17.4551 29.435 18.74 31.02 18.74Z"/></svg>