<svg fill="#FFFFFF" xmlns="http://www.w3.org/2000/svg" xmlns:xlink="http://www.w3.org/1999/xlink" version="1.1" x="0px" y="0px" viewBox="0 0 100 100" enable-background="new 0 0 100 100" xml:space="preserve"><rect x="47.835" y="13.817" transform="matrix(-0.7071 -0.7071 0.7071 -0.7071 51.9 113.8805)" width="3.4" height="64.749"></rect><g><path d="M34.292,59.03l-2.75,2.75c0.414,1.112,0.973,2.167,1.65,3.159l2.453-2.453C34.998,61.409,34.538,60.25,34.292,59.03z"></path><path d="M34.074,54.582v-8.39h-3.406v10.822c0,0.311,0.031,0.615,0.052,0.922L34.074,54.582z"></path><path d="M64.998,57.014c0,6.913-6.936,12.537-15.461,12.537c-4.738,0-8.98-1.741-11.819-4.47l-2.389,2.389   c3.111,3.011,7.526,5.037,12.504,5.415v7.018h-9.839c-0.586,0-1.062,0.763-1.062,1.704c0,0.939,0.476,1.702,1.062,1.702h9.926   h3.232h9.926c0.587,0,1.062-0.763,1.062-1.702c0-0.941-0.476-1.704-1.062-1.704h-9.838v-7.018   c9.608-0.73,17.165-7.565,17.165-15.871V46.191h-3.406V57.014z"></path></g><g><path d="M41.999,54.029v-2.705l-3.367,3.367c0.083,1.369,0.412,2.669,0.952,3.857l2.657-2.657   C42.088,55.294,41.999,54.672,41.999,54.029z"></path><polygon points="60.473,32.85 57.073,36.25 57.073,41.058 60.473,37.658  "></polygon><path d="M57.073,45.725v8.304c0,4.156-3.381,7.538-7.537,7.538c-2.273,0-4.31-1.016-5.693-2.612l-2.407,2.407   c2.001,2.209,4.884,3.605,8.1,3.605c6.04,0,10.937-4.896,10.937-10.938V42.325L57.073,45.725z"></path><path d="M41.999,46.657V27.628c0-4.156,3.382-7.537,7.538-7.537c4.156,0,7.537,3.381,7.537,7.537v3.954l3.4-3.4v-0.554   c0-6.04-4.896-10.937-10.937-10.937c-6.041,0-10.938,4.897-10.938,10.937v22.428L41.999,46.657z"></path></g></svg>