<svg fill="#FFFFFF" xmlns="http://www.w3.org/2000/svg" xmlns:xlink="http://www.w3.org/1999/xlink" version="1.1" x="0px" y="0px" viewBox="0 0 100 100" enable-background="new 0 0 100 100" xml:space="preserve"><path d="M58.517,55.004c0,6.042-4.896,10.938-10.937,10.938l0,0c-6.041,0-10.938-4.896-10.938-10.938v-26.4  c0-6.04,4.897-10.937,10.938-10.937l0,0c6.04,0,10.937,4.897,10.937,10.937V55.004z"></path><path d="M63.042,47.167v10.822c0,6.913-6.936,12.537-15.461,12.537c-8.526,0-15.463-5.624-15.463-12.537V47.167h-3.406v10.822  c0,8.306,7.557,15.14,17.166,15.871v7.018h-9.839c-0.586,0-1.062,0.763-1.062,1.704c0,0.939,0.476,1.702,1.062,1.702h9.926h3.232  h9.926c0.587,0,1.062-0.763,1.062-1.702c0-0.941-0.476-1.704-1.062-1.704h-9.838v-7.018c9.608-0.73,17.165-7.565,17.165-15.871  V47.167H63.042z"></path></svg>